<?xml version="1.0" encoding="utf-8"?>
<!-- Generator: Adobe Illustrator 21.0.0, SVG Export Plug-In . SVG Version: 6.00 Build 0)  -->
<svg version="1.1" id="图层_1" xmlns="http://www.w3.org/2000/svg" xmlns:xlink="http://www.w3.org/1999/xlink" x="0px" y="0px"
	 viewBox="0 0 108 71" style="enable-background:new 0 0 108 71;" xml:space="preserve">
<style type="text/css">
	.st0{fill:#727272;}
	.st1{fill:#3F3F3F;}
	.st2{clip-path:url(#SVGID_2_);}
	.st3{fill:#444444;}
	.st4{clip-path:url(#SVGID_4_);}
	.st5{fill:#2D2D2D;}
	.st6{clip-path:url(#SVGID_6_);}
	.st7{fill:#383838;}
	.st8{fill:none;stroke:#4D4D4D;stroke-width:0.5933;stroke-miterlimit:10;}
	.st9{clip-path:url(#SVGID_8_);}
	.st10{clip-path:url(#SVGID_10_);}
	.st11{fill:#52F3FF;}
	.st12{fill:#494949;}
	.st13{fill:#777777;}
	.st14{fill:#5891D6;}
	.st15{fill:#5AB5D1;}
</style>
<rect x="-1053" y="-204" class="st0" width="118.5" height="118.5"/>
<g>
	<g>
		<path class="st1" d="M70,0.7c4.1-0.8,7.2,7.2,7.2,12.6c0,6.5-0.8,6.4-1.3,6.3c-2.4-0.1-1.4-4.3-2.2-6.8C71.3,4.9,68.8,0.9,70,0.7z
			"/>
	</g>
	<g>
		<path class="st1" d="M36.6,0.7c-4.1-0.8-7.2,7.2-7.2,12.6c0,6.5,0.8,6.4,1.3,6.3c2.4-0.1,1.4-4.3,2.2-6.8
			C35.3,4.9,37.8,0.9,36.6,0.7z"/>
	</g>
	<g>
		<defs>
			<path id="SVGID_1_" d="M37.4,35.8C37.4,35.8,37.4,35.8,37.4,35.8c-1.4-1.1-6.1-1-7.4-0.8c-1.4,0.2-2.9,2.3-4.2,4.3
				c-2,3-3,5.5-4.5,10.7c-0.8,2.9-3.3,19.8,2.5,20.5c5.7,0.7,8.9,0.3,10.1,0.1c0.1,0,0.2,0,0.2-0.1c2-0.8,3.2-5.7,4.1-8.7
				C39.4,57.6,40.1,37.1,37.4,35.8z"/>
		</defs>
		<use xlink:href="#SVGID_1_"  style="overflow:visible;fill:#4D4D4D;"/>
		<clipPath id="SVGID_2_">
			<use xlink:href="#SVGID_1_"  style="overflow:visible;"/>
		</clipPath>
		<g class="st2">
			<g>
				<path class="st1" d="M32.3,68.8H18.5c-0.2,0-0.3-0.1-0.3-0.3s0.1-0.3,0.3-0.3h13.8c0.2,0,0.3,0.1,0.3,0.3S32.5,68.8,32.3,68.8z"
					/>
			</g>
			<g>
				<path class="st1" d="M35.9,66.9H22.1c-0.2,0-0.3-0.1-0.3-0.3s0.1-0.3,0.3-0.3h13.8c0.2,0,0.3,0.1,0.3,0.3S36.1,66.9,35.9,66.9z"
					/>
			</g>
			<g>
				<path class="st1" d="M31.5,65.1H17.6c-0.2,0-0.3-0.1-0.3-0.3s0.1-0.3,0.3-0.3h13.8c0.2,0,0.3,0.1,0.3,0.3S31.6,65.1,31.5,65.1z"
					/>
			</g>
			<g>
				<path class="st1" d="M35.9,63.2H22.1c-0.2,0-0.3-0.1-0.3-0.3c0-0.2,0.1-0.3,0.3-0.3h13.8c0.2,0,0.3,0.1,0.3,0.3
					C36.2,63.1,36.1,63.2,35.9,63.2z"/>
			</g>
			<g>
				<path class="st1" d="M31.5,61.4H17.6c-0.2,0-0.3-0.1-0.3-0.3c0-0.2,0.1-0.3,0.3-0.3h13.8c0.2,0,0.3,0.1,0.3,0.3
					C31.7,61.2,31.6,61.4,31.5,61.4z"/>
			</g>
			<g>
				<path class="st1" d="M35.9,59.5H22.1c-0.2,0-0.3-0.1-0.3-0.3S22,59,22.1,59h13.8c0.2,0,0.3,0.1,0.3,0.3S36.1,59.5,35.9,59.5z"/>
			</g>
			<g>
				<path class="st1" d="M31.5,57.7H17.6c-0.2,0-0.3-0.1-0.3-0.3c0-0.2,0.1-0.3,0.3-0.3h13.8c0.2,0,0.3,0.1,0.3,0.3
					C31.7,57.5,31.6,57.7,31.5,57.7z"/>
			</g>
			<g>
				<path class="st1" d="M31.5,53.9H17.6c-0.2,0-0.3-0.1-0.3-0.3c0-0.2,0.1-0.3,0.3-0.3h13.8c0.2,0,0.3,0.1,0.3,0.3
					C31.7,53.8,31.6,53.9,31.5,53.9z"/>
			</g>
			<g>
				<path class="st1" d="M35.9,55.8H22.1c-0.2,0-0.3-0.1-0.3-0.3c0-0.2,0.1-0.3,0.3-0.3h13.8c0.2,0,0.3,0.1,0.3,0.3
					C36.2,55.7,36.1,55.8,35.9,55.8z"/>
			</g>
			<g>
				<path class="st1" d="M36.8,52.1H23c-0.2,0-0.3-0.1-0.3-0.3c0-0.2,0.1-0.3,0.3-0.3h13.8c0.2,0,0.3,0.1,0.3,0.3
					C37.1,51.9,36.9,52.1,36.8,52.1z"/>
			</g>
			<g>
				<path class="st1" d="M32,50.2H18.2c-0.2,0-0.3-0.1-0.3-0.3s0.1-0.3,0.3-0.3H32c0.2,0,0.3,0.1,0.3,0.3S32.2,50.2,32,50.2z"/>
			</g>
			<g>
				<path class="st1" d="M32.6,46.5H18.8c-0.2,0-0.3-0.1-0.3-0.3c0-0.2,0.1-0.3,0.3-0.3h13.8c0.2,0,0.3,0.1,0.3,0.3
					C32.9,46.4,32.7,46.5,32.6,46.5z"/>
			</g>
			<g>
				<path class="st1" d="M37.9,48.4H24.1c-0.2,0-0.3-0.1-0.3-0.3c0-0.2,0.1-0.3,0.3-0.3h13.8c0.2,0,0.3,0.1,0.3,0.3
					C38.2,48.2,38.1,48.4,37.9,48.4z"/>
			</g>
			<g>
				<path class="st1" d="M38.7,44.6H24.9c-0.2,0-0.3-0.1-0.3-0.3c0-0.2,0.1-0.3,0.3-0.3h13.8c0.2,0,0.3,0.1,0.3,0.3
					C39,44.5,38.9,44.6,38.7,44.6z"/>
			</g>
			<g>
				<path class="st1" d="M33.1,42.8H19.3c-0.2,0-0.3-0.1-0.3-0.3s0.1-0.3,0.3-0.3h13.8c0.2,0,0.3,0.1,0.3,0.3S33.3,42.8,33.1,42.8z"
					/>
			</g>
			<g>
				<path class="st1" d="M34.8,39.1H21c-0.2,0-0.3-0.1-0.3-0.3c0-0.2,0.1-0.3,0.3-0.3h13.8c0.2,0,0.3,0.1,0.3,0.3
					C35.1,38.9,35,39.1,34.8,39.1z"/>
			</g>
			<g>
				<path class="st1" d="M41.2,40.9H27.3c-0.2,0-0.3-0.1-0.3-0.3c0-0.2,0.1-0.3,0.3-0.3h13.8c0.2,0,0.3,0.1,0.3,0.3
					C41.4,40.8,41.3,40.9,41.2,40.9z"/>
			</g>
			<g>
				<path class="st1" d="M43,37.2H29.1c-0.2,0-0.3-0.1-0.3-0.3c0-0.2,0.1-0.3,0.3-0.3H43c0.2,0,0.3,0.1,0.3,0.3
					C43.2,37.1,43.1,37.2,43,37.2z"/>
			</g>
		</g>
		<g class="st2">
			<path class="st3" d="M20.4,69.9c23.1,6.5,17.4-4.9,18.3-7.9c1.3-4.3,4-24.7,1.1-25.8c-5.3-1.9-9.8,22.2-6,31
				C35.6,71.5,18.9,69.4,20.4,69.9z"/>
		</g>
	</g>
	<g>
		<defs>
			<path id="SVGID_3_" d="M69.4,35.8C69.4,35.8,69.4,35.8,69.4,35.8c1.4-1.1,6.1-1,7.4-0.8c1.4,0.2,2.9,2.3,4.2,4.3
				c2,3,3,5.5,4.5,10.7c0.8,2.9,3.3,19.8-2.5,20.5c-5.7,0.7-8.9,0.3-10.1,0.1c-0.1,0-0.2,0-0.2-0.1c-2-0.8-3.2-5.7-4.1-8.7
				C67.4,57.6,66.7,37.1,69.4,35.8z"/>
		</defs>
		<use xlink:href="#SVGID_3_"  style="overflow:visible;fill:#4D4D4D;"/>
		<clipPath id="SVGID_4_">
			<use xlink:href="#SVGID_3_"  style="overflow:visible;"/>
		</clipPath>
		<g class="st4">
			<g>
				<path class="st1" d="M88.3,68.8H74.5c-0.2,0-0.3-0.1-0.3-0.3s0.1-0.3,0.3-0.3h13.8c0.2,0,0.3,0.1,0.3,0.3S88.5,68.8,88.3,68.8z"
					/>
			</g>
			<g>
				<path class="st1" d="M84.7,66.9H70.9c-0.2,0-0.3-0.1-0.3-0.3s0.1-0.3,0.3-0.3h13.8c0.2,0,0.3,0.1,0.3,0.3S84.8,66.9,84.7,66.9z"
					/>
			</g>
			<g>
				<path class="st1" d="M89.2,65.1H75.3c-0.2,0-0.3-0.1-0.3-0.3s0.1-0.3,0.3-0.3h13.8c0.2,0,0.3,0.1,0.3,0.3S89.3,65.1,89.2,65.1z"
					/>
			</g>
			<g>
				<path class="st1" d="M84.7,63.2H70.9c-0.2,0-0.3-0.1-0.3-0.3c0-0.2,0.1-0.3,0.3-0.3h13.8c0.2,0,0.3,0.1,0.3,0.3
					C85,63.1,84.8,63.2,84.7,63.2z"/>
			</g>
			<g>
				<path class="st1" d="M89.2,61.4H75.3c-0.2,0-0.3-0.1-0.3-0.3c0-0.2,0.1-0.3,0.3-0.3h13.8c0.2,0,0.3,0.1,0.3,0.3
					C89.4,61.2,89.3,61.4,89.2,61.4z"/>
			</g>
			<g>
				<path class="st1" d="M84.7,59.5H70.9c-0.2,0-0.3-0.1-0.3-0.3s0.1-0.3,0.3-0.3h13.8c0.2,0,0.3,0.1,0.3,0.3S84.8,59.5,84.7,59.5z"
					/>
			</g>
			<g>
				<path class="st1" d="M89.2,57.7H75.3c-0.2,0-0.3-0.1-0.3-0.3c0-0.2,0.1-0.3,0.3-0.3h13.8c0.2,0,0.3,0.1,0.3,0.3
					C89.4,57.5,89.3,57.7,89.2,57.7z"/>
			</g>
			<g>
				<path class="st1" d="M89.2,53.9H75.3c-0.2,0-0.3-0.1-0.3-0.3c0-0.2,0.1-0.3,0.3-0.3h13.8c0.2,0,0.3,0.1,0.3,0.3
					C89.4,53.8,89.3,53.9,89.2,53.9z"/>
			</g>
			<g>
				<path class="st1" d="M84.7,55.8H70.9c-0.2,0-0.3-0.1-0.3-0.3c0-0.2,0.1-0.3,0.3-0.3h13.8c0.2,0,0.3,0.1,0.3,0.3
					C85,55.7,84.8,55.8,84.7,55.8z"/>
			</g>
			<g>
				<path class="st1" d="M83.8,52.1H70c-0.2,0-0.3-0.1-0.3-0.3c0-0.2,0.1-0.3,0.3-0.3h13.8c0.2,0,0.3,0.1,0.3,0.3
					C84.1,51.9,84,52.1,83.8,52.1z"/>
			</g>
			<g>
				<path class="st1" d="M88.6,50.2H74.8c-0.2,0-0.3-0.1-0.3-0.3s0.1-0.3,0.3-0.3h13.8c0.2,0,0.3,0.1,0.3,0.3S88.8,50.2,88.6,50.2z"
					/>
			</g>
			<g>
				<path class="st1" d="M88,46.5H74.2c-0.2,0-0.3-0.1-0.3-0.3c0-0.2,0.1-0.3,0.3-0.3H88c0.2,0,0.3,0.1,0.3,0.3
					C88.3,46.4,88.2,46.5,88,46.5z"/>
			</g>
			<g>
				<path class="st1" d="M82.7,48.4H68.9c-0.2,0-0.3-0.1-0.3-0.3c0-0.2,0.1-0.3,0.3-0.3h13.8c0.2,0,0.3,0.1,0.3,0.3
					C83,48.2,82.9,48.4,82.7,48.4z"/>
			</g>
			<g>
				<path class="st1" d="M81.9,44.6H68.1c-0.2,0-0.3-0.1-0.3-0.3c0-0.2,0.1-0.3,0.3-0.3h13.8c0.2,0,0.3,0.1,0.3,0.3
					C82.2,44.5,82,44.6,81.9,44.6z"/>
			</g>
			<g>
				<path class="st1" d="M87.5,42.8H73.7c-0.2,0-0.3-0.1-0.3-0.3s0.1-0.3,0.3-0.3h13.8c0.2,0,0.3,0.1,0.3,0.3S87.6,42.8,87.5,42.8z"
					/>
			</g>
			<g>
				<path class="st1" d="M85.8,39.1H72c-0.2,0-0.3-0.1-0.3-0.3c0-0.2,0.1-0.3,0.3-0.3h13.8c0.2,0,0.3,0.1,0.3,0.3
					C86.1,38.9,86,39.1,85.8,39.1z"/>
			</g>
			<g>
				<path class="st1" d="M79.5,40.9H65.6c-0.2,0-0.3-0.1-0.3-0.3c0-0.2,0.1-0.3,0.3-0.3h13.8c0.2,0,0.3,0.1,0.3,0.3
					C79.7,40.8,79.6,40.9,79.5,40.9z"/>
			</g>
			<g>
				<path class="st1" d="M77.7,37.2H63.8c-0.2,0-0.3-0.1-0.3-0.3c0-0.2,0.1-0.3,0.3-0.3h13.8c0.2,0,0.3,0.1,0.3,0.3
					C77.9,37.1,77.8,37.2,77.7,37.2z"/>
			</g>
		</g>
		<g class="st4">
			<path class="st3" d="M86.4,69.9C63.3,76.4,69,65,68.1,61.9c-1.3-4.3-4-24.7-1.1-25.8c5.3-1.9,9.8,22.2,6,31
				C71.2,71.5,87.9,69.4,86.4,69.9z"/>
		</g>
	</g>
	<g>
		<path class="st5" d="M62.9,69.4H44c-0.6,0-1.1-0.5-1.1-1.1v-0.6H64v0.6C64,68.9,63.5,69.4,62.9,69.4z"/>
	</g>
	<g>
		<defs>
			<path id="SVGID_5_" d="M40.7,35.1c-4.3,3-6.2,7-6.9,15.5c-0.5,6.7-1.2,17.9,6.5,17.9c4.9,0,21.3,0,25.7,0c7.6,0,7.6-7.9,7.1-17.9
				c-0.3-6.9-1.6-12-6.9-15.5C62.4,32.6,44.4,32.6,40.7,35.1z"/>
		</defs>
		<clipPath id="SVGID_6_">
			<use xlink:href="#SVGID_5_"  style="overflow:visible;"/>
		</clipPath>
		<g class="st6">
			<path class="st1" d="M40.7,35.1c-4.3,3-6.8,7-7.5,15.5c-0.5,6.7-0.6,17.9,7.1,17.9c4.9,0,21.3,0,25.7,0c7.6,0,8.1-7.9,7.7-17.9
				c-0.3-6.9-2.1-12-7.5-15.5C62.4,32.6,44.4,32.6,40.7,35.1z"/>
		</g>
		<g class="st6">
			<path class="st7" d="M40.7,35.1c-8.5,6.7-6.7,29.8-1.2,30.8c6.4,1.2,22.3,0.9,26.9,0c4.3-0.8,9.4-15.1,0.8-30.8
				c15.5,8.9,6.2,33,2.3,33.9s-32.5,1.5-34,0C34.1,67.5,19.9,42.5,40.7,35.1z"/>
		</g>
		<g class="st6">
			<path class="st5" d="M54.1,58.7c-12.3,0-20.5-0.6-21-1.1l0.2-0.2c0.4,0.3,7,1,20.8,1c9.6,0,18.5-0.1,19.4-1l0.2,0.2
				C72.9,58.4,67.6,58.7,54.1,58.7z"/>
		</g>
	</g>
	<g>
		<ellipse class="st5" cx="53.5" cy="36.5" rx="10.8" ry="1.8"/>
	</g>
	<g>
		<path class="st8" d="M68.3,35.1"/>
	</g>
	<g>
		<g>
			<path class="st1" d="M64.4,35.4c-7.2,0-17.2,0-21.5,0c-4.4,0-10.7-2.5-11.1-10.2c-0.3-5.9-0.2-12.7-0.2-14.2
				c0-3.7,5.9-7.3,11.5-9.6C46.5,0,61-0.3,64.5,1.4C68.7,3.4,75,7.5,75,11c0,1.9,0,10.7,0,14.2S71.6,35.4,64.4,35.4z"/>
		</g>
		<g>
			<defs>
				<path id="SVGID_7_" d="M64.3,36.1c-3.5,0.5-7.2,0.9-10.9,0.9c-4.2,0-7.9-0.4-10.2-0.9c-4.3-0.9-10.8-1.4-11.2-9.1
					c-0.3-5.9-0.2-10.3-0.2-11.8c0-3.3-2-12.3,21.4-12.3S75,11.9,75,15.2c0,1.9,0,8.4,0,11.8S71.4,35,64.3,36.1z"/>
			</defs>
			<use xlink:href="#SVGID_7_"  style="overflow:visible;fill:#494949;"/>
			<clipPath id="SVGID_8_">
				<use xlink:href="#SVGID_7_"  style="overflow:visible;"/>
			</clipPath>
			<g class="st9">
				<path class="st1" d="M31.9,27.5c1.2,5.5,4.2,6.9,21,6.9s20.9-2.1,22-6.9c-0.5,3,4.7,10.5-22,10.5C27.7,38,31.9,27.5,31.9,27.5z"
					/>
			</g>
		</g>
		<g>
			<rect x="31.7" y="19.1" class="st1" width="43.2" height="0.4"/>
		</g>
		<g>
			<defs>
				<path id="SVGID_9_" d="M69.5,25c0,2.2-1.7,4-3.8,4.3c-3.3,0.3-8.2,0.8-12.6,0.8c-4.3,0-9-0.4-12.1-0.7c-2.2-0.2-3.8-2.1-3.8-4.3
					v-9.7c0-2.2,1.7-4.1,3.9-4.3c3.4-0.3,8.4-0.7,12-0.7c3.7,0,9,0.4,12.6,0.7c2.2,0.2,3.9,2,3.9,4.3V25z"/>
			</defs>
			<use xlink:href="#SVGID_9_"  style="overflow:visible;fill:#212121;"/>
			<clipPath id="SVGID_10_">
				<use xlink:href="#SVGID_9_"  style="overflow:visible;"/>
			</clipPath>
			<g class="st10">
				<path class="st5" d="M70.9,26.1c0,2.2-1.6,4-3.8,4.2c-3.3,0.3-8.2,0.8-12.7,0.8c-4.4,0-9-0.4-12.2-0.7c-2.2-0.2-3.8-2.1-3.8-4.2
					v-9.7c0-2.2,1.7-4.1,3.9-4.2c3.4-0.3,8.4-0.7,12.1-0.7c3.7,0,9,0.4,12.6,0.7c2.2,0.2,3.9,2,3.9,4.2V26.1z"/>
			</g>
		</g>
		<g>
			<g>
				<g>
					
						<image style="overflow:visible;opacity:0.82;" width="46" height="27" xlink:href="63174DB3AFB8F937.png"  transform="matrix(0.2803 0 0 0.2803 39.942 14.3692)">
					</image>
					<g>
						<g>
							<path class="st11" d="M42.3,20.7c-0.1,0-0.3,0-0.4-0.1c-0.6-0.2-0.9-0.9-0.7-1.5c0.9-2.4,2.7-3.7,5.1-3.7
								c2.5,0,4.2,1.3,5.1,3.7c0.2,0.6-0.1,1.2-0.7,1.5c-0.6,0.2-1.2-0.1-1.5-0.7c-0.6-1.5-1.5-2.2-3-2.2c-1.5,0-2.5,0.7-3,2.2
								C43.2,20.4,42.8,20.7,42.3,20.7z"/>
						</g>
					</g>
				</g>
			</g>
			<g>
				<g>
					
						<image style="overflow:visible;opacity:0.82;" width="46" height="27" xlink:href="63174DB3AFB8F935.png"  transform="matrix(0.2803 0 0 0.2803 53.9588 14.3692)">
					</image>
					<g>
						<g>
							<path class="st11" d="M56.2,20.7c-0.1,0-0.3,0-0.4-0.1c-0.6-0.2-0.9-0.9-0.7-1.5c0.9-2.4,2.7-3.7,5.1-3.7
								c2.5,0,4.2,1.3,5.1,3.7c0.2,0.6-0.1,1.2-0.7,1.5c-0.6,0.2-1.2-0.1-1.5-0.7c-0.6-1.5-1.5-2.2-3-2.2c-1.5,0-2.5,0.7-3,2.2
								C57.1,20.4,56.6,20.7,56.2,20.7z"/>
						</g>
					</g>
				</g>
			</g>
		</g>
	</g>
	<g>
		<path class="st1" d="M36.6,0.7c-3.5-0.9-9.1,6.2-9.1,12.6c0,6.5,1.9,6.5,3,6.4c0.6-0.1,1.2-0.2,1.2-0.9c-0.1-1.3-0.2-2,0.2-5.7
			C32.6,7.1,38,1,36.6,0.7z"/>
	</g>
	<g>
		<path class="st12" d="M36.6,0.7c-4.1-0.8-9.1,6.7-9.1,12.6c0,6.5,2,6.4,2.5,6.4c0.4,0,0.9-0.1,0.9-0.1c-0.9-2.4-0.6-5.5-0.5-7.1
			C30.8,5.6,37.8,0.9,36.6,0.7z"/>
	</g>
	<g>
		<path class="st1" d="M70,0.7c3.5-0.9,9.1,6.2,9.1,12.6c0,6.5-1.9,6.5-3,6.4c-0.6-0.1-1.2-0.2-1.2-0.9c0.1-1.3,0.2-2-0.2-5.7
			C74.1,7.1,68.6,1,70,0.7z"/>
	</g>
	<g>
		<path class="st12" d="M70,0.7c4.1-0.8,9.1,6.4,9.1,12.6c0,6.5-2,6.4-2.5,6.4c-0.4,0-0.9-0.1-0.9-0.1c0.9-2.4,0.6-5.5,0.5-7.1
			C75.8,5.6,68.8,0.9,70,0.7z"/>
	</g>
	<g>
		<g>
			<circle class="st13" cx="46.8" cy="58.3" r="3.9"/>
		</g>
		<g>
			
				<image style="overflow:visible;opacity:0.82;" width="33" height="32" xlink:href="63174DB3AFB8F93B.png"  transform="matrix(0.2803 0 0 0.2803 42.1548 53.8669)">
			</image>
			<g>
				<g>
					<circle class="st11" cx="46.8" cy="58.3" r="2.7"/>
				</g>
				<g>
					<path class="st14" d="M46.8,55.9c1.3,0,2.4,1.1,2.4,2.4s-1.1,2.4-2.4,2.4s-2.4-1.1-2.4-2.4S45.4,55.9,46.8,55.9 M46.8,55.3
						c-1.7,0-3,1.4-3,3s1.4,3,3,3s3-1.4,3-3S48.4,55.3,46.8,55.3L46.8,55.3z"/>
				</g>
			</g>
		</g>
		<g>
			<circle class="st15" cx="46.8" cy="58.3" r="1.5"/>
		</g>
	</g>
	<g>
		<g>
			<circle class="st13" cx="60.1" cy="58.3" r="3.9"/>
		</g>
		<g>
			
				<image style="overflow:visible;opacity:0.82;" width="33" height="32" xlink:href="63174DB3AFB8F93D.png"  transform="matrix(0.2803 0 0 0.2803 55.611 53.8669)">
			</image>
			<g>
				<g>
					<circle class="st11" cx="60.1" cy="58.3" r="2.7"/>
				</g>
				<g>
					<path class="st14" d="M60.1,55.9c1.3,0,2.4,1.1,2.4,2.4s-1.1,2.4-2.4,2.4c-1.3,0-2.4-1.1-2.4-2.4S58.8,55.9,60.1,55.9
						 M60.1,55.3c-1.7,0-3,1.4-3,3s1.4,3,3,3c1.7,0,3-1.4,3-3S61.8,55.3,60.1,55.3L60.1,55.3z"/>
				</g>
			</g>
		</g>
		<g>
			<circle class="st15" cx="60.1" cy="58.3" r="1.5"/>
		</g>
	</g>
	<g>
		
			<image style="overflow:visible;opacity:0.82;" width="28" height="36" xlink:href="63174DB3AFB8F93F.png"  transform="matrix(0.2803 0 0 0.2803 34.4785 35.8181)">
		</image>
		<g>
			<g>
				<path class="st11" d="M38.5,44.3l-0.6,0c-0.1,0-0.2,0-0.3,0l0,0c-1,0.3-2-0.6-1.8-1.7c0.3-1.3,0.8-2.9,1.8-4.2
					c1-1.4,2.4-1.7,2.9-0.6c0.2,0.3,0.2,0.7,0.1,1c-0.6,1.7-0.7,3.1-0.7,4C40,43.7,39.3,44.3,38.5,44.3z"/>
			</g>
		</g>
	</g>
	<g>
		
			<image style="overflow:visible;opacity:0.82;" width="28" height="36" xlink:href="63174DB3AFB8F93C.png"  transform="matrix(0.2803 0 0 0.2803 64.7548 35.8181)">
		</image>
		<g>
			<g>
				<path class="st11" d="M68.4,44.3l0.6,0c0.1,0,0.2,0,0.3,0h0c1,0.3,2-0.6,1.8-1.7c-0.3-1.3-0.8-2.9-1.8-4.2
					c-1-1.4-2.4-1.7-2.9-0.6c-0.2,0.3-0.2,0.7-0.1,1c0.6,1.7,0.7,3.1,0.7,4C67,43.7,67.6,44.3,68.4,44.3z"/>
			</g>
		</g>
	</g>
</g>
</svg>
