<?xml version="1.0" encoding="utf-8"?>
<!-- Generator: Adobe Illustrator 21.0.0, SVG Export Plug-In . SVG Version: 6.00 Build 0)  -->
<svg version="1.1" id="图层_1" xmlns="http://www.w3.org/2000/svg" xmlns:xlink="http://www.w3.org/1999/xlink" x="0px" y="0px"
	 viewBox="0 0 108 71" style="enable-background:new 0 0 108 71;" xml:space="preserve">
<style type="text/css">
	.st0{fill:#F7ECDA;}
	.st1{fill:#DFD3BA;}
	.st2{fill:#1E455B;}
	.st3{fill:#CEC8BE;}
	.st4{fill:#CBC1B5;}
	.st5{fill:#FFFDF2;}
	.st6{fill:#E5D7C0;}
	.st7{fill:#ABA998;}
	.st8{fill:#2A2722;}
	.st9{fill:#3C3B35;}
	.st10{fill:#F8EFE0;}
	.st11{fill:#C16D4A;}
	.st12{fill:#232422;}
	.st13{fill:#BDB5A4;}
	.st14{fill:#E9E2CA;}
	.st15{fill:#AC9F80;}
	.st16{fill:#D6CDB9;}
	.st17{fill:#A8997E;}
	.st18{fill:#897950;}
	.st19{fill:#C2AF96;}
	.st20{fill:#A39072;}
	.st21{fill:#A08E63;}
	.st22{fill:#F9E6C5;}
	.st23{fill:#D48646;}
	.st24{fill:#EAB254;}
	.st25{fill:#747360;}
	.st26{fill:#DFD9C3;}
	.st27{fill:#A38A57;}
	.st28{fill:#19181E;}
	.st29{fill:#D2CCB2;}
	.st30{fill:#625B43;}
	.st31{fill:#F0E5C2;}
	.st32{fill:#C4B89A;}
	.st33{fill:#F2E2B6;}
	.st34{fill:#E2D6B7;}
	.st35{fill:#6C6354;}
	.st36{fill:#FFFDF8;}
	.st37{fill:#FFFFFB;}
	.st38{fill:#C6BBA8;}
	.st39{fill:#1A170D;}
	.st40{opacity:0.7;fill:#B1CF00;}
	.st41{fill:#FFFFFF;}
	.st42{font-family:'STYuanti-SC-Bold';}
	.st43{font-size:3.9505px;}
	.st44{font-size:5.2461px;}
</style>
<g>
	<path class="st0" d="M84.9,56.2h-62c-2.3,0-4.1-1.8-4.2-4.1l-0.4-11.7c-0.1-2.7-0.1-5.4,0-8l0.4-11.4c0.1-2.3,1.9-4.1,4.2-4.1h62
		c2.3,0,4.1,1.8,4.2,4.1l0.3,11c0.1,2.7,0.1,5.4,0,8l-0.4,12.1C89,54.4,87.2,56.2,84.9,56.2z"/>
	<path class="st1" d="M84.1,54.8H23.6c-1.9,0-3.4-1.4-3.5-3.3l-0.4-11.4c-0.1-2.5-0.1-4.9,0-7.4l0.4-11.1c0.1-1.8,1.6-3.3,3.5-3.3
		h60.5c1.9,0,3.4,1.4,3.5,3.3L88,32.3c0.1,2.5,0.1,4.9,0,7.4l-0.4,11.8C87.5,53.3,86,54.8,84.1,54.8z"/>
	<g>
		<g>
			<path class="st2" d="M81,28.3v-5.1h-1.9v-2.6H39.3v1.7c0,0.2-0.2,0.3-0.3,0.3h-2.8c-0.2,0-0.3-0.2-0.3-0.3v-1.7h-7.3v2.6h-1.9
				v5.1h-2.9v17.7h2.9v4.5h1.9v2.7h50.5v-2.7H81v-4.5h2.9V28.3H81z"/>
		</g>
		<g>
			<polyline class="st3" points="28,26.7 29,27.2 35.4,27.2 35.4,23.2 34.6,22.9 			"/>
		</g>
		<g>
			<path class="st4" d="M32.2,22.4h-1.1v-0.9c0-0.3,0.2-0.5,0.5-0.5h0c0.3,0,0.5,0.2,0.5,0.5V22.4z"/>
		</g>
		<g>
			<path class="st4" d="M33.5,22.4h-1.1v-0.9c0-0.3,0.2-0.5,0.5-0.5l0,0c0.3,0,0.5,0.2,0.5,0.5V22.4z"/>
		</g>
		<g>
			<polygon class="st3" points="33.5,22.3 33.8,22.5 33.8,23.1 33.5,22.9 			"/>
		</g>
		<g>
			<polygon class="st5" points="33.5,22.9 33.5,22.3 28.8,22.3 28.8,22.9 28,22.9 28,26.7 34.6,26.7 34.6,22.9 			"/>
		</g>
		<g>
			<polygon class="st6" points="33.8,24.3 33.3,24.3 33.3,22.9 29.2,22.9 29.2,24.3 28.9,24.3 28.9,25.7 29.4,25.7 29.4,26.1 
				33.4,26.1 33.4,25.7 33.8,25.7 			"/>
		</g>
		<g>
			<path class="st5" d="M30.7,21.8h-0.9c-0.1,0-0.2-0.1-0.2-0.2l0,0c0-0.1,0.1-0.2,0.2-0.2h0.9c0.1,0,0.2,0.1,0.2,0.2l0,0
				C30.9,21.7,30.8,21.8,30.7,21.8z"/>
		</g>
		<g>
			<path class="st5" d="M34.9,21.8H34c-0.1,0-0.2-0.1-0.2-0.2l0,0c0-0.1,0.1-0.2,0.2-0.2h0.9c0.1,0,0.2,0.1,0.2,0.2l0,0
				C35.1,21.7,35,21.8,34.9,21.8z"/>
		</g>
		<g>
			<path class="st5" d="M34.3,22.1v-0.9c0-0.1,0.1-0.2,0.2-0.2l0,0c0.1,0,0.2,0.1,0.2,0.2v0.9c0,0.1-0.1,0.2-0.2,0.2l0,0
				C34.3,22.3,34.3,22.2,34.3,22.1z"/>
		</g>
		<g>
			<path class="st5" d="M33.8,44h-3.4c-0.4,0-0.8-0.3-0.8-0.8V30.4c0-0.4,0.3-0.8,0.8-0.8h3.4c0.1,0,0.3,0,0.4,0.1
				c0.1,0,0.1,0,0.2,0H35c0.3,0,0.5,0.2,0.5,0.5v1.8c0,0.3-0.2,0.5-0.5,0.5h-0.4c0,1,0,6.1,0,8.3h0.2c0.3,0,0.5,0.2,0.5,0.5v1.8
				c0,0.3-0.2,0.5-0.5,0.5h-0.5C34.1,44,34,44,33.8,44z M30.4,30c-0.2,0-0.4,0.2-0.4,0.4v12.9c0,0.2,0.2,0.4,0.4,0.4h3.4
				c0.1,0,0.2,0,0.3-0.1l0.1-0.1l0.1,0c0,0,0,0,0,0h0.6c0.1,0,0.2-0.1,0.2-0.2v-1.8c0-0.1-0.1-0.2-0.2-0.2h-0.6l0-0.2
				c0,0,0-2.2,0-4.3c0-1.3,0-2.3,0-3c0-0.4,0-0.7,0-1c0-0.1,0-0.2,0-0.3c0-0.1,0-0.3,0.2-0.3l0.6,0c0.1,0,0.2-0.1,0.2-0.2v-1.8
				c0-0.1-0.1-0.2-0.2-0.2h-0.6c-0.1,0-0.1,0-0.1,0l-0.1,0.1l-0.1-0.1C34,30,33.9,30,33.8,30H30.4z"/>
		</g>
		<g>
			<g>
				<path class="st7" d="M29,29.3h-0.9c-0.5,0-0.9-0.4-0.9-0.9v0c0-0.5,0.4-0.9,0.9-0.9H29c0.5,0,0.9,0.4,0.9,0.9v0
					C30,28.9,29.6,29.3,29,29.3z"/>
			</g>
			<g>
				<path class="st8" d="M29,29.1h-0.7c-0.4,0-0.7-0.3-0.7-0.7v0c0-0.4,0.3-0.7,0.7-0.7H29c0.4,0,0.7,0.3,0.7,0.7v0
					C29.7,28.8,29.4,29.1,29,29.1z"/>
			</g>
			<g>
				<path class="st4" d="M28,29L28,29c-0.3,0-0.5-0.2-0.5-0.5v-0.3c0-0.3,0.2-0.5,0.5-0.5l0,0c0.3,0,0.5,0.2,0.5,0.5v0.3
					C28.5,28.8,28.3,29,28,29z"/>
			</g>
			<g>
				<path class="st4" d="M29.1,29L29.1,29c-0.3,0-0.5-0.2-0.5-0.5v-0.3c0-0.3,0.2-0.5,0.5-0.5h0c0.3,0,0.5,0.2,0.5,0.5v0.3
					C29.6,28.8,29.4,29,29.1,29z"/>
			</g>
			<g>
				<path class="st5" d="M29.1,28.7L29.1,28.7c-0.1,0-0.3-0.1-0.3-0.3v-0.2c0-0.1,0.1-0.3,0.3-0.3h0c0.1,0,0.3,0.1,0.3,0.3v0.2
					C29.3,28.6,29.2,28.7,29.1,28.7z"/>
			</g>
			<g>
				<path class="st5" d="M28,28.7L28,28.7c-0.1,0-0.3-0.1-0.3-0.3v-0.2c0-0.1,0.1-0.3,0.3-0.3l0,0c0.1,0,0.3,0.1,0.3,0.3v0.2
					C28.3,28.6,28.2,28.7,28,28.7z"/>
			</g>
		</g>
		<g>
			<g>
				<path class="st5" d="M24.4,32.7c0-0.4,0.2-0.6,0.6-0.6c0.2,0,0.3,0.1,0.4,0.2l-0.1,0.1c-0.1-0.1-0.1-0.1-0.2-0.1
					c-0.2,0-0.4,0.2-0.4,0.5c0,0.3,0.1,0.5,0.4,0.5c0.1,0,0.1,0,0.2-0.1v-0.3H25v-0.2h0.4v0.5c-0.1,0.1-0.2,0.1-0.4,0.1
					C24.7,33.3,24.4,33.1,24.4,32.7z"/>
				<path class="st5" d="M25.5,32.1h0.2l0.4,0.7l0.1,0.3h0c0-0.1,0-0.3,0-0.4v-0.6h0.2v1.2h-0.2l-0.4-0.7l-0.1-0.2h0
					c0,0.1,0,0.3,0,0.4v0.6h-0.2V32.1z"/>
			</g>
			<g>
				<path class="st5" d="M24.3,34.6h0.2l0.2,0.6c0,0.1,0.1,0.3,0.1,0.4h0c0-0.1,0.1-0.3,0.1-0.4l0.2-0.6h0.2l-0.4,1.2h-0.2
					L24.3,34.6z"/>
				<path class="st5" d="M25.3,35.2c0-0.4,0.2-0.6,0.5-0.6c0.1,0,0.3,0.1,0.3,0.2L26,34.9c-0.1-0.1-0.1-0.1-0.2-0.1
					c-0.2,0-0.3,0.2-0.3,0.5c0,0.3,0.1,0.5,0.3,0.5c0.1,0,0.2,0,0.3-0.1l0.1,0.1c-0.1,0.1-0.2,0.2-0.4,0.2
					C25.5,35.9,25.3,35.6,25.3,35.2z"/>
			</g>
			<g>
				<path class="st5" d="M24.4,38.3l0.1-0.1c0.1,0.1,0.2,0.1,0.3,0.1c0.1,0,0.2-0.1,0.2-0.2c0-0.1-0.1-0.1-0.2-0.2l-0.2-0.1
					c-0.1,0-0.2-0.1-0.2-0.3c0-0.2,0.2-0.3,0.4-0.3c0.1,0,0.3,0.1,0.4,0.2l-0.1,0.1c-0.1-0.1-0.2-0.1-0.3-0.1
					c-0.1,0-0.2,0.1-0.2,0.2c0,0.1,0.1,0.1,0.2,0.2l0.2,0.1c0.1,0.1,0.2,0.1,0.2,0.3c0,0.2-0.2,0.3-0.4,0.3
					C24.7,38.5,24.5,38.4,24.4,38.3z"/>
				<path class="st5" d="M25.4,37.3h0.3c0.4,0,0.6,0.2,0.6,0.6c0,0.4-0.2,0.6-0.6,0.6h-0.3V37.3z M25.7,38.3c0.3,0,0.4-0.2,0.4-0.4
					c0-0.3-0.1-0.4-0.4-0.4h-0.1v0.9H25.7z"/>
			</g>
			<g>
				<path class="st5" d="M24.4,40.9l0.1-0.1c0.1,0.1,0.2,0.1,0.3,0.1c0.1,0,0.2-0.1,0.2-0.2c0-0.1-0.1-0.1-0.2-0.2l-0.2-0.1
					c-0.1,0-0.2-0.1-0.2-0.3c0-0.2,0.2-0.3,0.4-0.3c0.1,0,0.3,0.1,0.4,0.2l-0.1,0.1C25.1,40,25,40,24.9,40c-0.1,0-0.2,0.1-0.2,0.2
					c0,0.1,0.1,0.1,0.2,0.2l0.2,0.1c0.1,0.1,0.2,0.1,0.2,0.3c0,0.2-0.2,0.3-0.4,0.3C24.7,41,24.5,41,24.4,40.9z"/>
				<path class="st5" d="M25.3,40.4c0-0.4,0.2-0.6,0.5-0.6c0.1,0,0.3,0.1,0.3,0.2l-0.1,0.1C26,40,25.9,40,25.8,40
					c-0.2,0-0.3,0.2-0.3,0.5c0,0.3,0.1,0.5,0.3,0.5c0.1,0,0.2,0,0.3-0.1l0.1,0.1C26.1,41,26,41,25.8,41C25.5,41,25.3,40.8,25.3,40.4
					z"/>
			</g>
		</g>
		<g>
			<g>
				<polygon class="st6" points="25.6,32.1 26.2,32.7 26.2,41.1 25.4,41.3 25.8,43.7 32.8,43.8 33,29.9 26.1,29.9 				"/>
			</g>
			<g>
				<rect x="26.2" y="32.7" class="st5" width="1" height="8.4"/>
			</g>
			<g>
				<polygon class="st3" points="33.4,29.2 35.1,30 35.1,32.2 34,32.1 34,33.4 34.2,33.4 34.2,33.9 34.2,39.7 34.2,40 33.9,40.1 
					33.9,41.3 34.9,41.3 34.9,43.7 33.3,44.4 32.6,42.2 31.6,41.7 32.6,40.1 32.4,33.2 32.2,32.6 31.8,31.5 32.9,31.1 				"/>
			</g>
			<g>
				<polygon class="st5" points="34.2,33.9 33,33.9 33,32.9 32.2,32.9 32.2,33.9 32.2,39.7 32.2,40.7 33,40.7 33,39.7 34.2,39.7 
									"/>
			</g>
			<g>
				<polygon class="st5" points="32.4,41.9 32,41.9 32,40.7 31.1,40.7 31.1,41.9 31.1,42.5 32,42.5 32.4,42.5 32.4,43.4 26.4,43.4 
					26.4,41.3 25.4,41.3 25.4,43.4 25.4,44.4 26.4,44.4 32.4,44.4 33.3,44.4 33.3,43.4 33.3,42.5 33.3,41.9 				"/>
			</g>
			<g>
				<polygon class="st5" points="33.4,29.2 32.5,29.2 26.6,29.2 25.6,29.2 25.6,30.3 25.6,32.1 26.6,32.1 26.6,30.3 32.5,30.3 
					32.5,31.1 32.2,31.1 31.4,31.1 31.4,31.7 31.4,32.6 32.2,32.6 32.2,31.7 32.5,31.7 33.4,31.7 33.4,31.1 33.4,29.2 				"/>
			</g>
		</g>
		<g>
			<path class="st5" d="M77,44.2h-3.4c-0.1,0-0.3,0-0.4-0.1c-0.1,0-0.1,0-0.2,0h-0.6c-0.3,0-0.5-0.2-0.5-0.5v-1.8
				c0-0.3,0.2-0.5,0.5-0.5h0.4c0-1,0-6.1,0-8.3h-0.2c-0.3,0-0.5-0.2-0.5-0.5v-1.8c0-0.3,0.2-0.5,0.5-0.5h0.5
				c0.1-0.1,0.3-0.2,0.5-0.2H77c0.4,0,0.8,0.3,0.8,0.8v12.9C77.8,43.9,77.5,44.2,77,44.2z M73.3,43.6l0.1,0.1
				c0.1,0.1,0.2,0.1,0.3,0.1H77c0.2,0,0.4-0.2,0.4-0.4V30.5c0-0.2-0.2-0.4-0.4-0.4h-3.4c-0.1,0-0.2,0-0.3,0.1l-0.1,0.1l-0.1,0
				c0,0,0,0,0,0h-0.6c-0.1,0-0.2,0.1-0.2,0.2v1.8c0,0.1,0.1,0.2,0.2,0.2h0.6l0,0.2c0,0,0,2.2,0,4.3c0,1.3,0,2.3,0,3c0,0.4,0,0.7,0,1
				c0,0.1,0,0.2,0,0.3c0,0.1,0,0.3-0.2,0.3l-0.6,0c-0.1,0-0.2,0.1-0.2,0.2v1.8c0,0.1,0.1,0.2,0.2,0.2h0.6c0.1,0,0.1,0,0.1,0
				L73.3,43.6z"/>
		</g>
		<g>
			<g>
				<path class="st5" d="M81.8,33.3l0.1-0.1c0.1,0.1,0.2,0.1,0.3,0.1c0.1,0,0.2-0.1,0.2-0.3c0-0.2-0.1-0.2-0.2-0.2
					c-0.1,0-0.1,0-0.2,0.1l-0.1-0.1l0-0.6h0.6v0.2H82l0,0.3c0.1,0,0.1,0,0.2,0c0.2,0,0.4,0.1,0.4,0.4c0,0.3-0.2,0.4-0.4,0.4
					C82,33.4,81.8,33.3,81.8,33.3z"/>
			</g>
			<g>
				<path class="st5" d="M82.4,35c0-0.1-0.1-0.1-0.2-0.1c-0.2,0-0.3,0.1-0.3,0.5c0.1-0.1,0.2-0.1,0.3-0.1c0.2,0,0.3,0.1,0.3,0.4
					c0,0.2-0.2,0.4-0.4,0.4c-0.2,0-0.4-0.2-0.4-0.6c0-0.5,0.2-0.6,0.4-0.6c0.1,0,0.2,0.1,0.3,0.1L82.4,35z M82.3,35.6
					c0-0.2-0.1-0.2-0.2-0.2c-0.1,0-0.2,0-0.2,0.1c0,0.2,0.1,0.3,0.2,0.3C82.2,35.9,82.3,35.8,82.3,35.6z"/>
			</g>
			<g>
				<path class="st5" d="M81.7,38.1c0-0.4,0.2-0.6,0.5-0.6c0.1,0,0.3,0.1,0.3,0.2l-0.1,0.1c-0.1-0.1-0.1-0.1-0.2-0.1
					c-0.2,0-0.3,0.2-0.3,0.5c0,0.3,0.1,0.5,0.3,0.5c0.1,0,0.2,0,0.3-0.1l0.1,0.1c-0.1,0.1-0.2,0.2-0.4,0.2
					C82,38.7,81.7,38.5,81.7,38.1z"/>
				<path class="st5" d="M82.6,38.1c0-0.4,0.2-0.6,0.5-0.6c0.1,0,0.3,0.1,0.3,0.2l-0.1,0.1c-0.1-0.1-0.1-0.1-0.2-0.1
					c-0.2,0-0.3,0.2-0.3,0.5c0,0.3,0.1,0.5,0.3,0.5c0.1,0,0.2,0,0.3-0.1l0.1,0.1c-0.1,0.1-0.2,0.2-0.4,0.2
					C82.8,38.7,82.6,38.5,82.6,38.1z"/>
			</g>
			<g>
				<path class="st5" d="M81.8,40.1h0.2l0.4,0.7l0.1,0.3h0c0-0.1,0-0.3,0-0.4v-0.6h0.2v1.2h-0.2L82,40.6l-0.1-0.2h0
					c0,0.1,0,0.3,0,0.4v0.6h-0.2V40.1z"/>
				<path class="st5" d="M82.8,40.1h0.3c0.4,0,0.6,0.2,0.6,0.6c0,0.4-0.2,0.6-0.6,0.6h-0.3V40.1z M83.1,41.1c0.3,0,0.4-0.2,0.4-0.4
					c0-0.3-0.1-0.4-0.4-0.4H83v0.9H83.1z"/>
			</g>
		</g>
		<g>
			<g>
				<polygon class="st6" points="81.9,41.7 81.3,41.2 81.3,32.7 82.1,32.6 81.7,30.1 74.6,30 74.5,43.9 81.4,43.9 				"/>
			</g>
			<g>
				
					<rect x="80.3" y="32.7" transform="matrix(-1 -4.603352e-11 4.603352e-11 -1 161.5775 73.8696)" class="st5" width="1" height="8.4"/>
			</g>
			<g>
				<polygon class="st3" points="74.1,44.6 72.4,43.9 72.4,41.7 73.5,41.7 73.5,40.5 73.3,40.4 73.3,39.9 73.3,34.1 73.3,33.8 
					73.6,33.7 73.6,32.5 72.6,32.5 72.6,30.1 74.2,29.4 74.9,31.7 75.9,32.2 74.9,33.8 75.1,40.6 75.3,41.2 75.6,42.3 74.6,42.7 
									"/>
			</g>
			<g>
				<polygon class="st5" points="73.3,39.9 74.5,39.9 74.5,40.9 75.3,40.9 75.3,39.9 75.3,34.1 75.3,33.1 74.5,33.1 74.5,34.1 
					73.3,34.1 				"/>
			</g>
			<g>
				<polygon class="st5" points="75.1,32 75.5,32 75.5,33.1 76.4,33.1 76.4,32 76.4,31.4 75.5,31.4 75.1,31.4 75.1,30.4 81.1,30.4 
					81.1,32.6 82.1,32.6 82.1,30.4 82.1,29.4 81.1,29.4 75.1,29.4 74.2,29.4 74.2,30.4 74.2,31.4 74.2,32 				"/>
			</g>
			<g>
				<polygon class="st5" points="74.1,44.6 74.9,44.6 80.9,44.6 81.9,44.6 81.9,43.5 81.9,41.7 80.9,41.7 80.9,43.5 74.9,43.5 
					74.9,42.7 75.3,42.7 76.1,42.7 76.1,42.1 76.1,41.2 75.3,41.2 75.3,42.1 74.9,42.1 74.1,42.1 74.1,42.7 74.1,44.6 				"/>
			</g>
		</g>
		<g>
			<rect x="32.8" y="21.3" class="st5" width="0.4" height="0.7"/>
		</g>
		<g>
			<rect x="31.4" y="21.3" class="st5" width="0.4" height="0.7"/>
		</g>
		<g>
			<path class="st5" d="M36.8,29.3L36.8,29.3c-0.5,0-0.9-0.4-0.9-0.9v-2.9c0-0.5,0.4-0.9,0.9-0.9l0,0c0.5,0,0.9,0.4,0.9,0.9v2.9
				C37.6,28.9,37.3,29.3,36.8,29.3z"/>
		</g>
		<g>
			<path class="st5" d="M40.3,29.3L40.3,29.3c-0.5,0-0.9-0.4-0.9-0.9v-2.9c0-0.5,0.4-0.9,0.9-0.9l0,0c0.5,0,0.9,0.4,0.9,0.9v2.9
				C41.1,28.9,40.7,29.3,40.3,29.3z"/>
		</g>
		<g>
			<path class="st9" d="M38.7,28.9h-0.3c-1.1,0-2-0.9-2-2v0c0-1.1,0.9-2,2-2h0.3c1.1,0,2,0.9,2,2v0C40.7,28.1,39.8,28.9,38.7,28.9z"
				/>
		</g>
		<g>
			<path class="st10" d="M33.6,46.6h-4.2c-0.6,0-1.1-0.5-1.1-1.1l0,0c0-0.6,0.5-1.1,1.1-1.1h4.2c0.6,0,1.1,0.5,1.1,1.1l0,0
				C34.6,46.2,34.2,46.6,33.6,46.6z"/>
		</g>
		<g>
			<path class="st11" d="M32.5,46.3h-3l0,0c-0.1-0.5-0.1-1.1,0-1.6l0,0h3c0.3,0,0.5,0.2,0.5,0.5v0.8C32.9,46.1,32.7,46.3,32.5,46.3z
				"/>
		</g>
		<g>
			<path class="st5" d="M31.3,50h-0.3c-0.8,0-1.5-0.7-1.5-1.5v0c0-0.8,0.7-1.5,1.5-1.5h0.3c0.8,0,1.5,0.7,1.5,1.5v0
				C32.9,49.3,32.2,50,31.3,50z"/>
		</g>
		<g>
			<path class="st5" d="M31.9,51.4h-1.5c-0.4,0-0.7-0.3-0.7-0.7v0c0-0.4,0.3-0.7,0.7-0.7h1.5c0.4,0,0.7,0.3,0.7,0.7v0
				C32.7,51.1,32.4,51.4,31.9,51.4z"/>
		</g>
		<g>
			<g>
				<g>
					<path class="st12" d="M30.5,49.8L30.5,49.8c-0.4,0-0.7-0.3-0.7-0.7v-1.3c0-0.4,0.3-0.7,0.7-0.7h0c0.4,0,0.7,0.3,0.7,0.7v1.3
						C31.2,49.5,30.9,49.8,30.5,49.8z"/>
				</g>
				<g>
					<path class="st13" d="M31,47.9v-0.4c0-0.1-0.1-0.2-0.2-0.2h-0.6c-0.1,0-0.2,0.1-0.2,0.2v0.4c0,0.1,0.1,0.2,0.2,0.2h0.4v0.7
						h-0.4c-0.1,0-0.2,0.1-0.2,0.2v0.4c0,0.1,0.1,0.2,0.2,0.2h0.6c0.1,0,0.2-0.1,0.2-0.2V49c0-0.1-0.1-0.2-0.2-0.2v-0.7
						C30.9,48.1,31,48,31,47.9z"/>
				</g>
				<g>
					<path class="st12" d="M31.9,49.8L31.9,49.8c-0.4,0-0.7-0.3-0.7-0.7v-1.3c0-0.4,0.3-0.7,0.7-0.7h0c0.4,0,0.7,0.3,0.7,0.7v1.3
						C32.6,49.5,32.3,49.8,31.9,49.8z"/>
				</g>
				<g>
					<path class="st13" d="M32.4,47.9v-0.4c0-0.1-0.1-0.2-0.2-0.2h-0.6c-0.1,0-0.2,0.1-0.2,0.2v0.4c0,0.1,0.1,0.2,0.2,0.2H32v0.7
						h-0.4c-0.1,0-0.2,0.1-0.2,0.2v0.4c0,0.1,0.1,0.2,0.2,0.2h0.6c0.1,0,0.2-0.1,0.2-0.2V49c0-0.1-0.1-0.2-0.2-0.2v-0.7
						C32.3,48.1,32.4,48,32.4,47.9z"/>
				</g>
			</g>
			<g>
				<path class="st12" d="M31.8,51.3h-1.3c-0.4,0-0.6-0.3-0.6-0.6l0,0c0-0.4,0.3-0.6,0.6-0.6h1.3c0.4,0,0.6,0.3,0.6,0.6l0,0
					C32.5,51,32.2,51.3,31.8,51.3z"/>
			</g>
			<g>
				<path class="st13" d="M31.7,51h-1.1c-0.2,0-0.4-0.2-0.4-0.4l0,0c0-0.2,0.2-0.4,0.4-0.4h1.1c0.2,0,0.4,0.2,0.4,0.4l0,0
					C32.1,50.8,32,51,31.7,51z"/>
			</g>
		</g>
		<g>
			<path class="st5" d="M48.7,50.1v0.3c0,0.8-0.7,1.5-1.5,1.5h0c-0.8,0-1.5-0.7-1.5-1.5v-0.3c0-0.8,0.7-1.5,1.5-1.5h0
				C48,48.6,48.7,49.3,48.7,50.1z"/>
		</g>
		<g>
			<path class="st5" d="M50.1,49.5v1.5c0,0.4-0.3,0.7-0.7,0.7l0,0c-0.4,0-0.7-0.3-0.7-0.7v-1.5c0-0.4,0.3-0.7,0.7-0.7l0,0
				C49.7,48.8,50.1,49.1,50.1,49.5z"/>
		</g>
		<g>
			<g>
				<g>
					<path class="st12" d="M48.5,51L48.5,51c0,0.4-0.3,0.7-0.7,0.7h-1.3c-0.4,0-0.7-0.3-0.7-0.7v0c0-0.4,0.3-0.7,0.7-0.7h1.3
						C48.2,50.3,48.5,50.6,48.5,51z"/>
				</g>
				<g>
					<path class="st13" d="M46.6,50.5h-0.4c-0.1,0-0.2,0.1-0.2,0.2v0.6c0,0.1,0.1,0.2,0.2,0.2h0.4c0.1,0,0.2-0.1,0.2-0.2v-0.4h0.7
						v0.4c0,0.1,0.1,0.2,0.2,0.2h0.4c0.1,0,0.2-0.1,0.2-0.2v-0.6c0-0.1-0.1-0.2-0.2-0.2h-0.4c-0.1,0-0.2,0.1-0.2,0.2h-0.7
						C46.8,50.6,46.7,50.5,46.6,50.5z"/>
				</g>
				<g>
					<path class="st12" d="M48.5,49.6L48.5,49.6c0,0.4-0.3,0.7-0.7,0.7h-1.3c-0.4,0-0.7-0.3-0.7-0.7l0,0c0-0.4,0.3-0.7,0.7-0.7h1.3
						C48.2,48.9,48.5,49.2,48.5,49.6z"/>
				</g>
				<g>
					<path class="st13" d="M46.6,49.1h-0.4c-0.1,0-0.2,0.1-0.2,0.2v0.6c0,0.1,0.1,0.2,0.2,0.2h0.4c0.1,0,0.2-0.1,0.2-0.2v-0.4h0.7
						v0.4c0,0.1,0.1,0.2,0.2,0.2h0.4c0.1,0,0.2-0.1,0.2-0.2v-0.6c0-0.1-0.1-0.2-0.2-0.2h-0.4c-0.1,0-0.2,0.1-0.2,0.2h-0.7
						C46.8,49.2,46.7,49.1,46.6,49.1z"/>
				</g>
			</g>
			<g>
				<path class="st12" d="M50,49.6V51c0,0.4-0.3,0.6-0.6,0.6h0c-0.4,0-0.6-0.3-0.6-0.6v-1.3c0-0.4,0.3-0.6,0.6-0.6h0
					C49.7,49,50,49.3,50,49.6z"/>
			</g>
			<g>
				<path class="st13" d="M49.7,49.7v1.1c0,0.2-0.2,0.4-0.4,0.4l0,0c-0.2,0-0.4-0.2-0.4-0.4v-1.1c0-0.2,0.2-0.4,0.4-0.4l0,0
					C49.5,49.4,49.7,49.5,49.7,49.7z"/>
			</g>
		</g>
		<g>
			<path class="st5" d="M29.6,51.4h0.4c0.3,0,0.5,0.1,0.5,0.4c0,0.3-0.2,0.4-0.5,0.4h-0.2v0.5h-0.2V51.4z M29.9,52
				c0.2,0,0.3-0.1,0.3-0.2c0-0.2-0.1-0.2-0.3-0.2h-0.2V52H29.9z"/>
			<path class="st5" d="M30.4,51.4h0.2l0.1,0.6l0.1,0.4h0c0-0.1,0.1-0.3,0.1-0.4l0.2-0.6h0.2l0.2,0.6c0,0.1,0.1,0.3,0.1,0.4h0
				c0-0.1,0-0.3,0.1-0.4l0.1-0.6h0.2l-0.2,1.2h-0.2L31.2,52c0-0.1,0-0.2-0.1-0.3h0c0,0.1,0,0.2-0.1,0.3l-0.2,0.7h-0.2L30.4,51.4z"/>
			<path class="st5" d="M32.5,52.6l-0.3-0.5h-0.2v0.5h-0.2v-1.2h0.4c0.3,0,0.4,0.1,0.4,0.4c0,0.2-0.1,0.3-0.3,0.4l0.3,0.5H32.5z
				 M32.1,52h0.2c0.2,0,0.3-0.1,0.3-0.2c0-0.1-0.1-0.2-0.3-0.2h-0.2V52z"/>
		</g>
		<g>
			<g>
				<path class="st9" d="M41.4,37.8H40c-1.5,0-2.8-1.2-2.8-2.8v0c0-1.5,1.2-2.8,2.8-2.8h1.3c1.5,0,2.8,1.2,2.8,2.8v0
					C44.1,36.5,42.9,37.8,41.4,37.8z"/>
			</g>
			<g>
				<path class="st14" d="M38.2,32.5L38.2,32.5c-0.2,0-0.4-0.2-0.4-0.4v-1.2c0-0.2,0.2-0.4,0.4-0.4l0,0c0.2,0,0.4,0.2,0.4,0.4v1.2
					C38.6,32.3,38.4,32.5,38.2,32.5z"/>
			</g>
			<g>
				<path class="st14" d="M39.9,32.5L39.9,32.5c-0.2,0-0.4-0.2-0.4-0.4v-1.2c0-0.2,0.2-0.4,0.4-0.4l0,0c0.2,0,0.4,0.2,0.4,0.4v1.2
					C40.4,32.3,40.2,32.5,39.9,32.5z"/>
			</g>
			<g>
				<path class="st14" d="M41.7,32.5L41.7,32.5c-0.2,0-0.4-0.2-0.4-0.4v-1.2c0-0.2,0.2-0.4,0.4-0.4l0,0c0.2,0,0.4,0.2,0.4,0.4v1.2
					C42.1,32.3,41.9,32.5,41.7,32.5z"/>
			</g>
			<g>
				<path class="st14" d="M43.4,32.5L43.4,32.5c-0.2,0-0.4-0.2-0.4-0.4v-1.2c0-0.2,0.2-0.4,0.4-0.4l0,0c0.2,0,0.4,0.2,0.4,0.4v1.2
					C43.8,32.3,43.6,32.5,43.4,32.5z"/>
			</g>
			<g>
				<path class="st14" d="M38.2,39.6L38.2,39.6c-0.2,0-0.4-0.2-0.4-0.4V38c0-0.2,0.2-0.4,0.4-0.4h0c0.2,0,0.4,0.2,0.4,0.4v1.2
					C38.6,39.4,38.4,39.6,38.2,39.6z"/>
			</g>
			<g>
				<path class="st14" d="M39.9,39.6L39.9,39.6c-0.2,0-0.4-0.2-0.4-0.4V38c0-0.2,0.2-0.4,0.4-0.4l0,0c0.2,0,0.4,0.2,0.4,0.4v1.2
					C40.3,39.4,40.1,39.6,39.9,39.6z"/>
			</g>
			<g>
				<path class="st14" d="M41.6,39.6L41.6,39.6c-0.2,0-0.4-0.2-0.4-0.4V38c0-0.2,0.2-0.4,0.4-0.4h0c0.2,0,0.4,0.2,0.4,0.4v1.2
					C42.1,39.4,41.9,39.6,41.6,39.6z"/>
			</g>
			<g>
				<path class="st14" d="M43.4,39.6L43.4,39.6c-0.2,0-0.4-0.2-0.4-0.4V38c0-0.2,0.2-0.4,0.4-0.4l0,0c0.2,0,0.4,0.2,0.4,0.4v1.2
					C43.8,39.4,43.6,39.6,43.4,39.6z"/>
			</g>
		</g>
		<g>
			<g>
				<path class="st5" d="M36.8,39.8h-1.2c-0.2,0-0.4-0.2-0.4-0.4V36c0-0.2,0.2-0.4,0.4-0.4h1.2c0.2,0,0.4,0.2,0.4,0.4v3.4
					C37.2,39.6,37,39.8,36.8,39.8z M35.6,35.8c-0.1,0-0.2,0.1-0.2,0.2v3.4c0,0.1,0.1,0.2,0.2,0.2h1.2c0.1,0,0.2-0.1,0.2-0.2V36
					c0-0.1-0.1-0.2-0.2-0.2H35.6z"/>
			</g>
			<g>
				<path class="st14" d="M36.2,39.5L36.2,39.5c-0.4,0-0.6-0.3-0.6-0.6v-2.1c0-0.4,0.3-0.6,0.6-0.6l0,0c0.4,0,0.6,0.3,0.6,0.6v2.1
					C36.8,39.2,36.5,39.5,36.2,39.5z"/>
			</g>
			<g>
				<path class="st15" d="M35.9,38.7L35.9,38.7c-0.3,0-0.6-0.3-0.6-0.6v-0.9c0-0.3,0.3-0.6,0.6-0.6h0c0.3,0,0.6,0.3,0.6,0.6v0.9
					C36.5,38.5,36.2,38.7,35.9,38.7z"/>
			</g>
		</g>
		<g>
			<g>
				<path class="st16" d="M40.4,42.3h-2c-0.5,0-1-0.4-1-1v0c0-0.5,0.4-1,1-1h2c0.5,0,1,0.4,1,1v0C41.4,41.9,41,42.3,40.4,42.3z"/>
			</g>
			<g>
				<path class="st17" d="M39.6,42.3h-1c-0.5,0-0.9-0.4-0.9-0.9v0c0-0.5,0.4-0.9,0.9-0.9h1c0.5,0,0.9,0.4,0.9,0.9v0
					C40.6,41.9,40.1,42.3,39.6,42.3z"/>
			</g>
			<g>
				<rect x="38.6" y="40.4" class="st18" width="1" height="1.9"/>
			</g>
			<g>
				<path class="st5" d="M41.5,42.7h-4.1c-0.2,0-0.4-0.2-0.4-0.4v-1.9c0-0.2,0.2-0.4,0.4-0.4h4.1c0.2,0,0.4,0.2,0.4,0.4v1.9
					C41.9,42.5,41.7,42.7,41.5,42.7z M37.4,40.2c-0.1,0-0.2,0.1-0.2,0.2v1.9c0,0.1,0.1,0.2,0.2,0.2h4.1c0.1,0,0.2-0.1,0.2-0.2v-1.9
					c0-0.1-0.1-0.2-0.2-0.2H37.4z"/>
			</g>
		</g>
		<g>
			<g>
				<path class="st9" d="M39.9,44.6h-1.1c-0.4,0-0.7-0.3-0.7-0.7v0c0-0.4,0.3-0.7,0.7-0.7h1.1c0.4,0,0.7,0.3,0.7,0.7v0
					C40.7,44.3,40.4,44.6,39.9,44.6z"/>
			</g>
			<g>
				<path class="st14" d="M37.6,44.2L37.6,44.2c-0.3,0-0.5-0.2-0.5-0.5v-0.1c0-0.3,0.2-0.5,0.5-0.5l0,0c0.3,0,0.5,0.2,0.5,0.5v0.1
					C38.1,44,37.8,44.2,37.6,44.2z"/>
			</g>
			<g>
				<path class="st14" d="M41.2,44.2L41.2,44.2c-0.3,0-0.5-0.2-0.5-0.5v-0.1c0-0.3,0.2-0.5,0.5-0.5l0,0c0.3,0,0.5,0.2,0.5,0.5v0.1
					C41.7,44,41.5,44.2,41.2,44.2z"/>
			</g>
			<g>
				<path class="st9" d="M39.9,46.8h-1.1c-0.4,0-0.7-0.3-0.7-0.7v0c0-0.4,0.3-0.7,0.7-0.7h1.1c0.4,0,0.7,0.3,0.7,0.7v0
					C40.7,46.5,40.4,46.8,39.9,46.8z"/>
			</g>
			<g>
				<path class="st14" d="M37.6,46.4L37.6,46.4c-0.3,0-0.5-0.2-0.5-0.5v-0.1c0-0.3,0.2-0.5,0.5-0.5l0,0c0.3,0,0.5,0.2,0.5,0.5v0.1
					C38.1,46.2,37.8,46.4,37.6,46.4z"/>
			</g>
			<g>
				<path class="st14" d="M41.2,46.4L41.2,46.4c-0.3,0-0.5-0.2-0.5-0.5v-0.1c0-0.3,0.2-0.5,0.5-0.5l0,0c0.3,0,0.5,0.2,0.5,0.5v0.1
					C41.7,46.2,41.5,46.4,41.2,46.4z"/>
			</g>
			<g>
				<rect x="38.2" y="44.9" class="st14" width="0.4" height="0.2"/>
			</g>
			<g>
				<rect x="39.1" y="44.9" class="st14" width="0.4" height="0.2"/>
			</g>
			<g>
				<rect x="40" y="44.9" class="st14" width="0.4" height="0.2"/>
			</g>
		</g>
		<g>
			<g>
				<path class="st14" d="M34.1,52.7L34.1,52.7c-0.3,0-0.5-0.2-0.5-0.5v-0.5c0-0.3,0.2-0.5,0.5-0.5l0,0c0.3,0,0.5,0.2,0.5,0.5v0.5
					C34.5,52.5,34.3,52.7,34.1,52.7z"/>
			</g>
			<g>
				<polygon class="st19" points="43.8,49.5 43.8,50.3 43.3,50.5 43.3,49.7 				"/>
			</g>
			<g>
				<path class="st14" d="M45.3,52.7h-0.7c-0.4,0-0.7-0.3-0.7-0.7l0,0c0-0.4,0.3-0.7,0.7-0.7h0.7c0.4,0,0.7,0.3,0.7,0.7l0,0
					C46,52.4,45.7,52.7,45.3,52.7z"/>
			</g>
			<g>
				<polygon class="st20" points="35.5,49.5 34.9,49.7 43.6,49.8 43.8,49.5 				"/>
			</g>
			<g>
				<path class="st14" d="M36.8,49.7L36.8,49.7c-0.5,0-0.9-0.4-0.9-0.9l0,0c0-0.5,0.4-0.9,0.9-0.9h0c0.5,0,0.9,0.4,0.9,0.9l0,0
					C37.8,49.3,37.4,49.7,36.8,49.7z"/>
			</g>
			<g>
				<path class="st14" d="M42.7,49.7L42.7,49.7c-0.5,0-0.9-0.4-0.9-0.9l0,0c0-0.5,0.4-0.9,0.9-0.9l0,0c0.5,0,0.9,0.4,0.9,0.9l0,0
					C43.6,49.3,43.2,49.7,42.7,49.7z"/>
			</g>
			<g>
				<rect x="37.1" y="53" class="st21" width="4.2" height="1.5"/>
			</g>
			<g>
				<polygon class="st22" points="34.9,49.7 34.9,50.4 43.6,50.4 43.6,49.8 				"/>
			</g>
			<g>
				<rect x="34.1" y="50.3" class="st22" width="10" height="3"/>
			</g>
			<g>
				<path class="st22" d="M41.6,49.6h-3.4l0,0c0-0.2,0.2-0.4,0.4-0.4h2.6C41.4,49.2,41.6,49.4,41.6,49.6L41.6,49.6z"/>
			</g>
		</g>
		<g>
			<g>
				<path class="st5" d="M44.4,46.9h-2c-0.2,0-0.4-0.2-0.4-0.4V41c0-0.2,0.2-0.4,0.4-0.4h2c0.2,0,0.4,0.2,0.4,0.4v5.6
					C44.7,46.8,44.6,46.9,44.4,46.9z M42.3,40.9c-0.1,0-0.1,0.1-0.1,0.1v5.6c0,0.1,0.1,0.1,0.1,0.1h2c0.1,0,0.1-0.1,0.1-0.1V41
					c0-0.1-0.1-0.1-0.1-0.1H42.3z"/>
			</g>
			<g>
				<path class="st14" d="M43.4,46.5L43.4,46.5c-0.5,0-1-0.4-1-1v-3.4c0-0.5,0.4-1,1-1l0,0c0.5,0,1,0.4,1,1v3.4
					C44.3,46,43.9,46.5,43.4,46.5z"/>
			</g>
			<g>
				<rect x="42" y="41.6" class="st23" width="2.2" height="1.3"/>
			</g>
			<g>
				<rect x="42" y="42.6" class="st24" width="2.2" height="3.4"/>
			</g>
		</g>
		<g>
			<g>
				<path class="st14" d="M45.9,48.3L45.9,48.3c-0.4,0-0.7-0.3-0.7-0.7V47c0-0.4,0.3-0.7,0.7-0.7l0,0c0.4,0,0.7,0.3,0.7,0.7v0.6
					C46.6,48,46.3,48.3,45.9,48.3z"/>
			</g>
			<g>
				<path class="st14" d="M48.3,48.3L48.3,48.3c-0.4,0-0.7-0.3-0.7-0.7V47c0-0.4,0.3-0.7,0.7-0.7h0c0.4,0,0.7,0.3,0.7,0.7v0.6
					C49,48,48.7,48.3,48.3,48.3z"/>
			</g>
			<g>
				<path class="st9" d="M47.4,47.9h-0.7c-0.3,0-0.6-0.3-0.6-0.6l0,0c0-0.3,0.3-0.6,0.6-0.6h0.7c0.3,0,0.6,0.3,0.6,0.6l0,0
					C48,47.6,47.7,47.9,47.4,47.9z"/>
			</g>
			<g>
				<path class="st5" d="M49,48.7h-3.8c-0.3,0-0.5-0.2-0.5-0.5v-1.9c0-0.3,0.2-0.5,0.5-0.5H49c0.3,0,0.5,0.2,0.5,0.5v1.9
					C49.5,48.5,49.3,48.7,49,48.7z M45.2,46c-0.2,0-0.3,0.1-0.3,0.3v1.9c0,0.2,0.1,0.3,0.3,0.3H49c0.2,0,0.3-0.1,0.3-0.3v-1.9
					c0-0.2-0.1-0.3-0.3-0.3H45.2z"/>
			</g>
		</g>
		<g>
			<g>
				<path class="st9" d="M45,44v-1.1c0-0.4,0.3-0.7,0.7-0.7h0c0.4,0,0.7,0.3,0.7,0.7V44c0,0.4-0.3,0.7-0.7,0.7h0
					C45.4,44.7,45,44.4,45,44z"/>
			</g>
			<g>
				<path class="st14" d="M45.4,41.6L45.4,41.6c0-0.3,0.2-0.5,0.5-0.5H46c0.3,0,0.5,0.2,0.5,0.5l0,0c0,0.3-0.2,0.5-0.5,0.5h-0.1
					C45.6,42.1,45.4,41.9,45.4,41.6z"/>
			</g>
			<g>
				<path class="st14" d="M45.4,45.3L45.4,45.3c0-0.3,0.2-0.5,0.5-0.5H46c0.3,0,0.5,0.2,0.5,0.5l0,0c0,0.3-0.2,0.5-0.5,0.5h-0.1
					C45.6,45.8,45.4,45.6,45.4,45.3z"/>
			</g>
		</g>
		<g>
			<g>
				<path class="st5" d="M49,45.6h-1.4c-0.2,0-0.4-0.2-0.4-0.4v-3.6c0-0.2,0.2-0.4,0.4-0.4H49c0.2,0,0.4,0.2,0.4,0.4v3.6
					C49.4,45.4,49.2,45.6,49,45.6z M47.7,41.5c-0.1,0-0.2,0.1-0.2,0.2v3.6c0,0.1,0.1,0.2,0.2,0.2H49c0.1,0,0.2-0.1,0.2-0.2v-3.6
					c0-0.1-0.1-0.2-0.2-0.2H47.7z"/>
			</g>
			<g>
				<path class="st9" d="M48.3,45.3L48.3,45.3c-0.4,0-0.8-0.4-0.8-0.8v-2.2c0-0.4,0.4-0.8,0.8-0.8h0c0.4,0,0.8,0.4,0.8,0.8v2.2
					C49.1,45,48.7,45.3,48.3,45.3z"/>
			</g>
			<g>
				<path class="st25" d="M48.3,45.2L48.3,45.2c-0.4,0-0.7-0.3-0.7-0.7v-2c0-0.4,0.3-0.7,0.7-0.7l0,0c0.4,0,0.7,0.3,0.7,0.7v2
					C49,44.9,48.7,45.2,48.3,45.2z"/>
			</g>
			<g>
				<path class="st26" d="M48.2,44.9L48.2,44.9c-0.4,0-0.7-0.3-0.7-0.7v-1.6c0-0.4,0.3-0.7,0.7-0.7l0,0c0.4,0,0.7,0.3,0.7,0.7v1.6
					C48.9,44.6,48.6,44.9,48.2,44.9z"/>
			</g>
			<g>
				<rect x="47.6" y="42.5" class="st27" width="1.3" height="1.9"/>
			</g>
		</g>
		<g>
			<g>
				<path class="st5" d="M58.6,52h-2.3c-0.2,0-0.4-0.2-0.4-0.4v-4.4c0-0.2,0.2-0.4,0.4-0.4h2.3c0.2,0,0.4,0.2,0.4,0.4v4.4
					C59,51.8,58.8,52,58.6,52z M56.3,47c-0.1,0-0.2,0.1-0.2,0.2v4.4c0,0.1,0.1,0.2,0.2,0.2h2.3c0.1,0,0.2-0.1,0.2-0.2v-4.4
					c0-0.1-0.1-0.2-0.2-0.2H56.3z"/>
			</g>
			<g>
				<path class="st9" d="M57.4,51.7L57.4,51.7c-0.7,0-1.2-0.5-1.2-1.2v-2.1c0-0.7,0.5-1.2,1.2-1.2h0c0.7,0,1.2,0.5,1.2,1.2v2.1
					C58.6,51.1,58.1,51.7,57.4,51.7z"/>
			</g>
			<g>
				<path class="st25" d="M57.4,51.5L57.4,51.5c-0.6,0-1.1-0.5-1.1-1.1v-2c0-0.6,0.5-1.1,1.1-1.1l0,0c0.6,0,1.1,0.5,1.1,1.1v2
					C58.5,51,58,51.5,57.4,51.5z"/>
			</g>
			<g>
				<path class="st26" d="M57.3,51.2L57.3,51.2c-0.5,0-1-0.4-1-1v-1.6c0-0.5,0.4-1,1-1l0,0c0.5,0,1,0.4,1,1v1.6
					C58.3,50.7,57.8,51.2,57.3,51.2z"/>
			</g>
			<g>
				<rect x="56.3" y="48.3" class="st27" width="1.9" height="2.3"/>
			</g>
		</g>
		<g>
			<g>
				<path class="st5" d="M50.8,41.3h-2c-0.2,0-0.4-0.2-0.4-0.4v-1.3c0-0.2,0.2-0.4,0.4-0.4h2c0.2,0,0.4,0.2,0.4,0.4v1.3
					C51.2,41.1,51,41.3,50.8,41.3z M48.8,39.5c-0.1,0-0.2,0.1-0.2,0.2v1.3c0,0.1,0.1,0.2,0.2,0.2h2c0.1,0,0.2-0.1,0.2-0.2v-1.3
					c0-0.1-0.1-0.2-0.2-0.2H48.8z"/>
			</g>
			<g>
				<path class="st9" d="M48.6,40.3L48.6,40.3c0-0.4,0.3-0.8,0.8-0.8h0.9c0.4,0,0.8,0.3,0.8,0.8l0,0c0,0.4-0.3,0.8-0.8,0.8h-0.9
					C49,41,48.6,40.7,48.6,40.3z"/>
			</g>
			<g>
				<path class="st25" d="M48.7,40.3L48.7,40.3c0-0.4,0.3-0.7,0.7-0.7h0.8c0.4,0,0.7,0.3,0.7,0.7l0,0c0,0.4-0.3,0.7-0.7,0.7h-0.8
					C49,41,48.7,40.6,48.7,40.3z"/>
			</g>
			<g>
				<path class="st26" d="M48.9,40.2L48.9,40.2c0-0.2,0.2-0.4,0.4-0.4h1c0.2,0,0.4,0.2,0.4,0.4l0,0c0,0.2-0.2,0.4-0.4,0.4h-1
					C49.1,40.6,48.9,40.4,48.9,40.2z"/>
			</g>
			<g>
				
					<rect x="49.4" y="39.6" transform="matrix(-1.836970e-16 1 -1 -1.836970e-16 89.9863 -9.6194)" class="st27" width="0.8" height="1.2"/>
			</g>
		</g>
		<g>
			<g>
				<path class="st5" d="M58.4,44.6h-1.2c-0.2,0-0.4-0.2-0.4-0.4v-2.4c0-0.2,0.2-0.4,0.4-0.4h1.2c0.2,0,0.4,0.2,0.4,0.4v2.4
					C58.8,44.4,58.6,44.6,58.4,44.6z M57.2,41.6c-0.1,0-0.2,0.1-0.2,0.2v2.4c0,0.1,0.1,0.2,0.2,0.2h1.2c0.1,0,0.2-0.1,0.2-0.2v-2.4
					c0-0.1-0.1-0.2-0.2-0.2H57.2z"/>
			</g>
			<g>
				<path class="st9" d="M57.8,44.4L57.8,44.4c-0.4,0-0.7-0.3-0.7-0.7v-1.2c0-0.4,0.3-0.7,0.7-0.7l0,0c0.4,0,0.7,0.3,0.7,0.7v1.2
					C58.5,44,58.2,44.4,57.8,44.4z"/>
			</g>
			<g>
				<path class="st25" d="M57.8,44.2L57.8,44.2c-0.4,0-0.7-0.3-0.7-0.7v-1.2c0-0.4,0.3-0.7,0.7-0.7l0,0c0.4,0,0.7,0.3,0.7,0.7v1.2
					C58.4,43.9,58.1,44.2,57.8,44.2z"/>
			</g>
			<g>
				<path class="st26" d="M57.7,44.1L57.7,44.1c-0.2,0-0.4-0.2-0.4-0.4v-1.3c0-0.2,0.2-0.4,0.4-0.4h0c0.2,0,0.4,0.2,0.4,0.4v1.3
					C58.1,43.9,57.9,44.1,57.7,44.1z"/>
			</g>
			<g>
				<rect x="57.3" y="42.3" class="st27" width="0.8" height="1.3"/>
			</g>
		</g>
		<g>
			<g>
				<path class="st5" d="M58.4,41.7h-1.2c-0.2,0-0.4-0.2-0.4-0.4V39c0-0.2,0.2-0.4,0.4-0.4h1.2c0.2,0,0.4,0.2,0.4,0.4v2.4
					C58.8,41.6,58.6,41.7,58.4,41.7z M57.2,38.8c-0.1,0-0.2,0.1-0.2,0.2v2.4c0,0.1,0.1,0.2,0.2,0.2h1.2c0.1,0,0.2-0.1,0.2-0.2V39
					c0-0.1-0.1-0.2-0.2-0.2H57.2z"/>
			</g>
			<g>
				<path class="st9" d="M57.8,41.5L57.8,41.5c-0.4,0-0.7-0.3-0.7-0.7v-1.2c0-0.4,0.3-0.7,0.7-0.7l0,0c0.4,0,0.7,0.3,0.7,0.7v1.2
					C58.5,41.2,58.2,41.5,57.8,41.5z"/>
			</g>
			<g>
				<path class="st25" d="M57.8,41.4L57.8,41.4c-0.4,0-0.7-0.3-0.7-0.7v-1.2c0-0.4,0.3-0.7,0.7-0.7l0,0c0.4,0,0.7,0.3,0.7,0.7v1.2
					C58.4,41.1,58.1,41.4,57.8,41.4z"/>
			</g>
			<g>
				<path class="st26" d="M57.7,41.2L57.7,41.2c-0.2,0-0.4-0.2-0.4-0.4v-1.3c0-0.2,0.2-0.4,0.4-0.4h0c0.2,0,0.4,0.2,0.4,0.4v1.3
					C58.1,41,57.9,41.2,57.7,41.2z"/>
			</g>
			<g>
				<rect x="57.3" y="39.5" class="st27" width="0.8" height="1.3"/>
			</g>
		</g>
		<g>
			<g>
				<path class="st5" d="M55,30.6h-1.2c-0.2,0-0.4-0.2-0.4-0.4v-2.3c0-0.2,0.2-0.4,0.4-0.4H55c0.2,0,0.4,0.2,0.4,0.4v2.3
					C55.4,30.4,55.2,30.6,55,30.6z M53.8,27.7c-0.1,0-0.2,0.1-0.2,0.2v2.3c0,0.1,0.1,0.2,0.2,0.2H55c0.1,0,0.2-0.1,0.2-0.2v-2.3
					c0-0.1-0.1-0.2-0.2-0.2H53.8z"/>
			</g>
			<g>
				<path class="st9" d="M54.4,30.3L54.4,30.3c-0.4,0-0.7-0.3-0.7-0.7v-1.1c0-0.4,0.3-0.7,0.7-0.7h0c0.4,0,0.7,0.3,0.7,0.7l0,1.1
					C55.1,30,54.8,30.3,54.4,30.3z"/>
			</g>
			<g>
				<path class="st25" d="M54.4,30.2L54.4,30.2c-0.4,0-0.7-0.3-0.7-0.7v-1.1c0-0.4,0.3-0.7,0.7-0.7l0,0c0.4,0,0.7,0.3,0.7,0.7v1.1
					C55.1,29.9,54.8,30.2,54.4,30.2z"/>
			</g>
			<g>
				<path class="st26" d="M54.3,30.1L54.3,30.1c-0.2,0-0.4-0.2-0.4-0.4v-1.2c0-0.2,0.2-0.4,0.4-0.4l0,0c0.2,0,0.4,0.2,0.4,0.4v1.2
					C54.7,29.9,54.5,30.1,54.3,30.1z"/>
			</g>
			<g>
				<rect x="53.9" y="28.4" class="st27" width="0.8" height="1.3"/>
			</g>
		</g>
		<g>
			<g>
				<path class="st5" d="M53.6,46.9h-2.4c-0.2,0-0.4-0.2-0.4-0.4v-1.3c0-0.2,0.2-0.4,0.4-0.4h2.4c0.2,0,0.4,0.2,0.4,0.4v1.3
					C54,46.7,53.8,46.9,53.6,46.9z M51.2,45.1c-0.1,0-0.2,0.1-0.2,0.2v1.3c0,0.1,0.1,0.2,0.2,0.2h2.4c0.1,0,0.2-0.1,0.2-0.2v-1.3
					c0-0.1-0.1-0.2-0.2-0.2H51.2z"/>
			</g>
			<g>
				<path class="st9" d="M51.1,45.8L51.1,45.8c0-0.4,0.3-0.8,0.8-0.8H53c0.4,0,0.8,0.3,0.8,0.8l0,0c0,0.4-0.3,0.8-0.8,0.8h-1.2
					C51.4,46.6,51.1,46.3,51.1,45.8z"/>
			</g>
			<g>
				<path class="st25" d="M51.2,45.8L51.2,45.8c0-0.4,0.3-0.7,0.7-0.7H53c0.4,0,0.7,0.3,0.7,0.7v0c0,0.4-0.3,0.7-0.7,0.7h-1.1
					C51.5,46.5,51.2,46.2,51.2,45.8z"/>
			</g>
			<g>
				<path class="st26" d="M51.4,45.7L51.4,45.7c0-0.2,0.2-0.4,0.4-0.4h1.3c0.2,0,0.4,0.2,0.4,0.4v0c0,0.2-0.2,0.4-0.4,0.4h-1.3
					C51.6,46.2,51.4,46,51.4,45.7z"/>
			</g>
			<g>
				
					<rect x="52" y="45.1" transform="matrix(-1.836970e-16 1 -1 -1.836970e-16 98.187 -6.6957)" class="st27" width="0.8" height="1.3"/>
			</g>
		</g>
		<g>
			<g>
				<path class="st5" d="M48,41.1h-1.1c-0.2,0-0.4-0.2-0.4-0.4v-2.5c0-0.2,0.2-0.4,0.4-0.4H48c0.2,0,0.4,0.2,0.4,0.4v2.5
					C48.3,41,48.2,41.1,48,41.1z M46.9,38c-0.1,0-0.2,0.1-0.2,0.2v2.5c0,0.1,0.1,0.2,0.2,0.2H48c0.1,0,0.2-0.1,0.2-0.2v-2.5
					c0-0.1-0.1-0.2-0.2-0.2H46.9z"/>
			</g>
			<g>
				<path class="st28" d="M47.4,40.9L47.4,40.9c-0.4,0-0.7-0.3-0.7-0.7v-1.4c0-0.4,0.3-0.7,0.7-0.7l0,0c0.4,0,0.7,0.3,0.7,0.7v1.4
					C48.1,40.6,47.8,40.9,47.4,40.9z"/>
			</g>
			<g>
				<path class="st29" d="M47.3,40.6L47.3,40.6c-0.3,0-0.6-0.3-0.6-0.6V39c0-0.3,0.3-0.6,0.6-0.6h0c0.3,0,0.6,0.3,0.6,0.6V40
					C47.9,40.3,47.6,40.6,47.3,40.6z"/>
			</g>
			<g>
				<rect x="46.8" y="38.8" class="st28" width="1.1" height="1.4"/>
			</g>
		</g>
		<g>
			<g>
				<path class="st5" d="M65.3,45.4h-6c-0.2,0-0.4-0.2-0.4-0.4v-3c0-0.2,0.2-0.4,0.4-0.4h6c0.2,0,0.4,0.2,0.4,0.4v3
					C65.6,45.3,65.5,45.4,65.3,45.4z M59.2,41.9c-0.1,0-0.2,0.1-0.2,0.2v3c0,0.1,0.1,0.2,0.2,0.2h6c0.1,0,0.2-0.1,0.2-0.2v-3
					c0-0.1-0.1-0.2-0.2-0.2H59.2z"/>
			</g>
			<g>
				<path class="st28" d="M59.3,43.5L59.3,43.5c0-0.8,0.7-1.5,1.5-1.5h3c0.8,0,1.5,0.7,1.5,1.5v0c0,0.8-0.7,1.5-1.5,1.5h-3
					C59.9,45,59.3,44.3,59.3,43.5z"/>
			</g>
			<g>
				<path class="st29" d="M59.9,43.3L59.9,43.3c0-0.7,0.5-1.2,1.2-1.2h2.2c0.7,0,1.2,0.5,1.2,1.2l0,0c0,0.7-0.5,1.2-1.2,1.2h-2.2
					C60.5,44.6,59.9,44,59.9,43.3z"/>
			</g>
			<g>
				
					<rect x="61" y="41.8" transform="matrix(-1.836970e-16 1 -1 -1.836970e-16 105.5944 -18.9061)" class="st28" width="2.4" height="3"/>
			</g>
		</g>
		<g>
			<g>
				<path class="st5" d="M72.1,45.6h-2.2c-0.2,0-0.4-0.2-0.4-0.4v-4.2c0-0.2,0.2-0.4,0.4-0.4h2.2c0.2,0,0.4,0.2,0.4,0.4v4.2
					C72.5,45.5,72.3,45.6,72.1,45.6z M69.9,40.9c-0.1,0-0.2,0.1-0.2,0.2v4.2c0,0.1,0.1,0.2,0.2,0.2h2.2c0.1,0,0.2-0.1,0.2-0.2v-4.2
					c0-0.1-0.1-0.2-0.2-0.2H69.9z"/>
			</g>
			<g>
				<path class="st28" d="M70.9,45.3L70.9,45.3c-0.6,0-1.1-0.5-1.1-1.1v-2.1c0-0.6,0.5-1.1,1.1-1.1l0,0c0.6,0,1.1,0.5,1.1,1.1v2.1
					C72.1,44.8,71.6,45.3,70.9,45.3z"/>
			</g>
			<g>
				<path class="st29" d="M70.8,44.9L70.8,44.9c-0.5,0-0.9-0.4-0.9-0.9v-1.5c0-0.5,0.4-0.9,0.9-0.9l0,0c0.5,0,0.9,0.4,0.9,0.9v1.5
					C71.8,44.4,71.3,44.9,70.8,44.9z"/>
			</g>
			<g>
				<rect x="69.9" y="42.1" class="st30" width="1.9" height="2.2"/>
			</g>
		</g>
		<g>
			<g>
				<path class="st5" d="M69.5,44.9h-1.3c-0.2,0-0.4-0.2-0.4-0.4V42c0-0.2,0.2-0.4,0.4-0.4h1.3c0.2,0,0.4,0.2,0.4,0.4v2.5
					C69.8,44.7,69.7,44.9,69.5,44.9z M68.1,41.8C68,41.8,68,41.9,68,42v2.5c0,0.1,0.1,0.2,0.2,0.2h1.3c0.1,0,0.2-0.1,0.2-0.2V42
					c0-0.1-0.1-0.2-0.2-0.2H68.1z"/>
			</g>
			<g>
				<path class="st28" d="M68.8,44.6L68.8,44.6c-0.4,0-0.8-0.4-0.8-0.8v-1.2c0-0.4,0.4-0.8,0.8-0.8l0,0c0.4,0,0.8,0.4,0.8,0.8v1.2
					C69.5,44.3,69.2,44.6,68.8,44.6z"/>
			</g>
			<g>
				<path class="st29" d="M68.7,44.3L68.7,44.3c-0.4,0-0.6-0.3-0.6-0.6v-0.9c0-0.4,0.3-0.6,0.6-0.6h0c0.4,0,0.6,0.3,0.6,0.6v0.9
					C69.3,44,69,44.3,68.7,44.3z"/>
			</g>
			<g>
				<rect x="68" y="42.5" class="st30" width="1.3" height="1.4"/>
			</g>
		</g>
		<g>
			<g>
				<path class="st5" d="M56.7,30.6h-1.1c-0.2,0-0.4-0.2-0.4-0.4v-2.3c0-0.2,0.2-0.4,0.4-0.4h1.1c0.2,0,0.4,0.2,0.4,0.4v2.3
					C57.1,30.4,56.9,30.6,56.7,30.6z M55.6,27.7c-0.1,0-0.2,0.1-0.2,0.2v2.3c0,0.1,0.1,0.2,0.2,0.2h1.1c0.1,0,0.2-0.1,0.2-0.2v-2.3
					c0-0.1-0.1-0.2-0.2-0.2H55.6z"/>
			</g>
			<g>
				<path class="st28" d="M56.1,30.4L56.1,30.4c-0.4,0-0.7-0.3-0.7-0.7v-1.2c0-0.4,0.3-0.7,0.7-0.7l0,0c0.4,0,0.7,0.3,0.7,0.7v1.2
					C56.8,30.1,56.5,30.4,56.1,30.4z"/>
			</g>
			<g>
				<path class="st29" d="M56.1,30.1L56.1,30.1c-0.3,0-0.6-0.3-0.6-0.6v-0.9c0-0.3,0.3-0.6,0.6-0.6h0c0.3,0,0.6,0.3,0.6,0.6v0.9
					C56.6,29.8,56.4,30.1,56.1,30.1z"/>
			</g>
			<g>
				<rect x="55.5" y="28.4" class="st28" width="1.1" height="1.3"/>
			</g>
		</g>
		<g>
			<g>
				<path class="st5" d="M71.7,27.9h-7.6c-0.2,0-0.4-0.2-0.4-0.4v-1.1c0-0.2,0.2-0.4,0.4-0.4h7.6c0.2,0,0.4,0.2,0.4,0.4v1.1
					C72.1,27.8,71.9,27.9,71.7,27.9z M64.1,26.3c-0.1,0-0.2,0.1-0.2,0.2v1.1c0,0.1,0.1,0.2,0.2,0.2h7.6c0.1,0,0.2-0.1,0.2-0.2v-1.1
					c0-0.1-0.1-0.2-0.2-0.2H64.1z"/>
			</g>
			<g>
				<path class="st28" d="M69.3,27L69.3,27c0-0.4,0.3-0.7,0.7-0.7h1.2c0.4,0,0.7,0.3,0.7,0.7l0,0c0,0.4-0.3,0.7-0.7,0.7H70
					C69.6,27.7,69.3,27.4,69.3,27z"/>
			</g>
			<g>
				<path class="st29" d="M69.6,26.9L69.6,26.9c0-0.3,0.3-0.6,0.6-0.6H71c0.3,0,0.6,0.3,0.6,0.6v0c0,0.3-0.3,0.6-0.6,0.6h-0.9
					C69.8,27.5,69.6,27.2,69.6,26.9z"/>
			</g>
			<g>
				
					<rect x="70" y="26.3" transform="matrix(-1.836970e-16 1 -1 -1.836970e-16 97.4926 -43.6722)" class="st28" width="1.1" height="1.3"/>
			</g>
			<g>
				<path class="st28" d="M66.6,27L66.6,27c0-0.4,0.3-0.7,0.7-0.7h1.2c0.4,0,0.7,0.3,0.7,0.7l0,0c0,0.4-0.3,0.7-0.7,0.7h-1.2
					C66.9,27.7,66.6,27.4,66.6,27z"/>
			</g>
			<g>
				<path class="st29" d="M66.9,26.9L66.9,26.9c0-0.3,0.3-0.6,0.6-0.6h0.9c0.3,0,0.6,0.3,0.6,0.6v0c0,0.3-0.3,0.6-0.6,0.6h-0.9
					C67.2,27.5,66.9,27.2,66.9,26.9z"/>
			</g>
			<g>
				
					<rect x="67.3" y="26.3" transform="matrix(-1.836970e-16 1 -1 -1.836970e-16 94.8175 -40.9971)" class="st28" width="1.1" height="1.3"/>
			</g>
			<g>
				<path class="st28" d="M64,27L64,27c0-0.4,0.3-0.7,0.7-0.7h1.2c0.4,0,0.7,0.3,0.7,0.7l0,0c0,0.4-0.3,0.7-0.7,0.7h-1.2
					C64.3,27.7,64,27.4,64,27z"/>
			</g>
			<g>
				<path class="st29" d="M64.3,26.9L64.3,26.9c0-0.3,0.3-0.6,0.6-0.6h0.9c0.3,0,0.6,0.3,0.6,0.6v0c0,0.3-0.3,0.6-0.6,0.6h-0.9
					C64.5,27.5,64.3,27.2,64.3,26.9z"/>
			</g>
			<g>
				
					<rect x="64.7" y="26.3" transform="matrix(-1.836970e-16 1 -1 -1.836970e-16 92.2009 -38.3805)" class="st27" width="1.1" height="1.3"/>
			</g>
		</g>
		<g>
			<g>
				<path class="st5" d="M54.5,27.1h-1.9c-0.2,0-0.4-0.2-0.4-0.4v-1.1c0-0.2,0.2-0.4,0.4-0.4h1.9c0.2,0,0.4,0.2,0.4,0.4v1.1
					C54.9,27,54.7,27.1,54.5,27.1z M52.7,25.5c-0.1,0-0.2,0.1-0.2,0.2v1.1c0,0.1,0.1,0.2,0.2,0.2h1.9c0.1,0,0.2-0.1,0.2-0.2v-1.1
					c0-0.1-0.1-0.2-0.2-0.2H52.7z"/>
			</g>
			<g>
				<path class="st28" d="M52.5,26.2L52.5,26.2c0-0.4,0.3-0.7,0.7-0.7H54c0.4,0,0.7,0.3,0.7,0.7v0c0,0.4-0.3,0.7-0.7,0.7h-0.8
					C52.8,26.9,52.5,26.5,52.5,26.2z"/>
			</g>
			<g>
				<path class="st29" d="M52.7,26.1L52.7,26.1c0-0.3,0.3-0.6,0.6-0.6h0.6c0.3,0,0.6,0.3,0.6,0.6v0c0,0.3-0.3,0.6-0.6,0.6h-0.6
					C53,26.7,52.7,26.4,52.7,26.1z"/>
			</g>
			<g>
				
					<rect x="53" y="25.5" transform="matrix(-1.836970e-16 1 -1 -1.836970e-16 79.6823 -27.4991)" class="st28" width="1.1" height="1.1"/>
			</g>
		</g>
		<g>
			<g>
				<path class="st5" d="M57.4,27.1h-2c-0.2,0-0.4-0.2-0.4-0.4v-1.1c0-0.2,0.2-0.4,0.4-0.4h2c0.2,0,0.4,0.2,0.4,0.4v1.1
					C57.8,27,57.6,27.1,57.4,27.1z M55.4,25.5c-0.1,0-0.2,0.1-0.2,0.2v1.1c0,0.1,0.1,0.2,0.2,0.2h2c0.1,0,0.2-0.1,0.2-0.2v-1.1
					c0-0.1-0.1-0.2-0.2-0.2H55.4z"/>
			</g>
			<g>
				<path class="st28" d="M55.2,26.2L55.2,26.2c0-0.4,0.3-0.7,0.7-0.7h1c0.4,0,0.7,0.3,0.7,0.7v0c0,0.4-0.3,0.7-0.7,0.7h-1
					C55.6,26.9,55.2,26.5,55.2,26.2z"/>
			</g>
			<g>
				<path class="st29" d="M55.5,26.1L55.5,26.1c0-0.3,0.3-0.6,0.6-0.6h0.7c0.3,0,0.6,0.3,0.6,0.6l0,0c0,0.3-0.3,0.6-0.6,0.6h-0.7
					C55.8,26.7,55.5,26.4,55.5,26.1z"/>
			</g>
			<g>
				
					<rect x="55.9" y="25.5" transform="matrix(-1.836970e-16 1 -1 -1.836970e-16 82.5182 -30.335)" class="st28" width="1.1" height="1.2"/>
			</g>
		</g>
		<g>
			<g>
				<path class="st5" d="M69.9,25.7h-2.3c-0.2,0-0.4-0.2-0.4-0.4v-1.1c0-0.2,0.2-0.4,0.4-0.4h2.3c0.2,0,0.4,0.2,0.4,0.4v1.1
					C70.2,25.5,70.1,25.7,69.9,25.7z M67.6,24c-0.1,0-0.2,0.1-0.2,0.2v1.1c0,0.1,0.1,0.2,0.2,0.2h2.3c0.1,0,0.2-0.1,0.2-0.2v-1.1
					c0-0.1-0.1-0.2-0.2-0.2H67.6z"/>
			</g>
			<g>
				<path class="st28" d="M67.4,24.7L67.4,24.7c0-0.4,0.3-0.7,0.7-0.7h1.2c0.4,0,0.7,0.3,0.7,0.7l0,0c0,0.4-0.3,0.7-0.7,0.7h-1.2
					C67.7,25.4,67.4,25.1,67.4,24.7z"/>
			</g>
			<g>
				<path class="st29" d="M67.7,24.7L67.7,24.7c0-0.3,0.3-0.6,0.6-0.6h0.9c0.3,0,0.6,0.3,0.6,0.6v0c0,0.3-0.3,0.6-0.6,0.6h-0.9
					C68,25.2,67.7,25,67.7,24.7z"/>
			</g>
			<g>
				
					<rect x="68.2" y="24" transform="matrix(-1.836970e-16 1 -1 -1.836970e-16 93.3856 -44.0589)" class="st28" width="1.1" height="1.3"/>
			</g>
		</g>
		<g>
			<g>
				<path class="st5" d="M72.7,25.7h-2.3c-0.2,0-0.4-0.2-0.4-0.4v-1.1c0-0.2,0.2-0.4,0.4-0.4h2.3c0.2,0,0.4,0.2,0.4,0.4v1.1
					C73,25.5,72.9,25.7,72.7,25.7z M70.4,24c-0.1,0-0.2,0.1-0.2,0.2v1.1c0,0.1,0.1,0.2,0.2,0.2h2.3c0.1,0,0.2-0.1,0.2-0.2v-1.1
					c0-0.1-0.1-0.2-0.2-0.2H70.4z"/>
			</g>
			<g>
				<path class="st28" d="M70.3,24.7L70.3,24.7c0-0.4,0.3-0.7,0.7-0.7h1.2c0.4,0,0.7,0.3,0.7,0.7l0,0c0,0.4-0.3,0.7-0.7,0.7H71
					C70.6,25.4,70.3,25.1,70.3,24.7z"/>
			</g>
			<g>
				<path class="st29" d="M70.5,24.7L70.5,24.7c0-0.3,0.3-0.6,0.6-0.6H72c0.3,0,0.6,0.3,0.6,0.6v0c0,0.3-0.3,0.6-0.6,0.6h-0.9
					C70.8,25.2,70.5,25,70.5,24.7z"/>
			</g>
			<g>
				
					<rect x="71" y="24" transform="matrix(-1.836970e-16 1 -1 -1.836970e-16 96.2158 -46.8891)" class="st28" width="1.1" height="1.3"/>
			</g>
		</g>
		<g>
			<g>
				<path class="st5" d="M75.5,25.7h-2.3c-0.2,0-0.4-0.2-0.4-0.4v-1.1c0-0.2,0.2-0.4,0.4-0.4h2.3c0.2,0,0.4,0.2,0.4,0.4v1.1
					C75.9,25.5,75.7,25.7,75.5,25.7z M73.2,24c-0.1,0-0.2,0.1-0.2,0.2v1.1c0,0.1,0.1,0.2,0.2,0.2h2.3c0.1,0,0.2-0.1,0.2-0.2v-1.1
					c0-0.1-0.1-0.2-0.2-0.2H73.2z"/>
			</g>
			<g>
				<path class="st28" d="M73.1,24.7L73.1,24.7c0-0.4,0.3-0.7,0.7-0.7H75c0.4,0,0.7,0.3,0.7,0.7l0,0c0,0.4-0.3,0.7-0.7,0.7h-1.2
					C73.4,25.4,73.1,25.1,73.1,24.7z"/>
			</g>
			<g>
				<path class="st29" d="M73.4,24.7L73.4,24.7c0-0.3,0.3-0.6,0.6-0.6h0.9c0.3,0,0.6,0.3,0.6,0.6v0c0,0.3-0.3,0.6-0.6,0.6h-0.9
					C73.6,25.2,73.4,25,73.4,24.7z"/>
			</g>
			<g>
				
					<rect x="73.8" y="24" transform="matrix(-1.836970e-16 1 -1 -1.836970e-16 99.0301 -49.7033)" class="st28" width="1.1" height="1.3"/>
			</g>
		</g>
		<g>
			<g>
				<path class="st5" d="M78,50.4h-2.3c-0.2,0-0.4-0.2-0.4-0.4v-1.1c0-0.2,0.2-0.4,0.4-0.4H78c0.2,0,0.4,0.2,0.4,0.4V50
					C78.3,50.2,78.2,50.4,78,50.4z M75.7,48.7c-0.1,0-0.2,0.1-0.2,0.2V50c0,0.1,0.1,0.2,0.2,0.2H78c0.1,0,0.2-0.1,0.2-0.2v-1.1
					c0-0.1-0.1-0.2-0.2-0.2H75.7z"/>
			</g>
			<g>
				<path class="st28" d="M75.5,49.4L75.5,49.4c0-0.4,0.3-0.7,0.7-0.7h1.2c0.4,0,0.7,0.3,0.7,0.7l0,0c0,0.4-0.3,0.7-0.7,0.7h-1.2
					C75.8,50.1,75.5,49.8,75.5,49.4z"/>
			</g>
			<g>
				<path class="st29" d="M75.8,49.4L75.8,49.4c0-0.3,0.3-0.6,0.6-0.6h0.9c0.3,0,0.6,0.3,0.6,0.6l0,0c0,0.3-0.3,0.6-0.6,0.6h-0.9
					C76.1,49.9,75.8,49.7,75.8,49.4z"/>
			</g>
			<g>
				
					<rect x="76.3" y="48.7" transform="matrix(-1.836970e-16 1 -1 -1.836970e-16 126.188 -27.4607)" class="st28" width="1.1" height="1.3"/>
			</g>
		</g>
		<g>
			<g>
				<path class="st5" d="M69.9,24h-2.3c-0.2,0-0.4-0.2-0.4-0.4v-1c0-0.2,0.2-0.4,0.4-0.4h2.3c0.2,0,0.4,0.2,0.4,0.4v1
					C70.3,23.8,70.1,24,69.9,24z M67.7,22.4c-0.1,0-0.2,0.1-0.2,0.2v1c0,0.1,0.1,0.2,0.2,0.2h2.3c0.1,0,0.2-0.1,0.2-0.2v-1
					c0-0.1-0.1-0.2-0.2-0.2H67.7z"/>
			</g>
			<g>
				<path class="st28" d="M67.5,23.1L67.5,23.1c0-0.4,0.3-0.6,0.6-0.6h1.3c0.4,0,0.6,0.3,0.6,0.6l0,0c0,0.4-0.3,0.6-0.6,0.6h-1.3
					C67.8,23.7,67.5,23.4,67.5,23.1z"/>
			</g>
			<g>
				<path class="st29" d="M67.8,23L67.8,23c0-0.3,0.2-0.5,0.5-0.5h0.9c0.3,0,0.5,0.2,0.5,0.5l0,0c0,0.3-0.2,0.5-0.5,0.5h-0.9
					C68,23.5,67.8,23.3,67.8,23z"/>
			</g>
			<g>
				
					<rect x="68.3" y="22.4" transform="matrix(-1.836970e-16 1 -1 -1.836970e-16 91.8253 -45.7946)" class="st31" width="1.1" height="1.3"/>
			</g>
		</g>
		<g>
			<g>
				<path class="st5" d="M72.8,24h-2.3c-0.2,0-0.4-0.2-0.4-0.4v-1c0-0.2,0.2-0.4,0.4-0.4h2.3c0.2,0,0.4,0.2,0.4,0.4v1
					C73.1,23.8,73,24,72.8,24z M70.5,22.4c-0.1,0-0.2,0.1-0.2,0.2v1c0,0.1,0.1,0.2,0.2,0.2h2.3c0.1,0,0.2-0.1,0.2-0.2v-1
					c0-0.1-0.1-0.2-0.2-0.2H70.5z"/>
			</g>
			<g>
				<path class="st28" d="M70.4,23.1L70.4,23.1c0-0.4,0.3-0.6,0.6-0.6h1.3c0.4,0,0.6,0.3,0.6,0.6l0,0c0,0.4-0.3,0.6-0.6,0.6H71
					C70.6,23.7,70.4,23.4,70.4,23.1z"/>
			</g>
			<g>
				<path class="st29" d="M70.6,23L70.6,23c0-0.3,0.2-0.5,0.5-0.5h0.9c0.3,0,0.5,0.2,0.5,0.5l0,0c0,0.3-0.2,0.5-0.5,0.5h-0.9
					C70.9,23.5,70.6,23.3,70.6,23z"/>
			</g>
			<g>
				
					<rect x="71.1" y="22.4" transform="matrix(-1.836970e-16 1 -1 -1.836970e-16 94.6555 -48.6248)" class="st31" width="1.1" height="1.3"/>
			</g>
		</g>
		<g>
			<g>
				<path class="st5" d="M75.6,24h-2.3c-0.2,0-0.4-0.2-0.4-0.4v-1c0-0.2,0.2-0.4,0.4-0.4h2.3c0.2,0,0.4,0.2,0.4,0.4v1
					C75.9,23.8,75.8,24,75.6,24z M73.3,22.4c-0.1,0-0.2,0.1-0.2,0.2v1c0,0.1,0.1,0.2,0.2,0.2h2.3c0.1,0,0.2-0.1,0.2-0.2v-1
					c0-0.1-0.1-0.2-0.2-0.2H73.3z"/>
			</g>
			<g>
				<path class="st28" d="M73.2,23.1L73.2,23.1c0-0.4,0.3-0.6,0.6-0.6h1.3c0.4,0,0.6,0.3,0.6,0.6l0,0c0,0.4-0.3,0.6-0.6,0.6h-1.3
					C73.5,23.7,73.2,23.4,73.2,23.1z"/>
			</g>
			<g>
				<path class="st29" d="M73.5,23L73.5,23c0-0.3,0.2-0.5,0.5-0.5h0.9c0.3,0,0.5,0.2,0.5,0.5l0,0c0,0.3-0.2,0.5-0.5,0.5H74
					C73.7,23.5,73.5,23.3,73.5,23z"/>
			</g>
			<g>
				
					<rect x="73.9" y="22.4" transform="matrix(-1.836970e-16 1 -1 -1.836970e-16 97.4697 -51.4391)" class="st31" width="1.1" height="1.3"/>
			</g>
		</g>
		<g>
			<g>
				<path class="st5" d="M60.7,27.9h-2c-0.2,0-0.4-0.2-0.4-0.4v-1.1c0-0.2,0.2-0.4,0.4-0.4h2c0.2,0,0.4,0.2,0.4,0.4v1.1
					C61.1,27.8,60.9,27.9,60.7,27.9z M58.7,26.3c-0.1,0-0.2,0.1-0.2,0.2v1.1c0,0.1,0.1,0.2,0.2,0.2h2c0.1,0,0.2-0.1,0.2-0.2v-1.1
					c0-0.1-0.1-0.2-0.2-0.2H58.7z"/>
			</g>
			<g>
				<path class="st28" d="M58.5,27L58.5,27c0-0.4,0.3-0.7,0.7-0.7h1c0.4,0,0.7,0.3,0.7,0.7v0c0,0.4-0.3,0.7-0.7,0.7h-1
					C58.8,27.7,58.5,27.4,58.5,27z"/>
			</g>
			<g>
				<path class="st29" d="M58.8,26.9L58.8,26.9c0-0.3,0.3-0.6,0.6-0.6H60c0.3,0,0.6,0.3,0.6,0.6l0,0c0,0.3-0.3,0.6-0.6,0.6h-0.7
					C59,27.5,58.8,27.2,58.8,26.9z"/>
			</g>
			<g>
				
					<rect x="59.1" y="26.3" transform="matrix(-1.836970e-16 1 -1 -1.836970e-16 86.5967 -32.7762)" class="st32" width="1.1" height="1.2"/>
			</g>
		</g>
		<g>
			<g>
				<path class="st5" d="M63.4,27.9h-2c-0.2,0-0.4-0.2-0.4-0.4v-1.1c0-0.2,0.2-0.4,0.4-0.4h2c0.2,0,0.4,0.2,0.4,0.4v1.1
					C63.8,27.8,63.6,27.9,63.4,27.9z M61.4,26.3c-0.1,0-0.2,0.1-0.2,0.2v1.1c0,0.1,0.1,0.2,0.2,0.2h2c0.1,0,0.2-0.1,0.2-0.2v-1.1
					c0-0.1-0.1-0.2-0.2-0.2H61.4z"/>
			</g>
			<g>
				<path class="st28" d="M61.2,27L61.2,27c0-0.4,0.3-0.7,0.7-0.7h1c0.4,0,0.7,0.3,0.7,0.7v0c0,0.4-0.3,0.7-0.7,0.7h-1
					C61.5,27.7,61.2,27.4,61.2,27z"/>
			</g>
			<g>
				<path class="st29" d="M61.5,26.9L61.5,26.9c0-0.3,0.3-0.6,0.6-0.6h0.7c0.3,0,0.6,0.3,0.6,0.6l0,0c0,0.3-0.3,0.6-0.6,0.6H62
					C61.7,27.5,61.5,27.2,61.5,26.9z"/>
			</g>
			<g>
				
					<rect x="61.8" y="26.3" transform="matrix(-1.836970e-16 1 -1 -1.836970e-16 89.2718 -35.4806)" class="st32" width="1.1" height="1.2"/>
			</g>
		</g>
		<g>
			<g>
				<path class="st5" d="M57.2,25.4h-3.9c-0.2,0-0.4-0.2-0.4-0.4V23c0-0.2,0.2-0.4,0.4-0.4h3.9c0.2,0,0.4,0.2,0.4,0.4v2.1
					C57.5,25.3,57.4,25.4,57.2,25.4z M53.2,22.8c-0.1,0-0.2,0.1-0.2,0.2v2.1c0,0.1,0.1,0.2,0.2,0.2h3.9c0.1,0,0.2-0.1,0.2-0.2V23
					c0-0.1-0.1-0.2-0.2-0.2H53.2z"/>
			</g>
			<g>
				<path class="st28" d="M53.1,23.9L53.1,23.9c0-0.6,0.5-1.1,1.1-1.1h1.9c0.6,0,1.1,0.5,1.1,1.1v0c0,0.6-0.5,1.1-1.1,1.1h-1.9
					C53.6,25.1,53.1,24.6,53.1,23.9z"/>
			</g>
			<g>
				<path class="st29" d="M53.6,23.8L53.6,23.8c0-0.5,0.4-0.9,0.9-0.9h1.4c0.5,0,0.9,0.4,0.9,0.9l0,0c0,0.5-0.4,0.9-0.9,0.9h-1.4
					C54,24.7,53.6,24.3,53.6,23.8z"/>
			</g>
			<g>
				
					<rect x="54.3" y="22.8" transform="matrix(-1.836970e-16 1 -1 -1.836970e-16 79.0139 -31.3542)" class="st33" width="1.8" height="2.1"/>
			</g>
			<g>
				
					<rect x="54.9" y="23.5" transform="matrix(-1.836970e-16 1 -1 -1.836970e-16 79.0139 -31.3542)" class="st9" width="0.6" height="0.6"/>
			</g>
		</g>
		<g>
			<g>
				<path class="st5" d="M42.7,24.1h-1c-0.2,0-0.3-0.2-0.3-0.3v-2.4c0-0.2,0.2-0.3,0.3-0.3h1c0.2,0,0.3,0.2,0.3,0.3h-0.2
					c0-0.1-0.1-0.2-0.2-0.2h-1c-0.1,0-0.2,0.1-0.2,0.2v2.4c0,0.1,0.1,0.2,0.2,0.2h1c0.1,0,0.2-0.1,0.2-0.2H43
					C43,24,42.8,24.1,42.7,24.1z"/>
			</g>
			<g>
				<path class="st28" d="M42.1,23.9L42.1,23.9c-0.4,0-0.6-0.3-0.6-0.6v-1.3c0-0.4,0.3-0.6,0.6-0.6h0c0.4,0,0.6,0.3,0.6,0.6v1.3
					C42.7,23.6,42.5,23.9,42.1,23.9z"/>
			</g>
			<g>
				<path class="st29" d="M42,23.6L42,23.6c-0.3,0-0.5-0.2-0.5-0.5v-1c0-0.3,0.2-0.5,0.5-0.5l0,0c0.3,0,0.5,0.2,0.5,0.5v1
					C42.6,23.4,42.3,23.6,42,23.6z"/>
			</g>
			<g>
				<rect x="41.5" y="21.9" class="st28" width="1.1" height="1.3"/>
			</g>
		</g>
		<g>
			<g>
				<path class="st5" d="M44.2,24.1h-1c-0.2,0-0.3-0.2-0.3-0.3v-2.4c0-0.2,0.2-0.3,0.3-0.3h1c0.2,0,0.3,0.2,0.3,0.3h-0.2
					c0-0.1-0.1-0.2-0.2-0.2h-1c-0.1,0-0.2,0.1-0.2,0.2v2.4c0,0.1,0.1,0.2,0.2,0.2h1c0.1,0,0.2-0.1,0.2-0.2h0.2
					C44.5,24,44.4,24.1,44.2,24.1z"/>
			</g>
			<g>
				<path class="st28" d="M43.6,23.9L43.6,23.9c-0.4,0-0.6-0.3-0.6-0.6v-1.3c0-0.4,0.3-0.6,0.6-0.6h0c0.4,0,0.6,0.3,0.6,0.6v1.3
					C44.3,23.6,44,23.9,43.6,23.9z"/>
			</g>
			<g>
				<path class="st29" d="M43.6,23.6L43.6,23.6c-0.3,0-0.5-0.2-0.5-0.5v-1c0-0.3,0.2-0.5,0.5-0.5l0,0c0.3,0,0.5,0.2,0.5,0.5v1
					C44.1,23.4,43.9,23.6,43.6,23.6z"/>
			</g>
			<g>
				<rect x="43.1" y="21.9" class="st28" width="1.1" height="1.3"/>
			</g>
		</g>
		<g>
			<g>
				<path class="st5" d="M47.9,27.1h-1.1c-0.2,0-0.4-0.2-0.4-0.3v-2.3c0-0.2,0.2-0.3,0.4-0.3h1.1c0.2,0,0.4,0.2,0.4,0.3h-0.2
					c0-0.1-0.1-0.2-0.2-0.2h-1.1c-0.1,0-0.2,0.1-0.2,0.2v2.3c0,0.1,0.1,0.2,0.2,0.2h1.1c0.1,0,0.2-0.1,0.2-0.2h0.2
					C48.3,26.9,48.1,27.1,47.9,27.1z"/>
			</g>
			<g>
				<path class="st28" d="M47.4,26.9L47.4,26.9c-0.4,0-0.7-0.3-0.7-0.7v-1.3c0-0.4,0.3-0.7,0.7-0.7l0,0c0.4,0,0.7,0.3,0.7,0.7v1.3
					C48,26.6,47.7,26.9,47.4,26.9z"/>
			</g>
			<g>
				<path class="st29" d="M47.3,26.6L47.3,26.6c-0.3,0-0.5-0.2-0.5-0.5v-0.9c0-0.3,0.2-0.5,0.5-0.5l0,0c0.3,0,0.5,0.2,0.5,0.5V26
					C47.9,26.3,47.6,26.6,47.3,26.6z"/>
			</g>
			<g>
				<rect x="46.8" y="24.9" class="st28" width="1.1" height="1.3"/>
			</g>
		</g>
		<g>
			<g>
				<path class="st5" d="M45.2,41.1c-0.1,0-0.2,0-0.3-0.1c-0.1-0.1-0.1-0.2-0.1-0.3l0-5c0-0.1,0-0.2,0.1-0.3
					c0.1-0.1,0.2-0.1,0.3-0.1l1.1,0c0,0,0,0,0,0c0.2,0,0.4,0.2,0.4,0.4l0,5c0,0.2-0.2,0.4-0.4,0.4L45.2,41.1
					C45.2,41.1,45.2,41.1,45.2,41.1z M46.3,35.6C46.3,35.6,46.3,35.6,46.3,35.6l-1.1,0c0,0-0.1,0-0.1,0.1c0,0-0.1,0.1-0.1,0.1l0,5
					c0,0.1,0.1,0.2,0.2,0.2c0,0,0,0,0,0l1.1,0h0c0.1,0,0.2-0.1,0.2-0.2l0-5C46.5,35.7,46.4,35.6,46.3,35.6z"/>
			</g>
			<g>
				<path class="st28" d="M45.8,40.8L45.8,40.8c-0.4,0-0.7-0.3-0.7-0.7l0-1.1c0-0.4,0.3-0.7,0.7-0.7l0,0c0.4,0,0.7,0.3,0.7,0.7
					l0,1.1C46.5,40.5,46.1,40.8,45.8,40.8z"/>
			</g>
			<g>
				<path class="st29" d="M45.7,40.5L45.7,40.5c-0.3,0-0.6-0.3-0.6-0.6l0-0.8c0-0.3,0.3-0.6,0.6-0.6l0,0c0.3,0,0.6,0.3,0.6,0.6
					l0,0.8C46.3,40.3,46,40.5,45.7,40.5z"/>
			</g>
			<g>
				<rect x="45.1" y="39" class="st28" width="1.1" height="1.2"/>
			</g>
			<g>
				<path class="st28" d="M45.8,38.4L45.8,38.4c-0.4,0-0.7-0.3-0.7-0.7l0-1.3c0-0.4,0.3-0.7,0.7-0.7l0,0c0.4,0,0.7,0.3,0.7,0.7
					l0,1.3C46.5,38.1,46.1,38.4,45.8,38.4z"/>
			</g>
			<g>
				<path class="st29" d="M45.7,38.1L45.7,38.1c-0.3,0-0.6-0.3-0.6-0.6l0-0.9c0-0.3,0.3-0.6,0.6-0.6h0c0.3,0,0.6,0.3,0.6,0.6l0,0.9
					C46.3,37.8,46,38.1,45.7,38.1z"/>
			</g>
			<g>
				<rect x="45.1" y="36.4" class="st28" width="1.1" height="1.3"/>
			</g>
		</g>
		<g>
			<g>
				<path class="st14" d="M55,44.4h-3.5c-0.9,0-1.6-0.7-1.6-1.6l0,0c0-0.9,0.7-1.6,1.6-1.6H55c0.9,0,1.6,0.7,1.6,1.6l0,0
					C56.6,43.7,55.9,44.4,55,44.4z"/>
			</g>
			<g>
				<path class="st14" d="M53.5,44.7h-0.4c-1,0-1.7-0.8-1.7-1.7v0c0-1,0.8-1.7,1.7-1.7h0.4c1,0,1.7,0.8,1.7,1.7v0
					C55.2,43.9,54.4,44.7,53.5,44.7z"/>
			</g>
			<g>
				<path class="st9" d="M53.3,44.7L53.3,44.7c-0.7,0-1.3-0.6-1.3-1.3v-1c0-0.7,0.6-1.3,1.3-1.3h0c0.7,0,1.3,0.6,1.3,1.3v1
					C54.5,44.2,54,44.7,53.3,44.7z"/>
			</g>
		</g>
		<g>
			<path class="st14" d="M58.1,46.3h-3.5c-0.3,0-0.5-0.2-0.5-0.5v0c0-0.3,0.2-0.5,0.5-0.5h3.5c0.3,0,0.5,0.2,0.5,0.5v0
				C58.6,46.1,58.4,46.3,58.1,46.3z"/>
		</g>
		<g>
			<rect x="55.1" y="44.9" class="st9" width="2.4" height="1.8"/>
		</g>
		<g>
			<g>
				<rect x="50.5" y="47.7" class="st14" width="1.3" height="0.7"/>
			</g>
			<g>
				<rect x="53.8" y="47.7" class="st14" width="1.3" height="0.7"/>
			</g>
			<g>
				<rect x="50.5" y="49" class="st14" width="1.3" height="0.7"/>
			</g>
			<g>
				<rect x="53.8" y="49" class="st14" width="1.3" height="0.7"/>
			</g>
			<g>
				<rect x="50.5" y="50.4" class="st14" width="1.3" height="0.7"/>
			</g>
			<g>
				<rect x="53.8" y="50.4" class="st14" width="1.3" height="0.7"/>
			</g>
			<g>
				<path class="st9" d="M52.7,51.3L52.7,51.3c-0.6,0-1.1-0.5-1.1-1.1v-1.4c0-0.6,0.5-1.1,1.1-1.1h0c0.6,0,1.1,0.5,1.1,1.1v1.4
					C53.8,50.8,53.3,51.3,52.7,51.3z"/>
			</g>
		</g>
		<g>
			<path class="st5" d="M44.5,33.3v-0.7h0.2v0.7c0,0.3,0.1,0.4,0.3,0.4c0.2,0,0.3-0.1,0.3-0.4v-0.7h0.2v0.7c0,0.4-0.2,0.5-0.5,0.5
				C44.7,33.8,44.5,33.7,44.5,33.3z"/>
			<path class="st5" d="M45.5,33.7l0.1-0.1c0.1,0.1,0.2,0.1,0.3,0.1c0.2,0,0.3-0.1,0.3-0.3c0-0.2-0.1-0.2-0.3-0.2
				c-0.1,0-0.1,0-0.2,0.1l-0.1-0.1l0-0.6h0.7v0.2h-0.5l0,0.3c0.1,0,0.1,0,0.2,0c0.2,0,0.4,0.1,0.4,0.4c0,0.3-0.2,0.4-0.5,0.4
				C45.8,33.8,45.6,33.8,45.5,33.7z"/>
		</g>
		<g>
			<path class="st5" d="M56.5,34.4v-0.7h0.2v0.7c0,0.3,0.1,0.4,0.3,0.4c0.2,0,0.3-0.1,0.3-0.4v-0.7h0.2v0.7c0,0.4-0.2,0.5-0.5,0.5
				C56.7,34.9,56.5,34.7,56.5,34.4z"/>
			<path class="st5" d="M57.6,34.8c0.4-0.3,0.6-0.5,0.6-0.7c0-0.1-0.1-0.2-0.2-0.2c-0.1,0-0.2,0.1-0.3,0.1l-0.1-0.1
				c0.1-0.1,0.2-0.2,0.4-0.2c0.3,0,0.4,0.1,0.4,0.4c0,0.2-0.2,0.5-0.5,0.7c0.1,0,0.2,0,0.2,0h0.4v0.2h-0.9V34.8z"/>
		</g>
		<g>
			<path class="st5" d="M70.2,34.6v-0.7h0.2v0.7c0,0.3,0.1,0.4,0.3,0.4c0.2,0,0.3-0.1,0.3-0.4v-0.7h0.2v0.7c0,0.4-0.2,0.5-0.5,0.5
				S70.2,35,70.2,34.6z"/>
			<path class="st5" d="M71.4,35h0.3v-0.8h-0.3V34c0.1,0,0.2,0,0.3-0.1h0.2v1h0.3v0.2h-0.8V35z"/>
		</g>
		<g>
			<path class="st5" d="M76,51.9h0.2v1h0.6v0.2H76V51.9z"/>
			<path class="st5" d="M77.1,53c0.4-0.3,0.6-0.5,0.6-0.7c0-0.1-0.1-0.2-0.2-0.2c-0.1,0-0.2,0.1-0.3,0.1L77.1,52
				c0.1-0.1,0.2-0.2,0.4-0.2c0.3,0,0.4,0.1,0.4,0.4c0,0.2-0.2,0.5-0.5,0.7c0.1,0,0.2,0,0.2,0H78v0.2h-0.9V53z"/>
		</g>
		<g>
			<circle class="st5" cx="44.7" cy="32.1" r="0.3"/>
		</g>
		<g>
			<circle class="st5" cx="55.8" cy="31.6" r="0.3"/>
		</g>
		<g>
			<circle class="st5" cx="70.3" cy="30.6" r="0.6"/>
		</g>
		<g>
			<g>
				<path class="st9" d="M52.2,38.1L52.2,38.1c-1.7,0-3.1-1.4-3.1-3.1v0c0-1.7,1.4-3.1,3.1-3.1h0c1.7,0,3.1,1.4,3.1,3.1v0
					C55.3,36.7,53.9,38.1,52.2,38.1z"/>
			</g>
			<g>
				<path class="st5" d="M49.8,32.1L49.8,32.1c-0.1,0-0.2-0.1-0.2-0.2v-0.4c0-0.1,0.1-0.2,0.2-0.2l0,0c0.1,0,0.2,0.1,0.2,0.2v0.4
					C50,32,49.9,32.1,49.8,32.1z"/>
			</g>
			<g>
				<path class="st5" d="M49,32.3L49,32.3c-0.1-0.1-0.1-0.2,0-0.3l0.3-0.3c0.1-0.1,0.2-0.1,0.3,0l0,0c0.1,0.1,0.1,0.2,0,0.3
					l-0.3,0.3C49.1,32.4,49,32.4,49,32.3z"/>
			</g>
			<g>
				<path class="st5" d="M55,31.7L55,31.7c0.1-0.1,0.2-0.1,0.3,0l0.3,0.3c0.1,0.1,0.1,0.2,0,0.3l0,0c-0.1,0.1-0.2,0.1-0.3,0L55,32
					C54.9,31.9,54.9,31.8,55,31.7z"/>
			</g>
			<g>
				<path class="st5" d="M49,37.8L49,37.8c-0.1,0.1-0.1,0.2,0,0.3l0.3,0.3c0.1,0.1,0.2,0.1,0.3,0l0,0c0.1-0.1,0.1-0.2,0-0.3
					l-0.3-0.3C49.1,37.7,49,37.7,49,37.8z"/>
			</g>
			<g>
				<path class="st5" d="M55,38.3L55,38.3c0.1,0.1,0.2,0.1,0.3,0l0.3-0.3c0.1-0.1,0.1-0.2,0-0.3l0,0c-0.1-0.1-0.2-0.1-0.3,0L55,38.1
					C54.9,38.1,54.9,38.3,55,38.3z"/>
			</g>
			<g>
				<path class="st5" d="M50.4,32.1L50.4,32.1c-0.1,0-0.2-0.1-0.2-0.2v-0.4c0-0.1,0.1-0.2,0.2-0.2l0,0c0.1,0,0.2,0.1,0.2,0.2v0.4
					C50.6,32,50.5,32.1,50.4,32.1z"/>
			</g>
			<g>
				<path class="st5" d="M51,32.1L51,32.1c-0.1,0-0.2-0.1-0.2-0.2v-0.4c0-0.1,0.1-0.2,0.2-0.2l0,0c0.1,0,0.2,0.1,0.2,0.2v0.4
					C51.2,32,51.1,32.1,51,32.1z"/>
			</g>
			<g>
				<path class="st5" d="M51.6,32.1L51.6,32.1c-0.1,0-0.2-0.1-0.2-0.2v-0.4c0-0.1,0.1-0.2,0.2-0.2l0,0c0.1,0,0.2,0.1,0.2,0.2v0.4
					C51.8,32,51.7,32.1,51.6,32.1z"/>
			</g>
			<g>
				<path class="st5" d="M52.2,32.1L52.2,32.1c-0.1,0-0.2-0.1-0.2-0.2v-0.4c0-0.1,0.1-0.2,0.2-0.2l0,0c0.1,0,0.2,0.1,0.2,0.2v0.4
					C52.4,32,52.3,32.1,52.2,32.1z"/>
			</g>
			<g>
				<path class="st5" d="M52.8,32.1L52.8,32.1c-0.1,0-0.2-0.1-0.2-0.2v-0.4c0-0.1,0.1-0.2,0.2-0.2l0,0c0.1,0,0.2,0.1,0.2,0.2v0.4
					C53,32,52.9,32.1,52.8,32.1z"/>
			</g>
			<g>
				<path class="st5" d="M53.4,32.1L53.4,32.1c-0.1,0-0.2-0.1-0.2-0.2v-0.4c0-0.1,0.1-0.2,0.2-0.2l0,0c0.1,0,0.2,0.1,0.2,0.2v0.4
					C53.6,32,53.5,32.1,53.4,32.1z"/>
			</g>
			<g>
				<path class="st5" d="M54,32.1L54,32.1c-0.1,0-0.2-0.1-0.2-0.2v-0.4c0-0.1,0.1-0.2,0.2-0.2l0,0c0.1,0,0.2,0.1,0.2,0.2v0.4
					C54.2,32,54.1,32.1,54,32.1z"/>
			</g>
			<g>
				<path class="st5" d="M54.6,32.1L54.6,32.1c-0.1,0-0.2-0.1-0.2-0.2v-0.4c0-0.1,0.1-0.2,0.2-0.2l0,0c0.1,0,0.2,0.1,0.2,0.2v0.4
					C54.8,32,54.7,32.1,54.6,32.1z"/>
			</g>
			<g>
				<path class="st5" d="M48.5,32.6L48.5,32.6c0-0.1,0.1-0.2,0.2-0.2h0.4c0.1,0,0.2,0.1,0.2,0.2l0,0c0,0.1-0.1,0.2-0.2,0.2h-0.4
					C48.6,32.8,48.5,32.7,48.5,32.6z"/>
			</g>
			<g>
				<path class="st5" d="M48.5,33.2L48.5,33.2c0-0.1,0.1-0.2,0.2-0.2h0.4c0.1,0,0.2,0.1,0.2,0.2l0,0c0,0.1-0.1,0.2-0.2,0.2h-0.4
					C48.6,33.4,48.5,33.3,48.5,33.2z"/>
			</g>
			<g>
				<path class="st5" d="M48.5,33.8L48.5,33.8c0-0.1,0.1-0.2,0.2-0.2h0.4c0.1,0,0.2,0.1,0.2,0.2l0,0c0,0.1-0.1,0.2-0.2,0.2h-0.4
					C48.6,34,48.5,33.9,48.5,33.8z"/>
			</g>
			<g>
				<path class="st5" d="M48.5,34.4L48.5,34.4c0-0.1,0.1-0.2,0.2-0.2h0.4c0.1,0,0.2,0.1,0.2,0.2l0,0c0,0.1-0.1,0.2-0.2,0.2h-0.4
					C48.6,34.6,48.5,34.5,48.5,34.4z"/>
			</g>
			<g>
				<path class="st5" d="M48.5,35L48.5,35c0-0.1,0.1-0.2,0.2-0.2h0.4c0.1,0,0.2,0.1,0.2,0.2l0,0c0,0.1-0.1,0.2-0.2,0.2h-0.4
					C48.6,35.2,48.5,35.1,48.5,35z"/>
			</g>
			<g>
				<path class="st5" d="M48.5,35.6L48.5,35.6c0-0.1,0.1-0.2,0.2-0.2h0.4c0.1,0,0.2,0.1,0.2,0.2l0,0c0,0.1-0.1,0.2-0.2,0.2h-0.4
					C48.6,35.8,48.5,35.7,48.5,35.6z"/>
			</g>
			<g>
				<path class="st5" d="M48.5,36.2L48.5,36.2c0-0.1,0.1-0.2,0.2-0.2h0.4c0.1,0,0.2,0.1,0.2,0.2v0c0,0.1-0.1,0.2-0.2,0.2h-0.4
					C48.6,36.4,48.5,36.3,48.5,36.2z"/>
			</g>
			<g>
				<path class="st5" d="M48.5,36.8L48.5,36.8c0-0.1,0.1-0.2,0.2-0.2h0.4c0.1,0,0.2,0.1,0.2,0.2l0,0c0,0.1-0.1,0.2-0.2,0.2h-0.4
					C48.6,37,48.5,36.9,48.5,36.8z"/>
			</g>
			<g>
				<path class="st5" d="M48.5,37.4L48.5,37.4c0-0.1,0.1-0.2,0.2-0.2h0.4c0.1,0,0.2,0.1,0.2,0.2l0,0c0,0.1-0.1,0.2-0.2,0.2h-0.4
					C48.6,37.6,48.5,37.5,48.5,37.4z"/>
			</g>
			<g>
				<path class="st5" d="M55.2,32.6L55.2,32.6c0-0.1,0.1-0.2,0.2-0.2h0.4c0.1,0,0.2,0.1,0.2,0.2l0,0c0,0.1-0.1,0.2-0.2,0.2h-0.4
					C55.2,32.8,55.2,32.7,55.2,32.6z"/>
			</g>
			<g>
				<path class="st5" d="M55.2,33.2L55.2,33.2c0-0.1,0.1-0.2,0.2-0.2h0.4c0.1,0,0.2,0.1,0.2,0.2l0,0c0,0.1-0.1,0.2-0.2,0.2h-0.4
					C55.2,33.4,55.2,33.3,55.2,33.2z"/>
			</g>
			<g>
				<path class="st5" d="M55.2,33.8L55.2,33.8c0-0.1,0.1-0.2,0.2-0.2h0.4c0.1,0,0.2,0.1,0.2,0.2l0,0c0,0.1-0.1,0.2-0.2,0.2h-0.4
					C55.2,34,55.2,33.9,55.2,33.8z"/>
			</g>
			<g>
				<path class="st5" d="M55.2,34.4L55.2,34.4c0-0.1,0.1-0.2,0.2-0.2h0.4c0.1,0,0.2,0.1,0.2,0.2l0,0c0,0.1-0.1,0.2-0.2,0.2h-0.4
					C55.2,34.6,55.2,34.5,55.2,34.4z"/>
			</g>
			<g>
				<path class="st5" d="M55.2,35L55.2,35c0-0.1,0.1-0.2,0.2-0.2h0.4c0.1,0,0.2,0.1,0.2,0.2l0,0c0,0.1-0.1,0.2-0.2,0.2h-0.4
					C55.2,35.2,55.2,35.1,55.2,35z"/>
			</g>
			<g>
				<path class="st5" d="M55.2,35.6L55.2,35.6c0-0.1,0.1-0.2,0.2-0.2h0.4c0.1,0,0.2,0.1,0.2,0.2l0,0c0,0.1-0.1,0.2-0.2,0.2h-0.4
					C55.2,35.8,55.2,35.7,55.2,35.6z"/>
			</g>
			<g>
				<path class="st5" d="M55.2,36.2L55.2,36.2c0-0.1,0.1-0.2,0.2-0.2h0.4c0.1,0,0.2,0.1,0.2,0.2v0c0,0.1-0.1,0.2-0.2,0.2h-0.4
					C55.2,36.4,55.2,36.3,55.2,36.2z"/>
			</g>
			<g>
				<path class="st5" d="M55.2,36.8L55.2,36.8c0-0.1,0.1-0.2,0.2-0.2h0.4c0.1,0,0.2,0.1,0.2,0.2l0,0c0,0.1-0.1,0.2-0.2,0.2h-0.4
					C55.2,37,55.2,36.9,55.2,36.8z"/>
			</g>
			<g>
				<path class="st5" d="M55.2,37.4L55.2,37.4c0-0.1,0.1-0.2,0.2-0.2h0.4c0.1,0,0.2,0.1,0.2,0.2l0,0c0,0.1-0.1,0.2-0.2,0.2h-0.4
					C55.2,37.6,55.2,37.5,55.2,37.4z"/>
			</g>
			<g>
				<path class="st5" d="M49.8,38.8L49.8,38.8c-0.1,0-0.2-0.1-0.2-0.2v-0.4c0-0.1,0.1-0.2,0.2-0.2l0,0c0.1,0,0.2,0.1,0.2,0.2v0.4
					C50,38.7,49.9,38.8,49.8,38.8z"/>
			</g>
			<g>
				<path class="st5" d="M50.4,38.8L50.4,38.8c-0.1,0-0.2-0.1-0.2-0.2v-0.4c0-0.1,0.1-0.2,0.2-0.2l0,0c0.1,0,0.2,0.1,0.2,0.2v0.4
					C50.6,38.7,50.5,38.8,50.4,38.8z"/>
			</g>
			<g>
				<path class="st5" d="M51,38.8L51,38.8c-0.1,0-0.2-0.1-0.2-0.2v-0.4c0-0.1,0.1-0.2,0.2-0.2l0,0c0.1,0,0.2,0.1,0.2,0.2v0.4
					C51.2,38.7,51.1,38.8,51,38.8z"/>
			</g>
			<g>
				<path class="st5" d="M51.6,38.8L51.6,38.8c-0.1,0-0.2-0.1-0.2-0.2v-0.4c0-0.1,0.1-0.2,0.2-0.2l0,0c0.1,0,0.2,0.1,0.2,0.2v0.4
					C51.7,38.7,51.7,38.8,51.6,38.8z"/>
			</g>
			<g>
				<path class="st5" d="M52.2,38.8L52.2,38.8c-0.1,0-0.2-0.1-0.2-0.2v-0.4c0-0.1,0.1-0.2,0.2-0.2l0,0c0.1,0,0.2,0.1,0.2,0.2v0.4
					C52.3,38.7,52.3,38.8,52.2,38.8z"/>
			</g>
			<g>
				<path class="st5" d="M52.8,38.8L52.8,38.8c-0.1,0-0.2-0.1-0.2-0.2v-0.4c0-0.1,0.1-0.2,0.2-0.2l0,0c0.1,0,0.2,0.1,0.2,0.2v0.4
					C52.9,38.7,52.9,38.8,52.8,38.8z"/>
			</g>
			<g>
				<path class="st5" d="M53.4,38.8L53.4,38.8c-0.1,0-0.2-0.1-0.2-0.2v-0.4c0-0.1,0.1-0.2,0.2-0.2l0,0c0.1,0,0.2,0.1,0.2,0.2v0.4
					C53.5,38.7,53.5,38.8,53.4,38.8z"/>
			</g>
			<g>
				<path class="st5" d="M53.9,38.8L53.9,38.8c-0.1,0-0.2-0.1-0.2-0.2v-0.4c0-0.1,0.1-0.2,0.2-0.2l0,0c0.1,0,0.2,0.1,0.2,0.2v0.4
					C54.1,38.7,54,38.8,53.9,38.8z"/>
			</g>
			<g>
				<path class="st5" d="M54.5,38.8L54.5,38.8c-0.1,0-0.2-0.1-0.2-0.2v-0.4c0-0.1,0.1-0.2,0.2-0.2l0,0c0.1,0,0.2,0.1,0.2,0.2v0.4
					C54.7,38.7,54.6,38.8,54.5,38.8z"/>
			</g>
		</g>
		<g>
			<g>
				<polygon class="st5" points="43.9,29.6 41.6,29.6 41.6,29.4 43.7,29.4 43.7,25 41.6,25 41.6,24.8 43.9,24.8 				"/>
			</g>
			<g>
				<polygon class="st5" points="46.5,29.6 43.8,29.6 43.8,29.4 46.3,29.4 46.3,25 43.8,25 43.8,24.8 46.5,24.8 				"/>
			</g>
			<g>
				<path class="st5" d="M42.8,26.7h-0.7c-0.4,0-0.7-0.3-0.7-0.7v0c0-0.4,0.3-0.7,0.7-0.7h0.7c0.4,0,0.7,0.3,0.7,0.7v0
					C43.5,26.4,43.2,26.7,42.8,26.7z"/>
			</g>
			<g>
				<path class="st5" d="M42.8,29h-0.7c-0.4,0-0.7-0.3-0.7-0.7v0c0-0.4,0.3-0.7,0.7-0.7h0.7c0.4,0,0.7,0.3,0.7,0.7v0
					C43.5,28.7,43.2,29,42.8,29z"/>
			</g>
			<g>
				<path class="st25" d="M45.2,29L45.2,29c-0.6,0-1-0.4-1-1v-1.8c0-0.6,0.4-1,1-1h0c0.6,0,1,0.4,1,1V28C46.2,28.5,45.8,29,45.2,29z
					"/>
			</g>
			<g>
				<path class="st26" d="M45.1,28.7L45.1,28.7c-0.5,0-0.9-0.4-0.9-0.9v-1.5c0-0.5,0.4-0.9,0.9-0.9l0,0c0.5,0,0.9,0.4,0.9,0.9v1.5
					C46,28.3,45.6,28.7,45.1,28.7z"/>
			</g>
			<g>
				<rect x="44.2" y="26" class="st27" width="1.8" height="2.1"/>
			</g>
		</g>
		<g>
			<rect x="46.5" y="21.1" class="st5" width="0.6" height="0.7"/>
		</g>
		<g>
			<rect x="45.8" y="23.4" class="st5" width="1.3" height="0.7"/>
		</g>
		<g>
			<path class="st5" d="M45,23.9h-0.2c-0.3,0-0.5-0.2-0.5-0.5v0c0-0.3,0.2-0.5,0.5-0.5H45c0.3,0,0.5,0.2,0.5,0.5v0
				C45.6,23.7,45.3,23.9,45,23.9z"/>
		</g>
		<g>
			<path class="st5" d="M45,22.3h-0.2c-0.3,0-0.5-0.2-0.5-0.5v0c0-0.3,0.2-0.5,0.5-0.5H45c0.3,0,0.5,0.2,0.5,0.5v0
				C45.6,22,45.3,22.3,45,22.3z"/>
		</g>
		<g>
			<path class="st5" d="M47.5,22.9H47c-0.2,0-0.4-0.2-0.4-0.4v0c0-0.2,0.2-0.4,0.4-0.4h0.5c0.2,0,0.4,0.2,0.4,0.4v0
				C47.8,22.7,47.7,22.9,47.5,22.9z"/>
		</g>
		<g>
			<path class="st9" d="M45.9,23.8L45.9,23.8c-0.5,0-0.8-0.4-0.8-0.8v-1c0-0.5,0.4-0.8,0.8-0.8l0,0c0.5,0,0.8,0.4,0.8,0.8v1
				C46.7,23.4,46.4,23.8,45.9,23.8z"/>
		</g>
		<g>
			<rect x="48.2" y="22.4" class="st25" width="1.4" height="1.5"/>
		</g>
		<g>
			<rect x="51.1" y="23.5" class="st25" width="1.4" height="1.5"/>
		</g>
		<g>
			<rect x="50.1" y="24.9" class="st25" width="1.4" height="1.5"/>
		</g>
		<g>
			<rect x="48.1" y="24.8" class="st25" width="1.4" height="1.5"/>
		</g>
		<g>
			<path class="st9" d="M50.4,26.1L50.4,26.1c-0.6,0-1.1-0.5-1.1-1.1v-1.8c0-0.6,0.5-1.1,1.1-1.1h0c0.6,0,1.1,0.5,1.1,1.1V25
				C51.5,25.6,51,26.1,50.4,26.1z"/>
		</g>
		<g>
			<path class="st34" d="M52.1,29.5h-2.7c-0.5,0-0.9-0.4-0.9-0.9v0c0-0.5,0.4-0.9,0.9-0.9h2.7c0.5,0,0.9,0.4,0.9,0.9v0
				C53,29.1,52.6,29.5,52.1,29.5z"/>
		</g>
		<g>
			<path class="st35" d="M52,29.3h-2.5c-0.4,0-0.6-0.3-0.6-0.6v0c0-0.4,0.3-0.6,0.6-0.6H52c0.4,0,0.6,0.3,0.6,0.6v0
				C52.7,29,52.4,29.3,52,29.3z"/>
		</g>
		<g>
			<rect x="48.2" y="27.7" class="st34" width="0.2" height="2"/>
		</g>
		<g>
			<rect x="53.2" y="27.7" class="st34" width="0.2" height="2"/>
		</g>
		<g>
			<rect x="58.7" y="22.2" class="st36" width="1" height="2.6"/>
		</g>
		<g>
			<rect x="66" y="22.2" class="st36" width="1" height="2.6"/>
		</g>
		<g>
			<path class="st5" d="M48.8,21.1H49V22h0.5v0.1h-0.7V21.1z"/>
			<path class="st5" d="M49.6,21.1h0.2v1h-0.2V21.1z"/>
			<path class="st5" d="M49.9,21.6c0-0.3,0.2-0.5,0.6-0.5c0.2,0,0.3,0.1,0.4,0.1l-0.1,0.1c-0.1-0.1-0.1-0.1-0.2-0.1
				c-0.2,0-0.4,0.1-0.4,0.4c0,0.2,0.1,0.4,0.4,0.4c0.1,0,0.1,0,0.2,0v-0.2h-0.2v-0.1h0.4V22c-0.1,0.1-0.2,0.1-0.4,0.1
				C50.2,22.1,49.9,21.9,49.9,21.6z"/>
			<path class="st5" d="M51,21.1h0.2v0.4h0.5v-0.4h0.2v1h-0.2v-0.5h-0.5v0.5H51V21.1z"/>
			<path class="st5" d="M52.4,21.2H52v-0.1h0.9v0.1h-0.4v0.9h-0.2V21.2z"/>
			<path class="st5" d="M52.8,21.6h0.4v0.1h-0.4V21.6z"/>
			<path class="st5" d="M53.3,22l0.1-0.1c0.1,0.1,0.2,0.1,0.3,0.1c0.1,0,0.2-0.1,0.2-0.1c0-0.1-0.1-0.1-0.2-0.2l-0.2-0.1
				c-0.1,0-0.2-0.1-0.2-0.3c0-0.2,0.2-0.3,0.4-0.3c0.1,0,0.3,0,0.4,0.1L54,21.3c-0.1-0.1-0.2-0.1-0.3-0.1c-0.1,0-0.2,0-0.2,0.1
				c0,0.1,0.1,0.1,0.2,0.2l0.2,0.1c0.1,0.1,0.2,0.1,0.2,0.3c0,0.2-0.2,0.3-0.4,0.3C53.5,22.1,53.4,22.1,53.3,22z"/>
			<path class="st5" d="M54.2,21.1h0.7v0.1h-0.5v0.3h0.4v0.1h-0.4V22H55v0.1h-0.7V21.1z"/>
			<path class="st5" d="M55.1,21.1h0.2l0.4,0.6l0.1,0.2h0c0-0.1,0-0.2,0-0.3v-0.5H56v1h-0.2l-0.4-0.6l-0.1-0.2h0c0,0.1,0,0.2,0,0.3
				v0.5h-0.2V21.1z"/>
			<path class="st5" d="M56.1,22l0.1-0.1c0.1,0.1,0.2,0.1,0.3,0.1c0.1,0,0.2-0.1,0.2-0.1c0-0.1-0.1-0.1-0.2-0.2l-0.2-0.1
				c-0.1,0-0.2-0.1-0.2-0.3c0-0.2,0.2-0.3,0.4-0.3c0.1,0,0.3,0,0.4,0.1l-0.1,0.1c-0.1-0.1-0.2-0.1-0.3-0.1c-0.1,0-0.2,0-0.2,0.1
				c0,0.1,0.1,0.1,0.2,0.2l0.2,0.1c0.1,0.1,0.2,0.1,0.2,0.3c0,0.2-0.2,0.3-0.4,0.3C56.4,22.1,56.2,22.1,56.1,22z"/>
			<path class="st5" d="M57,21.6c0-0.3,0.2-0.5,0.5-0.5c0.3,0,0.5,0.2,0.5,0.5s-0.2,0.5-0.5,0.5C57.2,22.1,57,21.9,57,21.6z
				 M57.9,21.6c0-0.2-0.1-0.4-0.3-0.4c-0.2,0-0.3,0.1-0.3,0.4s0.1,0.4,0.3,0.4C57.7,22,57.9,21.8,57.9,21.6z"/>
			<path class="st5" d="M58.9,22.1l-0.3-0.4h-0.2v0.4h-0.2v-1h0.4c0.2,0,0.4,0.1,0.4,0.3c0,0.2-0.1,0.2-0.2,0.3l0.3,0.4H58.9z
				 M58.4,21.6h0.2c0.2,0,0.3-0.1,0.3-0.2c0-0.1-0.1-0.2-0.3-0.2h-0.2V21.6z"/>
		</g>
		<g>
			<path class="st5" d="M68,21.3h-0.3v-0.1h0.9v0.1h-0.4v0.9H68V21.3z"/>
			<path class="st5" d="M68.8,21.7l-0.3-0.5h0.2l0.1,0.2c0,0,0.1,0.1,0.1,0.2h0c0-0.1,0.1-0.1,0.1-0.2l0.1-0.2h0.2l-0.3,0.5l0.3,0.5
				h-0.2L69,21.9c0-0.1-0.1-0.1-0.1-0.2h0c0,0.1-0.1,0.1-0.1,0.2l-0.2,0.3h-0.2L68.8,21.7z"/>
			<path class="st5" d="M71.2,22.2l-0.3-0.4h-0.2v0.4h-0.2v-1H71c0.2,0,0.4,0.1,0.4,0.3c0,0.2-0.1,0.2-0.2,0.3l0.3,0.4H71.2z
				 M70.8,21.6h0.2c0.2,0,0.3-0.1,0.3-0.2c0-0.1-0.1-0.2-0.3-0.2h-0.2V21.6z"/>
			<path class="st5" d="M71.7,21.7l-0.3-0.5h0.2l0.1,0.2c0,0,0.1,0.1,0.1,0.2h0c0-0.1,0.1-0.1,0.1-0.2l0.1-0.2h0.2L72,21.7l0.3,0.5
				h-0.2l-0.2-0.3c0-0.1-0.1-0.1-0.1-0.2h0c0,0.1-0.1,0.1-0.1,0.2l-0.2,0.3h-0.2L71.7,21.7z"/>
			<path class="st5" d="M73.7,21.2h0.2V22h0.5v0.1h-0.7V21.2z"/>
			<path class="st5" d="M74.5,22.1h0.3v-0.7h-0.2v-0.1c0.1,0,0.2,0,0.3-0.1h0.1v0.9h0.2v0.1h-0.7V22.1z"/>
		</g>
		<g>
			<path class="st9" d="M64,25.6h-2.2c-1.2,0-2.2-1-2.2-2.2v0c0-1.2,1-2.2,2.2-2.2H64c1.2,0,2.2,1,2.2,2.2v0
				C66.2,24.7,65.2,25.6,64,25.6z"/>
		</g>
		<g>
			<path class="st5" d="M60.4,31.4L60.4,31.4c-0.2,0-0.3-0.1-0.3-0.3V29c0-0.2,0.1-0.3,0.3-0.3l0,0c0.2,0,0.3,0.1,0.3,0.3v2.1
				C60.7,31.3,60.6,31.4,60.4,31.4z"/>
		</g>
		<g>
			<path class="st5" d="M61.3,31.4L61.3,31.4c-0.2,0-0.3-0.1-0.3-0.3V29c0-0.2,0.1-0.3,0.3-0.3l0,0c0.2,0,0.3,0.1,0.3,0.3v2.1
				C61.6,31.3,61.4,31.4,61.3,31.4z"/>
		</g>
		<g>
			<path class="st5" d="M62.2,31.4L62.2,31.4c-0.2,0-0.3-0.1-0.3-0.3V29c0-0.2,0.1-0.3,0.3-0.3h0c0.2,0,0.3,0.1,0.3,0.3v2.1
				C62.4,31.3,62.3,31.4,62.2,31.4z"/>
		</g>
		<g>
			<path class="st5" d="M63,31.4L63,31.4c-0.2,0-0.3-0.1-0.3-0.3V29c0-0.2,0.1-0.3,0.3-0.3l0,0c0.2,0,0.3,0.1,0.3,0.3v2.1
				C63.3,31.3,63.2,31.4,63,31.4z"/>
		</g>
		<g>
			<path class="st5" d="M63.9,31.4L63.9,31.4c-0.2,0-0.3-0.1-0.3-0.3V29c0-0.2,0.1-0.3,0.3-0.3l0,0c0.2,0,0.3,0.1,0.3,0.3v2.1
				C64.2,31.3,64.1,31.4,63.9,31.4z"/>
		</g>
		<g>
			<path class="st5" d="M64.8,31.4L64.8,31.4c-0.2,0-0.3-0.1-0.3-0.3V29c0-0.2,0.1-0.3,0.3-0.3l0,0c0.2,0,0.3,0.1,0.3,0.3v2.1
				C65.1,31.3,64.9,31.4,64.8,31.4z"/>
		</g>
		<g>
			<path class="st5" d="M65.7,31.4L65.7,31.4c-0.2,0-0.3-0.1-0.3-0.3V29c0-0.2,0.1-0.3,0.3-0.3l0,0c0.2,0,0.3,0.1,0.3,0.3v2.1
				C65.9,31.3,65.8,31.4,65.7,31.4z"/>
		</g>
		<g>
			<path class="st5" d="M66.5,31.4L66.5,31.4c-0.2,0-0.3-0.1-0.3-0.3V29c0-0.2,0.1-0.3,0.3-0.3l0,0c0.2,0,0.3,0.1,0.3,0.3v2.1
				C66.8,31.3,66.7,31.4,66.5,31.4z"/>
		</g>
		<g>
			<path class="st5" d="M67.4,31.4L67.4,31.4c-0.2,0-0.3-0.1-0.3-0.3V29c0-0.2,0.1-0.3,0.3-0.3l0,0c0.2,0,0.3,0.1,0.3,0.3v2.1
				C67.7,31.3,67.6,31.4,67.4,31.4z"/>
		</g>
		<g>
			<path class="st5" d="M68.3,31.4L68.3,31.4c-0.2,0-0.3-0.1-0.3-0.3V29c0-0.2,0.1-0.3,0.3-0.3l0,0c0.2,0,0.3,0.1,0.3,0.3v2.1
				C68.6,31.3,68.5,31.4,68.3,31.4z"/>
		</g>
		<g>
			<path class="st5" d="M60.4,40.8L60.4,40.8c-0.2,0-0.3-0.1-0.3-0.3v-2.1c0-0.2,0.1-0.3,0.3-0.3l0,0c0.2,0,0.3,0.1,0.3,0.3v2.1
				C60.7,40.6,60.6,40.8,60.4,40.8z"/>
		</g>
		<g>
			<path class="st5" d="M61.3,40.8L61.3,40.8c-0.2,0-0.3-0.1-0.3-0.3v-2.1c0-0.2,0.1-0.3,0.3-0.3l0,0c0.2,0,0.3,0.1,0.3,0.3v2.1
				C61.6,40.6,61.5,40.8,61.3,40.8z"/>
		</g>
		<g>
			<path class="st5" d="M62.2,40.8L62.2,40.8c-0.2,0-0.3-0.1-0.3-0.3v-2.1c0-0.2,0.1-0.3,0.3-0.3l0,0c0.2,0,0.3,0.1,0.3,0.3v2.1
				C62.5,40.6,62.4,40.8,62.2,40.8z"/>
		</g>
		<g>
			<path class="st5" d="M63.1,40.8L63.1,40.8c-0.2,0-0.3-0.1-0.3-0.3v-2.1c0-0.2,0.1-0.3,0.3-0.3h0c0.2,0,0.3,0.1,0.3,0.3v2.1
				C63.4,40.6,63.2,40.8,63.1,40.8z"/>
		</g>
		<g>
			<path class="st5" d="M64,40.8L64,40.8c-0.2,0-0.3-0.1-0.3-0.3v-2.1c0-0.2,0.1-0.3,0.3-0.3l0,0c0.2,0,0.3,0.1,0.3,0.3v2.1
				C64.2,40.6,64.1,40.8,64,40.8z"/>
		</g>
		<g>
			<path class="st5" d="M64.8,40.8L64.8,40.8c-0.2,0-0.3-0.1-0.3-0.3v-2.1c0-0.2,0.1-0.3,0.3-0.3h0c0.2,0,0.3,0.1,0.3,0.3v2.1
				C65.1,40.6,65,40.8,64.8,40.8z"/>
		</g>
		<g>
			<path class="st5" d="M65.7,40.8L65.7,40.8c-0.2,0-0.3-0.1-0.3-0.3v-2.1c0-0.2,0.1-0.3,0.3-0.3l0,0c0.2,0,0.3,0.1,0.3,0.3v2.1
				C66,40.6,65.9,40.8,65.7,40.8z"/>
		</g>
		<g>
			<path class="st5" d="M66.6,40.8L66.6,40.8c-0.2,0-0.3-0.1-0.3-0.3v-2.1c0-0.2,0.1-0.3,0.3-0.3l0,0c0.2,0,0.3,0.1,0.3,0.3v2.1
				C66.9,40.6,66.7,40.8,66.6,40.8z"/>
		</g>
		<g>
			<path class="st5" d="M69.4,38.5h-9.7c-0.3,0-0.6-0.3-0.6-0.6v-6.1c0-0.3,0.3-0.6,0.6-0.6h9.7c0.3,0,0.6,0.3,0.6,0.6v6.1
				C69.9,38.3,69.7,38.5,69.4,38.5z M59.7,31.4c-0.2,0-0.4,0.2-0.4,0.4v6.1c0,0.2,0.2,0.4,0.4,0.4h9.7c0.2,0,0.4-0.2,0.4-0.4v-6.1
				c0-0.2-0.2-0.4-0.4-0.4H59.7z"/>
		</g>
		<g>
			<path class="st5" d="M67.5,40.8L67.5,40.8c-0.2,0-0.3-0.1-0.3-0.3v-2.1c0-0.2,0.1-0.3,0.3-0.3l0,0c0.2,0,0.3,0.1,0.3,0.3v2.1
				C67.7,40.6,67.6,40.8,67.5,40.8z"/>
		</g>
		<g>
			<path class="st5" d="M68.3,40.8L68.3,40.8c-0.2,0-0.3-0.1-0.3-0.3v-2.1c0-0.2,0.1-0.3,0.3-0.3l0,0c0.2,0,0.3,0.1,0.3,0.3v2.1
				C68.6,40.6,68.5,40.8,68.3,40.8z"/>
		</g>
		<g>
			<path class="st9" d="M65.9,38.3h-2.5c-2,0-3.6-1.6-3.6-3.6v0c0-2,1.6-3.6,3.6-3.6h2.5c2,0,3.6,1.6,3.6,3.6v0
				C69.5,36.7,67.9,38.3,65.9,38.3z"/>
		</g>
		<g>
			<path class="st37" d="M62.6,48.3h-0.4c-0.5,0-1-0.4-1-1v0c0-0.5,0.4-1,1-1h0.4c0.5,0,1,0.4,1,1v0C63.6,47.8,63.2,48.3,62.6,48.3z
				"/>
		</g>
		<g>
			<path class="st37" d="M72.2,48.3h-0.4c-0.5,0-1-0.4-1-1v0c0-0.5,0.4-1,1-1h0.4c0.5,0,1,0.4,1,1v0C73.2,47.8,72.7,48.3,72.2,48.3z
				"/>
		</g>
		<g>
			<path class="st38" d="M70.7,47.1l0,1c0,0.2-0.2,0.3-0.3,0.3H70c-0.2,0-0.3-0.1-0.3-0.3l0-1h-4.6l0,1c0,0.2-0.2,0.3-0.3,0.3h-0.4
				c-0.2,0-0.3-0.1-0.3-0.3l0-1h-1.2c-0.3,0-0.5,0.2-0.5,0.5v7h0.6v0.7h8.9v-0.7h0.6v-7c0-0.3-0.2-0.5-0.5-0.5H70.7z"/>
		</g>
		<g>
			<path class="st39" d="M64.6,52.5h-1.2v-0.8c0-0.3,0.3-0.6,0.6-0.6l0,0c0.3,0,0.6,0.3,0.6,0.6V52.5z"/>
		</g>
		<g>
			<polygon class="st39" points="63.6,52.1 63.3,52.9 63.6,53.4 64.5,53.4 64.9,52.8 64.5,52.1 			"/>
		</g>
		<g>
			<path class="st39" d="M71.4,52.5h-1.2v-0.8c0-0.3,0.3-0.6,0.6-0.6l0,0c0.3,0,0.6,0.3,0.6,0.6V52.5z"/>
		</g>
		<g>
			<polygon class="st39" points="70.3,52.1 70,52.9 70.4,53.4 71.3,53.4 71.6,52.8 71.3,52.1 			"/>
		</g>
		<g>
			<path class="st37" d="M65.3,46.9L65.3,46.9c-0.1,0-0.2-0.1-0.2-0.2v-0.5c0-0.1,0.1-0.2,0.2-0.2l0,0c0.1,0,0.2,0.1,0.2,0.2v0.5
				C65.5,46.8,65.4,46.9,65.3,46.9z"/>
		</g>
		<g>
			<path class="st37" d="M66.1,46.9L66.1,46.9c-0.1,0-0.2-0.1-0.2-0.2v-0.5c0-0.1,0.1-0.2,0.2-0.2l0,0c0.1,0,0.2,0.1,0.2,0.2v0.5
				C66.4,46.8,66.3,46.9,66.1,46.9z"/>
		</g>
		<g>
			<path class="st37" d="M67,46.9L67,46.9c-0.1,0-0.2-0.1-0.2-0.2v-0.5c0-0.1,0.1-0.2,0.2-0.2l0,0c0.1,0,0.2,0.1,0.2,0.2v0.5
				C67.3,46.8,67.2,46.9,67,46.9z"/>
		</g>
		<g>
			<path class="st37" d="M67.9,46.9L67.9,46.9c-0.1,0-0.2-0.1-0.2-0.2v-0.5c0-0.1,0.1-0.2,0.2-0.2l0,0c0.1,0,0.2,0.1,0.2,0.2v0.5
				C68.1,46.8,68,46.9,67.9,46.9z"/>
		</g>
		<g>
			<path class="st37" d="M68.8,46.9L68.8,46.9c-0.1,0-0.2-0.1-0.2-0.2v-0.5c0-0.1,0.1-0.2,0.2-0.2l0,0c0.1,0,0.2,0.1,0.2,0.2v0.5
				C69,46.8,68.9,46.9,68.8,46.9z"/>
		</g>
		<g>
			<rect x="62.1" y="54.1" transform="matrix(0.866 0.5 -0.5 0.866 35.6716 -23.842)" class="st38" width="0.5" height="1.1"/>
		</g>
		<g>
			
				<rect x="72.2" y="54.1" transform="matrix(0.8425 -0.5387 0.5387 0.8425 -18.021 47.6519)" class="st38" width="0.5" height="1.1"/>
		</g>
		<g>
			<g>
				<path class="st5" d="M78.1,51.8h-2.3c-0.2,0-0.4-0.2-0.4-0.4v-1c0-0.2,0.2-0.4,0.4-0.4h2.3c0.2,0,0.4,0.2,0.4,0.4v1
					C78.4,51.7,78.3,51.8,78.1,51.8z M75.8,50.3c-0.1,0-0.2,0.1-0.2,0.2v1c0,0.1,0.1,0.2,0.2,0.2h2.3c0.1,0,0.2-0.1,0.2-0.2v-1
					c0-0.1-0.1-0.2-0.2-0.2H75.8z"/>
			</g>
			<g>
				<path class="st28" d="M75.7,50.9L75.7,50.9c0-0.4,0.3-0.6,0.6-0.6h1.3c0.4,0,0.6,0.3,0.6,0.6l0,0c0,0.4-0.3,0.6-0.6,0.6h-1.3
					C76,51.6,75.7,51.3,75.7,50.9z"/>
			</g>
			<g>
				<path class="st29" d="M76,50.9L76,50.9c0-0.3,0.2-0.5,0.5-0.5h0.9c0.3,0,0.5,0.2,0.5,0.5l0,0c0,0.3-0.2,0.5-0.5,0.5h-0.9
					C76.2,51.4,76,51.2,76,50.9z"/>
			</g>
			<g>
				
					<rect x="76.4" y="50.2" transform="matrix(-1.836970e-16 1 -1 -1.836970e-16 127.8169 -26.0913)" class="st31" width="1.1" height="1.3"/>
			</g>
		</g>
	</g>
	<path class="st40" d="M86.5,32.7l-0.3-9.9c-0.1-1.7-1.5-3-3.3-3H25c-1.8,0-3.3,1.3-3.3,3L21.3,33c-0.1,2.3-0.1,4.5,0,6.8l0.3,10.5
		c0.1,1.7,1.5,3,3.3,3h57.8c1.8,0,3.3-1.3,3.3-3l0.3-10.8C86.5,37.2,86.5,34.9,86.5,32.7z M33.6,44.8c0,0.9-0.7,1.6-1.6,1.6h-5.7
		c-0.9,0-1.6-0.7-1.6-1.6V29.3c0-0.9,0.7-1.6,1.6-1.6H32c0.9,0,1.6,0.7,1.6,1.6V44.8z M83,44.8c0,0.9-0.7,1.6-1.6,1.6h-5.7
		c-0.9,0-1.6-0.7-1.6-1.6V29.3c0-0.9,0.7-1.6,1.6-1.6h5.7c0.9,0,1.6,0.7,1.6,1.6V44.8z"/>
	<g>
		<circle class="st41" cx="54" cy="32.4" r="2.6"/>
		<path class="st41" d="M54.6,33.3L54.6,33.3c-0.5,0.5-1.4,0.5-1.9,0L48.3,29c-0.5-0.5-0.5-1.4,0-1.9l0,0c0.5-0.5,1.4-0.5,1.9,0
			l4.4,4.4C55.1,31.9,55.1,32.8,54.6,33.3z"/>
		<path class="st41" d="M54,28.2c-0.3,0-0.7,0-1,0.1c-0.1,0-0.3,0.1-0.4,0.1l0.6,0.6C53.5,29,53.7,29,54,29c1.9,0,3.4,1.5,3.4,3.4
			c0,1.9-1.5,3.4-3.4,3.4c-1.9,0-3.4-1.5-3.4-3.4c0,0,0-0.1,0-0.1l-0.7-0.7c0,0.1,0,0.2,0,0.2c0,0.2,0,0.4,0,0.6
			c0,2.3,1.9,4.2,4.2,4.2s4.2-1.9,4.2-4.2S56.3,28.2,54,28.2z"/>
		<path class="st41" d="M55.5,29l1.9,1.9l2-2c0.5-0.5,0.5-1.4,0-1.9l0,0c-0.5-0.5-1.4-0.5-1.9,0L55.5,29z"/>
	</g>
	<g>
		<text transform="matrix(1 0 0 1 48.6361 41.6504)" class="st41 st42 st43">Grove</text>
		<text transform="matrix(1 0 0 1 48.6996 47.6778)" class="st41 st42 st44">Joint</text>
		<path class="st41" d="M58.9,43.1H49c-0.2,0-0.3-0.1-0.3-0.3l0,0c0-0.2,0.1-0.3,0.3-0.3h9.9c0.2,0,0.3,0.1,0.3,0.3l0,0
			C59.2,43,59,43.1,58.9,43.1z"/>
	</g>
	<g>
		<g>
			<path class="st41" d="M36.8,37.7c0,0-0.1,0-0.1,0c-0.1-0.1-0.1-0.2,0-0.3l0.7-0.8l-0.6-0.8c-0.1-0.1,0-0.2,0-0.3
				c0.1-0.1,0.2,0,0.3,0l0.8,1.1l-0.9,1.1C36.9,37.7,36.8,37.7,36.8,37.7z"/>
		</g>
		<g>
			<path class="st41" d="M41.1,36.7h-3.5c-0.1,0-0.2-0.1-0.2-0.2s0.1-0.2,0.2-0.2h3.5c0.1,0,0.2,0.1,0.2,0.2S41.2,36.7,41.1,36.7z"
				/>
		</g>
		<g>
			<g>
				<path class="st41" d="M40,38.5c0.3,0,0.3-0.5,0-0.5C39.7,38,39.7,38.5,40,38.5L40,38.5z"/>
			</g>
		</g>
		<g>
			<circle class="st41" cx="41.4" cy="36.5" r="0.7"/>
		</g>
	</g>
	<g>
		<g>
			<path class="st41" d="M70.2,36.7H66c-0.1,0-0.2-0.1-0.2-0.2s0.1-0.2,0.2-0.2h4.2c0.1,0,0.2,0.1,0.2,0.2S70.3,36.7,70.2,36.7z"/>
		</g>
		<g>
			<path class="st41" d="M65.4,37.8c-0.1,0-0.1,0-0.2-0.1c-0.1-0.1,0-0.2,0.1-0.3c0.3-0.2,0.5-0.5,0.5-0.8c0-0.3-0.2-0.6-0.5-0.8
				c-0.1-0.1-0.1-0.2-0.1-0.3c0.1-0.1,0.2-0.1,0.3-0.1c0.4,0.2,0.7,0.7,0.7,1.2C66.1,37,65.9,37.5,65.4,37.8
				C65.4,37.8,65.4,37.8,65.4,37.8z"/>
		</g>
		<g>
			<polygon class="st41" points="69.9,36 69.9,37.1 71.2,36.5 			"/>
		</g>
	</g>
</g>
</svg>
