<svg version="1.1" id="图层_1" xmlns="http://www.w3.org/2000/svg" xmlns:xlink="http://www.w3.org/1999/xlink" x="0" y="0" viewBox="0 0 108 71" xml:space="preserve"><style>.st1{fill:#fff;stroke:#717071;stroke-width:.2835;stroke-miterlimit:10}.st2{fill:#f1de9a}.st3{fill:#595757}.st4{fill:#575757}.st5{fill:#242425}.st6{fill:#d9d9d9}.st7{fill:#fff}.st8{fill:#717071}.st14{fill:#dbdcdc}.st15{fill:#333335}.st16{fill:none;stroke:#fff;stroke-width:3;stroke-miterlimit:10}.st19,.st20{clip-path:url(#SVGID_6_);fill:#243e95}.st20{fill:#fff}.st21,.st22{fill:none;stroke:#241c1d;stroke-miterlimit:10}.st21{clip-path:url(#SVGID_6_);stroke-width:.294}.st22{stroke-width:.287;stroke-linecap:round;stroke-linejoin:round}.st22,.st23,.st24,.st25{clip-path:url(#SVGID_6_)}.st23{stroke:#241c1d;stroke-width:.291;stroke-linecap:round;stroke-linejoin:round;stroke-miterlimit:10;fill:none}.st24,.st25{fill:#2ea5df}.st25{fill:none;stroke:#241c1d;stroke-width:.278;stroke-linecap:round;stroke-linejoin:round;stroke-miterlimit:10}.st26,.st27,.st28,.st29{clip-path:url(#SVGID_6_);fill:#eee}.st27,.st28,.st29{fill:#d6ad59}.st28,.st29{fill:#f7f8f9}.st29{fill:none;stroke:#241c1d;stroke-width:.296;stroke-miterlimit:10}.st30,.st31,.st32{clip-path:url(#SVGID_6_);fill:#434241}.st31,.st32{fill:none;stroke:#241c1d;stroke-width:.295;stroke-miterlimit:10}.st32{stroke-width:.294;stroke-linecap:round;stroke-linejoin:round}.st33,.st35,.st36,.st39{clip-path:url(#SVGID_6_);fill:#d9d9d9}.st35,.st36,.st39{fill:none;stroke:#241c1d;stroke-miterlimit:10}.st35{stroke-linecap:round;stroke-linejoin:round;stroke-width:.252}.st36,.st39{stroke-width:.324}.st39{stroke:#d6ad59;stroke-width:.294}.st40,.st41,.st42,.st47{clip-path:url(#SVGID_6_);fill:#959797}.st41,.st42,.st47{fill:#fcce1a}.st42,.st47{fill:#241c1d}.st47{fill:none;stroke:#d6ad59;stroke-width:1.471;stroke-miterlimit:10}</style><path d="M4.7 2.5v48.3c0 1.4 1.1 2.6 2.6 2.6h59.5c.8 0 1.6-.4 2.1-1.1l2.2-3.1c.3-.5.5-1 .5-1.5v-31c0-.5-.2-1.1-.5-1.5l-1.5-2c-.3-.5-.5-1-.5-1.5V2.5c0-1.4-1.1-2.6-2.6-2.6H7.3c-1.5 0-2.6 1.2-2.6 2.6z" fill="#249484"/><circle id="XMLID_1989_" class="st1" cx="67.6" cy="16.4" r="1.8"/><path id="XMLID_248_" class="st2" d="M15.1 2.6h2.7v.9h-2.7z"/><path id="XMLID_234_" class="st2" d="M15 6.2h2.7v.9H15z"/><path id="XMLID_199_" class="st2" d="M7.8 2.5h2.7v.9H7.8z"/><path id="XMLID_165_" class="st2" d="M7.7 6.1h2.7V7H7.7z"/><path id="XMLID_188_" class="st2" d="M7.8 4.3h2.7v.9H7.8z"/><path id="XMLID_251_" class="st3" d="M9.9 7.6V2h5.7v5.3l-.2.2-5.5.1z"/><g id="XMLID_1_"><path id="XMLID_25_" class="st4" d="M15.8 49.8H4l-1.6-1.6v-2.9L4 43.7h11.8l1.6 1.6v2.9c-.7.6-1 1-1.6 1.6z"/></g><g id="XMLID_231_"><path id="XMLID_24_" class="st5" d="M14.6 50.8h-2.7l-2.6-2.6v-2.7l2.6-2.6h2.7l2.6 2.6v2.7c-1 1-1.5 1.6-2.6 2.6z"/></g><path id="XMLID_489_" class="st6" d="M13.2 30.7h3.5v1.4h-3.5z"/><path id="XMLID_624_" class="st6" d="M13.2 32.9h3.5v1.4h-3.5z"/><path id="XMLID_712_" class="st6" d="M13.2 35.2h3.5v1.4h-3.5z"/><path id="XMLID_824_" class="st6" d="M9.5 32.1H13v3.6H9.5z"/><g id="XMLID_262_"><path id="XMLID_23_" class="st4" d="M13.8 38.4h-1.6l-1.1-1.1v-7l1.1-1.1h1.6l1.1 1.1v7c-.4.4-.6.7-1.1 1.1z"/></g><circle id="XMLID_274_" class="st1" cx="67.3" cy="48.2" r="1.8"/><g id="XMLID_1362_"><path id="XMLID_21_" class="st4" d="M63 39.4H34.6l-2.9-2.9v-4.3l2.9-2.9H63l2.9 2.9v4.3c-1.1 1.2-1.8 1.8-2.9 2.9z"/></g><path id="XMLID_1432_" class="st2" d="M32.5 29.9h.7v1.5h-.7z"/><path id="XMLID_1898_" class="st2" d="M33.5 29.9h.7v1.5h-.7z"/><path id="XMLID_1956_" class="st2" d="M34.7 29.9h.7v1.5h-.7z"/><path id="XMLID_1988_" class="st2" d="M35.8 29.9h.7v1.5h-.7z"/><path id="XMLID_1994_" class="st2" d="M36.8 29.9h.7v1.5h-.7z"/><path id="XMLID_1995_" class="st2" d="M38 29.9h.7v1.5H38z"/><path id="XMLID_1999_" class="st2" d="M39 29.9h.7v1.5H39z"/><path id="XMLID_2000_" class="st2" d="M40.2 29.9h.7v1.5h-.7z"/><path id="XMLID_2003_" class="st2" d="M41.2 29.9h.7v1.5h-.7z"/><path id="XMLID_2004_" class="st2" d="M42.4 29.9h.7v1.5h-.7z"/><path id="XMLID_2161_" class="st2" d="M43.5 29.9h.7v1.5h-.7z"/><path id="XMLID_2164_" class="st2" d="M44.6 29.9h.7v1.5h-.7z"/><path id="XMLID_2190_" class="st2" d="M45.7 29.9h.7v1.5h-.7z"/><path id="XMLID_2194_" class="st2" d="M46.8 29.9h.7v1.5h-.7z"/><path id="XMLID_2195_" class="st2" d="M47.9 29.9h.7v1.5h-.7z"/><path id="XMLID_2196_" class="st2" d="M49 29.9h.7v1.5H49z"/><path id="XMLID_2199_" class="st2" d="M50.1 29.9h.7v1.5h-.7z"/><path id="XMLID_2217_" class="st2" d="M51.2 29.9h.7v1.5h-.7z"/><path id="XMLID_2218_" class="st2" d="M52.3 29.9h.7v1.5h-.7z"/><path id="XMLID_2219_" class="st2" d="M53.4 29.9h.7v1.5h-.7z"/><path id="XMLID_2222_" class="st2" d="M54.5 29.9h.7v1.5h-.7z"/><path id="XMLID_2223_" class="st2" d="M55.6 29.9h.7v1.5h-.7z"/><path id="XMLID_2224_" class="st2" d="M56.7 29.9h.7v1.5h-.7z"/><path id="XMLID_2226_" class="st2" d="M57.8 29.9h.7v1.5h-.7z"/><path id="XMLID_2264_" class="st2" d="M58.9 29.9h.7v1.5h-.7z"/><path id="XMLID_2265_" class="st2" d="M60 29.9h.7v1.5H60z"/><path id="XMLID_2267_" class="st2" d="M61.1 29.9h.7v1.5h-.7z"/><path id="XMLID_2269_" class="st2" d="M62.2 29.9h.7v1.5h-.7z"/><path id="XMLID_2270_" class="st2" d="M63.3 29.9h.7v1.5h-.7z"/><path id="XMLID_2282_" class="st2" d="M64.5 29.9h.7v1.5h-.7z"/><path id="XMLID_2740_" class="st2" d="M32.5 37.3h.7v1.5h-.7z"/><path id="XMLID_2739_" class="st2" d="M33.5 37.3h.7v1.5h-.7z"/><path id="XMLID_2738_" class="st2" d="M34.7 37.3h.7v1.5h-.7z"/><path id="XMLID_2597_" class="st2" d="M35.8 37.3h.7v1.5h-.7z"/><path id="XMLID_2596_" class="st2" d="M36.8 37.3h.7v1.5h-.7z"/><path id="XMLID_2595_" class="st2" d="M38 37.3h.7v1.5H38z"/><path id="XMLID_2591_" class="st2" d="M39 37.3h.7v1.5H39z"/><path id="XMLID_2590_" class="st2" d="M40.2 37.3h.7v1.5h-.7z"/><path id="XMLID_2584_" class="st2" d="M41.2 37.3h.7v1.5h-.7z"/><path id="XMLID_2583_" class="st2" d="M42.4 37.3h.7v1.5h-.7z"/><path id="XMLID_2580_" class="st2" d="M43.5 37.3h.7v1.5h-.7z"/><path id="XMLID_2579_" class="st2" d="M44.6 37.3h.7v1.5h-.7z"/><path id="XMLID_2575_" class="st2" d="M45.7 37.3h.7v1.5h-.7z"/><path id="XMLID_2560_" class="st2" d="M46.8 37.3h.7v1.5h-.7z"/><path id="XMLID_2557_" class="st2" d="M47.9 37.3h.7v1.5h-.7z"/><path id="XMLID_2556_" class="st2" d="M49 37.3h.7v1.5H49z"/><path id="XMLID_2553_" class="st2" d="M50.1 37.3h.7v1.5h-.7z"/><path id="XMLID_2552_" class="st2" d="M51.2 37.3h.7v1.5h-.7z"/><path id="XMLID_2547_" class="st2" d="M52.3 37.3h.7v1.5h-.7z"/><path id="XMLID_2503_" class="st2" d="M53.4 37.3h.7v1.5h-.7z"/><path id="XMLID_2443_" class="st2" d="M54.5 37.3h.7v1.5h-.7z"/><path id="XMLID_2439_" class="st2" d="M55.6 37.3h.7v1.5h-.7z"/><path id="XMLID_2435_" class="st2" d="M56.7 37.3h.7v1.5h-.7z"/><path id="XMLID_2434_" class="st2" d="M57.8 37.3h.7v1.5h-.7z"/><path id="XMLID_2430_" class="st2" d="M58.9 37.3h.7v1.5h-.7z"/><path id="XMLID_2429_" class="st2" d="M60 37.3h.7v1.5H60z"/><path id="XMLID_2339_" class="st2" d="M61.1 37.3h.7v1.5h-.7z"/><path id="XMLID_2283_" class="st2" d="M62.2 37.3h.7v1.5h-.7z"/><path id="XMLID_2162_" class="st2" d="M63.3 37.3h.7v1.5h-.7z"/><path id="XMLID_2160_" class="st2" d="M64.5 37.3h.7v1.5h-.7z"/><g id="XMLID_2438_"><g id="XMLID_2746_"><g id="XMLID_2755_"><path transform="matrix(.00394 -1 1 .00394 -26.063 72.955)" class="st7" d="M22.3 47.1h2.5v4.8h-2.5z"/><path class="st8" d="M21.3 48.4H26v2.3h-4.6v-2.3m-.3-.3v2.7H26.2v-2.7h-5.1z"/></g></g><path id="XMLID_2442_" transform="matrix(.00403 -1 1 .00403 -26.018 72.88)" class="st8" d="M22.4 48.3h2.3v2.3h-2.3z"/></g><circle id="XMLID_2760_" class="st1" cx="19.3" cy="49.9" r=".8"/><g><g id="XMLID_2766_"><path id="XMLID_19_" class="st4" d="M68.3 27.5h-1.8l-1.1-1.1V21l1.1-1.1h1.8l1.1 1.1v5.4c-.4.4-.6.7-1.1 1.1z"/></g><path id="XMLID_2768_" class="st2" d="M65.8 21.4h.8v.8h-.8z"/><path id="XMLID_2771_" class="st2" d="M65.8 23.4h.8v.8h-.8z"/><path id="XMLID_2773_" class="st2" d="M65.7 25.4h.8v.8h-.8z"/><g><path id="XMLID_2776_" class="st2" d="M68.3 21.3h.8v.8h-.8z"/><path id="XMLID_2775_" class="st2" d="M68.3 23.3h.8v.8h-.8z"/><path id="XMLID_2774_" class="st2" d="M68.2 25.3h.8v.8h-.8z"/></g></g><g id="XMLID_2777_"><g id="XMLID_2779_"><g id="XMLID_3096_"><path class="st7" d="M62.1 21.3l1.8-.1V26l-1.8.1z"/><path class="st8" d="M63.8 21.4V26h-1.5v-4.6h1.5m.2-.3h-2V26.2h2v-5.1z"/></g></g><path id="XMLID_2778_" class="st8" d="M62.3 24.8l-.1-2.3h1.6v2.3z"/></g><g id="XMLID_3102_"><g id="XMLID_3471_"><g id="XMLID_3490_"><path class="st2" d="M7 20.4h3.1l.1 4.8H7z"/><path class="st8" d="M10.1 20.5v4.6h-3v-4.6h3m.2-.2H6.9v5H10.3v-5z"/></g></g><path id="XMLID_3104_" class="st8" d="M7.1 24v-2.3h3V24z"/></g><g><path id="XMLID_3586_" class="st6" d="M14.4 21.1h1.7v.7h-1.7z"/><path id="XMLID_3582_" class="st6" d="M14.4 23.2h1.7v.7h-1.7z"/><path id="XMLID_3579_" class="st6" d="M12.6 21.7h1.7v1.7h-1.7z"/><g id="XMLID_3495_"><path id="XMLID_30_" class="st4" d="M14.3 24.8l-.9-.9v-2.6l.9-.9.9.9v2.6c-.4.3-.5.5-.9.9z"/></g></g><circle cx="12.5" cy="4.6" r="1.6" fill="#f6f3c6"/><circle id="XMLID_3497_" class="st1" cx="21.9" cy="2.5" r="1.8"/><path class="st4" d="M-.2 8.7h15.7v10.5H-.2z"/><g><path fill="#202121" d="M20.7 4.8h4.2v2.9h-4.2z"/><path class="st2" d="M21.2 4.9h.3v.3h-.3zM21.8 4.9h.3v.3h-.3zM22.4 4.9h.3v.3h-.3zM23 4.9h.3v.3H23zM23.6 4.9h.3v.3h-.3zM24.2 4.9h.3v.3h-.3z"/><g><path class="st2" d="M21.3 7.1h.3v.3h-.3zM21.9 7.1h.3v.3h-.3zM22.5 7.1h.3v.3h-.3zM23.1 7.1h.3v.3h-.3zM23.7 7.1h.3v.3h-.3zM24.3 7.1h.3v.3h-.3z"/></g></g><path class="st2" d="M20.1 22.6H28v1.1h-7.9z"/><path d="M30 29.2h-8.5c-.9 0-1.7-.8-1.7-1.7 0-.9.8-1.7 1.7-1.7H30c.9 0 1.7.8 1.7 1.7 0 1-.8 1.7-1.7 1.7z" fill="#8b7a6b"/><path class="st7" d="M29.4.5h2v6h-2z"/><path class="st5" d="M24.3.8h43.5v2.6H24.3z"/><path class="st5" d="M24.3 3.3h4v1.1h-4z"/><path class="st7" d="M32 3.9h1.1V5H32zM33.7 3.9h1.1V5h-1.1zM35.4 3.9h1.1V5h-1.1zM37.1 3.9h1.1V5h-1.1zM38.8 3.9h1.1V5h-1.1zM40.5 3.9h1.1V5h-1.1zM42.2 3.9h1.1V5h-1.1zM43.9 3.9H45V5h-1.1zM45.6 3.9h1.1V5h-1.1zM47.3 3.9h1.1V5h-1.1zM49 3.9h1.1V5H49zM50.7 3.9h1.1V5h-1.1zM52.4 3.9h1.1V5h-1.1zM54.1 3.9h1.1V5h-1.1zM55.8 3.9h1.1V5h-1.1zM57.6 3.9h1.1V5h-1.1zM59.2 3.9h1.1V5h-1.1zM61 3.9h1.1V5H61zM62.6 3.9h1.1V5h-1.1zM64.4 3.9h1.1V5h-1.1zM66.1 3.9h1.1V5h-1.1zM30.3 20.4h4.5v2.3h-4.5z"/><g><g id="XMLID_3590_"><path id="XMLID_3603_" class="st4" d="M24.4 47.1h-3.7V45l1.9-1.9 1.9 1.9-.1 2.1z"/></g><circle class="st5" cx="22.5" cy="45.1" r="1.8"/><circle class="st7" cx="22.5" cy="45.1" r="1.7"/><defs><circle id="SVGID_1_" cx="22.5" cy="45.1" r="1.7"/></defs><clipPath id="SVGID_2_"><use xlink:href="#SVGID_1_" overflow="visible"/></clipPath><path clip-path="url(#SVGID_2_)" fill="#242425" d="M20.8 45.7h3.5v1.4h-3.5z"/><g><g id="XMLID_3594_"><path id="XMLID_3595_" class="st4" d="M29.4 47.1h-3.7V45l1.9-1.9 1.9 1.9-.1 2.1z"/></g><circle class="st5" cx="27.6" cy="45.1" r="1.8"/><circle class="st7" cx="27.6" cy="45.1" r="1.7"/><defs><circle id="SVGID_3_" cx="27.6" cy="45.1" r="1.7"/></defs><clipPath id="SVGID_4_"><use xlink:href="#SVGID_3_" overflow="visible"/></clipPath><path clip-path="url(#SVGID_4_)" fill="#242425" d="M26 45.7h3.5v1.4H26z"/></g></g><g id="XMLID_3610_"><path id="XMLID_3736_" class="st3" d="M27.5 30.7V34h-3.4v-3.1l.2-.2h3.2z"/><g id="XMLID_3668_"><path id="XMLID_3714_" transform="rotate(-89.885 23.354 33.4)" class="st14" d="M23.1 32.6h.5v1.7h-.5z"/><path id="XMLID_3686_" transform="rotate(-89.885 23.297 32.703)" class="st14" d="M23 31.9h.5v1.7H23z"/><path id="XMLID_3677_" transform="rotate(-89.885 23.314 31.932)" class="st14" d="M23 31.1h.5v1.7H23z"/><path id="XMLID_3669_" transform="rotate(-89.885 23.316 31.252)" class="st14" d="M23.1 30.4h.5v1.7h-.5z"/></g><g id="XMLID_3611_"><path id="XMLID_3643_" transform="rotate(-89.885 28.381 33.454)" class="st14" d="M28.1 32.6h.5v1.7h-.5z"/><path id="XMLID_3642_" transform="rotate(-89.885 28.4 32.757)" class="st14" d="M28.1 31.9h.5v1.7h-.5z"/><path id="XMLID_3636_" transform="rotate(-89.885 28.342 31.986)" class="st14" d="M28.1 31.2h.5v1.7h-.5z"/><path id="XMLID_3615_" transform="rotate(-89.885 28.344 31.305)" class="st14" d="M28.1 30.5h.5v1.7h-.5z"/></g></g><g><g id="XMLID_2765_"><path id="XMLID_3737_" transform="rotate(-89.885 22.79 18.376)" class="st14" d="M22.5 17.5h.5v1.7h-.5z"/><path id="XMLID_3591_" transform="rotate(-89.885 22.732 17.68)" class="st14" d="M22.5 16.8h.5v1.7h-.5z"/><path id="XMLID_3587_" transform="rotate(-89.885 22.75 16.908)" class="st14" d="M22.5 16.1h.5v1.7h-.5z"/><path id="XMLID_3583_" transform="rotate(-89.885 22.752 16.228)" class="st14" d="M22.5 15.4h.5v1.7h-.5z"/></g><g id="XMLID_3738_"><path id="XMLID_3767_" transform="rotate(-89.885 22.766 20.52)" class="st14" d="M22.5 19.7h.5v1.7h-.5z"/><path id="XMLID_3766_" transform="rotate(-89.885 22.784 19.75)" class="st14" d="M22.5 18.9h.5v1.7h-.5z"/><path id="XMLID_3765_" transform="rotate(-89.885 22.785 19.07)" class="st14" d="M22.5 18.2h.5v1.7h-.5z"/></g><g id="XMLID_3774_"><path id="XMLID_3798_" transform="rotate(-89.885 28.473 18.385)" class="st14" d="M28.2 17.6h.5v1.7h-.5z"/><path id="XMLID_3797_" transform="rotate(-89.885 28.416 17.688)" class="st14" d="M28.2 16.9h.5v1.7h-.5z"/><path id="XMLID_3796_" transform="rotate(-89.885 28.433 16.917)" class="st14" d="M28.2 16.1h.5v1.7h-.5z"/><path id="XMLID_3775_" transform="rotate(-89.885 28.435 16.236)" class="st14" d="M28.2 15.4h.5v1.7h-.5z"/></g><g id="XMLID_3768_"><path id="XMLID_3773_" transform="rotate(-89.885 28.45 20.53)" class="st14" d="M28.2 19.7h.5v1.7h-.5z"/><path id="XMLID_3772_" transform="rotate(-89.885 28.467 19.758)" class="st14" d="M28.2 18.9h.5v1.7h-.5z"/><path id="XMLID_3771_" transform="rotate(-89.885 28.469 19.078)" class="st14" d="M28.2 18.2h.5v1.7h-.5z"/></g><g id="XMLID_3853_"><path id="XMLID_3857_" transform="translate(-.025 .03)" class="st14" d="M25.3 20.4h.5v1.7h-.5z"/><path id="XMLID_3856_" transform="translate(-.025 .029)" class="st14" d="M24.6 20.4h.5v1.7h-.5z"/><path id="XMLID_3855_" transform="translate(-.025 .028)" class="st14" d="M23.9 20.4h.5v1.7h-.5z"/><path id="XMLID_3854_" transform="translate(-.025 .027)" class="st14" d="M23.2 20.4h.5v1.7h-.5z"/></g><g id="XMLID_3799_"><path id="XMLID_3803_" transform="translate(-.025 .032)" class="st14" d="M27.5 20.4h.5v1.7h-.5z"/><path id="XMLID_3801_" transform="translate(-.025 .031)" class="st14" d="M26.7 20.4h.5v1.7h-.5z"/><path id="XMLID_3800_" transform="translate(-.025 .03)" class="st14" d="M26 20.4h.5v1.7H26z"/></g><g><g id="XMLID_3863_"><path id="XMLID_3867_" transform="translate(-.018 .03)" class="st14" d="M25.1 14.4h.5v1.7h-.5z"/><path id="XMLID_3866_" transform="translate(-.018 .029)" class="st14" d="M24.3 14.4h.5v1.7h-.5z"/><path id="XMLID_3865_" transform="translate(-.018 .028)" class="st14" d="M23.6 14.4h.5v1.7h-.5z"/><path id="XMLID_3864_" transform="translate(-.018 .027)" class="st14" d="M22.9 14.4h.5v1.7h-.5z"/></g><g id="XMLID_3858_"><path id="XMLID_3862_" transform="translate(-.018 .032)" class="st14" d="M27.2 14.4h.5v1.7h-.5z"/><path id="XMLID_3861_" transform="translate(-.018 .03)" class="st14" d="M26.4 14.4h.5v1.7h-.5z"/><path id="XMLID_3859_" transform="translate(-.018 .03)" class="st14" d="M25.8 14.4h.5v1.7h-.5z"/></g></g><path class="st4" d="M23.2 15.8H28v4.8h-4.8z"/></g><g><path id="XMLID_3875_" class="st2" d="M28 37.2h1.1v.4H28z"/><path id="XMLID_3874_" class="st2" d="M28 38.6h1.1v.4H28z"/><g><path id="XMLID_3873_" class="st2" d="M25.1 37.2h1.1v.4h-1.1z"/><path id="XMLID_3872_" class="st2" d="M25 38.6h1.1v.4H25z"/><path id="XMLID_3871_" class="st2" d="M25 37.9h1.1v.4H25z"/></g><path id="XMLID_3868_" class="st3" d="M26 39.2v-2.3h2.3v2l-.2.2-2.1.1z"/></g><g><g id="XMLID_2762_"><path id="XMLID_2770_" class="st5" d="M63.8 52.8H28.6L26.8 51v-.4l1.8-1.8h35.3l1.8 1.8v.4c-.8.7-1.2 1.1-1.9 1.8z"/></g><path class="st15" d="M42.1 50h1.4v1.4h-1.4zM46.6 50H48v1.4h-1.4zM28.4 50h1.4v1.4h-1.4zM30.7 50h1.4v1.4h-1.4zM33 50h1.4v1.4H33zM35.3 50h1.4v1.4h-1.4zM37.5 50h1.4v1.4h-1.4zM39.8 50h1.4v1.4h-1.4zM44.3 50h1.4v1.4h-1.4zM48.9 50h1.4v1.4h-1.4zM51.1 50h1.4v1.4h-1.4zM53.4 50h1.4v1.4h-1.4zM55.7 50h1.4v1.4h-1.4zM58 50h1.4v1.4H58zM60.3 50h1.4v1.4h-1.4zM62.6 50H64v1.4h-1.4z"/></g><g id="XMLID_3870_"><g id="XMLID_3879_"><g id="XMLID_3880_"><path transform="matrix(.00388 -1 1 .00388 45.735 78.534)" class="st7" d="M61.3 14.4h2v3.8h-2z"/><path class="st8" d="M60.5 15.4h3.6v1.8h-3.6v-1.8m-.2-.3v2.2h4v-2.2h-4z"/></g></g><path id="XMLID_3878_" transform="matrix(.00403 -1 1 .00403 45.773 78.544)" class="st8" d="M61.4 15.4h1.8v1.8h-1.8z"/></g><g><path class="st7" d="M63.3 9.7c-.5 0-.8.4-.8 1.1 0 .6.3 1.1.8 1.1s.8-.4.8-1.1-.3-1.1-.8-1.1z"/><path class="st7" d="M64.2 8.3h-7.1c-1.4 0-2.4 1.1-2.4 2.4s1.1 2.4 2.4 2.4h7.1c1.4 0 2.4-1.1 2.4-2.4s-1.1-2.4-2.4-2.4zm-5 2.7c0 .8-.4 1.1-.9 1.1s-.9-.2-.9-1.1V9.5h.3V11c0 .6.3.8.6.8s.6-.2.6-.8V9.5h.3V11zm2.5 1h-.3l-1-1.6-.2-.5V12h-.3V9.5h.3l.9 1.6.3.5V9.5h.3V12zm1.6 0c-.6 0-1.1-.5-1.1-1.3s.5-1.3 1.1-1.3c.6 0 1.1.5 1.1 1.3s-.5 1.3-1.1 1.3z"/></g><g id="XMLID_169_"><path id="XMLID_3883_" transform="rotate(-89.885 57.698 20.096)" class="st14" d="M57.4 19.6h.5v.9h-.5z"/><path id="XMLID_295_" transform="rotate(-89.885 57.717 19.399)" class="st14" d="M57.5 18.9h.5v.9h-.5z"/><path id="XMLID_275_" transform="rotate(-89.885 57.735 18.628)" class="st14" d="M57.5 18.2h.5v.9h-.5z"/><path id="XMLID_170_" transform="rotate(-89.885 57.737 17.948)" class="st14" d="M57.5 17.5h.5v.9h-.5z"/></g><g id="XMLID_2_"><path id="XMLID_3892_" transform="rotate(-89.885 55.71 20.074)" class="st14" d="M55.4 19.6h.5v.9h-.5z"/><path id="XMLID_3891_" transform="rotate(-89.885 55.728 19.377)" class="st14" d="M55.5 18.9h.5v.9h-.5z"/><path id="XMLID_3890_" transform="rotate(-89.885 55.746 18.606)" class="st14" d="M55.5 18.2h.5v.9h-.5z"/><path id="XMLID_3889_" transform="rotate(-89.885 55.748 17.926)" class="st14" d="M55.5 17.5h.5v.9h-.5z"/></g><g id="XMLID_3607_"><path id="XMLID_17_" class="st4" d="M56.7 21.3l-.8-.8v-2.6l.8-.8.8.8v2.6c-.3.2-.5.4-.8.8z"/></g><path id="XMLID_3098_" class="st2" d="M55.4 16.7h2.7v.9h-2.7z"/><g><ellipse transform="matrix(.0062 -1 1 .0062 24.782 49.315)" class="st16" cx="37.2" cy="12.2" rx="3.8" ry="5.1"/><ellipse transform="matrix(.0062 -1 1 .0062 34.91 59.336)" class="st16" cx="47.3" cy="12.1" rx="3.8" ry="5.1"/><path class="st7" d="M49.3 12.3c0 .3-.2.5-.4.5h-1v1c0 .2-.1.3-.2.3-.1.1-.2.1-.3.1-.2 0-.3 0-.4-.1-.1-.1-.2-.2-.2-.3v-1h-.9c-.2 0-.3-.1-.3-.2-.1-.1-.1-.2-.1-.3 0-.2 0-.3.1-.4.1-.1.2-.2.3-.2H47v-1c0-.1.1-.2.2-.3.1-.1.2-.1.4-.1.3 0 .5.2.5.4v1h1c.2 0 .2.1.3.2-.1.1-.1.2-.1.4z"/><g><path class="st7" d="M38.8 11.8c.2 0 .2.2.2.5s-.1.5-.2.5h-3.4c-.1 0-.2-.2-.2-.5s.1-.5.2-.5h3.4z"/></g><text transform="translate(34.355 19.47)" class="st7" font-size="3.41" font-family="SourceHanSansCN-Bold-GBpc-EUC-H">ARDUINO</text></g><g><defs><path id="SVGID_5_" d="M6.7 6.6h136.6v84.5H6.7z"/></defs><clipPath id="SVGID_6_"><use xlink:href="#SVGID_5_" overflow="visible"/></clipPath><path class="st19" d="M105.6 23.2H38c-1.4 0-2.5 1.1-2.5 2.5v42.7c0 1.4 1.1 2.5 2.5 2.5h17.9c.8 0 1.5-.5 1.6-1.3.4-1.9.9-3.8 1-4.4.2-.7.6-1.2 1.1-1.4.2-.1.4-.3.4-.6v-29c0-.5.4-.8.8-.8h21.9c.5 0 .8.4.8.8v28.7c0 .4.2.8.6 1.1.5.3.8.7.9 1.1.1.7.6 2.6 1.1 4.5.2.8.9 1.3 1.6 1.3h17.9c1.4 0 2.5-1.1 2.5-2.5V25.7c0-1.4-1.1-2.5-2.5-2.5"/><path class="st20" d="M37.7 24.7c.3 0 .6.3.6.6s-.3.6-.6.6-.6-.3-.6-.6.3-.6.6-.6M106.1 24.7c.3 0 .6.3.6.6s-.3.6-.6.6-.6-.3-.6-.6.2-.6.6-.6"/><circle class="st21" cx="106.1" cy="25.3" r=".6"/><path class="st20" d="M37.7 68.2c.3 0 .6.3.6.6s-.3.6-.6.6-.6-.3-.6-.6.3-.6.6-.6"/><circle class="st21" cx="37.7" cy="68.8" r=".6"/><path class="st20" d="M56.1 68.2c.3 0 .6.3.6.6s-.3.6-.6.6-.6-.3-.6-.6.3-.6.6-.6"/><circle class="st21" cx="56.1" cy="68.8" r=".6"/><path class="st20" d="M106.1 68.2c.3 0 .6.3.6.6s-.3.6-.6.6-.6-.3-.6-.6.2-.6.6-.6"/><circle class="st21" cx="106.1" cy="68.8" r=".6"/><path class="st20" d="M87.6 68.2c.3 0 .6.3.6.6s-.3.6-.6.6-.6-.3-.6-.6.3-.6.6-.6"/><circle class="st21" cx="87.6" cy="68.8" r=".6"/><path class="st20" d="M104.7 53.6H87.2c-.5 0-.8-.4-.8-.8v-8.9c0-.5.4-.8.8-.8h17.5c.5 0 .8.4.8.8v8.9c0 .4-.3.8-.8.8M104.7 39.9H87.2c-.5 0-.8-.4-.8-.8v-9.3c0-.5.4-.8.8-.8h17.5c.5 0 .8.4.8.8v9.3c0 .5-.3.8-.8.8"/><path class="st19" d="M92.4 52.3h6.2c0-.6.5-1 1.1-1s1.1.5 1.1 1h2.9c.1 0 .2-.1.2-.2v-2.9c.5 0 .8-.4.8-.8s-.4-.8-.8-.8v-3c0-.1-.1-.2-.2-.2h-2.9c0 .6-.5 1-1.1 1-.6 0-1.1-.5-1.1-1h-6.2c0-.4-.4-.8-.8-.8-.5 0-.8.3-.8.8h-3.1c-.1 0-.2.1-.2.2v2.7c.6 0 1.1.5 1.1 1 0 .6-.5 1-1.1 1V52c0 .1.1.2.2.2h3.1c0 .4.4.7.8.7.4.1.8-.2.8-.6"/><path class="st20" d="M91.6 44.7c-.2 0-.4-.2-.4-.4s.2-.4.4-.4.4.2.4.4-.2.4-.4.4M103.8 48.7c-.2 0-.4-.2-.4-.4s.2-.4.4-.4.4.2.4.4c.1.2-.1.4-.4.4"/><ellipse class="st22" cx="103.8" cy="48.3" rx=".4" ry=".4"/><path class="st20" d="M91.6 52.6c-.2 0-.4-.2-.4-.4s.2-.4.4-.4.4.2.4.4-.2.4-.4.4"/><ellipse class="st22" cx="91.6" cy="52.2" rx=".4" ry=".4"/><path class="st23" d="M93.6 46.8l-.1.1M93.5 46.9v.1M93.5 47l.1.1M93.6 47.1h.1M93.7 47.1l.1-.1M93.8 47v-.1M93.6 46.9l-.1.1M93.5 47l.1.1M93.7 47.8h-.1M93.6 47.8l-.1.1M93.5 47.9v.1M93.5 48l.1.1M93.7 48.1l.1-.1M93.6 47.9l-.1.1M93.5 48h.1M93.6 48.1h.1M93.8 48.8h-.1M93.6 48.8l-.1.1M93.5 48.9v.1M93.5 49l.1.1M93.6 49.1h.1M93.7 48.8h-.1M93.6 49v.1M93.6 49.1h.1M93.8 49.9l-.1-.1M93.6 49.8l-.1.1M93.5 49.9v.1M93.5 50l.1.1M93.6 50.1h.1M93.6 49.8l-.1.1M93.5 49.9l.1.1M93.6 50v.1M95.1 46.6H95M95 46.6h-.2M95 46.9h-.2M93.7 47h-.1M94.3 46.9h-.1M94 46.9h-.1M93.6 46.9v.1M93.7 46.7h-.1M93.7 46.9l-.1.1M93.7 46.9v.1M93.8 46.9h-.1M93.8 46.7h-.1M93.8 46.9h-.1M93.9 46.7h-.1M93.9 46.9h-.1M93.6 46.7v.1M94 46.7h-.1M94 46.9h-.1M94.1 46.9H94M94.2 46.6l-.2.1M94.2 46.9H94M94.2 46.9h-.1M94.3 46.6h-.1M94.3 46.9h-.1M94.5 46.6h-.2M94.5 46.9h-.2M94.5 46.9h-.2M94.7 46.6h-.2M94.7 46.9h-.2M94.8 46.9h-.1M94.8 46.6h-.1M94.9 46.9h-.2M94.7 46.9h-.2M95 46.9h-.1M95.1 51.1h7M102.1 45.5h-7M102.1 51.1v-5.6M93.6 47.1v-.2M95.1 47.8H95M95 47.8h-.2M95 48h-.2M93.7 48l-.1.1M94.3 48h-.1M93.9 48h-.1M93.6 47.9v.2M93.7 47.8h-.1M93.7 48h-.1M93.8 48h-.1M93.8 47.8h-.1M93.6 48v.1M93.8 48h-.1M93.9 47.8h-.1M93.9 48h-.1M94 47.8h-.1M94 48h-.1M94.1 48h-.2M94.1 47.8H94M94.1 48H94M94.2 48h-.1M94.3 47.8h-.2M94.3 48h-.2M94.5 47.8h-.2M94.5 48h-.2M94.5 48h-.2M94.6 47.8h-.1M94.6 48h-.1M94.8 48h-.2M94.8 47.8h-.2M94.8 48h-.1M94.7 48h-.2M95 48h-.2M95.1 49.1H95M95 48.8h-.2M95 49.1h-.2M94.3 48.8h-.1M93.9 48.8h-.1M93.6 48.9v.1M93.7 48.8h-.1M93.7 49.1h-.1M94.6 48.8h-.1M93.8 48.8h-.1M94 48.8h-.1M95 48.8h-.2M94.2 48.8H94M93.9 48.8h-.1M93.9 49.1h-.1M94.5 48.8h-.2M94 48.8h-.1M94.8 48.8h-.2M94 49.1h-.1M94.1 48.8H94M94.1 49.1H94M94.3 48.8h-.2M94.3 49.1h-.2M94.5 48.8h-.2M94.5 49.1h-.2M94.6 48.8h-.1M94.6 49.1h-.1M94.8 49.1h-.2M94.8 48.8h-.2M95.1 49.9h-.2M95.1 50.2h-.2M94.4 49.9h-.2M94 49.9h-.1M93.6 49.8v.2M93.8 49.9h-.1M94.7 49.9h-.2M94.1 49.9H94M95.1 49.9h-.2M94.2 49.9h-.1M93.9 49.9h-.1M93.9 50.1h-.1M93.9 49.9h-.1M93.7 49.9l-.1-.1M93.8 49.9h-.1M94.5 49.9h-.1M94.1 49.9h-.2M94.9 49.9h-.2M94.1 50.2l-.2-.1M94.2 49.9h-.1M94.2 50.2h-.1M94.3 49.9h-.1M94.3 50.2h-.1M94.5 49.9h-.2M94.5 50.2h-.2M94.7 49.9h-.2M94.7 50.2h-.2M94.9 50.2h-.2M94.9 49.9h-.2M93.6 48.1h.1M93.6 48v.1M93.7 48.8h-.1M93.7 49.1h.1M93.6 48.8v.1M93.6 48.9h-.1M93.5 48.9l.1.1M93.7 49.8h-.1M95.1 46.9H95M95 46.9v-.3M95 46.6v.3M93.9 46.9h-.1M95.1 48H95M95 48v-.2M95 47.8v.2M95 49.1v-.3M95.1 48.8H95M95 48.8v.3M93.6 49.1V49M93.8 49.1h-.1M93.8 48.8h-.1M95.1 50.2v-.3M95.1 49.9v.3M93.8 50.1h-.1M93.7 50.1h-.1M93.6 50.1V50M95.1 48v-.2M95.1 51.1v-.9M95.1 49.1v-.3M95.1 48.8V48M95.1 47.8v-.9M95.1 50.2v-.3M95.1 49.9v-.8M95.1 46.9v-.3M95.1 46.6v-1.1M93.7 48.8h-.1M93.7 49.8v.1"/><path class="st24" d="M95.1 45.5h7v5.6h-7z"/><path class="st25" d="M95.1 45.5h7v5.6h-7z"/><path class="st20" d="M87.9 45.8h2.8v5.3h-2.8z"/><path class="st26" d="M88.2 46.2h2.2v4.6h-2.2z"/><path class="st19" d="M95.1 43h1.7v1.3h-1.7z"/><path class="st20" d="M95.3 43c0 .1-.1.1-.1.1-.1 0-.1-.1-.1-.1 0-.1.1-.1.1-.1.1 0 .1.1.1.1M95.7 43c0 .1-.1.1-.1.1-.1 0-.1-.1-.1-.1 0-.1.1-.1.1-.1l.1.1M96 43c0 .1-.1.1-.1.1l-.1-.1c0-.1.1-.1.1-.1l.1.1M96.3 43c0 .1-.1.1-.1.1-.1 0-.1-.1-.1-.1 0-.1.1-.1.1-.1.1 0 .1.1.1.1M95.3 44.3c0 .1-.1.1-.1.1-.1 0-.1-.1-.1-.1l.1-.1c.1 0 .1.1.1.1M95.7 44.3c0 .1-.1.1-.1.1-.1 0-.1-.1-.1-.1l.1-.1.1.1M96 44.3c0 .1-.1.1-.1.1l-.1-.1.1-.1.1.1M96.3 44.3c0 .1-.1.1-.1.1-.1 0-.1-.1-.1-.1l.1-.1c.1 0 .1.1.1.1M96.7 43c0 .1-.1.1-.1.1-.1 0-.1-.1-.1-.1 0-.1.1-.1.1-.1l.1.1M96.7 44.3c0 .1-.1.1-.1.1-.1 0-.1-.1-.1-.1l.1-.1.1.1"/><path class="st19" d="M95.1 52.3h1.7v1.3h-1.7z"/><path class="st20" d="M95.3 52.2c0 .1-.1.1-.1.1-.1 0-.1-.1-.1-.1 0-.1.1-.1.1-.1.1 0 .1.1.1.1M95.7 52.2c0 .1-.1.1-.1.1-.1 0-.1-.1-.1-.1 0-.1.1-.1.1-.1l.1.1M96 52.2c0 .1-.1.1-.1.1l-.1-.1c0-.1.1-.1.1-.1l.1.1M96.3 52.2c0 .1-.1.1-.1.1-.1 0-.1-.1-.1-.1 0-.1.1-.1.1-.1.1 0 .1.1.1.1M95.3 53.6c0 .1-.1.1-.1.1-.1 0-.1-.1-.1-.1 0-.1.1-.1.1-.1.1-.1.1 0 .1.1M95.7 53.6c0 .1-.1.1-.1.1-.1 0-.1-.1-.1-.1 0-.1.1-.1.1-.1 0-.1.1 0 .1.1M96 53.6c0 .1-.1.1-.1.1l-.1-.1c0-.1.1-.1.1-.1s.1 0 .1.1M96.3 53.6c0 .1-.1.1-.1.1-.1 0-.1-.1-.1-.1 0-.1.1-.1.1-.1.1-.1.1 0 .1.1M96.7 52.2c0 .1-.1.1-.1.1-.1 0-.1-.1-.1-.1 0-.1.1-.1.1-.1l.1.1M96.7 53.6c0 .1-.1.1-.1.1-.1 0-.1-.1-.1-.1 0-.1.1-.1.1-.1 0-.1.1 0 .1.1M86.9 67.3h17.8c.5 0 .8-.4.8-.8v-9.3c0-.5-.4-.8-.8-.8H87.2c-.5 0-.8.4-.8.8V65l.5 2.3zM56.7 67.2H38.9c-.5 0-.8-.4-.8-.8v-9.3c0-.5.4-.8.8-.8h17.5c.5 0 .8.4.8.8V65l-.5 2.2zM38.9 53.6h17.5c.5 0 .8-.4.8-.8v-8.9c0-.5-.4-.8-.8-.8H38.9c-.5 0-.8.4-.8.8v8.9c-.1.4.3.8.8.8M38.9 39.9h17.5c.5 0 .8-.4.8-.8v-9.3c0-.5-.4-.8-.8-.8H38.9c-.5 0-.8.4-.8.8v9.3c-.1.5.3.8.8.8"/><path class="st27" d="M88.8 68.7h.1v.7h-.1zM89.4 69.5v-.3c0-.1 0-.1-.1-.1 0 0-.1 0-.1.1v.3h-.1V69h.1l.1-.1h.1s.1.1.1.2v.4h-.1zM90 69.5v-.3c0-.1 0-.1-.1-.1 0 0-.1 0-.1.1v.3h-.1V69h.1l.1-.1h.1s.1.1.1.2v.4H90zM90.7 69.4s-.1.1-.2.1-.1 0-.2-.1c0-.1-.1-.1-.1-.2s0-.2.1-.2c0 0 .1-.1.2-.1s.1 0 .2.1c0 .1.1.1.1.2s0 .2-.1.2m-.1-.3h-.1v.2h.2v-.1c-.1 0-.1-.1-.1-.1M91.1 69.5H91l-.2-.6h.2l.1.4.1-.4h.1zM91.7 69.5h-.2v-.1c0-.1.1-.2.2-.2h.1c0-.1 0-.1-.1-.1h-.1l-.2-.1c.1-.1.1-.1.2-.1.2 0 .2.1.2.2v.4h-.1zm0-.2h-.1s-.1 0-.1.1c0 0 0 .1.1.1 0-.1 0-.1.1-.2z"/><path class="st27" d="M92.1 69.5c-.1 0-.2-.1-.2-.2V69h-.1v-.1h.2v-.2h.1v.2h.1v.1h-.1v.5zM92.4 69.3c0 .1 0 .1.1.1s.1 0 .1-.1l.1.1c-.1.1-.1.1-.2.1s-.3-.1-.3-.3c0-.2.1-.3.2-.3.2 0 .2.1.2.3v.1h-.2zm.2-.2s0-.1 0 0c-.1-.1-.2 0-.2 0v.1l.2-.1M93.7 69.5h-.1l-.1-.4-.1.4h-.2l-.1-.6h.1l.1.4.1-.4h.1l.1.4.1-.4h.2zM94 68.9s-.1-.1 0 0c-.1-.1 0-.2 0-.2.1 0 .1 0 0 .2.1-.1.1 0 0 0m0 0h.1v.5H94v-.5zM94.4 69.5c-.1 0-.2-.1-.2-.2V69h-.1v-.1h.1v-.2h.1v.2h.1v.1h-.1v.3l.1.2zM94.9 69.5v-.3c0-.1 0-.1-.1-.1 0 0-.1 0-.1.1v.3h-.1v-.7h.1v.2l.1-.1c.1 0 .2.1.2.2v.4h-.1z"/><path class="st19" d="M91.1 29.5c-.4 0-.8.3-.8.8h-3.1c-.1 0-.2.1-.2.2v2.9c.6 0 1.1.5 1.1 1.1 0 .6-.5 1.1-1.1 1.1v2.9c0 .1.1.2.2.2h3.1c0 .4.4.8.8.8.5 0 .8-.4.8-.8H95c.1 0 .2-.1.2-.2v-2.9c-.6 0-1.1-.5-1.1-1.1 0-.6.5-1.1 1.1-1.1v-2.9c0-.1-.1-.2-.2-.2h-3.1c0-.4-.4-.8-.8-.8"/><path class="st20" d="M91.1 38.2c.2 0 .4.2.4.4s-.2.4-.4.4-.4-.2-.4-.4.2-.4.4-.4M91.1 29.9c.2 0 .4.2.4.4s-.2.4-.4.4-.4-.2-.4-.4.2-.4.4-.4"/><path class="st28" d="M93.8 33.4c-.6 0-1.1-.5-1.1-1.1 0-.6.5-1.1 1.1-1.1s1.1.5 1.1 1.1c0 .6-.5 1.1-1.1 1.1"/><ellipse class="st29" cx="93.8" cy="32.4" rx="1.1" ry="1.1"/><path class="st30" d="M91.8 33.9h2v2.9h-2z"/><path class="st31" d="M91.8 33.9h2v2.9h-2z"/><path class="st20" d="M88 31.8h2.9v5.5H88z"/><path class="st26" d="M88.3 32.2h2.2V37h-2.2z"/><path class="st19" d="M87.8 29H89v1.3h-1.2z"/><path class="st20" d="M88 29c0 .1-.1.1-.1.1-.1 0-.1-.1-.1-.1 0-.1.1-.1.1-.1.1 0 .1 0 .1.1M88.4 29c0 .1-.1.1-.1.1-.1 0-.1-.1-.1-.1 0-.1.1-.1.1-.1s.1 0 .1.1M88.7 29c0 .1-.1.1-.1.1-.1 0-.1-.1-.1-.1 0-.1.1-.1.1-.1s.1 0 .1.1M89 29c0 .1-.1.1-.1.1-.1 0-.1-.1-.1-.1 0-.1.1-.1.1-.1.1 0 .1 0 .1.1M88 30.3c0 .1-.1.1-.1.1-.1 0-.1-.1-.1-.1 0-.1.1-.1.1-.1.1 0 .1 0 .1.1M88.4 30.3c0 .1-.1.1-.1.1-.1 0-.1-.1-.1-.1 0-.1.1-.1.1-.1s.1 0 .1.1M88.7 30.3c0 .1-.1.1-.1.1-.1 0-.1-.1-.1-.1 0-.1.1-.1.1-.1s.1 0 .1.1M89 30.3c0 .1-.1.1-.1.1-.1 0-.1-.1-.1-.1 0-.1.1-.1.1-.1.1 0 .1 0 .1.1"/><path class="st19" d="M87.8 38.6H89v1.3h-1.2z"/><path class="st20" d="M88 38.6c0 .1-.1.1-.1.1-.1 0-.1-.1-.1-.1 0-.1.1-.1.1-.1.1 0 .1 0 .1.1M88.4 38.6c0 .1-.1.1-.1.1-.1 0-.1-.1-.1-.1 0-.1.1-.1.1-.1s.1 0 .1.1M88.7 38.6c0 .1-.1.1-.1.1-.1 0-.1-.1-.1-.1 0-.1.1-.1.1-.1s.1 0 .1.1M89 38.6c0 .1-.1.1-.1.1-.1 0-.1-.1-.1-.1 0-.1.1-.1.1-.1.1 0 .1 0 .1.1M88 39.9c0 .1 0 .1-.1.1s-.1-.1-.1-.1c0-.1.1-.1.1-.1.1 0 .1.1.1.1M88.4 39.9c0 .1-.1.1-.1.1-.1 0-.1-.1-.1-.1 0-.1.1-.1.1-.1l.1.1M88.7 39.9c0 .1-.1.1-.1.1-.1 0-.1-.1-.1-.1 0-.1.1-.1.1-.1l.1.1M89 39.9c0 .1 0 .1-.1.1s-.1-.1-.1-.1c0-.1.1-.1.1-.1.1 0 .1.1.1.1"/><path class="st19" d="M100.6 29.5c-.4 0-.8.3-.8.8h-3.1c-.1 0-.2.1-.2.2v2.9c.6 0 1.1.5 1.1 1.1 0 .6-.5 1.1-1.1 1.1v2.9c0 .1.1.2.2.2h3.1c0 .4.4.8.8.8s.8-.4.8-.8h3.1c.1 0 .2-.1.2-.2v-2.9c-.6 0-1.1-.5-1.1-1.1 0-.6.5-1.1 1.1-1.1v-2.9c0-.1-.1-.2-.2-.2h-3.1c0-.4-.3-.8-.8-.8"/><path class="st20" d="M100.6 38.2c.2 0 .4.2.4.4s-.2.4-.4.4-.4-.2-.4-.4.2-.4.4-.4M100.6 29.9c.2 0 .4.2.4.4s-.2.4-.4.4-.4-.2-.4-.4.2-.4.4-.4M97.4 31.7h2.9v5.5h-2.9z"/><path class="st26" d="M97.7 32.1h2.2v4.8h-2.2z"/><ellipse class="st29" cx="102.3" cy="32.6" rx="1.6" ry="1.6"/><path class="st30" d="M102.3 34c-.8 0-1.4-.6-1.4-1.4 0-.8.6-1.4 1.4-1.4.8 0 1.4.6 1.4 1.4.1.8-.6 1.4-1.4 1.4"/><ellipse class="st31" cx="102.3" cy="32.6" rx="1.4" ry="1.4"/><path class="st30" d="M101.2 35.1h2.5v2.2h-2.5z"/><path class="st31" d="M101.2 35.1h2.5v2.2h-2.5z"/><path class="st19" d="M102.7 29h1.2v1.3h-1.2z"/><path class="st20" d="M102.9 29c0 .1-.1.1-.1.1-.1 0-.1-.1-.1-.1 0-.1.1-.1.1-.1s.1 0 .1.1M103.2 29c0 .1-.1.1-.1.1-.1 0-.1-.1-.1-.1 0-.1.1-.1.1-.1.1 0 .1 0 .1.1M103.6 29c0 .1-.1.1-.1.1-.1 0-.1-.1-.1-.1 0-.1.1-.1.1-.1s.1 0 .1.1M103.9 29c0 .1-.1.1-.1.1-.1 0-.1-.1-.1-.1 0-.1.1-.1.1-.1s.1 0 .1.1M102.9 30.3c0 .1-.1.1-.1.1-.1 0-.1-.1-.1-.1 0-.1.1-.1.1-.1s.1 0 .1.1M103.2 30.3c0 .1-.1.1-.1.1-.1 0-.1-.1-.1-.1 0-.1.1-.1.1-.1.1 0 .1 0 .1.1M103.6 30.3c0 .1-.1.1-.1.1-.1 0-.1-.1-.1-.1 0-.1.1-.1.1-.1s.1 0 .1.1M103.9 30.3c0 .1-.1.1-.1.1-.1 0-.1-.1-.1-.1 0-.1.1-.1.1-.1s.1 0 .1.1"/><path class="st19" d="M102.7 38.6h1.2v1.3h-1.2z"/><path class="st20" d="M102.9 38.6c0 .1-.1.1-.1.1-.1 0-.1-.1-.1-.1 0-.1.1-.1.1-.1l.1.1M103.2 38.6c0 .1-.1.1-.1.1-.1 0-.1-.1-.1-.1 0-.1.1-.1.1-.1.1 0 .1.1.1.1M103.6 38.6c0 .1-.1.1-.1.1-.1 0-.1-.1-.1-.1 0-.1.1-.1.1-.1l.1.1M103.9 38.6c0 .1-.1.1-.1.1-.1 0-.1-.1-.1-.1 0-.1.1-.1.1-.1l.1.1M102.9 39.9c0 .1-.1.1-.1.1-.1 0-.1-.1-.1-.1 0-.1.1-.1.1-.1l.1.1M103.2 39.9c0 .1-.1.1-.1.1-.1 0-.1-.1-.1-.1 0-.1.1-.1.1-.1.1 0 .1.1.1.1M103.6 39.9c0 .1-.1.1-.1.1-.1 0-.1-.1-.1-.1 0-.1.1-.1.1-.1l.1.1M103.9 39.9c0 .1-.1.1-.1.1-.1 0-.1-.1-.1-.1 0-.1.1-.1.1-.1l.1.1"/><path class="st19" d="M95.2 31.3h1.3v1.2h-1.3z"/><path class="st20" d="M96.5 31.5c-.1 0-.1-.1-.1-.1 0-.1.1-.1.1-.1.1 0 .1.1.1.1l-.1.1M96.5 31.8c-.1 0-.1-.1-.1-.1 0-.1.1-.1.1-.1.1 0 .1.1.1.1 0 .1-.1.1-.1.1M96.5 32.2c-.1 0-.1-.1-.1-.1 0-.1.1-.1.1-.1.1 0 .1.1.1.1l-.1.1M96.5 32.5c-.1 0-.1-.1-.1-.1 0-.1.1-.1.1-.1.1 0 .1.1.1.1 0 .1-.1.1-.1.1M95.2 31.5c-.1 0-.1-.1-.1-.1 0-.1.1-.1.1-.1.1 0 .1.1.1.1l-.1.1M95.2 31.8c-.1 0-.1-.1-.1-.1 0-.1.1-.1.1-.1.1 0 .1.1.1.1 0 .1-.1.1-.1.1M95.2 32.2c-.1 0-.1-.1-.1-.1 0-.1.1-.1.1-.1.1 0 .1.1.1.1l-.1.1M95.2 32.5c-.1 0-.1-.1-.1-.1 0-.1.1-.1.1-.1.1 0 .1.1.1.1 0 .1-.1.1-.1.1"/><path class="st19" d="M95.2 36.4h1.3v1.2h-1.3z"/><path class="st20" d="M96.5 36.7c-.1 0-.1-.1-.1-.1 0-.1.1-.1.1-.1.1 0 .1.1.1.1l-.1.1M96.5 37c-.1 0-.1-.1-.1-.1l.1-.1c.1 0 .1.1.1.1l-.1.1M96.5 37.3c-.1 0-.1-.1-.1-.1 0-.1.1-.1.1-.1.1 0 .1.1.1.1 0 .1-.1.1-.1.1M96.5 37.7c-.1 0-.1-.1-.1-.1l.1-.1c.1 0 .1.1.1.1l-.1.1M95.2 36.7c-.1 0-.1-.1-.1-.1 0-.1.1-.1.1-.1.1 0 .1.1.1.1l-.1.1M95.2 37c-.1 0-.1-.1-.1-.1l.1-.1c.1 0 .1.1.1.1l-.1.1M95.2 37.3c-.1 0-.1-.1-.1-.1 0-.1.1-.1.1-.1.1 0 .1.1.1.1 0 .1-.1.1-.1.1M95.2 37.7c-.1 0-.1-.1-.1-.1l.1-.1c.1 0 .1.1.1.1l-.1.1"/><path class="st19" d="M42.9 56.8c-.4 0-.8.3-.8.8H39c-.1 0-.2.1-.2.2v2.9c.6 0 1.1.5 1.1 1.1 0 .6-.5 1.1-1.1 1.1v2.9c0 .1.1.2.2.2h3.1c0 .4.4.8.8.8s.8-.4.8-.8h3.1c.1 0 .2-.1.2-.2v-2.9c-.6 0-1.1-.5-1.1-1.1 0-.6.5-1.1 1.1-1.1v-2.9c0-.1-.1-.2-.2-.2h-3.1c0-.4-.4-.8-.8-.8"/><path class="st20" d="M42.9 65.6c.2 0 .4.2.4.4s-.2.4-.4.4-.4-.2-.4-.4.2-.4.4-.4"/><circle class="st32" cx="42.9" cy="66" r=".4"/><path class="st20" d="M42.9 57.2c.2 0 .4.2.4.4s-.2.4-.4.4-.4-.2-.4-.4.2-.4.4-.4"/><circle class="st32" cx="42.9" cy="57.6" r=".4"/><path class="st20" d="M43.8 58.8h2.9v5.6h-2.9z"/><path class="st26" d="M44.1 59.2h2.2V64h-2.2z"/><path class="st33" d="M39.1 59.2h4V64h-4z"/><path class="st30" d="M41.1 60.4c.7 0 1.3.6 1.3 1.3s-.6 1.3-1.3 1.3c-.7 0-1.3-.6-1.3-1.3s.6-1.3 1.3-1.3"/><circle cx="41.1" cy="61.7" r="1.3" clip-path="url(#SVGID_6_)" fill="none" stroke="#241c1d" stroke-width=".424" stroke-miterlimit="10"/><path class="st19" d="M52.4 56.8c-.4 0-.8.3-.8.8h-3.1c-.1 0-.2.1-.2.2v2.9c.6 0 1.1.5 1.1 1.1 0 .6-.5 1.1-1.1 1.1v2.9c0 .1.1.2.2.2h3.1c0 .4.4.8.8.8.5 0 .8-.4.8-.8h3.1c.1 0 .2-.1.2-.2v-2.9c-.6 0-1.1-.5-1.1-1.1 0-.6.5-1.1 1.1-1.1v-2.9c0-.1-.1-.2-.2-.2h-3.1c0-.4-.3-.8-.8-.8"/><path class="st20" d="M52.4 65.6c.2 0 .4.2.4.4s-.2.4-.4.4-.4-.2-.4-.4.2-.4.4-.4"/><ellipse class="st35" cx="52.4" cy="66" rx=".4" ry=".4"/><path class="st20" d="M52.4 57.2c.2 0 .4.2.4.4s-.2.4-.4.4-.4-.2-.4-.4.2-.4.4-.4"/><ellipse class="st36" cx="52.4" cy="57.6" rx=".4" ry=".4"/><path class="st20" d="M53.3 58.8h2.8v5.6h-2.8z"/><path class="st26" d="M53.6 59.2h2.2V64h-2.2z"/><path class="st28" d="M48.9 59.8h3.9v3.9h-3.9z"/><path class="st30" d="M50.8 60.5c.7 0 1.2.6 1.2 1.3 0 .7-.6 1.3-1.2 1.3s-1.2-.6-1.2-1.3c-.1-.7.5-1.3 1.2-1.3"/><ellipse cx="50.8" cy="61.8" rx="1.2" ry="1.3" clip-path="url(#SVGID_6_)" fill="none" stroke="#241c1d" stroke-width=".423" stroke-miterlimit="10"/><path class="st26" d="M50.8 61.1c.4 0 .7.3.7.7 0 .4-.3.7-.7.7-.4 0-.7-.3-.7-.7 0-.4.3-.7.7-.7"/><ellipse cx="50.8" cy="61.8" rx=".7" ry=".7" clip-path="url(#SVGID_6_)" fill="none" stroke="#241c1d" stroke-width=".241" stroke-miterlimit="10"/><path class="st19" d="M54.6 56.3h1.2v1.3h-1.2z"/><path class="st20" d="M55.6 56.3c0 .1.1.1.1.1.1 0 .1-.1.1-.1 0-.1-.1-.1-.1-.1s-.1 0-.1.1M55.3 56.3c0 .1.1.1.1.1l.1-.1c0-.1-.1-.1-.1-.1s-.1 0-.1.1M55 56.3c0 .1.1.1.1.1.1 0 .1-.1.1-.1 0-.1-.1-.1-.1-.1-.1 0-.1 0-.1.1M54.6 56.3c0 .1.1.1.1.1l.1-.1c0-.1-.1-.1-.1-.1s-.1 0-.1.1M55.6 57.6c0 .1.1.1.1.1.1 0 .1-.1.1-.1 0-.1-.1-.1-.1-.1s-.1 0-.1.1M55.3 57.6c0 .1.1.1.1.1l.1-.1c0-.1-.1-.1-.1-.1s-.1 0-.1.1M55 57.6c0 .1.1.1.1.1.1 0 .1-.1.1-.1 0-.1-.1-.1-.1-.1-.1 0-.1 0-.1.1M54.6 57.6c0 .1.1.1.1.1l.1-.1c0-.1-.1-.1-.1-.1s-.1 0-.1.1"/><path class="st19" d="M54.6 65.9h1.2v1.3h-1.2z"/><path class="st20" d="M55.6 65.9c0 .1.1.1.1.1.1 0 .1-.1.1-.1l-.1-.1-.1.1M55.3 65.9c0 .1.1.1.1.1l.1-.1-.1-.1-.1.1M55 65.9c0 .1 0 .1.1.1s.1-.1.1-.1l-.1-.1c-.1 0-.1.1-.1.1M54.6 65.9c0 .1.1.1.1.1l.1-.1-.1-.1-.1.1M55.6 67.2c0 .1.1.1.1.1.1 0 .1-.1.1-.1l-.1-.1-.1.1M55.3 67.2c0 .1.1.1.1.1l.1-.1-.1-.1-.1.1M55 67.2c0 .1.1.1.1.1.1 0 .1-.1.1-.1l-.1-.1c-.1 0-.1.1-.1.1M54.6 67.2c0 .1.1.1.1.1l.1-.1-.1-.1-.1.1"/><path class="st19" d="M39.5 56.3h1.2v1.3h-1.2z"/><path class="st20" d="M40.5 56.3c0 .1.1.1.1.1.1 0 .1-.1.1-.1 0-.1-.1-.1-.1-.1s-.1 0-.1.1M40.2 56.3c0 .1.1.1.1.1l.1-.1c0-.1-.1-.1-.1-.1s-.1 0-.1.1M39.9 56.3c0 .1.1.1.1.1.1 0 .1-.1.1-.1 0-.1-.1-.1-.1-.1-.1 0-.1 0-.1.1M39.5 56.3c0 .1.1.1.1.1.1 0 .1-.1.1-.1 0-.1-.1-.1-.1-.1s-.1 0-.1.1M40.5 57.6c0 .1.1.1.1.1.1 0 .1-.1.1-.1 0-.1-.1-.1-.1-.1s-.1 0-.1.1M40.2 57.6c0 .1.1.1.1.1l.1-.1c0-.1-.1-.1-.1-.1s-.1 0-.1.1M39.9 57.6c0 .1.1.1.1.1.1 0 .1-.1.1-.1 0-.1-.1-.1-.1-.1-.1 0-.1 0-.1.1M39.5 57.6c0 .1.1.1.1.1.1 0 .1-.1.1-.1 0-.1-.1-.1-.1-.1s-.1 0-.1.1"/><path class="st19" d="M39.5 65.9h1.2v1.3h-1.2z"/><path class="st20" d="M40.5 65.9c0 .1.1.1.1.1.1 0 .1-.1.1-.1l-.1-.1-.1.1M40.2 65.9c0 .1.1.1.1.1l.1-.1-.1-.1-.1.1M39.9 65.9c0 .1.1.1.1.1.1 0 .1-.1.1-.1l-.1-.1c-.1 0-.1.1-.1.1M39.5 65.9c0 .1.1.1.1.1.1 0 .1-.1.1-.1l-.1-.1-.1.1M40.5 67.2c0 .1.1.1.1.1.1 0 .1-.1.1-.1l-.1-.1-.1.1M40.2 67.2c0 .1.1.1.1.1l.1-.1-.1-.1-.1.1M39.9 67.2c0 .1.1.1.1.1.1 0 .1-.1.1-.1l-.1-.1c-.1 0-.1.1-.1.1M39.5 67.2c0 .1.1.1.1.1.1 0 .1-.1.1-.1l-.1-.1-.1.1"/><path class="st19" d="M47 58.6h1.3v1.2H47z"/><path class="st20" d="M47 58.8c.1 0 .1-.1.1-.1l-.1-.1-.1.1.1.1M47 59.1c.1 0 .1-.1.1-.1l-.1-.1-.1.1.1.1M47 59.5c.1 0 .1-.1.1-.1 0-.1-.1-.1-.1-.1l-.1.1.1.1M47 59.8c.1 0 .1-.1.1-.1 0-.1-.1-.1-.1-.1l-.1.1c0 .1.1.1.1.1M48.3 58.8c.1 0 .1-.1.1-.1l-.1-.1c-.1 0-.1.1-.1.1l.1.1M48.3 59.1c.1 0 .1-.1.1-.1l-.1-.1c-.1 0-.1.1-.1.1l.1.1M48.3 59.5c.1 0 .1-.1.1-.1 0-.1-.1-.1-.1-.1-.1 0-.1.1-.1.1l.1.1M48.3 59.8c.1 0 .1-.1.1-.1 0-.1-.1-.1-.1-.1-.1 0-.1.1-.1.1 0 .1.1.1.1.1"/><path class="st19" d="M47 63.7h1.3v1.2H47z"/><path class="st20" d="M47 64c.1 0 .1-.1.1-.1 0-.1-.1-.1-.1-.1l-.1.1.1.1M47 64.3c.1 0 .1-.1.1-.1 0-.1-.1-.1-.1-.1l-.1.1c0 .1.1.1.1.1M47 64.6c.1 0 .1-.1.1-.1l-.1-.1-.1.1.1.1M47 65c.1 0 .1-.1.1-.1l-.1-.1-.1.1.1.1M48.3 64c.1 0 .1-.1.1-.1 0-.1-.1-.1-.1-.1-.1 0-.1.1-.1.1l.1.1M48.3 64.3c.1 0 .1-.1.1-.1 0-.1-.1-.1-.1-.1-.1 0-.1.1-.1.1 0 .1.1.1.1.1M48.3 64.6c.1 0 .1-.1.1-.1l-.1-.1c-.1 0-.1.1-.1.1l.1.1M48.3 65c.1 0 .1-.1.1-.1l-.1-.1c-.1 0-.1.1-.1.1l.1.1"/><path class="st39" d="M39.9 23.2v.8M40.3 23.2v.4M40.7 23.2v.4M41.1 23.2v.4M41.5 23.2v.4M42 23.2v.8M42.4 23.2v.4M42.8 23.2v.4M43.2 23.2v.4M43.6 23.2v.4M44 23.2v.8M44.4 23.2v.4M44.9 23.2v.4M45.3 23.2v.4M45.7 23.2v.4M46.1 23.2v.8M46.5 23.2v.4M46.9 23.2v.4M47.3 23.2v.4M47.8 23.2v.4M48.2 23.2v.8M48.6 23.2v.4M49 23.2v.4M49.4 23.2v.4M49.8 23.2v.4M50.2 23.2v.8M50.7 23.2v.4M51.1 23.2v.4M51.5 23.2v.4M51.9 23.2v.4M52.3 23.2v.8M52.7 23.2v.4M53.1 23.2v.4M53.6 23.2v.4M54 23.2v.4M54.4 23.2v.8M54.8 23.2v.4M55.2 23.2v.4M55.6 23.2v.4M56 23.2v.4M56.5 23.2v.8M56.9 23.2v.4M57.3 23.2v.4M57.7 23.2v.4M58.1 23.2v.4M58.5 23.2v.8M58.9 23.2v.4M59.4 23.2v.4M59.8 23.2v.4M60.2 23.2v.4M60.6 23.2v.8M61 23.2v.4M61.4 23.2v.4M61.8 23.2v.4M62.3 23.2v.4M62.7 23.2v.8M63.1 23.2v.4M63.5 23.2v.4M63.9 23.2v.4M64.3 23.2v.4M64.7 23.2v.8M65.2 23.2v.4M65.6 23.2v.4M66 23.2v.4M66.4 23.2v.4M66.8 23.2v.8M67.2 23.2v.4M67.6 23.2v.4M68.1 23.2v.4M68.5 23.2v.4M68.9 23.2v.8M69.3 23.2v.4M69.7 23.2v.4M70.1 23.2v.4M70.5 23.2v.4M71 23.2v.8M71.4 23.2v.4M71.8 23.2v.4M72.2 23.2v.4M72.6 23.2v.4M73 23.2v.8M73.4 23.2v.4M73.9 23.2v.4M74.3 23.2v.4M74.7 23.2v.4M75.1 23.2v.8M75.5 23.2v.4M75.9 23.2v.4M76.3 23.2v.4M76.8 23.2v.4M77.2 23.2v.8M77.6 23.2v.4M78 23.2v.4M78.4 23.2v.4M78.8 23.2v.4M79.2 23.2v.8M79.7 23.2v.4M80.1 23.2v.4M80.5 23.2v.4M80.9 23.2v.4M81.3 23.2v.8M81.7 23.2v.4M82.1 23.2v.4M82.6 23.2v.4M83 23.2v.4M83.4 23.2v.8M83.8 23.2v.4M84.2 23.2v.4M84.6 23.2v.4M85 23.2v.4M85.5 23.2v.8M85.9 23.2v.4M86.3 23.2v.4M86.7 23.2v.4M87.1 23.2v.4M87.5 23.2v.8M87.9 23.2v.4M88.4 23.2v.4M88.8 23.2v.4M89.2 23.2v.4M89.6 23.2v.8M90 23.2v.4M90.4 23.2v.4M90.8 23.2v.4M91.3 23.2v.4M91.7 23.2v.8M92.1 23.2v.4M92.5 23.2v.4M92.9 23.2v.4M93.3 23.2v.4M93.7 23.2v.8M94.2 23.2v.4M94.6 23.2v.4M95 23.2v.4M95.4 23.2v.4M95.8 23.2v.8M96.2 23.2v.4M96.6 23.2v.4M97.1 23.2v.4M97.5 23.2v.4M97.9 23.2v.8M98.3 23.2v.4M98.7 23.2v.4M99.1 23.2v.4M99.5 23.2v.4M100 23.2v.8M100.4 23.2v.4M100.8 23.2v.4M101.2 23.2v.4M101.6 23.2v.4M102 23.2v.8"/><path class="st27" d="M40.3 24.9c0 .1-.1.2-.2.2h-.4c-.1 0-.2-.1-.2-.2s.1-.2.2-.2h.3c.2 0 .3.1.3.2m-.6-.1c-.1 0-.1 0-.1.1s.1.1.1.1h.3c.1 0 .1 0 .1-.1s-.1-.1-.1-.1h-.3zM44.4 24.9h-.6l.1.2h-.1l-.2-.2v-.1h.8zM48.6 25.1h-.1l-.4-.3H48c-.1 0-.1 0-.1.1s0 .1.1.1v.1c-.1 0-.2-.1-.2-.2s.1-.2.2-.2.1 0 .2.1l.3.3v-.3h.1v.3zM52.7 24.9c0 .1-.1.2-.2.2V25c.1 0 .1-.1.1-.1 0-.1 0-.1-.1-.1s-.1 0-.1.1h-.1c0-.1 0-.1-.1-.1s-.1.1-.1.1c0 .1 0 .1.1.1v.1c-.1 0-.2-.1-.2-.2s.1-.2.2-.2.1 0 .2.1c0-.1.1-.1.2-.1.1-.1.1.1.1.2M56.7 24.7h.2v.1h-.2v.3h-.1l-.5-.2v-.2l.5.3v-.2h-.1v-.1h.1v-.1h.1zM61.1 24.7s.1.1.1.2 0 .1-.1.2c0 0-.1.1-.2.1V25c.1 0 .1 0 .1-.1s0-.1.1-.2c-.1.1-.2 0-.2 0-.1 0-.2 0-.2.1s0 .1.1.1v.1h-.4v-.4h.1v.4h.2v-.1c0-.1 0-.1.1-.1.1-.1.1-.1.2-.1 0-.1 0 0 .1 0M65.2 24.9c0 .1-.1.2-.2.2s-.1 0-.2-.1l-.4-.2v-.1l.3.2v-.1c0-.1.1-.2.2-.2.2 0 .3.1.3.3m-.4 0c0 .1.1.1.1.1.1 0 .1 0 .1-.1s-.1-.1-.1-.1c-.1 0-.1 0-.1.1M69.3 24.9v.1l-.7-.2v.2h.1v.1h-.2v-.5h.1zM73.4 24.9c0 .1-.1.2-.2.2S73 25 73 25c0 .1-.1.1-.2.1s-.2-.1-.2-.2.1-.2.2-.2.1 0 .2.1c0-.1.1-.1.2-.1.2-.1.2 0 .2.2m-.7 0c0 .1.1.1.1.1.1 0 .1 0 .1-.1s-.1-.1-.1-.1-.1 0-.1.1m.4 0c0 .1.1.1.1.1.1 0 .1-.1.1-.1 0-.1-.1-.1-.1-.1-.1 0-.1 0-.1.1M77.2 24.7l.4.2v.1l-.3-.2v.1c0 .1-.1.2-.2.2s-.2-.1-.2-.2.1-.2.2-.2c0-.1 0 0 .1 0m-.3.2c0 .1.1.1.1.1.1 0 .1 0 .1-.1s-.1-.1-.1-.1c-.1 0-.1 0-.1.1M81.7 25.2H81l.2.2h-.1l-.2-.2v-.1h.8zM81.7 24.6c0 .1-.1.2-.2.2h-.4c-.1 0-.2-.1-.2-.2s.1-.2.2-.2h.4c.1 0 .2.1.2.2m-.5-.1c-.1 0-.1 0-.1.1s.1.1.1.1h.3c.1 0 .1 0 .1-.1s-.1-.1-.1-.1h-.3zM85.7 25.2h-.6l.1.2h-.1l-.1-.2v-.1h.7zM85.7 24.6h-.6l.1.2h-.1l-.1-.2v-.1h.7zM90 25.2h-.7l.2.2h-.1l-.2-.2v-.1h.8zM90 24.8h-.1l-.4-.3h-.1c-.1 0-.1 0-.1.1s0 .1.1.1v.1c-.1 0-.2-.1-.2-.2s.1-.2.2-.2.1 0 .2.1l.3.3v-.3h.1v.3zM94.2 25.2h-.7l.1.2h-.1l-.1-.2v-.1h.8zM94.2 24.6c0 .1-.1.2-.2.2v-.1c.1 0 .1-.1.1-.1 0-.1 0-.1-.1-.1s-.1 0-.1.1h-.1c0-.1 0-.1-.1-.1s-.1.1-.1.1c0 .1 0 .1.1.1v.1c-.1 0-.2-.1-.2-.2s.1-.2.2-.2.1 0 .2.1c0-.1.1-.1.2-.1 0 0 .1.1.1.2M98.3 25.2h-.7l.2.2h-.2l-.1-.2v-.1h.8zM98.2 24.4h.1v.1h-.1v.4h-.1l-.6-.3v-.2l.6.3v-.2h-.2v-.1h.2v-.1h.1zM102.4 25.2h-.6l.1.2h-.1l-.2-.2v-.1h.8zM102.4 24.4s.1.1.1.2 0 .1-.1.2c0 0-.1.1-.2.1v-.1c.1 0 .1 0 .1-.1s0-.2.1-.3c-.1.1-.2 0-.2 0-.1 0-.2 0-.2.1s0 .1.1.1v.1h-.4v-.4h.1v.3h.2v-.1c0-.1 0-.1.1-.1.1-.1.1-.1.2-.1-.1.1 0 .1.1.1"/><path class="st20" d="M40.7 25.3c.1 0 .1 0 .1.1h.2s.1 0 .1-.1c0 0-.1 0-.1.1h-.4c.2 0 .1 0 .1-.1 0 .1 0 .1 0 0"/><path class="st20" d="M41.2 24.9H41c-.1 0-.1 0-.1.1 0 0 0 .1.1.1h.2-.2c-.1 0-.1 0-.1.1 0 0 0 .1.1.1h.2-.3v-.1-.1-.1-.1H41.2zM41.2 24.3H41c-.1 0-.1 0-.1.1 0 0 0 .1.1.1h.2-.2c-.1 0-.1 0-.1.1 0 0 0 .1.1.1h.2-.3v-.1-.1-.1-.1H41.2zM40.7 24.2c.1 0 .1-.1.2-.1h.4c.1 0 .1 0 .1.1 0 0-.1 0-.1-.1h-.2c-.3.1-.3.1-.4.1"/><path class="st27" d="M101.6 68.7c0-.1 0-.1 0 0-.1-.1-.2-.1-.3-.1-.3 0-.6.2-.6.5 0 .2.1.4.3.6.2.1.5.1.7-.1l-.1-.1-.1-.1c-.1 0-.1.1-.2.1h-.1-.1c-.1 0-.2-.1-.2-.2H101.7v-.1c.1-.2.1-.4-.1-.5m-.6.3c0-.1 0-.1.1-.2s.2-.1.2-.1c.1 0 .2.1.2.2h-.5zM102.8 68.7c0-.1 0-.1 0 0-.1-.1-.2-.1-.3-.1-.3 0-.6.2-.6.5 0 .2.1.4.3.6.2.1.5.1.7-.1l-.1-.1-.1-.1c-.1 0-.1.1-.2.1h-.1-.1c-.1 0-.2-.1-.2-.2H102.9v-.1c.2-.2.1-.4-.1-.5m-.6.3c0-.1 0-.1.1-.2s.2-.1.2-.1c.1 0 .2.1.2.2h-.5zM100.4 68.7c0-.1 0-.1 0 0-.1-.1-.2-.1-.3-.1-.3 0-.6.2-.6.5 0 .2.1.4.3.6.2.1.5.1.7-.1l-.1-.1-.1-.1c-.1 0-.1.1-.2.1h-.1-.1c-.1 0-.2-.1-.2-.2H100.5v-.1c.1-.2 0-.4-.1-.5m-.6.3c0-.1 0-.1.1-.2s.2-.1.2-.1c.1 0 .2.1.2.2h-.5zM104 68.4v.3c-.1-.1-.2-.2-.4-.2-.3 0-.5.2-.5.6 0 .3.2.6.5.6.1 0 .3-.1.4-.2v.2h.2v-1.4l-.2.1zm-.3 1c-.2 0-.3-.1-.3-.3s.1-.3.3-.3.3.1.3.3-.1.3-.3.3M99 69.2c.1 0 .1 0 .1.1s0 .1-.1.1c-.1.1-.4 0-.5-.1l-.1.2c.2.1.3.2.5.2.3 0 .4-.1.4-.4 0-.4-.5-.3-.6-.4 0 0-.1 0-.1-.1s0-.1.1-.1.3 0 .4.1l.1-.2c-.2-.1-.3-.1-.4-.1-.2 0-.4.1-.4.4.1.3.5.3.6.3M96.6 70c-.3-.2-.6-.5-.7-.9-.1-.2-.1-.3-.1-.5-.1.1-.1.3-.1.4 0 .6.4 1 .9 1 0 .1 0 .1 0 0 .1.1.1 0 0 0"/><path class="st27" d="M96.2 69.1c0 .4.2.7.5.9-.1-.3-.2-.5-.2-.8 0-.3.1-.6.2-.9-.3.1-.5.4-.5.8M97.8 68.6c0 .2 0 .3-.1.5-.1.4-.4.7-.7.9h.1c.5-.1.8-.5.8-1 0-.1 0-.3-.1-.4"/><path class="st27" d="M97.4 69.1c0-.4-.2-.7-.5-.9.1.3.2.6.2.9 0 .3-.1.6-.2.8.3-.2.5-.5.5-.8M104.7 68.6h-.2.2zM104.7 68.8h-.1.2-.2.1zM104.5 69.2s0-.1 0 0v-.1.1h.1-.1zm.1 0c.1 0 .1 0 0 0 .1 0 .1-.1 0 0l.1-.1c-.2 0-.2 0-.1.1-.1-.1-.1 0 0 0-.1 0-.1 0 0 0-.1 0-.1 0 0 0M104.7 69.3zm-.2 0h.2-.2zM104.6 69.7c-.1 0-.1 0 0 0-.1 0-.1-.1-.1-.1v-.1-.1.2c.2 0 .2 0 .1.1.1 0 0 0 0 0m0-.1c.1 0 .1 0 0 0 .1 0 .1 0 0 0l.1-.1c-.2 0-.2 0-.1.1-.1 0-.1 0 0 0-.1 0-.1 0 0 0-.1 0-.1 0 0 0M104.5 68.3v.2s.1-.1 0-.2h.1s.1 0 .1.1c0 0 0 .1-.1.1v-.1.1s0 .1-.1.1v-.3c0 .1 0 0 0 0"/><path class="st19" d="M51.3 44.3h-6.2c0 .6-.5 1-1.1 1-.6 0-1.1-.5-1.1-1H40c-.1 0-.2.1-.2.2v2.9c-.5 0-.8.4-.8.8s.4.8.8.8v3c0 .1.1.2.2.2h2.9c0-.6.5-1 1.1-1 .6 0 1.1.5 1.1 1h6.2c0 .4.4.8.8.8.5 0 .8-.3.8-.8H56c.1 0 .2-.1.2-.2v-2.7c-.6 0-1.1-.5-1.1-1 0-.6.5-1 1.1-1v-2.7c0-.1-.1-.2-.2-.2h-3c0-.4-.4-.7-.8-.7-.5-.1-.9.2-.9.6"/><path class="st20" d="M52.1 51.9c.2 0 .4.2.4.4s-.2.4-.4.4-.4-.2-.4-.4.2-.4.4-.4"/><ellipse class="st22" cx="52.1" cy="52.3" rx=".4" ry=".4"/><path class="st20" d="M39.9 47.9c.2 0 .4.2.4.4s-.2.4-.4.4-.4-.2-.4-.4.2-.4.4-.4M52.1 44c.2 0 .4.2.4.4s-.2.4-.4.4-.4-.2-.4-.4.2-.4.4-.4"/><path class="st23" d="M50.1 49.8h.1M50.2 49.8v-.1M50.2 49.7l.1-.1M50.3 49.6h-.1M50.2 49.6v-.1M50.1 49.5H50M50 49.5l-.1.1M50.2 49.7v-.1M50.2 49.6v-.1M50 48.8h.1M50.1 48.8h.1M50.2 48.8v-.1M50.2 48.7l.1-.1M50.3 48.6l-.1-.1M50.2 48.5h-.1M50 48.5h-.1M49.9 48.5v.1M50.2 48.7v-.1M50.2 48.6v-.1M50.1 47.8h.1M50.2 47.8v-.1M50.2 47.7l.1-.1M50.3 47.6l-.1-.1M50.2 47.5h-.1M50.1 47.5H50M50.2 47.6l-.1-.1M50.1 47.5H50M49.9 46.7l.1.1M50.2 46.8v-.1M50.2 46.7l.1-.1M50.3 46.6l-.1-.1M50.2 46.5h-.1M50.1 46.5H50M50.1 46.8h.1M50.2 46.8v-.1M50.2 46.7v-.1M50.2 46.6l-.1-.1M48.7 50h.2M48.7 49.7h.2M50 49.6l.1-.1M49.4 49.7h.1M49.8 49.7h.1M50.2 49.7v-.2M50 49.9h.1M50 49.6h.1M49.9 49.6h.1M49.9 49.9h.1M50.1 49.6l.1-.1M49.9 49.7l.1-.1M49.8 49.9h.1M49.8 49.7h.1M50.1 49.9v-.1M50.2 49.5h-.1M49.7 49.9h.1M49.7 49.7h.1M49.7 49.7h.1M49.6 49.9h.1M49.6 49.7h.1M49.5 49.7h.2M49.4 49.9h.2M49.4 49.7h.2M49.2 50l.2-.1M49.2 49.7h.2M49.2 49.7h.2M49.1 50h.1M49.1 49.7h.1M48.9 49.7h.2M48.9 50h.2M48.9 49.7h.2M49.1 49.7h.1M48.7 49.7h.2M48.7 45.5h-7.1M41.6 51.1h7.1M41.6 45.5v5.6M50.2 49.5v.2M48.7 48.8h.2M48.7 48.6h.2M50 48.5h.1M49.4 48.6h.1M49.8 48.6h.1M50.2 48.7v-.2M50 48.5h.1M49.9 48.8h.1M50.1 48.5h.1M49.9 48.6l.1-.1M49.8 48.8h.1M49.8 48.6h.1M50.2 48.5h-.1M49.7 48.8h.1M49.7 48.6h.1M49.7 48.6h.1M49.6 48.8h.1M49.6 48.6h.1M49.5 48.6h.2M49.4 48.8h.2M49.4 48.6h.2M49.3 48.8h.1M49.3 48.6h.1M49.2 48.6h.2M49.1 48.8h.2M49.1 48.6h.2M48.9 48.6h.2M48.9 48.8h.2M48.9 48.6h.2M49.1 48.6h.1M48.7 48.6h.2M48.7 47.7h.2M48.7 47.5h.2M49.4 47.8h.2M49.8 47.8h.1M50.2 47.7v-.1M50 47.8h.1M50 47.5h.1M49.1 47.7l.2.1M49.9 47.8h.1M49.7 47.8h.1M48.7 47.7h.2M49.6 47.8h.1M49.8 47.8h.1M49.8 47.5h.1M49.9 47.8h.1M50.1 47.8h.1M50 47.8h.1M49.3 47.8h.1M49.7 47.8h.1M48.9 47.7h.2M49.7 47.5h.1M49.6 47.8h.1M49.6 47.5h.1M49.4 47.8h.2M49.4 47.5h.2M49.3 47.7l.1.1M49.3 47.5h.1M49.1 47.7h.2M49.1 47.5h.2M48.9 47.5h.2M48.9 47.7h.2M48.7 46.6h.2M48.7 46.4h.2M49.4 46.7h.1M50.1 46.8v-.2M50 46.7h.1M50 46.5h.1M49 46.7h.2M49.9 46.7h.1M49.6 46.7h.2M48.7 46.7h.1M49.9 46.4l.1.1M49.5 46.7h.1M49.8 46.7h.1M49.8 46.4h.1M49.8 46.7h.1M50.1 46.7v.1M49.2 46.7h.2M49.7 46.7h.1M48.8 46.7h.2M49.7 46.4h.1M49.5 46.7h.2M49.5 46.4h.2M49.4 46.7h.1M49.4 46.4h.1M49.2 46.7h.2M49.2 46.4h.2M49 46.7h.2M49 46.4h.2M48.9 46.4h.1M48.9 46.6l.1.1M48.7 46.7v-.1M48.7 46.6v.1M50.2 49.5h-.1M50.1 49.7h.1M50.2 49.5h-.1M50.1 48.5H50M50 47.8h.1M50.2 47.7v-.1M50 46.8h.1M50.1 46.8h.1M48.7 49.7v.3M48.7 50v-.3M49.9 49.7v-.1M48.7 48.6v.2M48.7 48.8v-.2M50 48.8h.1M49.9 48.6l.1-.1M48.7 47.5v.2M48.7 47.7v-.2M50.1 47.5l.1.1M49.9 47.5h.1M48.7 46.4v.2M48.7 46.6v-.2M50.1 46.5v.1M49.9 46.7h.1M48.7 48.6v.2M50.2 48.5h-.1M48.7 45.5v.9M48.7 47.5v.2M48.7 47.7v.9M48.7 48.8v.9M48.7 46.4v.2M48.7 46.6v.9M48.7 49.7v.3M48.7 50v1.1M50.1 46.8l-.1-.1"/><path class="st24" d="M41.6 45.5h7v5.6h-7z"/><path class="st25" d="M41.6 45.5h7v5.6h-7z"/><path class="st20" d="M53 45.5h2.8v5.3H53z"/><path class="st26" d="M53.4 45.8h2.2v4.6h-2.2z"/><path class="st30" d="M40.8 44.8h10v7.1h-10z"/><path class="st19" d="M47.1 52.2h1.7v1.3h-1.7z"/><path class="st20" d="M48.5 53.6c0-.1.1-.1.1-.1.1 0 .1.1.1.1 0 .1-.1.1-.1.1l-.1-.1M48.2 53.6c0-.1.1-.1.1-.1.1 0 .1.1.1.1 0 .1-.1.1-.1.1-.1 0-.1-.1-.1-.1M47.8 53.6c0-.1.1-.1.1-.1.1 0 .1.1.1.1 0 .1-.1.1-.1.1l-.1-.1M47.5 53.6c0-.1.1-.1.1-.1.1 0 .1.1.1.1 0 .1-.1.1-.1.1l-.1-.1M48.5 52.2c0-.1.1-.1.1-.1.1 0 .1.1.1.1 0 .1-.1.1-.1.1 0 .1-.1 0-.1-.1M48.2 52.2c0-.1.1-.1.1-.1.1 0 .1.1.1.1 0 .1-.1.1-.1.1-.1.1-.1 0-.1-.1M47.8 52.2c0-.1.1-.1.1-.1.1 0 .1.1.1.1 0 .1-.1.1-.1.1 0 .1-.1 0-.1-.1M47.5 52.2c0-.1.1-.1.1-.1.1 0 .1.1.1.1 0 .1-.1.1-.1.1 0 .1-.1 0-.1-.1M47.2 53.6c0-.1.1-.1.1-.1.1 0 .1.1.1.1 0 .1-.1.1-.1.1-.1 0-.1-.1-.1-.1M47.2 52.2c0-.1.1-.1.1-.1.1 0 .1.1.1.1 0 .1-.1.1-.1.1-.1.1-.1 0-.1-.1"/><path class="st19" d="M47.1 43h1.7v1.3h-1.7z"/><path class="st20" d="M48.5 44.3c0-.1.1-.1.1-.1.1 0 .1.1.1.1 0 .1-.1.1-.1.1s-.1 0-.1-.1M48.2 44.3c0-.1.1-.1.1-.1.1 0 .1.1.1.1 0 .1-.1.1-.1.1-.1 0-.1 0-.1-.1M47.8 44.3c0-.1.1-.1.1-.1.1 0 .1.1.1.1 0 .1-.1.1-.1.1s-.1 0-.1-.1M47.5 44.3c0-.1.1-.1.1-.1.1 0 .1.1.1.1 0 .1-.1.1-.1.1s-.1 0-.1-.1M48.5 43c0-.1.1-.1.1-.1.1 0 .1.1.1.1 0 .1-.1.1-.1.1s-.1 0-.1-.1M48.2 43c0-.1.1-.1.1-.1.1 0 .1.1.1.1 0 .1-.1.1-.1.1-.1 0-.1 0-.1-.1M47.8 43c0-.1.1-.1.1-.1.1 0 .1.1.1.1 0 .1-.1.1-.1.1s-.1 0-.1-.1M47.5 43c0-.1.1-.1.1-.1.1 0 .1.1.1.1 0 .1-.1.1-.1.1s-.1 0-.1-.1M47.2 44.3c0-.1.1-.1.1-.1.1 0 .1.1.1.1 0 .1-.1.1-.1.1-.1 0-.1 0-.1-.1M47.2 43c0-.1.1-.1.1-.1.1 0 .1.1.1.1 0 .1-.1.1-.1.1-.1 0-.1 0-.1-.1"/><path class="st19" d="M82.7 63V36.1c0-.1-.1-.1-.1-.1h-.8c-.1 0-.1 0-.1-.1l-1-1.9-.1-.1H67.1c-.1 0-.1 0-.1.1l-.8 1.9-.1.1h-5c-.1 0-.1.1-.1.1V63c0 .1.1.1.1.1h21.5l.1-.1"/><path class="st33" d="M65.5 61.5h2.9v2.1h-2.9z"/><path class="st40" d="M67.8 62.2h.2v.7h-.2zM66 62.2h.2v.7H66z"/><path class="st20" d="M75.9 37.7H80v2.4h-4.1z"/><path class="st26" d="M76.2 38h3.4v1.8h-3.4z"/><path class="st20" d="M70.2 37.7h4.1v2.4h-4.1z"/><path class="st26" d="M70.6 38H74v1.8h-3.4z"/><path class="st20" d="M64.6 37.7h4.1v2.4h-4.1z"/><path class="st26" d="M65 38h3.4v1.8H65z"/><path class="st20" d="M75.9 42.5H80v2.4h-4.1z"/><path class="st26" d="M76.2 42.8h3.4v1.8h-3.4z"/><path class="st20" d="M70.2 42.5h4.1v2.4h-4.1z"/><path class="st26" d="M70.6 42.8H74v1.8h-3.4z"/><path class="st20" d="M64.6 42.5h4.1v2.4h-4.1z"/><path class="st26" d="M65 42.8h3.4v1.8H65z"/><path class="st20" d="M75.9 47.2H80v2.4h-4.1z"/><path class="st26" d="M76.2 47.5h3.4v1.8h-3.4z"/><path class="st20" d="M70.2 47.2h4.1v2.4h-4.1z"/><path class="st26" d="M70.6 47.5H74v1.8h-3.4z"/><path class="st20" d="M64.6 47.2h4.1v2.4h-4.1z"/><path class="st26" d="M65 47.5h3.4v1.8H65z"/><path class="st20" d="M75.9 52H80v2.4h-4.1z"/><path class="st26" d="M76.2 52.3h3.4v1.8h-3.4z"/><path class="st20" d="M70.2 52h4.1v2.4h-4.1z"/><path class="st26" d="M70.6 52.2H74V54h-3.4z"/><path class="st20" d="M64.6 52h4.1v2.4h-4.1z"/><path class="st26" d="M65 52.2h3.4V54H65z"/><path class="st41" d="M80.8 36.4h1.3v6.5h-1.3zM80.8 43.8h1.3v8.3h-1.3zM61.5 36.8h1.3v8.3h-1.3zM61.5 45.7h1.3v9.7h-1.3z"/><path class="st20" d="M68.2 35.1c0 .2-.2.4-.4.4s-.4-.2-.4-.4.2-.4.4-.4.4.2.4.4M80.1 35.1c0 .2-.2.4-.4.4s-.4-.2-.4-.4.2-.4.4-.4.4.2.4.4M62.6 56.5c0 .2-.2.4-.4.4s-.4-.2-.4-.4.2-.4.4-.4.4.2.4.4"/><circle class="st32" cx="62.2" cy="56.5" r=".4"/><path class="st19" d="M60.9 37.8v1.7H60v-1.7z"/><path class="st20" d="M60 39.3c.1 0 .1.1.1.1 0 .1-.1.1-.1.1-.1 0-.1-.1-.1-.1 0-.1 0-.1.1-.1M60 38.9c.1 0 .1.1.1.1 0 .1-.1.1-.1.1-.1 0-.1-.1-.1-.1s0-.1.1-.1M60 38.6c.1 0 .1.1.1.1 0 .1-.1.1-.1.1-.1 0-.1-.1-.1-.1 0-.1 0-.1.1-.1M60 38.2c.1 0 .1.1.1.1 0 .1-.1.1-.1.1-.1 0-.1-.1-.1-.1s0-.1.1-.1M60.9 39.3c.1 0 .1.1.1.1l-.1.1c-.1 0-.1-.1-.1-.1s0-.1.1-.1M60.9 38.9c.1 0 .1.1.1.1 0 .1-.1.1-.1.1-.1 0-.1-.1-.1-.1s0-.1.1-.1M60.9 38.6c.1 0 .1.1.1.1l-.1.1c-.1 0-.1-.1-.1-.1s0-.1.1-.1M60.9 38.2c.1 0 .1.1.1.1 0 .1-.1.1-.1.1-.1 0-.1-.1-.1-.1s0-.1.1-.1M60 37.9c.1 0 .1.1.1.1l-.1.1c-.1 0-.1-.1-.1-.1s0-.1.1-.1M60.9 37.9c.1 0 .1.1.1.1 0 .1-.1.1-.1.1-.1 0-.1-.1-.1-.1s0-.1.1-.1"/><path class="st19" d="M83.6 37.8v1.7h-.9v-1.7z"/><path class="st20" d="M82.6 39.3c.1 0 .1.1.1.1 0 .1-.1.1-.1.1-.1 0-.1-.1-.1-.1 0-.1.1-.1.1-.1M82.6 38.9c.1 0 .1.1.1.1 0 .1-.1.1-.1.1-.1 0-.1-.1-.1-.1l.1-.1M82.6 38.6c.1 0 .1.1.1.1 0 .1-.1.1-.1.1-.1 0-.1-.1-.1-.1 0-.1.1-.1.1-.1M82.6 38.2c.1 0 .1.1.1.1 0 .1-.1.1-.1.1-.1 0-.1-.1-.1-.1l.1-.1M83.6 39.3c.1 0 .1.1.1.1l-.1.1c-.1 0-.1-.1-.1-.1s0-.1.1-.1M83.6 38.9c.1 0 .1.1.1.1 0 .1-.1.1-.1.1-.1 0-.1-.1-.1-.1s0-.1.1-.1M83.6 38.6c.1 0 .1.1.1.1l-.1.1c-.1 0-.1-.1-.1-.1s0-.1.1-.1M83.6 38.2c.1 0 .1.1.1.1 0 .1-.1.1-.1.1-.1 0-.1-.1-.1-.1s0-.1.1-.1M82.6 37.9c.1 0 .1.1.1.1l-.1.1c-.1 0-.1-.1-.1-.1l.1-.1M83.6 37.9c.1 0 .1.1.1.1 0 .1-.1.1-.1.1-.1 0-.1-.1-.1-.1s0-.1.1-.1"/><path class="st19" d="M60.9 59.6v1.7H60v-1.7z"/><path class="st20" d="M60 61c.1 0 .1.1.1.1l-.1.2c-.1 0-.1-.1-.1-.1s0-.2.1-.2M60 60.7c.1 0 .1.1.1.1l-.1.1c-.1 0-.1-.1-.1-.1s0-.1.1-.1M60 60.3c.1 0 .1.1.1.1 0 .1-.1.1-.1.1-.1 0-.1-.1-.1-.1s0-.1.1-.1M60 60c.1 0 .1.1.1.1 0 .1-.1.1-.1.1-.1 0-.1-.1-.1-.1s0-.1.1-.1M60.9 61c.1 0 .1.1.1.1l-.1.1c-.1 0-.1-.1-.1-.1s0-.1.1-.1M60.9 60.7c.1 0 .1.1.1.1 0 .1-.1.1-.1.1-.1 0-.1-.1-.1-.1 0-.1 0-.1.1-.1M60.9 60.3c.1 0 .1.1.1.1l-.1.1c-.1 0-.1-.1-.1-.1s0-.1.1-.1M60.9 60c.1 0 .1.1.1.1 0 .1-.1.1-.1.1-.1 0-.1-.1-.1-.1s0-.1.1-.1M60 59.7c.1 0 .1.1.1.1 0 .1-.1.1-.1.1-.1 0-.1-.1-.1-.1 0-.1 0-.1.1-.1M60.9 59.7c.1 0 .1.1.1.1 0 .1-.1.1-.1.1-.1 0-.1-.1-.1-.1 0-.1 0-.1.1-.1"/><path class="st19" d="M83.6 59.6v1.7h-.9v-1.7z"/><path class="st20" d="M82.6 61c.1 0 .1.1.1.1l-.1.1c-.1 0-.1-.1-.1-.1l.1-.1M82.6 60.7c.1 0 .1.1.1.1l-.1.1c-.1 0-.1-.1-.1-.1l.1-.1M82.6 60.3c.1 0 .1.1.1.1 0 .1-.1.1-.1.1-.1 0-.1-.1-.1-.1l.1-.1M82.6 60c.1 0 .1.1.1.1 0 .1-.1.1-.1.1-.1 0-.1-.1-.1-.1l.1-.1M83.6 61c.1 0 .1.1.1.1l-.1.1c-.1 0-.1-.1-.1-.1s0-.1.1-.1M83.6 60.7c.1 0 .1.1.1.1 0 .1-.1.1-.1.1-.1 0-.1-.1-.1-.1 0-.1 0-.1.1-.1M83.6 60.3c.1 0 .1.1.1.1l-.1.1c-.1 0-.1-.1-.1-.1s0-.1.1-.1M83.6 60c.1 0 .1.1.1.1 0 .1-.1.1-.1.1-.1 0-.1-.1-.1-.1s0-.1.1-.1M82.6 59.7c.1 0 .1.1.1.1 0 .1-.1.1-.1.1-.1 0-.1-.1-.1-.1 0-.1.1-.1.1-.1M83.6 59.7c.1 0 .1.1.1.1 0 .1-.1.1-.1.1-.1 0-.1-.1-.1-.1 0-.1 0-.1.1-.1"/><path class="st19" d="M91.1 56.8c-.4 0-.8.3-.8.8h-3.1c-.1 0-.2.1-.2.2v2.9c.6 0 1.1.5 1.1 1.1 0 .6-.5 1.1-1.1 1.1v2.9c0 .1.1.2.2.2h3.1c0 .4.4.8.8.8s.8-.4.8-.8H95c.1 0 .2-.1.2-.2v-2.9c-.6 0-1.1-.5-1.1-1.1 0-.6.5-1.1 1.1-1.1v-2.9c0-.1-.1-.2-.2-.2h-3.1c0-.4-.4-.8-.8-.8"/><path class="st20" d="M91.1 65.6c.2 0 .4.2.4.4s-.2.4-.4.4-.4-.2-.4-.4.1-.4.4-.4"/><ellipse class="st35" cx="91.1" cy="66" rx=".4" ry=".4"/><path class="st20" d="M91.1 57.2c.2 0 .4.2.4.4s-.2.4-.4.4-.4-.2-.4-.4.1-.4.4-.4"/><ellipse class="st36" cx="91.1" cy="57.6" rx=".4" ry=".4"/><path class="st20" d="M87.9 59.1h2.8v5.6h-2.8z"/><path class="st26" d="M88.3 59.5h2.2v4.8h-2.2z"/><path class="st42" d="M91.6 60.7h1.6v2h-1.6z"/><path clip-path="url(#SVGID_6_)" fill="none" stroke="#241c1d" stroke-width=".901" stroke-linecap="round" stroke-linejoin="round" stroke-miterlimit="10" d="M91.6 60.7h1.6v2h-1.6z"/><path class="st19" d="M100.6 56.8c-.4 0-.8.3-.8.8h-3.1c-.1 0-.2.1-.2.2v2.9c.6 0 1.1.5 1.1 1.1 0 .6-.5 1.1-1.1 1.1v2.9c0 .1.1.2.2.2h3.1c0 .4.4.8.8.8.5 0 .8-.4.8-.8h3.1c.1 0 .2-.1.2-.2v-2.9c-.6 0-1.1-.5-1.1-1.1 0-.6.5-1.1 1.1-1.1v-2.9c0-.1-.1-.2-.2-.2h-3.1c0-.4-.4-.8-.8-.8"/><path class="st20" d="M100.6 65.6c.2 0 .4.2.4.4s-.2.4-.4.4-.4-.2-.4-.4.2-.4.4-.4"/><circle class="st31" cx="100.6" cy="66" r=".4"/><path class="st20" d="M100.6 57.2c.2 0 .4.2.4.4s-.2.4-.4.4-.4-.2-.4-.4.2-.4.4-.4"/><circle class="st31" cx="100.6" cy="57.6" r=".4"/><path class="st20" d="M97.4 58.9h2.8v5.6h-2.8z"/><path class="st26" d="M97.7 59.2h2.2V64h-2.2z"/><path class="st42" d="M101.5 60.5h2.1v2h-2.1z"/><path clip-path="url(#SVGID_6_)" fill="none" stroke="#241c1d" stroke-width=".806" stroke-linecap="round" stroke-linejoin="round" stroke-miterlimit="10" d="M101.5 60.5h2.1v2h-2.1z"/><path class="st19" d="M87.8 56.3H89v1.3h-1.2z"/><path class="st20" d="M88 56.3c0 .1-.1.1-.1.1-.1 0-.1-.1-.1-.1 0-.1.1-.1.1-.1.1 0 .1 0 .1.1M88.4 56.3c0 .1-.1.1-.1.1-.1 0-.1-.1-.1-.1 0-.1.1-.1.1-.1s.1 0 .1.1M88.7 56.3c0 .1-.1.1-.1.1-.1 0-.1-.1-.1-.1 0-.1.1-.1.1-.1s.1 0 .1.1M89 56.3c0 .1-.1.1-.1.1-.1 0-.1-.1-.1-.1 0-.1.1-.1.1-.1.1 0 .1 0 .1.1M88 57.6c0 .1-.1.1-.1.1-.1 0-.1-.1-.1-.1l.1-.1c.1 0 .1 0 .1.1M88.4 57.6c0 .1-.1.1-.1.1-.1 0-.1-.1-.1-.1l.1-.1s.1 0 .1.1M88.7 57.6c0 .1-.1.1-.1.1-.1 0-.1-.1-.1-.1l.1-.1s.1 0 .1.1M89 57.6c0 .1-.1.1-.1.1-.1 0-.1-.1-.1-.1l.1-.1c.1 0 .1 0 .1.1"/><path class="st19" d="M95.2 58.6h1.3v1.2h-1.3z"/><path class="st20" d="M96.5 58.8c-.1 0-.1-.1-.1-.1 0-.1.1-.1.1-.1.1 0 .1.1.1.1 0 .1-.1.1-.1.1M96.5 59.2c-.1 0-.1-.1-.1-.1 0-.1.1-.1.1-.1.1 0 .1.1.1.1l-.1.1M96.5 59.5c-.1 0-.1-.1-.1-.1 0-.1.1-.1.1-.1.1 0 .1.1.1.1 0 .1-.1.1-.1.1M96.5 59.8c-.1 0-.1-.1-.1-.1 0-.1.1-.1.1-.1.1 0 .1.1.1.1 0 .1-.1.1-.1.1M95.2 58.8c-.1 0-.1-.1-.1-.1 0-.1.1-.1.1-.1.1 0 .1.1.1.1 0 .1-.1.1-.1.1M95.2 59.2c-.1 0-.1-.1-.1-.1 0-.1.1-.1.1-.1.1 0 .1.1.1.1l-.1.1M95.2 59.5c-.1 0-.1-.1-.1-.1 0-.1.1-.1.1-.1.1 0 .1.1.1.1 0 .1-.1.1-.1.1M95.2 59.8c-.1 0-.1-.1-.1-.1 0-.1.1-.1.1-.1.1 0 .1.1.1.1 0 .1-.1.1-.1.1"/><path class="st19" d="M95.2 63.8h1.3V65h-1.3z"/><path class="st20" d="M96.5 64c-.1 0-.1-.1-.1-.1 0-.1.1-.1.1-.1.1 0 .1.1.1.1l-.1.1M96.5 64.3c-.1 0-.1-.1-.1-.1 0-.1.1-.1.1-.1.1 0 .1.1.1.1 0 .1-.1.1-.1.1M96.5 64.7c-.1 0-.1-.1-.1-.1 0-.1.1-.1.1-.1.1 0 .1.1.1.1l-.1.1M96.5 65c-.1 0-.1-.1-.1-.1 0-.1.1-.1.1-.1.1 0 .1.1.1.1 0 .1-.1.1-.1.1M95.2 64c-.1 0-.1-.1-.1-.1 0-.1.1-.1.1-.1.1 0 .1.1.1.1l-.1.1M95.2 64.3c-.1 0-.1-.1-.1-.1 0-.1.1-.1.1-.1.1 0 .1.1.1.1 0 .1-.1.1-.1.1M95.2 64.7c-.1 0-.1-.1-.1-.1 0-.1.1-.1.1-.1.1 0 .1.1.1.1l-.1.1M95.2 65c-.1 0-.1-.1-.1-.1 0-.1.1-.1.1-.1.1 0 .1.1.1.1 0 .1-.1.1-.1.1"/><path class="st19" d="M87.8 65.9H89v1.3h-1.2z"/><path class="st20" d="M88 65.9c0 .1 0 .1-.1.1s-.1-.1-.1-.1c0-.1.1-.1.1-.1.1 0 .1.1.1.1M88.4 65.9c0 .1-.1.1-.1.1-.1 0-.1-.1-.1-.1 0-.1.1-.1.1-.1l.1.1M88.7 65.9c0 .1-.1.1-.1.1-.1 0-.1-.1-.1-.1 0-.1.1-.1.1-.1l.1.1M89 65.9c0 .1 0 .1-.1.1s-.1-.1-.1-.1c0-.1.1-.1.1-.1.1 0 .1.1.1.1M88 67.2c0 .1-.1.1-.1.1-.1 0-.1-.1-.1-.1 0-.1.1-.1.1-.1.1 0 .1.1.1.1M88.4 67.2c0 .1-.1.1-.1.1-.1 0-.1-.1-.1-.1 0-.1.1-.1.1-.1l.1.1M88.7 67.2c0 .1-.1.1-.1.1-.1 0-.1-.1-.1-.1 0-.1.1-.1.1-.1l.1.1M89 67.2c0 .1-.1.1-.1.1-.1 0-.1-.1-.1-.1 0-.1.1-.1.1-.1.1 0 .1.1.1.1"/><path class="st19" d="M102.7 56.3h1.2v1.3h-1.2z"/><path class="st20" d="M102.9 56.3c0 .1-.1.1-.1.1-.1 0-.1-.1-.1-.1 0-.1.1-.1.1-.1s.1 0 .1.1M103.2 56.3c0 .1-.1.1-.1.1-.1 0-.1-.1-.1-.1 0-.1.1-.1.1-.1.1 0 .1 0 .1.1M103.6 56.3c0 .1-.1.1-.1.1-.1 0-.1-.1-.1-.1 0-.1.1-.1.1-.1s.1 0 .1.1M103.9 56.3c0 .1-.1.1-.1.1-.1 0-.1-.1-.1-.1 0-.1.1-.1.1-.1s.1 0 .1.1M102.9 57.6c0 .1-.1.1-.1.1-.1 0-.1-.1-.1-.1l.1-.1.1.1M103.2 57.6c0 .1-.1.1-.1.1-.1 0-.1-.1-.1-.1l.1-.1c.1 0 .1.1.1.1M103.6 57.6c0 .1-.1.1-.1.1-.1 0-.1-.1-.1-.1l.1-.1.1.1M103.9 57.6c0 .1-.1.1-.1.1-.1 0-.1-.1-.1-.1l.1-.1.1.1"/><path class="st19" d="M102.7 65.9h1.2v1.3h-1.2z"/><path class="st20" d="M102.9 65.9c0 .1-.1.1-.1.1-.1 0-.1-.1-.1-.1 0-.1.1-.1.1-.1l.1.1M103.2 65.9c0 .1-.1.1-.1.1-.1 0-.1-.1-.1-.1 0-.1.1-.1.1-.1.1 0 .1.1.1.1M103.6 65.9c0 .1-.1.1-.1.1-.1 0-.1-.1-.1-.1 0-.1.1-.1.1-.1l.1.1M103.9 65.9c0 .1-.1.1-.1.1-.1 0-.1-.1-.1-.1 0-.1.1-.1.1-.1l.1.1M102.9 67.2c0 .1-.1.1-.1.1-.1 0-.1-.1-.1-.1 0-.1.1-.1.1-.1l.1.1M103.2 67.2c0 .1-.1.1-.1.1-.1 0-.1-.1-.1-.1 0-.1.1-.1.1-.1.1 0 .1.1.1.1M103.6 67.2c0 .1-.1.1-.1.1-.1 0-.1-.1-.1-.1 0-.1.1-.1.1-.1l.1.1M103.9 67.2c0 .1-.1.1-.1.1-.1 0-.1-.1-.1-.1 0-.1.1-.1.1-.1l.1.1"/><path class="st19" d="M52.4 29.5c.4 0 .8.3.8.8h3.1c.1 0 .2.1.2.2v2.9c-.6 0-1.1.5-1.1 1.1 0 .6.5 1.1 1.1 1.1v2.9c0 .1-.1.2-.2.2h-3.1c0 .4-.4.8-.8.8-.5 0-.8-.4-.8-.8h-3.1c-.1 0-.2-.1-.2-.2v-2.9c.6 0 1.1-.5 1.1-1.1 0-.6-.5-1.1-1.1-1.1v-2.9c0-.1.1-.2.2-.2h3.1c0-.5.3-.8.8-.8"/><path class="st20" d="M52.4 38.3c-.2 0-.4.2-.4.4s.2.4.4.4.4-.2.4-.4c0-.3-.2-.4-.4-.4M52.4 29.9c-.2 0-.4.2-.4.4s.2.4.4.4.4-.2.4-.4-.2-.4-.4-.4M53.1 31.5h2.8V37h-2.8z"/><path class="st26" d="M53.5 31.9h2.2v4.8h-2.2z"/><path class="st30" d="M51 36.4c1.2 0 2.2-1 2.2-2.2 0-1.2-1-2.2-2.2-2.2s-2.2 1-2.2 2.2c0 1.3 1 2.2 2.2 2.2"/><path class="st26" d="M51 34.6c.2 0 .3-.1.3-.3 0-.2-.1-.3-.3-.3-.2 0-.3.1-.3.3-.1.1.1.3.3.3"/><circle cx="51" cy="34.2" r=".3" clip-path="url(#SVGID_6_)" fill="none" stroke="#241c1d" stroke-width=".044" stroke-miterlimit="10"/><path class="st19" d="M42.9 29.5c-.4 0-.8.3-.8.8H39c-.1 0-.2.1-.2.2v2.9c.6 0 1.1.5 1.1 1.1 0 .6-.5 1.1-1.1 1.1v2.9c0 .1.1.2.2.2h3c0 .4.4.8.8.8.5 0 .8-.4.8-.8h3.1c.1 0 .2-.1.2-.2v-2.9c-.6 0-1.1-.5-1.1-1.1 0-.6.5-1.1 1.1-1.1v-2.9c0-.1-.1-.2-.2-.2h-3.1c.1-.4-.3-.8-.7-.8"/><path class="st20" d="M42.9 38.3c.2 0 .4.2.4.4s-.2.4-.4.4-.4-.2-.4-.4c-.1-.2.1-.4.4-.4M42.9 29.9c.2 0 .4.2.4.4s-.2.4-.4.4-.4-.2-.4-.4.1-.4.4-.4M43.8 31.5h2.8v5.6h-2.8z"/><path class="st26" d="M44.1 31.9h2.2v4.8h-2.2z"/><path d="M41.6 31.2c.6 0 1 .5 1 1 0 .6-.5 1-1 1-.6 0-1-.5-1-1-.1-.6.4-1 1-1" clip-path="url(#SVGID_6_)" fill="#e73928"/><path class="st28" d="M40.5 34.5h2.6v3.1h-2.6z"/><path class="st19" d="M39.5 38.6h1.2v1.3h-1.2z"/><path class="st20" d="M40.5 38.6c0 .1.1.1.1.1.1 0 .1-.1.1-.1l-.1-.1-.1.1M40.2 38.6c0 .1.1.1.1.1l.1-.1-.1-.1-.1.1M39.9 38.6c0 .1.1.1.1.1.1 0 .1-.1.1-.1l-.1-.1c-.1 0-.1.1-.1.1M39.5 38.6c0 .1.1.1.1.1.1 0 .1-.1.1-.1l-.1-.1-.1.1M40.5 39.9c0 .1.1.1.1.1.1 0 .1-.1.1-.1l-.1-.1-.1.1M40.2 39.9c0 .1.1.1.1.1l.1-.1-.1-.1-.1.1M39.9 39.9c0 .1.1.1.1.1.1 0 .1-.1.1-.1l-.1-.1c-.1 0-.1.1-.1.1M39.5 39.9c0 .1.1.1.1.1.1 0 .1-.1.1-.1l-.1-.1-.1.1"/><path class="st19" d="M39.5 29h1.2v1.3h-1.2z"/><path class="st20" d="M40.5 29c0 .1.1.1.1.1.1 0 .1-.1.1-.1 0-.1-.1-.1-.1-.1s-.1 0-.1.1M40.2 29c0 .1.1.1.1.1l.1-.1c0-.1-.1-.1-.1-.1s-.1 0-.1.1M39.9 29c0 .1.1.1.1.1.1 0 .1-.1.1-.1 0-.1-.1-.1-.1-.1-.1 0-.1 0-.1.1M39.5 29c0 .1.1.1.1.1.1 0 .1-.1.1-.1 0-.1-.1-.1-.1-.1s-.1 0-.1.1M40.5 30.3c0 .1.1.1.1.1.1 0 .1-.1.1-.1 0-.1-.1-.1-.1-.1s-.1 0-.1.1M40.2 30.3c0 .1.1.1.1.1l.1-.1c0-.1-.1-.1-.1-.1s-.1 0-.1.1M39.9 30.3c0 .1.1.1.1.1.1 0 .1-.1.1-.1 0-.1-.1-.1-.1-.1-.1 0-.1 0-.1.1M39.5 30.3c0 .1.1.1.1.1.1 0 .1-.1.1-.1 0-.1-.1-.1-.1-.1s-.1 0-.1.1"/><path class="st19" d="M47 31.3h1.3v1.2H47z"/><path class="st20" d="M47 31.5c.1 0 .1-.1.1-.1 0-.1-.1-.1-.1-.1-.1 0-.1.1-.1.1-.1.1 0 .1.1.1M47 31.9c.1 0 .1-.1.1-.1 0-.1-.1-.1-.1-.1-.1 0-.1.1-.1.1-.1 0 0 .1.1.1M47 32.2c.1 0 .1-.1.1-.1 0-.1-.1-.1-.1-.1-.1 0-.1.1-.1.1-.1 0 0 .1.1.1M47 32.5c.1 0 .1-.1.1-.1l-.1-.1c-.1 0-.1.1-.1.1s0 .1.1.1M48.3 31.5c.1 0 .1-.1.1-.1 0-.1-.1-.1-.1-.1-.1 0-.1.1-.1.1 0 .1 0 .1.1.1M48.3 31.9c.1 0 .1-.1.1-.1 0-.1-.1-.1-.1-.1-.1 0-.1.1-.1.1s0 .1.1.1M48.3 32.2c.1 0 .1-.1.1-.1 0-.1-.1-.1-.1-.1-.1 0-.1.1-.1.1s0 .1.1.1M48.3 32.5c.1 0 .1-.1.1-.1l-.1-.1c-.1 0-.1.1-.1.1s0 .1.1.1"/><path class="st19" d="M47 36.5h1.3v1.2H47z"/><path class="st20" d="M47 36.7c.1 0 .1-.1.1-.1l-.1-.1c-.1 0-.1.1-.1.1s0 .1.1.1M47 37c.1 0 .1-.1.1-.1 0-.1-.1-.1-.1-.1-.1 0-.1.1-.1.1-.1.1 0 .1.1.1M47 37.4c.1 0 .1-.1.1-.1l-.1-.2c-.1 0-.1.1-.1.1s0 .2.1.2M47 37.7c.1 0 .1-.1.1-.1 0-.1-.1-.1-.1-.1-.1 0-.1.1-.1.1-.1.1 0 .1.1.1M48.3 36.7c.1 0 .1-.1.1-.1l-.1-.1c-.1 0-.1.1-.1.1s0 .1.1.1M48.3 37c.1 0 .1-.1.1-.1 0-.1-.1-.1-.1-.1-.1 0-.1.1-.1.1 0 .1 0 .1.1.1M48.3 37.4c.1 0 .1-.1.1-.1l-.1-.1c-.1 0-.1.1-.1.1s0 .1.1.1M48.3 37.7c.1 0 .1-.1.1-.1 0-.1-.1-.1-.1-.1-.1 0-.1.1-.1.1 0 .1 0 .1.1.1"/><path class="st19" d="M54.6 29h1.2v1.3h-1.2z"/><path class="st20" d="M55.6 29c0 .1.1.1.1.1.1 0 .1-.1.1-.1 0-.1-.1-.1-.1-.1s-.1 0-.1.1M55.3 29c0 .1.1.1.1.1l.1-.1c0-.1-.1-.1-.1-.1s-.1 0-.1.1M55 29c0 .1.1.1.1.1.1 0 .1-.1.1-.1 0-.1-.1-.1-.1-.1-.1 0-.1 0-.1.1M54.6 29c0 .1.1.1.1.1l.1-.1c0-.1-.1-.1-.1-.1s-.1 0-.1.1M55.6 30.3c0 .1.1.1.1.1.1 0 .1-.1.1-.1 0-.1-.1-.1-.1-.1s-.1 0-.1.1M55.3 30.3c0 .1.1.1.1.1l.1-.1c0-.1-.1-.1-.1-.1s-.1 0-.1.1M55 30.3c0 .1.1.1.1.1.1 0 .1-.1.1-.1 0-.1-.1-.1-.1-.1-.1 0-.1 0-.1.1M54.6 30.3c0 .1.1.1.1.1l.1-.1c0-.1-.1-.1-.1-.1s-.1 0-.1.1"/><path class="st19" d="M54.6 38.6h1.2v1.3h-1.2z"/><path class="st20" d="M55.6 38.6c0 .1.1.1.1.1.1 0 .1-.1.1-.1 0-.1-.1-.1-.1-.1l-.1.1M55.3 38.6c0 .1.1.1.1.1l.1-.1c0-.1-.1-.1-.1-.1l-.1.1M55 38.6c0 .1.1.1.1.1.1 0 .1-.1.1-.1 0-.1-.1-.1-.1-.1-.1 0-.1.1-.1.1M54.6 38.6c0 .1.1.1.1.1l.1-.1c0-.1-.1-.1-.1-.1l-.1.1M55.6 39.9c0 .1.1.1.1.1.1 0 .1-.1.1-.1l-.1-.1-.1.1M55.3 39.9c0 .1.1.1.1.1l.1-.1-.1-.1-.1.1M55 39.9c0 .1 0 .1.1.1s.1-.1.1-.1l-.1-.1c-.1 0-.1.1-.1.1M54.6 39.9c0 .1.1.1.1.1l.1-.1-.1-.1-.1.1M67.4 31.1v.3h.5v.2h-.5v.5h-.2v-1.2h.8v.2zM68.6 32c-.1.1-.1.1-.2.1s-.2 0-.2-.1c-.1-.1-.1-.2-.1-.3 0-.1 0-.2.1-.3.1-.1.1-.1.2-.1s.2 0 .2.1c.1.1.1.2.1.3 0 .1 0 .2-.1.3m-.1-.6h-.1-.1s-.1.1-.1.2 0 .2.1.2h.2s.1-.1.1-.2c0 0-.1-.1-.1-.2M69.4 31.5l-.1-.1c-.1 0-.2.1-.2.2v.5h-.2v-.8h.2v.1c0-.1.1-.1.2-.1s.1 0 .2.1l-.1.1zM70.6 32.1l-.1-.2h-.4l-.1.2h-.2l.4-1.1h.1l.4 1.1h-.1zm-.2-.9l-.2.5h.3l-.1-.5zM71.4 31.5l-.1-.1c-.1 0-.2.1-.2.2v.5H71v-.8h.2v.1c0-.1.1-.1.2-.1s.1 0 .2.1l-.2.1zM72.1 32.1h-.2c-.1 0-.2 0-.2-.1-.1-.1-.1-.2-.1-.3 0-.1 0-.3.1-.3 0 0 .1-.1.2-.1s.2 0 .2.1V31h.2v1.1h-.2zm-.2-.7c-.1 0-.2.1-.2.3 0 .1 0 .3.2.3.1 0 .2-.1.2-.3 0-.2-.1-.3-.2-.3M72.9 32.1h-.2c-.1 0-.1 0-.2-.1s-.1-.1-.1-.2v-.5h.2v.5c0 .1.1.2.2.2s.2-.1.2-.2v-.5h.2v.8h-.3zM73.4 31.1c-.1 0-.1 0-.1-.1s0-.1.1-.1.1 0 .1.1 0 .1-.1.1m0 .2h.2v.8h-.2v-.8zM74.3 32.1v-.5c0-.1-.1-.2-.2-.2s-.2.1-.2.2v.5h-.2v-.8h.2v.1c.1-.1.1-.1.2-.1s.1 0 .2.1.1.1.1.2v.5h-.1zM75.2 32c-.1.1-.1.1-.2.1s-.2 0-.2-.1c-.1-.1-.1-.2-.1-.3 0-.1 0-.2.1-.3.1-.1.1-.1.2-.1s.2 0 .2.1c.1.1.1.2.1.3 0 .1 0 .2-.1.3m-.1-.6H75h-.1s-.1.1-.1.2 0 .2.1.2h.2s.1-.1.1-.2c-.1 0-.1-.1-.1-.2M75.9 31.7c-.2 0-.4-.2-.4-.4s.2-.4.4-.4.4.2.4.4-.2.4-.4.4m0-.8c-.2 0-.4.2-.4.4s.2.4.4.4.4-.2.4-.4c-.1-.3-.2-.4-.4-.4m.1.6l-.1-.2h-.1v.2h-.1V31h.2c.1 0 .2.1.2.1 0 .1 0 .1-.1.1v.3zm-.1-.4l-.1.1h.1s.1 0 0-.1c.1 0 0 0 0 0M36.5 29c0-.1.1-.1.1-.1l.1.1c0 .1-.1.1-.1.1s-.1 0-.1-.1M36.2 29c0-.1.1-.1.1-.1.1 0 .1.1.1.1 0 .1-.1.1-.1.1-.1 0-.1 0-.1-.1M35.9 29c0-.1.1-.1.1-.1l.1.1c0 .1-.1.1-.1.1s-.1 0-.1-.1M35.5 29c0-.1.1-.1.1-.1.1 0 .1.1.1.1 0 .1-.1.1-.1.1s-.1 0-.1-.1M37.9 29c0-.1.1-.1.1-.1l.1.1c0 .1-.1.1-.1.1s-.1 0-.1-.1M37.6 29c0-.1.1-.1.1-.1.1 0 .1.1.1.1 0 .1-.1.1-.1.1-.1 0-.1 0-.1-.1M37.2 29c0-.1.1-.1.1-.1.1 0 .1.1.1.1 0 .1-.1.1-.1.1s-.1 0-.1-.1M36.9 29c0-.1.1-.1.1-.1.1 0 .1.1.1.1 0 .1-.1.1-.1.1-.1 0-.1 0-.1-.1M38.6 29c0-.1.1-.1.1-.1.1 0 .1.1.1.1 0 .1-.1.1-.1.1-.1 0-.1 0-.1-.1M38.2 29c0-.1.1-.1.1-.1.1 0 .1.1.1.1 0 .1-.1.1-.1.1s-.1 0-.1-.1M105.6 29c0-.1.1-.1.1-.1.1 0 .1.1.1.1 0 .1-.1.1-.1.1s-.1 0-.1-.1M105.3 29c0-.1.1-.1.1-.1.1 0 .1.1.1.1 0 .1-.1.1-.1.1-.1 0-.1 0-.1-.1M105 29c0-.1.1-.1.1-.1.1 0 .1.1.1.1 0 .1-.1.1-.1.1-.1 0-.1 0-.1-.1M104.6 29c0-.1.1-.1.1-.1.1 0 .1.1.1.1 0 .1-.1.1-.1.1s-.1 0-.1-.1M107 29c0-.1.1-.1.1-.1.1 0 .1.1.1.1 0 .1-.1.1-.1.1-.1 0-.1 0-.1-.1M106.6 29c0-.1.1-.1.1-.1.1 0 .1.1.1.1 0 .1-.1.1-.1.1s-.1 0-.1-.1M106.3 29c0-.1.1-.1.1-.1.1 0 .1.1.1.1 0 .1-.1.1-.1.1s-.1 0-.1-.1M106 29c0-.1.1-.1.1-.1.1 0 .1.1.1.1 0 .1-.1.1-.1.1-.1 0-.1 0-.1-.1M107.7 29c0-.1.1-.1.1-.1.1 0 .1.1.1.1 0 .1-.1.1-.1.1-.1 0-.1 0-.1-.1M107.3 29c0-.1.1-.1.1-.1.1 0 .1.1.1.1 0 .1-.1.1-.1.1s-.1 0-.1-.1M58.3 33.4c0-.1.1-.1.1-.1.1 0 .1.1.1.1l-.1.1-.1-.1M58 33.4c0-.1.1-.1.1-.1l.1.1-.1.1-.1-.1M57.6 33.4c0-.1.1-.1.1-.1.1 0 .1.1.1.1l-.1.1-.1-.1M57.3 33.4c0-.1.1-.1.1-.1.1 0 .1.1.1.1l-.1.1-.1-.1M59.7 33.4c0-.1.1-.1.1-.1.1 0 .1.1.1.1l-.1.1c-.1 0-.1-.1-.1-.1M59.3 33.4c0-.1.1-.1.1-.1l.1.1-.1.1-.1-.1M59 33.4c0-.1.1-.1.1-.1.1 0 .1.1.1.1l-.1.1-.1-.1M58.7 33.4c0-.1.1-.1.1-.1l.1.1-.1.1-.1-.1M60.4 33.4c0-.1.1-.1.1-.1.1 0 .1.1.1.1l-.1.1c-.1 0-.1-.1-.1-.1M60 33.4c0-.1.1-.1.1-.1l.1.1-.1.1-.1-.1M83.6 33.4c0-.1.1-.1.1-.1.1 0 .1.1.1.1l-.1.1c-.1 0-.1-.1-.1-.1M83.2 33.4c0-.1.1-.1.1-.1.1 0 .1.1.1.1l-.1.1-.1-.1M82.9 33.4c0-.1.1-.1.1-.1.1 0 .1.1.1.1l-.1.1c-.1 0-.1-.1-.1-.1M84.9 33.4c0-.1.1-.1.1-.1.1 0 .1.1.1.1l-.1.1-.1-.1M84.6 33.4c0-.1.1-.1.1-.1.1 0 .1.1.1.1l-.1.1c-.1 0-.1-.1-.1-.1M84.2 33.4c0-.1.1-.1.1-.1.1 0 .1.1.1.1l-.1.1-.1-.1M83.9 33.4c0-.1.1-.1.1-.1.1 0 .1.1.1.1l-.1.1-.1-.1M86.3 33.4c0-.1.1-.1.1-.1.1 0 .1.1.1.1l-.1.1c-.1 0-.1-.1-.1-.1M85.9 33.4c0-.1.1-.1.1-.1l.1.1-.1.1-.1-.1M85.6 33.4c0-.1.1-.1.1-.1.1 0 .1.1.1.1l-.1.1-.1-.1M85.3 33.4c0-.1.1-.1.1-.1.1 0 .1.1.1.1l-.1.1c-.1 0-.1-.1-.1-.1"/><circle class="st47" cx="60.2" cy="31.5" r=".3"/><path class="st47" d="M66.2 32h-5.6M66.2 30.9h-5.6M66.2 31.5h-5.7"/><circle class="st47" cx="83.3" cy="31.5" r=".3"/><path class="st47" d="M77.4 32H83M77.4 30.9H83M77.4 31.5H83"/><path class="st27" d="M46.2 69.7c-.1.1-.3.2-.4.2-.2 0-.3-.1-.4-.2-.2-.2-.2-.4-.2-.6 0-.3 0-.5.2-.6.1-.1.2-.2.4-.2s.3.1.5.2l-.3.2c-.1-.1-.2-.1-.3-.1-.1 0-.2 0-.2.1-.1.1-.1.1-.1.4 0 .3 0 .4.1.4 0 .1.1.1.2.1s.2 0 .2-.1c.1-.1.1-.1.1-.2v-.1h-.3V69h.6v.2c0 .3 0 .4-.1.5M47.4 69.9l-.3-.6h-.2v.6h-.3v-1.6h.6c.3 0 .5.2.5.5 0 .2-.1.4-.3.4l.3.7h-.3zm-.2-1.3h-.3v.4h.3c.1 0 .2-.1.2-.2s-.1-.2-.2-.2M49 69.7c-.1.1-.2.2-.4.2s-.3-.1-.4-.2c-.2-.1-.2-.3-.2-.6s0-.5.2-.6c.1-.1.2-.2.4-.2s.3.1.4.2c.2.2.2.4.2.6-.1.3-.1.5-.2.6m-.3-1c0-.1-.1-.1-.2-.1s-.2 0-.2.1c-.1.1-.1.1-.1.4 0 .3 0 .4.1.4 0 .1.1.1.2.1s.2 0 .2-.1c.1-.1.1-.1.1-.4 0-.3 0-.4-.1-.4M50 69.9h-.3l-.5-1.6h.3l.4 1.1.3-1.1h.3zM50.7 69.9v-1.6h1v.3H51v.4h.6v.2H51v.4h.7v.3zM43.6 68.9c-.1 0-.1 0-.2.1h-.1c0-.1 0-.1-.1-.2l.1-.3c.1 0 .3-.1.3-.3 0-.1-.1-.3-.3-.3-.1 0-.3.1-.3.3 0 .1 0 .1.1.2l-.1.3h-.1l-.1-.1v-.1c0-.1-.1-.3-.3-.3-.1 0-.3.1-.3.3 0 .1.1.3.3.3h.1l.1.1v.1h-.1c0-.1-.1-.1-.2-.1s-.3.1-.3.3c0 .1.1.3.3.3.1 0 .3-.1.3-.3l.1-.1.1.1v.3c-.2 0-.3.2-.3.4s.2.4.4.4.4-.2.4-.4-.1-.4-.3-.4v-.3s.1 0 .1-.1l.1.1c0 .1.1.3.3.3.1 0 .3-.1.3-.3-.1-.2-.2-.3-.3-.3m-.3-.8c.1 0 .1 0 .1.1s0 .1-.1.1-.1 0-.1-.1c0 0 0-.1.1-.1m-.8 1.2c-.1 0-.1 0-.1-.1s0-.1.1-.1.1 0 .1.1l-.1.1m.1-.6c-.1 0-.1 0-.1-.1s0-.1.1-.1.1 0 .1.1l-.1.1m.7 1.1c0 .1-.1.3-.3.3-.1 0-.3-.1-.3-.3s.1-.3.3-.3c.1.1.3.2.3.3M43 69c-.1 0-.1 0-.1-.1s0-.1.1-.1.1 0 .1.1 0 .1-.1.1m.6.3c-.1 0-.1 0-.1-.1s0-.1.1-.1.1 0 .1.1l-.1.1"/><path class="st20" d="M42 27.3h-.1v.8h.4V28H42zM42.9 28h-.3v-.3h.3-.3v-.3h.3v-.1h-.4v.8h.4zM43.4 27.3h-.3v.7h.3c.1 0 .1 0 .2-.1s.1-.2.1-.3 0-.2-.1-.3c-.1.1-.2 0-.2 0m.1.6h-.2v-.5h.2v.5M52.7 27.9c0-.1-.1-.1-.1-.2 0 0 .1-.1.1-.2s-.1-.2-.2-.2h-.3v.7h.3c.1.1.2 0 .2-.1m-.4-.5h.2c.1 0 .1 0 .1.1s0 .1-.1.1h-.2v-.2zm0 .6v-.2h.2c.1 0 .1 0 .1.1s0 .1-.1.1h-.2zM53.2 28.1h.1v-.5h-.1v.3c0 .1 0 .1-.1.1s-.1 0-.1-.1v-.3h-.1v.3c0 .1 0 .1.1.1h.1c0 .1 0 .1.1.1zM53.8 28h-.3l.3-.4v-.1h-.4v.1h.3l-.3.4v.1h.4zM54.3 28H54l.3-.4v-.1h-.4v.1h.2l-.2.4v.1h.4zM54.6 28.1c.1 0 .1 0 .2-.1l-.1-.1c0 .1 0 .1-.1.2-.1-.1-.1-.1-.1-.2h.3c0-.1-.1-.3-.2-.3s-.2.1-.2.3c0 .1.1.2.2.2m-.1-.4l.1-.1s.1 0 .1.1v.1l-.2-.1M55.1 27.8c0-.1 0-.1.1-.1h.1l.1-.1h-.1c-.1 0-.1 0-.1.1v-.1H55v.5h.1v-.3zM42.1 41.4c-.1 0-.1 0-.2.1s-.1.2-.1.3c0 .1 0 .2.1.3.1.1.1.1.2.1s.1 0 .2-.1.1-.2.1-.3c0-.1 0-.2-.1-.3-.1 0-.2-.1-.2-.1m.1.6h-.1-.1v-.2-.2h.2v.4M42.6 41.4h-.1v.8h.5v-.1h-.4zM43.6 42.1h-.4v-.3h.3v-.1h-.3v-.2h.4v-.1h-.5v.8h.5zM44 41.4h-.3v.7h.3c.1 0 .1 0 .2-.1s.1-.2.1-.3 0-.2-.1-.3c-.1.1-.2 0-.2 0m.1.6h-.2v-.5h.2v.5M44.9 41.4h-.3v.7h.3c.1 0 .1 0 .2-.1s.1-.2.1-.3 0-.2-.1-.3c-.1.1-.1 0-.2 0m.1.6h-.2v-.5h.2v.5M45.3 41.4h.1v.1h-.1zM45.3 41.6h.1v.5h-.1zM45.8 41.9c-.1 0-.2 0-.2-.1 0 0 0-.1.1-.1s.1 0 .1.2l.1-.2s-.1-.1-.2-.1-.2.1-.2.2.1.1.2.1h.1c0 .1.1.1.1.2l-.1.1c-.1 0-.1 0-.2-.1l-.1.1c.1.1.1.1.2.1s.2-.1.2-.2c.1-.2 0-.2-.1-.2M46.3 41.6c-.1 0-.1 0-.1.1v-.1h-.1v.7h.1V42l.1.1h.1c.1-.1.1-.1.1-.2s0-.2-.1-.2c0 0 0-.1-.1-.1m0 .5c-.1 0-.1-.1-.1-.2s0-.2.1-.2.1.1.1.2 0 .2-.1.2M46.8 42v-.6h-.1v.6c0 .1 0 .1.1.1h.1V42h-.1c0 .1 0 .1 0 0M47.2 41.6c-.1 0-.1 0-.2.1l.1.1c0-.1 0-.1.1-.2.1.1.1.1.1.2h-.1c-.1 0-.2.1-.2.2v.1h.1c.1 0 .1 0 .1-.1h.1v-.3c.1 0 0-.1-.1-.1m.1.4l-.1.1c-.1 0-.1 0-.1-.1 0 0 0-.1.1-.1l.1.1zM47.7 42l-.1-.4h-.1l.2.5v.1s0 .1-.1.1v.1h.1v-.1l.2-.6h-.1l-.1.3zM48.7 42v-.3c0-.1-.1-.2-.2-.2s-.2.1-.2.2v.3c0 .1.1.2.2.2s.2-.1.2-.2m-.4 0v-.3c0-.1 0-.1.1-.1s.1 0 .1.1v.3c0 .1 0 .1-.1.1s-.1-.1-.1-.1"/><path class="st20" d="M48.6 42v-.3c0-.1 0-.1-.1-.1s-.1 0-.1.1v.3c0 .1 0 .1.1.1l.1-.1M48.8 42h.1v.1h-.1zM49.3 42.2l.2-.3c0-.1.1-.1.1-.2s-.1-.2-.2-.2-.2.1-.2.2.1.2.2.2h.1l-.2.3zm0-.4c-.1 0-.1-.1-.1-.1 0-.1 0-.1.1-.1s.1 0 .1.1c0 0 0 .1-.1.1"/><path class="st20" d="M49.4 41.7c0-.1 0-.1-.1-.1s-.1 0-.1.1 0 .1.1.1.1-.1.1-.1M49.8 41.4l-.2.3c0 .1-.1.1-.1.2s.1.2.2.2.2-.1.2-.2-.1-.2-.2-.2h-.1l.2-.3zm0 .4c.1 0 .1.1.1.1 0 .1 0 .1-.1.1s-.1 0-.1-.1l.1-.1"/><path class="st20" d="M49.7 42c0 .1 0 .1.1.1s.1 0 .1-.1 0-.1-.1-.1c0-.1-.1 0-.1.1M50.2 41.4h.1v.2h-.1zM50.5 41.4h.1v.2h-.1zM42.2 55.1s.1-.1.1-.2-.1-.2-.2-.2h-.3v.7h.3c.1 0 .2-.1.2-.2s-.1-.1-.1-.1m-.3-.3h.1c.1 0 .1 0 .1.1s0 .1-.1.1h-.2v-.2zm.2.5h-.2v-.2h.2c.1 0 .1 0 .1.1s-.1.1-.1.1M42.8 55.2c0 .1 0 .1-.1.1s-.1 0-.1-.1v-.3h-.1v.3c0 .1 0 .1.1.1h.1c.1 0 .1 0 .1-.1v.1h.1v-.5h-.1v.4zM43.1 54.8H43v.5c0 .1 0 .1.1.1h.1v-.1s-.1 0-.1-.1V55h.1v-.1h-.1v-.1zM43.5 54.8h-.1v.2h-.1.1v.3c0 .1 0 .1.1.1h.1v-.1s-.1 0-.1-.1V55h.1v-.1h-.1v-.1z"/><path class="st20" d="M43.9 54.9c-.1 0-.1 0-.2.1 0 .1-.1.1-.1.2s0 .2.1.2c0 0 .1.1.2.1s.1 0 .2-.1c0-.1.1-.1.1-.2s0-.2-.1-.2c-.1-.1-.1-.1-.2-.1m.1.4s-.1 0 0 0h-.2v-.1-.1h.2v.2M44.5 54.9c-.1 0-.1 0-.1.1v-.1h-.1v.5h.1v-.3c0-.1 0-.1.1-.2 0 .1.1.1.1.2v.3h.1v-.3c0-.1 0-.1-.1-.1 0-.1 0-.1-.1-.1M52.5 54.6c0-.1-.1-.2-.2-.2H52v.6h.1v-.3h.1l.1.3h.1l-.2-.3c.2 0 .3 0 .3-.1m-.4.1v-.2h.1c.1 0 .1 0 .1.1s0 .1-.1.1h-.1zM52.8 54.6c-.1 0-.1 0-.1.1 0 0-.1.1-.1.2s0 .1.1.2l.1.1c.1 0 .1 0 .1-.1 0 0 .1-.1.1-.2s0-.1-.1-.2c0-.1 0-.1-.1-.1m.1.3c0 .1-.1.1 0 0h-.1v-.1-.1h.2v.1l-.1.1M53.2 54.4l-.1.1H53v.1h.1v.3c0 .1 0 .1.1.1h.1s-.1 0-.1-.1v-.3h.1v-.1h-.1v-.1zM53.6 54.6c-.1 0-.1 0-.2.1l.1.1c0-.1 0-.2.1-.2.1.1.1.1.1.2h-.1c-.1 0-.2.1-.2.1v.1H53.7v-.3c.1-.1 0-.1-.1-.1m.1.3c0 .1-.1.1-.1.1-.1 0-.1 0-.1-.1 0 0 0-.1.1-.1l.1.1zM53.9 54.6v.4h.1v-.3c0-.1 0-.1.1-.1h.1l.1-.1h-.1c-.1.1-.1.1-.3.1zM54.5 54.9l-.1-.3h-.1l.2.5v.1s0 .1-.1.1v.1h.1v-.1l.2-.6h-.1l-.1.2zM52.3 55.2H52v.7h.1v-.3h.2c.1 0 .2-.1.2-.2s-.1-.2-.2-.2m0 .3h-.1v-.2h.1c.1 0 .1 0 .1.1s-.1.1-.1.1M52.8 55.4c-.1 0-.1 0-.1.1 0 0-.1.1-.1.2s0 .1.1.2l.1.1c.1 0 .1 0 .1-.1 0 0 .1-.1.1-.2s0-.1-.1-.2c0-.1-.1-.1-.1-.1m0 .4h-.1v-.1-.1h.2v.1s0 .1-.1.1M53.2 55.3l-.1.1H53v.1h.1v.3c0 .1 0 .1.1.1h.1v-.1s-.1 0-.1-.1v-.3h.1v-.1h-.1zM53.6 55.4c-.1 0-.2.1-.2.2 0 .2.1.2.2.2s.1 0 .2-.1l-.1-.1h-.1c-.1 0-.1-.1-.1-.1h.3s-.1-.1-.2-.1m-.1.2c0-.1.1-.1.1-.1s.1 0 .1.1v.1h-.2zM54.1 55.4s-.1 0-.1.1h-.1v.5h.1v-.3c0-.2.1-.2.1-.3 0 .1.1.1.1.2v.3h.1v-.3-.1c-.1-.1-.1-.1-.2-.1"/><path class="st20" d="M54.6 55.3l-.1.1h-.1v.1h.1v.3c0 .1 0 .1.1.1h.1v-.1s-.1 0-.1-.1v-.3h.1v-.1h-.1zM54.8 55.2h.1v.1h-.1zM54.8 55.4h.1v.5h-.1zM55.2 55.4c-.1 0-.1 0-.1.1 0 0-.1.1-.1.2s0 .1.1.2l.1.1c.1 0 .1 0 .1-.1 0 0 .1-.1.1-.2s0-.1-.1-.2c0-.1 0-.1-.1-.1m.1.4c-.1 0-.1 0 0 0h-.1v-.1-.1h.2v.1c-.1 0-.1.1-.1.1M56 55.4c-.1 0-.1 0-.1.1l-.1-.1s-.1 0-.1.1h-.1v.5h.1v-.3c0-.1 0-.1.1-.1s.1 0 .1.1v.3h.1v-.3c-.1-.2-.1-.2 0-.3 0 .1.1.1.1.2v.3h.1v-.3c0-.1 0-.1-.1-.1 0-.1 0-.1-.1-.1M56.5 55.4c-.1 0-.2.1-.2.2 0 .2.1.2.2.2s.1 0 .2-.1l-.1-.1h-.1c-.1 0-.1-.1-.1-.1h.3s-.1-.1-.2-.1m-.1.2c0-.1.1-.1.1-.1s.1 0 .1.1v.1h-.2zM56.9 55.3l-.1.1h-.1v.1h.1v.3c0 .1 0 .1.1.1h.1v-.1s-.1 0-.1-.1v-.3h.1v-.1h-.1zM57.3 55.4c-.1 0-.2.1-.2.2 0 .2.1.2.2.2s.1 0 .2-.1l-.1-.1h-.1c-.1 0-.1-.1-.1-.1h.3s0-.1-.2-.1m-.1.2c0-.1.1-.1.1-.1s.1 0 .1.1v.1h-.2zM57.7 55.5l-.1.4h.1v-.3c.1-.1.1-.1 0-.1.1 0 .1 0 .2.1l.1-.1h-.1c-.1-.1-.1-.1-.2 0M90.7 27.9h-.3v-.6h-.1v.7h.4zM90.8 27.3h.1v.1h-.1zM90.8 27.5h.1v.5h-.1zM91.5 28v-.5h-.1v.1l-.1-.1h-.1c-.1.1-.1.1-.1.2s0 .2.1.2h.1c.1 0 .1 0 .1-.1v.2c0 .1 0 .1-.1.1h-.1l-.1.1c.1.1.1.1.2.1.1-.1.2-.2.2-.3m-.2-.1c-.1 0-.1-.1-.1-.2s0-.2.1-.2.1.1.1.2 0 .2-.1.2M91.8 27.7c0-.1 0-.1.1-.1s.1 0 .1.1v.3h.1v-.3c0-.1-.1-.2-.2-.2s-.1 0-.1.1v-.3h-.1v.7h.1v-.3zM92.3 27.9c0 .1 0 .1.1.1h.1v-.1s-.1 0-.1-.1v-.3h.1v-.1h-.1v-.2h-.1v.2h-.1v.1h.1v.4zM100.6 27.9c-.1 0-.1 0-.2-.1l-.1.1c.1.1.1.1.3 0 .2.1.3 0 .3-.1s0-.1-.1-.2c0 0-.1 0-.1-.1h-.1-.1v-.1c0-.1 0-.1.1-.1s.1 0 .2.1l.1-.1c-.1-.1-.1-.1-.2-.1-.2 0-.2.1-.2.2s0 .1.1.1l.1.1h.2v.1c-.2.2-.2.2-.3.2"/><path class="st20" d="M101.1 28c.1 0 .1 0 .2-.1 0-.1.1-.1.1-.2s0-.2-.1-.2c0 0-.1-.1-.2-.1s-.1 0-.2.1c0 .1-.1.1-.1.2s0 .2.1.2c.1.1.2.1.2.1m0-.4h.2v.2h-.1-.1v-.1c-.1 0-.1-.1 0-.1M101.7 28c.1 0 .1 0 .1-.1v.1h.1v-.5h-.1v.3c0 .1 0 .1-.1.2 0-.1-.1-.1-.1-.2v-.3h-.1v.3c0 .1 0 .1.1.1 0 .1 0 .1.1.1M102.2 27.7c0-.1 0-.1.1-.1s.1 0 .1.1v.3h.1v-.3c0-.1 0-.1-.1-.1h-.1c-.1 0-.1 0-.1.1v-.1h-.1v.4h.1v-.3zM102.8 28c.1 0 .1 0 .1-.1v.1h.1v-.7.3l-.1-.1h-.1c-.1.1-.1.1-.1.2s0 .2.1.2c-.1.1 0 .1 0 .1m.1-.4c.1 0 .1.1.1.2s0 .2-.1.2-.1-.1-.1-.2c0-.2 0-.2.1-.2M90.2 41.5h.2v.7h.1v-.7h.2v-.1h-.5zM91 42.2c.1 0 .1 0 .2-.1l-.1-.1c0 .1-.1.1-.1.2-.1-.1-.1-.1-.1-.2h.3c0-.1-.1-.3-.2-.3s-.2.1-.2.3c-.1.1 0 .2.2.2m-.2-.4l.1-.1s.1 0 .1.1v.1l-.2-.1M91.4 41.9c0-.1 0-.1.1-.1s.1 0 .1.1v.3h.1v-.3c0-.1.1-.1.1-.1.1 0 .1 0 .1.1v.3h.1v-.3c0-.1 0-.1-.1-.1h-.1c-.1 0-.1 0-.2.1 0-.1-.1-.1-.1-.1-.1 0-.1 0-.1.1v-.1h-.1v.5h.1v-.4zM92.6 42.1c.1-.1.1-.1.1-.2s0-.2-.1-.2h-.1c-.1 0-.1 0-.1.1v-.1h-.1v.7h.1v-.3l.1.1s.1 0 .1-.1m-.3-.2c0-.1 0-.2.1-.2s.1.1.1.2 0 .2-.1.2-.1-.1-.1-.2M93 41.6c-.1 0-.2.1-.2.3 0 .2.1.3.2.3s.1 0 .2-.1l-.1-.1-.1.1c-.1 0-.1-.1-.1-.1h.3c0-.3-.1-.4-.2-.4m-.1.3c0-.1 0-.1 0 0 0-.1.1-.1.1-.1s.1 0 .1.1v.1h-.2zM93.4 41.9c0-.1 0-.1.1-.1h.1l.1-.1h-.1c-.1 0-.1 0-.1.1v-.1h-.1v.5h.1v-.3z"/><path class="st20" d="M93.9 41.9c-.1 0-.2.1-.2.2v.1h.1c.1 0 .1 0 .1-.1h.1v-.3c0-.1-.1-.2-.2-.2s-.1 0-.2.1l.3.2c-.1-.1 0-.1 0-.1.1 0 .1 0 .1.1h-.1zm.2.1l-.1.1c-.1 0-.1 0-.1-.1 0 0 0-.1.1-.1l.1.1zM94.3 42c0 .1 0 .1.1.1h.1V42s-.1 0-.1-.1v-.3h.1v-.1h-.1v-.2h-.1v.2h-.1v.1h.1v.4zM95 42.2h.1v-.5H95v.3c0 .1 0 .1-.1.1s-.1 0-.1-.1v-.3h-.1v.3c0 .1 0 .1.1.1h.1c0 .1.1.1.1.1zM95.4 41.7l-.1-.1v.5h.1v-.3c0-.1 0-.1.1-.1h.1l.1-.1h-.1c-.2 0-.2.1-.2.1M95.9 41.6c-.1 0-.2.1-.2.3 0 .2.1.3.2.3s.1 0 .2-.1L96 42l-.1.1c-.1 0-.1-.1-.1-.1h.3c0-.3-.1-.4-.2-.4m-.1.3c0-.1 0-.1 0 0 0-.1.1-.1.1-.1s.1 0 .1.1v.1h-.2zM96.7 42.2c.1 0 .2-.1.2-.1l.1.1h.1L97 42c0-.1.1-.1.1-.2H97v.1l-.2-.2h.1l.1-.1c0-.1-.1-.2-.2-.2s-.2.1-.2.2 0 .1.1.2c-.1 0-.1.1-.1.2-.1.1 0 .2.1.2m0-.7c.1 0 .1.1 0 0 .1.1 0 .1 0 .1 0 .1-.1 0 0-.1-.1.1 0 0 0 0m0 .3l.2.2-.1.1c-.1 0-.1-.1-.1-.1-.1-.1-.1-.1 0-.2M98 42.2v-.8h-.1v.3h-.3v-.3h-.1v.8h.1v-.4h.3v.4zM98.6 42.2v-.5h-.1v.3c0 .1 0 .1-.1.1s-.1 0-.1-.1v-.3h-.1v.3c0 .1 0 .1.1.1h.1c.1 0 .1 0 .1-.1v.1h.1zM99.5 42.2v-.3c0-.1 0-.1-.1-.1h-.1c-.1 0-.1 0-.2.1 0-.1-.1-.1-.1-.1-.1 0-.1 0-.1.1v-.1h-.1v.5h.1V42c0-.1 0-.1.1-.1s.1 0 .1.1v.3h.1V42c0-.1.1-.1.1-.1.1 0 .1 0 .1.1v.3h.1zM99.7 41.4h.1v.1h-.1zM99.7 41.6h.1v.5h-.1zM100.3 42.1l.1.1v-.7h-.1v.3l-.1-.1h-.1c-.1.1-.1.1-.1.2s0 .2.1.2h.1c0 .1 0 .1.1 0m-.3-.2c0-.1 0-.2.1-.2s.1.1.1.2 0 .2-.1.2-.1-.1-.1-.2M100.5 41.4h.1v.1h-.1zM100.5 41.6h.1v.5h-.1zM100.8 41.5v.2h-.1v.1h.1v.2c0 .1 0 .1.1.1h.1V42s-.1 0-.1-.1v-.3h.1v-.1h-.1v-.2h-.1zM101.2 41.6h-.1l.2.5v.1s0 .1-.1.1v.1h.1v-.1l.2-.6h-.1l-.1.4-.1-.5zM40.5 26.8H39c-.5 0-.9.4-.9.9s.4.9.9.9h1.5c.5 0 .9-.4.9-.9-.1-.5-.5-.9-.9-.9m-1.6 1.4l-.4-.4h.2v-.5h.3v.5h.2l-.3.4zm1.6.2h-1.3c.3-.1.6-.4.6-.7 0-.4-.2-.6-.6-.7h1.3c.4 0 .7.3.7.7 0 .4-.3.7-.7.7M40.5 40.9H39c-.5 0-.9.4-.9.9s.4.9.9.9h1.5c.5 0 .9-.4.9-.9-.1-.5-.5-.9-.9-.9m-1.6 1.3l-.4-.4h.2v-.5h.3v.5h.2l-.3.4zm1.6.3h-1.3c.3-.1.6-.4.6-.7 0-.4-.2-.6-.6-.7h1.3c.4 0 .7.3.7.7 0 .4-.3.7-.7.7M40.5 54.2H39c-.5 0-.9.4-.9.9s.4.9.9.9h1.5c.5 0 .9-.4.9-.9-.1-.5-.5-.9-.9-.9m-1.6 1.4l-.4-.4h.2v-.5h.3v.5h.2l-.3.4zm1.6.2h-1.3c.3-.1.6-.4.6-.7 0-.4-.2-.6-.6-.7h1.3c.4 0 .7.3.7.7 0 .4-.3.7-.7.7M50.7 54.2h-1.5c-.5 0-.9.4-.9.9s.4.9.9.9h1.5c.5 0 .9-.4.9-.9s-.4-.9-.9-.9m-1.5 1.4l-.4-.4h.2v-.5h.3v.5h.2l-.3.4zm1.5.2h-1.3c.3-.1.6-.4.6-.7 0-.4-.2-.6-.6-.7h1.3c.4 0 .7.3.7.7.1.4-.3.7-.7.7M88.8 26.8h-1.5c-.5 0-.9.4-.9.9s.4.9.9.9h1.5c.5 0 .9-.4.9-.9s-.4-.9-.9-.9m-1.5 1.4l-.4-.4h.2v-.5h.3v.5h.2l-.3.4zm1.5.2h-1.3c.3-.1.6-.4.6-.7 0-.4-.2-.6-.6-.7h1.3c.4 0 .7.3.7.7 0 .4-.3.7-.7.7M88.8 40.9h-1.5c-.5 0-.9.4-.9.9s.4.9.9.9h1.5c.5 0 .9-.4.9-.9s-.4-.9-.9-.9m-1.5 1.4l-.4-.4h.2v-.5h.3v.5h.2l-.3.4zm1.5.3h-1.3c.3-.1.6-.4.6-.7s-.2-.6-.6-.7h1.3c.4 0 .7.3.7.7 0 .3-.3.7-.7.7M88.8 54.2h-1.5c-.5 0-.9.4-.9.9s.4.9.9.9h1.5c.5 0 .9-.4.9-.9s-.4-.9-.9-.9m-1.5 1.4l-.4-.4h.2v-.5h.3v.5h.2l-.3.4zm1.5.2h-1.3c.3-.1.6-.4.6-.7s-.2-.6-.6-.7h1.3c.4 0 .7.3.7.7s-.3.7-.7.7M98.8 54.2h-1.5c-.5 0-.9.4-.9.9s.4.9.9.9h1.5c.5 0 .9-.4.9-.9s-.4-.9-.9-.9m-1.5 1.4l-.4-.4h.2v-.5h.3v.5h.2l-.3.4zm1.5.2h-1.3c.3-.1.6-.4.6-.7s-.2-.6-.6-.7h1.3c.4 0 .7.3.7.7s-.3.7-.7.7M97.4 28.6h1.5c.5 0 .9-.4.9-.9s-.4-.9-.9-.9h-1.5c-.5 0-.9.4-.9.9s.4.9.9.9m1.5-1.6c.4 0 .7.3.7.7 0 .4-.3.7-.7.7h-1.3c.3-.1.6-.4.6-.7 0-.4-.2-.6-.6-.7h1.3zm-1.7.8v-.5h.3v.5h.2l-.4.4-.3-.4h.2zM50.8 26.8h-1.5c-.5 0-.9.4-.9.9s.4.9.9.9h1.5c.5 0 .9-.4.9-.9s-.4-.9-.9-.9m-1.5 1.4l-.4-.4h.2v-.5h.3v.5h.2l-.3.4zm1.5.2h-1.3c.3-.1.6-.4.6-.7 0-.4-.2-.6-.6-.7h1.3c.4 0 .7.3.7.7 0 .4-.3.7-.7.7M100.7 54.7h.3v.1h-.3zM101.2 54.4l-.2.6h.1v-.1h.2v.1h.1l-.2-.6zm0 .4l.1-.2.1.2h-.2zM101.6 55l.1-.2.1.2h.1l-.1-.2.1-.3h-.1l-.1.2-.1-.2h-.1l.1.3-.1.2zM102 54.4c-.1.1 0 .1 0 .1.1 0 .1 0 0-.1.1 0 .1 0 0 0M102 54.5h.1v.4h-.1zM102.4 54.7h-.1c0-.1 0-.1.1 0 0-.1 0-.1 0 0l.1-.1s-.1-.1-.2-.1-.2 0-.2.1c.1.2.1.2.3.1v.1h-.1-.1l-.1.1c.1.1.1.1.2.1s.2 0 .2-.1 0-.2-.1-.2M100.3 54.9s-.1 0 0 0l-.2-.1c0 .1.1.2.2.1.1.1.2 0 .2-.1s0-.1-.1-.1l.1-.1c0-.1-.1-.2-.2-.2s-.2.1-.2.2h.1s0-.1.1-.1c0 0 .1 0 .1.1 0 0 0 .1-.1.1v.1c.1-.1.1 0 0 .1.1 0 .1 0 0 0M100.3 55.3l-.2.6h.1v-.1h.2v.1h.1l-.2-.6zm0 .4l.1-.2.1.2h-.2zM100.9 55.6h.1c0-.1-.1-.1-.1 0-.1-.1-.2-.1-.2.1s.1.2.2.2.1 0 .1-.1l-.1-.1h-.1-.1v-.1c.1.1.1 0 .2 0-.1 0-.1 0 0 0M101.2 55.6c.1 0 .1 0 0 0h.1c0-.1 0-.1-.1 0-.1-.1-.2-.1-.2.1s.1.2.2.2.1 0 .1-.1l-.1-.1h-.1-.1v-.1c.2.1.2 0 .2 0M101.6 55.5c-.1 0-.2.1-.2.2 0 .2.1.2.2.2s.1 0 .2-.1l-.1-.1h-.1c-.1 0-.1 0-.1-.1h.3s-.1-.1-.2-.1m-.1.2s0-.1 0 0c.1-.1.1-.1 0 0 .1-.1.1-.1.2 0h-.2zM102 55.8v-.5h-.1v.5c0 .1 0 .1.1.1h.1l-.1-.1M102.3 55.5c-.1 0-.2.1-.2.2 0 .2.1.2.2.2s.1 0 .2-.1l-.1-.1h-.1c-.1 0-.1 0-.1-.1h.3s-.1-.1-.2-.1m-.1.2s0-.1 0 0c.1-.1.1-.1 0 0 .1-.1.1-.1.2 0h-.2zM102.7 55.5h-.1v.4h.1v-.3s.1 0 0-.1l.1.1.1-.1h-.1-.1M103.1 55.5c-.1 0-.1 0-.2.1l.1.1c.1-.1.1-.1.1-.2.1.1.1.1.1.2h-.1c-.1 0-.1.1-.1.1v.1H103.3v-.3c0-.1-.1-.1-.2-.1m.1.3s-.1.1 0 0c-.1.1-.1.1-.1 0h.1zM103.5 55.4h-.1v.4c0 .1 0 .1.1.1h.1V55.6h.1v-.1h-.1v-.1zM103.8 55.3c-.1 0-.1 0 0 0-.1.1 0 .1 0 .1v-.1M103.7 55.5h.1v.4h-.1zM104.1 55.5c-.1 0-.1 0-.1.1v.4l.1.1c.1 0 .1 0 .1-.1v-.2-.2c0-.1 0-.1-.1-.1m.1.3c-.1 0-.1 0 0 0h-.1v-.1-.1h.1v.2M104.7 55.5h-.1-.2v.4h.1v-.3c0-.1 0-.1.1-.1 0 0 .1 0 .1.1v.3h.1v-.3s-.1 0-.1-.1"/><path class="st20" d="M40.2 27.4H40v.6h.2c.1 0 .1 0 .2-.1s.1-.2.1-.2c0-.1 0-.2-.1-.2-.1-.1-.2-.1-.2-.1m0 .4c0 .1 0 .1 0 0H40v-.4h.2v.2c.1.2.1.2 0 .2M40.8 27.7h-.1v.1h-.1l.2-.4h-.1l-.2.4v.1h.2v.1h.1v-.1h.1v-.1h-.1zM50.5 27.4h-.2v.6h.2c.1 0 .1 0 .2-.1s.1-.2.1-.2c0-.1 0-.2-.1-.2-.1-.1-.2-.1-.2-.1m0 .4c0 .1 0 .1 0 0h-.2v-.4h.2v.2c.1.2.1.2 0 .2M51 27.6c-.1 0-.1 0 0 0l.2-.1v-.1h-.3v.3h.1c-.1 0-.1 0 0-.1 0 .1.1.1.1.2v.1H51s-.1 0-.1-.1h-.1v.1h.2s.1-.1.1-.2 0-.1-.1-.2c.1.1 0 .1 0 .1M98.4 27.9h.2v.1h.1l-.2-.6h-.1l-.1.6h.1v-.1zm.2-.3l.1.2h-.1v-.2zM99.2 27.9H99l.2-.2.1-.1c0-.1-.1-.2-.2-.2s-.2.1-.2.2h.1c0-.1 0-.1.1-.1 0 0 .1 0 .1.1v.1l-.2.3.2-.1zM88.4 27.4l-.2.6h.1v-.1h.2v.1h.1l-.2-.6zm0 .4l.1-.2.1.2h-.2zM88.7 41.6s-.1-.1-.2-.1h-.2v.6h.2c.1 0 .1 0 .2-.1s.1-.2.1-.2c-.1-.1-.1-.1-.1-.2m-.1.4s-.1 0 0 0h-.2v-.4h.2v.4"/><path class="st20" d="M89.1 41.8l.1-.1c0-.1-.1-.2-.2-.2s-.2.1-.2.2h.1s0-.1.1-.1c0 0 .1 0 .1.1 0 0 0 .1-.1.1v.1c.1 0 .1 0 .1.1s0 .1-.1.1c0 0-.1 0-.1-.1h-.1c0 .1.1.2.2.2s.2-.1.2-.2-.1-.2-.1-.2M40.2 54.8H40v.6h.2c.1 0 .1 0 .2-.1s.1-.2.1-.2c0-.1 0-.2-.1-.2s-.2-.1-.2-.1m0 .5H40v-.4h.2v.2c0 .1.1.2 0 .2M40.7 55.1l.1-.2h-.1l-.1.3v.2c0 .1.1.2.2.2s.2-.1.2-.2c-.2-.3-.2-.3-.3-.3m0 .2c-.1 0-.1 0 0 0-.1-.1 0-.2 0-.2v.2M50.4 54.8l-.2.6h.1v-.1h.2v.1h.1l-.2-.6zm-.1.4l.1-.2.1.2h-.2zM50.9 54.8c-.1 0-.2.1-.2.2v.2c0 .1.1.2.2.2s.2-.1.2-.2V55c0-.1-.1-.2-.2-.2m.1.5s-.1 0 0 0c-.1.1-.1 0-.1 0V55s0-.1.1-.1c0 0 .1 0 .1.1v.3zM40.7 41.6l.2.1c0-.1-.1-.2-.2-.2s-.1 0-.2.1-.1.1-.1.2 0 .2.1.2c0 0 .1.1.2.1s.2-.1.2-.2h-.1s0 .1-.1.1h-.1v-.2c0-.1 0-.2.1-.2-.1 0-.1 0 0 0M39.9 41.6l.1.4h-.1v.1h.5V42h-.1v-.4h.1v-.1l-.5.1zm.2 0h.1v.4h-.1v-.4zM89 54.9s.1 0 0 0l.2.1c0-.1-.1-.2-.2-.2s-.1 0-.2.1-.1.1-.1.2 0 .2.1.2c0 0 .1.1.2.1s.2-.1.2-.2h-.1s0 .1-.1.1h-.1v-.2c0-.1 0-.1.1-.2-.1 0 0 0 0 0"/><path class="st20" d="M88.2 54.9l.1.4h-.1v.1h.5v-.1h-.1v-.4h.1v-.1l-.5.1zm.2 0h.1v.4h-.1v-.4zM98.9 54.9c.1 0 .1 0 0 0l.2.1c0-.1-.1-.2-.2-.2s-.1 0-.2.1-.1.1-.1.2 0 .2.1.2c0 0 .1.1.2.1s.2-.1.2-.2H99s0 .1-.1.1h-.1v-.2c0-.1 0-.1.1-.2"/><path class="st20" d="M98.2 54.9l.1.4h-.1v.1h.5v-.1h-.1v-.4h.1v-.1l-.5.1zm.1 0h.1v.4h-.1v-.4zM89.1 27.6c-.1 0-.1 0 0 0l.1-.2H89l-.1.3v.2c0 .1.1.2.2.2s.2-.1.2-.2c-.1-.2-.2-.3-.2-.3m-.1.3c-.1-.1 0-.2 0-.2.1 0 .1.1 0 .2.1 0 .1 0 0 0M90.6 55.5v-.1h-.2v.1h-.1l.3-.7h.1l.3.7h-.4zm-.2-.5l-.1.3h.2l-.1-.3z"/><path class="st20" d="M90.8 54.8h.1v.1h-.1v-.1zm0 .2h.1v.5h-.1V55zM91.3 55.1c-.1 0-.2 0-.2.1v.3H91V55h.1l.1-.1c.2.1.2.1.1.2zM92 55.2h-.1v.3h-.1v-.7h.2c.1 0 .2.1.2.2.1.1 0 .2-.2.2m0-.3h-.1v.2h.1c.1 0 .1 0 .1-.1 0 0 0-.1-.1-.1M92.6 55.1c-.1 0-.2 0-.2.1v.3h-.1V55h.1l.1-.1c.2.1.2.1.1.2zM92.9 55.3c0 .1 0 .1.1.1h.1l.1.1c-.1.1-.1.1-.2.1s-.2-.1-.2-.3c0-.2.1-.3.2-.3s.2.1.2.2v.1h-.3zm.2-.2s-.1 0 0 0c-.1-.1-.2 0-.2 0v.1l.2-.1c0 .1 0 .1 0 0"/><path class="st20" d="M93.5 55.5c-.1 0-.2 0-.2-.1l.1-.1h.1s.1 0 .1-.1h-.2c-.1 0-.2 0-.2-.1s.1-.2.2-.2.1 0 .2.1l-.1.1h-.2.2c.1 0 .2.1.2.2 0 .2-.1.2-.2.2M94 55.5c-.1 0-.2 0-.2-.1l.1-.1h.1s.1 0 .1-.1h-.2c-.1 0-.2 0-.2-.1s.1-.2.2-.2.1 0 .2.1l-.1.1h-.2.2c.1 0 .2.1.2.2 0 .2-.1.2-.2.2M94.6 55.5h-.2l-.1-.1V55h.1v.3c0 .1 0 .1.1.1 0 0 .1 0 .1-.1V55h.1v.5h-.1zM95.2 55.1c-.1 0-.1 0 0 0-.1 0-.2 0-.2.1v.3h-.1V55h.1l.1-.1c.1.1.1.1.1.2zM95.4 55.3c0 .1 0 .1.1.1h.1l.1.1c-.1.1-.1.1-.2.1s-.2-.1-.2-.3c0-.2.1-.3.2-.3s.2.1.2.2v.1h-.3zm.2-.2s-.1 0 0 0c-.1-.1-.2 0-.2 0v.1l.2-.1c0 .1 0 .1 0 0M61.8 28.9c-.2.2-.3.2-.5.2s-.4-.1-.5-.2c-.2-.2-.2-.4-.2-.8 0-.3 0-.6.2-.8.1-.1.3-.2.5-.2.4 0 .7.3.7.6h-.4c0-.2-.2-.3-.3-.3-.1 0-.2 0-.2.1-.1.1-.1.2-.1.5 0 .4 0 .5.1.5.1.1.1.1.2.1s.2 0 .3-.1c.1-.1.1-.2.1-.3v-.1h-.3v-.3h.7v.3c-.2.5-.2.7-.3.8M63 28.1l-.1-.1c-.1 0-.2.1-.2.3v.8h-.3v-1.4h.3v.1c.1-.1.2-.1.3-.1.1 0 .2 0 .3.1l-.3.3zM64.4 29c-.1.1-.2.2-.4.2s-.3-.1-.4-.2c-.1-.1-.2-.3-.2-.5s0-.4.2-.5c.1-.1.2-.2.4-.2s.3.1.4.2c.1.1.2.3.2.5s-.1.3-.2.5m-.2-.9s-.1-.1-.2-.1-.1 0-.2.1-.1.2-.1.3c0 .1 0 .3.1.3 0 0 .1.1.2.1s.1 0 .2-.1.1-.2.1-.3c-.1-.1-.1-.2-.1-.3M65.5 29.1h-.3l-.5-1.4h.4l.2.9.3-.9h.4zM66.4 28.5c0 .2.1.3.3.3.2 0 .2 0 .3-.1l.2.2c-.1.1-.3.2-.5.2-.3 0-.6-.1-.6-.7 0-.5.2-.7.6-.7.4 0 .6.3.6.7v.2h-.9zm.5-.4c0-.1-.1-.1-.2-.1s-.2.1-.2.1v.1h.5l-.1-.1M81 29.1l-.5-.8-.3.2v.6h-.3v-1.9h.3v.8l.7-.8h.4l-.6.8.7 1.1zM81.6 27.2h.4v.3h-.4v-.3zm0 .5h.4v1.4h-.3v-1.4zM82.8 29.1c-.3 0-.4-.2-.4-.4V28h-.1v-.3h.1v-.4h.3v.4h.3v.3h-.2v.7c0 .1 0 .1.1.1h.1v.3h-.2zM68.8 29.1H68v-1.9h.8c.4 0 .6.2.6.5 0 .2-.1.4-.2.4.1.1.3.2.3.4-.1.4-.3.6-.7.6m0-1.6h-.4v.5h.4c.2 0 .2-.1.2-.2 0-.2-.1-.3-.2-.3m0 .8h-.4v.5h.4c.2 0 .3-.1.3-.2-.1-.2-.1-.3-.3-.3M70.1 28.5c0 .2.1.3.3.3.2 0 .2 0 .3-.1l.2.2c-.1.1-.3.2-.5.2-.3 0-.6-.2-.6-.7 0-.5.2-.7.6-.7.4 0 .6.3.6.7v.2h-.9zm.5-.4c0-.1-.1-.1-.2-.1s-.2.1-.2.1v.2h.5c-.1-.1-.1-.1-.1-.2M71.7 29.6c-.2 0-.4 0-.5-.2l.2-.2c.1.1.2.1.3.1.2 0 .3-.1.3-.3v-.1c-.1.1-.2.1-.3.1-.1 0-.3 0-.3-.1-.1-.1-.1-.3-.1-.6 0-.2 0-.4.1-.6.1-.1.2-.1.3-.1.1 0 .2 0 .3.1v-.1h.3V29c.1.4-.2.6-.6.6m.1-1.6c-.2 0-.2.2-.2.4s0 .4.2.4.2-.2.2-.4 0-.4-.2-.4M72.7 27.2h.4v.3h-.4v-.3zm0 .5h.4v1.4h-.4v-1.4zM74.3 29.1v-.8c0-.2-.1-.3-.2-.3s-.2.1-.2.3v.8h-.4v-1.4h.3v.1c.1-.1.2-.1.4-.1.1 0 .3 0 .3.1.1.1.1.2.1.4v.9h-.3zM75.8 29.1v-.8c0-.2-.1-.3-.2-.3s-.2.1-.2.3v.8H75v-1.4h.3v.1c.1-.1.2-.1.4-.1.1 0 .3 0 .3.1.1.1.1.2.1.4v.9h-.3zM76.8 28.5c0 .2.1.3.3.3.2 0 .2 0 .3-.1l.2.2c-.1.1-.3.2-.5.2-.3 0-.6-.2-.6-.7 0-.5.2-.7.6-.7.4 0 .6.3.6.7v.2h-.9zm.5-.4c0-.1-.1-.1-.2-.1s-.2.1-.2.1v.2h.5c0-.1 0-.1-.1-.2M78.8 28.1c0-.1-.1-.1-.2-.1s-.2.1-.2.3v.8H78v-1.4h.3v.1c.1-.1.2-.2.4-.2.1 0 .2 0 .3.1l-.2.4z"/></g></svg>