<?xml version="1.0" encoding="utf-8"?>
<!-- Generator: Adobe Illustrator 21.0.0, SVG Export Plug-In . SVG Version: 6.00 Build 0)  -->
<svg version="1.1" id="图层_1" xmlns="http://www.w3.org/2000/svg" xmlns:xlink="http://www.w3.org/1999/xlink" x="0px" y="0px"
	 viewBox="0 0 108 71" style="enable-background:new 0 0 108 71;" xml:space="preserve">
<style type="text/css">
	.st0{fill:#FFFFFF;}
	.st1{enable-background:new    ;}
	.st2{fill:#FAE5EE;}
	.st3{fill:#DA526D;}
	.st4{fill:none;stroke:#C24B45;stroke-width:1.0659;stroke-miterlimit:10;stroke-dasharray:2.8425;}
	.st5{fill:#B24663;}
	.st6{fill:#DDDDDD;}
	.st7{fill:#F1DE99;}
	.st8{fill:#585757;}
	.st9{fill:#F4F1EA;}
	.st10{fill:#E2DED3;}
	.st11{fill:#CBCBCB;}
	.st12{font-family:'COCOGOOSE';}
	.st13{font-size:1.4887px;}
	.st14{fill:#717071;}
	.st15{fill:#A58A79;}
	.st16{font-size:3.0941px;}
</style>
<g>
	<g>
		<g>
			<path class="st0" d="M88.7,59.5H73.4v-1l-38.6-0.1v1H17.7v-2.3h1.8V13.3h-1.8V11h17.1v1.1l38.6,0.1v-1.1h17.1v2.3h-1.8v43.7h1.7
				v2.3h-1.7V59.5z M74.4,58.5h13.3v-0.1h1.7v-0.3h-1.7V12.4h1.8v-0.3H74.4v1.1l-40.6-0.1V12H18.7v0.3h1.8v45.8h-1.8v0.3h15.1v-1
				l40.6,0.1V58.5z"/>
		</g>
		<g>
			<polygon class="st0" points="46.4,13 40.3,13 41.1,11.1 45.6,11.1 			"/>
		</g>
		<g>
			<polygon class="st0" points="71.6,13 56.1,13 56.6,11.1 70.8,11.1 			"/>
		</g>
	</g>
	<g>
		<g id="XMLID_237_">
			<g id="XMLID_246_">
				<g id="XMLID_349_">
					<g>
						<g id="XMLID_352_">
							<g class="st1">
								<g>
									<path class="st2" d="M38.1,26.4c0-0.2,0.1-0.4,0.3-0.4c0.2,0,0.3,0.1,0.3,0.4v0.3h0.4v0.1h-1.1V26.4z M38.6,26.7v-0.3
										c0-0.1,0-0.2-0.1-0.2c0,0-0.1-0.1-0.2-0.1c-0.1,0-0.1,0-0.2,0.1c0,0-0.1,0.1-0.1,0.2v0.3H38.6z"/>
								</g>
								<g>
									<path class="st2" d="M38.5,25.2c0.1-0.1,0.2-0.1,0.3-0.1c0.1,0,0.2,0,0.3,0.1c0.1,0.1,0.1,0.2,0.1,0.3c0,0.1,0,0.2-0.1,0.3
										c-0.1,0.1-0.2,0.1-0.3,0.1c-0.1,0-0.2,0-0.3-0.1c-0.1-0.1-0.1-0.2-0.1-0.3C38.4,25.4,38.4,25.3,38.5,25.2z M38.6,25.7
										c0.1,0,0.1,0.1,0.2,0.1c0.1,0,0.2,0,0.2-0.1c0.1,0,0.1-0.1,0.1-0.2c0-0.1,0-0.1-0.1-0.2c-0.1,0-0.1-0.1-0.2-0.1
										c-0.1,0-0.2,0-0.2,0.1c-0.1,0-0.1,0.1-0.1,0.2C38.5,25.6,38.5,25.7,38.6,25.7z"/>
								</g>
								<g>
									<path class="st2" d="M38.4,24.9l0.6-0.2l-0.6-0.2v-0.1l0.6-0.2l-0.6-0.2v-0.1l0.8,0.3v0.1l-0.6,0.2l0.6,0.2v0.1l-0.8,0.3
										V24.9z"/>
								</g>
								<g>
									<path class="st2" d="M38.5,23.2c0.1-0.1,0.2-0.1,0.3-0.1v0.6c0.1,0,0.2,0,0.2-0.1c0,0,0.1-0.1,0.1-0.2c0-0.1,0-0.1,0-0.2
										c0,0-0.1-0.1-0.1-0.1v-0.1c0.1,0,0.1,0.1,0.2,0.1c0.1,0.1,0.1,0.1,0.1,0.3c0,0.1,0,0.2-0.1,0.3c-0.1,0.1-0.2,0.1-0.3,0.1
										c-0.1,0-0.2,0-0.3-0.1c-0.1-0.1-0.1-0.2-0.1-0.3C38.4,23.4,38.4,23.3,38.5,23.2z M38.5,23.7c0,0,0.1,0.1,0.2,0.1v-0.5
										c-0.2,0-0.3,0.1-0.3,0.2C38.5,23.6,38.5,23.6,38.5,23.7z"/>
								</g>
								<g>
									<path class="st2" d="M38.4,22.5h0.1c0,0,0,0.1,0,0.1c0,0.1,0,0.1,0.1,0.2c0.1,0,0.1,0.1,0.2,0.1h0.4V23h-0.8v-0.1h0.1
										c0,0-0.1,0-0.1-0.1c0,0-0.1-0.1-0.1-0.1C38.4,22.6,38.4,22.6,38.4,22.5z"/>
								</g>
							</g>
						</g>
						<g id="XMLID_351_">
							<g class="st1">
								<g>
									<path class="st2" d="M41.2,25.6h0.1v0.4h1v0.1h-1v0.4h-0.1V25.6z"/>
								</g>
								<g>
									<path class="st2" d="M41.2,25.3l0.4-0.3l-0.4-0.3v-0.2l0.5,0.4l0.6-0.4v0.2l-0.5,0.3l0.5,0.3v0.2l-0.6-0.4l-0.5,0.4V25.3z"
										/>
								</g>
								<g>
									<path class="st2" d="M41.2,24c0-0.1,0-0.2,0.1-0.3c0.1-0.1,0.1-0.1,0.2-0.1c0.1,0,0.1,0,0.2,0.1c0,0,0.1,0.1,0.1,0.1h0
										c0-0.1,0.1-0.2,0.2-0.2l0.2,0c0.1,0,0.1,0,0.2-0.1v0.1c0,0-0.1,0-0.1,0l-0.1,0c-0.1,0-0.1,0-0.1,0.1c0,0,0,0.1,0,0.2v0.3
										h0.5v0.1h-1.1V24z M41.7,24.3V24c0-0.1,0-0.1-0.1-0.2c0,0-0.1-0.1-0.1-0.1c-0.1,0-0.1,0-0.1,0.1c0,0-0.1,0.1-0.1,0.2v0.3
										H41.7z"/>
								</g>
								<g>
									<path class="st2" d="M41.2,23.3l0.4-0.3l-0.4-0.3v-0.2l0.5,0.4l0.6-0.4v0.2l-0.5,0.3l0.5,0.3v0.2l-0.6-0.4l-0.5,0.4V23.3z"
										/>
								</g>
							</g>
						</g>
						<g id="XMLID_350_" class="st1">
							<g>
								<path class="st2" d="M44.3,26.5c0.1-0.1,0.1-0.1,0.3-0.1v0.1C44.5,26.5,44.4,26.5,44.3,26.5c0,0.1,0,0.2,0,0.3
									c0,0.1,0,0.1,0,0.2c0,0.1,0.1,0.1,0.1,0.1c0.1,0,0.1,0,0.1-0.1c0,0,0-0.1,0.1-0.2c0-0.1,0.1-0.2,0.1-0.3
									c0.1-0.1,0.1-0.1,0.2-0.1c0.1,0,0.2,0,0.2,0.1c0.1,0.1,0.1,0.2,0.1,0.3c0,0.1,0,0.2-0.1,0.3c-0.1,0.1-0.2,0.1-0.3,0.1v-0.1
									c0.1,0,0.2,0,0.2-0.1c0-0.1,0.1-0.1,0.1-0.2c0-0.1,0-0.2-0.1-0.2c0-0.1-0.1-0.1-0.1-0.1c-0.1,0-0.1,0-0.2,0.1
									c0,0,0,0.1-0.1,0.2c0,0.1-0.1,0.2-0.1,0.2c0,0.1-0.1,0.1-0.2,0.1c-0.1,0-0.2,0-0.2-0.1c0-0.1-0.1-0.2-0.1-0.3
									C44.2,26.6,44.2,26.5,44.3,26.5z"/>
							</g>
							<g>
								<path class="st2" d="M44.5,26v-0.2h0.1V26h0.5c0,0,0,0,0.1,0c0,0,0,0,0-0.1v-0.1h0.1v0.1c0,0.1,0,0.1-0.1,0.1
									c0,0-0.1,0-0.1,0h-0.5v0.2h-0.1v-0.2h-0.2L44.3,26H44.5z"/>
							</g>
							<g>
								<path class="st2" d="M44.6,25c0.1,0,0.1-0.1,0.2-0.1h0.5v0.1h-0.1c0,0,0.1,0.1,0.1,0.1c0,0.1,0,0.1,0,0.2
									c0,0.1,0,0.1-0.1,0.2c0,0-0.1,0.1-0.2,0.1c-0.1,0-0.2,0-0.2-0.1c0-0.1-0.1-0.2-0.1-0.3l0-0.2h0c-0.1,0-0.2,0.1-0.2,0.2
									c0,0.1,0,0.1,0,0.1c0,0,0.1,0.1,0.1,0.1l0,0.1c-0.1,0-0.1-0.1-0.2-0.1c0-0.1-0.1-0.1-0.1-0.2C44.5,25.2,44.5,25.1,44.6,25z
									 M44.9,25.3c0,0.2,0.1,0.3,0.2,0.3c0,0,0.1,0,0.1,0c0,0,0-0.1,0-0.1c0-0.1,0-0.1-0.1-0.2c0-0.1-0.1-0.1-0.2-0.1h-0.1
									L44.9,25.3z"/>
							</g>
							<g>
								<path class="st2" d="M44.5,24.6v-0.2h0.1v0.2h0.5c0,0,0,0,0.1,0c0,0,0,0,0-0.1v-0.1h0.1v0.1c0,0.1,0,0.1-0.1,0.1
									c0,0-0.1,0-0.1,0h-0.5v0.2h-0.1v-0.2h-0.2l-0.1-0.1H44.5z"/>
							</g>
							<g>
								<path class="st2" d="M44.5,24.1H45c0.1,0,0.1,0,0.2,0c0,0,0.1-0.1,0.1-0.2c0-0.1,0-0.1-0.1-0.1c0,0-0.1-0.1-0.2-0.1h-0.5
									v-0.1h0.8v0.1h-0.1c0.1,0.1,0.1,0.1,0.1,0.3c0,0.2-0.1,0.3-0.3,0.3h-0.5V24.1z"/>
							</g>
							<g>
								<path class="st2" d="M44.8,22.8v0.1c0,0-0.1,0-0.1,0.1c0,0,0,0.1,0,0.1c0,0.1,0,0.1,0,0.1c0,0,0,0.1,0.1,0.1
									c0,0,0.1,0,0.1-0.1c0,0,0-0.1,0.1-0.2c0-0.1,0-0.2,0.1-0.2c0-0.1,0.1-0.1,0.2-0.1c0.2,0,0.2,0.1,0.2,0.3
									c0,0.2-0.1,0.3-0.3,0.3v-0.1c0.1,0,0.1,0,0.1-0.1c0,0,0-0.1,0-0.2c0-0.1,0-0.2-0.1-0.2c0,0-0.1,0-0.1,0.1c0,0,0,0.1-0.1,0.2
									c0,0.1,0,0.2-0.1,0.2c0,0.1-0.1,0.1-0.2,0.1c-0.1,0-0.1,0-0.2-0.1c0-0.1-0.1-0.1-0.1-0.2C44.5,22.9,44.6,22.8,44.8,22.8z"/>
							</g>
						</g>
					</g>
				</g>
				<g id="XMLID_248_">
				</g>
				<g id="XMLID_247_">
				</g>
			</g>
			<g id="XMLID_245_">
				<g class="st1">
					<g>
						<path class="st2" d="M66.7,39.5l0.4,1.1H67l-0.1-0.3h-0.5l-0.1,0.3h-0.1l0.4-1.1H66.7z M66.9,40.2l-0.2-0.5h0l-0.2,0.5H66.9z"
							/>
					</g>
					<g>
						<path class="st2" d="M67.9,40.1v0.5h-0.1v-0.5c0-0.2-0.1-0.2-0.2-0.2c-0.1,0-0.1,0-0.1,0.1c0,0-0.1,0.1-0.1,0.2v0.5h-0.1v-0.8
							h0.1v0.1c0,0,0.1-0.1,0.1-0.1c0,0,0.1,0,0.1,0C67.8,39.7,67.9,39.9,67.9,40.1z"/>
					</g>
					<g>
						<path class="st2" d="M68.3,39.8h0.2v0.1h-0.2v0.5c0,0,0,0,0,0.1c0,0,0,0,0.1,0h0.1v0.1h-0.1c-0.1,0-0.1,0-0.1-0.1
							c0,0,0-0.1,0-0.1v-0.5H68v-0.1h0.2v-0.2l0.1-0.1V39.8z"/>
					</g>
					<g>
						<path class="st2" d="M69.2,39.9c0.1,0.1,0.1,0.2,0.1,0.3h-0.6c0,0.1,0,0.2,0.1,0.2c0,0,0.1,0.1,0.2,0.1c0.1,0,0.1,0,0.2,0
							c0,0,0.1-0.1,0.1-0.1h0.1c0,0.1-0.1,0.1-0.1,0.2c-0.1,0.1-0.1,0.1-0.3,0.1c-0.1,0-0.2,0-0.3-0.1c-0.1-0.1-0.1-0.2-0.1-0.3
							c0-0.1,0-0.2,0.1-0.3c0.1-0.1,0.2-0.1,0.3-0.1C69.1,39.7,69.2,39.8,69.2,39.9z M68.8,39.9c0,0-0.1,0.1-0.1,0.2h0.5
							c0-0.2-0.1-0.3-0.2-0.3C68.9,39.9,68.8,39.9,68.8,39.9z"/>
					</g>
					<g>
						<path class="st2" d="M70.1,40.1v0.5H70v-0.5c0-0.2-0.1-0.2-0.2-0.2c-0.1,0-0.1,0-0.1,0.1c0,0-0.1,0.1-0.1,0.2v0.5h-0.1v-0.8
							h0.1v0.1c0,0,0.1-0.1,0.1-0.1c0,0,0.1,0,0.1,0C70,39.7,70.1,39.9,70.1,40.1z"/>
					</g>
					<g>
						<path class="st2" d="M71,40.1v0.5h-0.1v-0.5c0-0.2-0.1-0.2-0.2-0.2c-0.1,0-0.1,0-0.1,0.1c0,0-0.1,0.1-0.1,0.2v0.5h-0.1v-0.8
							h0.1v0.1c0,0,0.1-0.1,0.1-0.1c0,0,0.1,0,0.1,0C70.9,39.7,71,39.9,71,40.1z"/>
					</g>
					<g>
						<path class="st2" d="M71.8,39.8c0,0.1,0.1,0.1,0.1,0.2v0.5h-0.1v-0.1c0,0-0.1,0.1-0.1,0.1c-0.1,0-0.1,0-0.2,0
							c-0.1,0-0.1,0-0.2-0.1c0,0-0.1-0.1-0.1-0.2c0-0.1,0-0.2,0.1-0.2c0.1,0,0.2-0.1,0.3-0.1l0.2,0v0c0-0.1-0.1-0.2-0.2-0.2
							c-0.1,0-0.1,0-0.1,0c0,0-0.1,0.1-0.1,0.1l-0.1,0c0-0.1,0.1-0.1,0.1-0.2c0.1,0,0.1-0.1,0.2-0.1C71.6,39.7,71.7,39.8,71.8,39.8z
							 M71.5,40.2c-0.2,0-0.3,0.1-0.3,0.2c0,0,0,0.1,0,0.1c0,0,0.1,0,0.1,0c0.1,0,0.1,0,0.2-0.1c0.1,0,0.1-0.1,0.1-0.2v-0.1
							L71.5,40.2z"/>
					</g>
				</g>
			</g>
			<g id="XMLID_244_">
				<g class="st1">
					<g>
						<path class="st2" d="M37.6,44.8c0.2,0,0.4,0.1,0.4,0.3c0,0.2-0.1,0.3-0.4,0.3h-0.3v0.4h-0.1v-1.1H37.6z M37.2,45.4h0.3
							c0.1,0,0.2,0,0.2-0.1c0,0,0.1-0.1,0.1-0.2c0-0.1,0-0.1-0.1-0.2c0,0-0.1-0.1-0.2-0.1h-0.3V45.4z"/>
					</g>
					<g>
						<path class="st2" d="M38.5,45.1v0.1c0,0-0.1,0-0.1,0c-0.1,0-0.1,0-0.2,0.1c0,0.1-0.1,0.1-0.1,0.2v0.4h-0.1v-0.8h0.1v0.1
							c0,0,0-0.1,0.1-0.1c0,0,0.1-0.1,0.1-0.1C38.5,45.1,38.5,45.1,38.5,45.1z"/>
					</g>
					<g>
						<path class="st2" d="M39.3,45.2c0.1,0.1,0.1,0.2,0.1,0.3c0,0.1,0,0.2-0.1,0.3c-0.1,0.1-0.2,0.1-0.3,0.1c-0.1,0-0.2,0-0.3-0.1
							c-0.1-0.1-0.1-0.2-0.1-0.3c0-0.1,0-0.2,0.1-0.3c0.1-0.1,0.2-0.1,0.3-0.1C39.1,45.1,39.2,45.1,39.3,45.2z M38.8,45.3
							c0,0.1-0.1,0.1-0.1,0.2c0,0.1,0,0.2,0.1,0.2c0,0.1,0.1,0.1,0.2,0.1c0.1,0,0.1,0,0.2-0.1c0-0.1,0.1-0.1,0.1-0.2
							c0-0.1,0-0.2-0.1-0.2c0-0.1-0.1-0.1-0.2-0.1C38.9,45.2,38.8,45.2,38.8,45.3z"/>
					</g>
					<g>
						<path class="st2" d="M40.1,45.2c0.1,0,0.1,0.1,0.1,0.2h-0.1C40.1,45.3,40.1,45.3,40.1,45.2c-0.1,0-0.2,0-0.2,0
							c-0.1,0-0.1,0-0.2,0.1c0,0.1-0.1,0.1-0.1,0.2c0,0.1,0,0.2,0.1,0.2c0,0.1,0.1,0.1,0.2,0.1c0.1,0,0.2-0.1,0.2-0.2h0.1
							c0,0.1-0.1,0.2-0.1,0.2c-0.1,0-0.1,0.1-0.2,0.1c-0.1,0-0.2,0-0.3-0.1c-0.1-0.1-0.1-0.2-0.1-0.3s0-0.2,0.1-0.3
							c0.1-0.1,0.2-0.1,0.3-0.1C40,45.1,40,45.1,40.1,45.2z"/>
					</g>
					<g>
						<path class="st2" d="M41,45.2c0.1,0.1,0.1,0.2,0.1,0.3h-0.6c0,0.1,0,0.2,0.1,0.2s0.1,0.1,0.2,0.1c0.1,0,0.1,0,0.2,0
							c0,0,0.1-0.1,0.1-0.1H41c0,0.1-0.1,0.1-0.1,0.2c-0.1,0.1-0.1,0.1-0.3,0.1c-0.1,0-0.2,0-0.3-0.1c-0.1-0.1-0.1-0.2-0.1-0.3
							c0-0.1,0-0.2,0.1-0.3c0.1-0.1,0.2-0.1,0.3-0.1C40.8,45.1,40.9,45.2,41,45.2z M40.5,45.3c0,0-0.1,0.1-0.1,0.2h0.5
							c0-0.2-0.1-0.3-0.2-0.3C40.6,45.2,40.6,45.2,40.5,45.3z"/>
					</g>
					<g>
						<path class="st2" d="M41.8,45.4h-0.1c0,0,0-0.1-0.1-0.1c0,0-0.1,0-0.1,0c-0.1,0-0.1,0-0.1,0c0,0-0.1,0-0.1,0.1
							c0,0,0,0.1,0.1,0.1c0,0,0.1,0,0.2,0.1c0.1,0,0.2,0,0.2,0.1c0.1,0,0.1,0.1,0.1,0.2c0,0.2-0.1,0.2-0.3,0.2
							c-0.2,0-0.3-0.1-0.3-0.3h0.1c0,0.1,0,0.1,0.1,0.1c0,0,0.1,0,0.2,0c0.1,0,0.2,0,0.2-0.1c0,0,0-0.1-0.1-0.1c0,0-0.1,0-0.2-0.1
							c-0.1,0-0.2,0-0.2-0.1c-0.1,0-0.1-0.1-0.1-0.2c0-0.1,0-0.1,0.1-0.2c0.1,0,0.1-0.1,0.2-0.1C41.7,45.1,41.8,45.2,41.8,45.4z"/>
					</g>
					<g>
						<path class="st2" d="M42.6,45.4h-0.1c0,0,0-0.1-0.1-0.1c0,0-0.1,0-0.1,0c-0.1,0-0.1,0-0.1,0c0,0,0,0,0,0.1c0,0,0,0.1,0.1,0.1
							c0,0,0.1,0,0.2,0.1c0.1,0,0.2,0,0.2,0.1c0.1,0,0.1,0.1,0.1,0.2c0,0.2-0.1,0.2-0.3,0.2c-0.2,0-0.3-0.1-0.3-0.3H42
							c0,0.1,0,0.1,0.1,0.1c0,0,0.1,0,0.2,0c0.1,0,0.2,0,0.2-0.1c0,0,0-0.1-0.1-0.1c0,0-0.1,0-0.2-0.1c-0.1,0-0.2,0-0.2-0.1
							c-0.1,0-0.1-0.1-0.1-0.2c0-0.1,0-0.1,0.1-0.2c0.1,0,0.1-0.1,0.2-0.1C42.4,45.1,42.5,45.2,42.6,45.4z"/>
					</g>
					<g>
						<path class="st2" d="M43.4,45.2c0.1,0.1,0.1,0.2,0.1,0.3c0,0.1,0,0.2-0.1,0.3c-0.1,0.1-0.2,0.1-0.3,0.1c-0.1,0-0.2,0-0.3-0.1
							c-0.1-0.1-0.1-0.2-0.1-0.3c0-0.1,0-0.2,0.1-0.3c0.1-0.1,0.2-0.1,0.3-0.1C43.2,45.1,43.3,45.1,43.4,45.2z M42.9,45.3
							c0,0.1-0.1,0.1-0.1,0.2c0,0.1,0,0.2,0.1,0.2c0,0.1,0.1,0.1,0.2,0.1c0.1,0,0.1,0,0.2-0.1c0-0.1,0.1-0.1,0.1-0.2
							c0-0.1,0-0.2-0.1-0.2c0-0.1-0.1-0.1-0.2-0.1C43,45.2,42.9,45.2,42.9,45.3z"/>
					</g>
					<g>
						<path class="st2" d="M44.1,45.1v0.1c0,0-0.1,0-0.1,0c-0.1,0-0.1,0-0.2,0.1c0,0.1-0.1,0.1-0.1,0.2v0.4h-0.1v-0.8h0.1v0.1
							c0,0,0-0.1,0.1-0.1c0,0,0.1-0.1,0.1-0.1C44,45.1,44.1,45.1,44.1,45.1z"/>
					</g>
				</g>
			</g>
		</g>
		<g id="XMLID_126_">
			<g id="XMLID_135_">
				<g id="XMLID_138_">
					<g id="XMLID_186_">
						<g id="XMLID_230_">
							<g id="XMLID_231_">
								<g id="XMLID_236_">
									<g>
										<path class="st3" d="M77.2,58l-46.4-0.1c-2.2,0-4-1.8-4-4V16.6c0-2.2,1.8-4,4-4l46.4,0.1c2.2,0,4,1.8,4,4V54
											C81.2,56.2,79.4,58,77.2,58z"/>
									</g>
								</g>
								<g id="XMLID_235_">
									<g>
										<path class="st4" d="M74.9,17.1"/>
									</g>
								</g>
								<g id="XMLID_234_">
									<g>
										<path class="st4" d="M74.9,53.4"/>
									</g>
								</g>
								<g id="XMLID_233_">
									<g>
										<path class="st4" d="M33.1,17.1"/>
									</g>
								</g>
								<g id="XMLID_232_">
									<g>
										<path class="st4" d="M33.1,53.4"/>
									</g>
								</g>
							</g>
						</g>
						<g id="XMLID_220_">
							<g id="XMLID_225_">
								<g>
									<rect x="36.3" y="49.4" class="st5" width="37.3" height="0.3"/>
								</g>
							</g>
							<g id="XMLID_221_">
								<g id="XMLID_224_">
									<g>
										<rect x="43.9" y="49.5" class="st5" width="0.9" height="7.1"/>
									</g>
								</g>
								<g id="XMLID_223_">
									<g>
										<polygon class="st5" points="48.2,56.8 43.9,56.8 43.9,56.5 48,56.5 48,49.8 48.2,49.8 										"/>
									</g>
								</g>
								<g id="XMLID_222_">
									<g>
										<polygon class="st5" points="69.4,56.8 65,56.8 65,53.1 61,53.1 61,56.8 56.5,56.8 56.5,53.1 52.5,53.1 52.5,56.8 
											48.1,56.8 48.1,56.5 52.3,56.5 52.3,52.8 56.7,52.8 56.7,56.5 60.8,56.5 60.8,52.8 65.2,52.8 65.2,56.5 69.2,56.5 
											69.2,51 69.4,51 										"/>
									</g>
								</g>
							</g>
						</g>
						<g id="XMLID_205_">
							<g id="XMLID_206_">
								<g>
									<path class="st6" d="M38.7,16.8h1.4c0.1,0,0.2,0.1,0.2,0.2v5c0,0.1-0.1,0.2-0.2,0.2h-1.4c-0.1,0-0.2-0.1-0.2-0.2v-5
										C38.5,16.9,38.6,16.8,38.7,16.8z"/>
								</g>
							</g>
						</g>
						<g id="XMLID_203_">
							<g id="XMLID_204_">
								<g>
									<g>
										<rect x="38.5" y="18.6" class="st7" width="1.8" height="1.9"/>
									</g>
								</g>
							</g>
						</g>
						<g id="XMLID_201_">
							<g id="XMLID_202_">
								<g>
									<path class="st6" d="M41.9,16.8h1.4c0.1,0,0.2,0.1,0.2,0.2v5c0,0.1-0.1,0.2-0.2,0.2h-1.4c-0.1,0-0.2-0.1-0.2-0.2v-5
										C41.7,16.9,41.8,16.8,41.9,16.8z"/>
								</g>
							</g>
						</g>
						<g id="XMLID_199_">
							<g id="XMLID_200_">
								<g>
									<g>
										<rect x="41.7" y="18.6" class="st7" width="1.8" height="1.9"/>
									</g>
								</g>
							</g>
						</g>
						<g id="XMLID_197_">
							<g id="XMLID_198_">
								<g>
									<path class="st6" d="M45.1,16.8h1.4c0.1,0,0.2,0.1,0.2,0.2v5c0,0.1-0.1,0.2-0.2,0.2h-1.4C45,22.2,45,22.1,45,22v-5
										C45,16.9,45,16.8,45.1,16.8z"/>
								</g>
							</g>
						</g>
						<g id="XMLID_193_">
							<g id="XMLID_194_">
								<g>
									<path class="st7" d="M56.5,13.6H58c0.1,0,0.2,0,0.2,0.1v2.6c0,0.1-0.1,0.1-0.2,0.1h-1.4c-0.1,0-0.2,0-0.2-0.1v-2.6
										C56.4,13.6,56.4,13.6,56.5,13.6z"/>
								</g>
							</g>
						</g>
						<g id="XMLID_195_">
							<g id="XMLID_196_">
								<g>
									<g>
										<rect x="45" y="18.6" class="st7" width="1.8" height="1.9"/>
									</g>
								</g>
							</g>
						</g>
						<g id="XMLID_190_">
							<g id="XMLID_192_">
								<g>
									<path class="st7" d="M59.3,17.7c-0.5,0-1,0.5-1,1s0.5,1,1,1s1-0.5,1-1S59.9,17.7,59.3,17.7z M59.3,19.1
										c-0.2,0-0.4-0.2-0.4-0.4s0.2-0.4,0.4-0.4s0.4,0.2,0.4,0.4S59.5,19.1,59.3,19.1z"/>
								</g>
							</g>
							<g id="XMLID_191_">
								<g>
									<path class="st7" d="M68.1,17.7c-0.5,0-1,0.5-1,1s0.5,1,1,1s1-0.5,1-1C69.1,18.1,68.6,17.7,68.1,17.7z M68.1,19.1
										c-0.2,0-0.4-0.2-0.4-0.4s0.2-0.4,0.4-0.4c0.2,0,0.4,0.2,0.4,0.4S68.3,19.1,68.1,19.1z"/>
								</g>
							</g>
						</g>
						<g>
							<g>
								<path class="st6" d="M43.6,31.7h-0.3c-0.1,0-0.2-0.1-0.2-0.2v-0.9c0-0.1,0.1-0.2,0.2-0.2h0.3c0.1,0,0.2,0.1,0.2,0.2v0.9
									C43.8,31.7,43.7,31.7,43.6,31.7z"/>
							</g>
						</g>
						<g>
							<g>
								<path class="st6" d="M44.6,31.7h-0.3c-0.1,0-0.2-0.1-0.2-0.2v-0.9c0-0.1,0.1-0.2,0.2-0.2h0.3c0.1,0,0.2,0.1,0.2,0.2v0.9
									C44.8,31.7,44.7,31.7,44.6,31.7z"/>
							</g>
						</g>
						<g>
							<g>
								<path class="st6" d="M45.6,31.7h-0.3c-0.1,0-0.2-0.1-0.2-0.2v-0.9c0-0.1,0.1-0.2,0.2-0.2h0.3c0.1,0,0.2,0.1,0.2,0.2v0.9
									C45.7,31.7,45.7,31.7,45.6,31.7z"/>
							</g>
						</g>
						<g>
							<g>
								<path class="st6" d="M46.5,31.7h-0.3c-0.1,0-0.2-0.1-0.2-0.2v-0.9c0-0.1,0.1-0.2,0.2-0.2h0.3c0.1,0,0.2,0.1,0.2,0.2v0.9
									C46.7,31.7,46.6,31.7,46.5,31.7z"/>
							</g>
						</g>
						<g>
							<g>
								<path class="st6" d="M47.5,31.7h-0.3c-0.1,0-0.2-0.1-0.2-0.2v-0.9c0-0.1,0.1-0.2,0.2-0.2h0.3c0.1,0,0.2,0.1,0.2,0.2v0.9
									C47.7,31.7,47.6,31.7,47.5,31.7z"/>
							</g>
						</g>
						<g>
							<g>
								<path class="st6" d="M48.5,31.7h-0.3c-0.1,0-0.2-0.1-0.2-0.2v-0.9c0-0.1,0.1-0.2,0.2-0.2h0.3c0.1,0,0.2,0.1,0.2,0.2v0.9
									C48.7,31.7,48.6,31.7,48.5,31.7z"/>
							</g>
						</g>
						<g>
							<g>
								<path class="st6" d="M49.5,31.7h-0.3c-0.1,0-0.2-0.1-0.2-0.2v-0.9c0-0.1,0.1-0.2,0.2-0.2h0.3c0.1,0,0.2,0.1,0.2,0.2v0.9
									C49.7,31.7,49.6,31.7,49.5,31.7z"/>
							</g>
						</g>
						<g>
							<g>
								<path class="st6" d="M50.5,31.7h-0.3c-0.1,0-0.2-0.1-0.2-0.2v-0.9c0-0.1,0.1-0.2,0.2-0.2h0.3c0.1,0,0.2,0.1,0.2,0.2v0.9
									C50.7,31.7,50.6,31.7,50.5,31.7z"/>
							</g>
						</g>
						<g>
							<g>
								<path class="st6" d="M51.5,31.7h-0.3c-0.1,0-0.2-0.1-0.2-0.2v-0.9c0-0.1,0.1-0.2,0.2-0.2h0.3c0.1,0,0.2,0.1,0.2,0.2v0.9
									C51.6,31.7,51.6,31.7,51.5,31.7z"/>
							</g>
						</g>
						<g>
							<g>
								<path class="st6" d="M52.4,31.7h-0.3c-0.1,0-0.2-0.1-0.2-0.2v-0.9c0-0.1,0.1-0.2,0.2-0.2h0.3c0.1,0,0.2,0.1,0.2,0.2v0.9
									C52.6,31.7,52.5,31.7,52.4,31.7z"/>
							</g>
						</g>
						<g>
							<g>
								<path class="st6" d="M43.6,43h-0.3c-0.1,0-0.2-0.1-0.2-0.2v-0.9c0-0.1,0.1-0.2,0.2-0.2h0.3c0.1,0,0.2,0.1,0.2,0.2v0.9
									C43.8,42.9,43.7,43,43.6,43z"/>
							</g>
						</g>
						<g>
							<g>
								<path class="st6" d="M44.6,43h-0.3c-0.1,0-0.2-0.1-0.2-0.2v-0.9c0-0.1,0.1-0.2,0.2-0.2h0.3c0.1,0,0.2,0.1,0.2,0.2v0.9
									C44.8,42.9,44.7,43,44.6,43z"/>
							</g>
						</g>
						<g>
							<g>
								<path class="st6" d="M45.6,43h-0.3c-0.1,0-0.2-0.1-0.2-0.2v-0.9c0-0.1,0.1-0.2,0.2-0.2h0.3c0.1,0,0.2,0.1,0.2,0.2v0.9
									C45.7,42.9,45.7,43,45.6,43z"/>
							</g>
						</g>
						<g>
							<g>
								<path class="st6" d="M46.5,43h-0.3c-0.1,0-0.2-0.1-0.2-0.2v-0.9c0-0.1,0.1-0.2,0.2-0.2h0.3c0.1,0,0.2,0.1,0.2,0.2v0.9
									C46.7,42.9,46.6,43,46.5,43z"/>
							</g>
						</g>
						<g>
							<g>
								<path class="st6" d="M47.5,43h-0.3c-0.1,0-0.2-0.1-0.2-0.2v-0.9c0-0.1,0.1-0.2,0.2-0.2h0.3c0.1,0,0.2,0.1,0.2,0.2v0.9
									C47.7,42.9,47.6,43,47.5,43z"/>
							</g>
						</g>
						<g>
							<g>
								<path class="st6" d="M48.5,43h-0.3c-0.1,0-0.2-0.1-0.2-0.2v-0.9c0-0.1,0.1-0.2,0.2-0.2h0.3c0.1,0,0.2,0.1,0.2,0.2v0.9
									C48.7,42.9,48.6,43,48.5,43z"/>
							</g>
						</g>
						<g>
							<g>
								<path class="st6" d="M49.5,43h-0.3c-0.1,0-0.2-0.1-0.2-0.2v-0.9c0-0.1,0.1-0.2,0.2-0.2h0.3c0.1,0,0.2,0.1,0.2,0.2v0.9
									C49.7,42.9,49.6,43,49.5,43z"/>
							</g>
						</g>
						<g>
							<g>
								<path class="st6" d="M50.5,43h-0.3C50,43,50,42.9,50,42.8v-0.9c0-0.1,0.1-0.2,0.2-0.2h0.3c0.1,0,0.2,0.1,0.2,0.2v0.9
									C50.7,42.9,50.6,43,50.5,43z"/>
							</g>
						</g>
						<g>
							<g>
								<path class="st6" d="M51.5,43h-0.3C51,43,51,42.9,51,42.8v-0.9c0-0.1,0.1-0.2,0.2-0.2h0.3c0.1,0,0.2,0.1,0.2,0.2v0.9
									C51.6,42.9,51.6,43,51.5,43z"/>
							</g>
						</g>
						<g>
							<g>
								<path class="st6" d="M52.4,43h-0.3c-0.1,0-0.2-0.1-0.2-0.2v-0.9c0-0.1,0.1-0.2,0.2-0.2h0.3c0.1,0,0.2,0.1,0.2,0.2v0.9
									C52.6,42.9,52.5,43,52.4,43z"/>
							</g>
						</g>
						<g>
							<g>
								<path class="st6" d="M53.1,32.5v-0.3c0-0.1,0.1-0.2,0.2-0.2h0.9c0.1,0,0.2,0.1,0.2,0.2v0.3c0,0.1-0.1,0.2-0.2,0.2h-0.9
									C53.2,32.6,53.1,32.6,53.1,32.5z"/>
							</g>
						</g>
						<g>
							<g>
								<path class="st6" d="M53.1,33.4v-0.3c0-0.1,0.1-0.2,0.2-0.2h0.9c0.1,0,0.2,0.1,0.2,0.2v0.3c0,0.1-0.1,0.2-0.2,0.2h-0.9
									C53.2,33.6,53.1,33.5,53.1,33.4z"/>
							</g>
						</g>
						<g>
							<g>
								<path class="st6" d="M53.1,34.4v-0.3c0-0.1,0.1-0.2,0.2-0.2h0.9c0.1,0,0.2,0.1,0.2,0.2v0.3c0,0.1-0.1,0.2-0.2,0.2h-0.9
									C53.2,34.6,53.1,34.5,53.1,34.4z"/>
							</g>
						</g>
						<g>
							<g>
								<path class="st6" d="M53.1,35.4v-0.3c0-0.1,0.1-0.2,0.2-0.2h0.9c0.1,0,0.2,0.1,0.2,0.2v0.3c0,0.1-0.1,0.2-0.2,0.2h-0.9
									C53.2,35.6,53.1,35.5,53.1,35.4z"/>
							</g>
						</g>
						<g>
							<g>
								<path class="st6" d="M53.1,36.4v-0.3c0-0.1,0.1-0.2,0.2-0.2h0.9c0.1,0,0.2,0.1,0.2,0.2v0.3c0,0.1-0.1,0.2-0.2,0.2h-0.9
									C53.2,36.6,53.1,36.5,53.1,36.4z"/>
							</g>
						</g>
						<g>
							<g>
								<path class="st6" d="M53.1,37.4v-0.3c0-0.1,0.1-0.2,0.2-0.2h0.9c0.1,0,0.2,0.1,0.2,0.2v0.3c0,0.1-0.1,0.2-0.2,0.2h-0.9
									C53.2,37.6,53.1,37.5,53.1,37.4z"/>
							</g>
						</g>
						<g>
							<g>
								<path class="st6" d="M53.1,38.4V38c0-0.1,0.1-0.2,0.2-0.2h0.9c0.1,0,0.2,0.1,0.2,0.2v0.3c0,0.1-0.1,0.2-0.2,0.2h-0.9
									C53.2,38.5,53.1,38.5,53.1,38.4z"/>
							</g>
						</g>
						<g>
							<g>
								<path class="st6" d="M53.1,39.3V39c0-0.1,0.1-0.2,0.2-0.2h0.9c0.1,0,0.2,0.1,0.2,0.2v0.3c0,0.1-0.1,0.2-0.2,0.2h-0.9
									C53.2,39.5,53.1,39.4,53.1,39.3z"/>
							</g>
						</g>
						<g>
							<g>
								<path class="st6" d="M53.1,40.3V40c0-0.1,0.1-0.2,0.2-0.2h0.9c0.1,0,0.2,0.1,0.2,0.2v0.3c0,0.1-0.1,0.2-0.2,0.2h-0.9
									C53.2,40.5,53.1,40.4,53.1,40.3z"/>
							</g>
						</g>
						<g>
							<g>
								<path class="st6" d="M53.1,41.3V41c0-0.1,0.1-0.2,0.2-0.2h0.9c0.1,0,0.2,0.1,0.2,0.2v0.3c0,0.1-0.1,0.2-0.2,0.2h-0.9
									C53.2,41.5,53.1,41.4,53.1,41.3z"/>
							</g>
						</g>
						<g>
							<g>
								<path class="st6" d="M41.3,32.5v-0.3c0-0.1,0.1-0.2,0.2-0.2h0.9c0.1,0,0.2,0.1,0.2,0.2v0.3c0,0.1-0.1,0.2-0.2,0.2h-0.9
									C41.4,32.6,41.3,32.6,41.3,32.5z"/>
							</g>
						</g>
						<g>
							<g>
								<path class="st6" d="M41.3,33.4v-0.3c0-0.1,0.1-0.2,0.2-0.2h0.9c0.1,0,0.2,0.1,0.2,0.2v0.3c0,0.1-0.1,0.2-0.2,0.2h-0.9
									C41.4,33.6,41.3,33.5,41.3,33.4z"/>
							</g>
						</g>
						<g>
							<g>
								<path class="st6" d="M41.3,34.4v-0.3c0-0.1,0.1-0.2,0.2-0.2h0.9c0.1,0,0.2,0.1,0.2,0.2v0.3c0,0.1-0.1,0.2-0.2,0.2h-0.9
									C41.4,34.6,41.3,34.5,41.3,34.4z"/>
							</g>
						</g>
						<g>
							<g>
								<path class="st6" d="M41.3,35.4v-0.3c0-0.1,0.1-0.2,0.2-0.2h0.9c0.1,0,0.2,0.1,0.2,0.2v0.3c0,0.1-0.1,0.2-0.2,0.2h-0.9
									C41.4,35.6,41.3,35.5,41.3,35.4z"/>
							</g>
						</g>
						<g>
							<g>
								<path class="st6" d="M41.3,36.4v-0.3c0-0.1,0.1-0.2,0.2-0.2h0.9c0.1,0,0.2,0.1,0.2,0.2v0.3c0,0.1-0.1,0.2-0.2,0.2h-0.9
									C41.4,36.6,41.3,36.5,41.3,36.4z"/>
							</g>
						</g>
						<g>
							<g>
								<path class="st6" d="M41.3,37.4v-0.3c0-0.1,0.1-0.2,0.2-0.2h0.9c0.1,0,0.2,0.1,0.2,0.2v0.3c0,0.1-0.1,0.2-0.2,0.2h-0.9
									C41.4,37.6,41.3,37.5,41.3,37.4z"/>
							</g>
						</g>
						<g>
							<g>
								<path class="st6" d="M41.3,38.4V38c0-0.1,0.1-0.2,0.2-0.2h0.9c0.1,0,0.2,0.1,0.2,0.2v0.3c0,0.1-0.1,0.2-0.2,0.2h-0.9
									C41.4,38.5,41.3,38.5,41.3,38.4z"/>
							</g>
						</g>
						<g>
							<g>
								<path class="st6" d="M41.3,39.3V39c0-0.1,0.1-0.2,0.2-0.2h0.9c0.1,0,0.2,0.1,0.2,0.2v0.3c0,0.1-0.1,0.2-0.2,0.2h-0.9
									C41.4,39.5,41.3,39.4,41.3,39.3z"/>
							</g>
						</g>
						<g>
							<g>
								<path class="st6" d="M41.3,40.3V40c0-0.1,0.1-0.2,0.2-0.2h0.9c0.1,0,0.2,0.1,0.2,0.2v0.3c0,0.1-0.1,0.2-0.2,0.2h-0.9
									C41.4,40.5,41.3,40.4,41.3,40.3z"/>
							</g>
						</g>
						<g>
							<g>
								<path class="st6" d="M41.3,41.3V41c0-0.1,0.1-0.2,0.2-0.2h0.9c0.1,0,0.2,0.1,0.2,0.2v0.3c0,0.1-0.1,0.2-0.2,0.2h-0.9
									C41.4,41.5,41.3,41.4,41.3,41.3z"/>
							</g>
						</g>
						<g id="XMLID_189_">
							<g>
								<rect x="42" y="31.1" class="st8" width="11.8" height="11.2"/>
							</g>
						</g>
						<g id="XMLID_219_">
							<g>
								<path class="st9" d="M58.3,47.8h-0.9c-0.3,0-0.6-0.3-0.6-0.6v-0.7c0-0.1,0.1-0.2,0.2-0.2s0.2,0.1,0.2,0.2v0.7
									c0,0.1,0,0.1,0.1,0.1h0.9c0.1,0,0.2,0.1,0.2,0.2S58.5,47.8,58.3,47.8z"/>
							</g>
						</g>
						<g id="XMLID_218_">
							<g>
								<path class="st9" d="M60.8,47.8H60c-0.1,0-0.2-0.1-0.2-0.2s0.1-0.2,0.2-0.2h0.8c0.1,0,0.1,0,0.1-0.1v-0.7
									c0-0.1,0.1-0.2,0.2-0.2s0.2,0.1,0.2,0.2v0.7C61.4,47.5,61.1,47.8,60.8,47.8z"/>
							</g>
						</g>
						<g id="XMLID_217_">
							<g>
								<path class="st9" d="M61.1,43.9c-0.1,0-0.2-0.1-0.2-0.2v-0.9c0-0.1,0-0.1-0.1-0.1h-1c-0.1,0-0.2-0.1-0.2-0.2
									s0.1-0.2,0.2-0.2h1c0.3,0,0.6,0.3,0.6,0.6v0.9C61.4,43.8,61.3,43.9,61.1,43.9z"/>
							</g>
						</g>
						<g id="XMLID_215_">
							<g>
								<path class="st9" d="M57.1,44c-0.1,0-0.2-0.1-0.2-0.2v-0.9c0-0.3,0.3-0.6,0.6-0.6h1c0.1,0,0.2,0.1,0.2,0.2s-0.1,0.2-0.2,0.2
									h-1c-0.1,0-0.1,0-0.1,0.1v0.9C57.3,43.8,57.2,44,57.1,44z"/>
							</g>
						</g>
						<g>
							<g>
								<g>
									<g>
										<path class="st6" d="M61.3,27.5H61c-0.1,0-0.1-0.1-0.1-0.1v-0.8c0-0.1,0.1-0.1,0.1-0.1h0.3c0.1,0,0.1,0.1,0.1,0.1v0.8
											C61.4,27.4,61.4,27.5,61.3,27.5z"/>
									</g>
								</g>
								<g>
									<g>
										<path class="st6" d="M62.3,27.5H62c-0.1,0-0.1-0.1-0.1-0.1v-0.8c0-0.1,0.1-0.1,0.1-0.1h0.3c0.1,0,0.1,0.1,0.1,0.1v0.8
											C62.4,27.4,62.4,27.5,62.3,27.5z"/>
									</g>
								</g>
								<g>
									<g>
										<path class="st6" d="M63.3,27.5h-0.3c-0.1,0-0.1-0.1-0.1-0.1v-0.8c0-0.1,0.1-0.1,0.1-0.1h0.3c0.1,0,0.1,0.1,0.1,0.1v0.8
											C63.4,27.4,63.3,27.5,63.3,27.5z"/>
									</g>
								</g>
								<g>
									<g>
										<path class="st6" d="M64.2,27.5h-0.3c-0.1,0-0.1-0.1-0.1-0.1v-0.8c0-0.1,0.1-0.1,0.1-0.1h0.3c0.1,0,0.1,0.1,0.1,0.1v0.8
											C64.4,27.4,64.3,27.5,64.2,27.5z"/>
									</g>
								</g>
								<g>
									<g>
										<path class="st6" d="M65.2,27.5h-0.3c-0.1,0-0.1-0.1-0.1-0.1v-0.8c0-0.1,0.1-0.1,0.1-0.1h0.3c0.1,0,0.1,0.1,0.1,0.1v0.8
											C65.4,27.4,65.3,27.5,65.2,27.5z"/>
									</g>
								</g>
								<g>
									<g>
										<path class="st6" d="M66.2,27.5h-0.3c-0.1,0-0.1-0.1-0.1-0.1v-0.8c0-0.1,0.1-0.1,0.1-0.1h0.3c0.1,0,0.1,0.1,0.1,0.1v0.8
											C66.3,27.4,66.3,27.5,66.2,27.5z"/>
									</g>
								</g>
								<g>
									<g>
										<path class="st6" d="M67.2,27.5h-0.3c-0.1,0-0.1-0.1-0.1-0.1v-0.8c0-0.1,0.1-0.1,0.1-0.1h0.3c0.1,0,0.1,0.1,0.1,0.1v0.8
											C67.3,27.4,67.3,27.5,67.2,27.5z"/>
									</g>
								</g>
							</g>
							<g>
								<g>
									<g>
										<path class="st6" d="M61.3,35.8H61c-0.1,0-0.1-0.1-0.1-0.1v-0.8c0-0.1,0.1-0.1,0.1-0.1h0.3c0.1,0,0.1,0.1,0.1,0.1v0.8
											C61.4,35.7,61.4,35.8,61.3,35.8z"/>
									</g>
								</g>
								<g>
									<g>
										<path class="st6" d="M62.3,35.8H62c-0.1,0-0.1-0.1-0.1-0.1v-0.8c0-0.1,0.1-0.1,0.1-0.1h0.3c0.1,0,0.1,0.1,0.1,0.1v0.8
											C62.4,35.7,62.4,35.8,62.3,35.8z"/>
									</g>
								</g>
								<g>
									<g>
										<path class="st6" d="M63.3,35.8h-0.3c-0.1,0-0.1-0.1-0.1-0.1v-0.8c0-0.1,0.1-0.1,0.1-0.1h0.3c0.1,0,0.1,0.1,0.1,0.1v0.8
											C63.4,35.7,63.3,35.8,63.3,35.8z"/>
									</g>
								</g>
								<g>
									<g>
										<path class="st6" d="M64.2,35.8h-0.3c-0.1,0-0.1-0.1-0.1-0.1v-0.8c0-0.1,0.1-0.1,0.1-0.1h0.3c0.1,0,0.1,0.1,0.1,0.1v0.8
											C64.4,35.7,64.3,35.8,64.2,35.8z"/>
									</g>
								</g>
								<g>
									<g>
										<path class="st6" d="M65.2,35.8h-0.3c-0.1,0-0.1-0.1-0.1-0.1v-0.8c0-0.1,0.1-0.1,0.1-0.1h0.3c0.1,0,0.1,0.1,0.1,0.1v0.8
											C65.4,35.7,65.3,35.8,65.2,35.8z"/>
									</g>
								</g>
								<g>
									<g>
										<path class="st6" d="M66.2,35.8h-0.3c-0.1,0-0.1-0.1-0.1-0.1v-0.8c0-0.1,0.1-0.1,0.1-0.1h0.3c0.1,0,0.1,0.1,0.1,0.1v0.8
											C66.3,35.7,66.3,35.8,66.2,35.8z"/>
									</g>
								</g>
								<g>
									<g>
										<path class="st6" d="M67.2,35.8h-0.3c-0.1,0-0.1-0.1-0.1-0.1v-0.8c0-0.1,0.1-0.1,0.1-0.1h0.3c0.1,0,0.1,0.1,0.1,0.1v0.8
											C67.3,35.7,67.3,35.8,67.2,35.8z"/>
									</g>
								</g>
							</g>
							<g>
								<g>
									<g>
										<path class="st6" d="M68.1,28.3V28c0-0.1,0.1-0.1,0.1-0.1H69c0.1,0,0.1,0.1,0.1,0.1v0.3c0,0.1-0.1,0.1-0.1,0.1h-0.8
											C68.2,28.5,68.1,28.4,68.1,28.3z"/>
									</g>
								</g>
								<g>
									<g>
										<path class="st6" d="M68.1,29.3V29c0-0.1,0.1-0.1,0.1-0.1H69c0.1,0,0.1,0.1,0.1,0.1v0.3c0,0.1-0.1,0.1-0.1,0.1h-0.8
											C68.2,29.4,68.1,29.4,68.1,29.3z"/>
									</g>
								</g>
								<g>
									<g>
										<path class="st6" d="M68.1,30.3V30c0-0.1,0.1-0.1,0.1-0.1H69c0.1,0,0.1,0.1,0.1,0.1v0.3c0,0.1-0.1,0.1-0.1,0.1h-0.8
											C68.2,30.4,68.1,30.4,68.1,30.3z"/>
									</g>
								</g>
								<g>
									<g>
										<path class="st6" d="M68.1,31.3V31c0-0.1,0.1-0.1,0.1-0.1H69c0.1,0,0.1,0.1,0.1,0.1v0.3c0,0.1-0.1,0.1-0.1,0.1h-0.8
											C68.2,31.4,68.1,31.3,68.1,31.3z"/>
									</g>
								</g>
								<g>
									<g>
										<path class="st6" d="M68.1,32.3v-0.3c0-0.1,0.1-0.1,0.1-0.1H69c0.1,0,0.1,0.1,0.1,0.1v0.3c0,0.1-0.1,0.1-0.1,0.1h-0.8
											C68.2,32.4,68.1,32.3,68.1,32.3z"/>
									</g>
								</g>
								<g>
									<g>
										<path class="st6" d="M68.1,33.2v-0.3c0-0.1,0.1-0.1,0.1-0.1H69c0.1,0,0.1,0.1,0.1,0.1v0.3c0,0.1-0.1,0.1-0.1,0.1h-0.8
											C68.2,33.4,68.1,33.3,68.1,33.2z"/>
									</g>
								</g>
								<g>
									<g>
										<path class="st6" d="M68.1,34.2v-0.3c0-0.1,0.1-0.1,0.1-0.1H69c0.1,0,0.1,0.1,0.1,0.1v0.3c0,0.1-0.1,0.1-0.1,0.1h-0.8
											C68.2,34.3,68.1,34.3,68.1,34.2z"/>
									</g>
								</g>
							</g>
							<g>
								<g>
									<g>
										<path class="st6" d="M59.2,28.3V28c0-0.1,0.1-0.1,0.1-0.1h0.8c0.1,0,0.1,0.1,0.1,0.1v0.3c0,0.1-0.1,0.1-0.1,0.1h-0.8
											C59.3,28.5,59.2,28.4,59.2,28.3z"/>
									</g>
								</g>
								<g>
									<g>
										<path class="st6" d="M59.2,29.3V29c0-0.1,0.1-0.1,0.1-0.1h0.8c0.1,0,0.1,0.1,0.1,0.1v0.3c0,0.1-0.1,0.1-0.1,0.1h-0.8
											C59.3,29.4,59.2,29.4,59.2,29.3z"/>
									</g>
								</g>
								<g>
									<g>
										<path class="st6" d="M59.2,30.3V30c0-0.1,0.1-0.1,0.1-0.1h0.8c0.1,0,0.1,0.1,0.1,0.1v0.3c0,0.1-0.1,0.1-0.1,0.1h-0.8
											C59.3,30.4,59.2,30.4,59.2,30.3z"/>
									</g>
								</g>
								<g>
									<g>
										<path class="st6" d="M59.2,31.3V31c0-0.1,0.1-0.1,0.1-0.1h0.8c0.1,0,0.1,0.1,0.1,0.1v0.3c0,0.1-0.1,0.1-0.1,0.1h-0.8
											C59.3,31.4,59.2,31.3,59.2,31.3z"/>
									</g>
								</g>
								<g>
									<g>
										<path class="st6" d="M59.2,32.3v-0.3c0-0.1,0.1-0.1,0.1-0.1h0.8c0.1,0,0.1,0.1,0.1,0.1v0.3c0,0.1-0.1,0.1-0.1,0.1h-0.8
											C59.3,32.4,59.2,32.3,59.2,32.3z"/>
									</g>
								</g>
								<g>
									<g>
										<path class="st6" d="M59.2,33.2v-0.3c0-0.1,0.1-0.1,0.1-0.1h0.8c0.1,0,0.1,0.1,0.1,0.1v0.3c0,0.1-0.1,0.1-0.1,0.1h-0.8
											C59.3,33.4,59.2,33.3,59.2,33.2z"/>
									</g>
								</g>
								<g>
									<g>
										<path class="st6" d="M59.2,34.2v-0.3c0-0.1,0.1-0.1,0.1-0.1h0.8c0.1,0,0.1,0.1,0.1,0.1v0.3c0,0.1-0.1,0.1-0.1,0.1h-0.8
											C59.3,34.3,59.2,34.3,59.2,34.2z"/>
									</g>
								</g>
							</g>
						</g>
						<g id="XMLID_188_">
							<g>
								<rect x="59.9" y="27.1" class="st8" width="8.5" height="8"/>
							</g>
						</g>
						<g id="XMLID_214_">
							<g>
								<path class="st8" d="M57.4,47.5c-0.2,0-0.3-0.1-0.3-0.3v-4.5c0-0.2,0.1-0.3,0.3-0.3h3.4c0.2,0,0.3,0.1,0.3,0.3v4.5
									c0,0.2-0.1,0.3-0.3,0.3"/>
							</g>
						</g>
					</g>
					<g id="XMLID_141_">
						<g id="XMLID_164_">
							<g id="XMLID_168_">
								<g>
									<g>
										<circle class="st7" cx="31.1" cy="19.4" r="4.3"/>
									</g>
								</g>
								<g>
									<g>
										<circle class="st7" cx="31.1" cy="52.7" r="4.3"/>
									</g>
								</g>
								<g>
									<g>
										<circle class="st7" cx="77.2" cy="19.4" r="4.3"/>
									</g>
								</g>
								<g>
									<g>
										<circle class="st7" cx="77.2" cy="52.7" r="4.3"/>
									</g>
								</g>
								<g id="XMLID_185_">
									<g>
										<rect x="20" y="11.5" class="st9" width="14.3" height="47.4"/>
									</g>
								</g>
								<g id="XMLID_182_">
									<g>
										<path class="st10" d="M24.1,18.9l0.1-2.7c0-0.1,0.1-0.1,0.1-0.1l2.1,1.3c0.1,0,0.1,0.1,0,0.2l-2.2,1.3
											C24.2,19,24.1,18.9,24.1,18.9z"/>
									</g>
								</g>
								<g id="XMLID_181_">
									<g>
										<path class="st10" d="M30.2,16.2v2.7c0,0.1-0.1,0.1-0.1,0.1l-2.1-1.3c-0.1,0-0.1-0.1,0-0.2l2.1-1.3
											C30.1,16.1,30.2,16.1,30.2,16.2z"/>
									</g>
								</g>
								<g id="XMLID_169_">
									<g id="XMLID_180_">
										<g>
											<rect x="26.2" y="49.2" class="st7" width="2" height="1.1"/>
										</g>
									</g>
									<g id="XMLID_179_">
										<g>
											<rect x="26.2" y="46.2" class="st7" width="2" height="1.1"/>
										</g>
									</g>
									<g id="XMLID_178_">
										<g>
											<rect x="26.2" y="43.4" class="st7" width="2" height="1.1"/>
										</g>
									</g>
									<g id="XMLID_177_">
										<g>
											<rect x="26.2" y="40.5" class="st7" width="2" height="1.1"/>
										</g>
									</g>
									<g id="XMLID_176_">
										<g>
											<rect x="26.2" y="37.6" class="st7" width="2" height="1.1"/>
										</g>
									</g>
									<g id="XMLID_175_">
										<g>
											<rect x="26.2" y="34.7" class="st7" width="2" height="1.1"/>
										</g>
									</g>
									<g id="XMLID_174_">
										<g>
											<rect x="26.2" y="31.8" class="st7" width="2" height="1.1"/>
										</g>
									</g>
									<g id="XMLID_173_">
										<g>
											<rect x="26.2" y="28.9" class="st7" width="2" height="1.1"/>
										</g>
									</g>
									<g id="XMLID_172_">
										<g>
											<rect x="26.2" y="26" class="st7" width="2" height="1.1"/>
										</g>
									</g>
									<g id="XMLID_171_">
										<g>
											<rect x="26.2" y="23.1" class="st7" width="2" height="1.1"/>
										</g>
									</g>
									<g id="XMLID_170_">
										<g>
											<rect x="26.2" y="20.2" class="st7" width="2" height="1.1"/>
										</g>
									</g>
								</g>
							</g>
							<g id="XMLID_165_">
								<g id="XMLID_167_">
									<g>
										<rect x="18.2" y="11.5" class="st9" width="1.8" height="1.3"/>
									</g>
								</g>
								<g id="XMLID_166_">
									<g>
										<rect x="18.2" y="57.6" class="st9" width="1.8" height="1.3"/>
									</g>
								</g>
							</g>
						</g>
						<g id="XMLID_142_">
							<g id="XMLID_146_">
								<g id="XMLID_163_">
									<g>
										<rect x="73.9" y="11.6" class="st9" width="14.3" height="47.4"/>
									</g>
								</g>
								<g id="XMLID_162_">
									<g>
										<path class="st10" d="M77.7,18.9l0.1-2.7c0-0.1,0.1-0.1,0.1-0.1l2.1,1.3c0.1,0,0.1,0.1,0,0.2l-2.2,1.3
											C77.8,19,77.7,18.9,77.7,18.9z"/>
									</g>
								</g>
								<g id="XMLID_161_">
									<g>
										<path class="st10" d="M83.8,16.2v2.7c0,0.1-0.1,0.1-0.1,0.1l-2.1-1.3c-0.1,0-0.1-0.1,0-0.2l2.1-1.3
											C83.7,16.1,83.8,16.1,83.8,16.2z"/>
									</g>
								</g>
								<g id="XMLID_184_">
									<g>
										<path class="st10" d="M24.1,53.9l0.1-2.7c0-0.1,0.1-0.1,0.1-0.1l2.1,1.3c0.1,0,0.1,0.1,0,0.2L24.2,54
											C24.2,54.1,24.1,54,24.1,53.9z"/>
									</g>
								</g>
								<g id="XMLID_183_">
									<g>
										<path class="st10" d="M30.2,51.3v2.7c0,0.1-0.1,0.1-0.1,0.1l-2.1-1.3c-0.1,0-0.1-0.1,0-0.2l2.1-1.3
											C30.1,51.2,30.2,51.2,30.2,51.3z"/>
									</g>
								</g>
								<g id="XMLID_160_">
									<g>
										<path class="st10" d="M77.7,53.9l0.1-2.7c0-0.1,0.1-0.1,0.1-0.1l2.1,1.3c0.1,0,0.1,0.1,0,0.2L77.8,54
											C77.8,54.1,77.7,54,77.7,53.9z"/>
									</g>
								</g>
								<g id="XMLID_159_">
									<g>
										<path class="st10" d="M83.8,51.3v2.7c0,0.1-0.1,0.1-0.1,0.1l-2.1-1.3c-0.1,0-0.1-0.1,0-0.2l2.1-1.3
											C83.7,51.2,83.8,51.2,83.8,51.3z"/>
									</g>
								</g>
								<g id="XMLID_147_">
									<g>
										<g id="XMLID_158_">
											<g>
												<rect x="79.9" y="20.3" class="st7" width="2" height="1.1"/>
											</g>
										</g>
										<g id="XMLID_157_">
											<g>
												<rect x="79.9" y="23.2" class="st7" width="2" height="1.1"/>
											</g>
										</g>
										<g id="XMLID_156_">
											<g>
												<rect x="79.9" y="26.1" class="st7" width="2" height="1.1"/>
											</g>
										</g>
										<g id="XMLID_155_">
											<g>
												<rect x="79.9" y="29" class="st7" width="2" height="1.1"/>
											</g>
										</g>
										<g id="XMLID_154_">
											<g>
												<rect x="79.9" y="31.8" class="st7" width="2" height="1.1"/>
											</g>
										</g>
										<g id="XMLID_153_">
											<g>
												<rect x="79.9" y="34.7" class="st7" width="2" height="1.1"/>
											</g>
										</g>
										<g id="XMLID_152_">
											<g>
												<rect x="79.9" y="37.7" class="st7" width="2" height="1.1"/>
											</g>
										</g>
										<g id="XMLID_151_">
											<g>
												<rect x="79.9" y="40.5" class="st7" width="2" height="1.1"/>
											</g>
										</g>
										<g id="XMLID_150_">
											<g>
												<rect x="79.9" y="43.4" class="st7" width="2" height="1.1"/>
											</g>
										</g>
										<g id="XMLID_149_">
											<g>
												<rect x="79.9" y="46.3" class="st7" width="2" height="1.1"/>
											</g>
										</g>
										<g id="XMLID_148_">
											<g>
												<rect x="79.9" y="49.2" class="st7" width="2" height="1.1"/>
											</g>
										</g>
									</g>
								</g>
							</g>
							<g id="XMLID_143_">
								<g id="XMLID_145_">
									<g>
										<rect x="88.1" y="57.6" class="st9" width="1.8" height="1.3"/>
									</g>
								</g>
								<g id="XMLID_144_">
									<g>
										<rect x="88.2" y="11.6" class="st9" width="1.8" height="1.3"/>
									</g>
								</g>
							</g>
						</g>
					</g>
					<g id="XMLID_140_">
						<g>
							<polygon class="st11" points="41.4,11.6 45.3,11.6 45.6,12.5 41.1,12.5 							"/>
						</g>
					</g>
					<g id="XMLID_139_">
						<g>
							<polygon class="st11" points="70.9,12.5 56.7,12.5 57,11.6 70.5,11.6 							"/>
						</g>
					</g>
				</g>
				<g id="XMLID_137_">
				</g>
				<g id="XMLID_136_">
				</g>
			</g>
			<g id="XMLID_130_">
				<g id="XMLID_132_">
					<g>
						<path class="st0" d="M71.4,55.7h-1.1c-0.1,0-0.1-0.1-0.1-0.1s0.1-0.1,0.1-0.1h1.1c0.3,0,0.6-0.3,0.6-0.6v-6.3
							c0-0.1,0.1-0.1,0.1-0.1s0.1,0.1,0.1,0.1v6.3C72.2,55.2,71.9,55.7,71.4,55.7z"/>
					</g>
				</g>
				<g id="XMLID_131_">
					<g>
						<path class="st0" d="M70.9,56.2c0,0-0.1,0-0.1,0l-0.6-0.6c0,0,0-0.1,0-0.1c0,0,0-0.1,0.1-0.1l0.6-0.5c0.1,0,0.1,0,0.2,0
							c0,0.1,0,0.1,0,0.2l-0.5,0.4l0.5,0.5c0.1,0.1,0.1,0.1,0,0.2C71,56.2,70.9,56.2,70.9,56.2z"/>
					</g>
				</g>
			</g>
			<g id="XMLID_127_">
				<g id="XMLID_129_">
					<g>
						<path class="st0" d="M36.6,44.4c-0.1,0-0.1-0.1-0.1-0.1v-1.4c0-0.4,0.4-0.8,0.8-0.8h4.3c0.1,0,0.1,0.1,0.1,0.1
							s-0.1,0.1-0.1,0.1h-4.3c-0.3,0-0.6,0.3-0.6,0.6v1.4C36.7,44.3,36.7,44.4,36.6,44.4z"/>
					</g>
				</g>
				<g id="XMLID_128_">
					<g>
						<path class="st0" d="M41,43c0,0-0.1,0-0.1,0c-0.1-0.1-0.1-0.1,0-0.2l0.5-0.5l-0.5-0.5c-0.1-0.1-0.1-0.1,0-0.2
							c0.1-0.1,0.1-0.1,0.2,0l0.6,0.6c0.1,0.1,0.1,0.1,0,0.2l-0.6,0.6C41.1,43,41,43,41,43z"/>
					</g>
				</g>
			</g>
			<text transform="matrix(1 0 0 1 35.5625 46.3799)" class="st9 st12 st13">Processor</text>
			<text transform="matrix(1 0 0 1 65.0625 46.8799)" class="st9 st12 st13">Antenna</text>
			<text transform="matrix(1 0 0 1 62.5625 15.7549)" class="st9 st12 st13">USB</text>
			<text transform="matrix(1 0 0 1 41.0625 15.4424)" class="st9 st12 st13">Reset</text>
			<text transform="matrix(6.123234e-17 -1 1 6.123234e-17 40.2456 28.1973)" class="st9 st12 st13">Power</text>
			<text transform="matrix(6.123234e-17 -1 1 6.123234e-17 43.4331 28.1973)" class="st9 st12 st13">TXRX</text>
			<text transform="matrix(6.123234e-17 -1 1 6.123234e-17 46.3706 28.1973)" class="st9 st12 st13">Status</text>
		</g>
		<g>
			<circle class="st14" cx="39.6" cy="14.7" r="0.8"/>
		</g>
		<g>
			<circle class="st11" cx="39.6" cy="14.7" r="0.5"/>
		</g>
		<g>
			<circle class="st14" cx="46.8" cy="14.7" r="0.8"/>
		</g>
		<g>
			<circle class="st11" cx="46.8" cy="14.7" r="0.5"/>
		</g>
		<g>
			<path class="st6" d="M53.8,28.5H51c-0.2,0-0.4-0.2-0.4-0.4v-1.3c0-0.2,0.2-0.4,0.4-0.4h2.8c0.2,0,0.4,0.2,0.4,0.4v1.3
				C54.2,28.3,54,28.5,53.8,28.5z"/>
		</g>
		<g>
			<path class="st6" d="M52,29.7h-1.7c-0.1,0-0.1,0-0.1-0.1V29c0-0.1,0-0.1,0.1-0.1H52c0.1,0,0.1,0,0.1,0.1v0.6
				C52.1,29.7,52.1,29.7,52,29.7z"/>
		</g>
		<g>
			<path class="st6" d="M54.6,29.7h-1.7c-0.1,0-0.1,0-0.1-0.1V29c0-0.1,0-0.1,0.1-0.1h1.7c0.1,0,0.1,0,0.1,0.1v0.6
				C54.7,29.7,54.7,29.7,54.6,29.7z"/>
		</g>
		<g>
			<g>
				<g>
					<path class="st9" d="M71.3,41.8c0,0.1-0.1,0.1-0.1,0.2c0,0.1,0,0.1,0,0.2c0,0.1,0,0.2,0.1,0.3c0,0.1,0.1,0.1,0.1,0.2
						c0.1,0.1,0.1,0.1,0.2,0.1s0.2,0,0.3,0c0.1,0,0.2,0,0.3,0c0.1,0,0.2-0.1,0.2-0.1c0.1-0.1,0.1-0.1,0.1-0.2c0-0.1,0.1-0.2,0.1-0.3
						c0,0,0-0.1,0-0.1c0,0,0-0.1,0-0.1H72c0,0,0,0-0.1,0c0,0,0,0,0-0.1v-0.5c0,0,0,0,0-0.1c0,0,0,0,0.1,0h0.8c0,0,0.1,0,0.1,0.1
						c0,0.1,0.1,0.1,0.1,0.2c0,0.1,0,0.1,0.1,0.2c0,0.1,0,0.1,0,0.2c0,0.1,0,0.1,0,0.2c0,0.1,0,0.2,0,0.4c0,0.1-0.1,0.2-0.1,0.3
						c-0.1,0.1-0.1,0.2-0.2,0.3c-0.1,0.1-0.2,0.1-0.3,0.2c-0.1,0.1-0.2,0.1-0.3,0.1c-0.1,0-0.2,0-0.4,0c-0.1,0-0.2,0-0.4,0
						c-0.1,0-0.2-0.1-0.3-0.1c-0.1-0.1-0.2-0.1-0.3-0.2c-0.1-0.1-0.2-0.2-0.2-0.3c-0.1-0.1-0.1-0.2-0.1-0.3c0-0.1,0-0.2,0-0.4
						c0-0.1,0-0.3,0.1-0.4c0-0.1,0.1-0.2,0.2-0.3c0,0,0,0,0,0c0,0,0,0,0.1,0l0.4,0.3C71.3,41.7,71.3,41.7,71.3,41.8
						C71.3,41.7,71.3,41.8,71.3,41.8z"/>
				</g>
				<g>
					<path class="st9" d="M71,40.9C71,40.9,71,40.9,71,40.9C71,40.8,70.9,40.8,71,40.9c-0.1-0.1-0.1-0.1-0.1-0.1v-0.3c0,0,0,0,0-0.1
						c0.1-0.1,0.2-0.1,0.2-0.1c0,0-0.2-0.1-0.2-0.2c-0.1-0.2,0-0.5,0.1-0.5c0.1,0.1,0.4,0.2,0.5,0.2c0.1,0,0,0.1,0,0.2
						c0,0.1,0,0.1,0,0.2c0.1,0.1,0.1,0.1,0.2,0.1l1.2,0c0,0,0.1,0,0.1,0c0,0,0,0.1,0,0.1v0.4c0,0.1,0,0.1-0.1,0.1H71z"/>
				</g>
				<g>
					<path class="st9" d="M71.1,37.2c0,0-0.1,0-0.1,0c0,0-0.1,0-0.1-0.1v-0.4c0,0,0-0.1,0-0.1c0,0,0,0,0.1,0c0.1,0,0.1,0,0.2-0.1
						c0.1,0,0.2,0,0.2-0.1c0.1,0,0.2-0.1,0.2-0.1c0.1,0,0.2,0,0.2-0.1s0.1,0,0.2-0.1c0,0,0.1,0,0.1,0L71,35.8c0,0-0.1,0-0.1-0.1
						c0,0,0,0,0-0.1v-0.5c0,0,0-0.1,0-0.1c0,0,0,0,0,0c0,0,0,0,0,0s0,0,0.1,0l2,0.8c0,0,0,0,0.1,0c0,0,0,0,0,0.1v0.2
						c0,0,0,0.1,0,0.1c0,0,0,0-0.1,0L71.1,37.2z"/>
				</g>
				<g>
					<path class="st9" d="M72.8,33.1c0.1,0.1,0.2,0.2,0.2,0.3c0.1,0.1,0.1,0.3,0.1,0.4c0,0.2,0,0.3-0.1,0.4
						c-0.1,0.1-0.1,0.3-0.2,0.4c-0.1,0.1-0.2,0.2-0.4,0.3c-0.1,0.1-0.3,0.1-0.5,0.1c-0.1,0-0.2,0-0.3,0c-0.1,0-0.2-0.1-0.3-0.1
						c-0.1,0-0.2-0.1-0.2-0.2c-0.1-0.1-0.1-0.1-0.2-0.2c0-0.1-0.1-0.2-0.1-0.3c0-0.1,0-0.2,0-0.3c0-0.1,0-0.2,0-0.3s0.1-0.2,0.1-0.3
						c0-0.1,0.1-0.2,0.2-0.2s0.1-0.1,0.2-0.2c0.1,0,0.2-0.1,0.2-0.1c0.1,0,0.2,0,0.3,0c0.1,0,0.1,0,0.1,0c0,0,0.1,0,0.1,0
						c0,0,0,0,0,0.1c0,0,0,0.1,0,0.2v1.3c0.1,0,0.1,0,0.2-0.1c0,0,0.1-0.1,0.1-0.1c0,0,0.1-0.1,0.1-0.1c0-0.1,0-0.1,0-0.1
						c0,0,0-0.1,0-0.1c0,0,0-0.1,0-0.1c0,0,0-0.1-0.1-0.1c0,0,0-0.1-0.1-0.1c0,0,0,0,0,0c0,0,0,0,0,0c0,0,0,0,0,0c0,0,0,0,0-0.1
						l0.2-0.2c0,0,0,0,0,0c0,0,0,0,0,0C72.8,33.1,72.8,33.1,72.8,33.1C72.8,33.1,72.8,33.1,72.8,33.1z M71.4,34c0,0,0,0.1,0,0.1
						c0,0,0,0.1,0.1,0.1c0,0,0.1,0.1,0.1,0.1c0,0,0.1,0.1,0.1,0.1v-0.9c0,0-0.1,0.1-0.1,0.1c0,0-0.1,0.1-0.1,0.1
						c0,0-0.1,0.1-0.1,0.1C71.4,33.9,71.4,33.9,71.4,34z"/>
				</g>
				<g>
					<g>
						<path class="st9" d="M71.6,29.1C71.6,29.2,71.6,29.2,71.6,29.1c-0.1,0.1-0.1,0.1-0.1,0.2c0,0,0,0.1,0,0.1c0,0,0,0.1,0,0.1
							c0,0,0,0,0.1,0.1c0,0,0,0,0.1,0V29C71.7,29,71.7,29.1,71.6,29.1C71.7,29.1,71.6,29.1,71.6,29.1z"/>
					</g>
					<g>
						<path class="st9" d="M70.5,26.1v5.6c0,0.2,0.2,0.4,0.4,0.4h1.9c0.2,0,0.4-0.2,0.4-0.4v-5.6c0-0.2-0.2-0.4-0.4-0.4h-1.9
							C70.6,25.7,70.5,25.9,70.5,26.1z M72.6,30.1C72.6,30.1,72.6,30.2,72.6,30.1C72.6,30.2,72.6,30.2,72.6,30.1l0.1,1.3
							c0,0,0,0,0,0c0,0,0,0,0,0h-0.2c0,0,0,0,0,0l-0.9-0.8v0.7c0,0,0,0,0,0c0,0,0,0,0,0h-0.3c0,0,0,0,0,0c0,0,0,0,0,0v-1.3
							c0,0,0,0,0,0c0,0,0,0,0,0h0.2c0,0,0,0,0,0c0,0,0,0,0,0l0.9,0.8v-0.7c0,0,0,0,0,0c0,0,0,0,0,0H72.6z M72,28.6
							C72,28.6,72,28.6,72,28.6C72,28.7,72.1,28.7,72,28.6c0.1,0.1,0.1,0.1,0.1,0.2v0.8c0,0,0.1,0,0.1,0c0,0,0.1,0,0.1-0.1
							c0,0,0-0.1,0-0.1c0,0,0-0.1,0-0.1c0,0,0-0.1,0-0.1c0,0,0-0.1,0-0.1c0,0,0,0,0-0.1c0,0,0,0,0-0.1c0,0,0,0,0,0c0,0,0,0,0,0
							c0,0,0,0,0,0c0,0,0,0,0,0l0.1-0.1c0,0,0,0,0,0c0,0,0,0,0,0c0,0,0,0,0,0c0,0,0,0,0,0c0.1,0.1,0.1,0.1,0.1,0.2
							c0,0.1,0,0.2,0,0.3c0,0.1,0,0.2-0.1,0.3c0,0.1-0.1,0.2-0.2,0.2c-0.1,0.1-0.1,0.1-0.2,0.2C72.1,30,72,30,71.9,30
							c-0.1,0-0.1,0-0.2,0c-0.1,0-0.1,0-0.2-0.1c-0.1,0-0.1-0.1-0.1-0.1c0,0-0.1-0.1-0.1-0.1c0-0.1-0.1-0.1-0.1-0.2
							c0-0.1,0-0.1,0-0.2c0-0.1,0-0.1,0-0.2c0-0.1,0-0.1,0.1-0.2c0,0,0.1-0.1,0.1-0.1c0,0,0.1-0.1,0.1-0.1c0,0,0.1-0.1,0.2-0.1
							C71.8,28.6,71.8,28.6,72,28.6C71.9,28.6,72,28.6,72,28.6z M71.7,27.8c0,0.1,0,0.1,0,0.1c0,0,0.1,0,0.1,0h0.8c0,0,0,0,0.1,0
							c0,0,0,0,0,0.1v0.2c0,0.1,0,0.1-0.1,0.1h-1.2c0,0,0,0,0,0c0,0,0,0,0,0c0,0,0,0,0-0.1v-0.2c0,0,0,0,0,0c0.1,0,0.1,0,0.1-0.1
							c0,0-0.1-0.1-0.1-0.1c0-0.1,0-0.3,0.1-0.3c0.1,0,0.2,0.1,0.3,0.1C71.7,27.8,71.7,27.8,71.7,27.8z M72.1,26.2
							c0.1,0,0.1,0,0.2,0.1c0.1,0,0.1,0.1,0.1,0.1c0,0,0.1,0.1,0.1,0.1c0,0.1,0.1,0.1,0.1,0.2c0,0.1,0,0.1,0,0.2c0,0.1,0,0.1,0,0.2
							c0,0.1,0,0.1-0.1,0.2c0,0.1-0.1,0.1-0.1,0.1c0,0-0.1,0.1-0.1,0.1c-0.1,0-0.1,0.1-0.2,0.1c-0.1,0-0.1,0-0.2,0
							c-0.1,0-0.1,0-0.2,0c-0.1,0-0.1,0-0.2-0.1c-0.1,0-0.1-0.1-0.1-0.1c0,0-0.1-0.1-0.1-0.1c0-0.1-0.1-0.1-0.1-0.2
							c0-0.1,0-0.1,0-0.2c0-0.1,0-0.2,0.1-0.3c0-0.1,0.1-0.2,0.2-0.2c0.1-0.1,0.1-0.1,0.2-0.2c0.1,0,0.2-0.1,0.3-0.1
							C72,26.2,72.1,26.2,72.1,26.2z"/>
					</g>
					<g>
						<path class="st9" d="M71.7,26.7C71.7,26.7,71.6,26.8,71.7,26.7c-0.1,0.1-0.1,0.2-0.1,0.2c0,0,0,0.1,0,0.1c0,0,0,0.1,0.1,0.1
							c0,0,0.1,0,0.1,0.1c0,0,0.1,0,0.1,0c0,0,0.1,0,0.1,0c0,0,0.1,0,0.1-0.1c0,0,0.1-0.1,0.1-0.1c0,0,0-0.1,0-0.1c0,0,0-0.1,0-0.1
							c0,0,0-0.1-0.1-0.1c0,0-0.1,0-0.1-0.1c0,0-0.1,0-0.1,0c0,0-0.1,0-0.1,0C71.8,26.7,71.7,26.7,71.7,26.7z"/>
					</g>
				</g>
				<g>
					<g>
						<path class="st9" d="M70.9,38.4c0,0.6,0.5,1.2,1.2,1.2c0.6,0,1.2-0.5,1.2-1.2s-0.5-1.2-1.2-1.2C71.4,37.2,70.9,37.7,70.9,38.4
							z M72.3,39l-0.1,0.1L72,38.9l-0.2,0.2L71.7,39l0.3-0.3L72.3,39z M72.1,38.3v0.2h-0.3v-0.2H72.1z M72.1,37.6l0.1,0.1L72,38.1
							l-0.3-0.3l0.1-0.1l0.2,0.2L72.1,37.6z"/>
					</g>
				</g>
			</g>
		</g>
		<g>
			<ellipse class="st6" cx="57.2" cy="14.9" rx="0.8" ry="1.2"/>
		</g>
		<g id="XMLID_209_">
			<g id="XMLID_213_">
				<path class="st7" d="M69.7,13.6h1.4c0.1,0,0.2,0,0.2,0.1v2.6c0,0.1-0.1,0.1-0.2,0.1h-1.4c-0.1,0-0.2,0-0.2-0.1v-2.6
					C69.5,13.6,69.6,13.6,69.7,13.6z"/>
			</g>
		</g>
		<g>
			<ellipse class="st6" cx="70.4" cy="14.9" rx="0.8" ry="1.2"/>
		</g>
		<g>
			<path class="st6" d="M60.3,21.9h-0.7c-0.1,0-0.2-0.1-0.2-0.2v-0.4c0-0.1,0.1-0.2,0.2-0.2h0.7c0.1,0,0.2,0.1,0.2,0.2v0.4
				C60.5,21.8,60.4,21.9,60.3,21.9z"/>
		</g>
		<g>
			<path class="st6" d="M60.3,23.4h-0.7c-0.1,0-0.2-0.1-0.2-0.2v-0.4c0-0.1,0.1-0.2,0.2-0.2h0.7c0.1,0,0.2,0.1,0.2,0.2v0.4
				C60.5,23.3,60.4,23.4,60.3,23.4z"/>
		</g>
		<g>
			<path class="st8" d="M60.1,23.1h-0.7c-0.1,0-0.2-0.1-0.2-0.2v-1.3c0-0.1,0.1-0.2,0.2-0.2h0.7c0.1,0,0.2,0.1,0.2,0.2v1.3
				C60.3,23,60.2,23.1,60.1,23.1z"/>
		</g>
		<g>
			<path class="st6" d="M62.3,21.8h-1c-0.1,0-0.2-0.1-0.2-0.2V21c0-0.1,0.1-0.2,0.2-0.2h1c0.1,0,0.2,0.1,0.2,0.2v0.6
				C62.4,21.7,62.4,21.8,62.3,21.8z"/>
		</g>
		<g>
			<path class="st6" d="M62.3,23.7h-1c-0.1,0-0.2-0.1-0.2-0.2V23c0-0.1,0.1-0.2,0.2-0.2h1c0.1,0,0.2,0.1,0.2,0.2v0.6
				C62.4,23.7,62.4,23.7,62.3,23.7z"/>
		</g>
		<g>
			<path class="st15" d="M61.7,23.4L61.7,23.4c-0.3,0-0.6-0.3-0.6-0.6v-1.1c0-0.3,0.3-0.6,0.6-0.6l0,0c0.3,0,0.6,0.3,0.6,0.6v1.1
				C62.3,23.1,62,23.4,61.7,23.4z"/>
		</g>
		<g>
			<path class="st6" d="M56.4,43.1v1.7c0,0.1,0,0.1-0.1,0.1h-0.6c-0.1,0-0.1,0-0.1-0.1v-1.7c0-0.1,0-0.1,0.1-0.1h0.6
				C56.3,43,56.4,43.1,56.4,43.1z"/>
		</g>
		<g>
			<path class="st6" d="M56.4,45.5v1.7c0,0.1,0,0.1-0.1,0.1h-0.6c-0.1,0-0.1,0-0.1-0.1v-1.7c0-0.1,0-0.1,0.1-0.1h0.6
				C56.3,45.4,56.4,45.4,56.4,45.5z"/>
		</g>
		<g>
			<circle class="st7" cx="46.4" cy="47.9" r="0.6"/>
		</g>
		<text transform="matrix(1 0 0 1 40.1875 54.0869)" class="st9 st12 st16">Main Board BLE</text>
	</g>
</g>
</svg>
