<?xml version="1.0" encoding="utf-8"?>
<!-- Generator: Adobe Illustrator 21.0.0, SVG Export Plug-In . SVG Version: 6.00 Build 0)  -->
<svg version="1.1" id="图层_1" xmlns="http://www.w3.org/2000/svg" xmlns:xlink="http://www.w3.org/1999/xlink" x="0px" y="0px"
	 viewBox="0 0 108 71" style="enable-background:new 0 0 108 71;" xml:space="preserve">
<style type="text/css">
	.st0{fill:#727272;}
	.st1{fill:#181819;}
	.st2{fill:#FFFFFF;}
	.st3{fill:#BFC3C2;}
	.st4{fill:#6B6A6A;}
	.st5{clip-path:url(#SVGID_2_);fill:#FECC5B;}
	.st6{clip-path:url(#SVGID_4_);fill:#FECC5B;}
	.st7{fill:#18181A;}
	.st8{fill:#FADC68;}
	.st9{fill:#29190A;}
	.st10{fill:#FEFEFE;}
	.st11{font-family:'STYuanti-SC-Bold';}
	.st12{font-size:5.2031px;}
	.st13{fill:#676281;}
	.st14{fill:#2F2B2E;}
	.st15{fill:#A3A3A3;}
	.st16{font-family:'STYuanti-SC-Regular';}
	.st17{font-size:4.6564px;}
	.st18{fill:#373737;}
	.st19{fill:#FECC5B;}
	.st20{fill:#D1CED1;}
	.st21{fill:#4A484B;}
	.st22{fill:#C3C0BC;}
	.st23{fill:#B3B1B1;}
	.st24{fill:#EFECEB;}
	.st25{fill:#B8B6B2;}
</style>
<rect x="-1053" y="-204" class="st0" width="118.5" height="118.5"/>
<g>
	<path class="st1" d="M84.3,6.9H26.1c-1.6,0-2.9,1.3-2.9,2.9v52.3c0,1.6,1.3,2.9,2.9,2.9h58.2c1.6,0,2.9-1.3,2.9-2.9V9.8
		C87.2,8.2,85.9,6.9,84.3,6.9z M40.3,14.1c-1.3,0-2.3-1-2.3-2.3s1-2.3,2.3-2.3s2.3,1,2.3,2.3S41.5,14.1,40.3,14.1z M54.9,53.8
		c-1.2,0-2.2-1-2.2-2.2s1-2.2,2.2-2.2c1.2,0,2.2,1,2.2,2.2S56.2,53.8,54.9,53.8z M69.7,14.1c-1.3,0-2.3-1-2.3-2.3s1-2.3,2.3-2.3
		s2.3,1,2.3,2.3S70.9,14.1,69.7,14.1z"/>
	<rect x="33.1" y="17.4" class="st2" width="43.9" height="28.5"/>
	<rect x="33.5" y="17.7" class="st3" width="43.9" height="28.5"/>
	<g>
		<rect x="50.8" y="6.2" class="st4" width="7.8" height="1.1"/>
		<g>
			<g>
				<defs>
					<path id="SVGID_1_" d="M84.1,65H26.3c-1.7,0-3.1-1.4-3.1-3.1V10c0-1.7,1.4-3.1,3.1-3.1h57.9c1.7,0,3.1,1.4,3.1,3.1v52
						C87.2,63.6,85.8,65,84.1,65z"/>
				</defs>
				<clipPath id="SVGID_2_">
					<use xlink:href="#SVGID_1_"  style="overflow:visible;"/>
				</clipPath>
				<path class="st5" d="M32,55.3h-7.4c-0.4,0-0.8,0.4-0.8,0.8v2.4v3.2v3.2h2.5v-2.3c0-0.5,0.4-0.8,0.8-0.8H32
					c0.4,0,0.8-0.4,0.8-0.8v-4.7C32.8,55.7,32.4,55.3,32,55.3z M31.4,57.2c-0.3,0-0.6-0.3-0.6-0.6s0.3-0.6,0.6-0.6s0.6,0.3,0.6,0.6
					C32,57,31.7,57.2,31.4,57.2z"/>
			</g>
			<g>
				<defs>
					<path id="SVGID_3_" d="M84.1,65H26.3c-1.7,0-3.1-1.4-3.1-3.1V10c0-1.7,1.4-3.1,3.1-3.1h57.9c1.7,0,3.1,1.4,3.1,3.1v52
						C87.2,63.6,85.8,65,84.1,65z"/>
				</defs>
				<clipPath id="SVGID_4_">
					<use xlink:href="#SVGID_3_"  style="overflow:visible;"/>
				</clipPath>
				<path class="st6" d="M85.5,55.4h-7.5c-0.4,0-0.8,0.4-0.8,0.8v8c0,0.4,0.4,0.8,0.8,0.8h2c-0.1-0.1-0.1-0.3-0.1-0.4v-5.8
					c0-0.4,0.3-0.8,0.8-0.8H83c0.4,0,0.8,0.3,0.8,0.8v5.8c0,0.2-0.1,0.3-0.1,0.4h1.9c0.4,0,0.8-0.4,0.8-0.8v-8
					C86.3,55.8,86,55.4,85.5,55.4z M85,57.2c-0.3,0-0.6-0.3-0.6-0.6s0.3-0.6,0.6-0.6s0.6,0.3,0.6,0.6S85.3,57.2,85,57.2z"/>
			</g>
		</g>
		<g>
			<rect x="29.9" y="6.2" class="st7" width="2.1" height="1.1"/>
			<path class="st7" d="M32.2,6.6h-2.6c-0.2,0-0.3-0.1-0.3-0.3V6.2c0-0.2,0.1-0.3,0.3-0.3h2.6c0.2,0,0.3,0.1,0.3,0.3v0.1
				C32.5,6.4,32.4,6.6,32.2,6.6z"/>
		</g>
		<g>
			<rect x="78.2" y="6.2" class="st7" width="2.1" height="1.1"/>
			<path class="st7" d="M80.5,6.6h-2.6c-0.2,0-0.3-0.1-0.3-0.3V6.2c0-0.2,0.1-0.3,0.3-0.3h2.6c0.2,0,0.3,0.1,0.3,0.3v0.1
				C80.8,6.4,80.7,6.6,80.5,6.6z"/>
		</g>
		<g>
			<path class="st8" d="M40.3,7.5c-2.4,0-4.3,1.9-4.3,4.3s1.9,4.3,4.3,4.3c2.4,0,4.3-1.9,4.3-4.3C44.6,9.4,42.7,7.5,40.3,7.5z
				 M40.3,14.1c-1.3,0-2.3-1-2.3-2.3s1-2.3,2.3-2.3s2.3,1,2.3,2.3S41.5,14.1,40.3,14.1z"/>
			<g>
				<circle class="st9" cx="39.4" cy="8.6" r="0.4"/>
				<circle class="st9" cx="37.6" cy="9.8" r="0.4"/>
				<circle class="st9" cx="37" cy="11.8" r="0.4"/>
				<circle class="st9" cx="43.6" cy="11.8" r="0.4"/>
				<circle class="st9" cx="43.1" cy="9.8" r="0.4"/>
				<circle class="st9" cx="37.6" cy="13.7" r="0.4"/>
				<circle class="st9" cx="43.1" cy="13.7" r="0.4"/>
				<circle class="st9" cx="41.4" cy="8.6" r="0.4"/>
				<circle class="st9" cx="39.4" cy="15" r="0.4"/>
				<circle class="st9" cx="41.4" cy="15" r="0.4"/>
			</g>
		</g>
		<g>
			<path class="st8" d="M69.7,7.5c-2.4,0-4.3,1.9-4.3,4.3s1.9,4.3,4.3,4.3s4.3-1.9,4.3-4.3S72,7.5,69.7,7.5z M69.7,14.1
				c-1.3,0-2.3-1-2.3-2.3s1-2.3,2.3-2.3s2.3,1,2.3,2.3S70.9,14.1,69.7,14.1z"/>
			<g>
				<circle class="st9" cx="68.7" cy="8.6" r="0.4"/>
				<circle class="st9" cx="67" cy="9.8" r="0.4"/>
				<circle class="st9" cx="66.4" cy="11.8" r="0.4"/>
				<circle class="st9" cx="73" cy="11.8" r="0.4"/>
				<circle class="st9" cx="72.4" cy="9.8" r="0.4"/>
				<circle class="st9" cx="67" cy="13.7" r="0.4"/>
				<circle class="st9" cx="72.4" cy="13.7" r="0.4"/>
				<circle class="st9" cx="70.8" cy="8.6" r="0.4"/>
				<circle class="st9" cx="68.7" cy="15" r="0.4"/>
				<circle class="st9" cx="70.8" cy="15" r="0.4"/>
			</g>
		</g>
		<text transform="matrix(1 0 0 1 29.3281 11.7661)" class="st10 st11 st12">A</text>
		<text transform="matrix(1 0 0 1 78.1748 11.7661)" class="st10 st11 st12">B</text>
		<path class="st10" d="M51.3,8.9h-0.1c-0.2,0-0.3-0.1-0.3-0.3V8c0-0.2,0.1-0.3,0.3-0.3h0.1c0.2,0,0.3,0.1,0.3,0.3v0.7
			C51.5,8.8,51.4,8.9,51.3,8.9z"/>
		<path class="st10" d="M58.9,8.9h-0.1c-0.2,0-0.3-0.1-0.3-0.3V8c0-0.2,0.1-0.3,0.3-0.3h0.1c0.2,0,0.3,0.1,0.3,0.3v0.7
			C59.2,8.8,59.1,8.9,58.9,8.9z"/>
		<path class="st10" d="M50.8,11v-0.1c0-0.2,0.1-0.3,0.3-0.3h0.7c0.2,0,0.3,0.1,0.3,0.3V11c0,0.2-0.1,0.3-0.3,0.3H51
			C50.9,11.3,50.8,11.2,50.8,11z"/>
		<path class="st10" d="M58.2,11v-0.1c0-0.2,0.1-0.3,0.3-0.3h0.7c0.2,0,0.3,0.1,0.3,0.3V11c0,0.2-0.1,0.3-0.3,0.3h-0.7
			C58.4,11.3,58.2,11.2,58.2,11z"/>
		<g>
			<path class="st10" d="M50.6,16h-2.7c-0.2,0-0.3-0.1-0.3-0.3v-2.3c0-0.2,0.1-0.3,0.3-0.3h2.7c0.2,0,0.3,0.1,0.3,0.3v2.3
				C50.9,15.9,50.7,16,50.6,16z"/>
			<path class="st10" d="M51,14.2h-3.5c-0.1,0-0.1,0-0.1-0.1v-0.5c0-0.1,0-0.1,0.1-0.1H51c0.1,0,0.1,0,0.1,0.1L51,14.2
				C51.1,14.2,51,14.2,51,14.2z"/>
			<path class="st10" d="M51,15.6h-3.5c-0.1,0-0.1,0-0.1-0.1v-0.5c0-0.1,0-0.1,0.1-0.1H51c0.1,0,0.1,0,0.1,0.1L51,15.6
				C51.1,15.6,51,15.6,51,15.6z"/>
			<path class="st13" d="M50,15.4h-1.6c-0.1,0-0.2-0.1-0.2-0.2v-1.3c0-0.1,0.1-0.2,0.2-0.2H50c0.1,0,0.2,0.1,0.2,0.2v1.3
				C50.2,15.3,50.1,15.4,50,15.4z"/>
		</g>
		<g>
			<path class="st10" d="M56.3,16h-2.7c-0.2,0-0.3-0.1-0.3-0.3v-2.3c0-0.2,0.1-0.3,0.3-0.3h2.7c0.2,0,0.3,0.1,0.3,0.3v2.3
				C56.6,15.9,56.4,16,56.3,16z"/>
			<path class="st10" d="M56.7,14.2h-3.5c-0.1,0-0.1,0-0.1-0.1v-0.5c0-0.1,0-0.1,0.1-0.1h3.5c0.1,0,0.1,0,0.1,0.1L56.7,14.2
				C56.8,14.2,56.7,14.2,56.7,14.2z"/>
			<path class="st10" d="M56.7,15.6h-3.5c-0.1,0-0.1,0-0.1-0.1v-0.5c0-0.1,0-0.1,0.1-0.1h3.5c0.1,0,0.1,0,0.1,0.1L56.7,15.6
				C56.8,15.6,56.7,15.6,56.7,15.6z"/>
			<path class="st13" d="M55.7,15.4h-1.6c-0.1,0-0.2-0.1-0.2-0.2v-1.3c0-0.1,0.1-0.2,0.2-0.2h1.6c0.1,0,0.2,0.1,0.2,0.2v1.3
				C55.9,15.3,55.8,15.4,55.7,15.4z"/>
		</g>
		<g>
			<path class="st10" d="M62.1,16h-2.7c-0.2,0-0.3-0.1-0.3-0.3v-2.3c0-0.2,0.1-0.3,0.3-0.3h2.7c0.2,0,0.3,0.1,0.3,0.3v2.3
				C62.3,15.9,62.2,16,62.1,16z"/>
			<path class="st10" d="M62.4,14.2h-3.5c-0.1,0-0.1,0-0.1-0.1v-0.5c0-0.1,0-0.1,0.1-0.1h3.5c0.1,0,0.1,0,0.1,0.1L62.4,14.2
				C62.5,14.2,62.5,14.2,62.4,14.2z"/>
			<path class="st10" d="M62.4,15.6h-3.5c-0.1,0-0.1,0-0.1-0.1v-0.5c0-0.1,0-0.1,0.1-0.1h3.5c0.1,0,0.1,0,0.1,0.1L62.4,15.6
				C62.5,15.6,62.5,15.6,62.4,15.6z"/>
			<path class="st13" d="M61.5,15.4h-1.6c-0.1,0-0.2-0.1-0.2-0.2v-1.3c0-0.1,0.1-0.2,0.2-0.2h1.6c0.1,0,0.2,0.1,0.2,0.2v1.3
				C61.7,15.3,61.6,15.4,61.5,15.4z"/>
		</g>
		<path class="st14" d="M73.9,37.8H36.2c-0.5,0-0.9-0.4-0.9-0.9V20c0-0.5,0.4-0.9,0.9-0.9h37.7c0.5,0,0.9,0.4,0.9,0.9v16.8
			C74.8,37.4,74.4,37.8,73.9,37.8z"/>
		<g>
			<path class="st15" d="M37.1,44.8c-0.5,0-1-0.2-1.4-0.6c-0.4-0.4-0.6-0.9-0.6-1.4s0.2-1,0.6-1.4l1.3-1.3c0.1-0.1,0.2-0.1,0.2,0
				s0.1,0.2,0,0.2L36,41.6c-0.3,0.3-0.5,0.7-0.5,1.2s0.2,0.9,0.5,1.2c0.3,0.3,0.7,0.5,1.2,0.5s0.9-0.2,1.2-0.5l2-2
				c0.1-0.1,0.2-0.1,0.2,0s0.1,0.2,0,0.2l-2,2C38.2,44.6,37.7,44.8,37.1,44.8z"/>
		</g>
		<g>
			<path class="st15" d="M38.6,44c0,0-0.1,0-0.1-0.1c-0.1-0.1,0-0.2,0-0.2c0.1-0.1,0.1-0.1,0.1-0.2c0-0.2-0.3-0.5-0.6-0.8
				c-0.2-0.2-0.5-0.4-0.6-0.7c-0.3-0.6-0.1-1,0.1-1.2l1.6-1.6c0.1-0.1,0.2-0.1,0.2,0s0.1,0.2,0,0.2l-1.5,1.6c0,0-0.3,0.4-0.1,0.9
				c0.1,0.2,0.3,0.4,0.5,0.6c0.3,0.3,0.7,0.7,0.7,1c0,0.2-0.1,0.3-0.2,0.4C38.7,44,38.7,44,38.6,44z"/>
		</g>
		<g>
			<path class="st15" d="M38.4,41.8c0,0-0.1,0-0.1,0c-0.1-0.1-0.1-0.2,0-0.2l1.9-1.9c0.1-0.1,0.2-0.1,0.2,0s0.1,0.2,0,0.2l-1.9,1.9
				C38.5,41.8,38.4,41.8,38.4,41.8z"/>
		</g>
		<g>
			<path class="st15" d="M39,42.4c0,0-0.1,0-0.1,0c-0.1-0.1-0.1-0.2,0-0.2l1.5-1.6c0.1-0.1,0.2-0.1,0.2,0s0.1,0.2,0,0.2l-1.5,1.6
				C39.1,42.4,39.1,42.4,39,42.4z"/>
		</g>
		<g>
			<path class="st15" d="M36.9,42.6h-1c-0.1,0-0.2-0.1-0.2-0.2c0-0.1,0.1-0.2,0.2-0.2h1c0.1,0,0.2,0.1,0.2,0.2
				C37.1,42.5,37,42.6,36.9,42.6z"/>
		</g>
		<g>
			<path class="st15" d="M36.5,43c-0.1,0-0.2-0.1-0.2-0.2v-1c0-0.1,0.1-0.2,0.2-0.2s0.2,0.1,0.2,0.2v1C36.6,43,36.5,43,36.5,43z"/>
		</g>
		<g>
			<path class="st15" d="M37.3,44c-0.3,0-0.6-0.1-0.8-0.2c-0.1,0-0.1-0.1-0.1-0.2s0.1-0.1,0.2-0.1c0.4,0.2,0.9,0.2,1.4,0
				c0.1,0,0.2,0,0.2,0.1c0,0.1,0,0.2-0.1,0.2C37.9,43.9,37.6,44,37.3,44z"/>
		</g>
		<text transform="matrix(1 0 0 1 41.6719 43.5522)" class="st15 st16 st17">掌控</text>
		<rect x="65.4" y="40" class="st15" width="8" height="1.9"/>
		<rect x="65.4" y="42.8" class="st15" width="8" height="1.9"/>
		<circle class="st10" cx="26.7" cy="33.2" r="2.4"/>
		<circle class="st18" cx="26.7" cy="33.2" r="1.9"/>
		<path class="st19" d="M54.9,48.8c-1.5,0-2.8,1.2-2.8,2.8c0,1.5,1.2,2.8,2.8,2.8c1.5,0,2.8-1.2,2.8-2.8
			C57.7,50,56.4,48.8,54.9,48.8z M54.9,53.8c-1.2,0-2.2-1-2.2-2.2s1-2.2,2.2-2.2c1.2,0,2.2,1,2.2,2.2S56.2,53.8,54.9,53.8z"/>
		<rect x="82" y="30.9" class="st20" width="3.6" height="1.4"/>
		<rect x="82.8" y="30.9" class="st21" width="1.9" height="1.4"/>
		<polygon class="st22" points="85.3,36.6 84.2,36.6 84,36.1 83.8,36.6 82.8,36.6 82.8,34.1 85.3,34.1 		"/>
		<polygon class="st23" points="82.4,33.7 82.8,34.1 82.8,36.6 82.4,36.9 		"/>
		<polygon class="st24" points="85.7,33.7 85.3,34.1 85.3,36.6 85.7,36.9 		"/>
		<polyline class="st25" points="82.4,33.7 85.7,33.7 85.3,34.1 82.8,34.1 		"/>
		<path class="st19" d="M26.7,65h6v-1.9c0-0.5-0.4-0.8-0.8-0.8h-4.3c-0.5,0-0.8,0.4-0.8,0.8C26.7,63.1,26.7,65,26.7,65z"/>
		<path class="st19" d="M41.3,55.3h-1.2c-0.4,0-0.7,0.3-0.7,0.7v5.5c0,0.4-0.3,0.7-0.7,0.7h-3.9c-0.3,0-0.6,0.3-0.6,0.6v1.4
			c0,0.3,0.3,0.6,0.6,0.6h4.6h0.7h1.2c0.4,0,0.7-0.3,0.7-0.7v-8.1C42.1,55.7,41.7,55.3,41.3,55.3z M40.7,57.2
			c-0.3,0-0.6-0.3-0.6-0.6s0.3-0.6,0.6-0.6c0.3,0,0.6,0.3,0.6,0.6C41.3,57,41.1,57.2,40.7,57.2z"/>
		<path class="st19" d="M52.4,55.3h-7.6c-0.3,0-0.6,0.3-0.6,0.6v1.4c0,0.3,0.3,0.6,0.6,0.6h1.9c0.3,0,0.6,0.3,0.6,0.6V65h2.6v-6.4
			c0-0.3,0.3-0.6,0.6-0.6h1.9c0.3,0,0.6-0.3,0.6-0.6V56C53,55.6,52.7,55.3,52.4,55.3z M51.7,57.2c-0.3,0-0.6-0.3-0.6-0.6
			s0.3-0.6,0.6-0.6c0.3,0,0.6,0.3,0.6,0.6S52,57.2,51.7,57.2z"/>
		<path class="st19" d="M63.6,55.3h-1.4c-0.3,0-0.6,0.3-0.6,0.6v2.6h-3.7v-2.6c0-0.3-0.3-0.6-0.6-0.6h-1.4c-0.3,0-0.6,0.3-0.6,0.6
			V65h2.6v-3.2h3.7V65h2.6v-9.1C64.2,55.6,63.9,55.3,63.6,55.3z M62.8,57.2c-0.3,0-0.6-0.3-0.6-0.6s0.3-0.6,0.6-0.6s0.6,0.3,0.6,0.6
			C63.4,57,63.1,57.2,62.8,57.2z"/>
		<path class="st19" d="M74.3,55.3h-7.3c-0.5,0-0.9,0.4-0.9,0.9v7.9c0,0.5,0.4,0.9,0.9,0.9h7.3c0.5,0,0.9-0.4,0.9-0.9v-7.9
			C75.2,55.7,74.8,55.3,74.3,55.3z M72.5,61.9c0,0.4-0.3,0.7-0.7,0.7h-2.2c-0.4,0-0.7-0.3-0.7-0.7v-3.2c0-0.4,0.3-0.7,0.7-0.7h2.2
			c0.4,0,0.7,0.3,0.7,0.7V61.9z M73.9,57.2c-0.3,0-0.6-0.3-0.6-0.6s0.3-0.6,0.6-0.6c0.3,0,0.6,0.3,0.6,0.6S74.2,57.2,73.9,57.2z"/>
		<path class="st19" d="M38.1,61.7H35c-0.4,0-0.8-0.3-0.8-0.8v-4.8c0-0.4,0.3-0.8,0.8-0.8h3.1c0.4,0,0.8,0.3,0.8,0.8v4.8
			C38.9,61.4,38.5,61.7,38.1,61.7z"/>
		<path class="st19" d="M44.2,65v-5.8c0-0.4,0.3-0.6,0.6-0.6h1.3c0.4,0,0.6,0.3,0.6,0.6V65H44.2z"/>
		<path class="st19" d="M50.4,65v-5.8c0-0.4,0.3-0.6,0.6-0.6h1.3c0.4,0,0.6,0.3,0.6,0.6V65H50.4z"/>
		<rect x="58.4" y="55.3" class="st19" width="2.6" height="2.6"/>
		<rect x="58.4" y="62.4" class="st19" width="2.6" height="2.6"/>
		<path class="st15" d="M58.6,39.5h2.5V40h-2.5V39.5z M61.7,39.5h1.4V40h-1.4V39.5z M63.6,39.5h0.5V40h-0.5V39.5z M58.6,41.5h2.5V42
			h-2.5V41.5z M58.6,39.5h0.5V42h-0.5V39.5z M60.5,39.5h0.5V42h-0.5V39.5z M59.4,40.4h0.7v0.7h-0.7V40.4z M61.7,40h0.5v0.5h-0.5V40z
			 M63.1,40h0.5v1h-0.5V40z M63.6,40.5h0.5v0.9h-0.5V40.5z M62.2,40.9h0.9v0.7h-0.9V40.9z M62.7,41.4h0.9V42h-0.9V41.4z M61.7,41.4
			h0.5V42h-0.5V41.4z M58.6,42.5h0.5v1.2h-0.5V42.5z M59.1,43.5h0.6v0.6h-0.6V43.5z M58.6,44h0.5v1h-0.5V44z M59.6,42.5h1.6v0.6
			h-1.6V42.5z M60,43h0.7v0.6H60V43z M60.5,43.5h0.7v1.1h-0.7V43.5z M60,44h0.6v1H60V44z M59.5,44.4h0.6v0.7h-0.6V44.4z M62.1,42.5
			h1.2v1.1h-1.2V42.5z M63.5,42.5h0.6v0.6h-0.6V42.5z M61.6,43h0.6v1.2h-0.6V43z M62.6,43.4h0.6V44h-0.6V43.4z M61.6,44.4h0.6v0.7
			h-0.6V44.4z M63.1,44.6h1.1v0.5h-1.1V44.6z M63.6,44h0.5v0.6h-0.5V44z"/>
	</g>
</g>
</svg>
