<?xml version="1.0" encoding="utf-8"?>
<!-- Generator: Adobe Illustrator 21.0.0, SVG Export Plug-In . SVG Version: 6.00 Build 0)  -->
<svg version="1.1" id="图层_1" xmlns="http://www.w3.org/2000/svg" xmlns:xlink="http://www.w3.org/1999/xlink" x="0px" y="0px"
	 viewBox="0 0 108 71" style="enable-background:new 0 0 108 71;" xml:space="preserve">
<style type="text/css">
	.st0{fill:#727272;}
	.st1{fill:#2D2D2D;}
	.st2{fill:#494949;}
	.st3{clip-path:url(#SVGID_2_);fill:#595959;}
	.st4{clip-path:url(#SVGID_2_);fill:#606060;}
	.st5{clip-path:url(#SVGID_2_);fill:#353535;}
	.st6{clip-path:url(#SVGID_2_);fill:#2D2D2D;}
	.st7{fill:#353535;}
	.st8{fill:#D4F3FF;}
	.st9{filter:url(#Adobe_OpacityMaskFilter);}
	.st10{opacity:0.75;mask:url(#SVGID_3_);}
	.st11{fill:#31BAFF;}
	.st12{fill:#E5F2FF;}
	.st13{clip-path:url(#SVGID_5_);fill:#FFFFFF;}
	.st14{fill:#FFFFFF;}
	.st15{clip-path:url(#SVGID_7_);fill:#353535;}
	.st16{filter:url(#Adobe_OpacityMaskFilter_1_);}
	.st17{opacity:0.75;mask:url(#SVGID_8_);}
	.st18{filter:url(#Adobe_OpacityMaskFilter_2_);}
	.st19{opacity:0.75;mask:url(#SVGID_9_);}
	.st20{filter:url(#Adobe_OpacityMaskFilter_3_);}
	.st21{opacity:0.75;}
	.st22{fill:#5E5E5E;}
	.st23{fill:#565656;}
	.st24{clip-path:url(#SVGID_11_);fill:#2D2D2D;}
	.st25{clip-path:url(#SVGID_11_);fill:#777777;}
	.st26{clip-path:url(#SVGID_11_);}
	.st27{fill:#666666;}
	.st28{fill:#162B49;}
	.st29{clip-path:url(#SVGID_13_);fill:#745AE4;}
	.st30{clip-path:url(#SVGID_13_);fill:#3791FF;}
	.st31{clip-path:url(#SVGID_15_);fill:#FFFFFF;}
	.st32{fill:#A8A8A8;}
	.st33{fill:#CDCCCB;}
	.st34{fill:#BFBEBE;}
	.st35{fill:#E4E500;}
	.st36{fill:#F23644;}
	.st37{fill:#575757;}
</style>
<rect x="-1053" y="-204" class="st0" width="118.5" height="118.5"/>
<polyline class="st1" points="61.9,69.9 59.5,67.2 58.1,61.2 68.7,45.4 73.5,46.9 77.2,50.4 "/>
<path class="st2" d="M24.8,49.4c0,0-0.4-1.1-1.5-1.4c-1-0.4-3.8-1.5-4.8-2.2c-1.1-0.8-5-3.9-5-3.9s-0.2-0.4-0.2-0.9
	c0-0.4,0-0.4,0-0.4s-0.3-0.1-0.4-1s0-2.7,0-2.7s0-0.2,0.2-0.4c0,0-1-1-1-1.7c0-0.7,0.3-5.3,1.8-8.3s2.6-5.7,7.8-9.7s11-7.8,14.7-9
	c3.7-1.1,7.9-2.2,7.9-2.2s9.6-3.7,14.4-4.2s5.7-0.5,5.7-0.5l5.3,3.6c0,0,0.2,0.9-0.1,1.1c-0.3,0.2-2.4,0.9-4,1.5s-5,2.5-5.9,3.1
	c-0.9,0.6-2.2,1.5-2.2,1.8c0,0.3,0.9-0.1,1-0.2s3.5-2.3,3.5-2.3l1-0.1L73,4.4c0,0,0.7-0.5,1.8,0.1c1.1,0.6,11.5,7.7,11.5,7.7
	s0.6,0.7,0.3,1.2c-0.3,0.5-3.8,5.8-3.8,5.8l2.1,1.4c0,0,4-1.6,5.7-1.5c1.7,0.1,5.1,2.4,5.1,2.4l2.7,1.7c0,0,0.7,0.8,0.1,1.4
	c-0.7,0.6-8.3,6.5-8.3,6.5s1.2,1.5,0.9,2.9c-0.3,1.4-0.7,2.3-1.1,2.5c-0.4,0.2-1.9,1.3-1.9,1.3s-0.1,1-0.7,1.9
	c-0.5,0.9-2.5,3.7-4.4,5.6c-1.9,1.9-5,4.9-5,4.9s-0.4,0.2-0.7,0.1c-0.3-0.1-0.4-1-0.8-1.3c-0.4-0.4-1.2-2-4.3-0.9
	c-3.1,1-8.3,5.6-10.1,9.3c-1.7,3.7-2.6,9.8-2.6,9.8s-1,1-2,1.1c-1.1,0.1-5-1.9-5-1.9s-1.9,0.5-2.9,0.7c-0.9,0.2-1.9,0.5-3.2-0.4
	c-1.3-0.9-5.8-4.4-5.8-4.4l0-1.5c0,0-1.3-0.3-1.5-0.6l0-1.7l-13-10.4l-0.3,0.8l0,0.7C25.7,49.6,25.2,49.9,24.8,49.4z"/>
<g>
	<defs>
		<path id="SVGID_1_" d="M24.8,49.4c0,0-0.4-1.1-1.5-1.4c-1-0.4-3.8-1.5-4.8-2.2c-1.1-0.8-5-3.9-5-3.9s-0.2-0.4-0.2-0.9
			c0-0.4,0-0.4,0-0.4s-0.3-0.1-0.4-1s0-2.7,0-2.7s0-0.2,0.2-0.4c0,0-1-1-1-1.7c0-0.7,0.3-5.3,1.8-8.3s2.6-5.7,7.8-9.7s11-7.8,14.7-9
			c3.7-1.1,7.9-2.2,7.9-2.2s9.6-3.7,14.4-4.2s5.7-0.5,5.7-0.5l5.3,3.6c0,0,0.2,0.9-0.1,1.1c-0.3,0.2-2.4,0.9-4,1.5s-5,2.5-5.9,3.1
			c-0.9,0.6-2.2,1.5-2.2,1.8c0,0.3,0.9-0.1,1-0.2s3.5-2.3,3.5-2.3l1-0.1L73,4.4c0,0,0.7-0.5,1.8,0.1c1.1,0.6,11.5,7.7,11.5,7.7
			s0.6,0.7,0.3,1.2c-0.3,0.5-3.8,5.8-3.8,5.8l2.1,1.4c0,0,4-1.6,5.7-1.5c1.7,0.1,5.1,2.4,5.1,2.4l2.7,1.7c0,0,0.7,0.8,0.1,1.4
			c-0.7,0.6-8.3,6.5-8.3,6.5s1.2,1.5,0.9,2.9c-0.3,1.4-0.7,2.3-1.1,2.5c-0.4,0.2-1.9,1.3-1.9,1.3s-0.1,1-0.7,1.9
			c-0.5,0.9-2.5,3.7-4.4,5.6c-1.9,1.9-5,4.9-5,4.9s-0.4,0.2-0.7,0.1c-0.3-0.1-0.4-1-0.8-1.3c-0.4-0.4-1.2-2-4.3-0.9
			c-3.1,1-8.3,5.6-10.1,9.3c-1.7,3.7-2.6,9.8-2.6,9.8s-1,1-2,1.1c-1.1,0.1-5-1.9-5-1.9s-1.9,0.5-2.9,0.7c-0.9,0.2-1.9,0.5-3.2-0.4
			c-1.3-0.9-5.8-4.4-5.8-4.4l0-1.5c0,0-1.3-0.3-1.5-0.6l0-1.7l-13-10.4l-0.3,0.8l0,0.7C25.7,49.6,25.2,49.9,24.8,49.4z"/>
	</defs>
	<clipPath id="SVGID_2_">
		<use xlink:href="#SVGID_1_"  style="overflow:visible;"/>
	</clipPath>
	<path class="st3" d="M47.1,68.3c0,0,1.5-10.5,3.3-14.2c1.8-3.7,15.9-12.4,21.9-15.1c0,0-4.5,6.3-11.2,11
		c-8.1,5.6-8.7,16.5-8.6,19.4S47.1,68.3,47.1,68.3z"/>
	<path class="st3" d="M56.8,70.5c0,0,0.7-7.6,4.3-13.6c3.6-5.9,12.3-12.6,17.4-15.4c5-2.8,10.3-4.4,14.4-4.4s-4.1,21.2-4.1,21.2
		L56.8,70.5z"/>
	<path class="st4" d="M102,23.9c0,0-2.9-0.8-7.9,1.3s-11.8,8.4-11.8,8.4s3.1-3.8,12-1.7L102,23.9z"/>
	<path class="st4" d="M88.1,11.9L63.9,28.2l-0.5,3.9c0,0,17.9-10.5,20.7-11.4C85.7,20.1,88.1,11.9,88.1,11.9z"/>
	<path class="st5" d="M40.6,60.9c0,0,0.6-8.2,4.2-12.2S56,37.7,64.2,32.3s12.5-7.9,17.1-10.2c0,0-7.1,2.4-24.7,14.9
		c0,0-9.9,6.4-11.2,8.1C44.1,46.8,41.5,52.1,40.6,60.9z"/>
	<path class="st5" d="M12.9,39.7c0,0,0.6-8.2,4.2-12.2s11.2-11,19.4-16.4c7.6-5.1,14.3-9.2,18.9-11.4c0,0-8.9,3.6-26.5,16.2
		c0,0-10.2,7.7-11.5,9.4C16.1,26.9,13.8,30.8,12.9,39.7z"/>
	<polygon class="st6" points="82.8,19.2 81.2,22.1 84.9,20.6 84.8,18.8 	"/>
	<path class="st3" d="M20,49.3c0,0,1.5-10.5,3.3-14.2s12.1-12.7,18-15.4c0,0-0.7,6.6-7.4,11.2c-8.1,5.6-8.7,16.5-8.6,19.4
		C25.4,53.2,20,49.3,20,49.3z"/>
	<path class="st4" d="M39.2,19.6c0,0,4.1-4.9,17-10s14.7-5.4,14.7-5.4l-0.7,1.4L65,7.9l-4.1,1.6l-2.2,1.7l-1.1,0.6
		c0,0-18.4,10.9-19.1,12.3C37.7,25.5,39.2,19.6,39.2,19.6z"/>
</g>
<polygon class="st7" points="33.9,30.9 33.1,30.9 32.9,27.5 35.6,26.7 35.5,30.9 "/>
<g>
	<g>
		<path class="st8" d="M40.7,60.3c0.1-1,0.8-2.1,1.8-1.5s3.8,2.9,4.5,3.3s1.5,0.6,2.1,0.7c0.6,0,1.2,0.3,1.2,0.7s-0.1,1.5-1.1,2.1
			c-1,0.7-1.7,0.9-2.6,0.4c-0.9-0.5-4.2-2.5-4.9-3.3S40.7,61,40.7,60.3z"/>
	</g>
	<defs>
		<filter id="Adobe_OpacityMaskFilter" filterUnits="userSpaceOnUse" x="40.7" y="58.6" width="9.7" height="7.6">
			
				<feColorMatrix  type="matrix" values="-1 0 0 0 1  0 -1 0 0 1  0 0 -1 0 1  0 0 0 1 0" color-interpolation-filters="sRGB" result="source"/>
		</filter>
	</defs>
	<mask maskUnits="userSpaceOnUse" x="40.7" y="58.6" width="9.7" height="7.6" id="SVGID_3_">
		<g class="st9">
			
				<image style="overflow:visible;" width="14" height="13" xlink:href="FF018B676C6FC178.jpg"  transform="matrix(1 0 0 1 38.4167 56)">
			</image>
		</g>
	</mask>
	<g class="st10">
		<path class="st11" d="M40.7,60.3c0.1-1,0.8-2.1,1.8-1.5s3.8,2.9,4.5,3.3s1.5,0.6,2.1,0.7c0.6,0,1.2,0.3,1.2,0.7s-0.1,1.5-1.1,2.1
			c-1,0.7-1.7,0.9-2.6,0.4c-0.9-0.5-4.2-2.5-4.9-3.3S40.7,61,40.7,60.3z"/>
	</g>
</g>
<path class="st1" d="M39.1,58.5c0,0-0.5-8.5,2.7-12.2s6.3-5.7,7.2-6.5c0.9-0.8,2.6-3.5,2.4-5.5c-0.2-2-0.4-3.1-2.7-4.2
	c-2.3-1.2-3-1.8-6.3-1.7s-7,1.9-8.7,2.9s-6.2,3.5-7.1,7.7s-0.9,10.6-0.9,10.6l0.4-1.5L39.1,58.5z"/>
<g>
	<path class="st12" d="M30.7,49c-0.9-1.2-2.1-1.9-2.7-1.5l-3,2.4l3.2,4.5l3-2.4C31.8,51.5,31.6,50.2,30.7,49z"/>
	<g>
		<defs>
			<path id="SVGID_4_" d="M30.7,49c-0.9-1.2-2.1-1.9-2.7-1.5l-3,2.4l3.2,4.5l3-2.4C31.8,51.5,31.6,50.2,30.7,49z"/>
		</defs>
		<clipPath id="SVGID_5_">
			<use xlink:href="#SVGID_4_"  style="overflow:visible;"/>
		</clipPath>
		<rect x="29" y="47.4" transform="matrix(0.6333 0.7739 -0.7739 0.6333 50.2365 -4.3814)" class="st13" width="1.5" height="6.9"/>
	</g>
	<ellipse transform="matrix(0.8158 -0.5783 0.5783 0.8158 -25.2656 25.0137)" class="st14" cx="26.6" cy="52.2" rx="1.3" ry="2.7"/>
	<ellipse transform="matrix(0.8158 -0.5783 0.5783 0.8158 -25.2656 25.0137)" class="st2" cx="26.6" cy="52.2" rx="0.8" ry="1.8"/>
</g>
<g>
	<defs>
		<path id="SVGID_6_" d="M39.1,58.5c0,0-0.5-8.5,2.7-12.2s6.3-5.7,7.2-6.5c0.9-0.8,2.6-3.5,2.4-5.5c-0.2-2-0.4-3.1-2.7-4.2
			c-2.3-1.2-3-1.8-6.3-1.7s-7,1.9-8.7,2.9s-6.2,3.5-7.1,7.7s-0.9,10.6-0.9,10.6l0.4-1.5L39.1,58.5z"/>
	</defs>
	<clipPath id="SVGID_7_">
		<use xlink:href="#SVGID_6_"  style="overflow:visible;"/>
	</clipPath>
	<ellipse class="st15" cx="41.2" cy="39.3" rx="8.7" ry="5.9"/>
</g>
<g>
	<g>
		<g>
			<path class="st8" d="M13.5,36.2c0,0-0.6,0.1-0.7,0.6c0,0.5-0.5,2.7,0.3,3.8c0.8,1.2,4.2,3.9,4.8,4.1c0.6,0.3,1.5,0,1.4-1.1
				c-0.1-1.1-0.1-2.3-1.4-3.5c-1.3-1.2-4.6-3.3-4.6-3.3L13.5,36.2z"/>
		</g>
		<defs>
			<filter id="Adobe_OpacityMaskFilter_1_" filterUnits="userSpaceOnUse" x="12.7" y="36.2" width="6.8" height="8.7">
				
					<feColorMatrix  type="matrix" values="-1 0 0 0 1  0 -1 0 0 1  0 0 -1 0 1  0 0 0 1 0" color-interpolation-filters="sRGB" result="source"/>
			</filter>
		</defs>
		<mask maskUnits="userSpaceOnUse" x="12.7" y="36.2" width="6.8" height="8.7" id="SVGID_8_">
			<g class="st16">
				
					<image style="overflow:visible;" width="11" height="13" xlink:href="FF018B676C6FC179.jpg"  transform="matrix(1 0 0 1 10.4167 34)">
				</image>
			</g>
		</mask>
		<g class="st17">
			<path class="st14" d="M13.5,36.2c0,0-0.6,0.1-0.7,0.6c0,0.5-0.5,2.7,0.3,3.8c0.8,1.2,4.2,3.9,4.8,4.1c0.6,0.3,1.5,0,1.4-1.1
				c-0.1-1.1-0.1-2.3-1.4-3.5c-1.3-1.2-4.6-3.3-4.6-3.3L13.5,36.2z"/>
		</g>
	</g>
	<defs>
		<filter id="Adobe_OpacityMaskFilter_2_" filterUnits="userSpaceOnUse" x="12.7" y="36.2" width="6.8" height="8.7">
			
				<feColorMatrix  type="matrix" values="-1 0 0 0 1  0 -1 0 0 1  0 0 -1 0 1  0 0 0 1 0" color-interpolation-filters="sRGB" result="source"/>
		</filter>
	</defs>
	<mask maskUnits="userSpaceOnUse" x="12.7" y="36.2" width="6.8" height="8.7" id="SVGID_9_">
		<g class="st18">
			
				<image style="overflow:visible;" width="11" height="13" xlink:href="FF018B676C6FC17F.jpg"  transform="matrix(1 0 0 1 10.4167 34)">
			</image>
		</g>
	</mask>
	<g class="st19">
		<g>
			<path class="st11" d="M13.5,36.2c0,0-0.6,0.1-0.7,0.6c0,0.5-0.5,2.7,0.3,3.8c0.8,1.2,4.2,3.9,4.8,4.1c0.6,0.3,1.5,0,1.4-1.1
				c-0.1-1.1-0.1-2.3-1.4-3.5c-1.3-1.2-4.6-3.3-4.6-3.3L13.5,36.2z"/>
		</g>
		<defs>
			<filter id="Adobe_OpacityMaskFilter_3_" filterUnits="userSpaceOnUse" x="12.7" y="36.2" width="6.8" height="8.7">
				
					<feColorMatrix  type="matrix" values="-1 0 0 0 1  0 -1 0 0 1  0 0 -1 0 1  0 0 0 1 0" color-interpolation-filters="sRGB" result="source"/>
			</filter>
		</defs>
		<mask maskUnits="userSpaceOnUse" x="12.7" y="36.2" width="6.8" height="8.7" id="SVGID_9_">
			<g class="st20">
				
					<image style="overflow:visible;" width="11" height="13" xlink:href="FF018B676C6FC17A.jpg"  transform="matrix(1 0 0 1 10.4167 34)">
				</image>
			</g>
		</mask>
		<g class="st21">
			<path class="st11" d="M13.5,36.2c0,0-0.6,0.1-0.7,0.6c0,0.5-0.5,2.7,0.3,3.8c0.8,1.2,4.2,3.9,4.8,4.1c0.6,0.3,1.5,0,1.4-1.1
				c-0.1-1.1-0.1-2.3-1.4-3.5c-1.3-1.2-4.6-3.3-4.6-3.3L13.5,36.2z"/>
		</g>
	</g>
</g>
<ellipse class="st22" cx="41.2" cy="35.9" rx="8.7" ry="5.9"/>
<path class="st1" d="M46.6,20.8c0-0.1,2.9-2.2,4.5-1.7s12.2,8.1,12.2,8.1s0.8,0.7,0.6,2.5c-0.2,1.8-0.3,3.1-1.3,2.8s-1.2-1.1-1.2-2
	c0-0.9,0.4-2.1-0.9-3.1c-1.3-1-8.2-5.7-8.2-5.7S50.6,20.7,49,21C47.5,21.3,46.5,21.7,46.6,20.8z"/>
<path class="st7" d="M74.1,63.5c-4,5.5-9.6,8.3-12.2,6.4s-1.4-8,2.7-13.5s9.7-8.5,12.2-6.4C79.1,52,77.5,58.7,74.1,63.5z"/>
<path class="st7" d="M33.8,33.9l8.4-4.8c0.3-0.2,0.7-0.2,1,0l5.4,3.2c0.6,0.4,0.6,1.2,0.1,1.6l-8.1,5.7c-0.3,0.2-0.8,0.2-1.1,0
	l-5.6-4.1C33.1,35.1,33.2,34.3,33.8,33.9z"/>
<ellipse transform="matrix(0.6002 -0.7998 0.7998 0.6002 -20.2409 79.553)" class="st23" cx="69.5" cy="60" rx="9.7" ry="4.5"/>
<ellipse transform="matrix(0.6002 -0.7998 0.7998 0.6002 -20.2409 79.553)" class="st7" cx="69.5" cy="60" rx="3.5" ry="1.6"/>
<polygon class="st7" points="33.2,30.5 33.3,34.8 49,33.1 49,28.6 "/>
<path class="st22" d="M33.8,29.7l8.4-4.8c0.3-0.2,0.7-0.2,1,0l5.4,3.2c0.6,0.4,0.6,1.2,0.1,1.6l-8.1,5.7c-0.3,0.2-0.8,0.2-1.1,0
	l-5.6-4.1C33.1,30.9,33.2,30,33.8,29.7z"/>
<path class="st1" d="M33,17.5l2.6-2c0,0,0.8-0.5,1.9,0.1c1.1,0.6,5.4,3.7,6.3,4.5c0.9,0.8,2.3,2.5,2.2,4.1c0,1.6,0.2,11,0.2,11
	s0.1,2.3-1,2.9c-1,0.5-1.3,0.5-1.3,0.5s-1,0.1-1.3-1.5c-0.3-1.6-0.1-11.1-0.1-11.1L33,17.5z"/>
<path class="st2" d="M44,38.6c0,0-1.1,0.1-1-1.9s0-9.6,0-9.6s0-2.7-1.5-4.1c-1.5-1.4-7.4-5.5-7.4-5.5s-1.8-0.5-1.8,1.3
	c0,1.9,0.4,11.6,0.4,11.6l0.5,0.4l0.1-5.9c0,0,1.1,0.1,2.5,1c1.3,0.9,4.8,3.3,4.8,3.3s1.9,0.8,1.9,2.3c0.1,1.5,0,5.4,0.3,6.1
	C42.6,37.6,43,38.9,44,38.6z"/>
<path class="st2" d="M38.5,22.6c-0.8-1.2-2-1.8-2.6-1.4l-4.4,3l2.9,4.3l4.4-3C39.5,25.1,39.3,23.8,38.5,22.6z"/>
<g>
	<defs>
		<path id="SVGID_10_" d="M38.5,22.6c-0.8-1.2-2-1.8-2.6-1.4l-4.4,3l2.9,4.3l4.4-3C39.5,25.1,39.3,23.8,38.5,22.6z"/>
	</defs>
	<clipPath id="SVGID_11_">
		<use xlink:href="#SVGID_10_"  style="overflow:visible;"/>
	</clipPath>
	<rect x="32.6" y="25.4" transform="matrix(0.8168 -0.577 0.577 0.8168 -8.4207 25.9402)" class="st24" width="8" height="1.7"/>
	<rect x="32.5" y="24" transform="matrix(0.8168 -0.577 0.577 0.8168 -7.6354 25.6374)" class="st25" width="8" height="1.7"/>
	<rect x="29.5" y="21.4" transform="matrix(0.8168 -0.577 0.577 0.8168 -6.6879 23.4301)" class="st25" width="8" height="1.7"/>
	<g class="st26">
		<path class="st1" d="M34.5,29.3c-1,0-2.1-0.7-3-2c-1.1-1.6-1.2-3.5-0.2-4.2c0.5-0.4,1.3-0.3,2.1,0.2c0.7,0.4,1.3,1,1.7,1.6
			c0.5,0.8,0.8,1.6,0.9,2.4c0,0.8-0.2,1.4-0.7,1.8C35.1,29.2,34.8,29.3,34.5,29.3z M32.1,23.3c-0.2,0-0.4,0-0.6,0.2
			c-0.9,0.6-0.7,2.3,0.3,3.7c1,1.5,2.5,2.2,3.4,1.6c0.4-0.3,0.6-0.8,0.6-1.5c0-0.7-0.3-1.5-0.8-2.2l0,0c-0.4-0.5-1-1.1-1.6-1.4
			C33,23.4,32.6,23.3,32.1,23.3z"/>
	</g>
</g>
<ellipse transform="matrix(0.8269 -0.5624 0.5624 0.8269 -9.145 23.1031)" class="st27" cx="33" cy="26.4" rx="1.4" ry="2.6"/>
<ellipse transform="matrix(0.8269 -0.5624 0.5624 0.8269 -9.145 23.1031)" class="st28" cx="33" cy="26.4" rx="1" ry="1.9"/>
<g>
	<defs>
		<ellipse id="SVGID_12_" transform="matrix(0.8269 -0.5624 0.5624 0.8269 -9.145 23.1031)" cx="33" cy="26.4" rx="1" ry="1.9"/>
	</defs>
	<use xlink:href="#SVGID_12_"  style="overflow:visible;fill:#2D2D2D;"/>
	<clipPath id="SVGID_13_">
		<use xlink:href="#SVGID_12_"  style="overflow:visible;"/>
	</clipPath>
	<ellipse transform="matrix(0.8269 -0.5624 0.5624 0.8269 -8.7228 23.8017)" class="st29" cx="34.3" cy="26.1" rx="1" ry="1.9"/>
	<ellipse transform="matrix(0.8269 -0.5624 0.5624 0.8269 -8.9083 24.2644)" class="st30" cx="35" cy="26.6" rx="1" ry="1.9"/>
</g>
<g>
	<path class="st12" d="M36.4,53.1c-0.9-1.2-2.1-1.9-2.7-1.5l-3,2.4l3.2,4.5l3-2.4C37.5,55.7,37.3,54.3,36.4,53.1z"/>
	<g>
		<defs>
			<path id="SVGID_14_" d="M36.4,53.1c-0.9-1.2-2.1-1.9-2.7-1.5l-3,2.4l3.2,4.5l3-2.4C37.5,55.7,37.3,54.3,36.4,53.1z"/>
		</defs>
		<clipPath id="SVGID_15_">
			<use xlink:href="#SVGID_14_"  style="overflow:visible;"/>
		</clipPath>
		
			<rect x="34.7" y="51.5" transform="matrix(0.6333 0.7739 -0.7739 0.6333 55.5237 -7.2964)" class="st31" width="1.5" height="6.9"/>
	</g>
	<ellipse transform="matrix(0.8158 -0.5783 0.5783 0.8158 -26.5956 29.0804)" class="st14" cx="32.4" cy="56.3" rx="1.3" ry="2.7"/>
	<ellipse transform="matrix(0.8158 -0.5783 0.5783 0.8158 -26.5956 29.0804)" class="st2" cx="32.4" cy="56.3" rx="0.8" ry="1.8"/>
</g>
<path class="st1" d="M54.4,17L67.7,8l11.2,7.6c0,0-12.2,8.4-13.3,9.3L54.4,17z"/>
<g>
	<polygon class="st12" points="31,47.2 31.1,49.3 33,50 33.5,48.6 	"/>
	<polygon class="st32" points="31.4,47.9 30.8,48 30.8,50.3 31.2,50 31.4,49.8 	"/>
	<polygon class="st12" points="32.8,51.4 31.1,50.1 31.1,48.9 32.8,50.2 	"/>
	<polygon class="st33" points="31.1,48.9 31.4,48.7 33,49.8 32.8,50.2 	"/>
	<polygon class="st12" points="33.2,52.2 32.7,51.7 32.7,49.5 33.2,50 	"/>
	<polygon class="st32" points="33.2,52.2 34.8,51 34.8,48.8 33.2,50 	"/>
	<polygon class="st33" points="32.7,49.5 34,48.5 34.8,48.8 33.2,50 	"/>
	<polygon class="st12" points="32.8,49 32.8,49.3 33.2,49.6 33.2,49.2 	"/>
	<polygon class="st32" points="33.2,49.2 34.3,48.4 34.3,48.9 33.2,49.6 	"/>
	<polygon class="st34" points="32.8,49 33.1,48.8 31,47.3 30.8,47.5 30.6,47.3 31.7,46.6 34.3,48.4 33.2,49.2 	"/>
	<polygon class="st12" points="30.2,47.6 30.8,48 30.8,50.3 30.2,49.8 	"/>
	<polygon class="st33" points="30.2,47.6 30.6,47.4 31.4,47.9 30.8,48 	"/>
	<polygon class="st12" points="30.6,47.3 30.6,47.7 30.8,47.8 30.8,47.5 	"/>
	<polygon class="st32" points="31,47.3 30.8,47.5 30.8,47.8 31.1,47.7 	"/>
	<g>
		<path class="st35" d="M31.7,47.3L31.7,47.3c-0.2,0-0.3-0.1-0.3-0.2v-0.5c0-0.5,0.2-0.9,0.6-1.2l2.3-1.7c0.1-0.1,0.2,0,0.3,0l0,0
			c0.1,0.1,0,0.2,0,0.3l-2.3,1.7c-0.3,0.2-0.4,0.5-0.4,0.8v0.5C31.9,47.2,31.8,47.3,31.7,47.3z"/>
	</g>
	<g>
		<path class="st14" d="M32.3,47.7L32.3,47.7c-0.2,0-0.3-0.1-0.3-0.2v-0.5c0-0.5,0.2-0.9,0.6-1.2l2.3-1.7c0.1-0.1,0.2,0,0.3,0l0,0
			c0.1,0.1,0,0.2,0,0.3l-2.3,1.7c-0.3,0.2-0.4,0.5-0.4,0.8v0.5C32.5,47.6,32.4,47.7,32.3,47.7z"/>
	</g>
	<g>
		<path class="st36" d="M32.9,48.1L32.9,48.1c-0.2,0-0.3-0.1-0.3-0.2v-0.5c0-0.5,0.2-0.9,0.6-1.2l2.3-1.7c0.1-0.1,0.2,0,0.3,0l0,0
			c0.1,0.1,0,0.2,0,0.3l-2.3,1.7c-0.3,0.2-0.4,0.5-0.4,0.8v0.5C33,48,33,48.1,32.9,48.1z"/>
	</g>
	<g>
		<path class="st37" d="M33.5,48.6L33.5,48.6c-0.2,0-0.3-0.1-0.3-0.2v-0.5c0-0.5,0.2-0.9,0.6-1.2l2.3-1.7c0.1-0.1,0.2,0,0.3,0l0,0
			c0.1,0.1,0,0.2,0,0.3l-2.3,1.7c-0.3,0.2-0.4,0.5-0.4,0.8v0.5C33.7,48.5,33.6,48.6,33.5,48.6z"/>
	</g>
</g>
</svg>
