<?xml version="1.0" encoding="utf-8"?>
<!-- Generator: Adobe Illustrator 21.0.0, SVG Export Plug-In . SVG Version: 6.00 Build 0)  -->
<svg version="1.1" id="图层_1" xmlns="http://www.w3.org/2000/svg" xmlns:xlink="http://www.w3.org/1999/xlink" x="0px" y="0px"
	 viewBox="0 0 108 71" style="enable-background:new 0 0 108 71;" xml:space="preserve">
<style type="text/css">
	.st0{fill:#727272;}
	.st1{fill:#191819;}
	.st2{fill:#989898;}
	.st3{clip-path:url(#SVGID_2_);fill:#FFCE00;}
	.st4{clip-path:url(#SVGID_4_);fill:#FFCE00;}
	.st5{clip-path:url(#SVGID_6_);fill:#FFCE00;}
	.st6{fill:#FFCE00;}
	.st7{fill:#FFA4A4;}
	.st8{fill:#D2D7CF;}
	.st9{fill:#515857;}
	.st10{fill:#8E918D;}
	.st11{fill:#323232;}
	.st12{fill:#474747;}
	.st13{fill:#606060;}
	.st14{clip-path:url(#SVGID_8_);fill:url(#SVGID_9_);}
	.st15{clip-path:url(#SVGID_11_);fill:url(#SVGID_12_);}
	.st16{clip-path:url(#SVGID_14_);fill:url(#SVGID_15_);}
	.st17{clip-path:url(#SVGID_17_);fill:url(#SVGID_18_);}
	.st18{clip-path:url(#SVGID_20_);fill:url(#SVGID_21_);}
	.st19{clip-path:url(#SVGID_23_);fill:url(#SVGID_24_);}
	.st20{clip-path:url(#SVGID_26_);fill:url(#SVGID_27_);}
	.st21{clip-path:url(#SVGID_29_);fill:url(#SVGID_30_);}
	.st22{clip-path:url(#SVGID_32_);fill:url(#SVGID_33_);}
	.st23{clip-path:url(#SVGID_35_);fill:url(#SVGID_36_);}
	.st24{clip-path:url(#SVGID_38_);fill:url(#SVGID_39_);}
	.st25{clip-path:url(#SVGID_41_);fill:url(#SVGID_42_);}
	.st26{clip-path:url(#SVGID_44_);fill:url(#SVGID_45_);}
	.st27{clip-path:url(#SVGID_47_);fill:url(#SVGID_48_);}
	.st28{clip-path:url(#SVGID_50_);fill:url(#SVGID_51_);}
	.st29{clip-path:url(#SVGID_53_);fill:url(#SVGID_54_);}
	.st30{clip-path:url(#SVGID_56_);fill:url(#SVGID_57_);}
	.st31{clip-path:url(#SVGID_59_);fill:url(#SVGID_60_);}
	.st32{clip-path:url(#SVGID_62_);fill:url(#SVGID_63_);}
	.st33{clip-path:url(#SVGID_65_);fill:url(#SVGID_66_);}
	.st34{clip-path:url(#SVGID_68_);}
	.st35{fill:url(#SVGID_69_);}
	.st36{clip-path:url(#SVGID_71_);}
	.st37{fill:url(#SVGID_72_);}
	.st38{clip-path:url(#SVGID_74_);}
	.st39{fill:url(#SVGID_75_);}
	.st40{clip-path:url(#SVGID_77_);}
	.st41{fill:url(#SVGID_78_);}
	.st42{clip-path:url(#SVGID_80_);}
	.st43{fill:url(#SVGID_81_);}
</style>
<rect x="-1053" y="-204" class="st0" width="118.5" height="118.5"/>
<path class="st1" d="M88.4,64.8h-67c-1.2,0-2.2-1-2.2-2.2V8.7c0-1.2,1-2.2,2.2-2.2h67c1.2,0,2.2,1,2.2,2.2v53.8
	C90.7,63.7,89.7,64.8,88.4,64.8z"/>
<g>
	<g>
		<path class="st2" d="M44,27.3L44,27.3c-0.3,0-0.6-0.2-0.6-0.5v-2.2c0-0.2,0.2-0.5,0.5-0.5H44c0.2,0,0.5,0.2,0.5,0.5v2.2
			C44.5,27,44.4,27.3,44,27.3z"/>
		<path class="st2" d="M49.6,27.3L49.6,27.3c-0.3,0-0.6-0.2-0.6-0.5v-2.2c0-0.2,0.2-0.5,0.5-0.5h0.1c0.2,0,0.5,0.2,0.5,0.5v2.2
			C50.1,27,49.9,27.3,49.6,27.3z"/>
		<path class="st2" d="M55.2,27.3L55.2,27.3c-0.3,0-0.6-0.2-0.6-0.5v-2.2c0-0.2,0.2-0.5,0.5-0.5h0.1c0.2,0,0.5,0.2,0.5,0.5v2.2
			C55.7,27,55.5,27.3,55.2,27.3z"/>
		<path class="st2" d="M60.8,27.3L60.8,27.3c-0.3,0-0.6-0.2-0.6-0.5v-2.2c0-0.2,0.2-0.5,0.5-0.5h0.1c0.2,0,0.5,0.2,0.5,0.5v2.2
			C61.3,27,61.1,27.3,60.8,27.3z"/>
		<path class="st2" d="M66.4,27.3L66.4,27.3c-0.3,0-0.6-0.2-0.6-0.5v-2.2c0-0.2,0.2-0.5,0.5-0.5h0.1c0.2,0,0.5,0.2,0.5,0.5v2.2
			C66.9,27,66.6,27.3,66.4,27.3z"/>
	</g>
	<g>
		<path class="st2" d="M44,32.8L44,32.8c-0.3,0-0.6-0.2-0.6-0.5v-2.2c0-0.2,0.2-0.5,0.5-0.5H44c0.2,0,0.5,0.2,0.5,0.5v2.2
			C44.5,32.6,44.4,32.8,44,32.8z"/>
		<path class="st2" d="M49.6,32.8L49.6,32.8c-0.3,0-0.6-0.2-0.6-0.5v-2.2c0-0.2,0.2-0.5,0.5-0.5h0.1c0.2,0,0.5,0.2,0.5,0.5v2.2
			C50.1,32.6,49.9,32.8,49.6,32.8z"/>
		<path class="st2" d="M55.2,32.8L55.2,32.8c-0.3,0-0.6-0.2-0.6-0.5v-2.2c0-0.2,0.2-0.5,0.5-0.5h0.1c0.2,0,0.5,0.2,0.5,0.5v2.2
			C55.7,32.6,55.5,32.8,55.2,32.8z"/>
		<path class="st2" d="M60.8,32.8L60.8,32.8c-0.3,0-0.6-0.2-0.6-0.5v-2.2c0-0.2,0.2-0.5,0.5-0.5h0.1c0.2,0,0.5,0.2,0.5,0.5v2.2
			C61.3,32.6,61.1,32.8,60.8,32.8z"/>
		<path class="st2" d="M66.4,32.8L66.4,32.8c-0.3,0-0.6-0.2-0.6-0.5v-2.2c0-0.2,0.2-0.5,0.5-0.5h0.1c0.2,0,0.5,0.2,0.5,0.5v2.2
			C66.9,32.6,66.6,32.8,66.4,32.8z"/>
	</g>
	<g>
		<path class="st2" d="M44,38.4L44,38.4c-0.3,0-0.6-0.2-0.6-0.5v-2.2c0-0.2,0.2-0.5,0.5-0.5H44c0.2,0,0.5,0.2,0.5,0.5v2.2
			C44.5,38.2,44.4,38.4,44,38.4z"/>
		<path class="st2" d="M49.6,38.4L49.6,38.4c-0.3,0-0.6-0.2-0.6-0.5v-2.2c0-0.2,0.2-0.5,0.5-0.5h0.1c0.2,0,0.5,0.2,0.5,0.5v2.2
			C50.1,38.2,49.9,38.4,49.6,38.4z"/>
		<path class="st2" d="M55.2,38.4L55.2,38.4c-0.3,0-0.6-0.2-0.6-0.5v-2.2c0-0.2,0.2-0.5,0.5-0.5h0.1c0.2,0,0.5,0.2,0.5,0.5v2.2
			C55.7,38.2,55.5,38.4,55.2,38.4z"/>
		<path class="st2" d="M60.8,38.4L60.8,38.4c-0.3,0-0.6-0.2-0.6-0.5v-2.2c0-0.2,0.2-0.5,0.5-0.5h0.1c0.2,0,0.5,0.2,0.5,0.5v2.2
			C61.3,38.2,61.1,38.4,60.8,38.4z"/>
		<path class="st2" d="M66.4,38.4L66.4,38.4c-0.3,0-0.6-0.2-0.6-0.5v-2.2c0-0.2,0.2-0.5,0.5-0.5h0.1c0.2,0,0.5,0.2,0.5,0.5v2.2
			C66.9,38.2,66.6,38.4,66.4,38.4z"/>
	</g>
	<g>
		<path class="st2" d="M44,44L44,44c-0.3,0-0.6-0.2-0.6-0.5v-2.2c0-0.2,0.2-0.5,0.5-0.5H44c0.2,0,0.5,0.2,0.5,0.5v2.2
			C44.5,43.8,44.4,44,44,44z"/>
		<path class="st2" d="M49.6,44L49.6,44c-0.3,0-0.6-0.2-0.6-0.5v-2.2c0-0.2,0.2-0.5,0.5-0.5h0.1c0.2,0,0.5,0.2,0.5,0.5v2.2
			C50.1,43.8,49.9,44,49.6,44z"/>
		<path class="st2" d="M55.2,44L55.2,44c-0.3,0-0.6-0.2-0.6-0.5v-2.2c0-0.2,0.2-0.5,0.5-0.5h0.1c0.2,0,0.5,0.2,0.5,0.5v2.2
			C55.7,43.8,55.5,44,55.2,44z"/>
		<path class="st2" d="M60.8,44L60.8,44c-0.3,0-0.6-0.2-0.6-0.5v-2.2c0-0.2,0.2-0.5,0.5-0.5h0.1c0.2,0,0.5,0.2,0.5,0.5v2.2
			C61.3,43.8,61.1,44,60.8,44z"/>
		<path class="st2" d="M66.4,44L66.4,44c-0.3,0-0.6-0.2-0.6-0.5v-2.2c0-0.2,0.2-0.5,0.5-0.5h0.1c0.2,0,0.5,0.2,0.5,0.5v2.2
			C66.9,43.8,66.6,44,66.4,44z"/>
	</g>
	<g>
		<path class="st2" d="M44,49.6L44,49.6c-0.3,0-0.6-0.2-0.6-0.5v-2.2c0-0.2,0.2-0.5,0.5-0.5H44c0.2,0,0.5,0.2,0.5,0.5v2.2
			C44.5,49.4,44.4,49.6,44,49.6z"/>
		<path class="st2" d="M49.6,49.6L49.6,49.6c-0.3,0-0.6-0.2-0.6-0.5v-2.2c0-0.2,0.2-0.5,0.5-0.5h0.1c0.2,0,0.5,0.2,0.5,0.5v2.2
			C50.1,49.4,49.9,49.6,49.6,49.6z"/>
		<path class="st2" d="M55.2,49.6L55.2,49.6c-0.3,0-0.6-0.2-0.6-0.5v-2.2c0-0.2,0.2-0.5,0.5-0.5h0.1c0.2,0,0.5,0.2,0.5,0.5v2.2
			C55.7,49.4,55.5,49.6,55.2,49.6z"/>
		<path class="st2" d="M60.8,49.6L60.8,49.6c-0.3,0-0.6-0.2-0.6-0.5v-2.2c0-0.2,0.2-0.5,0.5-0.5h0.1c0.2,0,0.5,0.2,0.5,0.5v2.2
			C61.3,49.4,61.1,49.6,60.8,49.6z"/>
		<path class="st2" d="M66.4,49.6L66.4,49.6c-0.3,0-0.6-0.2-0.6-0.5v-2.2c0-0.2,0.2-0.5,0.5-0.5h0.1c0.2,0,0.5,0.2,0.5,0.5v2.2
			C66.9,49.4,66.6,49.6,66.4,49.6z"/>
	</g>
</g>
<g>
	<g>
		<defs>
			<path id="SVGID_1_" d="M88.4,64.8h-67c-1.2,0-2.2-1-2.2-2.2V8.7c0-1.2,1-2.2,2.2-2.2h67c1.2,0,2.2,1,2.2,2.2v53.8
				C90.7,63.7,89.7,64.8,88.4,64.8z"/>
		</defs>
		<clipPath id="SVGID_2_">
			<use xlink:href="#SVGID_1_"  style="overflow:visible;"/>
		</clipPath>
		<polygon class="st3" points="18.4,25.1 38.2,5.4 18.4,5.4 		"/>
	</g>
	<g>
		<defs>
			<path id="SVGID_3_" d="M88.4,64.8h-67c-1.2,0-2.2-1-2.2-2.2V8.7c0-1.2,1-2.2,2.2-2.2h67c1.2,0,2.2,1,2.2,2.2v53.8
				C90.7,63.7,89.7,64.8,88.4,64.8z"/>
		</defs>
		<clipPath id="SVGID_4_">
			<use xlink:href="#SVGID_3_"  style="overflow:visible;"/>
		</clipPath>
		<polygon class="st4" points="37.2,15.2 47.1,5.4 37.2,5.4 		"/>
	</g>
	<g>
		<defs>
			<path id="SVGID_5_" d="M88.4,64.8h-67c-1.2,0-2.2-1-2.2-2.2V8.7c0-1.2,1-2.2,2.2-2.2h67c1.2,0,2.2,1,2.2,2.2v53.8
				C90.7,63.7,89.7,64.8,88.4,64.8z"/>
		</defs>
		<clipPath id="SVGID_6_">
			<use xlink:href="#SVGID_5_"  style="overflow:visible;"/>
		</clipPath>
		<polygon class="st5" points="46.1,11 51.5,5.4 46.1,5.4 		"/>
	</g>
</g>
<g>
	<path class="st6" d="M57.8,13.7c1.2,0,2.1,1,2.1,2.1c0,1.2-1,2.1-2.1,2.1h-5.5c-1.2,0-2.1-1-2.1-2.1c0-1.2,1-2.1,2.1-2.1H57.8
		 M57.8,12.4h-5.5c-1.9,0-3.5,1.6-3.5,3.5l0,0c0,1.9,1.6,3.5,3.5,3.5h5.5c1.9,0,3.5-1.6,3.5-3.5l0,0C61.3,13.9,59.8,12.4,57.8,12.4
		L57.8,12.4z"/>
</g>
<circle class="st6" cx="52.3" cy="15.8" r="0.7"/>
<circle class="st6" cx="57.8" cy="15.8" r="0.7"/>
<polygon class="st6" points="82.8,29.2 82.8,23.9 88,23.9 "/>
<polygon class="st6" points="21.9,45.7 27.2,40.5 27.2,45.7 "/>
<g>
	<path d="M83.7,24.6h0.5c0.3,0,0.6,0.1,0.6,0.4c0,0.2-0.1,0.3-0.2,0.3l0,0c0.2,0,0.3,0.2,0.3,0.4c0,0.3-0.2,0.5-0.7,0.5h-0.5
		C83.7,26.2,83.7,24.6,83.7,24.6z M84.1,25.3c0.3,0,0.4-0.1,0.4-0.2c0-0.2-0.2-0.2-0.4-0.2h-0.2v0.6L84.1,25.3L84.1,25.3z M84.2,26
		c0.3,0,0.5-0.1,0.5-0.3s-0.2-0.3-0.5-0.3h-0.3V26H84.2z"/>
</g>
<g>
	<path d="M26.2,44.4h-0.7l-0.2,0.5h-0.2l0.6-1.6H26l0.6,1.6h-0.2L26.2,44.4z M26.1,44.3L26,44c-0.1-0.2-0.1-0.3-0.2-0.6l0,0
		c-0.1,0.2-0.1,0.4-0.2,0.6l-0.1,0.2H26.1z"/>
</g>
<g>
	<g>
		<g>
			<path class="st7" d="M30.4,31.6v7.2h-6.3v-7.2H30.4 M31.2,30.7h-7.9v8.8h7.9V30.7L31.2,30.7z"/>
		</g>
		<g>
			<rect x="23.3" y="30.2" class="st8" width="7.9" height="8.8"/>
		</g>
		<g>
			<rect x="23.7" y="30.7" class="st8" width="7.9" height="8.8"/>
		</g>
		<g>
			<rect x="22.9" y="30.7" class="st8" width="7.9" height="8.8"/>
		</g>
		<g>
			<rect x="23.3" y="31.2" class="st9" width="7.9" height="8.8"/>
		</g>
		<g>
			<rect x="23.3" y="30.7" class="st10" width="7.9" height="8.8"/>
		</g>
		<g>
			<circle class="st11" cx="27.1" cy="35.1" r="2.1"/>
		</g>
		<g>
			<circle class="st12" cx="27.1" cy="35.1" r="2.1"/>
		</g>
	</g>
	<circle class="st13" cx="21.1" cy="35" r="0.7"/>
</g>
<g>
	<g>
		<g>
			<path class="st7" d="M86.1,31.6v7.2h-6.3v-7.2H86.1 M86.9,30.7H79v8.8h7.9V30.7L86.9,30.7z"/>
		</g>
		<g>
			<rect x="79" y="30.2" class="st8" width="7.9" height="8.8"/>
		</g>
		<g>
			<rect x="79.4" y="30.7" class="st8" width="7.9" height="8.8"/>
		</g>
		<g>
			<rect x="78.6" y="30.7" class="st8" width="7.9" height="8.8"/>
		</g>
		<g>
			<rect x="79" y="31.2" class="st9" width="7.9" height="8.8"/>
		</g>
		<g>
			<rect x="79" y="30.7" class="st10" width="7.9" height="8.8"/>
		</g>
		<g>
			<circle class="st11" cx="82.8" cy="35.1" r="2.1"/>
		</g>
		<g>
			<circle class="st12" cx="82.8" cy="35.1" r="2.1"/>
		</g>
	</g>
	<circle class="st13" cx="89.3" cy="35" r="0.7"/>
</g>
<g>
	<g>
		<defs>
			<path id="SVGID_7_" d="M88.4,64.8h-67c-1.2,0-2.2-1-2.2-2.2V8.7c0-1.2,1-2.2,2.2-2.2h67c1.2,0,2.2,1,2.2,2.2v53.8
				C90.7,63.7,89.7,64.8,88.4,64.8z"/>
		</defs>
		<clipPath id="SVGID_8_">
			<use xlink:href="#SVGID_7_"  style="overflow:visible;"/>
		</clipPath>
		
			<linearGradient id="SVGID_9_" gradientUnits="userSpaceOnUse" x1="20.6752" y1="14.2457" x2="20.6752" y2="6.1334" gradientTransform="matrix(1 0 0 -1 0 71.89)">
			<stop  offset="0" style="stop-color:#E9BD00"/>
			<stop  offset="1" style="stop-color:#D47A00"/>
		</linearGradient>
		<rect x="20.1" y="57.7" class="st14" width="1.2" height="8.2"/>
	</g>
	<g>
		<defs>
			<path id="SVGID_10_" d="M88.4,64.8h-67c-1.2,0-2.2-1-2.2-2.2V8.7c0-1.2,1-2.2,2.2-2.2h67c1.2,0,2.2,1,2.2,2.2v53.8
				C90.7,63.7,89.7,64.8,88.4,64.8z"/>
		</defs>
		<clipPath id="SVGID_11_">
			<use xlink:href="#SVGID_10_"  style="overflow:visible;"/>
		</clipPath>
		
			<linearGradient id="SVGID_12_" gradientUnits="userSpaceOnUse" x1="29.5735" y1="14.2457" x2="29.5735" y2="6.1334" gradientTransform="matrix(1 0 0 -1 0 71.89)">
			<stop  offset="0" style="stop-color:#E9BD00"/>
			<stop  offset="1" style="stop-color:#D47A00"/>
		</linearGradient>
		<rect x="29" y="57.7" class="st15" width="1.2" height="8.2"/>
	</g>
	<g>
		<defs>
			<path id="SVGID_13_" d="M88.4,64.8h-67c-1.2,0-2.2-1-2.2-2.2V8.7c0-1.2,1-2.2,2.2-2.2h67c1.2,0,2.2,1,2.2,2.2v53.8
				C90.7,63.7,89.7,64.8,88.4,64.8z"/>
		</defs>
		<clipPath id="SVGID_14_">
			<use xlink:href="#SVGID_13_"  style="overflow:visible;"/>
		</clipPath>
		
			<linearGradient id="SVGID_15_" gradientUnits="userSpaceOnUse" x1="31.2213" y1="14.2457" x2="31.2213" y2="6.1334" gradientTransform="matrix(1 0 0 -1 0 71.89)">
			<stop  offset="0" style="stop-color:#E9BD00"/>
			<stop  offset="1" style="stop-color:#D47A00"/>
		</linearGradient>
		<rect x="30.6" y="57.7" class="st16" width="1.2" height="8.2"/>
	</g>
	<g>
		<defs>
			<path id="SVGID_16_" d="M88.4,64.8h-67c-1.2,0-2.2-1-2.2-2.2V8.7c0-1.2,1-2.2,2.2-2.2h67c1.2,0,2.2,1,2.2,2.2v53.8
				C90.7,63.7,89.7,64.8,88.4,64.8z"/>
		</defs>
		<clipPath id="SVGID_17_">
			<use xlink:href="#SVGID_16_"  style="overflow:visible;"/>
		</clipPath>
		
			<linearGradient id="SVGID_18_" gradientUnits="userSpaceOnUse" x1="32.7867" y1="14.2457" x2="32.7867" y2="6.1334" gradientTransform="matrix(1 0 0 -1 0 71.89)">
			<stop  offset="0" style="stop-color:#E9BD00"/>
			<stop  offset="1" style="stop-color:#D47A00"/>
		</linearGradient>
		<rect x="32.2" y="57.7" class="st17" width="1.2" height="8.2"/>
	</g>
	<g>
		<defs>
			<path id="SVGID_19_" d="M88.4,64.8h-67c-1.2,0-2.2-1-2.2-2.2V8.7c0-1.2,1-2.2,2.2-2.2h67c1.2,0,2.2,1,2.2,2.2v53.8
				C90.7,63.7,89.7,64.8,88.4,64.8z"/>
		</defs>
		<clipPath id="SVGID_20_">
			<use xlink:href="#SVGID_19_"  style="overflow:visible;"/>
		</clipPath>
		
			<linearGradient id="SVGID_21_" gradientUnits="userSpaceOnUse" x1="34.3522" y1="14.2457" x2="34.3522" y2="6.1334" gradientTransform="matrix(1 0 0 -1 0 71.89)">
			<stop  offset="0" style="stop-color:#E9BD00"/>
			<stop  offset="1" style="stop-color:#D47A00"/>
		</linearGradient>
		<rect x="33.7" y="57.7" class="st18" width="1.2" height="8.2"/>
	</g>
	<g>
		<defs>
			<path id="SVGID_22_" d="M88.4,64.8h-67c-1.2,0-2.2-1-2.2-2.2V8.7c0-1.2,1-2.2,2.2-2.2h67c1.2,0,2.2,1,2.2,2.2v53.8
				C90.7,63.7,89.7,64.8,88.4,64.8z"/>
		</defs>
		<clipPath id="SVGID_23_">
			<use xlink:href="#SVGID_22_"  style="overflow:visible;"/>
		</clipPath>
		
			<linearGradient id="SVGID_24_" gradientUnits="userSpaceOnUse" x1="75.3831" y1="14.2457" x2="75.3831" y2="6.1334" gradientTransform="matrix(1 0 0 -1 0 71.89)">
			<stop  offset="0" style="stop-color:#E9BD00"/>
			<stop  offset="1" style="stop-color:#D47A00"/>
		</linearGradient>
		<rect x="74.8" y="57.7" class="st19" width="1.2" height="8.2"/>
	</g>
	<g>
		<defs>
			<path id="SVGID_25_" d="M88.4,64.8h-67c-1.2,0-2.2-1-2.2-2.2V8.7c0-1.2,1-2.2,2.2-2.2h67c1.2,0,2.2,1,2.2,2.2v53.8
				C90.7,63.7,89.7,64.8,88.4,64.8z"/>
		</defs>
		<clipPath id="SVGID_26_">
			<use xlink:href="#SVGID_25_"  style="overflow:visible;"/>
		</clipPath>
		
			<linearGradient id="SVGID_27_" gradientUnits="userSpaceOnUse" x1="77.0309" y1="14.2457" x2="77.0309" y2="6.1334" gradientTransform="matrix(1 0 0 -1 0 71.89)">
			<stop  offset="0" style="stop-color:#E9BD00"/>
			<stop  offset="1" style="stop-color:#D47A00"/>
		</linearGradient>
		<rect x="76.4" y="57.7" class="st20" width="1.2" height="8.2"/>
	</g>
	<g>
		<defs>
			<path id="SVGID_28_" d="M88.4,64.8h-67c-1.2,0-2.2-1-2.2-2.2V8.7c0-1.2,1-2.2,2.2-2.2h67c1.2,0,2.2,1,2.2,2.2v53.8
				C90.7,63.7,89.7,64.8,88.4,64.8z"/>
		</defs>
		<clipPath id="SVGID_29_">
			<use xlink:href="#SVGID_28_"  style="overflow:visible;"/>
		</clipPath>
		
			<linearGradient id="SVGID_30_" gradientUnits="userSpaceOnUse" x1="78.5963" y1="14.2457" x2="78.5963" y2="6.1334" gradientTransform="matrix(1 0 0 -1 0 71.89)">
			<stop  offset="0" style="stop-color:#E9BD00"/>
			<stop  offset="1" style="stop-color:#D47A00"/>
		</linearGradient>
		<rect x="78" y="57.7" class="st21" width="1.2" height="8.2"/>
	</g>
	<g>
		<defs>
			<path id="SVGID_31_" d="M88.4,64.8h-67c-1.2,0-2.2-1-2.2-2.2V8.7c0-1.2,1-2.2,2.2-2.2h67c1.2,0,2.2,1,2.2,2.2v53.8
				C90.7,63.7,89.7,64.8,88.4,64.8z"/>
		</defs>
		<clipPath id="SVGID_32_">
			<use xlink:href="#SVGID_31_"  style="overflow:visible;"/>
		</clipPath>
		
			<linearGradient id="SVGID_33_" gradientUnits="userSpaceOnUse" x1="80.1618" y1="14.2457" x2="80.1618" y2="6.1334" gradientTransform="matrix(1 0 0 -1 0 71.89)">
			<stop  offset="0" style="stop-color:#E9BD00"/>
			<stop  offset="1" style="stop-color:#D47A00"/>
		</linearGradient>
		<rect x="79.5" y="57.7" class="st22" width="1.2" height="8.2"/>
	</g>
	<g>
		<defs>
			<path id="SVGID_34_" d="M88.4,64.8h-67c-1.2,0-2.2-1-2.2-2.2V8.7c0-1.2,1-2.2,2.2-2.2h67c1.2,0,2.2,1,2.2,2.2v53.8
				C90.7,63.7,89.7,64.8,88.4,64.8z"/>
		</defs>
		<clipPath id="SVGID_35_">
			<use xlink:href="#SVGID_34_"  style="overflow:visible;"/>
		</clipPath>
		
			<linearGradient id="SVGID_36_" gradientUnits="userSpaceOnUse" x1="89.472" y1="14.2457" x2="89.472" y2="6.1334" gradientTransform="matrix(1 0 0 -1 0 71.89)">
			<stop  offset="0" style="stop-color:#E9BD00"/>
			<stop  offset="1" style="stop-color:#D47A00"/>
		</linearGradient>
		<rect x="88.9" y="57.7" class="st23" width="1.2" height="8.2"/>
	</g>
	<g>
		<defs>
			<path id="SVGID_37_" d="M88.4,64.8h-67c-1.2,0-2.2-1-2.2-2.2V8.7c0-1.2,1-2.2,2.2-2.2h67c1.2,0,2.2,1,2.2,2.2v53.8
				C90.7,63.7,89.7,64.8,88.4,64.8z"/>
		</defs>
		<clipPath id="SVGID_38_">
			<use xlink:href="#SVGID_37_"  style="overflow:visible;"/>
		</clipPath>
		
			<linearGradient id="SVGID_39_" gradientUnits="userSpaceOnUse" x1="43.7448" y1="14.2457" x2="43.7448" y2="6.1334" gradientTransform="matrix(1 0 0 -1 0 71.89)">
			<stop  offset="0" style="stop-color:#E9BD00"/>
			<stop  offset="1" style="stop-color:#D47A00"/>
		</linearGradient>
		<rect x="43.1" y="57.7" class="st24" width="1.2" height="8.2"/>
	</g>
	<g>
		<defs>
			<path id="SVGID_40_" d="M88.4,64.8h-67c-1.2,0-2.2-1-2.2-2.2V8.7c0-1.2,1-2.2,2.2-2.2h67c1.2,0,2.2,1,2.2,2.2v53.8
				C90.7,63.7,89.7,64.8,88.4,64.8z"/>
		</defs>
		<clipPath id="SVGID_41_">
			<use xlink:href="#SVGID_40_"  style="overflow:visible;"/>
		</clipPath>
		
			<linearGradient id="SVGID_42_" gradientUnits="userSpaceOnUse" x1="45.3926" y1="14.2457" x2="45.3926" y2="6.1334" gradientTransform="matrix(1 0 0 -1 0 71.89)">
			<stop  offset="0" style="stop-color:#E9BD00"/>
			<stop  offset="1" style="stop-color:#D47A00"/>
		</linearGradient>
		<rect x="44.8" y="57.7" class="st25" width="1.2" height="8.2"/>
	</g>
	<g>
		<defs>
			<path id="SVGID_43_" d="M88.4,64.8h-67c-1.2,0-2.2-1-2.2-2.2V8.7c0-1.2,1-2.2,2.2-2.2h67c1.2,0,2.2,1,2.2,2.2v53.8
				C90.7,63.7,89.7,64.8,88.4,64.8z"/>
		</defs>
		<clipPath id="SVGID_44_">
			<use xlink:href="#SVGID_43_"  style="overflow:visible;"/>
		</clipPath>
		
			<linearGradient id="SVGID_45_" gradientUnits="userSpaceOnUse" x1="46.958" y1="14.2457" x2="46.958" y2="6.1334" gradientTransform="matrix(1 0 0 -1 0 71.89)">
			<stop  offset="0" style="stop-color:#E9BD00"/>
			<stop  offset="1" style="stop-color:#D47A00"/>
		</linearGradient>
		<rect x="46.3" y="57.7" class="st26" width="1.2" height="8.2"/>
	</g>
	<g>
		<defs>
			<path id="SVGID_46_" d="M88.4,64.8h-67c-1.2,0-2.2-1-2.2-2.2V8.7c0-1.2,1-2.2,2.2-2.2h67c1.2,0,2.2,1,2.2,2.2v53.8
				C90.7,63.7,89.7,64.8,88.4,64.8z"/>
		</defs>
		<clipPath id="SVGID_47_">
			<use xlink:href="#SVGID_46_"  style="overflow:visible;"/>
		</clipPath>
		
			<linearGradient id="SVGID_48_" gradientUnits="userSpaceOnUse" x1="48.5235" y1="14.2457" x2="48.5235" y2="6.1334" gradientTransform="matrix(1 0 0 -1 0 71.89)">
			<stop  offset="0" style="stop-color:#E9BD00"/>
			<stop  offset="1" style="stop-color:#D47A00"/>
		</linearGradient>
		<rect x="47.9" y="57.7" class="st27" width="1.2" height="8.2"/>
	</g>
	<g>
		<defs>
			<path id="SVGID_49_" d="M88.4,64.8h-67c-1.2,0-2.2-1-2.2-2.2V8.7c0-1.2,1-2.2,2.2-2.2h67c1.2,0,2.2,1,2.2,2.2v53.8
				C90.7,63.7,89.7,64.8,88.4,64.8z"/>
		</defs>
		<clipPath id="SVGID_50_">
			<use xlink:href="#SVGID_49_"  style="overflow:visible;"/>
		</clipPath>
		
			<linearGradient id="SVGID_51_" gradientUnits="userSpaceOnUse" x1="50.3361" y1="14.2457" x2="50.3361" y2="6.1334" gradientTransform="matrix(1 0 0 -1 0 71.89)">
			<stop  offset="0" style="stop-color:#E9BD00"/>
			<stop  offset="1" style="stop-color:#D47A00"/>
		</linearGradient>
		<rect x="49.7" y="57.7" class="st28" width="1.2" height="8.2"/>
	</g>
	<g>
		<defs>
			<path id="SVGID_52_" d="M88.4,64.8h-67c-1.2,0-2.2-1-2.2-2.2V8.7c0-1.2,1-2.2,2.2-2.2h67c1.2,0,2.2,1,2.2,2.2v53.8
				C90.7,63.7,89.7,64.8,88.4,64.8z"/>
		</defs>
		<clipPath id="SVGID_53_">
			<use xlink:href="#SVGID_52_"  style="overflow:visible;"/>
		</clipPath>
		
			<linearGradient id="SVGID_54_" gradientUnits="userSpaceOnUse" x1="59.5639" y1="14.2457" x2="59.5639" y2="6.1334" gradientTransform="matrix(1 0 0 -1 0 71.89)">
			<stop  offset="0" style="stop-color:#E9BD00"/>
			<stop  offset="1" style="stop-color:#D47A00"/>
		</linearGradient>
		<rect x="58.9" y="57.7" class="st29" width="1.2" height="8.2"/>
	</g>
	<g>
		<defs>
			<path id="SVGID_55_" d="M88.4,64.8h-67c-1.2,0-2.2-1-2.2-2.2V8.7c0-1.2,1-2.2,2.2-2.2h67c1.2,0,2.2,1,2.2,2.2v53.8
				C90.7,63.7,89.7,64.8,88.4,64.8z"/>
		</defs>
		<clipPath id="SVGID_56_">
			<use xlink:href="#SVGID_55_"  style="overflow:visible;"/>
		</clipPath>
		
			<linearGradient id="SVGID_57_" gradientUnits="userSpaceOnUse" x1="61.2117" y1="14.2457" x2="61.2117" y2="6.1334" gradientTransform="matrix(1 0 0 -1 0 71.89)">
			<stop  offset="0" style="stop-color:#E9BD00"/>
			<stop  offset="1" style="stop-color:#D47A00"/>
		</linearGradient>
		<rect x="60.6" y="57.7" class="st30" width="1.2" height="8.2"/>
	</g>
	<g>
		<defs>
			<path id="SVGID_58_" d="M88.4,64.8h-67c-1.2,0-2.2-1-2.2-2.2V8.7c0-1.2,1-2.2,2.2-2.2h67c1.2,0,2.2,1,2.2,2.2v53.8
				C90.7,63.7,89.7,64.8,88.4,64.8z"/>
		</defs>
		<clipPath id="SVGID_59_">
			<use xlink:href="#SVGID_58_"  style="overflow:visible;"/>
		</clipPath>
		
			<linearGradient id="SVGID_60_" gradientUnits="userSpaceOnUse" x1="62.7772" y1="14.2457" x2="62.7772" y2="6.1334" gradientTransform="matrix(1 0 0 -1 0 71.89)">
			<stop  offset="0" style="stop-color:#E9BD00"/>
			<stop  offset="1" style="stop-color:#D47A00"/>
		</linearGradient>
		<rect x="62.2" y="57.7" class="st31" width="1.2" height="8.2"/>
	</g>
	<g>
		<defs>
			<path id="SVGID_61_" d="M88.4,64.8h-67c-1.2,0-2.2-1-2.2-2.2V8.7c0-1.2,1-2.2,2.2-2.2h67c1.2,0,2.2,1,2.2,2.2v53.8
				C90.7,63.7,89.7,64.8,88.4,64.8z"/>
		</defs>
		<clipPath id="SVGID_62_">
			<use xlink:href="#SVGID_61_"  style="overflow:visible;"/>
		</clipPath>
		
			<linearGradient id="SVGID_63_" gradientUnits="userSpaceOnUse" x1="64.425" y1="14.2457" x2="64.425" y2="6.1334" gradientTransform="matrix(1 0 0 -1 0 71.89)">
			<stop  offset="0" style="stop-color:#E9BD00"/>
			<stop  offset="1" style="stop-color:#D47A00"/>
		</linearGradient>
		<rect x="63.8" y="57.7" class="st32" width="1.2" height="8.2"/>
	</g>
	<g>
		<defs>
			<path id="SVGID_64_" d="M88.4,64.8h-67c-1.2,0-2.2-1-2.2-2.2V8.7c0-1.2,1-2.2,2.2-2.2h67c1.2,0,2.2,1,2.2,2.2v53.8
				C90.7,63.7,89.7,64.8,88.4,64.8z"/>
		</defs>
		<clipPath id="SVGID_65_">
			<use xlink:href="#SVGID_64_"  style="overflow:visible;"/>
		</clipPath>
		
			<linearGradient id="SVGID_66_" gradientUnits="userSpaceOnUse" x1="66.1552" y1="14.2457" x2="66.1552" y2="6.1334" gradientTransform="matrix(1 0 0 -1 0 71.89)">
			<stop  offset="0" style="stop-color:#E9BD00"/>
			<stop  offset="1" style="stop-color:#D47A00"/>
		</linearGradient>
		<rect x="65.5" y="57.7" class="st33" width="1.2" height="8.2"/>
	</g>
	<g>
		<defs>
			<path id="SVGID_67_" d="M88.4,64.8h-67c-1.2,0-2.2-1-2.2-2.2V8.7c0-1.2,1-2.2,2.2-2.2h67c1.2,0,2.2,1,2.2,2.2v53.8
				C90.7,63.7,89.7,64.8,88.4,64.8z"/>
		</defs>
		<clipPath id="SVGID_68_">
			<use xlink:href="#SVGID_67_"  style="overflow:visible;"/>
		</clipPath>
		<g class="st34">
			
				<linearGradient id="SVGID_69_" gradientUnits="userSpaceOnUse" x1="25.0831" y1="19.9617" x2="25.0831" y2="5.878" gradientTransform="matrix(1 0 0 -1 0 71.89)">
				<stop  offset="0" style="stop-color:#E9BD00"/>
				<stop  offset="1" style="stop-color:#D47A00"/>
			</linearGradient>
			<path class="st35" d="M28.6,67.1h-7.1V55c0-1.8,1.5-3.3,3.3-3.3h0.5c1.8,0,3.3,1.5,3.3,3.3V67.1z"/>
			<circle class="st13" cx="25.1" cy="55" r="2.6"/>
			<g>
				<path d="M24.5,60.9c0-0.7,0.2-1.2,0.7-1.2s0.7,0.3,0.7,1.2c0,0.7-0.2,1.2-0.7,1.2C24.8,62,24.5,61.6,24.5,60.9z M25.6,60.9
					c0-0.7-0.2-0.9-0.4-0.9s-0.4,0.3-0.4,0.9c0,0.7,0.2,1,0.4,1C25.4,61.9,25.6,61.6,25.6,60.9z"/>
			</g>
		</g>
	</g>
	<g>
		<defs>
			<path id="SVGID_70_" d="M88.4,64.8h-67c-1.2,0-2.2-1-2.2-2.2V8.7c0-1.2,1-2.2,2.2-2.2h67c1.2,0,2.2,1,2.2,2.2v53.8
				C90.7,63.7,89.7,64.8,88.4,64.8z"/>
		</defs>
		<clipPath id="SVGID_71_">
			<use xlink:href="#SVGID_70_"  style="overflow:visible;"/>
		</clipPath>
		<g class="st36">
			
				<linearGradient id="SVGID_72_" gradientUnits="userSpaceOnUse" x1="39.1721" y1="19.9617" x2="39.1721" y2="5.878" gradientTransform="matrix(1 0 0 -1 0 71.89)">
				<stop  offset="0" style="stop-color:#E9BD00"/>
				<stop  offset="1" style="stop-color:#D47A00"/>
			</linearGradient>
			<path class="st37" d="M42.7,67.1h-7.1V55c0-1.8,1.5-3.3,3.3-3.3h0.4c1.8,0,3.3,1.5,3.3,3.3L42.7,67.1L42.7,67.1z"/>
			<circle class="st13" cx="39.2" cy="55" r="2.6"/>
			<g>
				<path d="M38.7,61.8h0.5v-1.6h-0.4V60c0.2,0,0.3-0.1,0.4-0.2h0.2v2h0.4V62h-1.2L38.7,61.8L38.7,61.8z"/>
			</g>
		</g>
	</g>
	<g>
		<defs>
			<path id="SVGID_73_" d="M88.4,64.8h-67c-1.2,0-2.2-1-2.2-2.2V8.7c0-1.2,1-2.2,2.2-2.2h67c1.2,0,2.2,1,2.2,2.2v53.8
				C90.7,63.7,89.7,64.8,88.4,64.8z"/>
		</defs>
		<clipPath id="SVGID_74_">
			<use xlink:href="#SVGID_73_"  style="overflow:visible;"/>
		</clipPath>
		<g class="st38">
			
				<linearGradient id="SVGID_75_" gradientUnits="userSpaceOnUse" x1="54.9912" y1="19.9617" x2="54.9912" y2="5.878" gradientTransform="matrix(1 0 0 -1 0 71.89)">
				<stop  offset="0" style="stop-color:#E9BD00"/>
				<stop  offset="1" style="stop-color:#D47A00"/>
			</linearGradient>
			<path class="st39" d="M58.5,67.1h-7.1V55c0-1.8,1.5-3.3,3.3-3.3h0.4c1.8,0,3.3,1.5,3.3,3.3L58.5,67.1L58.5,67.1z"/>
			<circle class="st13" cx="55" cy="55" r="2.6"/>
			<g>
				<path d="M54.3,61.9c0.7-0.6,1-1.1,1-1.4c0-0.2-0.2-0.5-0.4-0.5c-0.2,0-0.3,0.1-0.5,0.2l-0.2-0.2c0.2-0.2,0.3-0.3,0.7-0.3
					c0.4,0,0.7,0.2,0.7,0.7c0,0.4-0.3,0.9-0.9,1.4c0.1,0,0.2,0,0.3,0h0.7V62h-1.4L54.3,61.9L54.3,61.9z"/>
			</g>
		</g>
	</g>
	<g>
		<defs>
			<path id="SVGID_76_" d="M88.4,64.8h-67c-1.2,0-2.2-1-2.2-2.2V8.7c0-1.2,1-2.2,2.2-2.2h67c1.2,0,2.2,1,2.2,2.2v53.8
				C90.7,63.7,89.7,64.8,88.4,64.8z"/>
		</defs>
		<clipPath id="SVGID_77_">
			<use xlink:href="#SVGID_76_"  style="overflow:visible;"/>
		</clipPath>
		<g class="st40">
			
				<linearGradient id="SVGID_78_" gradientUnits="userSpaceOnUse" x1="70.728" y1="19.9617" x2="70.728" y2="5.878" gradientTransform="matrix(1 0 0 -1 0 71.89)">
				<stop  offset="0" style="stop-color:#E9BD00"/>
				<stop  offset="1" style="stop-color:#D47A00"/>
			</linearGradient>
			<path class="st41" d="M74.3,67.1h-7.1V55c0-1.8,1.5-3.3,3.3-3.3h0.4c1.8,0,3.3,1.5,3.3,3.3L74.3,67.1L74.3,67.1z"/>
			<circle class="st13" cx="70.7" cy="55" r="2.6"/>
			<g>
				<path d="M69.2,61.7l0.2-0.2c0.2,0.2,0.3,0.2,0.6,0.2c0.2,0,0.5-0.2,0.5-0.4s-0.2-0.5-0.7-0.5v-0.2c0.5,0,0.7-0.2,0.7-0.4
					c0-0.2-0.2-0.3-0.4-0.3c-0.2,0-0.3,0.1-0.5,0.2l-0.2-0.2c0.2-0.2,0.3-0.2,0.6-0.2c0.3,0,0.7,0.2,0.7,0.6c0,0.2-0.2,0.4-0.4,0.5
					l0,0c0.2,0.1,0.5,0.2,0.5,0.6c0,0.4-0.3,0.7-0.7,0.7C69.5,62,69.3,61.9,69.2,61.7z"/>
				<path d="M70.7,59.8H71l0.3,1.2c0.1,0.2,0.2,0.5,0.2,0.7l0,0c0.1-0.2,0.2-0.5,0.2-0.7l0.3-1.2h0.2L71.6,62h-0.2L70.7,59.8z"/>
			</g>
		</g>
	</g>
	<g>
		<defs>
			<path id="SVGID_79_" d="M88.4,64.8h-67c-1.2,0-2.2-1-2.2-2.2V8.7c0-1.2,1-2.2,2.2-2.2h67c1.2,0,2.2,1,2.2,2.2v53.8
				C90.7,63.7,89.7,64.8,88.4,64.8z"/>
		</defs>
		<clipPath id="SVGID_80_">
			<use xlink:href="#SVGID_79_"  style="overflow:visible;"/>
		</clipPath>
		<g class="st42">
			
				<linearGradient id="SVGID_81_" gradientUnits="userSpaceOnUse" x1="84.8169" y1="19.9617" x2="84.8169" y2="5.878" gradientTransform="matrix(1 0 0 -1 0 71.89)">
				<stop  offset="0" style="stop-color:#E9BD00"/>
				<stop  offset="1" style="stop-color:#D47A00"/>
			</linearGradient>
			<path class="st43" d="M88.4,67.1h-7.1V55c0-1.8,1.5-3.3,3.3-3.3H85c1.8,0,3.3,1.5,3.3,3.3L88.4,67.1L88.4,67.1z"/>
			<circle class="st13" cx="84.8" cy="55" r="2.6"/>
			<g>
				<path d="M82.3,60.9c0-0.7,0.4-1.2,1-1.2c0.3,0,0.5,0.2,0.7,0.2l-0.2,0.2c-0.1-0.1-0.2-0.2-0.5-0.2c-0.5,0-0.7,0.3-0.7,0.9
					s0.2,0.9,0.7,0.9c0.2,0,0.3-0.1,0.4-0.2v-0.6h-0.5v-0.2H84v0.9c-0.2,0.2-0.4,0.2-0.7,0.2C82.8,62,82.3,61.6,82.3,60.9z"/>
				<path d="M84.2,59.8h0.2l0.8,1.4l0.2,0.4l0,0c0-0.2,0-0.5,0-0.7v-1.2h0.2V62h-0.2l-0.8-1.4l-0.2-0.4l0,0c0,0.2,0,0.4,0,0.7v1.2
					h-0.2V59.8z"/>
				<path d="M86.1,59.8h0.6c0.7,0,1,0.4,1,1.1s-0.3,1.1-1,1.1h-0.6V59.8z M86.6,61.8c0.5,0,0.8-0.3,0.8-0.9S87.2,60,86.6,60h-0.2
					v1.8H86.6z"/>
			</g>
		</g>
	</g>
</g>
</svg>
