<?xml version="1.0" encoding="utf-8"?>
<!-- Generator: Adobe Illustrator 21.0.0, SVG Export Plug-In . SVG Version: 6.00 Build 0)  -->
<svg version="1.1" id="图层_1" xmlns="http://www.w3.org/2000/svg" xmlns:xlink="http://www.w3.org/1999/xlink" x="0px" y="0px"
	 viewBox="0 0 342 241.8" style="enable-background:new 0 0 342 241.8;" xml:space="preserve">
<style type="text/css">
	.st0{fill:#494846;}
	.st1{fill:#008CCA;}
	.st2{fill:#2C2D2A;}
	.st3{fill:#5A5955;}
	.st4{fill:#4F4D47;}
	.st5{fill:#949790;}
	.st6{fill:#6E6E66;}
	.st7{fill:#A89E6D;}
	.st8{fill:#EF9438;}
	.st9{clip-path:url(#SVGID_2_);}
	.st10{fill:#0077A0;}
	.st11{clip-path:url(#SVGID_4_);}
	.st12{fill:#E08532;}
	.st13{fill:#272727;}
	.st14{fill:#AE443E;}
	.st15{fill:#96958F;}
</style>
<path class="st0" d="M197,80.3c0,0,13.5,0.5,35.5-7s36.5-17,47-28.5s16-23.5,17.5-22.5s1.5,9.5-9,25s-31.5,27.5-46.5,32
	s-34.5,8-34.5,8L197,80.3z"/>
<g>
	<g>
		<g>
			<path class="st1" d="M253.7,145.4c0,0-5.1-8.2-14.1-15.4c-9.1-7.2-22.3-13.6-15-22.6c7.4-9,17.8-6.6,24.4-0.6
				c6.5,6,18.1,18.9,18.1,18.9L253.7,145.4z"/>
		</g>
		<g>
			<path class="st2" d="M242.8,130.4c0,0,5.3,6.6,7.6,9.8s10.7,14.5,14.7,17.6s13,4.6,18.8-3.4s5.8-14.3-0.4-18.5
				c-6.2-4.2-27-17.6-27-17.6l-2.1-0.3l-12.3,11.4L242.8,130.4z"/>
		</g>
		<g>
			<path class="st3" d="M235.6,164.1l34.2-42c0,0,9.9-2.8,20,14.2c0,0-1.3,5.6-10.3,15.9c-7.6,8.8-25.2,25.8-25.2,25.8l-6.4-1.2
				L235.6,164.1z"/>
		</g>
		<g>
			<g>
				<path class="st4" d="M252.3,137.3l10.9-11.5l12.9,12.3c3.2,3,3.3,8,0.3,11.2l0,0c-3,3.2-8,3.3-11.2,0.3L252.3,137.3z"/>
			</g>
			<g>
				<circle class="st5" cx="270.7" cy="143.9" r="7.9"/>
			</g>
			<g>
				<circle class="st6" cx="270.7" cy="143.9" r="5.6"/>
			</g>
			<g>
				<path class="st7" d="M258.7,140.2l7.6-8.1c0.3-0.3,0.8-0.3,1.1,0l0,0c0.3,0.3,0.3,0.8,0,1.1l-7.6,8.1c-0.3,0.3-0.8,0.3-1.1,0
					l0,0C258.4,141,258.4,140.5,258.7,140.2z"/>
			</g>
			<g>
				<path class="st7" d="M257,138.5l7.6-8.1c0.3-0.3,0.8-0.3,1.1,0l0,0c0.3,0.3,0.3,0.8,0,1.1l-7.6,8.1c-0.3,0.3-0.8,0.3-1.1,0l0,0
					C256.7,139.3,256.7,138.8,257,138.5z"/>
			</g>
			<g>
				<path class="st7" d="M255.3,136.9l7.6-8.1c0.3-0.3,0.8-0.3,1.1,0l0,0c0.3,0.3,0.3,0.8,0,1.1l-7.6,8.1c-0.3,0.3-0.8,0.3-1.1,0
					l0,0C255,137.7,255,137.2,255.3,136.9z"/>
			</g>
		</g>
		<g>
			<path class="st2" d="M252,141.5c0,0-10.3,12.4-20.7,27.5s-20.7,29.7-20.7,29.7l11.8,5.5c0,0,2.5-6.9,7.2-11.5
				c4.8-4.5,15.5-13.3,15.5-13.3l11-0.3l18.4-19.4l-3.8-1.9l-16.1,17.6l-10.3-1.8l-15.8,14.6c0,0-2,2.3-3.4,0.2
				c-1.4-2,1.3-5.2,1.3-5.2l12-16.3l1-4l15.2-18.8L252,141.5z"/>
		</g>
		<g>
			<g>
				<path class="st4" d="M224.9,205c-0.4-5.5-5.2-9.7-10.7-9.3s-9.7,5.2-9.3,10.7s5.2,9.7,10.7,9.3
					C221.1,215.3,225.3,210.5,224.9,205z M215,207.1c-0.8,0.1-1.5-0.5-1.5-1.3c-0.1-0.8,0.5-1.5,1.3-1.5c0.8-0.1,1.5,0.5,1.5,1.3
					C216.4,206.4,215.8,207.1,215,207.1z"/>
			</g>
			<g>
				<path class="st2" d="M219.9,205.4c-0.2-2.8-2.6-4.9-5.4-4.7c-2.8,0.2-4.9,2.6-4.7,5.4c0.2,2.8,2.6,4.9,5.4,4.7
					C218,210.6,220.1,208.2,219.9,205.4z M215,207.1c-0.8,0.1-1.5-0.5-1.5-1.3c-0.1-0.8,0.5-1.5,1.3-1.5c0.8-0.1,1.5,0.5,1.5,1.3
					C216.4,206.4,215.8,207.1,215,207.1z"/>
			</g>
			<g>
				<g>
					<polygon class="st4" points="217.2,216.9 214.1,217.1 212.5,213.8 218.4,213.3 					"/>
				</g>
				<g>
					<polygon class="st4" points="212.6,194.6 215.7,194.3 217.4,197.7 211.4,198.1 					"/>
				</g>
			</g>
			<g>
				<g>
					<polygon class="st4" points="208.7,215.3 206.3,213.2 207.5,209.7 212,213.6 					"/>
				</g>
				<g>
					<polygon class="st4" points="221.1,196.2 223.5,198.2 222.3,201.8 217.8,197.8 					"/>
				</g>
			</g>
			<g>
				<g>
					<polygon class="st4" points="224.4,212 222.4,214.3 218.9,213.1 222.8,208.6 					"/>
				</g>
				<g>
					<polygon class="st4" points="205.4,199.5 207.4,197.1 210.9,198.3 207,202.8 					"/>
				</g>
			</g>
			<g>
				<g>
					<polygon class="st4" points="226.1,203.4 226.3,206.5 222.9,208.2 222.5,202.2 					"/>
				</g>
				<g>
					<polygon class="st4" points="203.7,208 203.5,204.9 206.9,203.3 207.3,209.2 					"/>
				</g>
			</g>
		</g>
	</g>
	<g>
		<circle class="st8" cx="68.5" cy="113.6" r="10.6"/>
	</g>
	<g>
		<path class="st3" d="M96.6,99.9c0,0,2.1,14.9,5.3,22c3.2,7.1,10.7,7.5,10.7,7.5h90l44.1-17.8l-12.5-8.9L96.6,99.9z"/>
	</g>
	<g>
		<path class="st8" d="M104.8,82.3c0,0-0.2-3.3,4-2.1c4.3,1.2,46.5,5.4,46.5,5.4l69-1.2l9.7-4.7l6.9-0.2c0,0-14,15.4-15.7,22.3
			s11.4,8.3,11.4,8.3l-8.3,1.7l-4.7,1.9c0,0-9.5-3.3-17.8-3.8s-20.4-0.7-33.4-0.7s-40.5,1.2-63.8,9.5l-7.6-1.8l-0.9-20.7L104.8,82.3
			z"/>
	</g>
	<g>
		<g>
			<path class="st1" d="M76.7,149.6c0,0-1.7-7.9-6.8-16.2s-13.7-17.2-5.3-22.2s16-0.1,19.4,6.5s8.9,20.2,8.9,20.2L76.7,149.6z"/>
		</g>
		<g>
			<path class="st2" d="M74.5,131.8c0,0,2.7,8,3.8,11.8c1.1,3.8,5.1,17.2,7.8,21.5c2.7,4.3,10.6,8.7,18.8,3.2s10.3-11.5,5.9-17.6
				S91.5,125,91.5,125l-1.9-1l-15.4,6.5L74.5,131.8z"/>
		</g>
		<g>
			<path class="st3" d="M56.2,161l46.5-27.8c0,0,10.3,0.8,13.9,20.2c0,0-3.1,4.8-15.1,11.4C91.3,170.4,69,180.4,69,180.4l-5.6-3.4
				L56.2,161z"/>
		</g>
		<g>
			<g>
				<path class="st4" d="M81.1,141.5l14.1-7l8,15.9c1.9,3.9,0.4,8.6-3.5,10.6l0,0c-3.9,1.9-8.6,0.4-10.6-3.5L81.1,141.5z"/>
			</g>
			<g>
				<circle class="st5" cx="96.1" cy="154" r="7.9"/>
			</g>
			<g>
				<circle class="st6" cx="96.1" cy="154" r="5.6"/>
			</g>
			<g>
				<path class="st7" d="M86.1,146.4l9.9-5c0.4-0.2,0.8,0,1,0.3l0,0c0.2,0.4,0,0.8-0.3,1l-9.9,5c-0.4,0.2-0.8,0-1-0.3l0,0
					C85.6,147.1,85.7,146.6,86.1,146.4z"/>
			</g>
			<g>
				<path class="st7" d="M85.1,144.3l9.9-5c0.4-0.2,0.8,0,1,0.3l0,0c0.2,0.4,0,0.8-0.3,1l-9.9,5c-0.4,0.2-0.8,0-1-0.3l0,0
					C84.5,144.9,84.7,144.4,85.1,144.3z"/>
			</g>
			<g>
				<path class="st7" d="M84,142.1l9.9-5c0.4-0.2,0.8,0,1,0.3l0,0c0.2,0.4,0,0.8-0.3,1l-9.9,5c-0.4,0.2-0.8,0-1-0.3l0,0
					C83.4,142.8,83.6,142.3,84,142.1z"/>
			</g>
		</g>
		<g>
			<path class="st2" d="M79.3,145.4c0,0-13.9,8.2-28.8,18.8S20.9,185,20.9,185l9.2,9.2c0,0,4.7-5.7,10.7-8.3
				c6-2.7,19.2-7.2,19.2-7.2l10.4,3.4l23.9-11.9l-2.9-3.1l-21.1,11l-9.1-5.3l-19.8,8.4c0,0-2.6,1.4-3.2-0.9c-0.6-2.4,3-4.4,3-4.4
				L58,164.7l2.3-3.5L81,148.7L79.3,145.4z"/>
		</g>
		<g>
			<g>
				<path class="st4" d="M25.3,183.4c-5.3-1.5-10.9,1.5-12.4,6.9s1.5,10.9,6.9,12.4c5.3,1.5,10.9-1.5,12.4-6.9
					C33.7,190.5,30.6,184.9,25.3,183.4z M23.9,193.4c-0.2,0.8-1,1.2-1.8,1s-1.2-1-1-1.8s1-1.2,1.8-1
					C23.7,191.9,24.1,192.7,23.9,193.4z"/>
			</g>
			<g>
				<path class="st2" d="M23.9,188.2c-2.7-0.8-5.5,0.8-6.2,3.5c-0.8,2.7,0.8,5.5,3.5,6.2c2.7,0.8,5.5-0.8,6.2-3.5
					C28.2,191.8,26.6,189,23.9,188.2z M23.9,193.4c-0.2,0.8-1,1.2-1.8,1s-1.2-1-1-1.8s1-1.2,1.8-1C23.7,191.9,24.1,192.7,23.9,193.4
					z"/>
			</g>
			<g>
				<g>
					<polygon class="st4" points="20.9,204.3 17.9,203.5 17.5,199.8 23.3,201.4 					"/>
				</g>
				<g>
					<polygon class="st4" points="24.2,181.8 27.2,182.6 27.6,186.3 21.8,184.7 					"/>
				</g>
			</g>
			<g>
				<g>
					<polygon class="st4" points="13.4,199.9 11.9,197.2 14.2,194.2 17.1,199.5 					"/>
				</g>
				<g>
					<polygon class="st4" points="31.7,186.2 33.2,188.9 30.9,191.9 28,186.6 					"/>
				</g>
			</g>
			<g>
				<g>
					<polygon class="st4" points="29.4,202.2 26.7,203.7 23.7,201.4 29,198.5 					"/>
				</g>
				<g>
					<polygon class="st4" points="15.7,183.9 18.4,182.4 21.4,184.7 16.1,187.6 					"/>
				</g>
			</g>
			<g>
				<g>
					<polygon class="st4" points="33.8,194.7 33,197.7 29.3,198.1 30.9,192.3 					"/>
				</g>
				<g>
					<polygon class="st4" points="11.3,191.4 12.1,188.4 15.8,188 14.2,193.8 					"/>
				</g>
			</g>
		</g>
	</g>
	<g>
		<path class="st3" d="M110.6,80.5l-8.8,2.5l-1.7-2.9l2.9-3.8c2.5,0.4,2.9-1.7,2.9-1.7l-1.7-7.2l-10.1,2.1L83.6,47.2l-9.7,5.5
			L55.6,99.2l7.6,0.8l1.7,2.5l-3.8,5.9l10.7,18.7l49.7-26.9L110.6,80.5z M80.3,92.5c-3.1,0-5.7-2.5-5.7-5.7c0-3.1,2.5-5.7,5.7-5.7
			s5.7,2.5,5.7,5.7S83.5,92.5,80.3,92.5z"/>
	</g>
	<g>
		<path class="st1" d="M10,58.2c0,0,0,5.5,2.5,7.6c2.5,2.1,8.8-0.4,12.6-0.4s12.2,0.4,17.7,5.9s9.7,20.2,9.7,20.2L50,93.1
			c0,0,1.7,6.7,4.2,8.4l56-32l-4.2-7.6c0,0-7.8,6.5-15,4S72.1,46.1,72.1,46.1s-25.3,7.6-32.8,9.7s-20.2,3.8-20.2,3.8l-3.4-2.5
			c0,0-0.8,2.9,0,4.6C15.7,61.8,12.3,61.8,10,58.2z"/>
	</g>
	<g>
		<g>
			<g>
				<g>
					<defs>
						<path id="SVGID_1_" d="M10,58.2c0,0,0,5.5,2.5,7.6c2.5,2.1,8.8-0.4,12.6-0.4s12.2,0.4,17.7,5.9s9.7,20.2,9.7,20.2L50,93.1
							c0,0,1.7,6.7,4.2,8.4l56-32l-4.2-7.6c0,0-7.8,6.5-15,4S72.1,46.1,72.1,46.1s-25.3,7.6-32.8,9.7s-20.2,3.8-20.2,3.8l-3.4-2.5
							c0,0-0.8,2.9,0,4.6C15.7,61.8,12.3,61.8,10,58.2z"/>
					</defs>
					<clipPath id="SVGID_2_">
						<use xlink:href="#SVGID_1_"  style="overflow:visible;"/>
					</clipPath>
					<g class="st9">
						<path class="st10" d="M19.5,57.5c0,0,21.1-1.3,33.3,8.8S71.3,80.5,73,91.7s-22.3,19.2-22.3,19.2L-2.4,83.5l-2.1-27.8l22.3-1.3
							L19.5,57.5z"/>
					</g>
				</g>
			</g>
		</g>
		<g>
			<g>
				<g>
					<defs>
						<path id="SVGID_3_" d="M10,58.2c0,0,0,5.5,2.5,7.6c2.5,2.1,8.8-0.4,12.6-0.4s12.2,0.4,17.7,5.9s9.7,20.2,9.7,20.2L50,93.1
							c0,0,1.7,6.7,4.2,8.4l56-32l-4.2-7.6c0,0-7.8,6.5-15,4S72.1,46.1,72.1,46.1s-25.3,7.6-32.8,9.7s-20.2,3.8-20.2,3.8l-3.4-2.5
							c0,0-0.8,2.9,0,4.6C15.7,61.8,12.3,61.8,10,58.2z"/>
					</defs>
					<clipPath id="SVGID_4_">
						<use xlink:href="#SVGID_3_"  style="overflow:visible;"/>
					</clipPath>
					<g class="st11">
						<polygon class="st4" points="66.2,51.2 95.3,83.6 120.1,66.8 107.1,47.4 73.8,39.9 						"/>
					</g>
				</g>
			</g>
		</g>
	</g>
	<g>
		<path class="st8" d="M7.5,44.7c0,0-2.9-2.9-2.9-6.7s3.8-3.4,6.3-3.4s17.3,0.4,19.4-0.4s5.5-4.2,7.2-6.3s2.9-3.8,11.4-4.2
			c8.4-0.4,23.2,0.4,28.6,2.5c5.5,2.1,10.1,6.3,9.3,10.5C86,40.9,75,48.1,72.1,50.2s-5.9,4.6-12.6,3.4C52.5,52.3,7.5,44.7,7.5,44.7z
			"/>
	</g>
	<g>
		<path class="st8" d="M63.3,5.8c0,0,5.9,14.7,8.8,16.4s16,5.9,14.7,14.3l-25.2-4.6L63.3,5.8z"/>
	</g>
	<g>
		<path class="st12" d="M53.8,23.5c0,0,4.4-12.3,9.5-17.8c0,0,1.3,16.4-1.7,26.1C61.6,31.9,60.9,24.1,53.8,23.5z"/>
	</g>
	<g>
		<path class="st8" d="M6.5,42.2c0,0,1.4,5,2.6,7.6l3.4-4.2l2.1,3.8l4.2-3.4L6.5,42.2z"/>
	</g>
	<g>
		<circle class="st6" cx="63.7" cy="45.8" r="3.2"/>
	</g>
	<g>
		<polygon class="st13" points="37.8,32.1 39.9,29.5 46.6,28.3 44.5,34.2 		"/>
	</g>
	<g>
		<g>
			<path class="st1" d="M79.7,125c0,0,3.3,5.4,6.3,7.5c2.9,2.1,16.4,11.8,24,21.9c7.6,10.1,11.6,11.4,11.6,11.4l16-16.9l0.6-3.3
				c0,0-12.6-8.8-23.2-20.2c-10.5-11.4-13-15.6-17.3-15.2S79.7,125,79.7,125z"/>
		</g>
		<g>
			<path class="st2" d="M112.8,152c0,0,4.8,7,6.9,10.3c2.1,3.4,9.7,15.2,13.5,18.5c3.8,3.4,12.6,5.5,18.9-2.1
				c6.3-7.6,6.7-13.9,0.8-18.5s-25.7-19.4-25.7-19.4l-2.1-0.4l-13,10.5L112.8,152z"/>
		</g>
		<g>
			<path class="st3" d="M103.3,185.1l37.1-39.6c0,0,10.1-2.1,18.9,15.6c0,0-1.7,5.5-11.4,15.2c-8.2,8.2-26.9,24-26.9,24l-6.3-1.7
				L103.3,185.1z"/>
		</g>
		<g>
			<path class="st8" d="M67.1,111.4c0,0-2.5-8.4,4.2-13.9s12.2-3.8,14.7-1.3s8,8,8,8l9.7,11.4c0,0,10.9,16,21.5,24.8l0.4,3.8l-9.3,8
				l-4.2-1.3c0,0-18.1-18.5-25.7-22.3C78.9,124.9,70,115.6,67.1,111.4z"/>
		</g>
		<g>
			<g>
				<path class="st4" d="M101,116.7l-11.2,11.2l-12.6-12.6c-3.1-3.1-3.1-8.1,0-11.2l0,0c3.1-3.1,8.1-3.1,11.2,0L101,116.7z"/>
			</g>
			<g>
				
					<ellipse transform="matrix(7.088687e-02 -0.9975 0.9975 7.088687e-02 -32.486 184.4348)" class="st5" cx="82.8" cy="109.7" rx="7.9" ry="7.9"/>
			</g>
			<g>
				<circle class="st6" cx="82.7" cy="109.7" r="5.6"/>
			</g>
			<g>
				<path class="st7" d="M94.6,113.7l-7.8,7.8c-0.3,0.3-0.8,0.3-1.1,0l0,0c-0.3-0.3-0.3-0.8,0-1.1l7.8-7.8c0.3-0.3,0.8-0.3,1.1,0
					l0,0C95,112.9,95,113.4,94.6,113.7z"/>
			</g>
			<g>
				<path class="st7" d="M96.3,115.4l-7.8,7.8c-0.3,0.3-0.8,0.3-1.1,0l0,0c-0.3-0.3-0.3-0.8,0-1.1l7.8-7.8c0.3-0.3,0.8-0.3,1.1,0
					l0,0C96.6,114.6,96.6,115.1,96.3,115.4z"/>
			</g>
			<g>
				<path class="st7" d="M98,117.1l-7.8,7.8c-0.3,0.3-0.8,0.3-1.1,0l0,0c-0.3-0.3-0.3-0.8,0-1.1l7.8-7.8c0.3-0.3,0.8-0.3,1.1,0l0,0
					C98.3,116.3,98.3,116.8,98,117.1z"/>
			</g>
		</g>
		<g>
			<g>
				<path class="st4" d="M121.8,159.6l11.6-10.7l12.1,13.1c2.9,3.2,2.7,8.2-0.5,11.1l0,0c-3.2,2.9-8.2,2.7-11.1-0.5L121.8,159.6z"/>
			</g>
			<g>
				<circle class="st5" cx="139.7" cy="167.4" r="7.9"/>
			</g>
			<g>
				<circle class="st6" cx="139.7" cy="167.4" r="5.6"/>
			</g>
			<g>
				<path class="st7" d="M128,162.9l8.2-7.5c0.3-0.3,0.8-0.3,1.1,0l0,0c0.3,0.3,0.3,0.8,0,1.1l-8.2,7.5c-0.3,0.3-0.8,0.3-1.1,0l0,0
					C127.6,163.6,127.6,163.1,128,162.9z"/>
			</g>
			<g>
				<path class="st7" d="M126.3,161.1l8.2-7.5c0.3-0.3,0.8-0.3,1.1,0l0,0c0.3,0.3,0.3,0.8,0,1.1l-8.2,7.5c-0.3,0.3-0.8,0.3-1.1,0
					l0,0C126,161.9,126,161.4,126.3,161.1z"/>
			</g>
			<g>
				<path class="st7" d="M124.7,159.3l8.2-7.5c0.3-0.3,0.8-0.3,1.1,0l0,0c0.3,0.3,0.3,0.8,0,1.1l-8.2,7.5c-0.3,0.3-0.8,0.3-1.1,0
					l0,0C124.4,160.1,124.4,159.6,124.7,159.3z"/>
			</g>
		</g>
		<g>
			<path class="st2" d="M121.1,163.7c0,0-11.1,11.7-22.5,26s-22.7,28.2-22.7,28.2l11.4,6.3c0,0,2.9-6.7,8-10.9s16.4-12.2,16.4-12.2
				l10.9,0.4l19.7-18l-3.7-2.2l-17.3,16.4l-10.2-2.6l-16.8,13.5c0,0-2.1,2.1-3.4,0s1.7-5.1,1.7-5.1l13.1-15.4l1.2-4l16.4-17.7
				L121.1,163.7z"/>
		</g>
		<g>
			<g>
				<path class="st4" d="M79.7,215.2c-5.5,0-10,4.5-10,10s4.5,10,10,10s10-4.5,10-10S85.3,215.2,79.7,215.2z M79.7,226.7
					c-0.8,0-1.4-0.6-1.4-1.4s0.6-1.4,1.4-1.4s1.4,0.6,1.4,1.4C81.2,226,80.5,226.7,79.7,226.7z"/>
			</g>
			<g>
				<path class="st2" d="M79.7,220.2c-2.8,0-5.1,2.3-5.1,5.1s2.3,5.1,5.1,5.1s5.1-2.3,5.1-5.1C84.8,222.4,82.5,220.2,79.7,220.2z
					 M79.7,226.7c-0.8,0-1.4-0.6-1.4-1.4s0.6-1.4,1.4-1.4s1.4,0.6,1.4,1.4C81.2,226,80.5,226.7,79.7,226.7z"/>
			</g>
			<g>
				<g>
					<polygon class="st4" points="81.3,236.5 78.2,236.5 76.7,233.1 82.7,233.1 					"/>
				</g>
				<g>
					<polygon class="st4" points="78.2,213.9 81.3,213.9 82.7,217.4 76.7,217.4 					"/>
				</g>
			</g>
			<g>
				<g>
					<polygon class="st4" points="72.8,234.3 70.6,232.1 72.1,228.7 76.3,232.9 					"/>
				</g>
				<g>
					<polygon class="st4" points="86.6,216.1 88.8,218.3 87.4,221.8 83.2,217.6 					"/>
				</g>
			</g>
			<g>
				<g>
					<polygon class="st4" points="88.8,232.1 86.6,234.3 83.2,232.9 87.4,228.7 					"/>
				</g>
				<g>
					<polygon class="st4" points="70.6,218.3 72.8,216.1 76.3,217.6 72.1,221.8 					"/>
				</g>
			</g>
			<g>
				<g>
					<polygon class="st4" points="91,223.7 91,226.8 87.6,228.2 87.6,222.2 					"/>
				</g>
				<g>
					<polygon class="st4" points="68.4,226.8 68.4,223.7 71.9,222.2 71.9,228.2 					"/>
				</g>
			</g>
		</g>
	</g>
	<g>
		<rect x="132.5" y="100.5" class="st4" width="12.2" height="6.2"/>
	</g>
	<g>
		<rect x="127.3" y="102.6" class="st5" width="22.5" height="4"/>
	</g>
	<g>
		<path class="st0" d="M133.5,65.9h77c0,0,6.4,0.7,12.8,4.3c6.4,3.6,10.9,6.9,10.4,10.4s-6.9,10.9-13.3,13.7
			c-6.4,2.8-20.6,3.3-31.1,3.3s-51.7,0-51.7,0s-10.7,0-17.3-6.6c-6.6-6.6-11.1-9.7-9.7-13c1-2.3,9.4-7.1,14.5-10
			C127.8,66.6,130.6,65.9,133.5,65.9z"/>
	</g>
	<g>
		<path class="st3" d="M138.1,65.8h67.8c0,0,5.6,0.6,11.3,3.7c5.6,3.1,9.6,6,9.2,9c-0.4,3-6.1,9.5-11.7,11.9
			c-5.6,2.4-18.1,2.9-27.4,2.9c-9.2,0-45.5,0-45.5,0s-9.4,0-15.2-5.7c-5.8-5.7-9.8-8.4-8.5-11.3c0.9-2,8.3-6.2,12.8-8.7
			C133.1,66.4,135.6,65.8,138.1,65.8z"/>
	</g>
	<g>
		<rect x="200.3" y="100.5" class="st4" width="12.2" height="6.2"/>
	</g>
	<g>
		<rect x="195.1" y="102.6" class="st5" width="22.5" height="4"/>
	</g>
	<g>
		<polygon class="st3" points="221.4,101.9 233.8,80.6 240.9,79.4 257.2,90.8 246.7,111.7 223.3,105.3 		"/>
	</g>
	<g>
		<g>
			<path class="st1" d="M258.5,119.9c0,0,3.3,5.4,6.3,7.5c2.9,2.1,16.4,11.8,24,21.9s11.6,11.4,11.6,11.4l16-16.9l0.6-3.3
				c0,0-12.6-8.8-23.2-20.2c-10.5-11.4-13-15.6-17.3-15.2S258.5,119.9,258.5,119.9z"/>
		</g>
		<g>
			<path class="st2" d="M291.5,146.9c0,0,4.8,7,6.9,10.3c2.1,3.4,9.7,15.2,13.5,18.5c3.8,3.4,12.6,5.5,18.9-2.1s6.7-13.9,0.8-18.5
				c-5.9-4.6-25.7-19.4-25.7-19.4l-2.1-0.4l-13,10.5L291.5,146.9z"/>
		</g>
		<g>
			<path class="st3" d="M282,180l37.1-39.6c0,0,10.1-2.1,18.9,15.6c0,0-1.7,5.5-11.4,15.2c-8.2,8.2-26.9,24-26.9,24l-6.3-1.7
				L282,180z"/>
		</g>
		<g>
			<path class="st8" d="M245.8,106.3c0,0-2.5-8.4,4.2-13.9c6.7-5.5,12.2-3.8,14.7-1.3s8,8,8,8l9.7,11.4c0,0,10.9,16,21.5,24.8
				l0.4,3.8l-9.3,8l-4.2-1.3c0,0-18.1-18.5-25.7-22.3C257.6,119.8,248.7,110.6,245.8,106.3z"/>
		</g>
		<g>
			<g>
				<path class="st4" d="M279.7,111.6l-11.2,11.2l-12.6-12.6c-3.1-3.1-3.1-8.1,0-11.2l0,0c3.1-3.1,8.1-3.1,11.2,0L279.7,111.6z"/>
			</g>
			<g>
				<circle class="st5" cx="261.5" cy="104.6" r="7.9"/>
			</g>
			<g>
				<circle class="st6" cx="261.5" cy="104.6" r="5.6"/>
			</g>
			<g>
				<path class="st7" d="M273.4,108.6l-7.8,7.8c-0.3,0.3-0.8,0.3-1.1,0l0,0c-0.3-0.3-0.3-0.8,0-1.1l7.8-7.8c0.3-0.3,0.8-0.3,1.1,0
					l0,0C273.7,107.8,273.7,108.3,273.4,108.6z"/>
			</g>
			<g>
				<path class="st7" d="M275.1,110.3l-7.8,7.8c-0.3,0.3-0.8,0.3-1.1,0l0,0c-0.3-0.3-0.3-0.8,0-1.1l7.8-7.8c0.3-0.3,0.8-0.3,1.1,0
					l0,0C275.4,109.5,275.4,110,275.1,110.3z"/>
			</g>
			<g>
				<path class="st7" d="M276.7,112l-7.8,7.8c-0.3,0.3-0.8,0.3-1.1,0l0,0c-0.3-0.3-0.3-0.8,0-1.1l7.8-7.8c0.3-0.3,0.8-0.3,1.1,0l0,0
					C277.1,111.2,277.1,111.7,276.7,112z"/>
			</g>
		</g>
		<g>
			<g>
				<path class="st4" d="M300.5,154.5l11.6-10.7l12.1,13.1c2.9,3.2,2.7,8.2-0.5,11.1l0,0c-3.2,2.9-8.2,2.7-11.1-0.5L300.5,154.5z"/>
			</g>
			<g>
				<circle class="st5" cx="318.4" cy="162.3" r="7.9"/>
			</g>
			<g>
				<circle class="st6" cx="318.4" cy="162.3" r="5.6"/>
			</g>
			<g>
				<path class="st7" d="M306.7,157.8l8.2-7.5c0.3-0.3,0.8-0.3,1.1,0l0,0c0.3,0.3,0.3,0.8,0,1.1l-8.2,7.5c-0.3,0.3-0.8,0.3-1.1,0
					l0,0C306.4,158.5,306.4,158.1,306.7,157.8z"/>
			</g>
			<g>
				<path class="st7" d="M305.1,156l8.2-7.5c0.3-0.3,0.8-0.3,1.1,0l0,0c0.3,0.3,0.3,0.8,0,1.1l-8.2,7.5c-0.3,0.3-0.8,0.3-1.1,0l0,0
					C304.8,156.8,304.8,156.3,305.1,156z"/>
			</g>
			<g>
				<path class="st7" d="M303.5,154.3l8.2-7.5c0.3-0.3,0.8-0.3,1.1,0l0,0c0.3,0.3,0.3,0.8,0,1.1l-8.2,7.5c-0.3,0.3-0.8,0.3-1.1,0
					l0,0C303.1,155,303.2,154.5,303.5,154.3z"/>
			</g>
		</g>
		<g>
			<path class="st2" d="M299.9,158.6c0,0-11.1,11.7-22.5,26s-22.7,28.2-22.7,28.2l11.4,6.3c0,0,3-6.7,8-10.9
				c5.1-4.2,16.4-12.2,16.4-12.2l10.9,0.4l19.7-18l-3.7-2.2l-17.3,16.4l-10.2-2.6l-16.8,13.5c0,0-2.1,2.1-3.4,0s1.7-5.1,1.7-5.1
				l13.1-15.4l1.2-4l16.4-17.7L299.9,158.6z"/>
		</g>
		<g>
			<g>
				<path class="st4" d="M258.5,210.1c-5.5,0-10,4.5-10,10s4.5,10,10,10s10-4.5,10-10S264,210.1,258.5,210.1z M258.5,221.6
					c-0.8,0-1.4-0.6-1.4-1.4s0.6-1.4,1.4-1.4s1.4,0.6,1.4,1.4S259.3,221.6,258.5,221.6z"/>
			</g>
			<g>
				<path class="st2" d="M258.5,215.1c-2.8,0-5.1,2.3-5.1,5.1s2.3,5.1,5.1,5.1c2.8,0,5.1-2.3,5.1-5.1S261.3,215.1,258.5,215.1z
					 M258.5,221.6c-0.8,0-1.4-0.6-1.4-1.4s0.6-1.4,1.4-1.4s1.4,0.6,1.4,1.4S259.3,221.6,258.5,221.6z"/>
			</g>
			<g>
				<g>
					<polygon class="st4" points="260,231.4 256.9,231.4 255.5,228 261.5,228 					"/>
				</g>
				<g>
					<polygon class="st4" points="256.9,208.8 260,208.8 261.5,212.3 255.5,212.3 					"/>
				</g>
			</g>
			<g>
				<g>
					<polygon class="st4" points="251.6,229.2 249.4,227 250.8,223.6 255,227.8 					"/>
				</g>
				<g>
					<polygon class="st4" points="265.4,211 267.5,213.3 266.1,216.7 261.9,212.5 					"/>
				</g>
			</g>
			<g>
				<g>
					<polygon class="st4" points="267.5,227 265.4,229.2 261.9,227.8 266.1,223.6 					"/>
				</g>
				<g>
					<polygon class="st4" points="249.4,213.3 251.6,211 255,212.5 250.8,216.7 					"/>
				</g>
			</g>
			<g>
				<g>
					<polygon class="st4" points="269.8,218.6 269.8,221.7 266.3,223.1 266.3,217.2 					"/>
				</g>
				<g>
					<polygon class="st4" points="247.2,221.7 247.2,218.6 250.6,217.2 250.6,223.1 					"/>
				</g>
			</g>
		</g>
	</g>
</g>
<path class="st1" d="M106,61.9L89,30l-4.7,2c0,0,12.7,22.7,11.7,25.7S85,64,82.7,59c-2.3-5-7.8-27.4-19.4-22.9S53,51.7,53,51.7
	l35.7,29l21.5-11.2L106,61.9z"/>
<circle class="st14" cx="232" cy="90.8" r="4.8"/>
<circle class="st14" cx="113.5" cy="90.8" r="4.8"/>
<circle class="st14" cx="115.8" cy="189.5" r="4.1"/>
<circle class="st14" cx="295" cy="184.8" r="4.1"/>
<ellipse class="st15" cx="183.5" cy="85.3" rx="27" ry="2"/>
</svg>
