<?xml version="1.0" encoding="utf-8"?>
<!-- Generator: Adobe Illustrator 23.0.4, SVG Export Plug-In . SVG Version: 6.00 Build 0)  -->
<svg version="1.1" id="图层_1" xmlns="http://www.w3.org/2000/svg" xmlns:xlink="http://www.w3.org/1999/xlink" x="0px" y="0px"
	 viewBox="0 0 350 350" style="enable-background:new 0 0 350 350;" xml:space="preserve">
<style type="text/css">
	.st0{fill:#25AEE3;}
	.st1{fill:#67B4D6;}
	.st2{opacity:0.48;fill:none;stroke:url(#SVGID_1_);stroke-miterlimit:10;}
	.st3{fill:#86BFDB;}
	.st4{fill:#EACC61;}
	.st5{fill:#BB9E12;}
	.st6{fill:#61A9E7;}
	.st7{fill:#D8BD61;}
	.st8{fill:#A28909;}
	.st9{fill:#F4CE53;}
	.st10{fill:#FEFFFF;}
	.st11{fill:#294064;}
	.st12{fill:#727492;}
	.st13{fill:#FD598E;}
	.st14{fill:#E64E86;}
	.st15{opacity:0.5;}
	.st16{fill:#FFFFFF;}
	.st17{fill:#0A6296;}
	.st18{fill:#707475;}
	.st19{fill:#D9DADB;}
	.st20{fill:#C8C9CA;}
	.st21{opacity:0.38;fill:#FEFFFF;}
	.st22{opacity:0.17;}
	.st23{fill:#F2F2F2;}
</style>
<circle class="st0" cx="176" cy="174.8" r="164.7"/>
<circle class="st1" cx="176" cy="174.8" r="155"/>
<linearGradient id="SVGID_1_" gradientUnits="userSpaceOnUse" x1="175.979" y1="330.3663" x2="175.979" y2="19.3194">
	<stop  offset="0" style="stop-color:#FFFFFF;stop-opacity:0.5"/>
	<stop  offset="1" style="stop-color:#00327B"/>
</linearGradient>
<circle class="st2" cx="176" cy="174.8" r="155"/>
<circle class="st3" cx="176" cy="174.8" r="86.2"/>
<circle class="st4" cx="176" cy="174.8" r="78"/>
<circle class="st5" cx="176" cy="174.8" r="63.6"/>
<circle class="st5" cx="176" cy="108.3" r="6"/>
<circle class="st6" cx="176" cy="108.3" r="4"/>
<circle class="st5" cx="176" cy="241.4" r="6"/>
<circle class="st6" cx="176" cy="241.4" r="4"/>
<circle class="st5" cx="242.6" cy="174.8" r="6"/>
<circle class="st6" cx="242.6" cy="174.8" r="4"/>
<circle class="st5" cx="109.4" cy="174.8" r="6"/>
<circle class="st6" cx="109.4" cy="174.8" r="4"/>
<circle class="st4" cx="176" cy="174.8" r="61.6"/>
<circle class="st7" cx="176" cy="174.8" r="56.6"/>
<circle class="st8" cx="176" cy="174.8" r="39.7"/>
<circle class="st9" cx="176" cy="174.8" r="36.8"/>
<path class="st0" d="M176.5,157.9c0,0-2-4.5-12.9-6c-10.9-1.5-16.4,0.5-19.4,0s-4.5-2.5-6-1c-1.5,1.5-2,5.5-1.5,9.9s3,7.5,5,8.9
	c0,0,2-4.5,5-7c3-2.5,6.5-4.5,12.4-3c6,1.5,10.9,5.5,12.9,8.4c2,3,3,6,4.5,4V157.9z"/>
<circle class="st10" cx="156.6" cy="175.3" r="14.9"/>
<circle class="st11" cx="156.6" cy="175.3" r="10.4"/>
<g>
	<path class="st12" d="M150.4,181.4c1.8,2.4,5.9,3.6,8.2,2.9c7-2.1,8.4-10.2,4.3-11.6c-2.6-0.9-5.6,1.3-6,3.1c0,0-1.8-3.1-5-2.1
		C149.9,174.4,147.1,177,150.4,181.4z"/>
</g>
<ellipse class="st10" cx="148.9" cy="171.6" rx="3.2" ry="2.2"/>
<path class="st0" d="M176.3,157.9c0,0,2-4.5,12.9-6c10.9-1.5,16.4,0.5,19.4,0c3-0.5,4.5-2.5,6-1c1.5,1.5,2,5.5,1.5,9.9s-3,7.5-5,8.9
	c0,0-2-4.5-5-7c-3-2.5-6.5-4.5-12.4-3c-6,1.5-10.9,5.5-12.9,8.4c-2,3-3,6-4.5,4V157.9z"/>
<circle class="st10" cx="196.2" cy="175.3" r="14.9"/>
<circle class="st11" cx="196.2" cy="175.3" r="10.4"/>
<g>
	<path class="st12" d="M189.9,181.4c1.8,2.4,5.9,3.6,8.2,2.9c7-2.1,8.4-10.2,4.3-11.6c-2.6-0.9-5.6,1.3-6,3.1c0,0-1.8-3.1-5-2.1
		C189.5,174.4,186.6,177,189.9,181.4z"/>
</g>
<ellipse class="st10" cx="188.5" cy="171.6" rx="3.2" ry="2.2"/>
<g>
	<g>
		<g>
			<path class="st13" d="M181.6,181.1c0.1-0.5,0.1-1,0.1-1.5c0-4.1-2.3-7.4-5.1-7.4c-2.8,0-5.1,3.3-5.1,7.4c0,0.5,0,1,0.1,1.5
				c2.9,0.8,5,3.1,5,5.9C176.6,184.2,178.7,181.9,181.6,181.1z"/>
		</g>
	</g>
	<g>
		<g>
			<path class="st14" d="M171.7,181.1c0.5,3.4,2.5,5.9,5,5.9C176.6,184.2,174.5,181.9,171.7,181.1z"/>
		</g>
	</g>
	<g>
		<g>
			<path class="st14" d="M181.6,181.1c-2.9,0.8-5,3.1-5,5.9C179.1,186.9,181.1,184.4,181.6,181.1z"/>
		</g>
	</g>
	<g class="st15">
		<path class="st16" d="M174.8,173.7c0,0,0.5-0.8,1.8-0.8c1.3,0,2.2,0.5,2.2,0.9c0,0.5-1.6,0.3-2,0.3
			C176.3,174.1,174.3,174.4,174.8,173.7z"/>
	</g>
</g>
<g>
	<path class="st17" d="M186.4,74H167c-2.7,0-4.9-2.2-4.9-4.9V49.6c0-2.7,2.2-4.9,4.9-4.9h19.5c2.7,0,4.9,2.2,4.9,4.9V69
		C191.4,71.8,189.2,74,186.4,74z"/>
	<path class="st18" d="M185.9,71.5h-18.4c-1.7,0-3-1.3-3-3V50.1c0-1.7,1.3-3,3-3h18.4c1.7,0,3,1.3,3,3v18.4
		C188.9,70.2,187.6,71.5,185.9,71.5z"/>
	<rect x="166" y="48.1" class="st19" width="21.4" height="22.4"/>
	<path class="st20" d="M176.7,66.9L176.7,66.9c-4,0-7.2-3.2-7.2-7.2V59c0-4,3.2-7.2,7.2-7.2h0c4,0,7.2,3.2,7.2,7.2v0.7
		C183.9,63.6,180.7,66.9,176.7,66.9z"/>
	<rect x="171.5" y="54.6" class="st10" width="6.5" height="6.5"/>
	<rect x="179" y="54.6" class="st10" width="3" height="3"/>
	<rect x="175" y="62.1" class="st10" width="3" height="3"/>
</g>
<g>
	<path class="st17" d="M186.4,304.5H167c-2.7,0-4.9-2.2-4.9-4.9v-19.5c0-2.7,2.2-4.9,4.9-4.9h19.5c2.7,0,4.9,2.2,4.9,4.9v19.5
		C191.4,302.3,189.2,304.5,186.4,304.5z"/>
	<path class="st18" d="M185.9,302h-18.4c-1.7,0-3-1.3-3-3v-18.4c0-1.7,1.3-3,3-3h18.4c1.7,0,3,1.3,3,3V299
		C188.9,300.7,187.6,302,185.9,302z"/>
	<rect x="166" y="278.7" class="st19" width="21.4" height="22.4"/>
	<path class="st20" d="M176.7,297.4L176.7,297.4c-4,0-7.2-3.2-7.2-7.2v-0.7c0-4,3.2-7.2,7.2-7.2h0c4,0,7.2,3.2,7.2,7.2v0.7
		C183.9,294.2,180.7,297.4,176.7,297.4z"/>
	<rect x="171.5" y="285.1" class="st10" width="6.5" height="6.5"/>
	<rect x="179" y="285.1" class="st10" width="3" height="3"/>
	<rect x="175" y="292.6" class="st10" width="3" height="3"/>
</g>
<g>
	<path class="st17" d="M259,233.3l9.7-16.8c1.4-2.4,4.4-3.2,6.7-1.8l16.8,9.7c2.4,1.4,3.2,4.4,1.8,6.7l-9.7,16.8
		c-1.4,2.4-4.4,3.2-6.7,1.8l-16.8-9.7C258.4,238.7,257.6,235.7,259,233.3z"/>
	<path class="st18" d="M261.4,234.1l9.2-15.9c0.8-1.4,2.7-1.9,4.1-1.1l15.9,9.2c1.4,0.8,1.9,2.7,1.1,4.1l-9.2,15.9
		c-0.8,1.4-2.7,1.9-4.1,1.1l-15.9-9.2C261.1,237.4,260.6,235.5,261.4,234.1z"/>
	
		<rect x="265.9" y="221" transform="matrix(-0.4999 0.8661 -0.8661 -0.4999 615.9419 108.8093)" class="st19" width="21.4" height="22.4"/>
	<path class="st20" d="M270,228.5L270,228.5c2-3.4,6.4-4.6,9.8-2.6l0.6,0.3c3.4,2,4.6,6.4,2.6,9.8l0,0c-2,3.4-6.4,4.6-9.8,2.6
		l-0.6-0.3C269.2,236.3,268,231.9,270,228.5z"/>
	
		<rect x="275.6" y="228" transform="matrix(-0.4999 0.8661 -0.8661 -0.4999 618.5233 105.3667)" class="st10" width="6.5" height="6.5"/>
	
		<rect x="276" y="235.6" transform="matrix(-0.4999 0.8661 -0.8661 -0.4999 621.5364 115.2631)" class="st10" width="3" height="3"/>
	
		<rect x="271.5" y="228.4" transform="matrix(-0.4999 0.8661 -0.8661 -0.4999 608.6268 108.3797)" class="st10" width="3" height="3"/>
</g>
<g>
	<path class="st17" d="M59.3,118.1l9.7-16.8c1.4-2.4,4.4-3.2,6.7-1.8l16.8,9.7c2.4,1.4,3.2,4.4,1.8,6.7l-9.7,16.8
		c-1.4,2.4-4.4,3.2-6.7,1.8l-16.8-9.7C58.8,123.4,58,120.4,59.3,118.1z"/>
	<path class="st18" d="M61.8,118.8l9.2-15.9c0.8-1.4,2.7-1.9,4.1-1.1l15.9,9.2c1.4,0.8,1.9,2.7,1.1,4.1L82.8,131
		c-0.8,1.4-2.7,1.9-4.1,1.1l-15.9-9.2C61.4,122.1,60.9,120.3,61.8,118.8z"/>
	
		<rect x="66.2" y="105.8" transform="matrix(-0.4999 0.8661 -0.8661 -0.4999 216.629 108.8477)" class="st19" width="21.4" height="22.4"/>
	<path class="st20" d="M70.4,113.2L70.4,113.2c2-3.4,6.4-4.6,9.8-2.6l0.6,0.3c3.4,2,4.6,6.4,2.6,9.8l0,0c-2,3.4-6.4,4.6-9.8,2.6
		L73,123C69.6,121,68.4,116.6,70.4,113.2z"/>
	
		<rect x="75.9" y="112.8" transform="matrix(-0.4999 0.8661 -0.8661 -0.4999 219.2104 105.4051)" class="st10" width="6.5" height="6.5"/>
	
		<rect x="76.3" y="120.3" transform="matrix(-0.4999 0.8661 -0.8661 -0.4999 222.2234 115.3016)" class="st10" width="3" height="3"/>
	
		<rect x="71.9" y="113.1" transform="matrix(-0.4999 0.8661 -0.8661 -0.4999 209.3139 108.4182)" class="st10" width="3" height="3"/>
</g>
<g>
	<path class="st17" d="M186.4,74H167c-2.7,0-4.9-2.2-4.9-4.9V49.6c0-2.7,2.2-4.9,4.9-4.9h19.5c2.7,0,4.9,2.2,4.9,4.9V69
		C191.4,71.8,189.2,74,186.4,74z"/>
	<path class="st18" d="M185.9,71.5h-18.4c-1.7,0-3-1.3-3-3V50.1c0-1.7,1.3-3,3-3h18.4c1.7,0,3,1.3,3,3v18.4
		C188.9,70.2,187.6,71.5,185.9,71.5z"/>
	<rect x="166" y="48.1" class="st19" width="21.4" height="22.4"/>
	<path class="st20" d="M176.7,66.9L176.7,66.9c-4,0-7.2-3.2-7.2-7.2V59c0-4,3.2-7.2,7.2-7.2h0c4,0,7.2,3.2,7.2,7.2v0.7
		C183.9,63.6,180.7,66.9,176.7,66.9z"/>
	<rect x="171.5" y="54.6" class="st10" width="6.5" height="6.5"/>
	<rect x="179" y="54.6" class="st10" width="3" height="3"/>
	<rect x="175" y="62.1" class="st10" width="3" height="3"/>
</g>
<g>
	<path class="st17" d="M186.4,304.5H167c-2.7,0-4.9-2.2-4.9-4.9v-19.5c0-2.7,2.2-4.9,4.9-4.9h19.5c2.7,0,4.9,2.2,4.9,4.9v19.5
		C191.4,302.3,189.2,304.5,186.4,304.5z"/>
	<path class="st18" d="M185.9,302h-18.4c-1.7,0-3-1.3-3-3v-18.4c0-1.7,1.3-3,3-3h18.4c1.7,0,3,1.3,3,3V299
		C188.9,300.7,187.6,302,185.9,302z"/>
	<rect x="166" y="278.7" class="st19" width="21.4" height="22.4"/>
	<path class="st20" d="M176.7,297.4L176.7,297.4c-4,0-7.2-3.2-7.2-7.2v-0.7c0-4,3.2-7.2,7.2-7.2h0c4,0,7.2,3.2,7.2,7.2v0.7
		C183.9,294.2,180.7,297.4,176.7,297.4z"/>
	<rect x="171.5" y="285.1" class="st10" width="6.5" height="6.5"/>
	<rect x="179" y="285.1" class="st10" width="3" height="3"/>
	<rect x="175" y="292.6" class="st10" width="3" height="3"/>
</g>
<g>
	<path class="st17" d="M277.3,184.3v-19.5c0-2.7,2.2-4.9,4.9-4.9h19.5c2.7,0,4.9,2.2,4.9,4.9v19.5c0,2.7-2.2,4.9-4.9,4.9h-19.5
		C279.5,189.3,277.3,187,277.3,184.3z"/>
	<path class="st18" d="M279.8,183.8v-18.4c0-1.7,1.3-3,3-3h18.4c1.7,0,3,1.3,3,3v18.4c0,1.7-1.3,3-3,3h-18.4
		C281.2,186.8,279.8,185.4,279.8,183.8z"/>
	
		<rect x="281.3" y="163.4" transform="matrix(-1.836970e-16 1 -1 -1.836970e-16 466.5926 -117.4037)" class="st19" width="21.4" height="22.4"/>
	<path class="st20" d="M284.5,174.6L284.5,174.6c0-4,3.2-7.2,7.2-7.2h0.7c4,0,7.2,3.2,7.2,7.2v0c0,4-3.2,7.2-7.2,7.2h-0.7
		C287.7,181.8,284.5,178.6,284.5,174.6z"/>
	
		<rect x="290.3" y="169.4" transform="matrix(-1.836970e-16 1 -1 -1.836970e-16 466.0957 -120.8818)" class="st10" width="6.5" height="6.5"/>
	
		<rect x="293.7" y="176.8" transform="matrix(-1.836970e-16 1 -1 -1.836970e-16 473.5488 -116.9069)" class="st10" width="3" height="3"/>
	
		<rect x="286.3" y="172.9" transform="matrix(-1.836970e-16 1 -1 -1.836970e-16 462.1208 -113.4288)" class="st10" width="3" height="3"/>
</g>
<g>
	<path class="st17" d="M46.8,184.3v-19.5c0-2.7,2.2-4.9,4.9-4.9h19.5c2.7,0,4.9,2.2,4.9,4.9v19.5c0,2.7-2.2,4.9-4.9,4.9H51.7
		C49,189.3,46.8,187,46.8,184.3z"/>
	<path class="st18" d="M49.3,183.8v-18.4c0-1.7,1.3-3,3-3h18.4c1.7,0,3,1.3,3,3v18.4c0,1.7-1.3,3-3,3H52.3
		C50.6,186.8,49.3,185.4,49.3,183.8z"/>
	
		<rect x="50.8" y="163.4" transform="matrix(-1.836970e-16 1 -1 -1.836970e-16 236.0449 113.144)" class="st19" width="21.4" height="22.4"/>
	<path class="st20" d="M53.9,174.6L53.9,174.6c0-4,3.2-7.2,7.2-7.2h0.7c4,0,7.2,3.2,7.2,7.2v0c0,4-3.2,7.2-7.2,7.2h-0.7
		C57.1,181.8,53.9,178.6,53.9,174.6z"/>
	
		<rect x="59.7" y="169.4" transform="matrix(-1.836970e-16 1 -1 -1.836970e-16 235.548 109.6659)" class="st10" width="6.5" height="6.5"/>
	
		<rect x="63.2" y="176.8" transform="matrix(-1.836970e-16 1 -1 -1.836970e-16 243.0011 113.6408)" class="st10" width="3" height="3"/>
	
		<rect x="55.7" y="172.9" transform="matrix(-1.836970e-16 1 -1 -1.836970e-16 231.5731 117.1189)" class="st10" width="3" height="3"/>
</g>
<g>
	<path class="st17" d="M235.5,92.3l-16.8-9.7c-2.4-1.4-3.2-4.4-1.8-6.7l9.7-16.8c1.4-2.4,4.4-3.2,6.7-1.8l16.8,9.7
		c2.4,1.4,3.2,4.4,1.8,6.7l-9.7,16.8C240.9,92.9,237.8,93.7,235.5,92.3z"/>
	<path class="st18" d="M236.3,89.9l-15.9-9.2c-1.4-0.8-1.9-2.7-1.1-4.1l9.2-15.9c0.8-1.4,2.7-1.9,4.1-1.1l15.9,9.2
		c1.4,0.8,1.9,2.7,1.1,4.1l-9.2,15.9C239.5,90.3,237.7,90.8,236.3,89.9z"/>
	
		<rect x="223.7" y="63.6" transform="matrix(0.8658 0.5004 -0.5004 0.8658 68.8802 -107.2563)" class="st19" width="21.4" height="22.4"/>
	<path class="st20" d="M230.6,81.3L230.6,81.3c-3.4-2-4.6-6.4-2.6-9.8l0.3-0.6c2-3.4,6.4-4.6,9.8-2.6l0,0c3.4,2,4.6,6.4,2.6,9.8
		l-0.3,0.6C238.5,82.1,234.1,83.3,230.6,81.3z"/>
	
		<rect x="230.2" y="69.3" transform="matrix(0.8658 0.5004 -0.5004 0.8658 67.6059 -107.0752)" class="st10" width="6.5" height="6.5"/>
	<rect x="237.8" y="72.4" transform="matrix(0.8658 0.5004 -0.5004 0.8658 69.0639 -109.8045)" class="st10" width="3" height="3"/>
	<rect x="230.6" y="76.8" transform="matrix(0.8658 0.5004 -0.5004 0.8658 70.3352 -105.6172)" class="st10" width="3" height="3"/>
</g>
<g>
	<path class="st17" d="M120.1,292l-16.8-9.7c-2.4-1.4-3.2-4.4-1.8-6.7l9.7-16.8c1.4-2.4,4.4-3.2,6.7-1.8l16.8,9.7
		c2.4,1.4,3.2,4.4,1.8,6.7l-9.7,16.8C125.5,292.5,122.5,293.3,120.1,292z"/>
	<path class="st18" d="M120.9,289.5l-15.9-9.2c-1.4-0.8-1.9-2.7-1.1-4.1l9.2-15.9c0.8-1.4,2.7-1.9,4.1-1.1l15.9,9.2
		c1.4,0.8,1.9,2.7,1.1,4.1l-9.2,15.9C124.2,289.9,122.3,290.4,120.9,289.5z"/>
	
		<rect x="108.4" y="263.2" transform="matrix(0.8658 0.5004 -0.5004 0.8658 153.2801 -22.7439)" class="st19" width="21.4" height="22.4"/>
	<path class="st20" d="M115.3,280.9L115.3,280.9c-3.4-2-4.6-6.4-2.6-9.8l0.3-0.6c2-3.4,6.4-4.6,9.8-2.6l0,0c3.4,2,4.6,6.4,2.6,9.8
		l-0.3,0.6C123.1,281.7,118.7,282.9,115.3,280.9z"/>
	
		<rect x="114.8" y="268.9" transform="matrix(0.8658 0.5004 -0.5004 0.8658 152.0059 -22.5627)" class="st10" width="6.5" height="6.5"/>
	<rect x="122.4" y="272" transform="matrix(0.8658 0.5004 -0.5004 0.8658 153.4639 -25.292)" class="st10" width="3" height="3"/>
	
		<rect x="115.2" y="276.4" transform="matrix(0.8658 0.5004 -0.5004 0.8658 154.7352 -21.1047)" class="st10" width="3" height="3"/>
</g>
<g>
	<path class="st17" d="M118,92.3l16.8-9.7c2.4-1.4,3.2-4.4,1.8-6.7L126.9,59c-1.4-2.4-4.4-3.2-6.7-1.8L103.3,67
		c-2.4,1.4-3.2,4.4-1.8,6.7l9.7,16.8C112.6,92.9,115.6,93.7,118,92.3z"/>
	<path class="st18" d="M117.2,89.9l15.9-9.2c1.4-0.8,1.9-2.7,1.1-4.1L125,60.7c-0.8-1.4-2.7-1.9-4.1-1.1L105,68.8
		c-1.4,0.8-1.9,2.7-1.1,4.1l9.2,15.9C113.9,90.3,115.8,90.8,117.2,89.9z"/>
	
		<rect x="108.4" y="63.6" transform="matrix(-0.8658 0.5004 -0.5004 -0.8658 259.5347 79.976)" class="st19" width="21.4" height="22.4"/>
	<path class="st20" d="M122.8,81.3L122.8,81.3c3.4-2,4.6-6.4,2.6-9.8l-0.3-0.6c-2-3.4-6.4-4.6-9.8-2.6l0,0c-3.4,2-4.6,6.4-2.6,9.8
		l0.3,0.6C115,82.1,119.4,83.3,122.8,81.3z"/>
	
		<rect x="116.8" y="69.3" transform="matrix(-0.8658 0.5004 -0.5004 -0.8658 260.2102 75.2247)" class="st10" width="6.5" height="6.5"/>
	<rect x="112.7" y="72.4" transform="matrix(-0.8658 0.5004 -0.5004 -0.8658 250.0334 80.661)" class="st10" width="3" height="3"/>
	
		<rect x="119.9" y="76.8" transform="matrix(-0.8658 0.5004 -0.5004 -0.8658 265.6465 85.4015)" class="st10" width="3" height="3"/>
</g>
<g>
	<path class="st17" d="M233.3,292l16.8-9.7c2.4-1.4,3.2-4.4,1.8-6.7l-9.7-16.8c-1.4-2.4-4.4-3.2-6.7-1.8l-16.8,9.7
		c-2.4,1.4-3.2,4.4-1.8,6.7l9.7,16.8C227.9,292.5,231,293.3,233.3,292z"/>
	<path class="st18" d="M232.5,289.5l15.9-9.2c1.4-0.8,1.9-2.7,1.1-4.1l-9.2-15.9c-0.8-1.4-2.7-1.9-4.1-1.1l-15.9,9.2
		c-1.4,0.8-1.9,2.7-1.1,4.1l9.2,15.9C229.3,289.9,231.1,290.4,232.5,289.5z"/>
	
		<rect x="223.7" y="263.2" transform="matrix(-0.8658 0.5004 -0.5004 -0.8658 574.6596 394.6815)" class="st19" width="21.4" height="22.4"/>
	<path class="st20" d="M238.2,280.9L238.2,280.9c3.4-2,4.6-6.4,2.6-9.8l-0.3-0.6c-2-3.4-6.4-4.6-9.8-2.6l0,0c-3.4,2-4.6,6.4-2.6,9.8
		l0.3,0.6C230.3,281.7,234.7,282.9,238.2,280.9z"/>
	
		<rect x="232.2" y="268.9" transform="matrix(-0.8658 0.5004 -0.5004 -0.8658 575.3351 389.9301)" class="st10" width="6.5" height="6.5"/>
	
		<rect x="228.1" y="272" transform="matrix(-0.8658 0.5004 -0.5004 -0.8658 565.1583 395.3665)" class="st10" width="3" height="3"/>
	
		<rect x="235.2" y="276.4" transform="matrix(-0.8658 0.5004 -0.5004 -0.8658 580.7715 400.107)" class="st10" width="3" height="3"/>
</g>
<g>
	<path class="st17" d="M268.7,132.6l-9.7-16.8c-1.4-2.4-0.6-5.4,1.8-6.7l16.8-9.7c2.4-1.4,5.4-0.6,6.7,1.8l9.7,16.8
		c1.4,2.4,0.6,5.4-1.8,6.7l-16.8,9.7C273.1,135.8,270.1,135,268.7,132.6z"/>
	<path class="st18" d="M270.6,130.9l-9.2-15.9c-0.8-1.4-0.3-3.3,1.1-4.1l15.9-9.2c1.4-0.8,3.3-0.3,4.1,1.1l9.2,15.9
		c0.8,1.4,0.3,3.3-1.1,4.1l-15.9,9.2C273.2,132.8,271.4,132.4,270.6,130.9z"/>
	
		<rect x="265.8" y="105.7" transform="matrix(0.5007 0.8656 -0.8656 0.5007 239.2394 -180.995)" class="st19" width="21.4" height="22.4"/>
	<path class="st20" d="M270,120.7L270,120.7c-2-3.4-0.8-7.9,2.6-9.8l0.6-0.3c3.4-2,7.9-0.8,9.8,2.6v0c2,3.4,0.8,7.9-2.6,9.8
		l-0.6,0.3C276.4,125.3,272,124.1,270,120.7z"/>
	
		<rect x="273.6" y="111.2" transform="matrix(0.5007 0.8656 -0.8656 0.5007 237.2515 -182.4823)" class="st10" width="6.5" height="6.5"/>
	<rect x="279.7" y="117" transform="matrix(0.5007 0.8656 -0.8656 0.5007 242.9595 -184.2269)" class="st10" width="3" height="3"/>
	
		<rect x="271.2" y="117.3" transform="matrix(0.5007 0.8656 -0.8656 0.5007 238.9961 -176.7742)" class="st10" width="3" height="3"/>
</g>
<g>
	<path class="st17" d="M69.1,248.1l-9.7-16.8c-1.4-2.4-0.6-5.4,1.8-6.7l16.8-9.7c2.4-1.4,5.4-0.6,6.7,1.8l9.7,16.8
		c1.4,2.4,0.6,5.4-1.8,6.7l-16.8,9.7C73.5,251.2,70.5,250.4,69.1,248.1z"/>
	<path class="st18" d="M71,246.4l-9.2-15.9c-0.8-1.4-0.3-3.3,1.1-4.1l15.9-9.2c1.4-0.8,3.3-0.3,4.1,1.1l9.2,15.9
		c0.8,1.4,0.3,3.3-1.1,4.1l-15.9,9.2C73.7,248.3,71.8,247.8,71,246.4z"/>
	
		<rect x="66.3" y="221.1" transform="matrix(0.5007 0.8656 -0.8656 0.5007 239.512 49.395)" class="st19" width="21.4" height="22.4"/>
	<path class="st20" d="M70.4,236.1L70.4,236.1c-2-3.4-0.8-7.9,2.6-9.8l0.6-0.3c3.4-2,7.9-0.8,9.8,2.6h0c2,3.4,0.8,7.9-2.6,9.8
		l-0.6,0.3C76.8,240.7,72.4,239.5,70.4,236.1z"/>
	
		<rect x="74" y="226.6" transform="matrix(0.5007 0.8656 -0.8656 0.5007 237.5242 47.9077)" class="st10" width="6.5" height="6.5"/>
	<rect x="80.1" y="232.4" transform="matrix(0.5007 0.8656 -0.8656 0.5007 243.2322 46.1631)" class="st10" width="3" height="3"/>
	<rect x="71.7" y="232.7" transform="matrix(0.5007 0.8656 -0.8656 0.5007 239.2688 53.6158)" class="st10" width="3" height="3"/>
</g>
<path class="st21" d="M184,161.2c-0.3,0.2-0.7-0.2-0.5-0.5c0.4-0.8,1.3-1.8,3.7-2.1c4-0.5,0,0.5-1.5,1.5
	C185,160.6,184.4,161,184,161.2z"/>
<path class="st21" d="M171.9,162.7c0.3,0.2,0.7-0.2,0.5-0.5c-0.4-0.8-1.3-1.8-3.7-2.1c-4-0.5,0,0.5,1.5,1.5
	C170.9,162.1,171.5,162.5,171.9,162.7z"/>
<path class="st10" d="M158.6,150.3c-0.3,0.2-0.7-0.2-0.5-0.5c0.4-0.8,2.2-2.6,4.2-2.6c1,0-0.5,1-2,2
	C159.6,149.7,159,150.1,158.6,150.3z"/>
<g>
	<path class="st11" d="M152.4,21.6V26c0,0,22.4-5,47.7,0v-4.5l-3.1-1.2c-2.3-0.9-4.7-1.4-7.2-1.6c-3.6-0.3-9.2-0.7-13.7-0.7
		c-4.5,0-9.9,0.4-13.5,0.7c-2.5,0.2-4.9,0.7-7.2,1.6L152.4,21.6z"/>
</g>
<g>
	<path class="st11" d="M200.1,328.1v-4.5c0,0-22.4,5-47.7,0v4.5l3.1,1.2c2.3,0.9,4.7,1.4,7.2,1.6c3.6,0.3,9.2,0.7,13.7,0.7
		c4.5,0,9.9-0.4,13.5-0.7c2.5-0.2,4.9-0.7,7.2-1.6L200.1,328.1z"/>
</g>
<g class="st22">
	<path class="st23" d="M147.4,30.8C156.7,29,166.3,28,176,28c10,0,19.9,1,29.6,3v-5.6c-9.6-1.9-19.4-2.9-29.6-2.9
		c-9.8,0-19.3,0.9-28.6,2.7V30.8z"/>
	<path class="st23" d="M142.9,317.9c-8.2-1.9-16.3-4.5-24.1-7.8c-17.5-7.4-33.2-18-46.7-31.5c-13.5-13.5-24.1-29.2-31.5-46.7
		c-7.7-18.1-11.5-37.3-11.5-57.1c0-19.8,3.9-39.1,11.5-57.1c7.4-17.5,18-33.2,31.5-46.7c13.5-13.5,29.2-24.1,46.7-31.5
		c7.8-3.3,15.9-5.9,24.1-7.8v-5.6C74.7,41.3,23.7,102.1,23.7,174.8s51,133.6,119.2,148.7V317.9z"/>
	<path class="st23" d="M205.5,318.7c-9.7,2-19.5,3-29.6,3c-9.7,0-19.2-0.9-28.6-2.8v5.6c9.3,1.8,18.8,2.7,28.6,2.7
		c10.1,0,20-1,29.6-2.9V318.7z"/>
	<path class="st23" d="M210,26.4V32c7.9,1.9,15.6,4.4,23.1,7.6c17.5,7.4,33.2,18,46.7,31.5c13.5,13.5,24.1,29.2,31.5,46.7
		c7.7,18.1,11.5,37.3,11.5,57.1c0,19.8-3.9,39.1-11.5,57.1c-7.4,17.5-18,33.2-31.5,46.7c-13.5,13.5-29.2,24.1-46.7,31.5
		c-7.5,3.2-15.2,5.7-23.1,7.6v5.6c67.7-15.5,118.3-76.1,118.3-148.5S277.7,41.8,210,26.4z"/>
</g>
</svg>
