<?xml version="1.0" encoding="utf-8"?>
<!-- Generator: Adobe Illustrator 25.0.0, SVG Export Plug-In . SVG Version: 6.00 Build 0)  -->
<svg version="1.1" id="图层_1" xmlns="http://www.w3.org/2000/svg" xmlns:xlink="http://www.w3.org/1999/xlink" x="0px" y="0px"
	 viewBox="0 0 108 71" style="enable-background:new 0 0 108 71;" xml:space="preserve">
<style type="text/css">
	.st0{fill:#2168E8;}
	.st1{fill:#E2E2E2;}
	.st2{fill:#040404;}
	.st3{fill:#102677;}
	.st4{fill:#69DCFF;}
	.st5{fill:#001349;}
	.st6{fill:#FFFFFF;}
</style>
<g>
	<path class="st0" d="M33.822,8.634h-7.963V6.693c0-0.442,0.358-0.801,0.801-0.801h6.362c0.442,0,0.801,0.358,0.801,0.801
		L33.822,8.634L33.822,8.634z"/>
</g>
<g>
	<path class="st0" d="M47.039,8.634h-7.963V6.693c0-0.442,0.358-0.801,0.801-0.801h6.362c0.442,0,0.801,0.358,0.801,0.801
		L47.039,8.634L47.039,8.634z"/>
</g>
<g>
	<path class="st0" d="M60.255,8.634h-7.963V6.693c0-0.442,0.358-0.801,0.801-0.801h6.362c0.442,0,0.801,0.358,0.801,0.801
		L60.255,8.634L60.255,8.634z"/>
</g>
<g>
	<path class="st1" d="M84.794,65.329h-61.74c-3.505,0-6.347-2.841-6.347-6.347V10.346c0-2.106,1.707-3.813,3.813-3.813h66.806
		c2.106,0,3.813,1.707,3.813,3.813v48.637C91.14,62.488,88.299,65.329,84.794,65.329z"/>
</g>
<g>
	<path class="st2" d="M87.544,58.624h-67.24c-1.467,0-2.656-1.189-2.656-2.656V10.295c0-1.467,1.189-2.656,2.656-2.656h67.24
		c1.467,0,2.656,1.189,2.656,2.656v45.673C90.2,57.435,89.011,58.624,87.544,58.624z"/>
</g>
<g>
	<rect x="28.209" y="14.108" class="st3" width="51.428" height="36.995"/>
</g>
<g>
	<circle class="st0" cx="82.562" cy="58.673" r="4.071"/>
</g>
<g>
	<path class="st2" d="M25.652,62.744L25.652,62.744c-0.16,0-0.29-0.13-0.29-0.29v-1.659c0-0.16,0.13-0.29,0.29-0.29l0,0
		c0.16,0,0.29,0.13,0.29,0.29v1.659C25.942,62.614,25.812,62.744,25.652,62.744z"/>
</g>
<g>
	<path class="st2" d="M27.767,62.744L27.767,62.744c-0.16,0-0.29-0.13-0.29-0.29v-1.659c0-0.16,0.13-0.29,0.29-0.29l0,0
		c0.16,0,0.29,0.13,0.29,0.29v1.659C28.057,62.614,27.927,62.744,27.767,62.744z"/>
</g>
<g>
	<path class="st2" d="M29.882,62.744L29.882,62.744c-0.16,0-0.29-0.13-0.29-0.29v-1.659c0-0.16,0.13-0.29,0.29-0.29l0,0
		c0.16,0,0.29,0.13,0.29,0.29v1.659C30.172,62.614,30.043,62.744,29.882,62.744z"/>
</g>
<g>
	<path class="st2" d="M31.997,62.744L31.997,62.744c-0.16,0-0.29-0.13-0.29-0.29v-1.659c0-0.16,0.13-0.29,0.29-0.29l0,0
		c0.16,0,0.29,0.13,0.29,0.29v1.659C32.288,62.614,32.158,62.744,31.997,62.744z"/>
</g>
<g>
	<g>
		<g>
			<path class="st4" d="M42.924,37.237H32.402c-0.038,0-0.069-0.031-0.069-0.069c0-0.038,0.031-0.069,0.069-0.069h10.493
				l1.219-1.219c0.013-0.013,0.03-0.02,0.049-0.02h4.266c0.038,0,0.069,0.031,0.069,0.069c0,0.038-0.031,0.069-0.069,0.069h-4.237
				l-1.219,1.219C42.959,37.23,42.942,37.237,42.924,37.237z"/>
		</g>
		<g>
			<path class="st4" d="M48.428,34.898h-6.376c-0.018,0-0.036-0.007-0.049-0.02l-1.051-1.051h-8.551
				c-0.038,0-0.069-0.031-0.069-0.069c0-0.038,0.031-0.069,0.069-0.069h8.58c0.018,0,0.036,0.007,0.049,0.02l1.051,1.051h6.347
				c0.038,0,0.069,0.031,0.069,0.069S48.466,34.898,48.428,34.898z"/>
		</g>
		<g>
			<path class="st4" d="M41.686,35.815h-9.284c-0.038,0-0.069-0.031-0.069-0.069s0.031-0.069,0.069-0.069h9.284
				c0.038,0,0.069,0.031,0.069,0.069S41.724,35.815,41.686,35.815z"/>
		</g>
		<g>
			<path class="st4" d="M48.428,33.627h-5.275c-0.018,0-0.036-0.007-0.049-0.02l-1.684-1.684h-9.11
				c-0.038,0-0.069-0.031-0.069-0.069s0.031-0.069,0.069-0.069h9.139c0.018,0,0.036,0.007,0.049,0.02l1.684,1.684h5.246
				c0.038,0,0.069,0.031,0.069,0.069S48.466,33.627,48.428,33.627z"/>
		</g>
		<g>
			<path class="st4" d="M48.405,32.402h-4.243c-0.018,0-0.036-0.007-0.049-0.02l-1.975-1.975h-9.737
				c-0.038,0-0.069-0.031-0.069-0.069s0.031-0.069,0.069-0.069h9.766c0.018,0,0.036,0.007,0.049,0.02l1.975,1.975h4.214
				c0.038,0,0.069,0.031,0.069,0.069S48.443,32.402,48.405,32.402z"/>
		</g>
		<g>
			<path class="st4" d="M48.405,31.045h-3.463c-0.038,0-0.069-0.031-0.069-0.069s0.031-0.069,0.069-0.069h3.463
				c0.038,0,0.069,0.031,0.069,0.069S48.443,31.045,48.405,31.045z"/>
		</g>
		<g>
			<path class="st4" d="M48.405,29.852h-4.931c-0.018,0-0.036-0.007-0.049-0.02l-2.04-2.04h-9.168c-0.038,0-0.069-0.031-0.069-0.069
				s0.031-0.069,0.069-0.069h9.197c0.018,0,0.036,0.007,0.049,0.02l2.04,2.04h4.902c0.038,0,0.069,0.031,0.069,0.069
				C48.474,29.821,48.443,29.852,48.405,29.852z"/>
		</g>
		<g>
			<path class="st4" d="M48.405,28.522h-2.821c-0.038,0-0.069-0.031-0.069-0.069s0.031-0.069,0.069-0.069h2.821
				c0.038,0,0.069,0.031,0.069,0.069S48.443,28.522,48.405,28.522z"/>
		</g>
		<g>
			<path class="st4" d="M44.002,28.304c-0.018,0-0.035-0.007-0.049-0.02l-2.488-2.488c-0.027-0.027-0.027-0.07,0-0.097
				s0.071-0.027,0.097,0l2.488,2.488c0.027,0.027,0.027,0.07,0,0.097C44.037,28.297,44.02,28.304,44.002,28.304z"/>
		</g>
		<g>
			<path class="st4" d="M48.405,27.283h-3.463c-0.018,0-0.036-0.007-0.049-0.02l-2.899-2.899h-9.593
				c-0.038,0-0.069-0.031-0.069-0.069s0.031-0.069,0.069-0.069h9.622c0.018,0,0.036,0.007,0.049,0.02l2.899,2.899h3.434
				c0.038,0,0.069,0.031,0.069,0.069S48.443,27.283,48.405,27.283z"/>
		</g>
		<g>
			<path class="st4" d="M48.428,25.816h-3.486c-0.038,0-0.069-0.031-0.069-0.069s0.031-0.069,0.069-0.069h3.486
				c0.038,0,0.069,0.031,0.069,0.069S48.466,25.816,48.428,25.816z"/>
		</g>
		<g>
			<path class="st4" d="M47.645,19.364c-0.038,0-0.069-0.031-0.069-0.069v-3.852c0-0.038,0.031-0.069,0.069-0.069
				s0.069,0.031,0.069,0.069v3.852C47.713,19.333,47.683,19.364,47.645,19.364z"/>
		</g>
		<g>
			<path class="st4" d="M48.884,24.869c-0.038,0-0.069-0.031-0.069-0.069v-4.266c0-0.038,0.031-0.069,0.069-0.069
				s0.069,0.031,0.069,0.069V24.8C48.952,24.838,48.922,24.869,48.884,24.869z"/>
		</g>
		<g>
			<path class="st4" d="M49.984,24.869c-0.038,0-0.069-0.031-0.069-0.069v-6.376c0-0.018,0.007-0.036,0.02-0.049l1.051-1.051v-1.882
				c0-0.038,0.031-0.069,0.069-0.069s0.069,0.031,0.069,0.069v1.911c0,0.018-0.007,0.036-0.02,0.049l-1.051,1.051V24.8
				C50.053,24.838,50.022,24.869,49.984,24.869z"/>
		</g>
		<g>
			<path class="st4" d="M49.067,18.126c-0.038,0-0.069-0.031-0.069-0.069v-2.614c0-0.038,0.031-0.069,0.069-0.069
				s0.069,0.031,0.069,0.069v2.614C49.136,18.095,49.105,18.126,49.067,18.126z"/>
		</g>
		<g>
			<path class="st4" d="M51.255,24.869c-0.038,0-0.069-0.031-0.069-0.069v-5.275c0-0.018,0.007-0.036,0.02-0.049l1.684-1.684v-2.304
				c0-0.038,0.031-0.069,0.069-0.069s0.069,0.031,0.069,0.069v2.332c0,0.018-0.007,0.036-0.02,0.049l-1.684,1.684V24.8
				C51.324,24.838,51.293,24.869,51.255,24.869z"/>
		</g>
		<g>
			<path class="st4" d="M52.48,24.846c-0.038,0-0.069-0.031-0.069-0.069v-4.243c0-0.038,0.031-0.069,0.069-0.069
				s0.069,0.031,0.069,0.069v4.243C52.549,24.815,52.518,24.846,52.48,24.846z"/>
		</g>
		<g>
			<path class="st4" d="M55.244,18.103c-0.038,0-0.069-0.031-0.069-0.069v-2.592c0-0.038,0.031-0.069,0.069-0.069
				s0.069,0.031,0.069,0.069v2.592C55.313,18.072,55.282,18.103,55.244,18.103z"/>
		</g>
		<g>
			<path class="st4" d="M53.837,24.846c-0.038,0-0.069-0.031-0.069-0.069v-9.334c0-0.038,0.031-0.069,0.069-0.069
				s0.069,0.031,0.069,0.069v9.334C53.906,24.815,53.875,24.846,53.837,24.846z"/>
		</g>
		<g>
			<path class="st4" d="M55.03,24.846c-0.038,0-0.069-0.031-0.069-0.069v-4.931c0-0.018,0.007-0.036,0.02-0.049l2.039-2.04v-2.269
				c0-0.038,0.031-0.069,0.069-0.069s0.069,0.031,0.069,0.069v2.298c0,0.018-0.007,0.036-0.02,0.049l-2.039,2.04v4.902
				C55.099,24.815,55.068,24.846,55.03,24.846z"/>
		</g>
		<g>
			<path class="st4" d="M56.36,24.846c-0.038,0-0.069-0.031-0.069-0.069v-2.821c0-0.038,0.031-0.069,0.069-0.069
				s0.069,0.031,0.069,0.069v2.821C56.429,24.815,56.398,24.846,56.36,24.846z"/>
		</g>
		<g>
			<path class="st4" d="M56.578,20.442c-0.018,0-0.035-0.007-0.049-0.02c-0.027-0.027-0.027-0.07,0-0.097l2.468-2.468v-2.414
				c0-0.038,0.031-0.069,0.069-0.069s0.069,0.031,0.069,0.069v2.442c0,0.018-0.007,0.036-0.02,0.049l-2.488,2.488
				C56.613,20.436,56.596,20.442,56.578,20.442z"/>
		</g>
		<g>
			<path class="st4" d="M57.599,24.846c-0.038,0-0.069-0.031-0.069-0.069v-3.463c0-0.018,0.007-0.036,0.02-0.049l2.899-2.899v-2.924
				c0-0.038,0.031-0.069,0.069-0.069s0.069,0.031,0.069,0.069v2.952c0,0.018-0.007,0.036-0.02,0.049l-2.899,2.899v3.434
				C57.668,24.815,57.637,24.846,57.599,24.846z"/>
		</g>
		<g>
			<path class="st4" d="M59.066,24.869c-0.038,0-0.069-0.031-0.069-0.069v-3.486c0-0.038,0.031-0.069,0.069-0.069
				s0.069,0.031,0.069,0.069V24.8C59.135,24.838,59.104,24.869,59.066,24.869z"/>
		</g>
		<g>
			<path class="st4" d="M60.558,42.136c-0.018,0-0.035-0.007-0.049-0.02l-1.239-1.239c-0.013-0.013-0.02-0.03-0.02-0.049v-4.266
				c0-0.038,0.031-0.069,0.069-0.069c0.038,0,0.069,0.031,0.069,0.069V40.8l1.219,1.219c0.027,0.027,0.027,0.07,0,0.097
				C60.594,42.129,60.576,42.136,60.558,42.136z"/>
		</g>
		<g>
			<path class="st4" d="M57.148,44.078c-0.018,0-0.035-0.007-0.049-0.02c-0.027-0.027-0.027-0.07,0-0.097l1.051-1.051v-6.347
				c0-0.038,0.031-0.069,0.069-0.069s0.069,0.031,0.069,0.069v6.376c0,0.018-0.007,0.036-0.02,0.049l-1.071,1.071
				C57.183,44.071,57.165,44.078,57.148,44.078z"/>
		</g>
		<g>
			<path class="st4" d="M59.136,50.117c-0.038,0-0.069-0.031-0.069-0.069v-6.743c0-0.038,0.031-0.069,0.069-0.069
				s0.069,0.031,0.069,0.069v6.743C59.205,50.086,59.174,50.117,59.136,50.117z"/>
		</g>
		<g>
			<path class="st4" d="M55.244,50.117c-0.038,0-0.069-0.031-0.069-0.069v-6.506c0-0.018,0.007-0.036,0.02-0.049l1.684-1.684v-5.246
				c0-0.038,0.031-0.069,0.069-0.069s0.069,0.031,0.069,0.069v5.275c0,0.018-0.007,0.036-0.02,0.049l-1.684,1.684v6.478
				C55.313,50.086,55.282,50.117,55.244,50.117z"/>
		</g>
		<g>
			<path class="st4" d="M53.727,50.117c-0.038,0-0.069-0.031-0.069-0.069v-7.224c0-0.018,0.007-0.036,0.02-0.049l1.975-1.975v-4.214
				c0-0.038,0.031-0.069,0.069-0.069s0.069,0.031,0.069,0.069v4.243c0,0.018-0.007,0.036-0.02,0.049l-1.975,1.975v7.196
				C53.796,50.086,53.765,50.117,53.727,50.117z"/>
		</g>
		<g>
			<path class="st4" d="M54.366,40.117c-0.038,0-0.069-0.031-0.069-0.069v-3.463c0-0.038,0.031-0.069,0.069-0.069
				s0.069,0.031,0.069,0.069v3.463C54.435,40.087,54.404,40.117,54.366,40.117z"/>
		</g>
		<g>
			<path class="st4" d="M51.113,50.117c-0.038,0-0.069-0.031-0.069-0.069v-6.472c0-0.018,0.007-0.036,0.02-0.049l2.04-2.04v-4.902
				c0-0.038,0.031-0.069,0.069-0.069s0.069,0.031,0.069,0.069v4.931c0,0.018-0.007,0.036-0.02,0.049l-2.04,2.04v6.443
				C51.182,50.086,51.151,50.117,51.113,50.117z"/>
		</g>
		<g>
			<path class="st4" d="M51.843,39.475c-0.038,0-0.069-0.031-0.069-0.069v-2.821c0-0.038,0.031-0.069,0.069-0.069
				s0.069,0.031,0.069,0.069v2.821C51.912,39.444,51.881,39.475,51.843,39.475z"/>
		</g>
		<g>
			<path class="st4" d="M49.137,50.117c-0.038,0-0.069-0.031-0.069-0.069v-6.571c0-0.018,0.007-0.036,0.02-0.049l2.488-2.488
				c0.027-0.027,0.07-0.027,0.097,0s0.027,0.07,0,0.097l-2.468,2.468v6.542C49.206,50.086,49.175,50.117,49.137,50.117z"/>
		</g>
		<g>
			<path class="st4" d="M47.685,50.117c-0.038,0-0.069-0.031-0.069-0.069v-7.08c0-0.018,0.007-0.036,0.02-0.049l2.899-2.899v-3.435
				c0-0.038,0.031-0.069,0.069-0.069c0.038,0,0.069,0.031,0.069,0.069v3.463c0,0.018-0.007,0.036-0.02,0.049l-2.899,2.899v7.052
				C47.754,50.086,47.723,50.117,47.685,50.117z"/>
		</g>
		<g>
			<path class="st4" d="M49.137,40.117c-0.038,0-0.069-0.031-0.069-0.069v-3.486c0-0.038,0.031-0.069,0.069-0.069
				c0.038,0,0.069,0.031,0.069,0.069v3.486C49.206,40.087,49.175,40.117,49.137,40.117z"/>
		</g>
		<g>
			<path class="st4" d="M75.163,37.415h-9.605c-0.018,0-0.036-0.007-0.049-0.02l-1.219-1.219h-4.237
				c-0.038,0-0.069-0.031-0.069-0.069s0.031-0.069,0.069-0.069h4.266c0.018,0,0.036,0.007,0.049,0.02l1.219,1.219h9.576
				c0.038,0,0.069,0.031,0.069,0.069S75.201,37.415,75.163,37.415z"/>
		</g>
		<g>
			<path class="st4" d="M66.429,35.075h-6.376c-0.038,0-0.069-0.031-0.069-0.069c0-0.038,0.031-0.069,0.069-0.069H66.4l1.051-1.051
				c0.013-0.013,0.03-0.02,0.049-0.02h7.662c0.038,0,0.069,0.031,0.069,0.069s-0.031,0.069-0.069,0.069h-7.634l-1.051,1.051
				C66.465,35.068,66.447,35.075,66.429,35.075z"/>
		</g>
		<g>
			<path class="st4" d="M75.163,35.993h-8.367c-0.038,0-0.069-0.031-0.069-0.069s0.031-0.069,0.069-0.069h8.367
				c0.038,0,0.069,0.031,0.069,0.069S75.201,35.993,75.163,35.993z"/>
		</g>
		<g>
			<path class="st4" d="M65.328,33.805h-5.275c-0.038,0-0.069-0.031-0.069-0.069s0.031-0.069,0.069-0.069H65.3l1.684-1.684
				c0.013-0.013,0.03-0.02,0.049-0.02h8.084c0.038,0,0.069,0.031,0.069,0.069s-0.031,0.069-0.069,0.069h-8.056l-1.684,1.684
				C65.364,33.798,65.347,33.805,65.328,33.805z"/>
		</g>
		<g>
			<path class="st4" d="M64.319,32.579h-4.243c-0.038,0-0.069-0.031-0.069-0.069s0.031-0.069,0.069-0.069h4.214l1.975-1.975
				c0.013-0.013,0.03-0.02,0.049-0.02h8.848c0.038,0,0.069,0.031,0.069,0.069s-0.031,0.069-0.069,0.069h-8.82l-1.975,1.975
				C64.355,32.572,64.337,32.579,64.319,32.579z"/>
		</g>
		<g>
			<path class="st4" d="M63.54,31.222h-3.463c-0.038,0-0.069-0.031-0.069-0.069s0.031-0.069,0.069-0.069h3.463
				c0.038,0,0.069,0.031,0.069,0.069C63.608,31.192,63.578,31.222,63.54,31.222z"/>
		</g>
		<g>
			<path class="st4" d="M65.007,30.03h-4.931c-0.038,0-0.069-0.031-0.069-0.069s0.031-0.069,0.069-0.069h4.902l2.04-2.04
				c0.013-0.013,0.03-0.02,0.049-0.02h8.05c0.038,0,0.069,0.031,0.069,0.069s-0.031,0.069-0.069,0.069h-8.021l-2.04,2.04
				C65.043,30.023,65.025,30.03,65.007,30.03z"/>
		</g>
		<g>
			<path class="st4" d="M62.897,28.7h-2.821c-0.038,0-0.069-0.031-0.069-0.069s0.031-0.069,0.069-0.069h2.821
				c0.038,0,0.069,0.031,0.069,0.069S62.935,28.7,62.897,28.7z"/>
		</g>
		<g>
			<path class="st4" d="M64.48,28.482c-0.018,0-0.035-0.007-0.049-0.02c-0.027-0.027-0.027-0.07,0-0.097l2.488-2.488
				c0.027-0.027,0.07-0.027,0.097,0s0.027,0.07,0,0.097l-2.488,2.488C64.515,28.475,64.497,28.482,64.48,28.482z"/>
		</g>
		<g>
			<path class="st4" d="M63.54,27.461h-3.463c-0.038,0-0.069-0.031-0.069-0.069s0.031-0.069,0.069-0.069h3.435l2.899-2.899
				c0.013-0.013,0.03-0.02,0.049-0.02h8.704c0.038,0,0.069,0.031,0.069,0.069s-0.031,0.069-0.069,0.069h-8.676l-2.899,2.899
				C63.575,27.453,63.558,27.461,63.54,27.461z"/>
		</g>
		<g>
			<path class="st4" d="M63.54,25.993h-3.486c-0.038,0-0.069-0.031-0.069-0.069s0.031-0.069,0.069-0.069h3.486
				c0.038,0,0.069,0.031,0.069,0.069C63.608,25.963,63.578,25.993,63.54,25.993z"/>
		</g>
	</g>
	<g>
		
			<rect x="49.9" y="26.527" transform="matrix(0.7071 -0.7071 0.7071 0.7071 -5.8732 47.2325)" class="st5" width="8.357" height="8.357"/>
		<g>
			<path class="st6" d="M57.675,34.896h-7.091c-0.01,0-0.02-0.004-0.028-0.012l-0.579-0.579c-0.007-0.007-0.012-0.018-0.012-0.028
				v-7.091c0-0.01,0.004-0.02,0.012-0.028l0.579-0.579c0.007-0.007,0.017-0.012,0.028-0.012h7.091c0.01,0,0.02,0.004,0.028,0.012
				l0.579,0.579c0.007,0.007,0.012,0.017,0.012,0.028v7.091c0,0.01-0.004,0.02-0.012,0.028l-0.579,0.579
				C57.695,34.892,57.685,34.896,57.675,34.896z M50.6,34.817h7.058l0.556-0.556v-7.058l-0.556-0.556H50.6l-0.556,0.556v7.058
				L50.6,34.817z"/>
		</g>
		<g>
			<path class="st6" d="M60.308,37.989H47.95c-0.018,0-0.036-0.007-0.049-0.02l-1.009-1.009c-0.013-0.013-0.02-0.03-0.02-0.049
				V24.553c0-0.018,0.007-0.036,0.02-0.049l1.009-1.009c0.013-0.013,0.03-0.02,0.049-0.02h12.358c0.018,0,0.036,0.007,0.049,0.02
				l1.009,1.009c0.013,0.013,0.02,0.03,0.02,0.049v12.358c0,0.018-0.007,0.036-0.02,0.049l-1.009,1.009
				C60.344,37.982,60.326,37.989,60.308,37.989z M47.979,37.851H60.28l0.969-0.969V24.581l-0.969-0.969H47.979l-0.969,0.969v12.301
				L47.979,37.851z"/>
		</g>
	</g>
	<g>
		<path class="st4" d="M32.524,31.854c0,0.118-0.096,0.214-0.214,0.214s-0.214-0.096-0.214-0.214s0.096-0.214,0.214-0.214
			C32.428,31.64,32.524,31.736,32.524,31.854z"/>
	</g>
	<g>
		<path class="st4" d="M32.524,30.337c0,0.118-0.096,0.214-0.214,0.214s-0.214-0.096-0.214-0.214s0.096-0.214,0.214-0.214
			C32.428,30.123,32.524,30.219,32.524,30.337z"/>
	</g>
	<g>
		<path class="st4" d="M75.331,30.515c0,0.118-0.096,0.214-0.214,0.214s-0.214-0.096-0.214-0.214s0.096-0.214,0.214-0.214
			C75.235,30.301,75.331,30.397,75.331,30.515z"/>
	</g>
	<g>
		<path class="st4" d="M75.331,27.901c0,0.118-0.096,0.214-0.214,0.214s-0.214-0.096-0.214-0.214s0.096-0.214,0.214-0.214
			C75.235,27.687,75.331,27.783,75.331,27.901z"/>
	</g>
	<g>
		<path class="st4" d="M75.331,24.473c0,0.118-0.096,0.214-0.214,0.214s-0.214-0.096-0.214-0.214s0.096-0.214,0.214-0.214
			C75.235,24.259,75.331,24.355,75.331,24.473z"/>
	</g>
	<g>
		<path class="st4" d="M60.732,15.308c0,0.118-0.096,0.214-0.214,0.214s-0.214-0.096-0.214-0.214s0.096-0.214,0.214-0.214
			C60.636,15.094,60.732,15.19,60.732,15.308z"/>
	</g>
	<g>
		<path class="st4" d="M59.273,15.308c0,0.118-0.096,0.214-0.214,0.214s-0.214-0.096-0.214-0.214s0.096-0.214,0.214-0.214
			S59.273,15.19,59.273,15.308z"/>
	</g>
	<g>
		<path class="st4" d="M57.304,15.308c0,0.118-0.096,0.214-0.214,0.214s-0.214-0.096-0.214-0.214s0.096-0.214,0.214-0.214
			S57.304,15.19,57.304,15.308z"/>
	</g>
	<g>
		<path class="st4" d="M55.458,15.308c0,0.118-0.096,0.214-0.214,0.214s-0.214-0.096-0.214-0.214s0.096-0.214,0.214-0.214
			S55.458,15.19,55.458,15.308z"/>
	</g>
	<g>
		<path class="st4" d="M54.051,15.308c0,0.118-0.096,0.214-0.214,0.214s-0.214-0.096-0.214-0.214s0.096-0.214,0.214-0.214
			C53.956,15.094,54.051,15.19,54.051,15.308z"/>
	</g>
	<g>
		<path class="st4" d="M53.173,15.308c0,0.118-0.096,0.214-0.214,0.214s-0.214-0.096-0.214-0.214s0.096-0.214,0.214-0.214
			S53.173,15.19,53.173,15.308z"/>
	</g>
	<g>
		<path class="st4" d="M51.269,15.308c0,0.118-0.096,0.214-0.214,0.214s-0.214-0.096-0.214-0.214s0.096-0.214,0.214-0.214
			C51.174,15.094,51.269,15.19,51.269,15.308z"/>
	</g>
	<g>
		<path class="st4" d="M49.281,15.308c0,0.118-0.096,0.214-0.214,0.214s-0.214-0.096-0.214-0.214s0.096-0.214,0.214-0.214
			C49.185,15.094,49.281,15.19,49.281,15.308z"/>
	</g>
	<g>
		<path class="st4" d="M47.859,15.308c0,0.118-0.096,0.214-0.214,0.214s-0.214-0.096-0.214-0.214s0.096-0.214,0.214-0.214
			S47.859,15.19,47.859,15.308z"/>
	</g>
	<g>
		<path class="st4" d="M75.331,32.032c0,0.118-0.096,0.214-0.214,0.214s-0.214-0.096-0.214-0.214s0.096-0.214,0.214-0.214
			S75.331,31.914,75.331,32.032z"/>
	</g>
	<g>
		<path class="st4" d="M75.331,33.936c0,0.118-0.096,0.214-0.214,0.214s-0.214-0.096-0.214-0.214s0.096-0.214,0.214-0.214
			S75.331,33.817,75.331,33.936z"/>
	</g>
	<g>
		<path class="st4" d="M75.331,35.924c0,0.118-0.096,0.214-0.214,0.214s-0.214-0.096-0.214-0.214s0.096-0.214,0.214-0.214
			S75.331,35.806,75.331,35.924z"/>
	</g>
	<g>
		<path class="st4" d="M75.331,37.346c0,0.118-0.096,0.214-0.214,0.214s-0.214-0.096-0.214-0.214s0.096-0.214,0.214-0.214
			S75.331,37.228,75.331,37.346z"/>
	</g>
	<g>
		<path class="st4" d="M32.524,33.758c0,0.118-0.096,0.214-0.214,0.214s-0.214-0.096-0.214-0.214s0.096-0.214,0.214-0.214
			C32.428,33.544,32.524,33.64,32.524,33.758z"/>
	</g>
	<g>
		<path class="st4" d="M32.524,35.746c0,0.118-0.096,0.214-0.214,0.214s-0.214-0.096-0.214-0.214s0.096-0.214,0.214-0.214
			C32.428,35.532,32.524,35.628,32.524,35.746z"/>
	</g>
	<g>
		<path class="st4" d="M32.524,37.169c0,0.118-0.096,0.214-0.214,0.214s-0.214-0.096-0.214-0.214s0.096-0.214,0.214-0.214
			C32.428,36.954,32.524,37.05,32.524,37.169z"/>
	</g>
	<g>
		<path class="st4" d="M32.524,27.724c0,0.118-0.096,0.214-0.214,0.214s-0.214-0.096-0.214-0.214s0.096-0.214,0.214-0.214
			C32.428,27.51,32.524,27.605,32.524,27.724z"/>
	</g>
	<g>
		<path class="st4" d="M32.524,24.295c0,0.118-0.096,0.214-0.214,0.214s-0.214-0.096-0.214-0.214s0.096-0.214,0.214-0.214
			C32.428,24.081,32.524,24.177,32.524,24.295z"/>
	</g>
	<g>
		<path class="st6" d="M51.612,32.402l1.458-3.709h0.397l1.421,3.709h-0.36L54.1,31.238h-1.689l-0.438,1.164H51.612z M52.529,30.939
			h1.453l-0.727-1.948L52.529,30.939z"/>
		<path class="st6" d="M55.511,32.402v-3.709h0.351v3.709H55.511z"/>
	</g>
</g>
</svg>
