<?xml version="1.0" encoding="utf-8"?>
<!-- Generator: Adobe Illustrator 21.0.0, SVG Export Plug-In . SVG Version: 6.00 Build 0)  -->
<svg version="1.1" id="图层_1" xmlns="http://www.w3.org/2000/svg" xmlns:xlink="http://www.w3.org/1999/xlink" x="0px" y="0px"
	 viewBox="0 0 14 18" style="enable-background:new 0 0 14 18;" xml:space="preserve">
<style type="text/css">
	.st0{fill:#4B9FF0;}
</style>
<g id="LSAqAT.tif">
	<image style="overflow:visible;" width="14" height="18" id="图层_1_1_" xlink:href="BCE1E2F350994975.png" >
	</image>
</g>
<g id="lA4oej.tif">
	<image style="overflow:visible;" width="14" height="18" id="图层_1_2_" xlink:href="BCE1E2F350994977.png" >
	</image>
</g>
<g id="e4uq6J.tif">
	<image style="overflow:visible;" width="14" height="18" id="图层_1_3_" xlink:href="BCE1E2F350994972.png" >
	</image>
</g>
<path class="st0" d="M12.4,0H1.7C0.7,0,0,0.7,0,1.7v14.7C0,17.3,0.7,18,1.7,18h10.7c0.9,0,1.7-0.7,1.7-1.7V1.7C14,0.7,13.3,0,12.4,0
	z M7.4,14H4.1c-0.5,0-1-0.4-1-1s0.4-1,1-1h3.3c0.5,0,1,0.4,1,1S7.9,14,7.4,14z M9.9,9.9H4.1c-0.5,0-1-0.4-1-1s0.4-1,1-1h5.9
	c0.5,0,1,0.4,1,1S10.5,9.9,9.9,9.9z M9.9,5.9H4.1c-0.5,0-1-0.4-1-1s0.4-1,1-1h5.9c0.5,0,1,0.4,1,1S10.5,5.9,9.9,5.9z"/>
</svg>
