<?xml version="1.0" encoding="utf-8"?>
<!-- Generator: Adobe Illustrator 22.0.0, SVG Export Plug-In . SVG Version: 6.00 Build 0)  -->
<svg version="1.1" id="图层_1" xmlns="http://www.w3.org/2000/svg" xmlns:xlink="http://www.w3.org/1999/xlink" x="0px" y="0px"
	 viewBox="0 0 26 26" style="enable-background:new 0 0 26 26;" xml:space="preserve">
<style type="text/css">
	.st0{fill:#51DDD4;}
</style>
<path class="st0" d="M3.5,24.9L3.5,24.9c-0.6,0-1.1-0.5-1.1-1.1V3.5C2.5,3,3,2.5,3.5,2.5h0c0.6,0,1.1,0.5,1.1,1.1v20.4
	C4.6,24.5,4.1,24.9,3.5,24.9z"/>
<path class="st0" d="M4.6,4.6c0,0,4.2-4.2,8.4,0c0,0,4.2,4.2,6.3,2.1L23,3c0.2-0.2,0.5-0.1,0.5,0.2v13.9c0,0.1,0,0.2-0.1,0.2
	c-0.6,0.6-4.6,3.8-10.4-0.1c0,0-6.3-4.2-8.4,2.1V4.6z"/>
</svg>
