<?xml version="1.0" encoding="utf-8"?>
<!-- Generator: Adobe Illustrator 21.0.0, SVG Export Plug-In . SVG Version: 6.00 Build 0)  -->
<svg version="1.1" id="图层_1" xmlns="http://www.w3.org/2000/svg" xmlns:xlink="http://www.w3.org/1999/xlink" x="0px" y="0px"
	 viewBox="0 0 46 46" style="enable-background:new 0 0 46 46;" xml:space="preserve">
<style type="text/css">
	.st0{fill:#FFFFFF;}
</style>
<g>
	<path class="st0" d="M33.1,15.4c4.4,0,8,3.6,8,8c0,4.4-3.6,8-8,8H12.9c-4.4,0-8-3.6-8-8c0-4.4,3.6-8,8-8H33.1 M33.1,10.5H12.9
		C5.8,10.5,0,16.3,0,23.4v0c0,7.1,5.8,12.9,12.9,12.9h20.2c7.1,0,12.9-5.8,12.9-12.9v0C46,16.3,40.2,10.5,33.1,10.5L33.1,10.5z"/>
</g>
<circle class="st0" cx="12.7" cy="23.1" r="2.8"/>
<circle class="st0" cx="33.1" cy="23.1" r="2.8"/>
</svg>
