<?xml version="1.0" encoding="utf-8"?>
<!-- Generator: Adobe Illustrator 25.0.0, SVG Export Plug-In . SVG Version: 6.00 Build 0)  -->
<svg version="1.1" id="图层_1" xmlns="http://www.w3.org/2000/svg" xmlns:xlink="http://www.w3.org/1999/xlink" x="0px" y="0px"
	 viewBox="0 0 14 14" style="enable-background:new 0 0 14 14;" xml:space="preserve">
<style type="text/css">
	.st0{fill:#FFFFFF;}
</style>
<path class="st0" d="M6.8,0.1L4.6,2.5c-0.1,0.1,0,0.4,0.2,0.4h4.4c0.2,0,0.3-0.2,0.2-0.4L7.2,0.1C7.1,0,6.9,0,6.8,0.1z"/>
<path class="st0" d="M7.2,13.9l2.2-2.5c0.1-0.1,0-0.4-0.2-0.4H4.8c-0.2,0-0.3,0.2-0.2,0.4l2.2,2.5C6.9,14,7.1,14,7.2,13.9z"/>
<path class="st0" d="M13.9,6.8l-2.5-2.2c-0.1-0.1-0.4,0-0.4,0.2v4.4c0,0.2,0.2,0.3,0.4,0.2l2.5-2.2C14,7.1,14,6.9,13.9,6.8z"/>
<path class="st0" d="M0.1,7.2l2.5,2.2c0.1,0.1,0.4,0,0.4-0.2V4.8c0-0.2-0.2-0.3-0.4-0.2L0.1,6.8C0,6.9,0,7.1,0.1,7.2z"/>
</svg>
