<?xml version="1.0" encoding="utf-8"?>
<!-- Generator: Adobe Illustrator 25.0.0, SVG Export Plug-In . SVG Version: 6.00 Build 0)  -->
<svg version="1.1" id="图层_1" xmlns="http://www.w3.org/2000/svg" xmlns:xlink="http://www.w3.org/1999/xlink" x="0px" y="0px"
	 viewBox="0 0 14 14" style="enable-background:new 0 0 14 14;" xml:space="preserve">
<style type="text/css">
	.st0{fill:#FFFFFF;}
</style>
<path class="st0" d="M12.3,12.7V14h-10v-1.2C1,12.7,0,11.6,0,10.3c0-1.5,1.2-2.6,2.6-2.6h8.8c1.4,0,2.6,1.2,2.6,2.6
	C14,11.4,13.3,12.4,12.3,12.7L12.3,12.7z M3.8,9.5C3.4,9.5,3,9.9,3,10.3c0,0.4,0.4,0.8,0.8,0.8c0.4,0,0.8-0.4,0.8-0.8c0,0,0,0,0,0
	C4.6,9.9,4.3,9.5,3.8,9.5C3.8,9.5,3.8,9.5,3.8,9.5z M7,9.5c-0.4,0-0.8,0.4-0.8,0.8s0.4,0.8,0.8,0.8s0.8-0.4,0.8-0.8c0,0,0,0,0,0
	C7.8,9.9,7.4,9.5,7,9.5z M10.2,9.5c-0.4,0-0.8,0.4-0.8,0.8s0.4,0.8,0.8,0.8c0.4,0,0.8-0.4,0.8-0.8c0,0,0,0,0,0
	C11,9.9,10.6,9.5,10.2,9.5L10.2,9.5z M3.7,4.5L3.1,3.6c0.1-0.1,0.2-0.1,0.3-0.2C3.7,3.2,4,3,4.3,2.9C6.5,1.8,9,1.8,11.3,3.8
	l-0.7,0.8c-2-1.6-4-1.7-6-0.7C4.5,4,4.2,4.1,4,4.3C3.9,4.3,3.8,4.4,3.7,4.5z M5.3,5c1.5-0.7,3.1-0.7,4.6,0.6L9.2,6.4
	c-1.1-1-2.3-1-3.5-0.4C5.6,6.1,5.4,6.2,5.3,6.3c-0.1,0-0.1,0.1-0.1,0.1L4.5,5.5C4.7,5.4,4.9,5.2,5.3,5L5.3,5z M7.3,1.1
	c-1.3,0-2.5,0.3-3.6,0.9C3.4,2.1,3,2.3,2.7,2.5C2.6,2.6,2.5,2.7,2.4,2.7c0,0-0.1,0.1-0.1,0.1L1.7,1.9c0.1-0.1,0.2-0.2,0.4-0.3
	C2.5,1.4,2.9,1.2,3.3,1c1.3-0.6,2.6-1,4.1-1c1.9,0,3.7,0.7,5.4,2.1l-0.7,0.8C10.5,1.7,9,1.1,7.3,1.1L7.3,1.1z"/>
</svg>
