<?xml version="1.0" encoding="utf-8"?>
<!-- Generator: Adobe Illustrator 25.0.0, SVG Export Plug-In . SVG Version: 6.00 Build 0)  -->
<svg version="1.1" id="图层_1" xmlns="http://www.w3.org/2000/svg" xmlns:xlink="http://www.w3.org/1999/xlink" x="0px" y="0px"
	 viewBox="0 0 14 14" style="enable-background:new 0 0 14 14;" xml:space="preserve">
<style type="text/css">
	.st0{fill:#FFFFFF;}
</style>
<path class="st0" d="M13.6,7.4c-0.2,0-0.4-0.2-0.4-0.4h0C13,3.6,10.3,0.9,6.9,0.8v0c-0.2,0-0.4-0.2-0.4-0.4S6.7,0,6.9,0C7,0,7,0,7,0
	c3.8,0.1,6.8,3.1,7,6.9c0,0,0,0.1,0,0.1C14,7.2,13.8,7.4,13.6,7.4L13.6,7.4z M10.5,7.2c0,2.1-1.7,3.7-3.7,3.7C4.7,11,3,9.3,3,7.2
	c0-2.1,1.7-3.7,3.7-3.7C8.8,3.5,10.5,5.2,10.5,7.2z M3,4.1l-1-1C1.8,2.9,1.8,2.6,2,2.4c0.2-0.2,0.5-0.2,0.7,0l1,1
	c0.2,0.2,0.2,0.5,0,0.7C3.5,4.3,3.2,4.3,3,4.1z M2.4,7.2c0,0.3-0.2,0.5-0.5,0.5H0.5C0.2,7.7,0,7.5,0,7.2c0-0.3,0.2-0.5,0.5-0.5h1.4
	C2.2,6.7,2.4,6.9,2.4,7.2z M3,10.3c0.2-0.2,0.5-0.2,0.7,0c0.2,0.2,0.2,0.5,0,0.7l-1,1c-0.2,0.2-0.5,0.2-0.7,0
	c-0.2-0.2-0.2-0.5,0-0.7L3,10.3L3,10.3z M6.8,11.6c0.3,0,0.5,0.2,0.5,0.5v1.4C7.3,13.8,7,14,6.8,14c-0.3,0-0.5-0.2-0.5-0.5v-1.4
	C6.3,11.8,6.5,11.6,6.8,11.6L6.8,11.6z M10.6,10.3l1,1c0.2,0.2,0.2,0.5,0,0.7c-0.2,0.2-0.5,0.2-0.7,0l-1-1c-0.2-0.2-0.2-0.5,0-0.7
	C10,10.1,10.4,10.1,10.6,10.3z M11.4,6.9C11.4,6.9,11.4,6.8,11.4,6.9L11.4,6.9C11.2,4.5,9.3,2.7,7,2.6v0c-0.2,0-0.4-0.2-0.4-0.5
	c0-0.3,0.2-0.5,0.5-0.5c0,0,0.1,0,0.1,0c2.6,0.2,4.8,2.5,5.2,5.1c0,0,0,0.1,0,0.1h0c0,0,0,0,0,0c0,0.3-0.2,0.5-0.5,0.5
	C11.6,7.3,11.4,7.1,11.4,6.9L11.4,6.9z"/>
</svg>
