<?xml version="1.0" encoding="utf-8"?>
<!-- Generator: Adobe Illustrator 25.0.0, SVG Export Plug-In . SVG Version: 6.00 Build 0)  -->
<svg version="1.1" id="图层_1" xmlns="http://www.w3.org/2000/svg" xmlns:xlink="http://www.w3.org/1999/xlink" x="0px" y="0px"
	 viewBox="0 0 24 24" style="enable-background:new 0 0 24 24;" xml:space="preserve">
<style type="text/css">
	.st0{fill:#FFFFFF;}
</style>
<path class="st0" d="M2,13.4C1.9,13.4,1.9,13.4,2,13.4l-0.1,7.7c0,0.6,0.5,1,1,1h8C10.8,17.3,6.8,13.4,2,13.4z"/>
<path class="st0" d="M2,7C1.9,7,1.9,7,2,7l-0.1,3.3c6.6,0,11.9,5.3,12,11.8h3.4C17.2,13.8,10.4,7,2,7z"/>
<path class="st0" d="M22.1,21.1v-7C19.8,8.5,15.1,4,9.3,1.9H2.9c-0.6,0-1,0.5-1,1v1c10.1,0,18.3,8.2,18.4,18.2h0.8
	C21.6,22.1,22.1,21.7,22.1,21.1z"/>
<path class="st0" d="M19.4,4.7c0.9,0.9,1.9,2.1,2.7,3.2v-5c0-0.6-0.4-1-1-1H16C17.2,2.7,18.4,3.7,19.4,4.7z"/>
</svg>
