<?xml version="1.0" encoding="utf-8"?>
<!-- Generator: Adobe Illustrator 25.0.0, SVG Export Plug-In . SVG Version: 6.00 Build 0)  -->
<svg version="1.1" id="图层_1" xmlns="http://www.w3.org/2000/svg" xmlns:xlink="http://www.w3.org/1999/xlink" x="0px" y="0px"
	 viewBox="0 0 14 14" style="enable-background:new 0 0 14 14;" xml:space="preserve">
<style type="text/css">
	.st0{fill:#FFFFFF;}
</style>
<g>
	<path class="st0" d="M2.4,2.9h9.1c0.2,0,0.3,0.1,0.3,0.3v6.4c0,0.2-0.1,0.3-0.3,0.3H2.4c-0.2,0-0.3-0.1-0.3-0.3V3.2
		C2.2,3,2.3,2.9,2.4,2.9z"/>
</g>
<g>
	<circle class="st0" cx="12.4" cy="11.3" r="0.8"/>
</g>
<path class="st0" d="M13.3,1.5H0.7C0.3,1.5,0,1.8,0,2.2v9.1c0,0.7,0.5,1.2,1.2,1.2h11.6c0.7,0,1.2-0.5,1.2-1.2V2.2
	C14,1.8,13.7,1.5,13.3,1.5z M13.6,10.6c0,0.2-0.1,0.3-0.2,0.4c0,0.1,0,0.2,0,0.2c0,0.5-0.4,1-1,1c-0.5,0-1-0.4-1-1
	c0-0.1,0-0.1,0-0.2H0.9c-0.3,0-0.5-0.2-0.5-0.5V2.3c0-0.3,0.2-0.5,0.5-0.5h12.2c0.3,0,0.5,0.2,0.5,0.5V10.6z M3.6,12H1.7
	c0,0-0.1,0-0.1-0.1v-0.2c0,0,0-0.1,0.1-0.1h1.9c0,0,0.1,0,0.1,0.1L3.6,12C3.7,12,3.7,12,3.6,12z"/>
</svg>
