<?xml version="1.0" encoding="utf-8"?>
<!-- Generator: Adobe Illustrator 25.0.0, SVG Export Plug-In . SVG Version: 6.00 Build 0)  -->
<svg version="1.1" id="图层_1" xmlns="http://www.w3.org/2000/svg" xmlns:xlink="http://www.w3.org/1999/xlink" x="0px" y="0px"
	 viewBox="0 0 14 14" style="enable-background:new 0 0 14 14;" xml:space="preserve">
<style type="text/css">
	.st0{fill:#FFFFFF;}
</style>
<polygon class="st0" points="8.7,14 8.7,0 2.6,4.4 0,4.4 0,9.6 2.6,9.6 "/>
<path class="st0" d="M9.6,12.2C12.1,11.8,14,9.6,14,7s-1.9-4.7-4.4-5.2v0.9c2,0.4,3.5,2.2,3.5,4.3s-1.5,3.9-3.5,4.3V12.2z"/>
<path class="st0" d="M9.6,8.5v1c1-0.4,1.7-1.3,1.7-2.5s-0.7-2.1-1.7-2.5v1c0.5,0.3,0.9,0.9,0.9,1.5S10.1,8.2,9.6,8.5z"/>
</svg>
