<?xml version="1.0" encoding="utf-8"?>
<!-- Generator: Adobe Illustrator 25.0.0, SVG Export Plug-In . SVG Version: 6.00 Build 0)  -->
<svg version="1.1" id="图层_1" xmlns="http://www.w3.org/2000/svg" xmlns:xlink="http://www.w3.org/1999/xlink" x="0px" y="0px"
	 viewBox="0 0 14 14" style="enable-background:new 0 0 14 14;" xml:space="preserve">
<style type="text/css">
	.st0{fill:#FFFFFF;}
</style>
<path class="st0" d="M1.1,14L1.1,14C0.5,14,0,13.5,0,12.9V4.9c0-0.6,0.5-1.1,1.1-1.1h0c0.6,0,1.1,0.5,1.1,1.1v8.1
	C2.1,13.5,1.6,14,1.1,14z"/>
<path class="st0" d="M5,14L5,14C4.4,14,4,13.5,4,12.9V9.5C4,8.9,4.4,8.4,5,8.4h0c0.6,0,1.1,0.5,1.1,1.1v3.5C6.1,13.5,5.6,14,5,14z"
	/>
<path class="st0" d="M9,14L9,14c-0.6,0-1.1-0.5-1.1-1.1V1.1C7.9,0.5,8.4,0,9,0h0C9.6,0,10,0.5,10,1.1v11.9C10,13.5,9.6,14,9,14z"/>
<path class="st0" d="M12.9,14L12.9,14c-0.6,0-1.1-0.5-1.1-1.1V7.2c0-0.6,0.5-1.1,1.1-1.1h0c0.6,0,1.1,0.5,1.1,1.1v5.8
	C14,13.5,13.5,14,12.9,14z"/>
</svg>
