<?xml version="1.0" encoding="utf-8"?>
<!-- Generator: Adobe Illustrator 25.0.0, SVG Export Plug-In . SVG Version: 6.00 Build 0)  -->
<svg version="1.1" id="图层_1" xmlns="http://www.w3.org/2000/svg" xmlns:xlink="http://www.w3.org/1999/xlink" x="0px" y="0px"
	 viewBox="0 0 24 24" style="enable-background:new 0 0 24 24;" xml:space="preserve">
<style type="text/css">
	.st0{fill:#FFFFFF;}
	.st1{fill-rule:evenodd;clip-rule:evenodd;fill:#FFFFFF;}
</style>
<g>
	<path class="st0" d="M1.1,9.8c-0.3,0-0.6-0.1-0.8-0.4c-0.4-0.5-0.4-1.3,0-1.7C0.7,7.3,1,7,1.4,6.6c6.6-6,16.1-5.5,22.3,1
		c0.4,0.5,0.5,1.2,0,1.7c-0.4,0.5-1.1,0.5-1.5,0C16.8,3.8,8.5,3.4,2.8,8.6C2.4,8.8,2.1,9.1,1.8,9.5C1.6,9.7,1.4,9.8,1.1,9.8z"/>
</g>
<g>
	<path class="st0" d="M19.6,14c-0.3,0-0.6-0.1-0.8-0.4c-1.8-2.1-4.3-3.2-6.9-3.2c-2.6,0-5,1.1-6.9,3.2c-0.4,0.5-1.1,0.5-1.5,0
		s-0.4-1.3,0-1.7C5.8,9.4,8.8,8,12,8c3.2,0,6.2,1.4,8.4,3.9c0.4,0.5,0.4,1.3,0,1.7C20.2,13.9,19.9,14,19.6,14z"/>
</g>
<g>
	<path class="st0" d="M16.4,18c-0.3,0-0.6-0.1-0.8-0.4c-1-1.1-2.2-1.7-3.6-1.7s-2.6,0.6-3.6,1.7c-0.4,0.5-1.1,0.5-1.5,0
		c-0.4-0.5-0.4-1.3,0-1.7c1.4-1.5,3.2-2.4,5.1-2.4s3.8,0.9,5.1,2.4c0.4,0.5,0.4,1.3,0,1.7C16.9,17.9,16.6,18,16.4,18z"/>
</g>
<g>
	<path class="st1" d="M12,21.5c0.8,0,1.4-0.7,1.4-1.5c0-0.8-0.6-1.5-1.4-1.5c-0.8,0-1.4,0.7-1.4,1.5C10.6,20.8,11.2,21.5,12,21.5z"
		/>
</g>
</svg>
