<?xml version="1.0" encoding="utf-8"?>
<!-- Generator: Adobe Illustrator 22.0.0, SVG Export Plug-In . SVG Version: 6.00 Build 0)  -->
<svg version="1.1" id="图层_1" xmlns="http://www.w3.org/2000/svg" xmlns:xlink="http://www.w3.org/1999/xlink" x="0px" y="0px"
	 viewBox="0 0 740 400" style="enable-background:new 0 0 740 400;" xml:space="preserve">
<style type="text/css">
	.st0{fill:none;stroke:#FFFFFF;stroke-width:12;stroke-miterlimit:10;}
	.st1{fill:#FFFFFF;}
	.st2{fill:none;stroke:#FFFFFF;stroke-width:16.788;stroke-miterlimit:10;}
	.st3{fill:none;stroke:#FFFFFF;stroke-width:8.394;stroke-miterlimit:10;}
	.st4{fill:none;stroke:#FFFFFF;stroke-width:18.563;stroke-miterlimit:10;}
	.st5{fill:none;stroke:#FFFFFF;stroke-width:14.364;stroke-miterlimit:10;}
</style>
<g>
	<path class="st0" d="M-1926.9-4685h-15.6c-4.1,0-7.4-3.3-7.4-7.4v-58.1c0-4.1,3.3-7.4,7.4-7.4h15.6c4.1,0,7.4,3.3,7.4,7.4v58.1
		C-1919.5-4688.3-1922.8-4685-1926.9-4685z"/>
	<path class="st1" d="M-2110.1-4814.7h-256.6c-3.4,0-6.1-2.7-6.1-6.1c0-3.4,2.7-6.1,6.1-6.1h256.6c3.4,0,6.1,2.7,6.1,6.1
		C-2104.1-4817.5-2106.8-4814.7-2110.1-4814.7"/>
	<path class="st1" d="M-2087.4-4820.8c0,4.6-3.7,8.3-8.3,8.3c-4.6,0-8.3-3.7-8.3-8.3s3.7-8.3,8.3-8.3
		C-2091.1-4829.2-2087.4-4825.4-2087.4-4820.8"/>
	<path class="st1" d="M-2110.1-4792h-256.6c-3.4,0-6.1-2.7-6.1-6.1s2.7-6.1,6.1-6.1h256.6c3.4,0,6.1,2.7,6.1,6.1
		S-2106.8-4792-2110.1-4792"/>
	<path class="st1" d="M-2087.4-4798c0,4.6-3.7,8.3-8.3,8.3c-4.6,0-8.3-3.7-8.3-8.3s3.7-8.3,8.3-8.3
		C-2091.1-4806.4-2087.4-4802.7-2087.4-4798"/>
	<path class="st1" d="M-2110.1-4769.2h-256.6c-3.4,0-6.1-2.7-6.1-6.1s2.7-6.1,6.1-6.1h256.6c3.4,0,6.1,2.7,6.1,6.1
		S-2106.8-4769.2-2110.1-4769.2"/>
	<path class="st1" d="M-2087.4-4775.3c0,4.6-3.7,8.3-8.3,8.3c-4.6,0-8.3-3.7-8.3-8.3c0-4.6,3.7-8.4,8.3-8.4
		C-2091.1-4783.6-2087.4-4779.9-2087.4-4775.3"/>
	<path class="st1" d="M-2110.1-4746.4h-256.6c-3.4,0-6.1-2.7-6.1-6.1s2.7-6.1,6.1-6.1h256.6c3.4,0,6.1,2.7,6.1,6.1
		S-2106.8-4746.4-2110.1-4746.4"/>
	<path class="st1" d="M-2087.4-4752.5c0,4.6-3.7,8.4-8.3,8.4c-4.6,0-8.3-3.7-8.3-8.4c0-4.6,3.7-8.3,8.3-8.3
		C-2091.1-4760.9-2087.4-4757.1-2087.4-4752.5"/>
	<path class="st1" d="M-2110.1-4723.7h-256.6c-3.4,0-6.1-2.7-6.1-6.1s2.7-6.1,6.1-6.1h256.6c3.4,0,6.1,2.7,6.1,6.1
		S-2106.8-4723.7-2110.1-4723.7"/>
	<path class="st1" d="M-2087.4-4729.7c0,4.6-3.7,8.3-8.3,8.3c-4.6,0-8.3-3.7-8.3-8.3c0-4.6,3.7-8.3,8.3-8.3
		C-2091.1-4738.1-2087.4-4734.3-2087.4-4729.7"/>
	<path class="st1" d="M-2110.1-4700.9h-256.6c-3.4,0-6.1-2.7-6.1-6.1c0-3.4,2.7-6.1,6.1-6.1h256.6c3.4,0,6.1,2.7,6.1,6.1
		C-2104.1-4703.6-2106.8-4700.9-2110.1-4700.9"/>
	<path class="st1" d="M-2087.4-4707c0,4.6-3.7,8.3-8.3,8.3c-4.6,0-8.3-3.7-8.3-8.3s3.7-8.3,8.3-8.3
		C-2091.1-4715.3-2087.4-4711.6-2087.4-4707"/>
	<path class="st1" d="M-2110.1-4678.1h-256.6c-3.4,0-6.1-2.7-6.1-6.1c0-3.4,2.7-6.1,6.1-6.1h256.6c3.4,0,6.1,2.7,6.1,6.1
		C-2104.1-4680.8-2106.8-4678.1-2110.1-4678.1"/>
	<path class="st1" d="M-2087.4-4684.2c0,4.6-3.7,8.3-8.3,8.3c-4.6,0-8.3-3.7-8.3-8.3c0-4.6,3.7-8.3,8.3-8.3
		C-2091.1-4692.5-2087.4-4688.8-2087.4-4684.2"/>
	<path class="st1" d="M-2110.1-4655.4h-256.6c-3.4,0-6.1-2.7-6.1-6.1s2.7-6.1,6.1-6.1h256.6c3.4,0,6.1,2.7,6.1,6.1
		S-2106.8-4655.4-2110.1-4655.4"/>
	<path class="st1" d="M-2087.4-4661.4c0,4.6-3.7,8.3-8.3,8.3c-4.6,0-8.3-3.7-8.3-8.3c0-4.6,3.7-8.3,8.3-8.3
		C-2091.1-4669.8-2087.4-4666-2087.4-4661.4"/>
	<path class="st1" d="M-2110.1-4632.6h-256.6c-3.4,0-6.1-2.7-6.1-6.1s2.7-6.1,6.1-6.1h256.6c3.4,0,6.1,2.7,6.1,6.1
		S-2106.8-4632.6-2110.1-4632.6"/>
	<path class="st1" d="M-2087.4-4638.7c0,4.6-3.7,8.3-8.3,8.3c-4.6,0-8.3-3.7-8.3-8.3c0-4.6,3.7-8.3,8.3-8.3
		C-2091.1-4647-2087.4-4643.3-2087.4-4638.7"/>
	<path class="st2" d="M-1855.3-4797.2h24.5v-18.8c0-5.4,4.4-9.7,9.7-9.7h89.6c5.4,0,9.7,4.4,9.7,9.7v189.1c0,5.4-4.4,9.7-9.7,9.7
		h-89.6c-5.4,0-9.7-4.4-9.7-9.7v-18.8h-24.5c-5.4,0-9.7-4.4-9.7-9.7v-132.1C-1865.1-4792.8-1860.7-4797.2-1855.3-4797.2z"/>
	<path class="st3" d="M-1785.4-4777.2h14.2c2,0,3.6-1.6,3.6-3.6v-14.2c0-2-1.6-3.6-3.6-3.6h-14.2c-2,0-3.6,1.6-3.6,3.6v14.2
		C-1789-4778.8-1787.4-4777.2-1785.4-4777.2z"/>
	<path class="st3" d="M-1785.4-4732.9h14.2c2,0,3.6-1.6,3.6-3.6v-14.2c0-2-1.6-3.6-3.6-3.6h-14.2c-2,0-3.6,1.6-3.6,3.6v14.2
		C-1789-4734.5-1787.4-4732.9-1785.4-4732.9z"/>
	<path class="st3" d="M-1785.4-4688.6h14.2c2,0,3.6-1.6,3.6-3.6v-14.2c0-2-1.6-3.6-3.6-3.6h-14.2c-2,0-3.6,1.6-3.6,3.6v14.2
		C-1789-4690.2-1787.4-4688.6-1785.4-4688.6z"/>
	<path class="st3" d="M-1785.4-4644.2h14.2c2,0,3.6-1.6,3.6-3.6v-14.2c0-2-1.6-3.6-3.6-3.6h-14.2c-2,0-3.6,1.6-3.6,3.6v14.2
		C-1789-4645.8-1787.4-4644.2-1785.4-4644.2z"/>
	<path class="st4" d="M-1731.8-4562.1h-625.5c-22.6,0-40.9-18.3-40.9-40.9v-261.7c0-22.6,18.3-40.9,40.9-40.9h625.5
		c22.6,0,40.9,18.3,40.9,40.9v261.7C-1690.9-4580.4-1709.2-4562.1-1731.8-4562.1z"/>
</g>
<g>
	<g>
		<path class="st5" d="M605.9,294.9H134.1c-15.6,0-28.3-12.7-28.3-28.3V133.4c0-15.6,12.7-28.3,28.3-28.3h471.8
			c15.6,0,28.3,12.7,28.3,28.3v133.2C634.2,282.2,621.5,294.9,605.9,294.9z"/>
		<path class="st1" d="M195.6,141.8l4.6,5.8c0.7,0.9,1.8,1.4,2.9,1.4h30.7c0.9,0,1.8-0.3,2.5-0.9l6.5-5.8c2.5-2.2,0.8-6.1-2.5-6.1
			h-41.8C195.5,136.2,193.8,139.5,195.6,141.8"/>
		<path class="st1" d="M185.4,144.7l-1.8,1.5c-0.8,0.7-1.2,1.6-1.3,2.5l-2.6,40.7c-0.2,3.2,3.7,5.2,6.4,3.1l4.2-3.3
			c0.8-0.6,1.3-1.5,1.4-2.4L196,151c0.2-1.3-0.4-2.5-1.4-3.3l-4.1-3.1C189,143.4,186.8,143.5,185.4,144.7"/>
		<path class="st1" d="M251.9,147.2l1.4,1.8c0.6,0.8,0.9,1.8,0.7,2.7l-5.9,40.4c-0.5,3.2-4.7,4.3-6.9,1.8l-3.4-4.1
			c-0.6-0.7-0.9-1.7-0.8-2.6l3.2-35.9c0.1-1.3,0.9-2.4,2.1-3l4.6-2.3C248.6,145.3,250.7,145.7,251.9,147.2"/>
		<path class="st1" d="M236.3,199.1l-4.4-5.8c-0.7-0.9-1.7-1.4-2.9-1.5l-30.7-0.6c-0.9,0-1.8,0.3-2.5,0.9l-6.6,5.6
			c-2.5,2.1-1,6.1,2.4,6.1l41.8,0.8C236.3,204.7,238.1,201.5,236.3,199.1"/>
		<path class="st1" d="M178.7,201.9l-1.8,1.5c-0.8,0.7-1.2,1.6-1.3,2.5l-2.6,40.7c-0.2,3.2,3.7,5.2,6.4,3.1l4.2-3.3
			c0.8-0.6,1.3-1.5,1.4-2.4l4.3-35.8c0.2-1.3-0.4-2.5-1.4-3.3l-4.1-3.1C182.3,200.6,180.2,200.7,178.7,201.9"/>
		<path class="st1" d="M245.2,204.5l1.4,1.8c0.6,0.8,0.9,1.8,0.7,2.7l-5.9,40.4c-0.5,3.2-4.7,4.3-6.9,1.8l-3.4-4.1
			c-0.6-0.7-0.9-1.7-0.8-2.6l3.2-35.9c0.1-1.3,0.9-2.4,2.1-3l4.6-2.3C242,202.5,244,203,245.2,204.5"/>
		<path class="st1" d="M229.6,256.3l-4.4-5.8c-0.7-0.9-1.7-1.4-2.9-1.5l-30.7-0.6c-0.9,0-1.8,0.3-2.5,0.9l-6.6,5.6
			c-2.5,2.1-1,6.1,2.4,6.1l41.8,0.8C229.6,262,231.4,258.7,229.6,256.3"/>
		<path class="st1" d="M299.9,143.7l4.6,5.8c0.7,0.9,1.8,1.4,2.9,1.4h30.7c0.9,0,1.8-0.3,2.5-0.9l6.5-5.8c2.5-2.2,0.8-6.1-2.5-6.1
			h-41.8C299.8,138.1,298,141.4,299.9,143.7"/>
		<path class="st1" d="M289.7,146.6l-1.8,1.5c-0.8,0.7-1.2,1.6-1.3,2.5l-2.6,40.7c-0.2,3.2,3.7,5.2,6.4,3.1l4.2-3.3
			c0.8-0.6,1.3-1.5,1.4-2.4l4.3-35.8c0.2-1.3-0.4-2.5-1.4-3.3l-4.1-3.1C293.3,145.3,291.1,145.4,289.7,146.6"/>
		<path class="st1" d="M356.1,149.1l1.4,1.8c0.6,0.8,0.9,1.8,0.7,2.7l-5.9,40.4c-0.5,3.2-4.7,4.3-6.9,1.8l-3.4-4.1
			c-0.6-0.7-0.9-1.7-0.8-2.6l3.2-35.9c0.1-1.3,0.9-2.4,2.1-3l4.6-2.3C352.9,147.2,355,147.7,356.1,149.1"/>
		<path class="st1" d="M340.6,201l-4.4-5.8c-0.7-0.9-1.7-1.4-2.9-1.5l-30.7-0.6c-0.9,0-1.8,0.3-2.5,0.9l-6.6,5.6
			c-2.5,2.1-1,6.1,2.4,6.1l41.8,0.8C340.6,206.7,342.4,203.4,340.6,201"/>
		<path class="st1" d="M283,203.8l-1.8,1.5c-0.8,0.7-1.2,1.6-1.3,2.5l-2.6,40.7c-0.2,3.2,3.7,5.2,6.4,3.1l4.2-3.3
			c0.8-0.6,1.3-1.5,1.4-2.4l4.3-35.8c0.2-1.3-0.4-2.5-1.4-3.3l-4.1-3.1C286.6,202.6,284.4,202.6,283,203.8"/>
		<path class="st1" d="M349.4,206.4l1.4,1.8c0.6,0.8,0.9,1.8,0.7,2.7l-5.9,40.4c-0.5,3.2-4.7,4.3-6.9,1.8l-3.4-4.1
			c-0.6-0.7-0.9-1.7-0.8-2.6l3.2-35.9c0.1-1.3,0.9-2.4,2.1-3l4.6-2.3C346.2,204.5,348.3,204.9,349.4,206.4"/>
		<path class="st1" d="M333.9,258.3l-4.4-5.8c-0.7-0.9-1.7-1.4-2.9-1.5l-30.7-0.6c-0.9,0-1.8,0.3-2.5,0.9l-6.6,5.6
			c-2.5,2.1-1,6.1,2.4,6.1l41.8,0.8C333.9,263.9,335.7,260.6,333.9,258.3"/>
		<path class="st1" d="M405.1,143.7l4.6,5.8c0.7,0.9,1.8,1.4,2.9,1.4h30.7c0.9,0,1.8-0.3,2.5-0.9l6.5-5.8c2.5-2.2,0.8-6.1-2.5-6.1
			H408C405,138.1,403.3,141.4,405.1,143.7"/>
		<path class="st1" d="M394.9,146.6l-1.8,1.5c-0.8,0.7-1.2,1.6-1.3,2.5l-2.6,40.7c-0.2,3.2,3.7,5.2,6.4,3.1l4.2-3.3
			c0.8-0.6,1.3-1.5,1.4-2.4l4.3-35.8c0.2-1.3-0.4-2.5-1.4-3.3l-4.1-3.1C398.5,145.3,396.3,145.4,394.9,146.6"/>
		<path class="st1" d="M461.3,149.1l1.4,1.8c0.6,0.8,0.9,1.8,0.7,2.7l-5.9,40.4c-0.5,3.2-4.7,4.3-6.9,1.8l-3.4-4.1
			c-0.6-0.7-0.9-1.7-0.8-2.6l3.2-35.9c0.1-1.3,0.9-2.4,2.1-3l4.6-2.3C458.1,147.2,460.2,147.7,461.3,149.1"/>
		<path class="st1" d="M445.8,201l-4.4-5.8c-0.7-0.9-1.7-1.4-2.9-1.5l-30.7-0.6c-0.9,0-1.8,0.3-2.5,0.9l-6.6,5.6
			c-2.5,2.1-1,6.1,2.4,6.1l41.8,0.8C445.8,206.7,447.6,203.4,445.8,201"/>
		<path class="st1" d="M388.2,203.8l-1.8,1.5c-0.8,0.7-1.2,1.6-1.3,2.5l-2.6,40.7c-0.2,3.2,3.7,5.2,6.4,3.1l4.2-3.3
			c0.8-0.6,1.3-1.5,1.4-2.4l4.3-35.8c0.2-1.3-0.4-2.5-1.4-3.3l-4.1-3.1C391.8,202.6,389.6,202.6,388.2,203.8"/>
		<path class="st1" d="M454.7,206.4l1.4,1.8c0.6,0.8,0.9,1.8,0.7,2.7l-5.9,40.4c-0.5,3.2-4.7,4.3-6.9,1.8l-3.4-4.1
			c-0.6-0.7-0.9-1.7-0.8-2.6l3.2-35.9c0.1-1.3,0.9-2.4,2.1-3l4.6-2.3C451.4,204.5,453.5,204.9,454.7,206.4"/>
		<path class="st1" d="M439.1,258.3l-4.4-5.8c-0.7-0.9-1.7-1.4-2.9-1.5l-30.7-0.6c-0.9,0-1.8,0.3-2.5,0.9l-6.6,5.6
			c-2.5,2.1-1,6.1,2.4,6.1l41.8,0.8C439.1,263.9,440.9,260.6,439.1,258.3"/>
		<path class="st1" d="M508.5,143.7l4.6,5.8c0.7,0.9,1.8,1.4,2.9,1.4h30.7c0.9,0,1.8-0.3,2.5-0.9l6.5-5.8c2.5-2.2,0.8-6.1-2.5-6.1
			h-41.8C508.4,138.1,506.6,141.4,508.5,143.7"/>
		<path class="st1" d="M498.3,146.6l-1.8,1.5c-0.8,0.7-1.2,1.6-1.3,2.5l-2.6,40.7c-0.2,3.2,3.7,5.2,6.4,3.1l4.2-3.3
			c0.8-0.6,1.3-1.5,1.4-2.4l4.3-35.8c0.2-1.3-0.4-2.5-1.4-3.3l-4.1-3.1C501.9,145.3,499.7,145.4,498.3,146.6"/>
		<path class="st1" d="M564.7,149.1l1.4,1.8c0.6,0.8,0.9,1.8,0.7,2.7l-5.9,40.4c-0.5,3.2-4.7,4.3-6.9,1.8l-3.4-4.1
			c-0.6-0.7-0.9-1.7-0.8-2.6l3.2-35.9c0.1-1.3,0.9-2.4,2.1-3l4.6-2.3C561.5,147.2,563.6,147.7,564.7,149.1"/>
		<path class="st1" d="M549.2,201l-4.4-5.8c-0.7-0.9-1.7-1.4-2.9-1.5l-30.7-0.6c-0.9,0-1.8,0.3-2.5,0.9l-6.6,5.6
			c-2.5,2.1-1,6.1,2.4,6.1l41.8,0.8C549.2,206.7,551,203.4,549.2,201"/>
		<path class="st1" d="M491.6,203.8l-1.8,1.5c-0.8,0.7-1.2,1.6-1.3,2.5l-2.6,40.7c-0.2,3.2,3.7,5.2,6.4,3.1l4.2-3.3
			c0.8-0.6,1.3-1.5,1.4-2.4l4.3-35.8c0.2-1.3-0.4-2.5-1.4-3.3l-4.1-3.1C495.2,202.6,493,202.6,491.6,203.8"/>
		<path class="st1" d="M558,206.4l1.4,1.8c0.6,0.8,0.9,1.8,0.7,2.7l-5.9,40.4c-0.5,3.2-4.7,4.3-6.9,1.8l-3.4-4.1
			c-0.6-0.7-0.9-1.7-0.8-2.6l3.2-35.9c0.1-1.3,0.9-2.4,2.1-3l4.6-2.3C554.8,204.5,556.9,204.9,558,206.4"/>
		<path class="st1" d="M542.5,258.3l-4.4-5.8c-0.7-0.9-1.7-1.4-2.9-1.5l-30.7-0.6c-0.9,0-1.8,0.3-2.5,0.9l-6.6,5.6
			c-2.5,2.1-1,6.1,2.4,6.1l41.8,0.8C542.5,263.9,544.3,260.6,542.5,258.3"/>
		<path class="st1" d="M380.4,172.4c0,4.2-3.5,7.5-7.9,7.5c-4.3,0-7.9-3.4-7.9-7.5c0-4.2,3.5-7.5,7.9-7.5
			C376.9,164.8,380.4,168.2,380.4,172.4"/>
		<path class="st1" d="M375.9,225.8c0,4.2-3.5,7.5-7.9,7.5c-4.3,0-7.9-3.4-7.9-7.5c0-4.2,3.5-7.5,7.9-7.5
			C372.3,218.3,375.9,221.7,375.9,225.8"/>
	</g>
	<path class="st4" d="M682.7,371.7H57.3c-22.6,0-40.9-18.3-40.9-40.9V69.1c0-22.6,18.3-40.9,40.9-40.9h625.5
		c22.6,0,40.9,18.3,40.9,40.9v261.7C723.6,353.4,705.3,371.7,682.7,371.7z"/>
</g>
</svg>
