<?xml version="1.0" encoding="utf-8"?>
<!-- Generator: Adobe Illustrator 22.0.0, SVG Export Plug-In . SVG Version: 6.00 Build 0)  -->
<svg version="1.1" id="图层_1" xmlns="http://www.w3.org/2000/svg" xmlns:xlink="http://www.w3.org/1999/xlink" x="0px" y="0px"
	 viewBox="0 0 480 400" style="enable-background:new 0 0 480 400;" xml:space="preserve">
<style type="text/css">
	.st0{fill:none;stroke:#FFFFFF;stroke-width:18.563;stroke-miterlimit:10;}
	.st1{fill:none;stroke:#FFFFFF;stroke-width:14.5794;stroke-miterlimit:10;}
	.st2{fill:none;stroke:#FFFFFF;stroke-width:5.4335;stroke-miterlimit:10;}
	.st3{opacity:0.8;}
	.st4{clip-path:url(#SVGID_2_);fill:#FFFFFF;}
	.st5{fill:none;stroke:#FFFFFF;stroke-width:3.57;stroke-miterlimit:10;}
	
		.st6{clip-path:url(#SVGID_4_);fill:none;stroke:#FFFFFF;stroke-width:3.57;stroke-linecap:round;stroke-linejoin:round;stroke-miterlimit:10;}
	
		.st7{clip-path:url(#SVGID_6_);fill:none;stroke:#FFFFFF;stroke-width:3.57;stroke-linecap:round;stroke-linejoin:round;stroke-miterlimit:10;}
	
		.st8{clip-path:url(#SVGID_8_);fill:none;stroke:#FFFFFF;stroke-width:3.57;stroke-linecap:round;stroke-linejoin:round;stroke-miterlimit:10;}
	.st9{opacity:0.6;}
	.st10{clip-path:url(#SVGID_10_);fill:#FFFFFF;}
	.st11{fill:#FFFFFF;}
	.st12{clip-path:url(#SVGID_12_);fill:none;stroke:#FFFFFF;stroke-width:4.1041;stroke-miterlimit:10;}
	.st13{clip-path:url(#SVGID_14_);fill:none;stroke:#FFFFFF;stroke-width:4.0052;stroke-miterlimit:10;}
	
		.st14{clip-path:url(#SVGID_16_);fill:none;stroke:#FFFFFF;stroke-width:5.902;stroke-linecap:round;stroke-linejoin:round;stroke-miterlimit:10;}
</style>
<g>
	<path class="st0" d="M410.2,376.9H69.8c-27.7,0-50.2-22.5-50.2-50.2V73.3c0-27.7,22.5-50.2,50.2-50.2h340.5
		c27.7,0,50.2,22.5,50.2,50.2v253.5C460.4,354.5,437.9,376.9,410.2,376.9z"/>
	<g>
		<path class="st1" d="M446.2,312.2l-23-0.2l-0.1,19.1c0,5.5-4.2,9.9-9.2,9.9l-84-0.6c-5,0-9.1-4.5-9.1-10l1.3-192.8
			c0-5.5,4.2-9.9,9.2-9.9l84,0.6c5,0,9.1,4.5,9.1,10l-0.1,19.1l23,0.2c5,0,9.1,4.5,9.1,10l-0.9,134.7
			C455.4,307.9,451.3,312.3,446.2,312.2z"/>
		<path class="st2" d="M380.1,291.5l-12-0.1c-2.2,0-4,1.8-4,4l-0.1,13.8c0,2.2,1.8,4,4,4l12,0.1c2.2,0,4-1.8,4-4l0.1-13.8
			C384.1,293.3,382.3,291.5,380.1,291.5z"/>
		<path class="st2" d="M380.4,246.3l-12-0.1c-2.2,0-4,1.8-4,4l-0.1,13.8c0,2.2,1.8,4,4,4l12,0.1c2.2,0,4-1.8,4-4l0.1-13.8
			C384.4,248.1,382.6,246.3,380.4,246.3z"/>
		<path class="st2" d="M380.7,201l-12-0.1c-2.2,0-4,1.8-4,4l-0.1,13.8c0,2.2,1.8,4,4,4l12,0.1c2.2,0,4-1.8,4-4l0.1-13.8
			C384.7,202.9,382.9,201.1,380.7,201z"/>
		<path class="st2" d="M381,155.8l-12-0.1c-2.2,0-4,1.8-4,4l-0.1,13.8c0,2.2,1.8,4,4,4l12,0.1c2.2,0,4-1.8,4-4l0.1-13.8
			C385,157.6,383.2,155.8,381,155.8z"/>
		<g class="st3">
			<g>
				<defs>
					<rect id="SVGID_1_" x="37.4" y="131.6" width="186.6" height="193.8"/>
				</defs>
				<clipPath id="SVGID_2_">
					<use xlink:href="#SVGID_1_"  style="overflow:visible;"/>
				</clipPath>
				<path class="st4" d="M196.4,325.4H65c-15.2,0-27.6-12.4-27.6-27.6V159.2c0-15.2,12.4-27.6,27.6-27.6h131.4
					c15.2,0,27.6,12.4,27.6,27.6v138.6C224,313.1,211.6,325.4,196.4,325.4"/>
			</g>
		</g>
		
			<ellipse transform="matrix(0.2298 -0.9732 0.9732 0.2298 -258.5915 323.5966)" class="st5" cx="75.1" cy="325.2" rx="16.2" ry="16.2"/>
		<path class="st5" d="M209.9,325.4c0,9-7.3,16.2-16.2,16.2c-9,0-16.2-7.3-16.2-16.2s7.3-16.2,16.2-16.2
			C202.6,309.2,209.9,316.5,209.9,325.4z"/>
		<g class="st3">
			<g>
				<defs>
					<rect id="SVGID_3_" x="37.6" y="311.3" width="19.2" height="31.1"/>
				</defs>
				<clipPath id="SVGID_4_">
					<use xlink:href="#SVGID_3_"  style="overflow:visible;"/>
				</clipPath>
				<polyline class="st6" points="40,313.7 40,339.9 54.3,339.9 				"/>
			</g>
		</g>
		<g class="st3">
			<g>
				<defs>
					<rect id="SVGID_5_" x="96.7" y="337.5" width="78.9" height="4.9"/>
				</defs>
				<clipPath id="SVGID_6_">
					<use xlink:href="#SVGID_5_"  style="overflow:visible;"/>
				</clipPath>
				<line class="st7" x1="99.2" y1="339.9" x2="173.1" y2="339.9"/>
			</g>
		</g>
		<g class="st3">
			<g>
				<defs>
					<rect id="SVGID_7_" x="207.4" y="134.8" width="26.5" height="207.5"/>
				</defs>
				<clipPath id="SVGID_8_">
					<use xlink:href="#SVGID_7_"  style="overflow:visible;"/>
				</clipPath>
				<polyline class="st8" points="216.4,339.9 231.4,339.9 230.1,137.3 209.9,137.3 				"/>
			</g>
		</g>
		<path class="st5" d="M435.4,93.4h-52.7c-4.8,0-8.7-3.9-8.7-8.7v-16c0-4.8,3.9-8.7,8.7-8.7h52.7c4.8,0,8.7,3.9,8.7,8.7v16
			C444.1,89.5,440.2,93.4,435.4,93.4z"/>
		<g class="st9">
			<g>
				<defs>
					<rect id="SVGID_9_" x="380.3" y="65.2" width="55" height="22.2"/>
				</defs>
				<clipPath id="SVGID_10_">
					<use xlink:href="#SVGID_9_"  style="overflow:visible;"/>
				</clipPath>
				<path class="st10" d="M429.7,87.3H386c-3.2,0-5.7-2.6-5.7-5.7V70.9c0-3.2,2.6-5.7,5.7-5.7h43.6c3.2,0,5.7,2.6,5.7,5.7v10.8
					C435.4,84.8,432.8,87.3,429.7,87.3"/>
			</g>
		</g>
		<path class="st11" d="M417.9,87.3h-20.7c-1.9,0-3.5-1.6-3.5-3.5V68.6c0-1.9,1.6-3.5,3.5-3.5h20.7c1.9,0,3.5,1.6,3.5,3.5v15.2
			C421.4,85.8,419.9,87.3,417.9,87.3"/>
		<g class="st9">
			<g>
				<defs>
					<rect id="SVGID_11_" x="52.4" y="57.6" width="322.5" height="81.9"/>
				</defs>
				<clipPath id="SVGID_12_">
					<use xlink:href="#SVGID_11_"  style="overflow:visible;"/>
				</clipPath>
				<path class="st12" d="M374.9,62.8l-223.8-2.4c-3.8,0-7.5,1.2-10,3.3l-86.8,73.5"/>
			</g>
		</g>
		<g class="st9">
			<g>
				<defs>
					<rect id="SVGID_13_" x="93.7" y="83.5" width="281.2" height="52.3"/>
				</defs>
				<clipPath id="SVGID_14_">
					<use xlink:href="#SVGID_13_"  style="overflow:visible;"/>
				</clipPath>
				<path class="st13" d="M374.9,88.7l-213.2-2.4c-3.6,0-7.1,1.2-9.5,3.3l-56.8,44.1"/>
			</g>
		</g>
		<g class="st3">
			<g>
				<defs>
					<rect id="SVGID_15_" x="65.5" y="169.1" width="130.3" height="118.8"/>
				</defs>
				<clipPath id="SVGID_16_">
					<use xlink:href="#SVGID_15_"  style="overflow:visible;"/>
				</clipPath>
				<ellipse class="st14" cx="130.7" cy="228.5" rx="61.1" ry="55.3"/>
			</g>
		</g>
		<path class="st11" d="M166.1,228.5c0,19.6-15.9,35.4-35.4,35.4c-19.6,0-35.4-15.9-35.4-35.4c0-19.6,15.9-35.4,35.4-35.4
			C150.2,193.1,166.1,209,166.1,228.5"/>
	</g>
</g>
</svg>
