<?xml version="1.0" encoding="utf-8"?>
<!-- Generator: Adobe Illustrator 22.0.0, SVG Export Plug-In . SVG Version: 6.00 Build 0)  -->
<svg version="1.1" id="图层_1" xmlns="http://www.w3.org/2000/svg" xmlns:xlink="http://www.w3.org/1999/xlink" x="0px" y="0px"
	 viewBox="0 0 480 400" style="enable-background:new 0 0 480 400;" xml:space="preserve">
<style type="text/css">
	.st0{fill:none;stroke:#FFFFFF;stroke-width:18.563;stroke-miterlimit:10;}
	.st1{fill:none;stroke:#FFFFFF;stroke-width:11.3686;stroke-miterlimit:10;}
	.st2{fill:none;stroke:#FFFFFF;stroke-width:4.2372;stroke-miterlimit:10;}
	.st3{fill:#FFFFFF;}
	.st4{fill:none;stroke:#FFFFFF;stroke-width:3.1614;stroke-miterlimit:10;}
	.st5{fill:none;stroke:#FFFFFF;stroke-width:1.0826;stroke-miterlimit:10;}
	.st6{fill:none;stroke:#FFFFFF;stroke-width:1.2828;stroke-miterlimit:10;}
	.st7{opacity:0.6;fill:#FFFFFF;}
	.st8{fill:none;stroke:#FFFFFF;stroke-width:2.5657;stroke-miterlimit:10;}
</style>
<g>
	<path class="st0" d="M410.2,376.9H69.8c-27.7,0-50.2-22.5-50.2-50.2V73.3c0-27.7,22.5-50.2,50.2-50.2h340.5
		c27.7,0,50.2,22.5,50.2,50.2v253.5C460.4,354.5,437.9,376.9,410.2,376.9z"/>
	<g>
		<g>
			<path class="st1" d="M187.7,144.2l-0.2-16.7l-13.9,0.2c-4,0-7.2-2.9-7.3-6.6l-0.7-61.1c0-3.7,3.2-6.7,7.1-6.7L313,51.6
				c4,0,7.2,2.9,7.3,6.6l0.7,61.1c0,3.7-3.2,6.7-7.1,6.7l-13.9,0.2l0.2,16.7c0,3.7-3.2,6.7-7.1,6.7l-98,1.1
				C191,150.8,187.7,147.9,187.7,144.2z"/>
			<path class="st2" d="M201.9,94.8l-0.1-6.7c0-2.2-1.8-3.9-4-3.9l-8,0.1c-2.2,0-3.9,1.8-3.9,4l0.1,6.7c0,2.2,1.8,3.9,4,3.9l8-0.1
				C200.2,98.7,202,97,201.9,94.8z"/>
			<path class="st2" d="M234.8,94.4l-0.1-6.7c0-2.2-1.8-3.9-4-3.9l-8,0.1c-2.2,0-3.9,1.8-3.9,4l0.1,6.7c0,2.2,1.8,3.9,4,3.9l8-0.1
				C233.1,98.4,234.9,96.6,234.8,94.4z"/>
			<path class="st2" d="M267.7,94.1l-0.1-6.7c0-2.2-1.8-3.9-4-3.9l-8,0.1c-2.2,0-3.9,1.8-3.9,4l0.1,6.7c0,2.2,1.8,3.9,4,3.9l8-0.1
				C266,98,267.8,96.2,267.7,94.1z"/>
			<path class="st2" d="M300.6,93.7l-0.1-6.7c0-2.2-1.8-3.9-4-3.9l-8,0.1c-2.2,0-3.9,1.8-3.9,4l0.1,6.7c0,2.2,1.8,3.9,4,3.9l8-0.1
				C298.9,97.6,300.7,95.9,300.6,93.7z"/>
		</g>
		<g>
			<g>
				<path class="st3" d="M102.5,130.6l3.3,0c4.3,0,7.8,3.6,7.7,7.9l-0.3,29.9c0,4.3-3.6,7.8-7.9,7.7l-3.3,0c-4.3,0-7.8-3.6-7.7-7.9
					l0.3-29.9C94.7,134,98.2,130.6,102.5,130.6z"/>
				<path class="st3" d="M80.4,162.4l11.4,0.1c0.8,0,1.5,0.7,1.5,1.5l-0.1,11.4c0,0.8-0.7,1.5-1.5,1.5l-11.4-0.1
					c-0.8,0-1.5-0.7-1.5-1.5l0.1-11.4C78.9,163.1,79.6,162.4,80.4,162.4z"/>
				<path class="st3" d="M84.3,132.7l7.7,0.1c0.8,0,1.5,0.7,1.5,1.5l-0.1,11.4c0,0.8-0.7,1.5-1.5,1.5L80.5,147
					c-0.8,0-1.5-0.7-1.5-1.5l0.1-7.7C79.2,135,81.5,132.7,84.3,132.7z"/>
				
					<rect x="114.3" y="144.8" transform="matrix(9.113769e-03 -1 1 9.113769e-03 -31.5888 275.2169)" class="st3" width="17.5" height="17.5"/>
			</g>
			<rect x="82.6" y="101.8" class="st4" width="47.9" height="23.7"/>
			<path class="st5" d="M129.8,110.8l0.1,5c0,2.2-1.7,4-4,4.1l-38.4,0.6c-2.2,0-4-1.7-4.1-4l-0.1-5c0-2.2,1.7-4,4-4.1l38.4-0.6
				C127.9,106.8,129.7,108.5,129.8,110.8z"/>
			<path class="st3" d="M123,110.9l0.1,5c0,2.2-1.7,4-4,4.1l-24.9,0.4c-2.2,0-4-1.7-4.1-4l-0.1-5c0-2.2,1.7-4,4-4.1l24.9-0.4
				C121.1,106.9,123,108.6,123,110.9z"/>
		</g>
		<circle class="st6" cx="248.8" cy="254" r="93.5"/>
		<path class="st7" d="M248.8,159.7c-52.1,0-94.3,42.2-94.3,94.3s42.2,94.3,94.3,94.3c52.1,0,94.3-42.2,94.3-94.3
			S300.9,159.7,248.8,159.7z M246.8,277.1c-12.1,0-21.9-9.8-21.9-21.9s9.8-21.9,21.9-21.9c12.1,0,21.9,9.8,21.9,21.9
			S258.9,277.1,246.8,277.1z"/>
		<g>
			<path class="st7" d="M305.5,241.8c-11.4,0-20.7,9.2-20.7,20.7s9.2,20.7,20.7,20.7c11.4,0,20.7-9.2,20.7-20.7
				S317,241.8,305.5,241.8z M318.9,265.3h-10.6v10.6c0,1.5-1.2,2.8-2.8,2.8c-1.5,0-2.8-1.2-2.8-2.8v-10.6h-10.6
				c-1.5,0-2.8-1.2-2.8-2.8s1.2-2.8,2.8-2.8h10.6v-10.6c0-1.5,1.2-2.8,2.8-2.8c1.5,0,2.8,1.2,2.8,2.8v10.6h10.6
				c1.5,0,2.8,1.2,2.8,2.8S320.4,265.3,318.9,265.3z"/>
			<circle class="st8" cx="305.5" cy="262.5" r="20.7"/>
		</g>
		<g>
			<path class="st3" d="M379.3,288.5v-34.3c0-1.3,1.1-2.4,2.4-2.4l0,0c1.3,0,2.4,1.1,2.4,2.4v34.3c0,1.3-1.1,2.4-2.4,2.4l0,0
				C380.3,290.9,379.3,289.8,379.3,288.5z"/>
			<path class="st3" d="M364.5,269h34.3c1.3,0,2.4,1.1,2.4,2.4l0,0c0,1.3-1.1,2.4-2.4,2.4h-34.3c-1.3,0-2.4-1.1-2.4-2.4l0,0
				C362.1,270,363.2,269,364.5,269z"/>
		</g>
	</g>
</g>
</svg>
