<?xml version="1.0" encoding="utf-8"?>
<!-- Generator: Adobe Illustrator 22.0.0, SVG Export Plug-In . SVG Version: 6.00 Build 0)  -->
<svg version="1.1" id="图层_1" xmlns="http://www.w3.org/2000/svg" xmlns:xlink="http://www.w3.org/1999/xlink" x="0px" y="0px"
	 viewBox="0 0 480 400" style="enable-background:new 0 0 480 400;" xml:space="preserve">
<style type="text/css">
	.st0{fill:none;stroke:#FFFFFF;stroke-width:18.563;stroke-miterlimit:10;}
	.st1{opacity:0.4;fill:#FFFFFF;}
	.st2{fill:none;stroke:#FFFFFF;stroke-width:8.0116;stroke-miterlimit:10;}
	.st3{fill:none;stroke:#FFFFFF;stroke-width:0.5905;stroke-miterlimit:10;}
	.st4{fill:#FFFFFF;}
	.st5{opacity:0.8;}
	.st6{fill:none;stroke:#FFFFFF;stroke-width:1.0155;stroke-miterlimit:10;}
</style>
<g>
	<path class="st0" d="M410.2,372.4H69.8c-27.7,0-50.2-22.5-50.2-50.2V68.8c0-27.7,22.5-50.2,50.2-50.2h340.5
		c27.7,0,50.2,22.5,50.2,50.2v253.5C460.4,350,437.9,372.4,410.2,372.4z"/>
	<g>
		<path class="st1" d="M240,73.6c-67.3,0-121.9,54.6-121.9,121.9S172.7,317.4,240,317.4c67.3,0,121.9-54.6,121.9-121.9
			S307.3,73.6,240,73.6z M240.7,115c3.9,0,7.1,3.2,7.1,7.1c0,3.9-3.2,7.1-7.1,7.1s-7.1-3.2-7.1-7.1C233.6,118.2,236.8,115,240.7,115
			z M166.6,202.6c-3.9,0-7.1-3.2-7.1-7.1c0-3.9,3.2-7.1,7.1-7.1s7.1,3.2,7.1,7.1C173.7,199.4,170.5,202.6,166.6,202.6z M240,276
			c-3.9,0-7.1-3.2-7.1-7.1s3.2-7.1,7.1-7.1s7.1,3.2,7.1,7.1S243.9,276,240,276z M297.1,247c0,3-2.5,5.5-5.5,5.5H188.5
			c-3,0-5.5-2.5-5.5-5.5V144c0-3,2.5-5.5,5.5-5.5h103.1c3,0,5.5,2.5,5.5,5.5V247z M313.4,202.6c-3.9,0-7.1-3.2-7.1-7.1
			c0-3.9,3.2-7.1,7.1-7.1s7.1,3.2,7.1,7.1C320.5,199.4,317.3,202.6,313.4,202.6z"/>
		<path class="st2" d="M240,73.6c-67.3,0-121.9,54.6-121.9,121.9S172.7,317.4,240,317.4c67.3,0,121.9-54.6,121.9-121.9
			S307.3,73.6,240,73.6z M240.7,115c3.9,0,7.1,3.2,7.1,7.1c0,3.9-3.2,7.1-7.1,7.1s-7.1-3.2-7.1-7.1C233.6,118.2,236.8,115,240.7,115
			z M166.6,202.6c-3.9,0-7.1-3.2-7.1-7.1c0-3.9,3.2-7.1,7.1-7.1s7.1,3.2,7.1,7.1C173.7,199.4,170.5,202.6,166.6,202.6z M240,276
			c-3.9,0-7.1-3.2-7.1-7.1s3.2-7.1,7.1-7.1s7.1,3.2,7.1,7.1S243.9,276,240,276z M297.1,247c0,3-2.5,5.5-5.5,5.5H188.5
			c-3,0-5.5-2.5-5.5-5.5V144c0-3,2.5-5.5,5.5-5.5h103.1c3,0,5.5,2.5,5.5,5.5V247z M313.4,202.6c-3.9,0-7.1-3.2-7.1-7.1
			c0-3.9,3.2-7.1,7.1-7.1s7.1,3.2,7.1,7.1C320.5,199.4,317.3,202.6,313.4,202.6z"/>
		<g>
			<g>
				<path class="st3" d="M238.4,104.2L238.4,104.2c-1.2,0-2.2-1-2.2-2.2V90.6c0-1.2,1-2.2,2.2-2.2h0c1.2,0,2.2,1,2.2,2.2V102
					C240.6,103.2,239.6,104.2,238.4,104.2z"/>
				<path class="st4" d="M238.4,101.9L238.4,101.9c-1.2,0-2.2-1-2.2-2.2v-6.8c0-1.2,1-2.2,2.2-2.2h0c1.2,0,2.2,1,2.2,2.2v6.8
					C240.6,100.9,239.6,101.9,238.4,101.9z"/>
				<g class="st5">
					<path class="st4" d="M239.2,102.5c0-0.4-0.3-0.8-0.8-0.8s-0.8,0.3-0.8,0.8c0,0.3,0.2,0.5,0.4,0.7l-0.3,1l1.5,0l-0.4-0.9
						C239,103.1,239.2,102.8,239.2,102.5z"/>
					<path class="st4" d="M239.1,90c0,0.4-0.3,0.8-0.8,0.8c-0.4,0-0.8-0.3-0.8-0.8c0-0.3,0.1-0.5,0.4-0.7l-0.3-1l1.5,0l-0.4,0.9
						C238.9,89.4,239.1,89.7,239.1,90z"/>
				</g>
			</g>
			<g>
				<path class="st3" d="M214.8,107.7L214.8,107.7c-1.2,0.3-2.4-0.4-2.7-1.6l-2.9-11c-0.3-1.2,0.4-2.4,1.6-2.7v0
					c1.2-0.3,2.4,0.4,2.7,1.6l2.9,11C216.7,106.2,216,107.4,214.8,107.7z"/>
				<path class="st4" d="M214.2,105.5L214.2,105.5c-1.2,0.3-2.4-0.4-2.7-1.6l-1.8-6.6c-0.3-1.2,0.4-2.4,1.6-2.7l0,0
					c1.2-0.3,2.4,0.4,2.7,1.6l1.8,6.6C216.1,104,215.4,105.2,214.2,105.5z"/>
				<g class="st5">
					<path class="st4" d="M215.2,105.9c-0.1-0.4-0.5-0.7-0.9-0.5c-0.4,0.1-0.7,0.5-0.5,0.9c0.1,0.3,0.3,0.5,0.5,0.5l-0.1,1.1
						l1.4-0.4l-0.7-0.8C215.2,106.5,215.3,106.2,215.2,105.9z"/>
					<path class="st4" d="M211.8,93.9c0.1,0.4-0.1,0.8-0.5,1c-0.4,0.1-0.8-0.1-1-0.5c-0.1-0.3,0-0.5,0.2-0.7l-0.6-0.9l1.4-0.3
						l-0.2,1C211.5,93.3,211.7,93.5,211.8,93.9z"/>
				</g>
			</g>
			<g>
				<path class="st3" d="M193,117.2L193,117.2c-1.1,0.6-2.4,0.2-3-0.8l-5.7-9.9c-0.6-1.1-0.2-2.4,0.8-3l0,0c1.1-0.6,2.4-0.2,3,0.8
					l5.7,9.9C194.4,115.2,194,116.6,193,117.2z"/>
				<path class="st4" d="M191.8,115.2L191.8,115.2c-1.1,0.6-2.4,0.2-3-0.8l-3.4-5.9c-0.6-1.1-0.2-2.4,0.8-3l0,0
					c1.1-0.6,2.4-0.2,3,0.8l3.4,5.9C193.2,113.3,192.9,114.6,191.8,115.2z"/>
				<g class="st5">
					<path class="st4" d="M192.8,115.3c-0.2-0.4-0.7-0.5-1.1-0.3s-0.5,0.7-0.3,1.1c0.1,0.2,0.4,0.4,0.7,0.4l0.2,1l1.2-0.8l-0.8-0.6
						C193,116,193,115.6,192.8,115.3z"/>
					<path class="st4" d="M186.5,104.6c0.2,0.4,0.1,0.8-0.3,1.1c-0.4,0.2-0.8,0.1-1.1-0.3c-0.1-0.2-0.1-0.5,0-0.8l-0.8-0.7l1.3-0.7
						l0.1,1C186,104.2,186.3,104.3,186.5,104.6z"/>
				</g>
			</g>
			<g>
				<path class="st3" d="M174.3,132.1L174.3,132.1c-0.9,0.9-2.3,0.9-3.1,0l-8.1-8.1c-0.9-0.9-0.9-2.3,0-3.1l0,0
					c0.9-0.9,2.3-0.9,3.1,0l8.1,8.1C175.2,129.8,175.2,131.2,174.3,132.1z"/>
				<path class="st4" d="M172.7,130.4L172.7,130.4c-0.9,0.9-2.3,0.9-3.1,0l-4.8-4.8c-0.9-0.9-0.9-2.3,0-3.1l0,0
					c0.9-0.9,2.3-0.9,3.1,0l4.8,4.8C173.5,128.2,173.5,129.6,172.7,130.4z"/>
				<g class="st5">
					<path class="st4" d="M173.7,130.3c-0.3-0.3-0.8-0.3-1.1,0s-0.3,0.8,0,1.1c0.2,0.2,0.5,0.3,0.7,0.2l0.5,1l1-1.1l-1-0.3
						C174,130.8,173.9,130.5,173.7,130.3z"/>
					<path class="st4" d="M164.8,121.6c0.3,0.3,0.3,0.8,0,1.1c-0.3,0.3-0.8,0.3-1.1,0c-0.2-0.2-0.3-0.5-0.2-0.7l-1-0.5l1-1l0.3,1
						C164.2,121.3,164.5,121.3,164.8,121.6z"/>
				</g>
			</g>
			<g>
				<path class="st3" d="M160.1,151.2L160.1,151.2c-0.6,1.1-2,1.4-3,0.8l-9.9-5.7c-1.1-0.6-1.4-2-0.8-3l0,0c0.6-1.1,2-1.4,3-0.8
					l9.9,5.7C160.4,148.8,160.7,150.2,160.1,151.2z"/>
				<path class="st4" d="M158.1,150.1L158.1,150.1c-0.6,1.1-2,1.4-3,0.8l-5.9-3.4c-1.1-0.6-1.4-2-0.8-3v0c0.6-1.1,2-1.4,3-0.8
					l5.9,3.4C158.4,147.7,158.7,149,158.1,150.1z"/>
				<g class="st5">
					<path class="st4" d="M159.1,149.7c-0.4-0.2-0.8-0.1-1.1,0.3c-0.2,0.4-0.1,0.8,0.3,1.1c0.2,0.1,0.5,0.1,0.8,0l0.7,0.8l0.7-1.3
						l-1-0.1C159.5,150.1,159.4,149.8,159.1,149.7z"/>
					<path class="st4" d="M148.2,143.5c0.4,0.2,0.5,0.7,0.3,1.1c-0.2,0.4-0.7,0.5-1.1,0.3c-0.2-0.1-0.4-0.4-0.4-0.7L146,144l0.8-1.2
						l0.6,0.8C147.6,143.4,147.9,143.4,148.2,143.5z"/>
				</g>
			</g>
			<g>
				<path class="st3" d="M151.4,173.4L151.4,173.4c-0.3,1.2-1.5,1.9-2.7,1.6l-11-2.9c-1.2-0.3-1.9-1.5-1.6-2.7l0,0
					c0.3-1.2,1.5-1.9,2.7-1.6l11,2.9C151,171,151.7,172.2,151.4,173.4z"/>
				<path class="st4" d="M149.2,172.8L149.2,172.8c-0.3,1.2-1.5,1.9-2.7,1.6l-6.6-1.8c-1.2-0.3-1.9-1.5-1.6-2.7l0,0
					c0.3-1.2,1.5-1.9,2.7-1.6l6.6,1.8C148.8,170.4,149.5,171.6,149.2,172.8z"/>
				<g class="st5">
					<path class="st4" d="M150,172.2c-0.4-0.1-0.8,0.1-0.9,0.5c-0.1,0.4,0.1,0.8,0.5,0.9c0.3,0.1,0.5,0,0.7-0.2l0.9,0.6l0.3-1.4
						l-1,0.2C150.5,172.5,150.3,172.2,150,172.2z"/>
					<path class="st4" d="M137.9,169.1c0.4,0.1,0.7,0.5,0.6,0.9c-0.1,0.4-0.5,0.7-0.9,0.6c-0.3-0.1-0.5-0.3-0.5-0.5l-1.1,0.1
						l0.4-1.4l0.8,0.7C137.3,169.1,137.6,169,137.9,169.1z"/>
				</g>
			</g>
			<g>
				<path class="st3" d="M148.7,197.1L148.7,197.1c0,1.2-1,2.2-2.2,2.2h-11.4c-1.2,0-2.2-1-2.2-2.2l0,0c0-1.2,1-2.2,2.2-2.2h11.4
					C147.7,194.9,148.7,195.9,148.7,197.1z"/>
				<path class="st4" d="M146.4,197.1L146.4,197.1c0,1.2-1,2.2-2.2,2.2h-6.8c-1.2,0-2.2-1-2.2-2.2l0,0c0-1.2,1-2.2,2.2-2.2h6.8
					C145.4,194.9,146.4,195.9,146.4,197.1z"/>
				<g class="st5">
					<path class="st4" d="M147,196.3c-0.4,0-0.8,0.3-0.8,0.8s0.3,0.8,0.8,0.8c0.3,0,0.5-0.2,0.7-0.4l1,0.3l0-1.5l-0.9,0.4
						C147.6,196.5,147.3,196.3,147,196.3z"/>
					<path class="st4" d="M134.5,196.4c0.4,0,0.8,0.3,0.8,0.8c0,0.4-0.3,0.8-0.8,0.8c-0.3,0-0.5-0.1-0.7-0.4l-1,0.3l0-1.5l0.9,0.4
						C133.9,196.6,134.2,196.4,134.5,196.4z"/>
				</g>
			</g>
			<g>
				<path class="st3" d="M152.2,220.7L152.2,220.7c0.3,1.2-0.4,2.4-1.6,2.7l-11,2.9c-1.2,0.3-2.4-0.4-2.7-1.6l0,0
					c-0.3-1.2,0.4-2.4,1.6-2.7l11-2.9C150.7,218.8,151.9,219.5,152.2,220.7z"/>
				<path class="st4" d="M150,221.3L150,221.3c0.3,1.2-0.4,2.4-1.6,2.7l-6.6,1.8c-1.2,0.3-2.4-0.4-2.7-1.6l0,0
					c-0.3-1.2,0.4-2.4,1.6-2.7l6.6-1.8C148.5,219.4,149.7,220.1,150,221.3z"/>
				<g class="st5">
					<path class="st4" d="M150.4,220.3c-0.4,0.1-0.7,0.5-0.5,0.9c0.1,0.4,0.5,0.7,0.9,0.5c0.3-0.1,0.5-0.3,0.5-0.5l1.1,0.1l-0.4-1.4
						l-0.8,0.7C151,220.3,150.7,220.2,150.4,220.3z"/>
					<path class="st4" d="M138.4,223.7c0.4-0.1,0.8,0.1,1,0.5c0.1,0.4-0.1,0.8-0.5,1c-0.3,0.1-0.5,0-0.7-0.2l-0.9,0.6l-0.3-1.4
						l1,0.2C137.8,224,138,223.8,138.4,223.7z"/>
				</g>
			</g>
			<g>
				<path class="st3" d="M161.7,242.5L161.7,242.5c0.6,1.1,0.2,2.4-0.8,3l-9.9,5.7c-1.1,0.6-2.4,0.2-3-0.8l0,0
					c-0.6-1.1-0.2-2.4,0.8-3l9.9-5.7C159.7,241.1,161.1,241.5,161.7,242.5z"/>
				<path class="st4" d="M159.7,243.7L159.7,243.7c0.6,1.1,0.2,2.4-0.8,3l-5.9,3.4c-1.1,0.6-2.4,0.2-3-0.8l0,0
					c-0.6-1.1-0.2-2.4,0.8-3l5.9-3.4C157.8,242.3,159.1,242.6,159.7,243.7z"/>
				<g class="st5">
					<path class="st4" d="M159.8,242.6c-0.4,0.2-0.5,0.7-0.3,1.1c0.2,0.4,0.7,0.5,1.1,0.3c0.2-0.1,0.4-0.4,0.4-0.7l1-0.2l-0.8-1.2
						l-0.6,0.8C160.5,242.5,160.1,242.5,159.8,242.6z"/>
					<path class="st4" d="M149.1,249c0.4-0.2,0.8-0.1,1.1,0.3c0.2,0.4,0.1,0.8-0.3,1.1c-0.2,0.1-0.5,0.1-0.8,0l-0.7,0.8l-0.7-1.3
						l1-0.1C148.7,249.5,148.8,249.2,149.1,249z"/>
				</g>
			</g>
			<g>
				<path class="st3" d="M176.6,261.2L176.6,261.2c0.9,0.9,0.9,2.3,0,3.1l-8.1,8.1c-0.9,0.9-2.3,0.9-3.1,0l0,0
					c-0.9-0.9-0.9-2.3,0-3.1l8.1-8.1C174.3,260.3,175.7,260.3,176.6,261.2z"/>
				<path class="st4" d="M174.9,262.8L174.9,262.8c0.9,0.9,0.9,2.3,0,3.1l-4.8,4.8c-0.9,0.9-2.3,0.9-3.1,0l0,0
					c-0.9-0.9-0.9-2.3,0-3.1l4.8-4.8C172.7,262,174.1,262,174.9,262.8z"/>
				<g class="st5">
					<path class="st4" d="M174.8,261.8c-0.3,0.3-0.3,0.8,0,1.1s0.8,0.3,1.1,0c0.2-0.2,0.3-0.5,0.2-0.7l1-0.5l-1.1-1l-0.3,1
						C175.3,261.5,175,261.6,174.8,261.8z"/>
					<path class="st4" d="M166.1,270.7c0.3-0.3,0.8-0.3,1.1,0s0.3,0.8,0,1.1c-0.2,0.2-0.5,0.3-0.7,0.2l-0.5,1l-1-1l1-0.3
						C165.8,271.3,165.8,271,166.1,270.7z"/>
				</g>
			</g>
			<g>
				<path class="st3" d="M195.7,275.4L195.7,275.4c1.1,0.6,1.4,2,0.8,3l-5.7,9.9c-0.6,1.1-2,1.4-3,0.8l0,0c-1.1-0.6-1.4-2-0.8-3
					l5.7-9.9C193.3,275.1,194.7,274.8,195.7,275.4z"/>
				<path class="st4" d="M194.6,277.4L194.6,277.4c1.1,0.6,1.4,2,0.8,3l-3.4,5.9c-0.6,1.1-2,1.4-3,0.8l0,0c-1.1-0.6-1.4-2-0.8-3
					l3.4-5.9C192.2,277.1,193.5,276.8,194.6,277.4z"/>
				<g class="st5">
					<path class="st4" d="M194.2,276.4c-0.2,0.4-0.1,0.8,0.3,1.1c0.4,0.2,0.8,0.1,1.1-0.3c0.1-0.2,0.1-0.5,0-0.8l0.8-0.7L195,275
						l-0.1,1C194.6,276,194.3,276.1,194.2,276.4z"/>
					<path class="st4" d="M188,287.3c0.2-0.4,0.7-0.5,1.1-0.3c0.4,0.2,0.5,0.7,0.3,1.1c-0.1,0.2-0.4,0.4-0.7,0.4l-0.2,1.1l-1.2-0.8
						l0.8-0.6C187.9,287.9,187.9,287.6,188,287.3z"/>
				</g>
			</g>
			<g>
				<path class="st3" d="M217.9,284.1L217.9,284.1c1.2,0.3,1.9,1.5,1.6,2.7l-2.9,11c-0.3,1.2-1.5,1.9-2.7,1.6l0,0
					c-1.2-0.3-1.9-1.5-1.6-2.7l2.9-11C215.5,284.5,216.7,283.8,217.9,284.1z"/>
				<path class="st4" d="M217.3,286.3L217.3,286.3c1.2,0.3,1.9,1.5,1.6,2.7l-1.8,6.6c-0.3,1.2-1.5,1.9-2.7,1.6h0
					c-1.2-0.3-1.9-1.5-1.6-2.7l1.8-6.6C214.9,286.7,216.1,286,217.3,286.3z"/>
				<g class="st5">
					<path class="st4" d="M216.7,285.5c-0.1,0.4,0.1,0.8,0.5,0.9c0.4,0.1,0.8-0.1,0.9-0.5c0.1-0.3,0-0.5-0.2-0.7l0.6-0.9l-1.4-0.3
						l0.2,1C217,285,216.7,285.2,216.7,285.5z"/>
					<path class="st4" d="M213.6,297.6c0.1-0.4,0.5-0.7,0.9-0.6c0.4,0.1,0.7,0.5,0.6,0.9c-0.1,0.3-0.3,0.5-0.5,0.5l0.1,1.1l-1.4-0.4
						l0.7-0.8C213.6,298.2,213.5,297.9,213.6,297.6z"/>
				</g>
			</g>
			<g>
				<path class="st3" d="M241.6,286.8L241.6,286.8c1.2,0,2.2,1,2.2,2.2v11.4c0,1.2-1,2.2-2.2,2.2h0c-1.2,0-2.2-1-2.2-2.2V289
					C239.4,287.8,240.4,286.8,241.6,286.8z"/>
				<path class="st4" d="M241.6,289.1L241.6,289.1c1.2,0,2.2,1,2.2,2.2v6.8c0,1.2-1,2.2-2.2,2.2h0c-1.2,0-2.2-1-2.2-2.2v-6.8
					C239.4,290.1,240.4,289.1,241.6,289.1z"/>
				<g class="st5">
					<path class="st4" d="M240.8,288.5c0,0.4,0.3,0.8,0.8,0.8s0.8-0.3,0.8-0.8c0-0.3-0.2-0.5-0.4-0.7l0.3-1l-1.5,0l0.4,0.9
						C241,287.9,240.8,288.2,240.8,288.5z"/>
					<path class="st4" d="M240.9,301c0-0.4,0.3-0.8,0.8-0.8c0.4,0,0.8,0.3,0.8,0.8c0,0.3-0.1,0.5-0.4,0.7l0.3,1l-1.5,0l0.4-0.9
						C241.1,301.6,240.9,301.3,240.9,301z"/>
				</g>
			</g>
			<g>
				<path class="st3" d="M265.2,283.3L265.2,283.3c1.2-0.3,2.4,0.4,2.7,1.6l2.9,11c0.3,1.2-0.4,2.4-1.6,2.7l0,0
					c-1.2,0.3-2.4-0.4-2.7-1.6l-2.9-11C263.3,284.8,264,283.6,265.2,283.3z"/>
				<path class="st4" d="M265.8,285.5L265.8,285.5c1.2-0.3,2.4,0.4,2.7,1.6l1.8,6.6c0.3,1.2-0.4,2.4-1.6,2.7l0,0
					c-1.2,0.3-2.4-0.4-2.7-1.6l-1.8-6.6C263.9,287,264.6,285.8,265.8,285.5z"/>
				<g class="st5">
					<path class="st4" d="M264.8,285.1c0.1,0.4,0.5,0.7,0.9,0.5c0.4-0.1,0.7-0.5,0.5-0.9c-0.1-0.3-0.3-0.5-0.5-0.5l0.1-1.1l-1.4,0.4
						l0.7,0.8C264.8,284.5,264.7,284.8,264.8,285.1z"/>
					<path class="st4" d="M268.2,297.1c-0.1-0.4,0.1-0.8,0.5-1s0.8,0.1,1,0.5c0.1,0.3,0,0.5-0.2,0.7l0.6,0.9l-1.4,0.3l0.2-1
						C268.5,297.7,268.3,297.5,268.2,297.1z"/>
				</g>
			</g>
			<g>
				<path class="st3" d="M287,273.8L287,273.8c1.1-0.6,2.4-0.2,3,0.8l5.7,9.9c0.6,1.1,0.2,2.4-0.8,3l0,0c-1.1,0.6-2.4,0.2-3-0.8
					l-5.7-9.9C285.6,275.8,286,274.4,287,273.8z"/>
				<path class="st4" d="M288.2,275.8L288.2,275.8c1.1-0.6,2.4-0.2,3,0.8l3.4,5.9c0.6,1.1,0.2,2.4-0.8,3l0,0c-1.1,0.6-2.4,0.2-3-0.8
					l-3.4-5.9C286.8,277.7,287.1,276.4,288.2,275.8z"/>
				<g class="st5">
					<path class="st4" d="M287.2,275.7c0.2,0.4,0.7,0.5,1.1,0.3c0.4-0.2,0.5-0.7,0.3-1.1c-0.1-0.2-0.4-0.4-0.7-0.4l-0.2-1l-1.2,0.8
						l0.8,0.6C287,275,287,275.4,287.2,275.7z"/>
					<path class="st4" d="M293.5,286.4c-0.2-0.4-0.1-0.8,0.3-1.1s0.8-0.1,1.1,0.3c0.1,0.2,0.1,0.5,0,0.8l0.8,0.7l-1.3,0.7l-0.1-1
						C294,286.8,293.7,286.7,293.5,286.4z"/>
				</g>
			</g>
			<g>
				<path class="st3" d="M305.7,258.9L305.7,258.9c0.9-0.9,2.3-0.9,3.1,0l8.1,8.1c0.9,0.9,0.9,2.3,0,3.1l0,0c-0.9,0.9-2.3,0.9-3.1,0
					l-8.1-8.1C304.8,261.2,304.8,259.8,305.7,258.9z"/>
				<path class="st4" d="M307.3,260.6L307.3,260.6c0.9-0.9,2.3-0.9,3.1,0l4.8,4.8c0.9,0.9,0.9,2.3,0,3.1h0c-0.9,0.9-2.3,0.9-3.1,0
					l-4.8-4.8C306.5,262.8,306.5,261.4,307.3,260.6z"/>
				<g class="st5">
					<path class="st4" d="M306.3,260.7c0.3,0.3,0.8,0.3,1.1,0s0.3-0.8,0-1.1c-0.2-0.2-0.5-0.3-0.7-0.2l-0.5-1l-1,1.1l1,0.3
						C306,260.2,306.1,260.5,306.3,260.7z"/>
					<path class="st4" d="M315.2,269.4c-0.3-0.3-0.3-0.8,0-1.1s0.8-0.3,1.1,0c0.2,0.2,0.3,0.5,0.2,0.7l1,0.5l-1,1l-0.3-1
						C315.8,269.7,315.5,269.7,315.2,269.4z"/>
				</g>
			</g>
			<g>
				<path class="st3" d="M319.9,239.8L319.9,239.8c0.6-1.1,2-1.4,3-0.8l9.9,5.7c1.1,0.6,1.4,2,0.8,3l0,0c-0.6,1.1-2,1.4-3,0.8
					l-9.9-5.7C319.6,242.2,319.3,240.8,319.9,239.8z"/>
				<path class="st4" d="M321.9,240.9L321.9,240.9c0.6-1.1,2-1.4,3-0.8l5.9,3.4c1.1,0.6,1.4,2,0.8,3l0,0c-0.6,1.1-2,1.4-3,0.8
					l-5.9-3.4C321.6,243.3,321.3,242,321.9,240.9z"/>
				<g class="st5">
					<path class="st4" d="M320.9,241.3c0.4,0.2,0.8,0.1,1.1-0.3s0.1-0.8-0.3-1.1c-0.2-0.1-0.5-0.1-0.8,0l-0.7-0.8l-0.7,1.3l1,0.1
						C320.5,240.9,320.6,241.2,320.9,241.3z"/>
					<path class="st4" d="M331.8,247.5c-0.4-0.2-0.5-0.7-0.3-1.1c0.2-0.4,0.7-0.5,1.1-0.3c0.2,0.1,0.4,0.4,0.4,0.7l1.1,0.2l-0.8,1.2
						l-0.6-0.8C332.4,247.6,332.1,247.6,331.8,247.5z"/>
				</g>
			</g>
			<g>
				<path class="st3" d="M328.6,217.6L328.6,217.6c0.3-1.2,1.5-1.9,2.7-1.6l11,2.9c1.2,0.3,1.9,1.5,1.6,2.7l0,0
					c-0.3,1.2-1.5,1.9-2.7,1.6l-11-2.9C329,220,328.3,218.8,328.6,217.6z"/>
				<path class="st4" d="M330.8,218.2L330.8,218.2c0.3-1.2,1.5-1.9,2.7-1.6l6.6,1.8c1.2,0.3,1.9,1.5,1.6,2.7l0,0
					c-0.3,1.2-1.5,1.9-2.7,1.6l-6.6-1.8C331.2,220.6,330.5,219.4,330.8,218.2z"/>
				<g class="st5">
					<path class="st4" d="M330,218.8c0.4,0.1,0.8-0.1,0.9-0.5c0.1-0.4-0.1-0.8-0.5-0.9c-0.3-0.1-0.5,0-0.7,0.2l-0.9-0.6l-0.3,1.4
						l1-0.2C329.5,218.5,329.7,218.8,330,218.8z"/>
					<path class="st4" d="M342.1,221.9c-0.4-0.1-0.7-0.5-0.6-0.9c0.1-0.4,0.5-0.7,0.9-0.6c0.3,0.1,0.5,0.3,0.5,0.5l1.1-0.1l-0.4,1.4
						l-0.8-0.7C342.7,221.9,342.4,222,342.1,221.9z"/>
				</g>
			</g>
			<g>
				<path class="st3" d="M331.3,193.9L331.3,193.9c0-1.2,1-2.2,2.2-2.2h11.4c1.2,0,2.2,1,2.2,2.2l0,0c0,1.2-1,2.2-2.2,2.2h-11.4
					C332.3,196.1,331.3,195.1,331.3,193.9z"/>
				<path class="st4" d="M333.6,193.9L333.6,193.9c0-1.2,1-2.2,2.2-2.2h6.8c1.2,0,2.2,1,2.2,2.2l0,0c0,1.2-1,2.2-2.2,2.2h-6.8
					C334.6,196.1,333.6,195.1,333.6,193.9z"/>
				<g class="st5">
					<path class="st4" d="M333,194.7c0.4,0,0.8-0.3,0.8-0.8s-0.3-0.8-0.8-0.8c-0.3,0-0.5,0.2-0.7,0.4l-1-0.3l0,1.5l0.9-0.4
						C332.4,194.5,332.7,194.7,333,194.7z"/>
					<path class="st4" d="M345.5,194.6c-0.4,0-0.8-0.3-0.8-0.8c0-0.4,0.3-0.8,0.8-0.8c0.3,0,0.5,0.1,0.7,0.4l1-0.3l0,1.5l-0.9-0.4
						C346.1,194.4,345.8,194.6,345.5,194.6z"/>
				</g>
			</g>
			<g>
				<path class="st3" d="M327.8,170.3L327.8,170.3c-0.3-1.2,0.4-2.4,1.6-2.7l11-2.9c1.2-0.3,2.4,0.4,2.7,1.6l0,0
					c0.3,1.2-0.4,2.4-1.6,2.7l-11,2.9C329.3,172.2,328.1,171.5,327.8,170.3z"/>
				<path class="st4" d="M330,169.7L330,169.7c-0.3-1.2,0.4-2.4,1.6-2.7l6.6-1.8c1.2-0.3,2.4,0.4,2.7,1.6l0,0
					c0.3,1.2-0.4,2.4-1.6,2.7l-6.6,1.8C331.5,171.6,330.3,170.9,330,169.7z"/>
				<g class="st5">
					<path class="st4" d="M329.6,170.7c0.4-0.1,0.7-0.5,0.5-0.9c-0.1-0.4-0.5-0.7-0.9-0.5c-0.3,0.1-0.5,0.3-0.5,0.5l-1.1-0.1
						l0.4,1.4l0.8-0.7C329,170.7,329.3,170.8,329.6,170.7z"/>
					<path class="st4" d="M341.6,167.3c-0.4,0.1-0.8-0.1-1-0.5c-0.1-0.4,0.1-0.8,0.5-1c0.3-0.1,0.5,0,0.7,0.2l0.9-0.6l0.3,1.4
						l-1-0.2C342.2,167,342,167.2,341.6,167.3z"/>
				</g>
			</g>
			<g>
				<path class="st3" d="M318.3,148.5L318.3,148.5c-0.6-1.1-0.2-2.4,0.8-3l9.9-5.7c1.1-0.6,2.4-0.2,3,0.8l0,0c0.6,1.1,0.2,2.4-0.8,3
					l-9.9,5.7C320.3,149.9,318.9,149.5,318.3,148.5z"/>
				<path class="st4" d="M320.3,147.3L320.3,147.3c-0.6-1.1-0.2-2.4,0.8-3l5.9-3.4c1.1-0.6,2.4-0.2,3,0.8l0,0c0.6,1.1,0.2,2.4-0.8,3
					l-5.9,3.4C322.2,148.7,320.9,148.4,320.3,147.3z"/>
				<g class="st5">
					<path class="st4" d="M320.2,148.3c0.4-0.2,0.5-0.7,0.3-1.1c-0.2-0.4-0.7-0.5-1.1-0.3c-0.2,0.1-0.4,0.4-0.4,0.7l-1,0.2l0.8,1.2
						l0.6-0.8C319.5,148.5,319.9,148.5,320.2,148.3z"/>
					<path class="st4" d="M330.9,142c-0.4,0.2-0.8,0.1-1.1-0.3s-0.1-0.8,0.3-1.1c0.2-0.1,0.5-0.1,0.8,0l0.7-0.8l0.7,1.3l-1,0.1
						C331.3,141.5,331.2,141.8,330.9,142z"/>
				</g>
			</g>
			<g>
				<path class="st3" d="M303.4,129.8L303.4,129.8c-0.9-0.9-0.9-2.3,0-3.1l8.1-8.1c0.9-0.9,2.3-0.9,3.1,0l0,0c0.9,0.9,0.9,2.3,0,3.1
					l-8.1,8.1C305.7,130.7,304.3,130.7,303.4,129.8z"/>
				<path class="st4" d="M305.1,128.2L305.1,128.2c-0.9-0.9-0.9-2.3,0-3.1l4.8-4.8c0.9-0.9,2.3-0.9,3.1,0l0,0c0.9,0.9,0.9,2.3,0,3.1
					l-4.8,4.8C307.3,129,305.9,129,305.1,128.2z"/>
				<g class="st5">
					<path class="st4" d="M305.2,129.2c0.3-0.3,0.3-0.8,0-1.1c-0.3-0.3-0.8-0.3-1.1,0c-0.2,0.2-0.3,0.5-0.2,0.7l-1,0.5l1.1,1l0.3-1
						C304.7,129.5,305,129.4,305.2,129.2z"/>
					<path class="st4" d="M313.9,120.3c-0.3,0.3-0.8,0.3-1.1,0s-0.3-0.8,0-1.1c0.2-0.2,0.5-0.3,0.7-0.2l0.5-1l1,1l-1,0.3
						C314.2,119.7,314.2,120,313.9,120.3z"/>
				</g>
			</g>
			<g>
				<path class="st3" d="M284.3,115.6L284.3,115.6c-1.1-0.6-1.4-2-0.8-3l5.7-9.9c0.6-1.1,2-1.4,3-0.8l0,0c1.1,0.6,1.4,2,0.8,3
					l-5.7,9.9C286.7,115.9,285.3,116.2,284.3,115.6z"/>
				<path class="st4" d="M285.4,113.6L285.4,113.6c-1.1-0.6-1.4-2-0.8-3l3.4-5.9c0.6-1.1,2-1.4,3-0.8l0,0c1.1,0.6,1.4,2,0.8,3
					l-3.4,5.9C287.8,113.9,286.5,114.2,285.4,113.6z"/>
				<g class="st5">
					<path class="st4" d="M285.8,114.6c0.2-0.4,0.1-0.8-0.3-1.1s-0.8-0.1-1.1,0.3c-0.1,0.2-0.1,0.5,0,0.8l-0.8,0.7l1.3,0.7l0.1-1
						C285.4,115,285.7,114.9,285.8,114.6z"/>
					<path class="st4" d="M292,103.7c-0.2,0.4-0.7,0.5-1.1,0.3c-0.4-0.2-0.5-0.7-0.3-1.1c0.1-0.2,0.4-0.4,0.7-0.4l0.2-1.1l1.2,0.8
						l-0.8,0.6C292.1,103.1,292.1,103.4,292,103.7z"/>
				</g>
			</g>
			<g>
				<path class="st3" d="M262.1,106.9L262.1,106.9c-1.2-0.3-1.9-1.5-1.6-2.7l2.9-11c0.3-1.2,1.5-1.9,2.7-1.6l0,0
					c1.2,0.3,1.9,1.5,1.6,2.7l-2.9,11C264.5,106.5,263.3,107.2,262.1,106.9z"/>
				<path class="st4" d="M262.7,104.7L262.7,104.7c-1.2-0.3-1.9-1.5-1.6-2.7l1.8-6.6c0.3-1.2,1.5-1.9,2.7-1.6l0,0
					c1.2,0.3,1.9,1.5,1.6,2.7l-1.8,6.6C265.1,104.3,263.9,105,262.7,104.7z"/>
				<g class="st5">
					<path class="st4" d="M263.3,105.5c0.1-0.4-0.1-0.8-0.5-0.9s-0.8,0.1-0.9,0.5c-0.1,0.3,0,0.5,0.2,0.7l-0.6,0.9l1.4,0.3l-0.2-1
						C263,106,263.3,105.8,263.3,105.5z"/>
					<path class="st4" d="M266.4,93.4c-0.1,0.4-0.5,0.7-0.9,0.6c-0.4-0.1-0.7-0.5-0.6-0.9c0.1-0.3,0.3-0.5,0.5-0.5l-0.1-1.1l1.4,0.4
						l-0.7,0.8C266.4,92.8,266.5,93.1,266.4,93.4z"/>
				</g>
			</g>
			<circle class="st6" cx="237.6" cy="195.5" r="101.2"/>
		</g>
	</g>
</g>
</svg>
