<?xml version="1.0" encoding="utf-8"?>
<!-- Generator: Adobe Illustrator 22.0.0, SVG Export Plug-In . SVG Version: 6.00 Build 0)  -->
<svg version="1.1" id="图层_1" xmlns="http://www.w3.org/2000/svg" xmlns:xlink="http://www.w3.org/1999/xlink" x="0px" y="0px"
	 viewBox="0 0 480 400" style="enable-background:new 0 0 480 400;" xml:space="preserve">
<style type="text/css">
	.st0{fill:none;stroke:#FFFFFF;stroke-width:18.563;stroke-miterlimit:10;}
	.st1{fill:none;stroke:#FFFFFF;stroke-width:12.791;stroke-miterlimit:10;}
	.st2{fill:none;stroke:#FFFFFF;stroke-width:4.7673;stroke-miterlimit:10;}
	.st3{fill:#FFFFFF;}
</style>
<g>
	<path class="st0" d="M410.2,376.9H69.8c-27.7,0-50.2-22.5-50.2-50.2V73.3c0-27.7,22.5-50.2,50.2-50.2h340.5
		c27.7,0,50.2,22.5,50.2,50.2v253.5C460.4,354.5,437.9,376.9,410.2,376.9z"/>
	<g>
		<g>
			<path class="st1" d="M303.1,141.9l0.2-19.6l16.3,0.1c4.7,0,8.5-3.4,8.5-7.7l0.6-71.5c0-4.3-3.7-7.8-8.4-7.8l-164.1-1.4
				c-4.7,0-8.5,3.4-8.5,7.7l-0.6,71.5c0,4.3,3.7,7.8,8.4,7.8l16.3,0.1l-0.2,19.6c0,4.3,3.7,7.8,8.4,7.8l114.6,1
				C299.3,149.7,303.1,146.2,303.1,141.9z"/>
			<path class="st2" d="M286.3,84.9l0.1-9.2c0-2.2,1.8-3.9,3.9-3.9l10.7,0.1c2.2,0,3.9,1.8,3.9,3.9l-0.1,9.2c0,2.2-1.8,3.9-3.9,3.9
				l-10.7-0.1C288,88.8,286.3,87.1,286.3,84.9z"/>
			<path class="st2" d="M247.8,84.6l0.1-9.2c0-2.2,1.8-3.9,3.9-3.9l10.7,0.1c2.2,0,3.9,1.8,3.9,3.9l-0.1,9.2c0,2.2-1.8,3.9-3.9,3.9
				l-10.7-0.1C249.6,88.5,247.8,86.7,247.8,84.6z"/>
			<path class="st2" d="M209.3,84.3l0.1-9.2c0-2.2,1.8-3.9,3.9-3.9l10.7,0.1c2.2,0,3.9,1.8,3.9,3.9l-0.1,9.2c0,2.2-1.8,3.9-3.9,3.9
				l-10.7-0.1C211.1,88.2,209.3,86.4,209.3,84.3z"/>
			<path class="st2" d="M170.9,83.9l0.1-9.2c0-2.2,1.8-3.9,3.9-3.9l10.7,0.1c2.2,0,3.9,1.8,3.9,3.9l-0.1,9.2c0,2.2-1.8,3.9-3.9,3.9
				l-10.7-0.1C172.6,87.9,170.8,86.1,170.9,83.9z"/>
		</g>
		<path class="st3" d="M174.4,248.4c-22.6-4.5-44.5,10.2-48.9,32.8c-1.2,6-1,11.9,0.3,17.5l-53,34.3c-5,3.2-6.4,10-3,14.9l9.1,13.3
			c3.6,5.2,10.9,6.2,15.7,2.1L142,323c4.7,3.4,10.2,5.9,16.3,7.1c22.6,4.5,44.5-10.2,48.9-32.8C211.7,274.8,197,252.8,174.4,248.4z
			 M161.4,314.3c-13.8-2.7-22.8-16.1-20.1-30c2.7-13.8,16.1-22.8,30-20.1c13.8,2.7,22.8,16.1,20.1,30
			C188.6,308,175.2,317,161.4,314.3z"/>
		<path class="st3" d="M301.7,250.5c22.8,4.4,44.8-10.4,49.3-33.2c1.2-6.1,1-12.2-0.4-17.9l55.7-29c5.7-2.9,7.5-10.1,4-15.4l-9-13.6
			c-3.3-5-10.1-6.3-15.1-2.9L334,175c-4.7-3.3-10.2-5.8-16.3-7c-22.8-4.4-44.8,10.4-49.3,33.2C264.1,224,279,246.1,301.7,250.5z
			 M304.8,234.5c-13.9-2.7-23-16.2-20.3-30.2c2.7-13.9,16.2-23,30.2-20.3c13.9,2.7,23,16.2,20.3,30.2
			C332.3,228.1,318.8,237.2,304.8,234.5z"/>
		<path class="st3" d="M109.6,190l14.4-13.3c2-1.8,4.9-2.1,7.1-0.6l51,33.2c5.6,3.7,1.6,12.4-4.9,10.4l-65.4-19.9
			C107.5,198.5,106.3,193,109.6,190z"/>
		<path class="st3" d="M284.6,268.6l64.9,6.6c4.5,0.5,6.8,5.6,4.1,9.3l-15,20.1c-1.7,2.3-4.9,3-7.4,1.7l-49.9-26.8
			C275.6,276.5,278.2,268,284.6,268.6z"/>
		<path class="st3" d="M245.5,287.1l33.3,56.1c2.3,3.9-0.5,8.8-5,8.8l-25.1-0.1c-2.9,0-5.3-2.1-5.7-5l-8.2-56
			C233.8,284.6,242.2,281.6,245.5,287.1z"/>
		<path class="st3" d="M230.2,175.9l10.3-2c4.2-0.8,7.8,3,6.8,7.1l-4.6,18.1c-1.4,5.6-9.2,5.9-11.1,0.5l-5.7-16.1
			C224.7,180.2,226.7,176.6,230.2,175.9z"/>
	</g>
</g>
</svg>
