<?xml version="1.0" encoding="utf-8"?>
<!-- Generator: Adobe Illustrator 22.0.0, SVG Export Plug-In . SVG Version: 6.00 Build 0)  -->
<svg version="1.1" id="图层_1" xmlns="http://www.w3.org/2000/svg" xmlns:xlink="http://www.w3.org/1999/xlink" x="0px" y="0px"
	 viewBox="0 0 740 400" style="enable-background:new 0 0 740 400;" xml:space="preserve">
<style type="text/css">
	.st0{fill:none;stroke:#FFFFFF;stroke-width:18.563;stroke-miterlimit:10;}
	.st1{fill:none;stroke:#FFFFFF;stroke-width:14.3229;stroke-miterlimit:10;}
	.st2{fill:none;stroke:#FFFFFF;stroke-width:5.3383;stroke-miterlimit:10;}
	.st3{fill:#FFFFFF;}
	.st4{fill:none;stroke:#FFFFFF;stroke-width:3.5721;stroke-linecap:round;stroke-linejoin:round;stroke-miterlimit:10;}
	.st5{fill:none;stroke:#FFFFFF;stroke-width:1.9736;stroke-miterlimit:10;}
	.st6{opacity:0.4;fill:#FFFFFF;}
	.st7{fill:none;}
</style>
<g>
	<path class="st0" d="M228.1-721.6h-625.5c-22.6,0-40.9-18.3-40.9-40.9v-261.7c0-22.6,18.3-40.9,40.9-40.9h625.5
		c22.6,0,40.9,18.3,40.9,40.9v261.7C269-739.9,250.7-721.6,228.1-721.6z"/>
	<g>
		<path class="st1" d="M-350.6-841.1l-16.4-0.1l-0.1,13.6c0,3.9-2.9,7-6.5,7l-59.8-0.3c-3.6,0-6.5-3.2-6.5-7.1l0.7-137.2
			c0-3.9,2.9-7,6.5-7l59.8,0.3c3.6,0,6.5,3.2,6.5,7.1l-0.1,13.6l16.4,0.1c3.6,0,6.5,3.2,6.5,7.1l-0.5,95.9
			C-344.1-844.3-347-841.1-350.6-841.1z"/>
		<path class="st2" d="M-398-855.8l-7.9,0c-1.7,0-3.2,1.4-3.2,3.1l0,9.1c0,1.7,1.4,3.2,3.1,3.2l7.9,0c1.7,0,3.2-1.4,3.2-3.1l0-9.1
			C-394.9-854.4-396.3-855.8-398-855.8z"/>
		<path class="st2" d="M-397.8-888l-7.9,0c-1.7,0-3.2,1.4-3.2,3.1l0,9.1c0,1.7,1.4,3.2,3.1,3.2l7.9,0c1.7,0,3.2-1.4,3.2-3.1l0-9.1
			C-394.7-886.6-396.1-888-397.8-888z"/>
		<path class="st2" d="M-397.7-920.2l-7.9,0c-1.7,0-3.2,1.4-3.2,3.1l0,9.1c0,1.7,1.4,3.2,3.1,3.2l7.9,0c1.7,0,3.2-1.4,3.2-3.1l0-9.1
			C-394.5-918.8-395.9-920.2-397.7-920.2z"/>
		<path class="st2" d="M-397.5-952.4l-7.9,0c-1.7,0-3.2,1.4-3.2,3.1l0,9.1c0,1.7,1.4,3.2,3.1,3.2l7.9,0c1.7,0,3.2-1.4,3.2-3.1l0-9.1
			C-394.3-950.9-395.7-952.4-397.5-952.4z"/>
	</g>
	<path class="st3" d="M-157.4-777.7v29.7c0,0.8,0.8,1.5,1.9,1.5h115.7c1,0,1.9-0.7,1.9-1.5v-29.7c0-0.8-0.8-1.5-1.9-1.5h-115.7
		C-156.6-779.1-157.4-778.5-157.4-777.7z M-66.7-757.4h-62c-1,0-1.9-0.7-1.9-1.5v-8c0-0.8,0.8-1.5,1.9-1.5h62c1,0,1.9,0.7,1.9,1.5v8
		C-64.8-758-65.7-757.4-66.7-757.4z"/>
	<path class="st3" d="M-32.2-749.7h-7.7c-0.8,0-1.5-0.7-1.5-1.5v-23c0-0.8,0.7-1.5,1.5-1.5h7.7c0.8,0,1.5,0.7,1.5,1.5v23
		C-30.8-750.4-31.4-749.7-32.2-749.7z"/>
	<path class="st3" d="M-163.2-749.7h7.7c0.8,0,1.5-0.7,1.5-1.5v-23c0-0.8-0.7-1.5-1.5-1.5h-7.7c-0.8,0-1.5,0.7-1.5,1.5v23
		C-164.7-750.4-164-749.7-163.2-749.7z"/>
	<g>
		<rect x="-123.2" y="-767.8" class="st3" width="0.9" height="9.9"/>
		<rect x="-121.3" y="-767.8" class="st3" width="0.9" height="9.9"/>
		<rect x="-125.2" y="-767.8" class="st3" width="0.9" height="9.9"/>
		<path class="st3" d="M-129.3-764.2v2.8c0,1.4,0.5,2.5,1.2,3.1v-9C-128.8-766.7-129.3-765.6-129.3-764.2z"/>
		<path class="st3" d="M-127-767.8c0,0-0.1,0-0.1,0v9.9c0,0,0.1,0,0.1,0h0.8v-9.9H-127z"/>
		<path class="st3" d="M-117.5-767.3v9c0.7-0.6,1.2-1.8,1.2-3.1v-2.8C-116.2-765.6-116.7-766.7-117.5-767.3z"/>
		<path class="st3" d="M-118.6-767.8h-0.8v9.9h0.8c0,0,0.1,0,0.1,0v-9.9C-118.5-767.8-118.5-767.8-118.6-767.8z"/>
	</g>
	<g>
		<g>
			<g>
				<rect x="-263.4" y="-969.7" class="st4" width="17.2" height="43.7"/>
				<path class="st3" d="M-264.2-940.6h-6.1c-0.4,0-0.8-0.3-0.8-0.8v-15.2c0-0.4,0.3-0.8,0.8-0.8h6.1c0.4,0,0.8,0.3,0.8,0.8v15.2
					C-263.4-940.9-263.8-940.6-264.2-940.6z"/>
				<path class="st3" d="M-238-953.3h-7.5c-0.4,0-0.8-0.3-0.8-0.8v-10.7c0-0.4,0.3-0.8,0.8-0.8h7.5c0.4,0,0.8,0.3,0.8,0.8v10.7
					C-237.2-953.7-237.5-953.3-238-953.3z"/>
				<path class="st3" d="M-238-928.1h-7.5c-0.4,0-0.8-0.3-0.8-0.8v-10.7c0-0.4,0.3-0.8,0.8-0.8h7.5c0.4,0,0.8,0.3,0.8,0.8v10.7
					C-237.2-928.4-237.5-928.1-238-928.1z"/>
				<rect x="-262" y="-961.8" class="st3" width="14.5" height="29.2"/>
			</g>
			<g>
				<rect x="-263.4" y="-913.8" class="st4" width="17.2" height="43.7"/>
				<path class="st3" d="M-264.2-884.6h-6.1c-0.4,0-0.8-0.3-0.8-0.8v-15.2c0-0.4,0.3-0.8,0.8-0.8h6.1c0.4,0,0.8,0.3,0.8,0.8v15.2
					C-263.4-884.9-263.8-884.6-264.2-884.6z"/>
				<path class="st3" d="M-238-897.3h-7.5c-0.4,0-0.8-0.3-0.8-0.8v-10.7c0-0.4,0.3-0.8,0.8-0.8h7.5c0.4,0,0.8,0.3,0.8,0.8v10.7
					C-237.2-897.7-237.5-897.3-238-897.3z"/>
				<path class="st3" d="M-238-872.1h-7.5c-0.4,0-0.8-0.3-0.8-0.8v-10.7c0-0.4,0.3-0.8,0.8-0.8h7.5c0.4,0,0.8,0.3,0.8,0.8v10.7
					C-237.2-872.4-237.5-872.1-238-872.1z"/>
				<rect x="-262" y="-905.9" class="st3" width="14.5" height="29.2"/>
			</g>
			<g>
				<rect x="-263.4" y="-857.8" class="st4" width="17.2" height="43.7"/>
				<path class="st3" d="M-264.2-828.6h-6.1c-0.4,0-0.8-0.3-0.8-0.8v-15.2c0-0.4,0.3-0.8,0.8-0.8h6.1c0.4,0,0.8,0.3,0.8,0.8v15.2
					C-263.4-828.9-263.8-828.6-264.2-828.6z"/>
				<path class="st3" d="M-238-841.3h-7.5c-0.4,0-0.8-0.3-0.8-0.8v-10.7c0-0.4,0.3-0.8,0.8-0.8h7.5c0.4,0,0.8,0.3,0.8,0.8v10.7
					C-237.2-841.7-237.5-841.3-238-841.3z"/>
				<path class="st3" d="M-238-816.1h-7.5c-0.4,0-0.8-0.3-0.8-0.8v-10.7c0-0.4,0.3-0.8,0.8-0.8h7.5c0.4,0,0.8,0.3,0.8,0.8v10.7
					C-237.2-816.4-237.5-816.1-238-816.1z"/>
				<rect x="-262" y="-849.9" class="st3" width="14.5" height="29.2"/>
			</g>
		</g>
		<g>
			<g>
				<path class="st5" d="M-291.8-925.4h-13c-2.9,0-5.3-2.4-5.3-5.3v-36.7c0-2.9,2.4-5.3,5.3-5.3h13c2.9,0,5.3,2.4,5.3,5.3v36.7
					C-286.5-927.8-288.9-925.4-291.8-925.4z"/>
				<g>
					<path class="st6" d="M-298.3-931.3L-298.3-931.3c-4.5,0-8.1-3.6-8.1-8.1v-19.2c0-4.5,3.6-8.1,8.1-8.1h0c4.5,0,8.1,3.6,8.1,8.1
						v19.2C-290.2-935-293.8-931.3-298.3-931.3z"/>
					<rect x="-306.5" y="-958" class="st3" width="16.3" height="17.8"/>
				</g>
			</g>
			<g>
				<path class="st5" d="M-291.8-868.2h-13c-2.9,0-5.3-2.4-5.3-5.3v-36.7c0-2.9,2.4-5.3,5.3-5.3h13c2.9,0,5.3,2.4,5.3,5.3v36.7
					C-286.5-870.6-288.9-868.2-291.8-868.2z"/>
				<g>
					<path class="st6" d="M-298.3-874.1L-298.3-874.1c-4.5,0-8.1-3.6-8.1-8.1v-19.2c0-4.5,3.6-8.1,8.1-8.1h0c4.5,0,8.1,3.6,8.1,8.1
						v19.2C-290.2-877.8-293.8-874.1-298.3-874.1z"/>
					<rect x="-306.5" y="-900.8" class="st3" width="16.3" height="17.8"/>
				</g>
			</g>
			<g>
				<path class="st5" d="M-291.8-811h-13c-2.9,0-5.3-2.4-5.3-5.3V-853c0-2.9,2.4-5.3,5.3-5.3h13c2.9,0,5.3,2.4,5.3,5.3v36.7
					C-286.5-813.3-288.9-811-291.8-811z"/>
				<g>
					<path class="st6" d="M-298.3-816.9L-298.3-816.9c-4.5,0-8.1-3.6-8.1-8.1v-19.2c0-4.5,3.6-8.1,8.1-8.1h0c4.5,0,8.1,3.6,8.1,8.1
						v19.2C-290.2-820.5-293.8-816.9-298.3-816.9z"/>
					<rect x="-306.5" y="-843.5" class="st3" width="16.3" height="17.8"/>
				</g>
			</g>
		</g>
	</g>
	<g>
		<path class="st6" d="M150.1-752.7H-25c-31,0-56.2-25.1-56.2-56.2v-175.1c0-31,25.1-56.2,56.2-56.2h175.1c31,0,56.2,25.1,56.2,56.2
			v175.1C206.2-777.8,181.1-752.7,150.1-752.7z"/>
		<g>
			<circle class="st7" cx="238" cy="-896.4" r="12.7"/>
			<path class="st7" d="M62.5-780c51.2,0,94.7-33.1,110.3-79.1H-47.7C-32.2-813.1,11.3-780,62.5-780z"/>
			<circle class="st7" cx="-113" cy="-896.4" r="12.7"/>
			<path class="st7" d="M62.5-1012.8c-51.2,0-94.7,33.1-110.3,79.1h220.5C157.2-979.7,113.7-1012.8,62.5-1012.8z"/>
			<path class="st3" d="M-68.1-882.4c-14-2.3-14.2-22.4-0.3-25.1l0,0c11.5-2.2,14.1-17.5,4.1-23.4c-1.4-0.8-2.5-1.8-3.4-2.9h-40.5
				c-20.6,0-37.4,16.7-37.4,37.4v0c0,20.6,16.7,37.4,37.4,37.4h44.8C-53.6-865.3-56.6-880.4-68.1-882.4z M-113-883.7
				c-7,0-12.7-5.7-12.7-12.7c0-7,5.7-12.7,12.7-12.7c7,0,12.7,5.7,12.7,12.7C-100.3-889.4-106-883.7-113-883.7z"/>
			<path class="st3" d="M233.3-933.8h-37.9c9.8,3.9,11.2,19.2-0.2,23.7c-10.9,4.3-10.7,19.8,0.3,23.8c13.3,4.9,9.9,24.6-4.3,24.7
				c-3,0-5.6,1-7.6,2.6h49.8c20.6,0,37.4-16.7,37.4-37.4v0C270.6-917,253.9-933.8,233.3-933.8z M238-883.7c-7,0-12.7-5.7-12.7-12.7
				c0-7,5.7-12.7,12.7-12.7c7,0,12.7,5.7,12.7,12.7C250.8-889.4,245.1-883.7,238-883.7z"/>
			<path class="st3" d="M62.5-1012.8c51.2,0,94.7,33.1,110.3,79.1h22.6c-1.5-0.6-3.2-0.9-5.1-0.9c-11.7,0.2-17.5-14.1-8.9-22.1
				c10.4-9.6-0.3-26.5-13.5-21.1c-10.8,4.4-21.4-6.9-16.3-17.4c6.2-12.7-9.9-24.6-20.2-14.8v0c-8.5,8-22.4,1.3-21.4-10.3
				c1.2-14.1-18.1-19.4-24.2-6.6c-5,10.6-20.4,9.3-23.7-1.9c-4-13.6-23.9-11.5-24.9,2.6c-0.9,11.7-15.7,16.1-22.8,6.8
				c-8.6-11.3-26.4-2.1-22.3,11.4v0c3.4,11.2-8.8,20.7-18.8,14.6c-12.1-7.4-25.4,7.6-16.6,18.7v0c7.2,9.2-0.8,22.5-12.3,20.4
				c-12.4-2.2-19.2,12.2-12.2,20.6h20C-32.2-979.7,11.3-1012.8,62.5-1012.8z"/>
			<path class="st3" d="M62.5-780c-51.2,0-94.7-33.1-110.3-79.1h-15.7c0,0,0,0,0,0v0c-12,7.5-4.5,26.1,9.3,23.2v0
				c11.5-2.4,19.8,10.7,12.8,20.1c-8.5,11.4,5.2,26,17.1,18.3v0c9.8-6.3,22.3,2.8,19.2,14.1v0c-3.8,13.7,14.2,22.4,22.6,10.9
				c6.9-9.5,21.8-5.4,23,6.2c1.4,14.1,21.3,15.7,25,2c3-11.3,18.4-12.9,23.7-2.5v0c6.4,12.7,25.6,6.9,24-7.2
				c-1.3-11.6,12.5-18.7,21.2-10.9h0c10.5,9.5,26.4-2.8,19.8-15.3c-5.4-10.4,4.9-21.9,15.8-17.8c13.3,5,23.6-12.1,12.9-21.5v0
				c-6.5-5.7-5.2-15.2,0.7-19.7h-10.7C157.2-813.1,113.7-780,62.5-780z"/>
			<path class="st3" d="M195.4-886.3c-11-4-11.2-19.5-0.3-23.8c11.4-4.5,10-19.8,0.2-23.7h-22.6c4,11.7,6.2,24.3,6.2,37.4
				s-2.2,25.6-6.2,37.4h10.7c2-1.6,4.6-2.6,7.6-2.6C205.3-861.7,208.7-881.4,195.4-886.3z"/>
			<path class="st3" d="M-53.9-896.4c0-13.1,2.2-25.6,6.2-37.4h-20c0.9,1.1,2,2.1,3.4,2.9c10.1,6,7.4,21.2-4.1,23.4l0,0
				c-13.9,2.7-13.7,22.7,0.3,25.1c11.5,1.9,14.6,17.1,4.7,23.3h15.7C-51.7-870.8-53.9-883.3-53.9-896.4z"/>
		</g>
	</g>
</g>
<g>
	<path class="st0" d="M682.1,371.4H56.7c-22.6,0-40.9-18.3-40.9-40.9V68.8C15.8,46.3,34.1,28,56.7,28h625.5
		c22.6,0,40.9,18.3,40.9,40.9v261.7C723,353.1,704.7,371.4,682.1,371.4z"/>
	<g>
		<path class="st1" d="M103.4,251.9L87,251.8l-0.1,13.6c0,3.9-2.9,7-6.5,7l-59.8-0.3c-3.6,0-6.5-3.2-6.5-7.1l0.7-137.2
			c0-3.9,2.9-7,6.5-7l59.8,0.3c3.6,0,6.5,3.2,6.5,7.1l-0.1,13.6l16.4,0.1c3.6,0,6.5,3.2,6.5,7.1l-0.5,95.9
			C109.9,248.7,107,251.9,103.4,251.9z"/>
		<path class="st2" d="M56,237.2l-7.9,0c-1.7,0-3.2,1.4-3.2,3.1l0,9.1c0,1.7,1.4,3.2,3.1,3.2l7.9,0c1.7,0,3.2-1.4,3.2-3.1l0-9.1
			C59.1,238.6,57.7,237.2,56,237.2z"/>
		<path class="st2" d="M56.2,205l-7.9,0c-1.7,0-3.2,1.4-3.2,3.1l0,9.1c0,1.7,1.4,3.2,3.1,3.2l7.9,0c1.7,0,3.2-1.4,3.2-3.1l0-9.1
			C59.3,206.4,57.9,205,56.2,205z"/>
		<path class="st2" d="M56.3,172.8l-7.9,0c-1.7,0-3.2,1.4-3.2,3.1l0,9.1c0,1.7,1.4,3.2,3.1,3.2l7.9,0c1.7,0,3.2-1.4,3.2-3.1l0-9.1
			C59.5,174.2,58.1,172.8,56.3,172.8z"/>
		<path class="st2" d="M56.5,140.6l-7.9,0c-1.7,0-3.2,1.4-3.2,3.1l0,9.1c0,1.7,1.4,3.2,3.1,3.2l7.9,0c1.7,0,3.2-1.4,3.2-3.1l0-9.1
			C59.7,142.1,58.3,140.6,56.5,140.6z"/>
	</g>
	<path class="st3" d="M296.6,315.3V345c0,0.8,0.8,1.5,1.9,1.5h115.7c1,0,1.9-0.7,1.9-1.5v-29.7c0-0.8-0.8-1.5-1.9-1.5H298.4
		C297.4,313.9,296.6,314.5,296.6,315.3z M387.3,335.6h-62c-1,0-1.9-0.7-1.9-1.5v-8c0-0.8,0.8-1.5,1.9-1.5h62c1,0,1.9,0.7,1.9,1.5v8
		C389.2,335,388.3,335.6,387.3,335.6z"/>
	<path class="st3" d="M421.8,343.3h-7.7c-0.8,0-1.5-0.7-1.5-1.5v-23c0-0.8,0.7-1.5,1.5-1.5h7.7c0.8,0,1.5,0.7,1.5,1.5v23
		C423.2,342.6,422.6,343.3,421.8,343.3z"/>
	<path class="st3" d="M290.8,343.3h7.7c0.8,0,1.5-0.7,1.5-1.5v-23c0-0.8-0.7-1.5-1.5-1.5h-7.7c-0.8,0-1.5,0.7-1.5,1.5v23
		C289.3,342.6,290,343.3,290.8,343.3z"/>
	<g>
		<rect x="330.8" y="325.2" class="st3" width="0.9" height="9.9"/>
		<rect x="332.7" y="325.2" class="st3" width="0.9" height="9.9"/>
		<rect x="328.8" y="325.2" class="st3" width="0.9" height="9.9"/>
		<path class="st3" d="M324.7,328.8v2.8c0,1.4,0.5,2.5,1.2,3.1v-9C325.2,326.3,324.7,327.4,324.7,328.8z"/>
		<path class="st3" d="M327,325.2c0,0-0.1,0-0.1,0v9.9c0,0,0.1,0,0.1,0h0.8v-9.9H327z"/>
		<path class="st3" d="M336.5,325.7v9c0.7-0.6,1.2-1.8,1.2-3.1v-2.8C337.8,327.4,337.3,326.3,336.5,325.7z"/>
		<path class="st3" d="M335.4,325.2h-0.8v9.9h0.8c0,0,0.1,0,0.1,0v-9.9C335.5,325.2,335.5,325.2,335.4,325.2z"/>
	</g>
	<g>
		<g>
			<g>
				<rect x="190.6" y="123.3" class="st4" width="17.2" height="43.7"/>
				<path class="st3" d="M189.8,152.4h-6.1c-0.4,0-0.8-0.3-0.8-0.8v-15.2c0-0.4,0.3-0.8,0.8-0.8h6.1c0.4,0,0.8,0.3,0.8,0.8v15.2
					C190.6,152.1,190.2,152.4,189.8,152.4z"/>
				<path class="st3" d="M216,139.7h-7.5c-0.4,0-0.8-0.3-0.8-0.8v-10.7c0-0.4,0.3-0.8,0.8-0.8h7.5c0.4,0,0.8,0.3,0.8,0.8v10.7
					C216.8,139.3,216.5,139.7,216,139.7z"/>
				<path class="st3" d="M216,164.9h-7.5c-0.4,0-0.8-0.3-0.8-0.8v-10.7c0-0.4,0.3-0.8,0.8-0.8h7.5c0.4,0,0.8,0.3,0.8,0.8v10.7
					C216.8,164.6,216.5,164.9,216,164.9z"/>
				<rect x="192" y="131.2" class="st3" width="14.5" height="29.2"/>
			</g>
			<g>
				<rect x="190.6" y="179.2" class="st4" width="17.2" height="43.7"/>
				<path class="st3" d="M189.8,208.4h-6.1c-0.4,0-0.8-0.3-0.8-0.8v-15.2c0-0.4,0.3-0.8,0.8-0.8h6.1c0.4,0,0.8,0.3,0.8,0.8v15.2
					C190.6,208.1,190.2,208.4,189.8,208.4z"/>
				<path class="st3" d="M216,195.7h-7.5c-0.4,0-0.8-0.3-0.8-0.8v-10.7c0-0.4,0.3-0.8,0.8-0.8h7.5c0.4,0,0.8,0.3,0.8,0.8v10.7
					C216.8,195.3,216.5,195.7,216,195.7z"/>
				<path class="st3" d="M216,220.9h-7.5c-0.4,0-0.8-0.3-0.8-0.8v-10.7c0-0.4,0.3-0.8,0.8-0.8h7.5c0.4,0,0.8,0.3,0.8,0.8v10.7
					C216.8,220.6,216.5,220.9,216,220.9z"/>
				<rect x="192" y="187.1" class="st3" width="14.5" height="29.2"/>
			</g>
			<g>
				<rect x="190.6" y="235.2" class="st4" width="17.2" height="43.7"/>
				<path class="st3" d="M189.8,264.4h-6.1c-0.4,0-0.8-0.3-0.8-0.8v-15.2c0-0.4,0.3-0.8,0.8-0.8h6.1c0.4,0,0.8,0.3,0.8,0.8v15.2
					C190.6,264.1,190.2,264.4,189.8,264.4z"/>
				<path class="st3" d="M216,251.7h-7.5c-0.4,0-0.8-0.3-0.8-0.8v-10.7c0-0.4,0.3-0.8,0.8-0.8h7.5c0.4,0,0.8,0.3,0.8,0.8v10.7
					C216.8,251.3,216.5,251.7,216,251.7z"/>
				<path class="st3" d="M216,276.9h-7.5c-0.4,0-0.8-0.3-0.8-0.8v-10.7c0-0.4,0.3-0.8,0.8-0.8h7.5c0.4,0,0.8,0.3,0.8,0.8v10.7
					C216.8,276.6,216.5,276.9,216,276.9z"/>
				<rect x="192" y="243.1" class="st3" width="14.5" height="29.2"/>
			</g>
		</g>
		<g>
			<g>
				<path class="st5" d="M162.2,167.6h-13c-2.9,0-5.3-2.4-5.3-5.3v-36.7c0-2.9,2.4-5.3,5.3-5.3h13c2.9,0,5.3,2.4,5.3,5.3v36.7
					C167.5,165.2,165.1,167.6,162.2,167.6z"/>
				<g>
					<path class="st6" d="M155.7,161.7L155.7,161.7c-4.5,0-8.1-3.6-8.1-8.1v-19.2c0-4.5,3.6-8.1,8.1-8.1h0c4.5,0,8.1,3.6,8.1,8.1
						v19.2C163.8,158,160.2,161.7,155.7,161.7z"/>
					<rect x="147.5" y="135" class="st3" width="16.3" height="17.8"/>
				</g>
			</g>
			<g>
				<path class="st5" d="M162.2,224.8h-13c-2.9,0-5.3-2.4-5.3-5.3v-36.7c0-2.9,2.4-5.3,5.3-5.3h13c2.9,0,5.3,2.4,5.3,5.3v36.7
					C167.5,222.4,165.1,224.8,162.2,224.8z"/>
				<g>
					<path class="st6" d="M155.7,218.9L155.7,218.9c-4.5,0-8.1-3.6-8.1-8.1v-19.2c0-4.5,3.6-8.1,8.1-8.1h0c4.5,0,8.1,3.6,8.1,8.1
						v19.2C163.8,215.2,160.2,218.9,155.7,218.9z"/>
					<rect x="147.5" y="192.2" class="st3" width="16.3" height="17.8"/>
				</g>
			</g>
			<g>
				<path class="st5" d="M162.2,282h-13c-2.9,0-5.3-2.4-5.3-5.3V240c0-2.9,2.4-5.3,5.3-5.3h13c2.9,0,5.3,2.4,5.3,5.3v36.7
					C167.5,279.7,165.1,282,162.2,282z"/>
				<g>
					<path class="st6" d="M155.7,276.1L155.7,276.1c-4.5,0-8.1-3.6-8.1-8.1v-19.2c0-4.5,3.6-8.1,8.1-8.1h0c4.5,0,8.1,3.6,8.1,8.1
						V268C163.8,272.5,160.2,276.1,155.7,276.1z"/>
					<rect x="147.5" y="249.5" class="st3" width="16.3" height="17.8"/>
				</g>
			</g>
		</g>
	</g>
	<g>
		<path class="st6" d="M604.1,340.3H429c-31,0-56.2-25.1-56.2-56.2V109.1c0-31,25.1-56.2,56.2-56.2h175.1c31,0,56.2,25.1,56.2,56.2
			v175.1C660.2,315.2,635.1,340.3,604.1,340.3z"/>
		<g>
			<circle class="st7" cx="692" cy="196.6" r="12.7"/>
			<path class="st7" d="M516.5,313c51.2,0,94.7-33.1,110.3-79.1H406.3C421.8,279.9,465.3,313,516.5,313z"/>
			<circle class="st7" cx="341" cy="196.6" r="12.7"/>
			<path class="st7" d="M516.5,80.2c-51.2,0-94.7,33.1-110.3,79.1h220.5C611.2,113.3,567.7,80.2,516.5,80.2z"/>
			<path class="st3" d="M385.9,210.6c-14-2.3-14.2-22.4-0.3-25.1l0,0c11.5-2.2,14.1-17.5,4.1-23.4c-1.4-0.8-2.5-1.8-3.4-2.9h-40.5
				c-20.6,0-37.4,16.7-37.4,37.4v0c0,20.6,16.7,37.4,37.4,37.4h44.8C400.4,227.7,397.4,212.6,385.9,210.6z M341,209.3
				c-7,0-12.7-5.7-12.7-12.7c0-7,5.7-12.7,12.7-12.7c7,0,12.7,5.7,12.7,12.7C353.7,203.6,348,209.3,341,209.3z"/>
			<path class="st3" d="M687.3,159.2h-37.9c9.8,3.9,11.2,19.2-0.2,23.7c-10.9,4.3-10.7,19.8,0.3,23.8c13.3,4.9,9.9,24.6-4.3,24.7
				c-3,0-5.6,1-7.6,2.6h49.8c20.6,0,37.4-16.7,37.4-37.4v0C724.6,176,707.9,159.2,687.3,159.2z M692,209.3c-7,0-12.7-5.7-12.7-12.7
				c0-7,5.7-12.7,12.7-12.7c7,0,12.7,5.7,12.7,12.7C704.8,203.6,699.1,209.3,692,209.3z"/>
			<path class="st3" d="M516.5,80.2c51.2,0,94.7,33.1,110.3,79.1h22.6c-1.5-0.6-3.2-0.9-5.1-0.9c-11.7,0.2-17.5-14.1-8.9-22.1
				c10.4-9.6-0.3-26.5-13.5-21.1c-10.8,4.4-21.4-6.9-16.3-17.4c6.2-12.7-9.9-24.6-20.2-14.8v0c-8.5,8-22.4,1.3-21.4-10.3
				c1.2-14.1-18.1-19.4-24.2-6.6c-5,10.6-20.4,9.3-23.7-1.9c-4-13.6-23.9-11.5-24.9,2.6c-0.9,11.7-15.7,16.1-22.8,6.8
				c-8.6-11.3-26.4-2.1-22.3,11.4v0c3.4,11.2-8.8,20.7-18.8,14.6c-12.1-7.4-25.4,7.6-16.6,18.7v0c7.2,9.2-0.8,22.5-12.3,20.4
				c-12.4-2.2-19.2,12.2-12.2,20.6h20C421.8,113.3,465.3,80.2,516.5,80.2z"/>
			<path class="st3" d="M516.5,313c-51.2,0-94.7-33.1-110.3-79.1h-15.7c0,0,0,0,0,0v0c-12,7.5-4.5,26.1,9.3,23.2v0
				c11.5-2.4,19.8,10.7,12.8,20.1c-8.5,11.4,5.2,26,17.1,18.3v0c9.8-6.3,22.3,2.8,19.2,14.1v0c-3.8,13.7,14.2,22.4,22.6,10.9
				c6.9-9.5,21.8-5.4,23,6.2c1.4,14.1,21.3,15.7,25,2c3-11.3,18.4-12.9,23.7-2.5v0c6.4,12.7,25.6,6.9,24-7.2
				c-1.3-11.6,12.5-18.7,21.2-10.9h0c10.5,9.5,26.4-2.8,19.8-15.3c-5.4-10.4,4.9-21.9,15.8-17.8c13.3,5,23.6-12.1,12.9-21.5v0
				c-6.5-5.7-5.2-15.2,0.7-19.7h-10.7C611.2,279.9,567.7,313,516.5,313z"/>
			<path class="st3" d="M649.4,206.7c-11-4-11.2-19.5-0.3-23.8c11.4-4.5,10-19.8,0.2-23.7h-22.6c4,11.7,6.2,24.3,6.2,37.4
				s-2.2,25.6-6.2,37.4h10.7c2-1.6,4.6-2.6,7.6-2.6C659.3,231.3,662.7,211.6,649.4,206.7z"/>
			<path class="st3" d="M400.1,196.6c0-13.1,2.2-25.6,6.2-37.4h-20c0.9,1.1,2,2.1,3.4,2.9c10.1,6,7.4,21.2-4.1,23.4l0,0
				c-13.9,2.7-13.7,22.7,0.3,25.1c11.5,1.9,14.6,17.1,4.7,23.3h15.7C402.3,222.2,400.1,209.7,400.1,196.6z"/>
		</g>
	</g>
</g>
</svg>
