<?xml version="1.0" encoding="utf-8"?>
<!-- Generator: Adobe Illustrator 22.0.0, SVG Export Plug-In . SVG Version: 6.00 Build 0)  -->
<svg version="1.1" id="图层_1" xmlns="http://www.w3.org/2000/svg" xmlns:xlink="http://www.w3.org/1999/xlink" x="0px" y="0px"
	 viewBox="0 0 440 366" style="enable-background:new 0 0 440 366;" xml:space="preserve">
<style type="text/css">
	.st0{clip-path:url(#SVGID_2_);fill:#FFFFFF;}
	.st1{fill:none;stroke:#FFFFFF;stroke-width:19.0706;stroke-miterlimit:10;}
	.st2{fill:none;stroke:#FFFFFF;stroke-width:20.0641;stroke-miterlimit:10;}
	.st3{fill:#FFFFFF;}
</style>
<g>
	<g>
		<g>
			<g>
				<g>
					<defs>
						<rect id="SVGID_1_" x="154.4" y="155.6" width="134.3" height="130.2"/>
					</defs>
					<clipPath id="SVGID_2_">
						<use xlink:href="#SVGID_1_"  style="overflow:visible;"/>
					</clipPath>
					<path class="st0" d="M280.8,193.9c2.6-7.1,3.7-13.5,3.5-19.1c-0.3-6.1-2.3-11-5.9-14.6c-7.2-7.1-25.7-5.8-46.1,3.1
						c-1.4-0.1-2.8-0.1-4.4-0.1c-7,0-13.8,1.2-20.3,3.5c-6.3,2.2-12.1,5.4-17.4,9.7c-10.4,8.3-18.1,20-21.3,32.9l-1.2,4.5l2.8-3.6
						c7.6-9.7,15.2-16.6,24.1-21.9l-4,4c-7.7,7.7-14.7,16.5-20.4,25.8c-5.2,8.4-9.3,17.3-12.1,25.7c-2.6,8-4,15.5-3.9,21.8
						c0.1,6.4,1.7,11.4,4.5,14.2c3.9,4,9.4,5.9,16,5.9c7.2,0,16-2.3,25.8-7.1c8.4,4.3,17.5,6.3,27.1,6.3c25.9,0,49-16.5,57.4-41
						l0.4-1.3h-34.2v0.3c-4.4,8.1-13,13.3-22.3,13.3s-17.8-5-22.3-13.3c-0.7-1.4-1.3-2.8-1.8-4.3c-1.1-3.4,1.4-6.8,4.9-6.8H288
						l0.1-0.9c0.3-2.2,0.4-4.5,0.4-6.8C288.7,213.4,286,203,280.8,193.9L280.8,193.9z M171.6,246.4c4,10.1,10.6,18.8,19.1,25.4
						c1.9,1.4,1.3,4.4-1,5.2c-3.7,1.2-7,1.9-10,2.1c-4.8,0.4-8.4-0.8-10.8-3.1C164,271,165,260.3,171.6,246.4L171.6,246.4z
						 M277.7,189.1c-3.2-4.5-7-8.6-11.2-12.1c-4.3-3.5-8.8-6.3-13.8-8.5c11.2-4.4,19.7-4.5,24.1-0.1
						C280.6,172.2,281,179.4,277.7,189.1L277.7,189.1z M210.6,214c-3.7,0-6.2-3.7-4.8-7.1c3.7-8.7,12.3-14.7,22.2-14.7
						s18.5,6.1,22.2,14.7c1.4,3.4-1.2,7.1-4.8,7.1H210.6z"/>
				</g>
			</g>
		</g>
		<path class="st1" d="M377.6,349.1h-312c-26.5,0-48-21.5-48-48V117.5c0-0.2,0.1-0.3,0.3-0.3h407.4c0.2,0,0.3,0.1,0.3,0.3v183.6
			C425.6,327.6,404.1,349.1,377.6,349.1z"/>
	</g>
	<path class="st2" d="M425.6,76.8h-408v-16C17.6,38.2,35.9,20,58.4,20h326.4c22.5,0,40.8,18.3,40.8,40.8L425.6,76.8L425.6,76.8z"/>
	<circle class="st3" cx="63.8" cy="47.3" r="9.8"/>
	<circle class="st3" cx="92.6" cy="47.3" r="9.8"/>
	<circle class="st3" cx="121.3" cy="47.3" r="9.8"/>
</g>
</svg>
