<?xml version="1.0" encoding="utf-8"?>
<!-- Generator: Adobe Illustrator 22.0.0, SVG Export Plug-In . SVG Version: 6.00 Build 0)  -->
<svg version="1.1" id="图层_1" xmlns="http://www.w3.org/2000/svg" xmlns:xlink="http://www.w3.org/1999/xlink" x="0px" y="0px"
	 viewBox="0 0 740 400" style="enable-background:new 0 0 740 400;" xml:space="preserve">
<style type="text/css">
	.st0{fill:none;stroke:#FFFFFF;stroke-width:12;stroke-miterlimit:10;}
	.st1{fill:#FFFFFF;}
	.st2{fill:none;stroke:#FFFFFF;stroke-width:16.788;stroke-miterlimit:10;}
	.st3{fill:none;stroke:#FFFFFF;stroke-width:8.394;stroke-miterlimit:10;}
	.st4{fill:none;stroke:#FFFFFF;stroke-width:18.563;stroke-miterlimit:10;}
	.st5{fill:none;stroke:#FFFFFF;stroke-width:17.7244;stroke-miterlimit:10;}
	.st6{fill:none;stroke:#FFFFFF;stroke-width:6.606;stroke-miterlimit:10;}
	.st7{fill:none;stroke:#FFFFFF;stroke-width:13.7935;stroke-miterlimit:10;}
	.st8{fill:none;stroke:#FFFFFF;stroke-width:6.8968;stroke-miterlimit:10;}
	.st9{fill:none;stroke:#FFFFFF;stroke-width:3.9443;stroke-miterlimit:10;}
	.st10{opacity:0.8;fill:#FFFFFF;}
	.st11{opacity:0.8;}
	.st12{fill:none;stroke:#FFFFFF;stroke-width:2.0522;stroke-miterlimit:10;}
	.st13{fill:none;stroke:#FFFFFF;stroke-width:1.8508;stroke-miterlimit:10;}
	.st14{opacity:0.3;fill:#FFFFFF;}
	.st15{fill:none;stroke:#FFFFFF;stroke-width:2.2492;stroke-miterlimit:10;}
	.st16{fill:none;stroke:#FFFFFF;stroke-width:16.4253;stroke-miterlimit:10;}
	.st17{fill:none;stroke:#FFFFFF;stroke-width:1.4498;stroke-miterlimit:10;}
	.st18{fill:none;stroke:#FFFFFF;stroke-width:2.1517;stroke-miterlimit:10;}
	.st19{fill:none;stroke:#FFFFFF;stroke-width:1.3869;stroke-miterlimit:10;}
	.st20{fill:none;stroke:#FFFFFF;stroke-width:3.0006;stroke-miterlimit:10;}
	.st21{fill:none;stroke:#FFFFFF;stroke-width:1.9341;stroke-miterlimit:10;}
	.st22{fill:none;stroke:#FFFFFF;stroke-width:2.3228;stroke-miterlimit:10;}
	.st23{fill:none;stroke:#FFFFFF;stroke-width:1.4972;stroke-miterlimit:10;}
	.st24{fill:none;stroke:#FFFFFF;stroke-width:2.8056;stroke-miterlimit:10;}
	.st25{fill:none;stroke:#FFFFFF;stroke-width:1.8084;stroke-miterlimit:10;}
	.st26{fill:none;stroke:#FFFFFF;stroke-width:2.2939;stroke-miterlimit:10;}
	.st27{fill:none;stroke:#FFFFFF;stroke-width:1.4786;stroke-miterlimit:10;}
	.st28{opacity:0.6;fill:#FFFFFF;}
	.st29{fill:none;stroke:#FFFFFF;stroke-width:1.8811;stroke-miterlimit:10;}
	.st30{fill:none;stroke:#FFFFFF;stroke-width:4.4984;stroke-miterlimit:10;}
	.st31{fill:none;stroke:#FFFFFF;stroke-width:3.5292;stroke-linecap:round;stroke-linejoin:round;stroke-miterlimit:10;}
	.st32{fill:none;stroke:#FFFFFF;stroke-width:3.9619;stroke-miterlimit:10;}
	.st33{fill:none;stroke:#FFFFFF;stroke-width:7.9239;stroke-linecap:round;stroke-linejoin:round;stroke-miterlimit:10;}
</style>
<g>
	<path class="st0" d="M-1926.9-4685h-15.6c-4.1,0-7.4-3.3-7.4-7.4v-58.1c0-4.1,3.3-7.4,7.4-7.4h15.6c4.1,0,7.4,3.3,7.4,7.4v58.1
		C-1919.5-4688.3-1922.8-4685-1926.9-4685z"/>
	<path class="st1" d="M-2110.1-4814.7h-256.6c-3.4,0-6.1-2.7-6.1-6.1c0-3.4,2.7-6.1,6.1-6.1h256.6c3.4,0,6.1,2.7,6.1,6.1
		C-2104.1-4817.5-2106.8-4814.7-2110.1-4814.7"/>
	<path class="st1" d="M-2087.4-4820.8c0,4.6-3.7,8.3-8.3,8.3c-4.6,0-8.3-3.7-8.3-8.3s3.7-8.3,8.3-8.3
		C-2091.1-4829.2-2087.4-4825.4-2087.4-4820.8"/>
	<path class="st1" d="M-2110.1-4792h-256.6c-3.4,0-6.1-2.7-6.1-6.1s2.7-6.1,6.1-6.1h256.6c3.4,0,6.1,2.7,6.1,6.1
		S-2106.8-4792-2110.1-4792"/>
	<path class="st1" d="M-2087.4-4798c0,4.6-3.7,8.3-8.3,8.3c-4.6,0-8.3-3.7-8.3-8.3s3.7-8.3,8.3-8.3
		C-2091.1-4806.4-2087.4-4802.7-2087.4-4798"/>
	<path class="st1" d="M-2110.1-4769.2h-256.6c-3.4,0-6.1-2.7-6.1-6.1s2.7-6.1,6.1-6.1h256.6c3.4,0,6.1,2.7,6.1,6.1
		S-2106.8-4769.2-2110.1-4769.2"/>
	<path class="st1" d="M-2087.4-4775.3c0,4.6-3.7,8.3-8.3,8.3c-4.6,0-8.3-3.7-8.3-8.3c0-4.6,3.7-8.4,8.3-8.4
		C-2091.1-4783.6-2087.4-4779.9-2087.4-4775.3"/>
	<path class="st1" d="M-2110.1-4746.4h-256.6c-3.4,0-6.1-2.7-6.1-6.1s2.7-6.1,6.1-6.1h256.6c3.4,0,6.1,2.7,6.1,6.1
		S-2106.8-4746.4-2110.1-4746.4"/>
	<path class="st1" d="M-2087.4-4752.5c0,4.6-3.7,8.4-8.3,8.4c-4.6,0-8.3-3.7-8.3-8.4c0-4.6,3.7-8.3,8.3-8.3
		C-2091.1-4760.9-2087.4-4757.1-2087.4-4752.5"/>
	<path class="st1" d="M-2110.1-4723.7h-256.6c-3.4,0-6.1-2.7-6.1-6.1s2.7-6.1,6.1-6.1h256.6c3.4,0,6.1,2.7,6.1,6.1
		S-2106.8-4723.7-2110.1-4723.7"/>
	<path class="st1" d="M-2087.4-4729.7c0,4.6-3.7,8.3-8.3,8.3c-4.6,0-8.3-3.7-8.3-8.3c0-4.6,3.7-8.3,8.3-8.3
		C-2091.1-4738.1-2087.4-4734.3-2087.4-4729.7"/>
	<path class="st1" d="M-2110.1-4700.9h-256.6c-3.4,0-6.1-2.7-6.1-6.1c0-3.4,2.7-6.1,6.1-6.1h256.6c3.4,0,6.1,2.7,6.1,6.1
		C-2104.1-4703.6-2106.8-4700.9-2110.1-4700.9"/>
	<path class="st1" d="M-2087.4-4707c0,4.6-3.7,8.3-8.3,8.3c-4.6,0-8.3-3.7-8.3-8.3s3.7-8.3,8.3-8.3
		C-2091.1-4715.3-2087.4-4711.6-2087.4-4707"/>
	<path class="st1" d="M-2110.1-4678.1h-256.6c-3.4,0-6.1-2.7-6.1-6.1c0-3.4,2.7-6.1,6.1-6.1h256.6c3.4,0,6.1,2.7,6.1,6.1
		C-2104.1-4680.8-2106.8-4678.1-2110.1-4678.1"/>
	<path class="st1" d="M-2087.4-4684.2c0,4.6-3.7,8.3-8.3,8.3c-4.6,0-8.3-3.7-8.3-8.3c0-4.6,3.7-8.3,8.3-8.3
		C-2091.1-4692.5-2087.4-4688.8-2087.4-4684.2"/>
	<path class="st1" d="M-2110.1-4655.4h-256.6c-3.4,0-6.1-2.7-6.1-6.1s2.7-6.1,6.1-6.1h256.6c3.4,0,6.1,2.7,6.1,6.1
		S-2106.8-4655.4-2110.1-4655.4"/>
	<path class="st1" d="M-2087.4-4661.4c0,4.6-3.7,8.3-8.3,8.3c-4.6,0-8.3-3.7-8.3-8.3c0-4.6,3.7-8.3,8.3-8.3
		C-2091.1-4669.8-2087.4-4666-2087.4-4661.4"/>
	<path class="st1" d="M-2110.1-4632.6h-256.6c-3.4,0-6.1-2.7-6.1-6.1s2.7-6.1,6.1-6.1h256.6c3.4,0,6.1,2.7,6.1,6.1
		S-2106.8-4632.6-2110.1-4632.6"/>
	<path class="st1" d="M-2087.4-4638.7c0,4.6-3.7,8.3-8.3,8.3c-4.6,0-8.3-3.7-8.3-8.3c0-4.6,3.7-8.3,8.3-8.3
		C-2091.1-4647-2087.4-4643.3-2087.4-4638.7"/>
	<path class="st2" d="M-1855.3-4797.2h24.5v-18.8c0-5.4,4.4-9.7,9.7-9.7h89.6c5.4,0,9.7,4.4,9.7,9.7v189.1c0,5.4-4.4,9.7-9.7,9.7
		h-89.6c-5.4,0-9.7-4.4-9.7-9.7v-18.8h-24.5c-5.4,0-9.7-4.4-9.7-9.7v-132.1C-1865.1-4792.8-1860.7-4797.2-1855.3-4797.2z"/>
	<path class="st3" d="M-1785.4-4777.2h14.2c2,0,3.6-1.6,3.6-3.6v-14.2c0-2-1.6-3.6-3.6-3.6h-14.2c-2,0-3.6,1.6-3.6,3.6v14.2
		C-1789-4778.8-1787.4-4777.2-1785.4-4777.2z"/>
	<path class="st3" d="M-1785.4-4732.9h14.2c2,0,3.6-1.6,3.6-3.6v-14.2c0-2-1.6-3.6-3.6-3.6h-14.2c-2,0-3.6,1.6-3.6,3.6v14.2
		C-1789-4734.5-1787.4-4732.9-1785.4-4732.9z"/>
	<path class="st3" d="M-1785.4-4688.6h14.2c2,0,3.6-1.6,3.6-3.6v-14.2c0-2-1.6-3.6-3.6-3.6h-14.2c-2,0-3.6,1.6-3.6,3.6v14.2
		C-1789-4690.2-1787.4-4688.6-1785.4-4688.6z"/>
	<path class="st3" d="M-1785.4-4644.2h14.2c2,0,3.6-1.6,3.6-3.6v-14.2c0-2-1.6-3.6-3.6-3.6h-14.2c-2,0-3.6,1.6-3.6,3.6v14.2
		C-1789-4645.8-1787.4-4644.2-1785.4-4644.2z"/>
	<path class="st4" d="M-1731.8-4562.1h-625.5c-22.6,0-40.9-18.3-40.9-40.9v-261.7c0-22.6,18.3-40.9,40.9-40.9h625.5
		c22.6,0,40.9,18.3,40.9,40.9v261.7C-1690.9-4580.4-1709.2-4562.1-1731.8-4562.1z"/>
</g>
<g>
	<g>
		<g>
			<path class="st5" d="M144.1,132.2l-17.3,0.1l-0.1-14.4c0-4.1-3.1-7.4-6.9-7.4l-63,0.5c-3.8,0-6.8,3.4-6.8,7.5l1.2,144.6
				c0,4.1,3.1,7.4,6.9,7.4l63-0.5c3.8,0,6.8-3.4,6.8-7.5l-0.1-14.4l17.3-0.1c3.8,0,6.8-3.4,6.8-7.5L151,139.6
				C151,135.5,147.9,132.2,144.1,132.2z"/>
			<path class="st6" d="M93.6,147.9l-7.2,0.1c-2.2,0-3.9-1.7-3.9-3.9l-0.1-8.5c0-2.2,1.7-3.9,3.9-3.9l7.2-0.1c2.2,0,3.9,1.7,3.9,3.9
				l0.1,8.5C97.5,146.1,95.8,147.9,93.6,147.9z"/>
			<path class="st6" d="M93.9,181.8l-7.2,0.1c-2.2,0-3.9-1.7-3.9-3.9l-0.1-8.5c0-2.2,1.7-3.9,3.9-3.9l7.2-0.1c2.2,0,3.9,1.7,3.9,3.9
				l0.1,8.5C97.8,180,96.1,181.8,93.9,181.8z"/>
			<path class="st6" d="M94.2,215.7l-7.2,0.1c-2.2,0-3.9-1.7-3.9-3.9l-0.1-8.5c0-2.2,1.7-3.9,3.9-3.9l7.2-0.1c2.2,0,3.9,1.7,3.9,3.9
				l0.1,8.5C98.1,213.9,96.3,215.7,94.2,215.7z"/>
			<path class="st6" d="M94.5,249.7l-7.2,0.1c-2.2,0-3.9-1.7-3.9-3.9l-0.1-8.5c0-2.2,1.7-3.9,3.9-3.9l7.2-0.1c2.2,0,3.9,1.7,3.9,3.9
				l0.1,8.5C98.4,247.9,96.6,249.6,94.5,249.7z"/>
		</g>
		<g>
			<path class="st7" d="M635.8,145.2l7,0.1l0.1-20l43.2,0.4c3.8,0,6.8,5.5,6.8,12.2l-0.3,109.7c0,6.7-3.1,12.1-6.9,12.1l-43.2-0.4
				l0.1-20l-7-0.1c-4,0-7.2-5.8-7.2-12.9l0.2-68.3C628.5,150.8,631.8,145.1,635.8,145.2z"/>
			<g>
				<path class="st8" d="M673.2,182.6l-7.9-0.1c-0.7,0-1.2-0.9-1.2-2l0-14.4c0-1.1,0.5-2,1.2-1.9l7.9,0.1c0.7,0,1.2,0.9,1.2,2
					l0,14.4C674.4,181.8,673.9,182.6,673.2,182.6z"/>
				<path class="st8" d="M673.1,220.7l-7.9-0.1c-0.7,0-1.2-0.9-1.2-2l0-14.4c0-1.1,0.5-2,1.2-1.9l7.9,0.1c0.7,0,1.2,0.9,1.2,2
					l0,14.4C674.3,219.8,673.8,220.7,673.1,220.7z"/>
			</g>
		</g>
		<path class="st9" d="M233.1,59l19.1,0c5.5,0,9.9,2.9,9.9,6.5l0,77.3c0,3.6-4.5,6.4-9.9,6.4l-19.1,0c-5.5,0-9.9-2.9-9.9-6.5l0-77.3
			C223.2,61.8,227.6,59,233.1,59z"/>
		<path class="st10" d="M233.1,72.1l19.1,0c5.5,0,9.9,2.9,9.9,6.5l0,51.1c0,3.6-4.5,6.4-9.9,6.4l-19.1,0c-5.5,0-9.9-2.9-9.9-6.5
			l0-51.1C223.2,74.9,227.6,72.1,233.1,72.1z"/>
		<g class="st11">
			<path class="st1" d="M235.2,68.6c0,2.4,3,4.4,6.8,4.4c3.7,0,6.8-2,6.8-4.4c0-1.6-1.3-3-3.3-3.8l2.9-5.8l-12.8,0.2l3.9,5.2
				C237,65.1,235.2,66.7,235.2,68.6z"/>
			<path class="st1" d="M236.5,139.6c0-2.4,3-4.4,6.7-4.4c3.7,0,6.8,1.9,6.8,4.4c0,1.6-1.3,3-3.3,3.8l3,5.8l-12.8-0.2l3.8-5.3
				C238.4,143.1,236.6,141.5,236.5,139.6z"/>
		</g>
		<g class="st11">
			<path class="st12" d="M353.4,59l9.8,0c2.8,0,5.1,1.5,5.1,3.4l0,40.7c0,1.9-2.3,3.4-5.1,3.4l-9.8,0c-2.8,0-5.1-1.5-5.1-3.4l0-40.7
				C348.3,60.5,350.6,59,353.4,59z"/>
			<path class="st1" d="M353.4,65.9l9.8,0c2.8,0,5.1,1.5,5.1,3.4l0,26.9c0,1.9-2.3,3.4-5.1,3.4l-9.8,0c-2.8,0-5.1-1.5-5.1-3.4
				l0-26.9C348.3,67.4,350.6,65.9,353.4,65.9z"/>
			<g class="st11">
				<path class="st1" d="M354.5,64.1c0,1.3,1.6,2.3,3.5,2.3c1.9,0,3.5-1,3.5-2.3c0-0.8-0.7-1.6-1.7-2l1.5-3.1l-6.6,0.1l2,2.8
					C355.4,62.3,354.5,63.1,354.5,64.1z"/>
				<path class="st1" d="M355.2,101.5c0-1.3,1.5-2.3,3.5-2.3c1.9,0,3.5,1,3.5,2.3c0,0.8-0.7,1.6-1.7,2l1.5,3.1l-6.6-0.1l2-2.8
					C356.2,103.3,355.2,102.5,355.2,101.5z"/>
			</g>
		</g>
		<g class="st11">
			<path class="st13" d="M383.5,61.4l8,0c2.3,0,4.2,1.5,4.2,3.4l0,40.7c0,1.9-1.9,3.4-4.2,3.4l-8,0c-2.3,0-4.2-1.5-4.2-3.4l0-40.7
				C379.4,62.9,381.3,61.4,383.5,61.4z"/>
			<path class="st1" d="M383.5,68.3l8,0c2.3,0,4.2,1.5,4.2,3.4l0,26.9c0,1.9-1.9,3.4-4.2,3.4l-8,0c-2.3,0-4.2-1.5-4.2-3.4l0-26.9
				C379.4,69.8,381.3,68.3,383.5,68.3z"/>
			<g class="st11">
				<path class="st1" d="M384.4,66.5c0,1.3,1.3,2.3,2.8,2.3s2.8-1,2.8-2.3c0-0.8-0.6-1.6-1.4-2l1.2-3.1l-5.3,0.1l1.6,2.8
					C385.2,64.6,384.4,65.5,384.4,66.5z"/>
				<path class="st1" d="M385,103.9c0-1.3,1.2-2.3,2.8-2.3c1.6,0,2.8,1,2.9,2.3c0,0.8-0.5,1.6-1.4,2l1.3,3.1l-5.3-0.1l1.6-2.8
					C385.8,105.7,385,104.9,385,103.9z"/>
			</g>
		</g>
		<rect x="388.4" y="110.9" class="st14" width="141.8" height="180.5"/>
		<rect x="388.4" y="110.9" class="st15" width="141.8" height="180.5"/>
		<rect x="401.6" y="123.1" class="st16" width="115.4" height="156.1"/>
		<path class="st10" d="M484.5,250.6h-53.6c-4,0-7.2-3.2-7.2-7.2v-83.2c0-4,3.2-7.2,7.2-7.2h53.6c4,0,7.2,3.2,7.2,7.2v83.2
			C491.7,247.4,488.5,250.6,484.5,250.6z"/>
		<rect x="273.1" y="53.1" class="st14" width="64.3" height="51.5"/>
		<rect x="325.2" y="53.1" class="st1" width="12.2" height="51.5"/>
		<g>
			<rect x="405.8" y="56.5" class="st10" width="16.4" height="16.4"/>
			<rect x="432.6" y="56.5" class="st10" width="16.4" height="16.4"/>
		</g>
		<rect x="405.8" y="73" class="st1" width="43.2" height="21"/>
		<g>
			<rect x="268.4" y="108.9" class="st15" width="46" height="23.4"/>
			<g class="st11">
				<path class="st17" d="M311.2,116.3l0,5.9c0,1.7-1.3,3.1-2.8,3.1l-34,0c-1.6,0-2.8-1.4-2.8-3.1l0-5.9c0-1.7,1.3-3.1,2.8-3.1l34,0
					C309.9,113.2,311.2,114.6,311.2,116.3z"/>
				<path class="st1" d="M305.4,116.3l0,5.9c0,1.7-1.3,3.1-2.8,3.1l-22.5,0c-1.6,0-2.8-1.4-2.8-3.1l0-5.9c0-1.7,1.3-3.1,2.8-3.1
					l22.5,0C304.2,113.2,305.4,114.6,305.4,116.3z"/>
				<g class="st11">
					<path class="st1" d="M307,116.9c-1.1,0-1.9,0.9-1.9,2.1c0,1.2,0.9,2.1,1.9,2.1c0.7,0,1.3-0.4,1.7-1l2.6,0.9l-0.1-3.9l-2.3,1.2
						C308.5,117.5,307.8,116.9,307,116.9z"/>
					<path class="st1" d="M275.7,117.3c1.1,0,1.9,0.9,1.9,2.1s-0.9,2.1-1.9,2.1c-0.7,0-1.3-0.4-1.7-1l-2.5,0.9l0.1-3.9l2.3,1.2
						C274.2,117.9,274.9,117.4,275.7,117.3z"/>
				</g>
			</g>
		</g>
		<g>
			<g>
				<rect x="169.7" y="297.1" class="st15" width="46" height="23.4"/>
				<g class="st11">
					<path class="st17" d="M212.5,304.5l0,5.9c0,1.7-1.3,3.1-2.8,3.1l-34,0c-1.6,0-2.8-1.4-2.8-3.1l0-5.9c0-1.7,1.3-3.1,2.8-3.1
						l34,0C211.2,301.5,212.5,302.8,212.5,304.5z"/>
					<path class="st1" d="M206.7,304.5l0,5.9c0,1.7-1.3,3.1-2.8,3.1l-22.5,0c-1.6,0-2.8-1.4-2.8-3.1l0-5.9c0-1.7,1.3-3.1,2.8-3.1
						l22.5,0C205.5,301.5,206.8,302.8,206.7,304.5z"/>
					<g class="st11">
						<path class="st1" d="M208.3,305.2c-1.1,0-1.9,0.9-1.9,2.1c0,1.2,0.9,2.1,1.9,2.1c0.7,0,1.3-0.4,1.7-1l2.6,0.9l-0.1-3.9
							l-2.3,1.2C209.8,305.7,209.1,305.2,208.3,305.2z"/>
						<path class="st1" d="M177,305.6c1.1,0,1.9,0.9,1.9,2.1c0,1.2-0.9,2.1-1.9,2.1c-0.7,0-1.3-0.4-1.7-1l-2.5,0.9l0.1-3.9l2.3,1.2
							C175.5,306.2,176.2,305.6,177,305.6z"/>
					</g>
				</g>
			</g>
			<g>
				<rect x="169.7" y="323.5" class="st15" width="46" height="23.4"/>
				<g class="st11">
					<path class="st17" d="M212.5,330.9l0,5.9c0,1.7-1.3,3.1-2.8,3.1l-34,0c-1.6,0-2.8-1.4-2.8-3.1l0-5.9c0-1.7,1.3-3.1,2.8-3.1
						l34,0C211.2,327.8,212.5,329.2,212.5,330.9z"/>
					<path class="st1" d="M206.7,330.9l0,5.9c0,1.7-1.3,3.1-2.8,3.1l-22.5,0c-1.6,0-2.8-1.4-2.8-3.1l0-5.9c0-1.7,1.3-3.1,2.8-3.1
						l22.5,0C205.5,327.8,206.8,329.2,206.7,330.9z"/>
					<g class="st11">
						<path class="st1" d="M208.3,331.5c-1.1,0-1.9,0.9-1.9,2.1c0,1.2,0.9,2.1,1.9,2.1c0.7,0,1.3-0.4,1.7-1l2.6,0.9l-0.1-3.9
							l-2.3,1.2C209.8,332.1,209.1,331.5,208.3,331.5z"/>
						<path class="st1" d="M177,331.9c1.1,0,1.9,0.9,1.9,2.1c0,1.2-0.9,2.1-1.9,2.1c-0.7,0-1.3-0.4-1.7-1l-2.5,0.9l0.1-3.9l2.3,1.2
							C175.5,332.5,176.2,331.9,177,331.9z"/>
					</g>
				</g>
			</g>
		</g>
		<g>
			
				<rect x="251.7" y="304.3" transform="matrix(4.086249e-11 -1 1 4.086249e-11 -40.2957 589.6084)" class="st18" width="46" height="21.4"/>
			<g class="st11">
				<path class="st19" d="M270.7,295.1l5.4,0c1.5,0,2.8,1.3,2.8,2.8l0,34c0,1.6-1.3,2.8-2.8,2.8l-5.4,0c-1.5,0-2.8-1.3-2.8-2.8l0-34
					C267.9,296.4,269.2,295.1,270.7,295.1z"/>
				<path class="st1" d="M270.7,300.9l5.4,0c1.5,0,2.8,1.3,2.8,2.8l0,22.5c0,1.6-1.3,2.8-2.8,2.8l-5.4,0c-1.5,0-2.8-1.3-2.8-2.8
					l0-22.5C267.9,302.1,269.2,300.9,270.7,300.9z"/>
				<g class="st11">
					<path class="st1" d="M271.3,299.3c0,1.1,0.9,1.9,1.9,1.9s1.9-0.9,1.9-1.9c0-0.7-0.4-1.3-0.9-1.7l0.8-2.6l-3.6,0.1l1.1,2.3
						C271.8,297.8,271.3,298.5,271.3,299.3z"/>
					<path class="st1" d="M271.7,330.6c0-1.1,0.8-1.9,1.9-1.9s1.9,0.9,1.9,1.9c0,0.7-0.4,1.3-0.9,1.7l0.8,2.5l-3.6-0.1l1.1-2.3
						C272.2,332.1,271.7,331.4,271.7,330.6z"/>
				</g>
			</g>
		</g>
		<g>
			
				<rect x="274.9" y="304.3" transform="matrix(4.086249e-11 -1 1 4.086249e-11 -17.0737 612.8303)" class="st18" width="46" height="21.4"/>
			<g class="st11">
				<path class="st19" d="M293.9,295.1l5.4,0c1.5,0,2.8,1.3,2.8,2.8l0,34c0,1.6-1.3,2.8-2.8,2.8l-5.4,0c-1.5,0-2.8-1.3-2.8-2.8l0-34
					C291.2,296.4,292.4,295.1,293.9,295.1z"/>
				<path class="st1" d="M293.9,300.9l5.4,0c1.5,0,2.8,1.3,2.8,2.8l0,22.5c0,1.6-1.3,2.8-2.8,2.8l-5.4,0c-1.5,0-2.8-1.3-2.8-2.8
					l0-22.5C291.2,302.1,292.4,300.9,293.9,300.9z"/>
				<g class="st11">
					<path class="st1" d="M294.5,299.3c0,1.1,0.9,1.9,1.9,1.9s1.9-0.9,1.9-1.9c0-0.7-0.4-1.3-0.9-1.7l0.8-2.6l-3.6,0.1l1.1,2.3
						C295,297.8,294.5,298.5,294.5,299.3z"/>
					<path class="st1" d="M294.9,330.6c0-1.1,0.8-1.9,1.9-1.9s1.9,0.9,1.9,1.9c0,0.7-0.4,1.3-0.9,1.7l0.8,2.5l-3.6-0.1l1.1-2.3
						C295.4,332.1,294.9,331.4,294.9,330.6z"/>
				</g>
			</g>
		</g>
		<g>
			
				<rect x="300.7" y="304.3" transform="matrix(4.109963e-11 -1 1 4.109963e-11 8.7776 638.6817)" class="st18" width="46" height="21.4"/>
			<g class="st11">
				<path class="st19" d="M319.8,295.1l5.4,0c1.5,0,2.8,1.3,2.8,2.8l0,34c0,1.6-1.3,2.8-2.8,2.8l-5.4,0c-1.5,0-2.8-1.3-2.8-2.8l0-34
					C317,296.4,318.3,295.1,319.8,295.1z"/>
				<path class="st1" d="M319.8,300.9l5.4,0c1.5,0,2.8,1.3,2.8,2.8l0,22.5c0,1.6-1.3,2.8-2.8,2.8l-5.4,0c-1.5,0-2.8-1.3-2.8-2.8
					l0-22.5C317,302.1,318.3,300.9,319.8,300.9z"/>
				<g class="st11">
					<path class="st1" d="M320.4,299.3c0,1.1,0.9,1.9,1.9,1.9s1.9-0.9,1.9-1.9c0-0.7-0.4-1.3-0.9-1.7l0.8-2.6l-3.6,0.1l1.1,2.3
						C320.9,297.8,320.4,298.5,320.4,299.3z"/>
					<path class="st1" d="M320.8,330.6c0-1.1,0.8-1.9,1.9-1.9c1.1,0,1.9,0.9,1.9,1.9c0,0.7-0.4,1.3-0.9,1.7l0.8,2.5l-3.6-0.1
						l1.1-2.3C321.3,332.1,320.8,331.4,320.8,330.6z"/>
				</g>
			</g>
		</g>
		<g>
			<g>
				
					<rect x="310.1" y="216.1" transform="matrix(4.477847e-11 -1 1 4.477847e-11 105.3509 560.8665)" class="st15" width="46" height="23.4"/>
				<g class="st11">
					<path class="st17" d="M328.8,207.9l5.9,0c1.7,0,3.1,1.3,3.1,2.8l0,34c0,1.6-1.4,2.8-3.1,2.8l-5.9,0c-1.7,0-3.1-1.3-3.1-2.8
						l0-34C325.8,209.2,327.1,207.9,328.8,207.9z"/>
					<path class="st1" d="M328.8,213.7l5.9,0c1.7,0,3.1,1.3,3.1,2.8l0,22.5c0,1.6-1.4,2.8-3.1,2.8l-5.9,0c-1.7,0-3.1-1.3-3.1-2.8
						l0-22.5C325.8,214.9,327.1,213.7,328.8,213.7z"/>
					<g class="st11">
						<path class="st1" d="M329.5,212.1c0,1.1,0.9,1.9,2.1,1.9c1.2,0,2.1-0.9,2.1-1.9c0-0.7-0.4-1.3-1-1.7l0.9-2.6l-3.9,0.1l1.2,2.3
							C330,210.6,329.5,211.3,329.5,212.1z"/>
						<path class="st1" d="M329.9,243.4c0-1.1,0.9-1.9,2.1-1.9c1.2,0,2.1,0.9,2.1,1.9c0,0.7-0.4,1.3-1,1.7l0.9,2.5l-3.9-0.1l1.2-2.3
							C330.4,244.9,329.9,244.2,329.9,243.4z"/>
					</g>
				</g>
			</g>
			<g>
				
					<rect x="310.1" y="160.5" transform="matrix(4.477847e-11 -1 1 4.477847e-11 160.9193 505.2982)" class="st15" width="46" height="23.4"/>
				<g class="st11">
					<path class="st17" d="M328.8,152.4l5.9,0c1.7,0,3.1,1.3,3.1,2.8l0,34c0,1.6-1.4,2.8-3.1,2.8l-5.9,0c-1.7,0-3.1-1.3-3.1-2.8
						l0-34C325.8,153.6,327.1,152.4,328.8,152.4z"/>
					<path class="st1" d="M328.8,158.1l5.9,0c1.7,0,3.1,1.3,3.1,2.8l0,22.5c0,1.6-1.4,2.8-3.1,2.8l-5.9,0c-1.7,0-3.1-1.3-3.1-2.8
						l0-22.5C325.8,159.4,327.1,158.1,328.8,158.1z"/>
					<g class="st11">
						<path class="st1" d="M329.5,156.6c0,1.1,0.9,1.9,2.1,1.9c1.2,0,2.1-0.9,2.1-1.9c0-0.7-0.4-1.3-1-1.7l0.9-2.6l-3.9,0.1l1.2,2.3
							C330,155.1,329.5,155.8,329.5,156.6z"/>
						<path class="st1" d="M329.9,187.8c0-1.1,0.9-1.9,2.1-1.9c1.2,0,2.1,0.9,2.1,1.9c0,0.7-0.4,1.3-1,1.7l0.9,2.5l-3.9-0.1l1.2-2.3
							C330.4,189.3,329.9,188.6,329.9,187.8z"/>
					</g>
				</g>
			</g>
		</g>
		<g>
			
				<rect x="158.4" y="189.5" transform="matrix(4.481755e-11 -1 1 4.481755e-11 -19.7949 382.5315)" class="st15" width="46" height="23.4"/>
			<g class="st11">
				<path class="st17" d="M177.1,181.3l5.9,0c1.7,0,3.1,1.3,3.1,2.8l0,34c0,1.6-1.4,2.8-3.1,2.8l-5.9,0c-1.7,0-3.1-1.3-3.1-2.8l0-34
					C174,182.6,175.4,181.3,177.1,181.3z"/>
				<path class="st1" d="M177.1,187.1l5.9,0c1.7,0,3.1,1.3,3.1,2.8l0,22.5c0,1.6-1.4,2.8-3.1,2.8l-5.9,0c-1.7,0-3.1-1.3-3.1-2.8
					l0-22.5C174,188.3,175.4,187.1,177.1,187.1z"/>
				<g class="st11">
					<path class="st1" d="M177.7,185.5c0,1.1,0.9,1.9,2.1,1.9c1.2,0,2.1-0.9,2.1-1.9c0-0.7-0.4-1.3-1-1.7l0.9-2.6l-3.9,0.1l1.2,2.3
						C178.3,184,177.7,184.7,177.7,185.5z"/>
					<path class="st1" d="M178.1,216.8c0-1.1,0.9-1.9,2.1-1.9c1.2,0,2.1,0.9,2.1,1.9c0,0.7-0.4,1.3-1,1.7l0.9,2.5l-3.9-0.1l1.2-2.3
						C178.7,218.3,178.1,217.6,178.1,216.8z"/>
				</g>
			</g>
		</g>
		<g>
			
				<rect x="160.9" y="250.1" transform="matrix(4.887386e-11 -1 1 4.887386e-11 -76.1182 456.744)" class="st20" width="58.7" height="32.6"/>
			<g class="st11">
				<path class="st21" d="M184.3,241.1l8.2,0c2.4,0,4.3,1.6,4.3,3.6l0,43.4c0,2-1.9,3.6-4.3,3.6l-8.2,0c-2.4,0-4.3-1.6-4.3-3.6
					l0-43.4C180.1,242.7,182,241.1,184.3,241.1z"/>
				<path class="st1" d="M184.3,248.5l8.2,0c2.4,0,4.3,1.6,4.3,3.6l0,28.7c0,2-1.9,3.6-4.3,3.6l-8.2,0c-2.4,0-4.3-1.6-4.3-3.6
					l0-28.7C180.1,250.1,182,248.4,184.3,248.5z"/>
				<g class="st11">
					<path class="st1" d="M185.2,246.5c0,1.4,1.3,2.5,2.9,2.5c1.6,0,2.9-1.1,2.9-2.5c0-0.9-0.6-1.7-1.4-2.1l1.3-3.3l-5.5,0.1
						l1.7,2.9C186,244.5,185.2,245.4,185.2,246.5z"/>
					<path class="st1" d="M185.8,286.4c0-1.4,1.3-2.5,2.9-2.5c1.6,0,2.9,1.1,2.9,2.5c0,0.9-0.6,1.7-1.4,2.1l1.3,3.3l-5.5-0.1
						l1.6-2.9C186.6,288.3,185.8,287.4,185.8,286.4z"/>
				</g>
			</g>
		</g>
		<g>
			
				<rect x="195.4" y="262.1" transform="matrix(4.481755e-11 -1 1 4.481755e-11 -55.3032 492.1809)" class="st15" width="46" height="23.4"/>
			<g class="st11">
				<path class="st17" d="M214.1,253.9l5.9,0c1.7,0,3.1,1.3,3.1,2.8l0,34c0,1.6-1.4,2.8-3.1,2.8l-5.9,0c-1.7,0-3.1-1.3-3.1-2.8l0-34
					C211.1,255.2,212.5,253.9,214.1,253.9z"/>
				<path class="st1" d="M214.1,259.7l5.9,0c1.7,0,3.1,1.3,3.1,2.8l0,22.5c0,1.6-1.4,2.8-3.1,2.8l-5.9,0c-1.7,0-3.1-1.3-3.1-2.8
					l0-22.5C211.1,260.9,212.5,259.7,214.1,259.7z"/>
				<g class="st11">
					<path class="st1" d="M214.8,258.1c0,1.1,0.9,1.9,2.1,1.9c1.2,0,2.1-0.9,2.1-1.9c0-0.7-0.4-1.3-1-1.7l0.9-2.6l-3.9,0.1l1.2,2.3
						C215.3,256.6,214.8,257.3,214.8,258.1z"/>
					<path class="st1" d="M215.2,289.4c0-1.1,0.9-1.9,2.1-1.9s2.1,0.9,2.1,1.9c0,0.7-0.4,1.3-1,1.7l0.9,2.5l-3.9-0.1l1.2-2.3
						C215.8,290.9,215.2,290.2,215.2,289.4z"/>
				</g>
			</g>
		</g>
		<g>
			
				<rect x="224.2" y="259.6" transform="matrix(4.202334e-11 -1 1 4.202334e-11 -22.5242 520.0259)" class="st22" width="49" height="23.4"/>
			<g class="st11">
				<path class="st23" d="M244.5,250.1l5.9,0c1.7,0,3.1,1.4,3.1,3l0,36.2c0,1.7-1.4,3-3.1,3l-5.9,0c-1.7,0-3.1-1.4-3.1-3l0-36.2
					C241.4,251.5,242.8,250.1,244.5,250.1z"/>
				<path class="st1" d="M244.5,256.3l5.9,0c1.7,0,3.1,1.4,3.1,3l0,24c0,1.7-1.4,3-3.1,3l-5.9,0c-1.7,0-3.1-1.4-3.1-3l0-24
					C241.4,257.6,242.8,256.3,244.5,256.3z"/>
				<g class="st11">
					<path class="st1" d="M245.1,254.6c0,1.1,0.9,2.1,2.1,2.1s2.1-0.9,2.1-2.1c0-0.8-0.4-1.4-1-1.8l0.9-2.7l-3.9,0.1l1.2,2.5
						C245.6,253,245.1,253.7,245.1,254.6z"/>
					<path class="st1" d="M245.5,287.9c0-1.1,0.9-2.1,2.1-2.1s2.1,0.9,2.1,2c0,0.8-0.4,1.4-1,1.8l0.9,2.7l-3.9-0.1l1.2-2.5
						C246.1,289.6,245.5,288.8,245.5,287.9z"/>
				</g>
			</g>
		</g>
		<g>
			
				<rect x="318.5" y="301.1" transform="matrix(4.033846e-11 -1 1 4.033846e-11 33.8002 663.7043)" class="st24" width="60.5" height="27.6"/>
			<g class="st11">
				<path class="st25" d="M343.7,288.9l6.9,0c2,0,3.6,1.7,3.6,3.7l0,44.7c0,2.1-1.6,3.7-3.6,3.7l-6.9,0c-2,0-3.6-1.7-3.6-3.7l0-44.7
					C340.1,290.5,341.7,288.8,343.7,288.9z"/>
				<path class="st1" d="M343.7,296.4l6.9,0c2,0,3.6,1.7,3.6,3.7l0,29.6c0,2.1-1.6,3.7-3.6,3.7l-6.9,0c-2,0-3.6-1.7-3.6-3.7l0-29.6
					C340.1,298.1,341.7,296.4,343.7,296.4z"/>
				<g class="st11">
					<path class="st1" d="M344.4,294.4c0,1.4,1.1,2.5,2.5,2.6c1.4,0,2.5-1.1,2.5-2.5c0-0.9-0.5-1.7-1.2-2.2l1.1-3.4l-4.6,0.1l1.4,3
						C345.1,292.4,344.4,293.3,344.4,294.4z"/>
					<path class="st1" d="M344.9,335.5c0-1.4,1.1-2.6,2.4-2.6s2.5,1.1,2.5,2.5c0,0.9-0.5,1.7-1.2,2.2l1.1,3.4l-4.6-0.1l1.4-3
						C345.6,337.5,344.9,336.6,344.9,335.5z"/>
				</g>
			</g>
		</g>
		<g>
			
				<rect x="351.6" y="303.6" transform="matrix(4.096019e-11 -1 1 4.096019e-11 61.2136 691.1177)" class="st26" width="49.1" height="22.8"/>
			<g class="st11">
				<path class="st27" d="M372,293.8l5.7,0c1.6,0,3,1.4,3,3l0,36.3c0,1.7-1.3,3-3,3l-5.7,0c-1.6,0-3-1.4-3-3l0-36.3
					C369,295.1,370.3,293.8,372,293.8z"/>
				<path class="st1" d="M372,299.9l5.7,0c1.6,0,3,1.4,3,3l0,24c0,1.7-1.3,3-3,3l-5.7,0c-1.6,0-3-1.4-3-3l0-24
					C369,301.3,370.3,299.9,372,299.9z"/>
				<g class="st11">
					<path class="st1" d="M372.6,298.3c0,1.1,0.9,2.1,2,2.1s2-0.9,2-2.1c0-0.8-0.4-1.4-1-1.8l0.9-2.7l-3.8,0.1l1.2,2.5
						C373.1,296.7,372.6,297.4,372.6,298.3z"/>
					<path class="st1" d="M373,331.6c0-1.1,0.9-2.1,2-2.1s2,0.9,2.1,2c0,0.8-0.4,1.4-1,1.8l0.9,2.7l-3.8-0.1l1.1-2.5
						C373.6,333.2,373,332.5,373,331.6z"/>
				</g>
			</g>
		</g>
		<g>
			<path class="st28" d="M278,195.6v11.2c0,4.8-3.9,8.6-8.6,8.6h-38.5c-4.8,0-8.6-3.9-8.6-8.6v-11.2c0-4.8,3.9-8.6,8.6-8.6h38.5
				C274.2,186.9,278,190.8,278,195.6z"/>
			<path class="st29" d="M278,195.4v11.6c0,4.7-3.8,8.4-8.4,8.4h-38.9c-4.7,0-8.4-3.8-8.4-8.4v-11.6c0-4.7,3.8-8.4,8.4-8.4h38.9
				C274.3,186.9,278,190.7,278,195.4z"/>
			<g>
				<g>
					<path class="st1" d="M230.5,186.7v-4.1c0-0.2,0.2-0.3,0.4-0.3h0.4c0.2,0,0.4-0.1,0.4-0.3v-6.5c0-0.2,0.2-0.3,0.4-0.3h2.3
						c0.2,0,0.4,0.1,0.4,0.3v6.7c0,0.1-0.2,0.3-0.4,0.3l0,0c-0.2,0-0.4,0.1-0.4,0.3l0,3.9c0,0.2-0.2,0.3-0.4,0.3h-2.7
						C230.7,186.9,230.5,186.8,230.5,186.7z"/>
					<path class="st1" d="M242.7,186.7v-4.1c0-0.2,0.2-0.3,0.4-0.3h0.4c0.2,0,0.4-0.1,0.4-0.3v-6.5c0-0.2,0.2-0.3,0.4-0.3h2.3
						c0.2,0,0.4,0.1,0.4,0.3v6.7c0,0.1-0.2,0.3-0.4,0.3l0,0c-0.2,0-0.4,0.1-0.4,0.3l0,3.9c0,0.2-0.2,0.3-0.4,0.3H243
						C242.8,186.9,242.7,186.8,242.7,186.7z"/>
					<path class="st1" d="M254.8,186.7v-4.1c0-0.2,0.2-0.3,0.4-0.3h0.4c0.2,0,0.4-0.1,0.4-0.3v-6.5c0-0.2,0.2-0.3,0.4-0.3h2.3
						c0.2,0,0.4,0.1,0.4,0.3v6.7c0,0.1-0.2,0.3-0.4,0.3l0,0c-0.2,0-0.4,0.1-0.4,0.3l0,3.9c0,0.2-0.2,0.3-0.4,0.3h-2.7
						C255,186.9,254.8,186.8,254.8,186.7z"/>
					<path class="st1" d="M266.9,186.7v-4.1c0-0.2,0.2-0.3,0.4-0.3h0.4c0.2,0,0.4-0.1,0.4-0.3v-6.5c0-0.2,0.2-0.3,0.4-0.3h2.3
						c0.2,0,0.4,0.1,0.4,0.3v6.7c0,0.1-0.2,0.3-0.4,0.3l0,0c-0.2,0-0.4,0.1-0.4,0.3l0,3.9c0,0.2-0.2,0.3-0.4,0.3h-2.7
						C267.1,186.9,266.9,186.8,266.9,186.7z"/>
				</g>
				<g>
					<path class="st1" d="M230.5,215.7v4.1c0,0.2,0.2,0.3,0.4,0.3h0.4c0.2,0,0.4,0.1,0.4,0.3v6.5c0,0.2,0.2,0.3,0.4,0.3h2.3
						c0.2,0,0.4-0.1,0.4-0.3v-6.7c0-0.1-0.2-0.3-0.4-0.3l0,0c-0.2,0-0.4-0.1-0.4-0.3l0-3.9c0-0.2-0.2-0.3-0.4-0.3h-2.7
						C230.7,215.4,230.5,215.5,230.5,215.7z"/>
					<path class="st1" d="M242.7,215.7v4.1c0,0.2,0.2,0.3,0.4,0.3h0.4c0.2,0,0.4,0.1,0.4,0.3v6.5c0,0.2,0.2,0.3,0.4,0.3h2.3
						c0.2,0,0.4-0.1,0.4-0.3v-6.7c0-0.1-0.2-0.3-0.4-0.3l0,0c-0.2,0-0.4-0.1-0.4-0.3l0-3.9c0-0.2-0.2-0.3-0.4-0.3H243
						C242.8,215.4,242.7,215.5,242.7,215.7z"/>
					<path class="st1" d="M254.8,215.7v4.1c0,0.2,0.2,0.3,0.4,0.3h0.4c0.2,0,0.4,0.1,0.4,0.3v6.5c0,0.2,0.2,0.3,0.4,0.3h2.3
						c0.2,0,0.4-0.1,0.4-0.3v-6.7c0-0.1-0.2-0.3-0.4-0.3l0,0c-0.2,0-0.4-0.1-0.4-0.3l0-3.9c0-0.2-0.2-0.3-0.4-0.3h-2.7
						C255,215.4,254.8,215.5,254.8,215.7z"/>
					<path class="st1" d="M266.9,215.7v4.1c0,0.2,0.2,0.3,0.4,0.3h0.4c0.2,0,0.4,0.1,0.4,0.3v6.5c0,0.2,0.2,0.3,0.4,0.3h2.3
						c0.2,0,0.4-0.1,0.4-0.3v-6.7c0-0.1-0.2-0.3-0.4-0.3l0,0c-0.2,0-0.4-0.1-0.4-0.3l0-3.9c0-0.2-0.2-0.3-0.4-0.3h-2.7
						C267.1,215.4,266.9,215.5,266.9,215.7z"/>
				</g>
			</g>
		</g>
		<path class="st14" d="M208,154.2h-28.9c-5.5,0-9.9-4.4-9.9-9.9V91.5c0-5.5,4.4-9.9,9.9-9.9H208c5.5,0,9.9,4.4,9.9,9.9v52.8
			C218,149.8,213.5,154.2,208,154.2z"/>
		<path class="st1" d="M206,142.3h-24.8c-6.6,0-12-5.4-12-12v-24.8c0-6.6,5.4-12,12-12H206c6.6,0,12,5.4,12,12v24.8
			C218,136.9,212.6,142.3,206,142.3z"/>
		<g>
			<path class="st30" d="M610.6,298l-54.5-30.3c-3.5-1.9-3.5-6.9-0.1-8.9l53.5-32c3.4-2,7.7,0.4,7.8,4.3l1,62.4
				C618.3,297.4,614,300,610.6,298z"/>
			<polyline class="st31" points="579.3,266.4 597.5,251 594.2,270.1 612.3,258.7 			"/>
		</g>
		<circle class="st32" cx="585.5" cy="107.2" r="33.8"/>
		<circle class="st14" cx="585.5" cy="107.2" r="33.8"/>
		<line class="st33" x1="558.3" y1="89.6" x2="610.5" y2="127.4"/>
	</g>
	<path class="st4" d="M684.1,371.7H58.6c-22.6,0-40.9-18.3-40.9-40.9V69.1c0-22.6,18.3-40.9,40.9-40.9h625.5
		c22.6,0,40.9,18.3,40.9,40.9v261.7C725,353.4,706.7,371.7,684.1,371.7z"/>
</g>
</svg>
