<?xml version="1.0" encoding="utf-8"?>
<!-- Generator: Adobe Illustrator 22.0.0, SVG Export Plug-In . SVG Version: 6.00 Build 0)  -->
<svg version="1.1" id="图层_1" xmlns="http://www.w3.org/2000/svg" xmlns:xlink="http://www.w3.org/1999/xlink" x="0px" y="0px"
	 viewBox="0 0 740 400" style="enable-background:new 0 0 740 400;" xml:space="preserve">
<style type="text/css">
	.st0{fill:none;stroke:#FFFFFF;stroke-width:12;stroke-miterlimit:10;}
	.st1{fill:#FFFFFF;}
	.st2{fill:none;stroke:#FFFFFF;stroke-width:16.788;stroke-miterlimit:10;}
	.st3{fill:none;stroke:#FFFFFF;stroke-width:8.394;stroke-miterlimit:10;}
	.st4{fill:none;stroke:#FFFFFF;stroke-width:18.563;stroke-miterlimit:10;}
	.st5{fill:none;stroke:#FFFFFF;stroke-width:19.762;stroke-miterlimit:10;}
	.st6{fill:none;stroke:#FFFFFF;stroke-width:7.365;stroke-miterlimit:10;}
	.st7{opacity:0.8;}
	.st8{clip-path:url(#SVGID_2_);fill:#FFFFFF;}
	.st9{fill:none;stroke:#FFFFFF;stroke-width:6.094;stroke-linecap:round;stroke-linejoin:round;stroke-miterlimit:10;}
	.st10{fill:none;stroke:#FFFFFF;stroke-width:6.413;stroke-miterlimit:10;}
	.st11{fill:none;stroke:#FFFFFF;stroke-width:4.192;stroke-miterlimit:10;}
	.st12{opacity:0.3;}
	.st13{clip-path:url(#SVGID_4_);fill:#FFFFFF;}
	.st14{fill:none;stroke:#FFFFFF;stroke-width:21.555;stroke-miterlimit:10;}
	.st15{clip-path:url(#SVGID_6_);fill:#FFFFFF;}
	.st16{clip-path:url(#SVGID_8_);fill:#FFFFFF;}
	.st17{clip-path:url(#SVGID_10_);fill:#FFFFFF;}
	.st18{clip-path:url(#SVGID_12_);fill:#FFFFFF;}
	.st19{clip-path:url(#SVGID_14_);fill:#FFFFFF;}
	.st20{clip-path:url(#SVGID_16_);fill:#FFFFFF;}
	.st21{clip-path:url(#SVGID_18_);fill:#FFFFFF;}
</style>
<g>
	<path class="st0" d="M-1926.9-4685h-15.6c-4.1,0-7.4-3.3-7.4-7.4v-58.1c0-4.1,3.3-7.4,7.4-7.4h15.6c4.1,0,7.4,3.3,7.4,7.4v58.1
		C-1919.5-4688.3-1922.8-4685-1926.9-4685z"/>
	<path class="st1" d="M-2110.1-4814.7h-256.6c-3.4,0-6.1-2.7-6.1-6.1c0-3.4,2.7-6.1,6.1-6.1h256.6c3.4,0,6.1,2.7,6.1,6.1
		C-2104.1-4817.5-2106.8-4814.7-2110.1-4814.7"/>
	<path class="st1" d="M-2087.4-4820.8c0,4.6-3.7,8.3-8.3,8.3c-4.6,0-8.3-3.7-8.3-8.3s3.7-8.3,8.3-8.3
		C-2091.1-4829.2-2087.4-4825.4-2087.4-4820.8"/>
	<path class="st1" d="M-2110.1-4792h-256.6c-3.4,0-6.1-2.7-6.1-6.1s2.7-6.1,6.1-6.1h256.6c3.4,0,6.1,2.7,6.1,6.1
		S-2106.8-4792-2110.1-4792"/>
	<path class="st1" d="M-2087.4-4798c0,4.6-3.7,8.3-8.3,8.3c-4.6,0-8.3-3.7-8.3-8.3s3.7-8.3,8.3-8.3
		C-2091.1-4806.4-2087.4-4802.7-2087.4-4798"/>
	<path class="st1" d="M-2110.1-4769.2h-256.6c-3.4,0-6.1-2.7-6.1-6.1s2.7-6.1,6.1-6.1h256.6c3.4,0,6.1,2.7,6.1,6.1
		S-2106.8-4769.2-2110.1-4769.2"/>
	<path class="st1" d="M-2087.4-4775.3c0,4.6-3.7,8.3-8.3,8.3c-4.6,0-8.3-3.7-8.3-8.3c0-4.6,3.7-8.4,8.3-8.4
		C-2091.1-4783.6-2087.4-4779.9-2087.4-4775.3"/>
	<path class="st1" d="M-2110.1-4746.4h-256.6c-3.4,0-6.1-2.7-6.1-6.1s2.7-6.1,6.1-6.1h256.6c3.4,0,6.1,2.7,6.1,6.1
		S-2106.8-4746.4-2110.1-4746.4"/>
	<path class="st1" d="M-2087.4-4752.5c0,4.6-3.7,8.4-8.3,8.4c-4.6,0-8.3-3.7-8.3-8.4c0-4.6,3.7-8.3,8.3-8.3
		C-2091.1-4760.9-2087.4-4757.1-2087.4-4752.5"/>
	<path class="st1" d="M-2110.1-4723.7h-256.6c-3.4,0-6.1-2.7-6.1-6.1s2.7-6.1,6.1-6.1h256.6c3.4,0,6.1,2.7,6.1,6.1
		S-2106.8-4723.7-2110.1-4723.7"/>
	<path class="st1" d="M-2087.4-4729.7c0,4.6-3.7,8.3-8.3,8.3c-4.6,0-8.3-3.7-8.3-8.3c0-4.6,3.7-8.3,8.3-8.3
		C-2091.1-4738.1-2087.4-4734.3-2087.4-4729.7"/>
	<path class="st1" d="M-2110.1-4700.9h-256.6c-3.4,0-6.1-2.7-6.1-6.1c0-3.4,2.7-6.1,6.1-6.1h256.6c3.4,0,6.1,2.7,6.1,6.1
		C-2104.1-4703.6-2106.8-4700.9-2110.1-4700.9"/>
	<path class="st1" d="M-2087.4-4707c0,4.6-3.7,8.3-8.3,8.3c-4.6,0-8.3-3.7-8.3-8.3s3.7-8.3,8.3-8.3
		C-2091.1-4715.3-2087.4-4711.6-2087.4-4707"/>
	<path class="st1" d="M-2110.1-4678.1h-256.6c-3.4,0-6.1-2.7-6.1-6.1c0-3.4,2.7-6.1,6.1-6.1h256.6c3.4,0,6.1,2.7,6.1,6.1
		C-2104.1-4680.8-2106.8-4678.1-2110.1-4678.1"/>
	<path class="st1" d="M-2087.4-4684.2c0,4.6-3.7,8.3-8.3,8.3c-4.6,0-8.3-3.7-8.3-8.3c0-4.6,3.7-8.3,8.3-8.3
		C-2091.1-4692.5-2087.4-4688.8-2087.4-4684.2"/>
	<path class="st1" d="M-2110.1-4655.4h-256.6c-3.4,0-6.1-2.7-6.1-6.1s2.7-6.1,6.1-6.1h256.6c3.4,0,6.1,2.7,6.1,6.1
		S-2106.8-4655.4-2110.1-4655.4"/>
	<path class="st1" d="M-2087.4-4661.4c0,4.6-3.7,8.3-8.3,8.3c-4.6,0-8.3-3.7-8.3-8.3c0-4.6,3.7-8.3,8.3-8.3
		C-2091.1-4669.8-2087.4-4666-2087.4-4661.4"/>
	<path class="st1" d="M-2110.1-4632.6h-256.6c-3.4,0-6.1-2.7-6.1-6.1s2.7-6.1,6.1-6.1h256.6c3.4,0,6.1,2.7,6.1,6.1
		S-2106.8-4632.6-2110.1-4632.6"/>
	<path class="st1" d="M-2087.4-4638.7c0,4.6-3.7,8.3-8.3,8.3c-4.6,0-8.3-3.7-8.3-8.3c0-4.6,3.7-8.3,8.3-8.3
		C-2091.1-4647-2087.4-4643.3-2087.4-4638.7"/>
	<path class="st2" d="M-1855.3-4797.2h24.5v-18.8c0-5.4,4.4-9.7,9.7-9.7h89.6c5.4,0,9.7,4.4,9.7,9.7v189.1c0,5.4-4.4,9.7-9.7,9.7
		h-89.6c-5.4,0-9.7-4.4-9.7-9.7v-18.8h-24.5c-5.4,0-9.7-4.4-9.7-9.7v-132.1C-1865.1-4792.8-1860.7-4797.2-1855.3-4797.2z"/>
	<path class="st3" d="M-1785.4-4777.2h14.2c2,0,3.6-1.6,3.6-3.6v-14.2c0-2-1.6-3.6-3.6-3.6h-14.2c-2,0-3.6,1.6-3.6,3.6v14.2
		C-1789-4778.8-1787.4-4777.2-1785.4-4777.2z"/>
	<path class="st3" d="M-1785.4-4732.9h14.2c2,0,3.6-1.6,3.6-3.6v-14.2c0-2-1.6-3.6-3.6-3.6h-14.2c-2,0-3.6,1.6-3.6,3.6v14.2
		C-1789-4734.5-1787.4-4732.9-1785.4-4732.9z"/>
	<path class="st3" d="M-1785.4-4688.6h14.2c2,0,3.6-1.6,3.6-3.6v-14.2c0-2-1.6-3.6-3.6-3.6h-14.2c-2,0-3.6,1.6-3.6,3.6v14.2
		C-1789-4690.2-1787.4-4688.6-1785.4-4688.6z"/>
	<path class="st3" d="M-1785.4-4644.2h14.2c2,0,3.6-1.6,3.6-3.6v-14.2c0-2-1.6-3.6-3.6-3.6h-14.2c-2,0-3.6,1.6-3.6,3.6v14.2
		C-1789-4645.8-1787.4-4644.2-1785.4-4644.2z"/>
	<path class="st4" d="M-1731.8-4562.1h-625.5c-22.6,0-40.9-18.3-40.9-40.9v-261.7c0-22.6,18.3-40.9,40.9-40.9h625.5
		c22.6,0,40.9,18.3,40.9,40.9v261.7C-1690.9-4580.4-1709.2-4562.1-1731.8-4562.1z"/>
</g>
<g>
	<g>
		<path class="st5" d="M607.5,255.2l15.2-0.1l0.1,12.6c0,3.6,2.7,6.5,6.1,6.5l55.4-0.4c3.3,0,6-3,6-6.6l-0.8-127
			c0-3.6-2.7-6.5-6.1-6.5l-55.4,0.4c-3.3,0-6,3-6,6.6l0.1,12.6l-15.2,0.1c-3.3,0-6,3-6,6.6l0.6,88.7
			C601.5,252.3,604.2,255.2,607.5,255.2z"/>
		<path class="st6" d="M651,241.5l7.9-0.1c1.5,0,2.6,1.2,2.6,2.6l0.1,9.1c0,1.5-1.2,2.6-2.6,2.6l-7.9,0.1c-1.5,0-2.6-1.2-2.6-2.6
			l-0.1-9.1C648.4,242.7,649.6,241.5,651,241.5z"/>
		<path class="st6" d="M650.9,211.7l7.9-0.1c1.5,0,2.6,1.2,2.6,2.6l0.1,9.1c0,1.5-1.2,2.6-2.6,2.6l-7.9,0.1c-1.5,0-2.6-1.2-2.6-2.6
			l-0.1-9.1C648.2,212.9,649.4,211.7,650.9,211.7z"/>
		<path class="st6" d="M650.7,181.9l7.9-0.1c1.5,0,2.6,1.2,2.6,2.6l0.1,9.1c0,1.5-1.2,2.6-2.6,2.6l-7.9,0.1c-1.5,0-2.6-1.2-2.6-2.6
			l-0.1-9.1C648,183.1,649.2,181.9,650.7,181.9z"/>
		<path class="st6" d="M650.5,152.1l7.9-0.1c1.5,0,2.6,1.2,2.6,2.6l0.1,9.1c0,1.5-1.2,2.6-2.6,2.6l-7.9,0.1c-1.5,0-2.6-1.2-2.6-2.6
			l-0.1-9.1C647.8,153.3,649,152.1,650.5,152.1z"/>
	</g>
	<g class="st7">
		<g>
			<defs>
				<rect id="SVGID_1_" x="269.1" y="68.7" width="38.2" height="33.8"/>
			</defs>
			<clipPath id="SVGID_2_">
				<use xlink:href="#SVGID_1_"  style="overflow:visible;"/>
			</clipPath>
			<path class="st8" d="M269.1,83.2l5.8-11.6c1.4-2.8,4.9-3.7,7.5-2L305.1,85c2.6,1.8,3,5.6,0.8,7.9l-9.4,9.7L269.1,83.2z"/>
		</g>
	</g>
	<path class="st1" d="M298.7,69.1c9.3,5.4,14.6,13.5,11.9,18.2c-2.7,4.7-12.5,4.2-21.7-1.1c-9.3-5.4-14.6-13.5-11.9-18.2
		C279.7,63.2,289.4,63.7,298.7,69.1"/>
	<path class="st9" d="M293.7,74.7c0,0,23.3-23.2,57.1-15.8c2.2,0.5,4.4,0.8,6.7,0.9c9.7,0.4,38-1.5,52.8,10.7
		c5.1,4.3,5.8,11.9,1.5,17c-9.3,11.2-22.2,27.7-54.5,11"/>
	<rect x="340.6" y="81.5" class="st10" width="32.5" height="52.3"/>
	<rect x="347.4" y="89.7" class="st11" width="20" height="17.6"/>
	<path class="st11" d="M366.6,123.4c0,5.1-4.7,9.2-10.4,9.2c-5.8,0-10.4-4.1-10.4-9.2c0-5.1,4.7-9.2,10.4-9.2
		C362,114.2,366.6,118.3,366.6,123.4z"/>
	<path class="st9" d="M300.7,78.6c0,0,37.8-13.7,73.6-5.2c0,0,28.2,2.3,39.1,15.6c4.7,5.7,3.9,14.1-1.5,19.1
		c-11.2,10.4-30.2,27.5-55.7,15.4"/>
	<path class="st1" d="M444.2,304.1h-23.8c-3.5,0-6.3-2.8-6.3-6.3v-42.6c0-3.5,2.8-6.3,6.3-6.3h23.8c3.5,0,6.3,2.8,6.3,6.3v42.6
		C450.5,301.2,447.7,304.1,444.2,304.1"/>
	<g class="st12">
		<g>
			<defs>
				<rect id="SVGID_3_" x="71.3" y="65.7" width="269.3" height="269.3"/>
			</defs>
			<clipPath id="SVGID_4_">
				<use xlink:href="#SVGID_3_"  style="overflow:visible;"/>
			</clipPath>
			<path class="st13" d="M340.5,200.3c0,74.4-60.3,134.6-134.6,134.6c-74.4,0-134.6-60.3-134.6-134.6c0-74.4,60.3-134.6,134.6-134.6
				C280.3,65.7,340.5,126,340.5,200.3"/>
		</g>
	</g>
	
		<ellipse transform="matrix(1 -2.538056e-03 2.538056e-03 1 -0.508 0.5233)" class="st14" cx="205.9" cy="200.4" rx="134.6" ry="134.6"/>
	<g class="st12">
		<g>
			<defs>
				<rect id="SVGID_5_" x="71.3" y="65.7" width="269.3" height="269.3"/>
			</defs>
			<clipPath id="SVGID_6_">
				<use xlink:href="#SVGID_5_"  style="overflow:visible;"/>
			</clipPath>
			<path class="st15" d="M134,86.5c-62.9,39.7-81.7,122.9-42,185.7s122.9,81.7,185.7,42c62.9-39.7,81.7-122.9,42-185.7
				C280,65.6,196.9,46.8,134,86.5"/>
		</g>
	</g>
	<g class="st12">
		<g>
			<defs>
				<rect id="SVGID_7_" x="116.3" y="132.4" width="36.5" height="36.5"/>
			</defs>
			<clipPath id="SVGID_8_">
				<use xlink:href="#SVGID_7_"  style="overflow:visible;"/>
			</clipPath>
			<path class="st16" d="M124.8,135.2c8.5-5.4,19.8-2.8,25.2,5.7c5.4,8.5,2.8,19.8-5.7,25.2c-8.5,5.4-19.8,2.8-25.2-5.7
				C113.7,151.9,116.3,140.6,124.8,135.2"/>
		</g>
	</g>
	<g class="st12">
		<g>
			<defs>
				<rect id="SVGID_9_" x="156" y="153.8" width="94.6" height="94.6"/>
			</defs>
			<clipPath id="SVGID_10_">
				<use xlink:href="#SVGID_9_"  style="overflow:visible;"/>
			</clipPath>
			<path class="st17" d="M228.6,241.1c-22.1,14-51.3,7.3-65.3-14.7s-7.3-51.3,14.7-65.3c22.1-14,51.3-7.3,65.3,14.7
				S250.7,227.1,228.6,241.1"/>
		</g>
	</g>
	<g class="st12">
		<g>
			<defs>
				<rect id="SVGID_11_" x="259" y="231.7" width="36.5" height="36.5"/>
			</defs>
			<clipPath id="SVGID_12_">
				<use xlink:href="#SVGID_11_"  style="overflow:visible;"/>
			</clipPath>
			<path class="st18" d="M287,265.4c-8.5,5.4-19.8,2.8-25.2-5.7c-5.4-8.5-2.8-19.8,5.7-25.2c8.5-5.4,19.8-2.8,25.2,5.7
				C298.1,248.8,295.5,260,287,265.4"/>
		</g>
	</g>
	<g>
		<path class="st1" d="M439.1,314.8h-13.6c-3.5,0-6.3-2.8-6.3-6.3v-64c0-3.5,2.8-6.3,6.3-6.3h13.6c3.5,0,6.3,2.8,6.3,6.3v64
			C445.4,312,442.6,314.8,439.1,314.8"/>
		<g class="st7">
			<g>
				<defs>
					<rect id="SVGID_13_" x="389.7" y="272.4" width="17.5" height="32.7"/>
				</defs>
				<clipPath id="SVGID_14_">
					<use xlink:href="#SVGID_13_"  style="overflow:visible;"/>
				</clipPath>
				<path class="st19" d="M401.5,305.1h-6.1c-1.8,0-3.3-1.5-3.3-3.3v-26.2c0-1.8,1.5-3.3,3.3-3.3h6.1c1.8,0,3.3,1.5,3.3,3.3v26.2
					C404.7,303.7,403.3,305.1,401.5,305.1"/>
				<path class="st19" d="M402.7,300.6h-8.4c-2.5,0-4.5-2-4.5-4.5v-14.5c0-2.5,2-4.5,4.5-4.5h8.4c2.5,0,4.5,2,4.5,4.5V296
					C407.2,298.5,405.2,300.6,402.7,300.6"/>
			</g>
		</g>
		<g class="st7">
			<g>
				<defs>
					<rect id="SVGID_15_" x="367.4" y="273.2" width="13" height="27.4"/>
				</defs>
				<clipPath id="SVGID_16_">
					<use xlink:href="#SVGID_15_"  style="overflow:visible;"/>
				</clipPath>
				<path class="st20" d="M374.6,300.6h-1.6c-2.2,0-3.9-1.7-3.9-3.9v-19.5c0-2.2,1.8-3.9,3.9-3.9h1.6c2.2,0,3.9,1.7,3.9,3.9v19.5
					C378.6,298.8,376.8,300.6,374.6,300.6"/>
				<path class="st20" d="M374.9,296.7h-2.2c-3,0-5.4-2.4-5.4-5.4v-8.9c0-3,2.4-5.4,5.4-5.4h2.2c3,0,5.4,2.4,5.4,5.4v8.9
					C380.4,294.3,377.9,296.7,374.9,296.7"/>
			</g>
		</g>
		<g class="st7">
			<g>
				<defs>
					<rect id="SVGID_17_" x="407.2" y="168.1" width="43.3" height="58.5"/>
				</defs>
				<clipPath id="SVGID_18_">
					<use xlink:href="#SVGID_17_"  style="overflow:visible;"/>
				</clipPath>
				<path class="st21" d="M443.9,226.6h-30.1c-3.6,0-6.6-2.9-6.6-6.6v-45.3c0-3.6,2.9-6.6,6.6-6.6h30.1c3.6,0,6.6,2.9,6.6,6.6V220
					C450.5,223.6,447.6,226.6,443.9,226.6"/>
			</g>
		</g>
		<path class="st1" d="M441.5,218h-25.2c-4.4,0-8.1-3.6-8.1-8.1v-25.2c0-4.4,3.6-8.1,8.1-8.1h25.2c4.4,0,8.1,3.6,8.1,8.1v25.2
			C449.5,214.4,445.9,218,441.5,218"/>
	</g>
	<path class="st4" d="M686.8,371.7H61.3c-22.6,0-40.9-18.3-40.9-40.9V69.1c0-22.6,18.3-40.9,40.9-40.9h625.5
		c22.6,0,40.9,18.3,40.9,40.9v261.7C727.7,353.4,709.4,371.7,686.8,371.7z"/>
</g>
</svg>
