<?xml version="1.0" encoding="utf-8"?>
<!-- Generator: Adobe Illustrator 22.0.0, SVG Export Plug-In . SVG Version: 6.00 Build 0)  -->
<svg version="1.1" id="图层_1" xmlns="http://www.w3.org/2000/svg" xmlns:xlink="http://www.w3.org/1999/xlink" x="0px" y="0px"
	 viewBox="0 0 480 400" style="enable-background:new 0 0 480 400;" xml:space="preserve">
<style type="text/css">
	.st0{fill:none;stroke:#FFFFFF;stroke-width:18.563;stroke-miterlimit:10;}
	.st1{fill:none;stroke:#FFFFFF;stroke-width:15.3531;stroke-miterlimit:10;}
	.st2{fill:none;stroke:#FFFFFF;stroke-width:5.7219;stroke-miterlimit:10;}
	.st3{opacity:0.6;}
	.st4{clip-path:url(#SVGID_2_);fill:#FFFFFF;}
	.st5{fill:none;stroke:#FFFFFF;stroke-width:3.2793;stroke-miterlimit:10;}
	.st6{fill:#FFFFFF;}
	.st7{fill:none;stroke:#FFFFFF;stroke-width:6.498;stroke-miterlimit:10;}
	.st8{fill:none;stroke:#FFFFFF;stroke-width:1.9492;stroke-miterlimit:10;}
	.st9{opacity:0.8;}
	.st10{clip-path:url(#SVGID_4_);fill:none;stroke:#FFFFFF;stroke-width:2.9002;stroke-miterlimit:10;}
	.st11{clip-path:url(#SVGID_4_);fill:none;stroke:#FFFFFF;stroke-width:2.4379;stroke-miterlimit:10;}
	.st12{fill:none;stroke:#FFFFFF;stroke-width:1.7472;stroke-miterlimit:10;}
	.st13{clip-path:url(#SVGID_6_);fill:none;stroke:#FFFFFF;stroke-width:1.1265;stroke-miterlimit:10;}
	.st14{clip-path:url(#SVGID_6_);fill:#FFFFFF;}
	.st15{opacity:0.8;clip-path:url(#SVGID_6_);}
	.st16{clip-path:url(#SVGID_8_);fill:#FFFFFF;}
	.st17{fill:none;stroke:#FFFFFF;stroke-width:2.0875;stroke-miterlimit:10;}
	.st18{clip-path:url(#SVGID_10_);fill:none;stroke:#FFFFFF;stroke-width:1.3456;stroke-miterlimit:10;}
	.st19{clip-path:url(#SVGID_10_);fill:#FFFFFF;}
	.st20{opacity:0.8;clip-path:url(#SVGID_10_);}
	.st21{clip-path:url(#SVGID_12_);fill:#FFFFFF;}
	.st22{clip-path:url(#SVGID_14_);fill:none;stroke:#FFFFFF;stroke-width:1.3456;stroke-miterlimit:10;}
	.st23{clip-path:url(#SVGID_14_);fill:#FFFFFF;}
	.st24{opacity:0.8;clip-path:url(#SVGID_14_);}
	.st25{clip-path:url(#SVGID_16_);fill:#FFFFFF;}
	.st26{clip-path:url(#SVGID_18_);fill:none;stroke:#FFFFFF;stroke-width:2.0875;stroke-miterlimit:10;}
	.st27{opacity:0.8;clip-path:url(#SVGID_18_);}
	.st28{clip-path:url(#SVGID_20_);fill:none;stroke:#FFFFFF;stroke-width:1.3456;stroke-miterlimit:10;}
	.st29{clip-path:url(#SVGID_20_);fill:#FFFFFF;}
	.st30{opacity:0.8;clip-path:url(#SVGID_20_);}
	.st31{clip-path:url(#SVGID_22_);fill:#FFFFFF;}
	.st32{clip-path:url(#SVGID_24_);fill:none;stroke:#FFFFFF;stroke-width:1.3456;stroke-miterlimit:10;}
	.st33{clip-path:url(#SVGID_24_);fill:#FFFFFF;}
	.st34{opacity:0.8;clip-path:url(#SVGID_24_);}
	.st35{clip-path:url(#SVGID_26_);fill:#FFFFFF;}
	.st36{clip-path:url(#SVGID_28_);fill:none;stroke:#FFFFFF;stroke-width:2.0875;stroke-miterlimit:10;}
	.st37{opacity:0.8;clip-path:url(#SVGID_28_);}
	.st38{clip-path:url(#SVGID_30_);fill:none;stroke:#FFFFFF;stroke-width:1.3456;stroke-miterlimit:10;}
	.st39{clip-path:url(#SVGID_30_);fill:#FFFFFF;}
	.st40{opacity:0.8;clip-path:url(#SVGID_30_);}
	.st41{clip-path:url(#SVGID_32_);fill:#FFFFFF;}
	.st42{clip-path:url(#SVGID_34_);fill:none;stroke:#FFFFFF;stroke-width:1.3456;stroke-miterlimit:10;}
	.st43{clip-path:url(#SVGID_34_);fill:#FFFFFF;}
	.st44{opacity:0.8;clip-path:url(#SVGID_34_);}
	.st45{clip-path:url(#SVGID_36_);fill:#FFFFFF;}
</style>
<g>
	<path class="st0" d="M410.2,376.9H69.8c-27.7,0-50.2-22.5-50.2-50.2V73.3c0-27.7,22.5-50.2,50.2-50.2h340.5
		c27.7,0,50.2,22.5,50.2,50.2v253.5C460.4,354.5,437.9,376.9,410.2,376.9z"/>
	<g>
		<path class="st1" d="M167,148.3l-17.6,0.1l-0.1-14.6c0-4.2-3.1-7.6-7-7.5l-64.1,0.3c-3.8,0-6.9,3.4-6.9,7.6l0.6,147.1
			c0,4.2,3.1,7.6,7,7.5l64.1-0.3c3.8,0,6.9-3.4,6.9-7.6l-0.1-14.6l17.6-0.1c3.8,0,6.9-3.4,6.9-7.6L174,155.8
			C173.9,151.6,170.8,148.2,167,148.3z"/>
		<path class="st2" d="M116.5,164l-9.2,0c-1.7,0-3-1.3-3.1-3l0-10.5c0-1.7,1.4-3,3-3.1l9.2,0c1.7,0,3,1.3,3.1,3l0,10.5
			C119.5,162.6,118.2,163.9,116.5,164z"/>
		<path class="st2" d="M116.6,198.4l-9.2,0c-1.7,0-3-1.4-3.1-3l0-10.5c0-1.7,1.4-3,3-3.1l9.2,0c1.7,0,3,1.4,3.1,3l0,10.5
			C119.7,197.1,118.3,198.4,116.6,198.4z"/>
		<path class="st2" d="M116.8,232.9l-9.2,0c-1.7,0-3-1.3-3.1-3l0-10.5c0-1.7,1.3-3,3-3.1l9.2,0c1.7,0,3,1.3,3.1,3l0,10.5
			C119.8,231.6,118.5,232.9,116.8,232.9z"/>
		<path class="st2" d="M116.9,267.4l-9.2,0c-1.7,0-3-1.4-3.1-3l0-10.5c0-1.7,1.3-3,3-3.1l9.2,0c1.7,0,3,1.4,3.1,3l0,10.5
			C120,266.1,118.6,267.4,116.9,267.4z"/>
		<g class="st3">
			<g>
				<defs>
					<rect id="SVGID_1_" x="235.5" y="156.9" width="73.2" height="90.7"/>
				</defs>
				<clipPath id="SVGID_2_">
					<use xlink:href="#SVGID_1_"  style="overflow:visible;"/>
				</clipPath>
				<path class="st4" d="M296.4,247.6h-48.8c-6.7,0-12.2-5.5-12.2-12.2v-66.2c0-6.7,5.5-12.2,12.2-12.2h48.8
					c6.7,0,12.2,5.5,12.2,12.2v66.2C308.7,242.1,303.2,247.6,296.4,247.6"/>
			</g>
		</g>
		<path class="st5" d="M296.4,247.6h-48.8c-6.7,0-12.2-5.5-12.2-12.2v-66.2c0-6.7,5.5-12.2,12.2-12.2h48.8c6.7,0,12.2,5.5,12.2,12.2
			v66.2C308.7,242.1,303.2,247.6,296.4,247.6z"/>
		<path class="st6" d="M309.4,170.3h10.5c0.4,0,0.7,0.3,0.7,0.6v0.7c0,0.3,0.3,0.6,0.7,0.6h16.8c0.4,0,0.7,0.3,0.7,0.6v3.7
			c0,0.3-0.3,0.6-0.7,0.6h-17.2c-0.4,0-0.7-0.3-0.7-0.6c0-0.3-0.3-0.6-0.7-0.6l-10.1,0c-0.4,0-0.7-0.3-0.7-0.6v-4.5
			C308.7,170.6,309,170.3,309.4,170.3"/>
		<path class="st6" d="M309.4,190h10.5c0.4,0,0.7,0.3,0.7,0.6v0.7c0,0.3,0.3,0.6,0.7,0.6h16.8c0.4,0,0.7,0.3,0.7,0.6v3.7
			c0,0.3-0.3,0.6-0.7,0.6h-17.2c-0.4,0-0.7-0.3-0.7-0.6c0-0.3-0.3-0.6-0.7-0.6l-10.1,0c-0.4,0-0.7-0.3-0.7-0.6v-4.5
			C308.7,190.3,309,190,309.4,190"/>
		<path class="st6" d="M309.4,209.8h10.5c0.4,0,0.7,0.3,0.7,0.6v0.7c0,0.3,0.3,0.6,0.7,0.6h16.8c0.4,0,0.7,0.3,0.7,0.6v3.7
			c0,0.3-0.3,0.6-0.7,0.6h-17.2c-0.4,0-0.7-0.3-0.7-0.6c0-0.3-0.3-0.6-0.7-0.6l-10.1,0c-0.4,0-0.7-0.3-0.7-0.6v-4.5
			C308.7,210.1,309,209.8,309.4,209.8"/>
		<path class="st6" d="M309.4,229.6h10.5c0.4,0,0.7,0.3,0.7,0.6v0.7c0,0.3,0.3,0.6,0.7,0.6h16.8c0.4,0,0.7,0.3,0.7,0.6v3.7
			c0,0.3-0.3,0.6-0.7,0.6h-17.2c-0.4,0-0.7-0.3-0.7-0.6c0-0.3-0.3-0.6-0.7-0.6l-10.1,0c-0.4,0-0.7-0.3-0.7-0.6v-4.5
			C308.7,229.8,309,229.6,309.4,229.6"/>
		<path class="st6" d="M234.7,170.3h-10.5c-0.4,0-0.7,0.3-0.7,0.6v0.7c0,0.3-0.3,0.6-0.7,0.6H206c-0.4,0-0.7,0.3-0.7,0.6v3.7
			c0,0.3,0.3,0.6,0.7,0.6h17.2c0.4,0,0.7-0.3,0.7-0.6c0-0.3,0.3-0.6,0.7-0.6l10.1,0c0.4,0,0.7-0.3,0.7-0.6v-4.5
			C235.4,170.6,235.1,170.3,234.7,170.3"/>
		<path class="st6" d="M234.7,190h-10.5c-0.4,0-0.7,0.3-0.7,0.6v0.7c0,0.3-0.3,0.6-0.7,0.6H206c-0.4,0-0.7,0.3-0.7,0.6v3.7
			c0,0.3,0.3,0.6,0.7,0.6h17.2c0.4,0,0.7-0.3,0.7-0.6c0-0.3,0.3-0.6,0.7-0.6l10.1,0c0.4,0,0.7-0.3,0.7-0.6v-4.5
			C235.4,190.3,235.1,190,234.7,190"/>
		<path class="st6" d="M234.7,209.8h-10.5c-0.4,0-0.7,0.3-0.7,0.6v0.7c0,0.3-0.3,0.6-0.7,0.6H206c-0.4,0-0.7,0.3-0.7,0.6v3.7
			c0,0.3,0.3,0.6,0.7,0.6h17.2c0.4,0,0.7-0.3,0.7-0.6c0-0.3,0.3-0.6,0.7-0.6l10.1,0c0.4,0,0.7-0.3,0.7-0.6v-4.5
			C235.4,210.1,235.1,209.8,234.7,209.8"/>
		<path class="st6" d="M234.7,229.6h-10.5c-0.4,0-0.7,0.3-0.7,0.6v0.7c0,0.3-0.3,0.6-0.7,0.6H206c-0.4,0-0.7,0.3-0.7,0.6v3.7
			c0,0.3,0.3,0.6,0.7,0.6h17.2c0.4,0,0.7-0.3,0.7-0.6c0-0.3,0.3-0.6,0.7-0.6l10.1,0c0.4,0,0.7-0.3,0.7-0.6v-4.5
			C235.4,229.8,235.1,229.6,234.7,229.6"/>
		<path class="st7" d="M300.3,267.3l75,0.7c7.3,0.1,13.1,6,13.1,13.3l-0.7,75c-0.1,7.3-6,13.1-13.3,13.1l-75-0.7
			c-7.3-0.1-13.1-6-13.1-13.3l0.7-75C287.1,273.1,293,267.3,300.3,267.3z"/>
		<path class="st6" d="M307.4,291.7l8.9,10c0.4,0.4,0.9,0.6,1.4,0.6c-3.7,4.4-6,10-6,16.2c-0.1,6.3,2.1,12,5.8,16.5l-4.8,4.2
			c-0.8,0.7-0.9,1.9-0.2,2.7l0.9,1c0.7,0.8,1.9,0.9,2.7,0.2l5-4.4c1.4,1.1,2.8,2.1,4.4,2.9c-0.1,0.2-0.2,0.5-0.2,0.7l-0.5,7
			c-0.1,1.1,0.7,2,1.8,2.1l1.3,0.1c1.1,0.1,2-0.7,2.1-1.8l0.5-6.2c2.1,0.6,4.3,0.9,6.5,0.9c0.7,0,1.3,0,2-0.1l-0.1,5.8
			c0,1.1,0.8,1.9,1.9,1.9l1.3,0c1.1,0,1.9-0.8,1.9-1.9l0.1-6.7c1.8-0.5,3.5-1.2,5.1-2.1l3.4,5c0.6,0.9,1.8,1.1,2.7,0.5l1.1-0.7
			c0.9-0.6,1.1-1.8,0.5-2.7l-3.4-5.1c1.5-1.2,2.8-2.6,3.9-4.1c0,0,0.1,0,0.1,0l6.8,1.6c1,0.2,2.1-0.4,2.3-1.4l0.3-1.3
			c0.2-1-0.4-2.1-1.4-2.3l-5.3-1.3c1.2-2.6,2.1-5.5,2.3-8.5l12.8,0.1c1.1,0,1.9-0.8,1.9-1.9l0-1.3c0-1.1-0.8-1.9-1.9-1.9l-12.9-0.1
			c-0.3-2.4-0.8-4.7-1.7-6.8c0.1-0.1,0.3-0.1,0.4-0.2l5.8-3.9c0.9-0.6,1.1-1.8,0.5-2.7l-0.7-1.1c-0.6-0.9-1.8-1.1-2.7-0.5l-5.7,3.9
			c-1.3-1.9-2.8-3.7-4.5-5.2c0.1-0.1,0.2-0.2,0.3-0.3l4.4-5.5c0.7-0.8,0.5-2-0.3-2.7l-1-0.8c-0.8-0.7-2-0.5-2.7,0.3l-4.4,5.5
			c-0.2,0.2-0.3,0.4-0.3,0.6c-1.8-1-3.8-1.9-5.9-2.5c0-0.1,0.1-0.2,0.1-0.3l0.5-7c0.1-1.1-0.7-2-1.8-2.1l-1.3-0.1
			c-1.1-0.1-2,0.7-2.1,1.8l-0.5,6.8c-0.5,0-1-0.1-1.4-0.1c-2.2,0-4.2,0.2-6.3,0.7l-0.9-6.9c-0.1-1.1-1.1-1.8-2.1-1.7l-1.3,0.2
			c-1.1,0.1-1.8,1.1-1.7,2.1l0.9,6.9c0,0.4,0.2,0.7,0.4,0.9c-2.1,1-4.1,2.3-5.9,3.8c0-0.4-0.2-0.8-0.5-1.1l-8.9-10
			c-0.7-0.8-1.9-0.9-2.7-0.2l-1,0.9C306.7,289.7,306.7,290.9,307.4,291.7 M327.1,301.1l10.6,11.7l10.5-9.5c1.3-1.1,3.2-1,4.3,0.2
			l2.2,2.4c1.1,1.3,1,3.2-0.2,4.3l-10.5,9.5l8.5,9.3c1.1,1.3,1,3.2-0.2,4.3l-2.4,2.2c-1.3,1.1-3.2,1-4.3-0.2l-8.5-9.3l-10.5,9.5
			c-1.3,1.1-3.2,1-4.3-0.2L320,333c-1.1-1.3-1-3.2,0.2-4.3l10.5-9.5l-10.6-11.7c-1.1-1.3-1-3.2,0.2-4.3l2.4-2.2
			C324,299.7,325.9,299.8,327.1,301.1"/>
		<path class="st8" d="M307,354.2c0-3,2.5-5.3,5.4-5.3c3,0,5.3,2.5,5.3,5.4c0,3-2.5,5.3-5.4,5.3C309.3,359.6,306.9,357.2,307,354.2z
			"/>
		<path class="st6" d="M360.4,30.6c-11.2,0-20.3,9.1-20.3,20.3v27.8c0,1.5-1.2,2.7-2.7,2.7H335c-2.8,0-5.1,2.3-5.1,5.1
			c0,2.8,2.3,5.1,5.1,5.1h7.5c1.5,0,2.7,1.2,2.7,2.7v22.7c0,2.8,2.3,5.1,5.1,5.1c2.8,0,5.1-2.3,5.1-5.1V94.2c0-1.5,1.2-2.7,2.7-2.7
			h4.8c1.5,0,2.7,1.2,2.7,2.7v22.7c0,2.8,2.3,5.1,5.1,5.1c2.8,0,5.1-2.3,5.1-5.1V94.2c0-1.5,1.2-2.7,2.7-2.7h7.5
			c2.8,0,5.1-2.3,5.1-5.1c0-2.8-2.3-5.1-5.1-5.1h-2.4c-1.5,0-2.7-1.2-2.7-2.7V50.9C380.7,39.7,371.6,30.6,360.4,30.6"/>
		<g class="st9">
			<g>
				<defs>
					<rect id="SVGID_3_" x="323" y="74.2" width="74.7" height="74.7"/>
				</defs>
				<clipPath id="SVGID_4_">
					<use xlink:href="#SVGID_3_"  style="overflow:visible;"/>
				</clipPath>
				<path class="st10" d="M396.2,111.6c0,19.8-16.1,35.9-35.9,35.9c-19.8,0-35.9-16.1-35.9-35.9c0-19.8,16.1-35.9,35.9-35.9
					C380.1,75.7,396.2,91.8,396.2,111.6z"/>
				
					<ellipse transform="matrix(0.2298 -0.9732 0.9732 0.2298 168.8605 436.5198)" class="st11" cx="360.2" cy="111.6" rx="30.2" ry="30.2"/>
			</g>
		</g>
		<rect x="261.4" y="296.8" class="st12" width="21.3" height="41.9"/>
		<g class="st9">
			<g>
				<defs>
					<rect id="SVGID_5_" x="264.8" y="299.1" width="12" height="37.3"/>
				</defs>
				<clipPath id="SVGID_6_">
					<use xlink:href="#SVGID_5_"  style="overflow:visible;"/>
				</clipPath>
				<path class="st13" d="M268.1,299.7l5.3,0c1.5,0,2.8,1.2,2.8,2.6l0,31c0,1.4-1.2,2.6-2.8,2.6l-5.3,0c-1.5,0-2.8-1.2-2.8-2.6l0-31
					C265.4,300.8,266.6,299.7,268.1,299.7z"/>
				<path class="st14" d="M268.2,304.9l5.3,0c1.5,0,2.8,1.2,2.8,2.6l0,20.5c0,1.4-1.2,2.6-2.8,2.6l-5.3,0c-1.5,0-2.8-1.2-2.8-2.6
					l0-20.5C265.4,306.1,266.6,304.9,268.2,304.9"/>
				<g class="st15">
					<g>
						<defs>
							<rect id="SVGID_7_" x="268.7" y="299.7" width="4.2" height="36.1"/>
						</defs>
						<clipPath id="SVGID_8_">
							<use xlink:href="#SVGID_7_"  style="overflow:visible;"/>
						</clipPath>
						<path class="st16" d="M268.7,303.5c0,1,0.9,1.8,1.9,1.8c1,0,1.9-0.8,1.9-1.8c0-0.6-0.4-1.2-0.9-1.5l0.8-2.3l-3.6,0.1l1.1,2.1
							C269.2,302.1,268.7,302.8,268.7,303.5"/>
						<path class="st16" d="M269.1,332c0-1,0.8-1.8,1.9-1.8c1,0,1.9,0.8,1.9,1.8c0,0.6-0.4,1.2-0.9,1.5l0.8,2.3l-3.6-0.1l1.1-2.1
							C269.6,333.4,269.1,332.8,269.1,332"/>
					</g>
				</g>
			</g>
		</g>
		<polygon class="st17" points="95.5,33.8 151,32.5 151.4,55.5 95.9,56.8 		"/>
		<g class="st9">
			<g>
				<defs>
					<rect id="SVGID_9_" x="98.8" y="38.9" width="49.3" height="14.1"/>
				</defs>
				<clipPath id="SVGID_10_">
					<use xlink:href="#SVGID_9_"  style="overflow:visible;"/>
				</clipPath>
				<path class="st18" d="M99.6,49.4l-0.1-5.8c0-1.7,1.5-3,3.4-3.1l41-1c1.9,0,3.4,1.3,3.5,2.9l0.1,5.8c0,1.7-1.5,3-3.4,3.1l-41,1
					C101.1,52.4,99.6,51.1,99.6,49.4z"/>
				<path class="st19" d="M106.5,49.3l-0.1-5.8c0-1.7,1.5-3,3.4-3.1l27.1-0.7c1.9,0,3.4,1.3,3.5,2.9l0.1,5.8c0,1.7-1.5,3-3.4,3.1
					L110,52.2C108.1,52.2,106.5,50.9,106.5,49.3"/>
				<g class="st20">
					<g>
						<defs>
							<rect id="SVGID_11_" x="99.5" y="43.2" width="47.8" height="5.5"/>
						</defs>
						<clipPath id="SVGID_12_">
							<use xlink:href="#SVGID_11_"  style="overflow:visible;"/>
						</clipPath>
						<path class="st21" d="M104.6,48.7c1.3,0,2.3-1,2.3-2.1c0-1.1-1.1-2-2.4-2c-0.9,0-1.6,0.4-2,1l-3.1-0.8l0.2,3.9l2.8-1.3
							C102.8,48.2,103.6,48.7,104.6,48.7"/>
						<path class="st21" d="M142.3,47.4c-1.3,0-2.4-0.8-2.4-2c0-1.1,1-2.1,2.3-2.1c0.9,0,1.6,0.3,2,0.9l3.1-1l0,3.9l-2.8-1.1
							C144.2,46.8,143.3,47.3,142.3,47.4"/>
					</g>
				</g>
			</g>
		</g>
		<polygon class="st17" points="95.5,66 151,64.7 151.4,87.7 95.9,89 		"/>
		<g class="st9">
			<g>
				<defs>
					<rect id="SVGID_13_" x="98.8" y="71.1" width="49.3" height="14.1"/>
				</defs>
				<clipPath id="SVGID_14_">
					<use xlink:href="#SVGID_13_"  style="overflow:visible;"/>
				</clipPath>
				<path class="st22" d="M99.6,81.7l-0.1-5.8c0-1.7,1.5-3,3.4-3.1l41-1c1.9,0,3.4,1.3,3.5,2.9l0.1,5.8c0,1.7-1.5,3-3.4,3.1l-41,1
					C101.1,84.6,99.6,83.3,99.6,81.7z"/>
				<path class="st23" d="M106.5,81.5l-0.1-5.8c0-1.7,1.5-3,3.4-3.1l27.1-0.7c1.9,0,3.4,1.3,3.5,2.9l0.1,5.8c0,1.7-1.5,3-3.4,3.1
					L110,84.4C108.1,84.4,106.5,83.1,106.5,81.5"/>
				<g class="st24">
					<g>
						<defs>
							<rect id="SVGID_15_" x="99.5" y="75.4" width="47.8" height="5.5"/>
						</defs>
						<clipPath id="SVGID_16_">
							<use xlink:href="#SVGID_15_"  style="overflow:visible;"/>
						</clipPath>
						<path class="st25" d="M104.6,80.9c1.3,0,2.3-1,2.3-2.1c0-1.1-1.1-2-2.4-2c-0.9,0-1.6,0.4-2,1L99.5,77l0.2,3.9l2.8-1.3
							C102.8,80.4,103.6,80.9,104.6,80.9"/>
						<path class="st25" d="M142.3,79.6c-1.3,0-2.4-0.8-2.4-2c0-1.1,1-2.1,2.3-2.1c0.9,0,1.6,0.3,2,0.9l3.1-1l0,3.9l-2.8-1.1
							C144.2,79,143.3,79.5,142.3,79.6"/>
					</g>
				</g>
			</g>
		</g>
		<g class="st3">
			<g>
				<defs>
					<rect id="SVGID_17_" x="350.6" y="172.9" width="58.1" height="58.7"/>
				</defs>
				<clipPath id="SVGID_18_">
					<use xlink:href="#SVGID_17_"  style="overflow:visible;"/>
				</clipPath>
				<polygon class="st26" points="351.7,175.4 407.2,174 407.6,197 352.1,198.3 				"/>
				<g class="st27">
					<g>
						<defs>
							<rect id="SVGID_19_" x="355" y="180.4" width="49.3" height="14.1"/>
						</defs>
						<clipPath id="SVGID_20_">
							<use xlink:href="#SVGID_19_"  style="overflow:visible;"/>
						</clipPath>
						<path class="st28" d="M355.8,191l-0.1-5.8c0-1.7,1.5-3,3.4-3.1l41-1c1.9,0,3.4,1.3,3.5,2.9l0.1,5.8c0,1.7-1.5,3-3.4,3.1l-41,1
							C357.3,193.9,355.8,192.6,355.8,191z"/>
						<path class="st29" d="M362.7,190.8l-0.1-5.8c0-1.7,1.5-3,3.4-3.1l27.1-0.7c1.9,0,3.4,1.3,3.5,2.9l0.1,5.8c0,1.7-1.5,3-3.4,3.1
							l-27.1,0.7C364.3,193.8,362.7,192.5,362.7,190.8"/>
						<g class="st30">
							<g>
								<defs>
									<rect id="SVGID_21_" x="355.7" y="184.7" width="47.8" height="5.5"/>
								</defs>
								<clipPath id="SVGID_22_">
									<use xlink:href="#SVGID_21_"  style="overflow:visible;"/>
								</clipPath>
								<path class="st31" d="M360.8,190.2c1.3,0,2.3-1,2.3-2.1c0-1.1-1.1-2-2.4-2c-0.9,0-1.6,0.4-2,1l-3.1-0.8l0.2,3.9l2.8-1.3
									C359,189.7,359.8,190.2,360.8,190.2"/>
								<path class="st31" d="M398.5,188.9c-1.3,0-2.4-0.8-2.4-2c0-1.1,1-2.1,2.3-2.1c0.9,0,1.6,0.3,2,0.9l3.1-1l0,3.9l-2.8-1.1
									C400.4,188.3,399.5,188.9,398.5,188.9"/>
							</g>
						</g>
					</g>
				</g>
				<polygon class="st26" points="351.7,207.6 407.2,206.2 407.6,229.2 352.1,230.5 				"/>
				<g class="st27">
					<g>
						<defs>
							<rect id="SVGID_23_" x="355" y="212.6" width="49.3" height="14.1"/>
						</defs>
						<clipPath id="SVGID_24_">
							<use xlink:href="#SVGID_23_"  style="overflow:visible;"/>
						</clipPath>
						<path class="st32" d="M355.8,223.2l-0.1-5.8c0-1.7,1.5-3,3.4-3.1l41-1c1.9,0,3.4,1.3,3.5,2.9l0.1,5.8c0,1.7-1.5,3-3.4,3.1
							l-41,1C357.3,226.1,355.8,224.8,355.8,223.2z"/>
						<path class="st33" d="M362.7,223l-0.1-5.8c0-1.7,1.5-3,3.4-3.1l27.1-0.7c1.9,0,3.4,1.3,3.5,2.9l0.1,5.8c0,1.7-1.5,3-3.4,3.1
							l-27.1,0.7C364.3,226,362.7,224.7,362.7,223"/>
						<g class="st34">
							<g>
								<defs>
									<rect id="SVGID_25_" x="355.7" y="216.9" width="47.8" height="5.5"/>
								</defs>
								<clipPath id="SVGID_26_">
									<use xlink:href="#SVGID_25_"  style="overflow:visible;"/>
								</clipPath>
								<path class="st35" d="M360.8,222.4c1.3,0,2.3-1,2.3-2.1c0-1.1-1.1-2-2.4-2c-0.9,0-1.6,0.4-2,1l-3.1-0.8l0.2,3.9l2.8-1.3
									C359,221.9,359.8,222.4,360.8,222.4"/>
								<path class="st35" d="M398.5,221.1c-1.3,0-2.4-0.8-2.4-2c0-1.1,1-2.1,2.3-2.1c0.9,0,1.6,0.3,2,0.9l3.1-1l0,3.9l-2.8-1.1
									C400.4,220.5,399.5,221.1,398.5,221.1"/>
							</g>
						</g>
					</g>
				</g>
			</g>
		</g>
		<g class="st3">
			<g>
				<defs>
					<rect id="SVGID_27_" x="350.6" y="235.3" width="58.1" height="58.7"/>
				</defs>
				<clipPath id="SVGID_28_">
					<use xlink:href="#SVGID_27_"  style="overflow:visible;"/>
				</clipPath>
				<polygon class="st36" points="351.7,237.8 407.2,236.4 407.6,259.4 352.1,260.8 				"/>
				<g class="st37">
					<g>
						<defs>
							<rect id="SVGID_29_" x="355" y="242.9" width="49.3" height="14.1"/>
						</defs>
						<clipPath id="SVGID_30_">
							<use xlink:href="#SVGID_29_"  style="overflow:visible;"/>
						</clipPath>
						<path class="st38" d="M355.8,253.4l-0.1-5.8c0-1.7,1.5-3,3.4-3.1l41-1c1.9,0,3.4,1.3,3.5,2.9l0.1,5.8c0,1.7-1.5,3-3.4,3.1
							l-41,1C357.3,256.4,355.8,255,355.8,253.4z"/>
						<path class="st39" d="M362.7,253.2l-0.1-5.8c0-1.7,1.5-3,3.4-3.1l27.1-0.7c1.9,0,3.4,1.3,3.5,2.9l0.1,5.8c0,1.7-1.5,3-3.4,3.1
							l-27.1,0.7C364.3,256.2,362.7,254.9,362.7,253.2"/>
						<g class="st40">
							<g>
								<defs>
									<rect id="SVGID_31_" x="355.7" y="247.2" width="47.8" height="5.5"/>
								</defs>
								<clipPath id="SVGID_32_">
									<use xlink:href="#SVGID_31_"  style="overflow:visible;"/>
								</clipPath>
								<path class="st41" d="M360.8,252.6c1.3,0,2.3-1,2.3-2.1c0-1.1-1.1-2-2.4-2c-0.9,0-1.6,0.4-2,1l-3.1-0.8l0.2,3.9l2.8-1.3
									C359,252.1,359.8,252.7,360.8,252.6"/>
								<path class="st41" d="M398.5,251.3c-1.3,0-2.4-0.8-2.4-2c0-1.1,1-2.1,2.3-2.1c0.9,0,1.6,0.3,2,0.9l3.1-1l0,3.9l-2.8-1.1
									C400.4,250.7,399.5,251.3,398.5,251.3"/>
							</g>
						</g>
					</g>
				</g>
				<polygon class="st36" points="351.7,270 407.2,268.6 407.6,291.6 352.1,293 				"/>
				<g class="st37">
					<g>
						<defs>
							<rect id="SVGID_33_" x="355" y="275.1" width="49.3" height="14.1"/>
						</defs>
						<clipPath id="SVGID_34_">
							<use xlink:href="#SVGID_33_"  style="overflow:visible;"/>
						</clipPath>
						<path class="st42" d="M355.8,285.6l-0.1-5.8c0-1.7,1.5-3,3.4-3.1l41-1c1.9,0,3.4,1.3,3.5,2.9l0.1,5.8c0,1.7-1.5,3-3.4,3.1
							l-41,1C357.3,288.6,355.8,287.2,355.8,285.6z"/>
						<path class="st43" d="M362.7,285.4l-0.1-5.8c0-1.7,1.5-3,3.4-3.1l27.1-0.7c1.9,0,3.4,1.3,3.5,2.9l0.1,5.8c0,1.7-1.5,3-3.4,3.1
							l-27.1,0.7C364.3,288.4,362.7,287.1,362.7,285.4"/>
						<g class="st44">
							<g>
								<defs>
									<rect id="SVGID_35_" x="355.7" y="279.4" width="47.8" height="5.5"/>
								</defs>
								<clipPath id="SVGID_36_">
									<use xlink:href="#SVGID_35_"  style="overflow:visible;"/>
								</clipPath>
								<path class="st45" d="M360.8,284.8c1.3,0,2.3-1,2.3-2.1c0-1.1-1.1-2-2.4-2c-0.9,0-1.6,0.4-2,1l-3.1-0.8l0.2,3.9l2.8-1.3
									C359,284.3,359.8,284.9,360.8,284.8"/>
								<path class="st45" d="M398.5,283.5c-1.3,0-2.4-0.8-2.4-2c0-1.1,1-2.1,2.3-2.1c0.9,0,1.6,0.3,2,0.9l3.1-1l0,3.9l-2.8-1.1
									C400.4,282.9,399.5,283.5,398.5,283.5"/>
							</g>
						</g>
					</g>
				</g>
			</g>
		</g>
	</g>
</g>
</svg>
