<?xml version="1.0" encoding="utf-8"?>
<!-- Generator: Adobe Illustrator 22.0.0, SVG Export Plug-In . SVG Version: 6.00 Build 0)  -->
<svg version="1.1" id="图层_1" xmlns="http://www.w3.org/2000/svg" xmlns:xlink="http://www.w3.org/1999/xlink" x="0px" y="0px"
	 viewBox="0 0 480 400" style="enable-background:new 0 0 480 400;" xml:space="preserve">
<style type="text/css">
	.st0{fill:none;stroke:#FFFFFF;stroke-width:18.563;stroke-miterlimit:10;}
	.st1{fill:none;stroke:#FFFFFF;stroke-width:18.0985;stroke-miterlimit:10;}
	.st2{fill:none;stroke:#FFFFFF;stroke-width:6.7455;stroke-miterlimit:10;}
	.st3{opacity:0.8;fill:#FFFFFF;enable-background:new    ;}
	.st4{clip-path:url(#SVGID_2_);fill:#FFFFFF;}
	.st5{fill:#FFFFFF;}
</style>
<g>
	<path class="st0" d="M410.2,370.9H69.8c-27.7,0-50.2-22.5-50.2-50.2V67.3c0-27.7,22.5-50.2,50.2-50.2h340.5
		c27.7,0,50.2,22.5,50.2,50.2v253.5C460.4,348.5,437.9,370.9,410.2,370.9z"/>
	<g>
		<g>
			<path class="st1" d="M296.1,169l0.1-17.1l14.2,0.1c4.1,0,7.4-3,7.4-6.7l0.3-62.3c0-3.7-3.3-6.8-7.3-6.8l-143-0.8
				c-4.1,0-7.4,3-7.4,6.7l-0.3,62.3c0,3.7,3.3,6.8,7.3,6.8l14.2,0.1l-0.1,17.1c0,3.7,3.3,6.8,7.3,6.8l99.9,0.5
				C292.8,175.7,296.1,172.7,296.1,169z"/>
			<path class="st2" d="M281.3,119.8v-8.9c0-1.6,1.3-3,3-2.9l10.2,0.1c1.6,0,3,1.3,2.9,3v8.9c0,1.6-1.3,3-3,2.9l-10.2-0.1
				C282.6,122.7,281.3,121.4,281.3,119.8z"/>
			<path class="st2" d="M247.8,119.6v-8.9c0-1.6,1.3-3,3-2.9l10.2,0.1c1.6,0,3,1.3,2.9,3v8.9c0,1.6-1.3,3-3,2.9l-10.2-0.1
				C249.1,122.6,247.8,121.2,247.8,119.6z"/>
			<path class="st2" d="M214.2,119.4v-8.9c0-1.6,1.3-3,3-2.9l10.2,0.1c1.6,0,3,1.3,2.9,3v8.9c0,1.6-1.3,3-3,2.9l-10.2-0.1
				C215.5,122.4,214.2,121,214.2,119.4z"/>
			<path class="st2" d="M180.7,119.2v-8.9c0-1.6,1.3-3,3-2.9l10.2,0.1c1.6,0,3,1.3,2.9,3v8.9c0,1.6-1.3,3-3,2.9l-10.2-0.1
				C182,122.2,180.7,120.9,180.7,119.2z"/>
		</g>
		<path class="st3" d="M406.9,319.4l-7.5-1.4c-0.3-0.1-0.6,0-0.9,0c-0.5-1.5-1.2-3-2.1-4.4l4-5.6c0.6-0.8,0.5-2-0.3-2.7l-4.8-4.6
			c-0.8-0.7-1.9-0.8-2.7-0.1l-5.5,4.4c-1.5-0.8-3-1.4-4.6-1.8l-1-7.1c-0.1-1-1-1.8-2.1-1.8h-6.6c-1,0-1.9,0.8-2.1,1.8l-1,7.2
			c-1.5,0.5-3,1.1-4.4,1.8l-5.6-5c-0.8-0.7-1.9-0.7-2.7,0l-5,4.3c-0.8,0.7-1,1.8-0.4,2.7l4.1,6.4c0.1,0.2,0.3,0.4,0.5,0.5
			c-0.8,1.4-1.4,2.8-1.9,4.3l-6.6,0.3c-1,0-1.9,0.8-2,1.9l-0.6,6.6c-0.1,1,0.6,2,1.6,2.2l7.1,1.7c0.4,1.8,1,3.5,1.8,5l-3.8,4.5
			c-0.7,0.8-0.7,2,0,2.7l4.4,4.9c0.7,0.8,1.9,0.9,2.7,0.3l4.9-3.3c1.6,1,3.3,1.9,5.2,2.5l5.3-12.3c-3.4-1.1-5.9-4.3-5.9-8
			c0-4.7,3.8-8.4,8.4-8.4c4.7,0,8.4,3.8,8.4,8.4c0,3.6-2.3,6.7-5.5,7.9l4.7,12.3c1.3-0.5,2.5-1,3.6-1.7c0,0,0,0.1,0.1,0.1l5.9,4.8
			c0.8,0.7,2,0.6,2.7-0.1l4.8-4.5c0.8-0.7,0.9-1.9,0.3-2.7l-4.4-6.3c-0.1-0.2-0.3-0.4-0.5-0.5c1-1.9,1.8-3.9,2.2-6l7.2-0.7
			c1-0.1,1.8-0.9,1.9-2l0.3-6.6C408.7,320.5,408,319.6,406.9,319.4z"/>
		<g>
			<g>
				<g>
					<defs>
						
							<rect id="SVGID_1_" x="161.8" y="214.5" transform="matrix(0.3737 -0.9275 0.9275 0.3737 -103.8041 368.0601)" width="117.7" height="92.9"/>
					</defs>
					<clipPath id="SVGID_2_">
						<use xlink:href="#SVGID_1_"  style="overflow:visible;"/>
					</clipPath>
					<path class="st4" d="M224.3,324.3l-0.4,1.1l-36.1-14.6c-5-2-6.9-5.5-8.1-11.8c-0.1-0.4-0.1-0.7-0.3-1.6
						c-0.1-0.3-0.1-0.5-0.2-0.8l-0.1-0.6c0-0.2-0.1-0.4-0.1-0.5l-6.8-31.9c-0.8-3.6-0.1-7.3,1.9-10.3c2-3.1,5.1-5.2,8.7-6
						c2.7-0.6,5.4-0.3,8,0.7c2.2,0.9,4.1,2.3,5.6,4.2l17.3-42.8c2.8-7,10.6-10.6,17.3-7.8c6.7,2.7,9.9,10.6,7.1,17.7l-5.7,14.2
						c1.4,0,2.7,0.3,4,0.8c3.4,1.4,5.8,4.2,6.8,7.8c2.3-0.5,4.6-0.4,6.7,0.5c4.1,1.7,6.9,5.8,7.2,10.5c1.3,0,2.5,0.3,3.7,0.8
						c6.3,2.5,9,10.3,6.2,17.3l-14.2,35.2c-5.1,12.7-20.2,22.5-28.6,19.1L224.3,324.3z M224.7,323.2c7,2.8,20.9-6.2,25.5-17.8
						l14.2-35.2c2.4-5.9,0.1-12.2-4.9-14.2c-1.2-0.5-2.5-0.7-3.9-0.6l-1.3,0.1v-1.3c0-4.3-2.2-8.1-5.8-9.5c-1.9-0.8-4.1-0.8-6.3-0.1
						l-1.3,0.4l-0.2-1.3c-0.6-3.4-2.7-6.1-5.6-7.3c-1.5-0.6-3.1-0.7-4.7-0.5l-2.1,0.4l7.2-18c2.4-5.8-0.2-12.4-5.7-14.6
						c-5.5-2.2-11.9,0.7-14.3,6.5l-19,47.2l-1.2-2.2c-1.3-2.3-3.3-4.1-5.7-5.1c-2.1-0.9-4.4-1.1-6.6-0.6c-3,0.6-5.5,2.4-7.2,4.9
						c-1.6,2.5-2.2,5.6-1.6,8.6l6.7,31.8c0.1,0.2,0.1,0.3,0.2,0.6l0.1,0.5c0.2,0.5,0.2,0.7,0.3,1c0.2,0.9,0.2,1.1,0.3,1.5
						c1.1,5.6,2.7,8.4,6.7,10.1L224.7,323.2l-0.4,1.1L224.7,323.2z M183.9,295.3c0,0-0.2-0.8-0.2-0.9l-6.8-31.9
						c-0.5-2.3,0-4.6,1.2-6.6c1.3-1.9,3.2-3.3,5.5-3.8c1.7-0.3,3.4-0.2,5,0.5l-0.4,1.1l0.4-1.1c2.7,1.1,4.7,3.4,5.3,6.3l1.6,7.8
						l22.4-55.5c1.8-4.5,6.6-6.7,10.8-5.1c4.2,1.7,6.1,6.7,4.3,11.1l-11.5,28.6l4.7-4.9c2.3-2.3,5.3-3.2,7.9-2.2
						c3,1.2,4.6,4.9,4,8.7l-0.7,3.8l2.9-2.5c2.2-1.9,5-2.6,7.3-1.6c3.5,1.4,5,5.8,3.7,10l-1,3l2.9-1.4c1.8-0.9,3.8-1,5.4-0.3
						c3.7,1.5,5.1,6.4,3.4,10.8l-14.2,35.2c-4.1,10.1-16.6,18.5-22.1,16.3l-36.1-14.6c-3.3-1.3-4.3-3.4-5.4-9.7
						C184,295.9,184,295.6,183.9,295.3L183.9,295.3z M187.8,254.8c-1.2-0.5-2.4-0.6-3.7-0.3c-1.6,0.3-3.1,1.3-4,2.7
						c-0.9,1.4-1.2,3.1-0.9,4.8l6.8,31.9c0,0.1,0.2,0.8,0.2,0.9c0.1,0.5,0.2,0.7,0.2,0.9c1,5.7,1.7,7.2,4,8.1l36.1,14.6
						c4.1,1.6,15.4-5.9,19-15l14.2-35.2c1.3-3.2,0.2-6.7-2.1-7.7c-1-0.4-2.2-0.3-3.5,0.3l-7.9,3.9l0.8-2.7l1.8-5.7
						c1-3.1-0.1-6.2-2.3-7.1c-1.4-0.6-3.3-0.1-4.8,1.2l-8,7.1l0.6-3.4l1.3-7.1c0.5-2.8-0.6-5.4-2.5-6.1c-1.6-0.6-3.7,0-5.3,1.6
						l-13.3,13.8l16.1-40c1.3-3.3,0-6.9-3-8c-2.9-1.2-6.4,0.5-7.7,3.7l-25.3,62.7l-0.8-3.8l-2.4-11.6
						C191.2,257.3,189.8,255.6,187.8,254.8l0.4-1.1L187.8,254.8L187.8,254.8z"/>
				</g>
			</g>
			<path class="st5" d="M218,255.1l2.5,1l5.7-14.1l-2.5-1L218,255.1z M229.2,240.7l-7.4,18.5l-6.9-2.8l7.4-18.5L229.2,240.7z
				 M231.8,263.9l2.5,1l5.7-14.1l-2.5-1L231.8,263.9z M243.1,249.5l-7.4,18.5l-6.9-2.8l7.4-18.5L243.1,249.5z M244.6,274.3l2.5,1
				l5.7-14.1l-2.5-1L244.6,274.3L244.6,274.3z M255.8,259.9l-7.4,18.5l-6.9-2.8l7.4-18.5L255.8,259.9z"/>
			<path class="st5" d="M224.3,324.3l-36.2-14.6c-5.9-2.4-6.9-7.7-7.7-12.5c0-0.3-0.1-0.6-0.2-0.9c-0.1-0.4-0.2-0.8-0.3-1.1
				l-6.8-31.9c-0.7-3.3-0.1-6.7,1.8-9.5c1.8-2.8,4.7-4.8,7.9-5.4c2.4-0.5,5-0.3,7.3,0.7c2.7,1.1,4.9,3.1,6.3,5.6l18.1-44.9
				c2.6-6.4,9.7-9.6,15.8-7.2c6.1,2.5,9,9.7,6.4,16.1l-6.4,16c1.8-0.3,3.7-0.1,5.4,0.5c3.4,1.4,5.7,4.5,6.3,8.2
				c2.4-0.8,4.9-0.8,7.1,0.1c4.1,1.6,6.6,5.9,6.5,10.6c1.5-0.1,3,0.1,4.4,0.7c5.6,2.3,8.1,9.3,5.5,15.8l-14.2,35.2
				C246.2,318.6,231.5,327.2,224.3,324.3 M188.2,253.7c-1.4-0.6-2.9-0.7-4.3-0.4c-2,0.4-3.7,1.6-4.8,3.3c-1.1,1.7-1.5,3.7-1.1,5.7
				l6.8,31.9c0,0.3,0.1,0.6,0.2,1c0.1,0.4,0.1,0.7,0.2,1v0.1c0.9,5.1,1.6,7.5,4.7,8.8l36.1,14.6c4,1.6,16.2-4.8,20.6-15.6l14.2-35.2
				c1.5-3.8,0.3-8-2.7-9.2c-1.4-0.5-2.9-0.4-4.5,0.3l-5.4,2.7l1.8-5.7c1.1-3.7-0.1-7.4-3-8.6c-1.9-0.8-4.2-0.2-6,1.4l-5.4,4.8
				l1.3-7.1c0.6-3.3-0.8-6.4-3.2-7.4c-2.1-0.8-4.6-0.1-6.6,1.9l-9,9.4l13.8-34.3c1.6-3.9-0.1-8.2-3.6-9.6c-3.5-1.4-7.7,0.5-9.3,4.4
				l-23.8,58.8l-2.4-11.6C192.3,256.6,190.6,254.6,188.2,253.7"/>
			<path class="st5" d="M223,239.5l4.7,1.9l-6.6,16.3l-4.7-1.9L223,239.5z M236.9,248.3l4.7,1.9l-6.6,16.3l-4.7-1.9L236.9,248.3
				L236.9,248.3z M249.6,258.6l4.7,1.9l-6.6,16.3l-4.7-1.9L249.6,258.6L249.6,258.6z"/>
		</g>
		<ellipse class="st5" cx="82.8" cy="48.1" rx="11.3" ry="11.3"/>
	</g>
</g>
</svg>
