<?xml version="1.0" encoding="utf-8"?>
<!-- Generator: Adobe Illustrator 22.0.0, SVG Export Plug-In . SVG Version: 6.00 Build 0)  -->
<svg version="1.1" id="图层_1" xmlns="http://www.w3.org/2000/svg" xmlns:xlink="http://www.w3.org/1999/xlink" x="0px" y="0px"
	 viewBox="0 0 480 400" style="enable-background:new 0 0 480 400;" xml:space="preserve">
<style type="text/css">
	.st0{fill:none;stroke:#FFFFFF;stroke-width:18.563;stroke-miterlimit:10;}
	.st1{fill:none;stroke:#FFFFFF;stroke-width:13.719;stroke-miterlimit:10;}
	.st2{fill:none;stroke:#FFFFFF;stroke-width:5.1129;stroke-miterlimit:10;}
	.st3{fill:none;stroke:#FFFFFF;stroke-width:2.6505;stroke-miterlimit:10;}
	.st4{opacity:0.8;}
	.st5{clip-path:url(#SVGID_2_);fill:none;stroke:#FFFFFF;stroke-width:1.7085;stroke-miterlimit:10;}
	.st6{clip-path:url(#SVGID_2_);fill:#FFFFFF;}
	.st7{opacity:0.8;clip-path:url(#SVGID_2_);}
	.st8{clip-path:url(#SVGID_4_);fill:#FFFFFF;}
	.st9{clip-path:url(#SVGID_6_);fill:none;stroke:#FFFFFF;stroke-width:1.7085;stroke-miterlimit:10;}
	.st10{clip-path:url(#SVGID_6_);fill:#FFFFFF;}
	.st11{opacity:0.8;clip-path:url(#SVGID_6_);}
	.st12{clip-path:url(#SVGID_8_);fill:#FFFFFF;}
	.st13{clip-path:url(#SVGID_10_);fill:none;stroke:#FFFFFF;stroke-width:1.7085;stroke-miterlimit:10;}
	.st14{clip-path:url(#SVGID_10_);fill:#FFFFFF;}
	.st15{opacity:0.8;clip-path:url(#SVGID_10_);}
	.st16{clip-path:url(#SVGID_12_);fill:#FFFFFF;}
	.st17{fill:#FFFFFF;}
	.st18{clip-path:url(#SVGID_14_);fill:#FFFFFF;}
</style>
<g>
	<path class="st0" d="M410.9,376.9H70.5c-27.7,0-50.2-22.5-50.2-50.2V73.3c0-27.7,22.5-50.2,50.2-50.2h340.5
		c27.7,0,50.2,22.5,50.2,50.2v253.5C461.1,354.5,438.7,376.9,410.9,376.9z"/>
	<g>
		<path class="st1" d="M167.1,141.5l-17.3,0.1l-0.1-14.4c0-4.1-3.1-7.5-6.9-7.4L79.6,120c-3.8,0-6.9,3.4-6.8,7.5l0.6,145.2
			c0,4.1,3.1,7.5,6.9,7.4l63.3-0.3c3.8,0,6.9-3.4,6.8-7.5l-0.1-14.4l17.3-0.1c3.8,0,6.9-3.4,6.8-7.5L174,148.9
			C174,144.8,170.9,141.5,167.1,141.5z"/>
		<path class="st2" d="M117.3,157l-9,0c-1.7,0-3-1.3-3-3l0-10.4c0-1.7,1.3-3,3-3l9,0c1.7,0,3,1.3,3,3l0,10.4
			C120.3,155.6,119,157,117.3,157z"/>
		<path class="st2" d="M117.4,191.1l-9,0c-1.7,0-3-1.3-3-3l0-10.4c0-1.7,1.3-3,3-3l9,0c1.7,0,3,1.3,3,3l0,10.4
			C120.4,189.7,119.1,191,117.4,191.1z"/>
		<path class="st2" d="M117.6,225.1l-9,0c-1.7,0-3-1.3-3-3l0-10.4c0-1.7,1.3-3,3-3l9,0c1.7,0,3,1.3,3,3l0,10.4
			C120.6,223.8,119.2,225.1,117.6,225.1z"/>
		<path class="st2" d="M117.7,259.2l-9,0c-1.7,0-3-1.3-3-3l0-10.4c0-1.7,1.3-3,3-3l9,0c1.7,0,3,1.3,3,3l0,10.4
			C120.7,257.8,119.4,259.2,117.7,259.2z"/>
		<rect x="212.6" y="103.5" class="st3" width="34.1" height="73.7"/>
		<g class="st4">
			<g>
				<defs>
					<rect id="SVGID_1_" x="218" y="107.6" width="19.3" height="65.5"/>
				</defs>
				<clipPath id="SVGID_2_">
					<use xlink:href="#SVGID_1_"  style="overflow:visible;"/>
				</clipPath>
				<path class="st5" d="M223.3,108.5l8.5,0c2.5,0,4.5,2.1,4.5,4.6l0,54.5c0,2.5-2,4.5-4.4,4.5l-8.5,0c-2.5,0-4.5-2-4.5-4.6l0-54.5
					C218.9,110.5,220.9,108.5,223.3,108.5z"/>
				<path class="st6" d="M223.3,117.7l8.5,0c2.5,0,4.5,2.1,4.5,4.6l0,36c0,2.5-2,4.5-4.5,4.5l-8.5,0c-2.5,0-4.5-2.1-4.5-4.6l0-36
					C218.9,119.8,220.9,117.7,223.3,117.7"/>
				<g class="st7">
					<g>
						<defs>
							<rect id="SVGID_3_" x="224.3" y="108.5" width="6.7" height="63.5"/>
						</defs>
						<clipPath id="SVGID_4_">
							<use xlink:href="#SVGID_3_"  style="overflow:visible;"/>
						</clipPath>
						<path class="st8" d="M224.3,115.3c0,1.7,1.4,3.1,3,3.1c1.7,0,3-1.4,3-3.1c0-1.1-0.6-2.1-1.5-2.7l1.3-4.1l-5.7,0.2l1.8,3.7
							C225.1,112.8,224.3,114,224.3,115.3"/>
						<path class="st8" d="M224.9,165.4c0-1.7,1.3-3.1,3-3.1c1.7,0,3,1.4,3.1,3.1c0,1.1-0.6,2.1-1.5,2.7l1.3,4.1l-5.7-0.1l1.7-3.7
							C225.7,167.8,224.9,166.7,224.9,165.4"/>
					</g>
				</g>
			</g>
		</g>
		<rect x="212.6" y="211.8" class="st3" width="34.1" height="73.7"/>
		<g class="st4">
			<g>
				<defs>
					<rect id="SVGID_5_" x="218" y="216" width="19.3" height="65.5"/>
				</defs>
				<clipPath id="SVGID_6_">
					<use xlink:href="#SVGID_5_"  style="overflow:visible;"/>
				</clipPath>
				<path class="st9" d="M223.3,216.9l8.5,0c2.5,0,4.5,2,4.5,4.6l0,54.5c0,2.5-2,4.5-4.4,4.5l-8.5,0c-2.5,0-4.5-2-4.5-4.6l0-54.5
					C218.9,218.9,220.9,216.9,223.3,216.9z"/>
				<path class="st10" d="M223.3,226.1l8.5,0c2.5,0,4.5,2.1,4.5,4.6l0,36c0,2.5-2,4.5-4.5,4.5l-8.5,0c-2.5,0-4.5-2-4.5-4.6l0-36
					C218.9,228.1,220.9,226.1,223.3,226.1"/>
				<g class="st11">
					<g>
						<defs>
							<rect id="SVGID_7_" x="224.3" y="216.9" width="6.7" height="63.5"/>
						</defs>
						<clipPath id="SVGID_8_">
							<use xlink:href="#SVGID_7_"  style="overflow:visible;"/>
						</clipPath>
						<path class="st12" d="M224.3,223.7c0,1.7,1.4,3.1,3,3.1c1.7,0,3-1.4,3-3.1c0-1.1-0.6-2.1-1.5-2.7l1.3-4.1l-5.7,0.2l1.8,3.7
							C225.1,221.2,224.3,222.3,224.3,223.7"/>
						<path class="st12" d="M224.9,273.7c0-1.7,1.3-3.1,3-3.1c1.7,0,3,1.4,3.1,3.1c0,1.1-0.6,2.1-1.5,2.7l1.3,4.1l-5.7-0.1l1.7-3.7
							C225.7,276.2,224.9,275.1,224.9,273.7"/>
					</g>
				</g>
			</g>
		</g>
		<rect x="267.1" y="157.6" class="st3" width="34.1" height="73.7"/>
		<g class="st4">
			<g>
				<defs>
					<rect id="SVGID_9_" x="272.5" y="161.8" width="19.3" height="65.5"/>
				</defs>
				<clipPath id="SVGID_10_">
					<use xlink:href="#SVGID_9_"  style="overflow:visible;"/>
				</clipPath>
				<path class="st13" d="M277.9,162.7l8.5,0c2.5,0,4.5,2,4.5,4.6l0,54.5c0,2.5-2,4.5-4.4,4.5l-8.5,0c-2.5,0-4.5-2-4.5-4.6l0-54.5
					C273.4,164.7,275.4,162.7,277.9,162.7z"/>
				<path class="st14" d="M277.9,171.9l8.5,0c2.5,0,4.5,2,4.5,4.6l0,36c0,2.5-2,4.5-4.5,4.5l-8.5,0c-2.5,0-4.5-2-4.5-4.6l0-36
					C273.4,174,275.4,171.9,277.9,171.9"/>
				<g class="st15">
					<g>
						<defs>
							<rect id="SVGID_11_" x="278.8" y="162.7" width="6.7" height="63.5"/>
						</defs>
						<clipPath id="SVGID_12_">
							<use xlink:href="#SVGID_11_"  style="overflow:visible;"/>
						</clipPath>
						<path class="st16" d="M278.8,169.5c0,1.7,1.4,3.1,3,3.1s3-1.4,3-3.1c0-1.1-0.6-2.1-1.5-2.7l1.3-4.1l-5.7,0.2l1.8,3.7
							C279.6,167,278.8,168.2,278.8,169.5"/>
						<path class="st16" d="M279.4,219.6c0-1.7,1.3-3.1,3-3.1c1.7,0,3,1.4,3.1,3.1c0,1.1-0.6,2.1-1.5,2.7l1.3,4.1l-5.7-0.1l1.7-3.7
							C280.2,222,279.4,220.9,279.4,219.6"/>
					</g>
				</g>
			</g>
		</g>
		<path class="st17" d="M399.6,231.4h-39.4c-5,0-9.1-4.1-9.1-9.1v-55.6c0-5,4.1-9.1,9.1-9.1h39.4c5,0,9.1,4.1,9.1,9.1v55.6
			C408.7,227.4,404.6,231.4,399.6,231.4"/>
		<g class="st4">
			<g>
				<defs>
					<rect id="SVGID_13_" x="323.1" y="157.6" width="29.3" height="74"/>
				</defs>
				<clipPath id="SVGID_14_">
					<use xlink:href="#SVGID_13_"  style="overflow:visible;"/>
				</clipPath>
				<rect x="323.1" y="157.6" class="st18" width="29.3" height="19.5"/>
				<rect x="323.1" y="212" class="st18" width="29.3" height="19.5"/>
			</g>
		</g>
		<path class="st17" d="M89.7,44.8c0,4.3-3.4,7.7-7.7,7.7c-4.3,0-7.7-3.4-7.7-7.7c0-4.3,3.4-7.7,7.7-7.7
			C86.2,37.1,89.7,40.5,89.7,44.8"/>
		<path class="st17" d="M404.7,355.2c0,4.3-3.4,7.7-7.7,7.7c-4.3,0-7.7-3.4-7.7-7.7c0-4.3,3.4-7.7,7.7-7.7
			C401.3,347.6,404.7,351,404.7,355.2"/>
	</g>
</g>
</svg>
