<svg xmlns="http://www.w3.org/2000/svg" viewBox="0 0 504 424"><defs><style>.cls-1,.cls-2,.cls-3,.cls-4,.cls-6,.cls-9{fill:none;stroke:#fff;stroke-miterlimit:10;}.cls-1{stroke-width:24px;}.cls-2{stroke-width:19.76px;}.cls-3{stroke-width:7.37px;}.cls-4{stroke-width:3.52px;}.cls-5{opacity:0.8;}.cls-6{stroke-width:2.27px;}.cls-7,.cls-8{fill:#fff;}.cls-8{opacity:0.6;}.cls-9{stroke-width:1.88px;}</style></defs><title>资源 1</title><g id="图层_2" data-name="图层 2"><g id="图层_1-2" data-name="图层 1"><path class="cls-1" d="M46.4,252.18v128A31.85,31.85,0,0,0,78.23,412h129.7a48.17,48.17,0,0,1,96,0H425.77a31.85,31.85,0,0,0,31.83-31.87v-128a34.45,34.45,0,0,0,0-68.9V43.87A31.85,31.85,0,0,0,425.77,12H304.13a48.18,48.18,0,1,1-96.37,0H78.23A31.85,31.85,0,0,0,46.4,43.87V183.28a34.45,34.45,0,0,0,0,68.9Z"/><path class="cls-2" d="M328.27,274.86l18.63-.08.06,15.51c0,4.44,3.34,8,7.42,8l68-.27c4.08,0,7.37-3.63,7.35-8.07l-.63-156.25c0-4.44-3.34-8-7.42-8l-68,.27c-4.08,0-7.37,3.63-7.35,8.07l.06,15.51-18.63.08c-4.08,0-7.37,3.63-7.35,8.07l.44,109.16C320.87,271.29,324.19,274.88,328.27,274.86Z"/><rect class="cls-3" x="378.62" y="258.17" width="16.18" height="17.61" rx="3.23" ry="3.23" transform="translate(-1.07 1.56) rotate(-0.23)"/><path class="cls-3" d="M381.67,221.54l9.72,0a3.23,3.23,0,0,1,3.24,3.22l0,11.15a3.23,3.23,0,0,1-3.21,3.25l-9.72,0a3.23,3.23,0,0,1-3.24-3.22l0-11.15A3.23,3.23,0,0,1,381.67,221.54Z"/><path class="cls-3" d="M381.52,184.9l9.72,0a3.23,3.23,0,0,1,3.24,3.22l0,11.15a3.23,3.23,0,0,1-3.21,3.25l-9.72,0a3.23,3.23,0,0,1-3.24-3.22l0-11.15A3.23,3.23,0,0,1,381.52,184.9Z"/><path class="cls-3" d="M381.37,148.25l9.72,0a3.23,3.23,0,0,1,3.24,3.22l0,11.15a3.23,3.23,0,0,1-3.21,3.25l-9.72,0a3.23,3.23,0,0,1-3.24-3.22l0-11.15A3.23,3.23,0,0,1,381.37,148.25Z"/><rect class="cls-4" x="78.91" y="336.53" width="67.46" height="36.61" transform="translate(225.27 709.68) rotate(-180)"/><g class="cls-5"><path class="cls-6" d="M83.54,361.56l0-9.17c0-2.64,1.88-4.78,4.17-4.78h49.85c2.3,0,4.15,2.14,4.14,4.78l0,9.17c0,2.64-1.88,4.78-4.17,4.78H87.68C85.39,366.34,83.53,364.2,83.54,361.56Z"/><path class="cls-7" d="M92,361.56l0-9.17c0-2.64,1.88-4.78,4.17-4.78h33c2.3,0,4.15,2.14,4.14,4.78l0,9.17c0,2.64-1.88,4.78-4.17,4.78h-33C93.83,366.34,92,364.2,92,361.56Z"/><g class="cls-5"><path class="cls-7" d="M89.72,360.56a3.29,3.29,0,0,0,0-6.53,2.79,2.79,0,0,0-2.44,1.59l-3.74-1.41.14,6.15,3.38-1.88A2.86,2.86,0,0,0,89.72,360.56Z"/><path class="cls-7" d="M135.56,359.91a3,3,0,0,1-2.85-3.23,3.09,3.09,0,0,1,2.82-3.29,2.76,2.76,0,0,1,2.44,1.57l3.74-1.45-.13,6.15-3.39-1.85A2.9,2.9,0,0,1,135.56,359.91Z"/></g></g><rect class="cls-4" x="78.91" y="286.63" width="67.46" height="36.61" transform="translate(225.27 609.86) rotate(-180)"/><g class="cls-5"><path class="cls-6" d="M83.54,311.65l0-9.17c0-2.64,1.88-4.78,4.17-4.78h49.85c2.3,0,4.15,2.14,4.14,4.78l0,9.17c0,2.64-1.88,4.78-4.17,4.78H87.68C85.39,316.44,83.53,314.29,83.54,311.65Z"/><path class="cls-7" d="M92,311.65l0-9.17c0-2.64,1.88-4.78,4.17-4.78h33c2.3,0,4.15,2.14,4.14,4.78l0,9.17c0,2.64-1.88,4.78-4.17,4.78h-33C93.83,316.44,92,314.29,92,311.65Z"/><g class="cls-5"><path class="cls-7" d="M89.72,310.65a3.29,3.29,0,0,0,0-6.53,2.79,2.79,0,0,0-2.44,1.59l-3.74-1.41.14,6.15,3.38-1.88A2.86,2.86,0,0,0,89.72,310.65Z"/><path class="cls-7" d="M135.56,310a3,3,0,0,1-2.85-3.23,3.09,3.09,0,0,1,2.82-3.29A2.76,2.76,0,0,1,138,305l3.74-1.45-.13,6.15-3.39-1.85A2.9,2.9,0,0,1,135.56,310Z"/></g></g><rect class="cls-4" x="225.63" y="311.63" width="67.46" height="36.61" transform="translate(518.72 659.86) rotate(-180)"/><g class="cls-5"><path class="cls-6" d="M230.27,336.65l0-9.17c0-2.64,1.88-4.78,4.17-4.78h49.85c2.3,0,4.15,2.14,4.14,4.78l0,9.17c0,2.64-1.88,4.78-4.17,4.78H234.41C232.11,341.44,230.26,339.29,230.27,336.65Z"/><path class="cls-7" d="M238.71,336.65l0-9.17c0-2.64,1.88-4.78,4.17-4.78h33c2.3,0,4.15,2.14,4.14,4.78l0,9.17c0,2.64-1.88,4.78-4.17,4.78h-33C240.56,341.44,238.7,339.29,238.71,336.65Z"/><g class="cls-5"><path class="cls-7" d="M236.45,335.65a3.29,3.29,0,0,0,0-6.53,2.79,2.79,0,0,0-2.44,1.59l-3.74-1.41.14,6.15,3.38-1.88A2.86,2.86,0,0,0,236.45,335.65Z"/><path class="cls-7" d="M282.29,335a3,3,0,0,1-2.85-3.23,3.09,3.09,0,0,1,2.82-3.29,2.76,2.76,0,0,1,2.44,1.57l3.74-1.45-.13,6.15-3.39-1.85A2.9,2.9,0,0,1,282.29,335Z"/></g></g><rect class="cls-4" x="225.63" y="269.63" width="67.46" height="36.61" transform="translate(518.72 575.86) rotate(-180)"/><g class="cls-5"><path class="cls-6" d="M230.27,294.65l0-9.17c0-2.64,1.88-4.78,4.17-4.78h49.85c2.3,0,4.15,2.14,4.14,4.78l0,9.17c0,2.64-1.88,4.78-4.17,4.78H234.41C232.11,299.44,230.26,297.29,230.27,294.65Z"/><path class="cls-7" d="M238.71,294.65l0-9.17c0-2.64,1.88-4.78,4.17-4.78h33c2.3,0,4.15,2.14,4.14,4.78l0,9.17c0,2.64-1.88,4.78-4.17,4.78h-33C240.56,299.44,238.7,297.29,238.71,294.65Z"/><g class="cls-5"><path class="cls-7" d="M236.45,293.65a3.29,3.29,0,0,0,0-6.53,2.79,2.79,0,0,0-2.44,1.59l-3.74-1.41.14,6.15,3.38-1.88A2.86,2.86,0,0,0,236.45,293.65Z"/><path class="cls-7" d="M282.29,293a3,3,0,0,1-2.85-3.23,3.09,3.09,0,0,1,2.82-3.29,2.76,2.76,0,0,1,2.44,1.57l3.74-1.45-.13,6.15-3.39-1.85A2.9,2.9,0,0,1,282.29,293Z"/></g></g><rect class="cls-7" x="140.69" y="177.11" width="85.21" height="79.32" rx="13.88" ry="13.88" transform="translate(366.59 433.54) rotate(180)"/><rect class="cls-4" x="131.3" y="168.37" width="103.99" height="96.8" rx="16.94" ry="16.94" transform="translate(366.59 433.54) rotate(180)"/><ellipse class="cls-7" cx="419.76" cy="378.98" rx="8.27" ry="8.28"/><ellipse class="cls-7" cx="81.22" cy="44.86" rx="8.27" ry="8.28"/><rect class="cls-8" x="171.22" y="292.44" width="26.59" height="54.44" rx="8.63" ry="8.63"/><rect class="cls-9" x="171.22" y="292.44" width="26.59" height="54.44" rx="8.44" ry="8.44"/><path class="cls-7" d="M198.07,300.46h3.81c.14,0,.26.28.26.62v.67c0,.34.12.62.26.62h6.09c.14,0,.26.28.26.62v3.64c0,.34-.12.62-.26.62h-6.24c-.14,0-.25-.25-.26-.57h0c0-.32-.12-.57-.26-.57l-3.66,0c-.14,0-.26-.28-.26-.62v-4.41C197.81,300.73,197.92,300.46,198.07,300.46Z"/><path class="cls-7" d="M198.07,319.35h3.81c.14,0,.26.25.26.57v.61c0,.31.12.57.26.57h6.09c.14,0,.26.25.26.57V325c0,.31-.12.57-.26.57h-6.24c-.14,0-.25-.23-.26-.53h0c0-.3-.12-.53-.26-.53l-3.66,0c-.14,0-.26-.25-.26-.57v-4C197.81,319.6,197.92,319.35,198.07,319.35Z"/><path class="cls-7" d="M198.07,332.85h3.81c.14,0,.26.25.26.57V334c0,.31.12.57.26.57h6.09c.14,0,.26.25.26.57v3.34c0,.31-.12.57-.26.57h-6.24c-.14,0-.25-.23-.26-.53h0c0-.3-.12-.53-.26-.53l-3.66,0c-.14,0-.26-.25-.26-.57v-4C197.81,333.1,197.92,332.85,198.07,332.85Z"/><path class="cls-7" d="M170.95,300.46h-3.81c-.14,0-.26.28-.26.62v.67c0,.34-.12.62-.26.62h-6.09c-.14,0-.26.28-.26.62v3.64c0,.34.12.62.26.62h6.24c.14,0,.25-.25.26-.57h0c0-.32.12-.57.26-.57l3.66,0c.14,0,.26-.28.26-.62v-4.41C171.21,300.73,171.09,300.46,170.95,300.46Z"/><path class="cls-7" d="M170.95,333.23h-3.81c-.14,0-.26.28-.26.63v.68c0,.35-.12.63-.26.63h-6.09c-.14,0-.26.28-.26.63v3.73c0,.35.12.63.26.63h6.24c.14,0,.25-.26.26-.59h0c0-.33.12-.59.26-.59l3.66,0c.14,0,.26-.28.26-.63v-4.52C171.21,333.51,171.09,333.23,170.95,333.23Z"/><rect class="cls-8" x="213.52" y="84.05" width="26.59" height="54.44" rx="8.63" ry="8.63"/><rect class="cls-9" x="213.52" y="84.05" width="26.59" height="54.44" rx="8.44" ry="8.44"/><path class="cls-7" d="M240.36,92.07h3.81c.14,0,.26.17.26.38v.41c0,.21.12.38.26.38h6.09c.14,0,.26.17.26.38v2.22c0,.21-.12.38-.26.38h-6.24c-.14,0-.25-.15-.26-.35h0c0-.2-.12-.35-.26-.35h-3.66c-.14,0-.26-.17-.26-.38V92.44C240.1,92.24,240.22,92.07,240.36,92.07Z"/><path class="cls-7" d="M240.36,103.93h3.81c.14,0,.26.17.26.38v.41c0,.21.12.38.26.38h6.09c.14,0,.26.17.26.38v2.22c0,.21-.12.38-.26.38h-6.24c-.14,0-.25-.15-.26-.35h0c0-.2-.12-.35-.26-.35h-3.66c-.14,0-.26-.17-.26-.38v-2.68C240.1,104.1,240.22,103.93,240.36,103.93Z"/><path class="cls-7" d="M240.36,115.79h3.81c.14,0,.26.17.26.38v.41c0,.21.12.38.26.38h6.09c.14,0,.26.17.26.38v2.22c0,.21-.12.38-.26.38h-6.24c-.14,0-.25-.15-.26-.35h0c0-.2-.12-.35-.26-.35h-3.66c-.14,0-.26-.17-.26-.38v-2.68C240.1,116,240.22,115.79,240.36,115.79Z"/><path class="cls-7" d="M240.36,127.66h3.81c.14,0,.26.17.26.38v.41c0,.21.12.38.26.38h6.09c.14,0,.26.17.26.38v2.22c0,.21-.12.38-.26.38h-6.24c-.14,0-.25-.15-.26-.35h0c0-.2-.12-.35-.26-.35h-3.66c-.14,0-.26-.17-.26-.38V128C240.1,127.82,240.22,127.66,240.36,127.66Z"/><path class="cls-7" d="M213.25,92.07h-3.81c-.14,0-.26.17-.26.38v.41c0,.21-.12.38-.26.38h-6.09c-.14,0-.26.17-.26.38v2.22c0,.21.12.38.26.38h6.24c.14,0,.25-.15.26-.35h0c0-.2.12-.35.26-.35h3.66c.14,0,.26-.17.26-.38V92.44C213.5,92.24,213.39,92.07,213.25,92.07Z"/><path class="cls-7" d="M213.25,103.93h-3.81c-.14,0-.26.17-.26.38v.41c0,.21-.12.38-.26.38h-6.09c-.14,0-.26.17-.26.38v2.22c0,.21.12.38.26.38h6.24c.14,0,.25-.15.26-.35h0c0-.2.12-.35.26-.35h3.66c.14,0,.26-.17.26-.38v-2.68C213.5,104.1,213.39,103.93,213.25,103.93Z"/><path class="cls-7" d="M213.25,115.79h-3.81c-.14,0-.26.17-.26.38v.41c0,.21-.12.38-.26.38h-6.09c-.14,0-.26.17-.26.38v2.22c0,.21.12.38.26.38h6.24c.14,0,.25-.15.26-.35h0c0-.2.12-.35.26-.35h3.66c.14,0,.26-.17.26-.38v-2.68C213.5,116,213.39,115.79,213.25,115.79Z"/><path class="cls-7" d="M213.25,127.66h-3.81c-.14,0-.26.17-.26.38v.41c0,.21-.12.38-.26.38h-6.09c-.14,0-.26.17-.26.38v2.22c0,.21.12.38.26.38h6.24c.14,0,.25-.15.26-.35h0c0-.2.12-.35.26-.35h3.66c.14,0,.26-.17.26-.38V128C213.5,127.82,213.39,127.66,213.25,127.66Z"/><rect class="cls-4" x="130.36" y="69.06" width="55" height="74"/><rect class="cls-8" x="137.36" y="74.06" width="40" height="15.04" rx="3.5" ry="3.5"/><rect class="cls-8" x="137.36" y="90.5" width="40" height="15.04" rx="3.5" ry="3.5"/><rect class="cls-8" x="137.36" y="106.93" width="40" height="15.04" rx="3.5" ry="3.5"/><rect class="cls-8" x="137.36" y="123.36" width="40" height="15.04" rx="3.5" ry="3.5"/><rect class="cls-9" x="144.36" y="78.73" width="25" height="55"/><rect class="cls-8" x="144.36" y="78.73" width="25" height="55"/><rect class="cls-7" x="272.36" y="161.06" width="46" height="13" rx="5.89" ry="5.89"/><rect class="cls-7" x="272.36" y="189.56" width="46" height="13" rx="5.89" ry="5.89"/><rect class="cls-7" x="272.36" y="218.06" width="46" height="13" rx="5.89" ry="5.89"/><rect class="cls-7" x="272.36" y="246.56" width="46" height="13" rx="5.89" ry="5.89"/></g></g></svg>