<svg xmlns="http://www.w3.org/2000/svg" viewBox="0 0 504 424"><defs><style>.cls-1{fill:#fff;}.cls-2,.cls-3,.cls-4,.cls-5{fill:none;stroke:#fff;}.cls-2,.cls-3,.cls-4{stroke-miterlimit:10;}.cls-2{stroke-width:24px;}.cls-3{stroke-width:19.76px;}.cls-4{stroke-width:7.37px;}.cls-5{stroke-linecap:round;stroke-linejoin:round;stroke-width:6.72px;opacity:0.49;}</style></defs><title>资源 2</title><g id="图层_2" data-name="图层 2"><g id="图层_1-2" data-name="图层 1"><path class="cls-1" d="M318.72,272.86a13,13,0,0,0-1.86.14,5.15,5.15,0,0,0-1.19-.14H192.81a5.21,5.21,0,0,0-1.67.28,13.06,13.06,0,0,0-2.62-.28c-5.13,0-9.83,3-13.5,8a7.06,7.06,0,0,0-1.16,4.07v46.18a7.06,7.06,0,0,0,1.16,4.07c3.67,5,8.37,8,13.5,8a13.06,13.06,0,0,0,2.62-.28,5.21,5.21,0,0,0,1.67.28H315.67a5.15,5.15,0,0,0,1.19-.14,13,13,0,0,0,1.86.14c5.37,0,10.26-3.31,14-8.75a7.68,7.68,0,0,0,1.16-4.25V285.86a7.68,7.68,0,0,0-1.16-4.25C329,276.17,324.08,272.86,318.72,272.86Z"/><path class="cls-2" d="M457.6,171.83v-128A31.85,31.85,0,0,0,425.77,12H296.07a48.17,48.17,0,0,1-96,0H78.23A31.85,31.85,0,0,0,46.4,43.87v128a34.45,34.45,0,0,0,0,68.9V380.13A31.85,31.85,0,0,0,78.23,412H199.87a48.18,48.18,0,1,1,96.37,0H425.77a31.85,31.85,0,0,0,31.83-31.87V240.72a34.45,34.45,0,0,0,0-68.9Z"/><path class="cls-3" d="M189.75,57.68l-.16,18.65-15.48-.13c-4.43,0-8.05,3.24-8.09,7.33l-.57,68.09c0,4.08,3.53,7.42,8,7.46l156,1.3c4.43,0,8.05-3.24,8.09-7.33L338.11,85c0-4.08-3.53-7.42-8-7.46l-15.48-.13.16-18.65c0-4.08-3.53-7.42-8-7.46l-109-.91C193.41,50.31,189.79,53.59,189.75,57.68Z"/><rect class="cls-4" x="188.81" y="107.5" width="16.2" height="17.59" rx="3.23" ry="3.23" transform="translate(78.98 312.23) rotate(-89.52)"/><path class="cls-4" d="M242.34,111.81l-.08,9.74a3.23,3.23,0,0,1-3.25,3.21l-11.13-.09a3.23,3.23,0,0,1-3.2-3.26l.08-9.74a3.23,3.23,0,0,1,3.25-3.21l11.13.09A3.23,3.23,0,0,1,242.34,111.81Z"/><path class="cls-4" d="M278.93,112.11l-.08,9.74a3.23,3.23,0,0,1-3.25,3.21L264.46,125a3.23,3.23,0,0,1-3.2-3.26l.08-9.74a3.23,3.23,0,0,1,3.25-3.21l11.13.09A3.23,3.23,0,0,1,278.93,112.11Z"/><path class="cls-4" d="M315.52,112.42l-.08,9.74a3.23,3.23,0,0,1-3.25,3.21l-11.13-.09a3.23,3.23,0,0,1-3.2-3.26l.08-9.74a3.23,3.23,0,0,1,3.25-3.21l11.13.09A3.23,3.23,0,0,1,315.52,112.42Z"/><rect class="cls-1" x="238.34" y="177.27" width="21.08" height="46.99" transform="translate(48.11 449.64) rotate(-90)"/><rect class="cls-5" x="235.32" y="165.64" width="25.12" height="70.44" transform="translate(47.02 448.74) rotate(-90)"/><rect class="cls-1" x="238.34" y="219.27" width="21.08" height="46.99" transform="translate(6.11 491.63) rotate(-90)"/><rect class="cls-5" x="235.32" y="207.64" width="25.12" height="70.44" transform="translate(5.02 490.74) rotate(-90)"/></g></g></svg>