<svg xmlns="http://www.w3.org/2000/svg" viewBox="0 0 760 420"><defs><style>.cls-1,.cls-2,.cls-3,.cls-6,.cls-7,.cls-8{fill:none;stroke:#fff;}.cls-1,.cls-2,.cls-3{stroke-miterlimit:10;}.cls-1{stroke-width:20px;}.cls-2{stroke-width:13.44px;}.cls-3{stroke-width:5.01px;}.cls-4,.cls-5{fill:#fff;}.cls-4{opacity:0.4;}.cls-6,.cls-7,.cls-8{stroke-linecap:round;stroke-linejoin:round;opacity:0.49;}.cls-6{stroke-width:5.37px;}.cls-7{stroke-width:2.9px;}.cls-8{stroke-width:4.83px;}</style></defs><title>资源 1</title><g id="图层_2" data-name="图层 2"><g id="图层_1-2" data-name="图层 1"><path class="cls-1" d="M52.59,196.36c0-23.22-18.78-42.22-42.59-43.88V77.07c0-20.55,17.4-37.21,38.86-37.21H139.3c0-16.49,14-29.86,31.19-29.86s31.19,13.37,31.19,29.86H531.34c0,.38,0,.75,0,1.13,0,23.54,19.93,42.62,44.52,42.62S620.35,64.53,620.35,41c0-.38,0-.75,0-1.13h59.63c21.46,0,38.86,16.66,38.86,37.21V180.14C736,180.14,750,193.51,750,210s-14,29.86-31.19,29.86V342.93c0,20.55-17.4,37.21-38.86,37.21h-59.6c0-23.54-19.93-42.62-44.52-42.62s-44.52,19.08-44.52,42.62H201.68c0,16.49-14,29.86-31.19,29.86s-31.19-13.37-31.19-29.86H48.86C27.4,380.14,10,363.48,10,342.93V240.24C33.81,238.59,52.59,219.58,52.59,196.36Z"/><path class="cls-2" d="M145.09,247.44l-12.79-.08-.07,10.18a5.18,5.18,0,0,1-5.1,5.24l-46.67-.3a5.17,5.17,0,0,1-5-5.31l.71-102.55a5.18,5.18,0,0,1,5.1-5.24l46.67.3a5.17,5.17,0,0,1,5,5.31l-.07,10.18,12.79.08a5.17,5.17,0,0,1,5,5.31l-.49,71.64A5.18,5.18,0,0,1,145.09,247.44Z"/><path class="cls-3" d="M107.32,236.4l-4.59,0a3.19,3.19,0,0,0-3.28,3.1l0,5.32a3.19,3.19,0,0,0,3.24,3.14l4.59,0a3.19,3.19,0,0,0,3.28-3.1l0-5.32A3.19,3.19,0,0,0,107.32,236.4Z"/><path class="cls-3" d="M107.48,212.35l-4.59,0a3.19,3.19,0,0,0-3.28,3.1l0,5.32a3.19,3.19,0,0,0,3.24,3.14l4.59,0a3.19,3.19,0,0,0,3.28-3.1l0-5.32A3.19,3.19,0,0,0,107.48,212.35Z"/><path class="cls-3" d="M107.65,188.3l-4.59,0a3.19,3.19,0,0,0-3.28,3.1l0,5.32a3.19,3.19,0,0,0,3.24,3.14l4.59,0a3.19,3.19,0,0,0,3.28-3.1l0-5.32A3.19,3.19,0,0,0,107.65,188.3Z"/><path class="cls-3" d="M107.82,164.25l-4.59,0a3.19,3.19,0,0,0-3.28,3.1l0,5.32a3.19,3.19,0,0,0,3.24,3.14l4.59,0a3.19,3.19,0,0,0,3.28-3.1l0-5.32A3.19,3.19,0,0,0,107.82,164.25Z"/><rect class="cls-4" x="293.79" y="77.51" width="403.51" height="265" rx="39.85" ry="39.85"/><path class="cls-5" d="M633.87,91H357.22c-23.77,0-43,16.2-43,36.19V292.79c0,20,19.27,36.19,43,36.19H633.87c23.77,0,43-16.2,43-36.19V127.23C676.9,107.24,657.64,91,633.87,91Z"/><rect class="cls-5" x="238.69" y="258.62" width="21.08" height="29.94" transform="translate(522.82 24.36) rotate(90)"/><rect class="cls-6" x="237.3" y="251.04" width="25.12" height="44.88" transform="translate(523.35 23.63) rotate(90)"/><rect class="cls-5" x="254.49" y="235.02" width="13.06" height="14.11" transform="translate(522.04 484.16) rotate(180)"/><rect class="cls-7" x="253.3" y="231.8" width="15.56" height="21.15" transform="translate(522.16 484.75) rotate(180)"/><rect class="cls-5" x="254.49" y="208.16" width="13.06" height="14.11" transform="translate(522.04 430.43) rotate(180)"/><rect class="cls-7" x="253.3" y="204.93" width="15.56" height="21.15" transform="translate(522.16 431.02) rotate(180)"/><rect class="cls-5" x="254.49" y="176.16" width="13.06" height="14.11" transform="translate(522.04 366.43) rotate(180)"/><rect class="cls-7" x="253.3" y="172.93" width="15.56" height="21.15" transform="translate(522.16 367.02) rotate(180)"/><rect class="cls-5" x="254.49" y="143.16" width="13.06" height="14.11" transform="translate(522.04 300.43) rotate(180)"/><rect class="cls-7" x="253.3" y="139.93" width="15.56" height="21.15" transform="translate(522.16 301.02) rotate(180)"/><rect class="cls-5" x="194.71" y="129.16" width="13.06" height="14.11" transform="translate(402.48 272.43) rotate(180)"/><rect class="cls-7" x="193.52" y="125.93" width="15.56" height="21.15" transform="translate(402.61 273.02) rotate(180)"/><rect class="cls-5" x="223.71" y="91.16" width="13.06" height="14.11" transform="translate(460.48 196.43) rotate(180)"/><rect class="cls-7" x="222.52" y="87.93" width="15.56" height="21.15" transform="translate(460.61 197.02) rotate(180)"/><rect class="cls-5" x="235.71" y="235.02" width="13.06" height="14.11" transform="translate(484.48 484.16) rotate(180)"/><rect class="cls-7" x="234.52" y="231.8" width="15.56" height="21.15" transform="translate(484.61 484.75) rotate(180)"/><rect class="cls-5" x="235.71" y="208.16" width="13.06" height="14.11" transform="translate(484.48 430.43) rotate(180)"/><rect class="cls-7" x="234.52" y="204.93" width="15.56" height="21.15" transform="translate(484.61 431.02) rotate(180)"/><rect class="cls-5" x="216.93" y="235.02" width="13.06" height="14.11" transform="translate(446.92 484.16) rotate(180)"/><rect class="cls-7" x="215.74" y="231.8" width="15.56" height="21.15" transform="translate(447.05 484.75) rotate(180)"/><rect class="cls-5" x="216.93" y="208.16" width="13.06" height="14.11" transform="translate(446.92 430.43) rotate(180)"/><rect class="cls-7" x="215.74" y="204.93" width="15.56" height="21.15" transform="translate(447.05 431.02) rotate(180)"/><rect class="cls-5" x="198.15" y="235.02" width="13.06" height="14.11" transform="translate(409.37 484.16) rotate(180)"/><rect class="cls-7" x="196.97" y="231.8" width="15.56" height="21.15" transform="translate(409.49 484.75) rotate(180)"/><rect class="cls-5" x="198.15" y="208.16" width="13.06" height="14.11" transform="translate(409.37 430.43) rotate(180)"/><rect class="cls-7" x="196.97" y="204.93" width="15.56" height="21.15" transform="translate(409.49 431.02) rotate(180)"/><rect class="cls-5" x="191.86" y="273.17" width="21.08" height="29.94"/><rect class="cls-6" x="189.74" y="265.07" width="25.12" height="44.88"/><rect class="cls-5" x="251.86" y="86.17" width="21.08" height="29.94"/><rect class="cls-6" x="249.74" y="78.07" width="25.12" height="44.88"/><rect class="cls-5" x="191.86" y="166.09" width="21.08" height="24.31"/><rect class="cls-8" x="189.74" y="159.51" width="25.12" height="36.44"/><rect class="cls-5" x="238.69" y="294.64" width="21.08" height="29.94" transform="translate(558.84 60.38) rotate(90)"/><rect class="cls-6" x="237.3" y="287.07" width="25.12" height="44.88" transform="translate(559.37 59.65) rotate(90)"/><rect class="cls-6" x="44.3" y="300.51" width="98" height="44"/><rect class="cls-5" x="50.3" y="310.51" width="25" height="25"/><rect class="cls-5" x="79.3" y="310.51" width="25" height="25"/><rect class="cls-5" x="108.3" y="310.51" width="25" height="25"/><rect class="cls-5" x="223.3" y="162.98" width="21.55" height="32.54"/><rect class="cls-5" x="223.3" y="120.98" width="21.55" height="32.54"/><rect class="cls-5" x="191.3" y="83.98" width="21.55" height="32.54"/></g></g></svg>