<svg xmlns="http://www.w3.org/2000/svg" viewBox="0 0 504 424"><defs><style>.cls-1,.cls-10,.cls-2,.cls-3,.cls-4,.cls-7,.cls-8{fill:none;stroke:#fff;stroke-miterlimit:10;}.cls-1{stroke-width:24px;}.cls-2{stroke-width:19.76px;}.cls-3{stroke-width:7.37px;}.cls-4{stroke-width:7.8px;}.cls-5,.cls-6{fill:#fff;}.cls-6{opacity:0.6;}.cls-7{stroke-width:1.88px;}.cls-8{stroke-width:3.52px;}.cls-9{opacity:0.8;}.cls-10{stroke-width:2.27px;}</style></defs><title>资源 3</title><g id="图层_2" data-name="图层 2"><g id="图层_1-2" data-name="图层 1"><path class="cls-1" d="M457.6,171.83v-128A31.85,31.85,0,0,0,425.77,12H296.07a48.17,48.17,0,0,1-96,0H78.23A31.85,31.85,0,0,0,46.4,43.87v128a34.45,34.45,0,0,0,0,68.9V380.13A31.85,31.85,0,0,0,78.23,412H199.87a48.18,48.18,0,1,1,96.37,0H425.77a31.85,31.85,0,0,0,31.83-31.87V240.72a34.45,34.45,0,0,0,0-68.9Z"/><path class="cls-2" d="M314,152.85l.16-18.65,15.48.13c4.43,0,8.05-3.24,8.09-7.33l.57-68.09c0-4.08-3.53-7.42-8-7.46l-156-1.3c-4.43,0-8.05,3.24-8.09,7.33l-.57,68.09c0,4.08,3.53,7.42,8,7.46l15.48.13L189,151.81c0,4.08,3.53,7.42,8,7.46l109,.91C310.38,160.21,314,156.93,314,152.85Z"/><path class="cls-3" d="M298,99l.08-9.74a3.23,3.23,0,0,1,3.25-3.21l11.13.09a3.23,3.23,0,0,1,3.2,3.26l-.08,9.74a3.23,3.23,0,0,1-3.25,3.21l-11.13-.09A3.23,3.23,0,0,1,298,99Z"/><path class="cls-3" d="M261.45,98.72l.08-9.74a3.23,3.23,0,0,1,3.25-3.21l11.13.09a3.23,3.23,0,0,1,3.2,3.26L279,98.87a3.23,3.23,0,0,1-3.25,3.21L264.65,102A3.23,3.23,0,0,1,261.45,98.72Z"/><path class="cls-3" d="M224.86,98.42l.08-9.74a3.23,3.23,0,0,1,3.25-3.21l11.13.09a3.23,3.23,0,0,1,3.2,3.26l-.08,9.74a3.23,3.23,0,0,1-3.25,3.21l-11.13-.09A3.23,3.23,0,0,1,224.86,98.42Z"/><path class="cls-3" d="M188.27,98.11l.08-9.74a3.23,3.23,0,0,1,3.25-3.21l11.13.09a3.23,3.23,0,0,1,3.2,3.26l-.08,9.74a3.23,3.23,0,0,1-3.25,3.21l-11.13-.09A3.23,3.23,0,0,1,188.27,98.11Z"/><path class="cls-4" d="M250,364.51c12.17,0,19.09-7.11,19.09-19.52v-8.55a56,56,0,0,1-18.84,2.93,58,58,0,0,1-18.9-2.77l.09,8.39c0,12.22,6.83,19.52,18.57,19.52Z"/><path class="cls-5" d="M250.23,188.51c-31.92,0-56.71,26-56.71,58,0,23.69,10.9,34.53,21.55,44.09,8,7.21,16.41,14,16.41,24.75v8.16c2.57,1.5,7.74,3.43,18.64,3.43,10.38,0,15.88-2,18.86-3.65v-7.94c0-13.49,9.61-21.2,18.13-28.66,10.33-9,19.84-18.38,19.84-40.18,0-32-24.8-58-56.71-58Z"/><rect class="cls-6" x="360.64" y="239.3" width="26.59" height="54.44" rx="8.63" ry="8.63" transform="translate(640.45 -107.42) rotate(90)"/><rect class="cls-7" x="360.64" y="239.3" width="26.59" height="54.44" rx="8.44" ry="8.44" transform="translate(640.45 -107.42) rotate(90)"/><path class="cls-5" d="M393.14,280.07v3.81c0,.14-.28.26-.62.26h-.67c-.34,0-.62.12-.62.26v6.09c0,.14-.28.26-.62.26H387c-.34,0-.62-.12-.62-.26v-6.24c0-.14.25-.25.57-.26h0c.32,0,.57-.12.57-.26l0-3.66c0-.14.28-.26.62-.26h4.41C392.86,279.81,393.14,279.92,393.14,280.07Z"/><path class="cls-5" d="M360.74,280.07v3.81c0,.14-.25.26-.57.26h-.61c-.31,0-.57.12-.57.26v6.09c0,.14-.25.26-.57.26h-3.34c-.31,0-.57-.12-.57-.26v-6.24c0-.14.23-.25.53-.26h0c.3,0,.53-.12.53-.26l0-3.66c0-.14.25-.26.57-.26h4C360.49,279.81,360.74,279.92,360.74,280.07Z"/><path class="cls-5" d="M377.84,252.95v-3.81c0-.14-.28-.26-.62-.26h-.67c-.34,0-.62-.12-.62-.26v-6.09c0-.14-.28-.26-.62-.26h-3.64c-.34,0-.62.12-.62.26v6.24c0,.14.25.25.57.26h0c.32,0,.57.12.57.26l0,3.66c0,.14.28.26.62.26h4.41C377.57,253.21,377.84,253.09,377.84,252.95Z"/><rect class="cls-8" x="92.37" y="257.44" width="67.46" height="36.61" transform="translate(252.2 551.49) rotate(-180)"/><g class="cls-9"><path class="cls-10" d="M97,282.47l0-9.17c0-2.64,1.88-4.78,4.17-4.78h49.85c2.3,0,4.15,2.14,4.14,4.78l0,9.17c0,2.64-1.88,4.78-4.17,4.78H101.15C98.85,287.25,97,285.11,97,282.47Z"/><path class="cls-5" d="M105.45,282.47l0-9.17c0-2.64,1.88-4.78,4.17-4.78h33c2.3,0,4.15,2.14,4.14,4.78l0,9.17c0,2.64-1.88,4.78-4.17,4.78h-33C107.29,287.25,105.44,285.11,105.45,282.47Z"/><g class="cls-9"><path class="cls-5" d="M103.19,281.47a3.29,3.29,0,0,0,0-6.53,2.79,2.79,0,0,0-2.44,1.59L97,275.13l.14,6.15,3.38-1.88A2.86,2.86,0,0,0,103.19,281.47Z"/><path class="cls-5" d="M149,280.82a3,3,0,0,1-2.85-3.23,3.09,3.09,0,0,1,2.82-3.29,2.76,2.76,0,0,1,2.44,1.57l3.74-1.45-.13,6.15-3.39-1.85A2.9,2.9,0,0,1,149,280.82Z"/></g></g><rect class="cls-8" x="338.88" y="188.07" width="67.46" height="36.61" transform="translate(745.22 412.75) rotate(-180)"/><g class="cls-9"><path class="cls-10" d="M343.52,213.1l0-9.17c0-2.64,1.88-4.78,4.17-4.78h49.85c2.3,0,4.15,2.14,4.14,4.78l0,9.17c0,2.64-1.88,4.78-4.17,4.78H347.66C345.36,217.88,343.51,215.74,343.52,213.1Z"/><path class="cls-5" d="M352,213.1l0-9.17c0-2.64,1.88-4.78,4.17-4.78h33c2.3,0,4.15,2.14,4.14,4.78l0,9.17c0,2.64-1.88,4.78-4.17,4.78h-33C353.8,217.88,352,215.74,352,213.1Z"/><g class="cls-9"><path class="cls-5" d="M349.7,212.1a3.29,3.29,0,0,0,0-6.53,2.79,2.79,0,0,0-2.44,1.59l-3.74-1.41.14,6.15,3.38-1.88A2.86,2.86,0,0,0,349.7,212.1Z"/><path class="cls-5" d="M395.54,211.44a3,3,0,0,1-2.85-3.23,3.09,3.09,0,0,1,2.82-3.29,2.76,2.76,0,0,1,2.44,1.57l3.74-1.45-.13,6.15-3.39-1.85A2.9,2.9,0,0,1,395.54,211.44Z"/></g></g><rect class="cls-8" x="338.88" y="308.07" width="67.46" height="36.61" transform="translate(745.22 652.75) rotate(-180)"/><g class="cls-9"><path class="cls-10" d="M343.52,333.1l0-9.17c0-2.64,1.88-4.78,4.17-4.78h49.85c2.3,0,4.15,2.14,4.14,4.78l0,9.17c0,2.64-1.88,4.78-4.17,4.78H347.66C345.36,337.88,343.51,335.74,343.52,333.1Z"/><path class="cls-5" d="M352,333.1l0-9.17c0-2.64,1.88-4.78,4.17-4.78h33c2.3,0,4.15,2.14,4.14,4.78l0,9.17c0,2.64-1.88,4.78-4.17,4.78h-33C353.8,337.88,352,335.74,352,333.1Z"/><g class="cls-9"><path class="cls-5" d="M349.7,332.1a3.29,3.29,0,0,0,0-6.53,2.79,2.79,0,0,0-2.44,1.59l-3.74-1.41.14,6.15,3.38-1.88A2.86,2.86,0,0,0,349.7,332.1Z"/><path class="cls-5" d="M395.54,331.44a3,3,0,0,1-2.85-3.23,3.09,3.09,0,0,1,2.82-3.29,2.76,2.76,0,0,1,2.44,1.57l3.74-1.45-.13,6.15-3.39-1.85A2.9,2.9,0,0,1,395.54,331.44Z"/></g></g><rect class="cls-8" x="92.37" y="302.07" width="67.46" height="36.61" transform="translate(252.2 640.75) rotate(-180)"/><g class="cls-9"><path class="cls-10" d="M97,327.1l0-9.17c0-2.64,1.88-4.78,4.17-4.78h49.85c2.3,0,4.15,2.14,4.14,4.78l0,9.17c0,2.64-1.88,4.78-4.17,4.78H101.15C98.85,331.88,97,329.74,97,327.1Z"/><path class="cls-5" d="M105.45,327.1l0-9.17c0-2.64,1.88-4.78,4.17-4.78h33c2.3,0,4.15,2.14,4.14,4.78l0,9.17c0,2.64-1.88,4.78-4.17,4.78h-33C107.29,331.88,105.44,329.74,105.45,327.1Z"/><g class="cls-9"><path class="cls-5" d="M103.19,326.1a3.29,3.29,0,0,0,0-6.53,2.79,2.79,0,0,0-2.44,1.59L97,319.76l.14,6.15,3.38-1.88A2.86,2.86,0,0,0,103.19,326.1Z"/><path class="cls-5" d="M149,325.44a3,3,0,0,1-2.85-3.23,3.09,3.09,0,0,1,2.82-3.29,2.76,2.76,0,0,1,2.44,1.57l3.74-1.45-.13,6.15-3.39-1.85A2.9,2.9,0,0,1,149,325.44Z"/></g></g></g></g></svg>