<svg xmlns="http://www.w3.org/2000/svg" viewBox="0 0 760 420"><defs><style>.cls-1,.cls-4,.cls-5,.cls-6,.cls-8{fill:none;stroke:#fff;stroke-miterlimit:10;}.cls-1{stroke-width:20px;}.cls-2,.cls-4{opacity:0.4;}.cls-3,.cls-7{fill:#fff;}.cls-4{stroke-width:3.5px;}.cls-5{stroke-width:17.72px;}.cls-6{stroke-width:6.61px;}.cls-7{opacity:0.6;}.cls-8{stroke-width:3.21px;}</style></defs><title>资源 4</title><g id="图层_2" data-name="图层 2"><g id="图层_1-2" data-name="图层 1"><path class="cls-1" d="M707.41,196.36c0-23.22,18.78-42.22,42.59-43.88V77.07c0-20.55-17.4-37.21-38.86-37.21H620.7c0-16.49-14-29.86-31.19-29.86s-31.19,13.37-31.19,29.86H228.66c0,.38,0,.75,0,1.13,0,23.54-19.93,42.62-44.52,42.62S139.65,64.53,139.65,41c0-.38,0-.75,0-1.13H80.05c-21.46,0-38.86,16.66-38.86,37.21V180.14C24,180.14,10,193.51,10,210s14,29.86,31.19,29.86V342.93c0,20.55,17.4,37.21,38.86,37.21h59.6c0-23.54,19.93-42.62,44.52-42.62s44.52,19.08,44.52,42.62H558.32c0,16.49,14,29.86,31.19,29.86s31.19-13.37,31.19-29.86h90.44c21.46,0,38.86-16.66,38.86-37.21V240.24C726.19,238.59,707.41,219.58,707.41,196.36Z"/><g class="cls-2"><rect class="cls-3" x="562.56" y="300.21" width="16.96" height="23.38"/><rect class="cls-3" x="564.61" y="291.48" width="11.77" height="39.69" rx="5.73" ry="5.73"/></g><rect class="cls-4" x="557.34" y="286.86" width="27.39" height="48.94"/><g class="cls-2"><rect class="cls-3" x="528.06" y="300.21" width="16.96" height="23.38"/><rect class="cls-3" x="530.12" y="291.48" width="11.77" height="39.69" rx="5.73" ry="5.73"/></g><rect class="cls-4" x="522.84" y="286.86" width="27.39" height="48.94"/><g class="cls-2"><rect class="cls-3" x="493.56" y="300.21" width="16.96" height="23.38"/><rect class="cls-3" x="495.62" y="291.48" width="11.77" height="39.69" rx="5.73" ry="5.73"/></g><rect class="cls-4" x="488.35" y="286.86" width="27.39" height="48.94"/><path class="cls-5" d="M604,261.84l16.87-.09.08,13.43a6.83,6.83,0,0,0,6.73,6.92l61.57-.32a6.82,6.82,0,0,0,6.65-7l-.76-135.28a6.83,6.83,0,0,0-6.73-6.92l-61.57.32a6.82,6.82,0,0,0-6.65,7l.08,13.43-16.87.09a6.82,6.82,0,0,0-6.65,7l.53,94.51A6.83,6.83,0,0,0,604,261.84Z"/><path class="cls-6" d="M652.8,247.34l8.13,0a3.19,3.19,0,0,1,3.28,3.1l.05,9a3.19,3.19,0,0,1-3.24,3.14l-8.13,0a3.19,3.19,0,0,1-3.28-3.1l-.05-9A3.19,3.19,0,0,1,652.8,247.34Z"/><path class="cls-6" d="M652.62,215.61l8.13,0a3.19,3.19,0,0,1,3.28,3.1l.05,9a3.19,3.19,0,0,1-3.24,3.14l-8.13,0a3.19,3.19,0,0,1-3.28-3.1l-.05-9A3.19,3.19,0,0,1,652.62,215.61Z"/><path class="cls-6" d="M652.45,183.88l8.13,0a3.19,3.19,0,0,1,3.28,3.1l.05,9a3.19,3.19,0,0,1-3.24,3.14l-8.13,0a3.19,3.19,0,0,1-3.28-3.1l-.05-9A3.19,3.19,0,0,1,652.45,183.88Z"/><path class="cls-6" d="M652.27,152.16l8.13,0a3.19,3.19,0,0,1,3.28,3.1l.05,9a3.19,3.19,0,0,1-3.24,3.14l-8.13,0a3.19,3.19,0,0,1-3.28-3.1l-.05-9A3.19,3.19,0,0,1,652.27,152.16Z"/><rect class="cls-7" x="501.1" y="168.83" width="45.41" height="93" rx="14.75" ry="14.75" transform="translate(1047.62 430.66) rotate(180)"/><rect class="cls-8" x="501.1" y="168.83" width="45.41" height="93" rx="14.41" ry="14.41" transform="translate(1047.62 430.66) rotate(180)"/><path class="cls-3" d="M500.66,248.12h-6.5c-.24,0-.44-.29-.44-.64v-.7c0-.35-.2-.64-.44-.64H482.87c-.24,0-.44-.29-.44-.64v-3.78c0-.35.2-.64.44-.64h10.66c.23,0,.42.26.44.6h0c0,.34.21.6.44.6l6.25,0c.24,0,.44.29.44.64v4.59C501.1,247.84,500.9,248.12,500.66,248.12Z"/><path class="cls-3" d="M500.66,227.86h-6.5c-.24,0-.44-.29-.44-.64v-.7c0-.35-.2-.64-.44-.64H482.87c-.24,0-.44-.29-.44-.64v-3.78c0-.35.2-.64.44-.64h10.66c.23,0,.42.26.44.6h0c0,.34.21.6.44.6l6.25,0c.24,0,.44.29.44.64v4.59C501.1,227.58,500.9,227.86,500.66,227.86Z"/><path class="cls-3" d="M500.66,207.6h-6.5c-.24,0-.44-.29-.44-.64v-.7c0-.35-.2-.64-.44-.64H482.87c-.24,0-.44-.29-.44-.64V201.2c0-.35.2-.64.44-.64h10.66c.23,0,.42.26.44.6h0c0,.34.21.6.44.6l6.25,0c.24,0,.44.29.44.64V207C501.1,207.31,500.9,207.6,500.66,207.6Z"/><path class="cls-3" d="M500.66,187.34h-6.5c-.24,0-.44-.29-.44-.64V186c0-.35-.2-.64-.44-.64H482.87c-.24,0-.44-.29-.44-.64v-3.78c0-.35.2-.64.44-.64h10.66c.23,0,.42.26.44.6h0c0,.34.21.6.44.6l6.25,0c.24,0,.44.29.44.64v4.59C501.1,187.05,500.9,187.34,500.66,187.34Z"/><path class="cls-3" d="M547,248.12h6.5c.24,0,.44-.29.44-.64v-.7c0-.35.2-.64.44-.64h10.41c.24,0,.44-.29.44-.64v-3.78c0-.35-.2-.64-.44-.64H554.11c-.23,0-.42.26-.44.6h0c0,.34-.21.6-.44.6l-6.25,0c-.24,0-.44.29-.44.64v4.59C546.54,247.84,546.74,248.12,547,248.12Z"/><path class="cls-3" d="M547,227.86h6.5c.24,0,.44-.29.44-.64v-.7c0-.35.2-.64.44-.64h10.41c.24,0,.44-.29.44-.64v-3.78c0-.35-.2-.64-.44-.64H554.11c-.23,0-.42.26-.44.6h0c0,.34-.21.6-.44.6L547,222c-.24,0-.44.29-.44.64v4.59C546.54,227.58,546.74,227.86,547,227.86Z"/><path class="cls-3" d="M547,207.6h6.5c.24,0,.44-.29.44-.64v-.7c0-.35.2-.64.44-.64h10.41c.24,0,.44-.29.44-.64V201.2c0-.35-.2-.64-.44-.64H554.11c-.23,0-.42.26-.44.6h0c0,.34-.21.6-.44.6l-6.25,0c-.24,0-.44.29-.44.64V207C546.54,207.31,546.74,207.6,547,207.6Z"/><path class="cls-3" d="M547,187.34h6.5c.24,0,.44-.29.44-.64V186c0-.35.2-.64.44-.64h10.41c.24,0,.44-.29.44-.64v-3.78c0-.35-.2-.64-.44-.64H554.11c-.23,0-.42.26-.44.6h0c0,.34-.21.6-.44.6l-6.25,0c-.24,0-.44.29-.44.64v4.59C546.54,187.05,546.74,187.34,547,187.34Z"/><rect class="cls-4" x="437.55" y="110.33" width="133.49" height="51"/><rect class="cls-3" x="451" y="120.93" width="120.04" height="29.33"/><rect class="cls-4" x="421.05" y="285.83" width="45" height="45"/><rect class="cls-4" x="418.05" y="197.33" width="45" height="45"/><rect class="cls-7" x="426.24" y="205.52" width="28.62" height="28.62"/><circle class="cls-7" cx="443.55" cy="309.82" r="13.5"/><path class="cls-7" d="M361,246.83v64.5h-37.5V126.83H361v76.5h13.5V116.76a10.93,10.93,0,0,0-10.93-10.93H318a10.93,10.93,0,0,0-10.93,10.93A116.46,116.46,0,0,0,239,95.34c-63.45.3-115.54,51.89-116.43,115.33A117,117,0,0,0,307.05,307.9v9A10.93,10.93,0,0,0,318,327.82h45.65a10.93,10.93,0,0,0,10.93-10.93V246.83Z"/><rect class="cls-3" x="334.05" y="135.83" width="16.5" height="164.99"/><rect class="cls-3" x="100.06" y="189.83" width="179.99" height="49.5"/><rect class="cls-3" x="181.06" y="170.33" width="12" height="25.5"/><rect class="cls-3" x="203.56" y="170.33" width="12" height="25.5"/><rect class="cls-3" x="181.06" y="232.33" width="12" height="25.5"/><rect class="cls-3" x="203.56" y="232.33" width="12" height="25.5"/><circle class="cls-4" cx="85.32" cy="330.45" r="22.5"/></g></g></svg>