<?xml version="1.0" encoding="utf-8"?>
<!-- Generator: Adobe Illustrator 22.0.0, SVG Export Plug-In . SVG Version: 6.00 Build 0)  -->
<svg version="1.1" id="图层_1" xmlns="http://www.w3.org/2000/svg" xmlns:xlink="http://www.w3.org/1999/xlink" x="0px" y="0px"
	 viewBox="0 0 480 400" style="enable-background:new 0 0 480 400;" xml:space="preserve">
<style type="text/css">
	.st0{fill:none;stroke:#FFFFFF;stroke-width:18.563;stroke-miterlimit:10;}
	.st1{fill:none;stroke:#FFFFFF;stroke-width:15.2528;stroke-miterlimit:10;}
	.st2{fill:none;stroke:#FFFFFF;stroke-width:5.6849;stroke-miterlimit:10;}
	.st3{fill:none;stroke:#FFFFFF;stroke-width:5.1306;stroke-miterlimit:10;}
	.st4{fill:#FFFFFF;}
	.st5{fill:none;stroke:#FFFFFF;stroke-width:6.7848;stroke-miterlimit:10;}
	.st6{opacity:0.8;fill:#FFFFFF;}
</style>
<g>
	<path class="st0" d="M411.6,374.3H71.1c-27.7,0-50.2-22.5-50.2-50.2V70.6c0-27.7,22.5-50.2,50.2-50.2h340.5
		c27.7,0,50.2,22.5,50.2,50.2v253.5C461.7,351.8,439.3,374.3,411.6,374.3z"/>
	<g>
		<g>
			<path class="st1" d="M320,136.6l0.1-17.4l14.5,0.1c4.2,0,7.5-3,7.6-6.9l0.5-63.7c0-3.8-3.3-6.9-7.5-7l-146.1-1.2
				c-4.2,0-7.5,3-7.6,6.9l-0.5,63.7c0,3.8,3.3,6.9,7.5,7l14.5,0.1l-0.1,17.4c0,3.8,3.3,6.9,7.5,7l102.1,0.9
				C316.6,143.5,320,140.4,320,136.6z"/>
			<path class="st2" d="M305.1,85.4l0.1-7.3c0-2.2,1.8-3.9,3.9-3.9l8.6,0.1c2.2,0,3.9,1.8,3.9,3.9l-0.1,7.3c0,2.2-1.8,3.9-3.9,3.9
				l-8.6-0.1C306.8,89.3,305.1,87.6,305.1,85.4z"/>
			<path class="st2" d="M270.8,85.1l0.1-7.3c0-2.2,1.8-3.9,3.9-3.9l8.6,0.1c2.2,0,3.9,1.8,3.9,3.9l-0.1,7.3c0,2.2-1.8,3.9-3.9,3.9
				l-8.6-0.1C272.5,89,270.8,87.3,270.8,85.1z"/>
			<path class="st2" d="M236.5,84.8l0.1-7.3c0-2.2,1.8-3.9,3.9-3.9l8.6,0.1c2.2,0,3.9,1.8,3.9,3.9L253,85c0,2.2-1.8,3.9-3.9,3.9
				l-8.6-0.1C238.3,88.8,236.5,87,236.5,84.8z"/>
			<path class="st2" d="M202.3,84.5l0.1-7.3c0-2.2,1.8-3.9,3.9-3.9l8.6,0.1c2.2,0,3.9,1.8,3.9,3.9l-0.1,7.3c0,2.2-1.8,3.9-3.9,3.9
				l-8.6-0.1C204,88.5,202.2,86.7,202.3,84.5z"/>
		</g>
		<g>
			<path class="st3" d="M420.2,247.4v-31.1c0-1.7-1.4-3.1-3.1-3.1h-91.5c-8.5,0-15.3,6.9-15.3,15.3v73.2c0,8.5,6.9,15.3,15.3,15.3
				h91.5c1.7,0,3.1-1.4,3.1-3.1v-22.4c0-1.7,1.4-3.1,3.1-3.1l0,0c1.7,0,3.1-1.4,3.1-3.1v-31.5c0-1.7-1.4-3.1-3.1-3.1l0,0
				C421.6,250.5,420.2,249.1,420.2,247.4z"/>
			<path class="st4" d="M378.2,225.6l-29.5,3.8c-12.6,1.6-21.5,13.2-19.9,25.8l3.8,29.5c1.6,12.6,13.2,21.5,25.8,19.9l29.5-3.8
				c12.6-1.6,21.5-13.2,19.9-25.8l-3.8-29.5C402.4,232.9,390.8,224,378.2,225.6z M383.4,270.3l-13-0.3l-0.3,13l-8.9-0.2l0.3-13
				l-13-0.3l0.2-8.9l13,0.3l0.3-13l8.9,0.2l-0.3,13l13,0.3L383.4,270.3z"/>
			<g>
				<path class="st5" d="M137.5,354.1c15.6,0,24.4-9.1,24.4-24.9v-10.9c-5.8,2.1-13.7,3.7-24.1,3.7c-10.5,0-18.4-1.6-24.2-3.5
					l0.1,10.7C113.7,344.8,122.5,354.1,137.5,354.1L137.5,354.1z"/>
				<path class="st4" d="M137.8,129.5c-40.8,0-72.5,33.2-72.5,74c0,30.2,13.9,44.1,27.5,56.3c10.3,9.2,21,17.9,21,31.6v10.4
					c3.3,1.9,9.9,4.4,23.8,4.4c13.3,0,20.3-2.5,24.1-4.7v-10.1c0-17.2,12.3-27.1,23.2-36.6c13.2-11.5,25.4-23.5,25.4-51.3
					C210.3,162.7,178.6,129.5,137.8,129.5L137.8,129.5z"/>
			</g>
			<path class="st6" d="M70.5,345.7l0,2.7c0,1.6-1.3,2.9-2.9,2.9h0c-1.6,0-2.9-1.3-2.9-2.9l0-2.7c0-1.6-1.3-2.9-2.9-2.9l-2.7,0
				c-1.6,0-2.9-1.3-2.9-2.9l0,0c0-1.6,1.3-2.9,2.9-2.9l2.7,0c1.6,0,2.9-1.3,2.9-2.9l0-2.7c0-1.6,1.3-2.9,2.9-2.9h0
				c1.6,0,2.9,1.3,2.9,2.9l0,2.7c0,1.6,1.3,2.9,2.9,2.9l2.7,0c1.6,0,2.9,1.3,2.9,2.9v0c0,1.6-1.3,2.9-2.9,2.9l-2.7,0
				C71.8,342.8,70.5,344.1,70.5,345.7z"/>
		</g>
	</g>
</g>
</svg>
