<?xml version="1.0" encoding="utf-8"?>
<!-- Generator: Adobe Illustrator 22.0.0, SVG Export Plug-In . SVG Version: 6.00 Build 0)  -->
<svg version="1.1" id="图层_1" xmlns="http://www.w3.org/2000/svg" xmlns:xlink="http://www.w3.org/1999/xlink" x="0px" y="0px"
	 viewBox="0 0 480 400" style="enable-background:new 0 0 480 400;" xml:space="preserve">
<style type="text/css">
	.st0{fill:none;stroke:#FFFFFF;stroke-width:18.563;stroke-miterlimit:10;}
	.st1{fill:none;stroke:#FFFFFF;stroke-width:8.0983;stroke-linecap:round;stroke-linejoin:round;stroke-miterlimit:10;}
	.st2{fill:none;stroke:#FFFFFF;stroke-width:7.9986;stroke-linecap:round;stroke-linejoin:round;stroke-miterlimit:10;}
	.st3{fill:none;stroke:#FFFFFF;stroke-width:7.3517;stroke-linecap:round;stroke-linejoin:round;stroke-miterlimit:10;}
	.st4{fill:none;stroke:#FFFFFF;stroke-width:7.5039;stroke-linecap:round;stroke-linejoin:round;stroke-miterlimit:10;}
	.st5{fill:#FFFFFF;}
</style>
<g>
	<path class="st0" d="M406.7,380H66.3c-27.7,0-50.2-22.5-50.2-50.2V76.3c0-27.7,22.5-50.2,50.2-50.2h340.5
		c27.7,0,50.2,22.5,50.2,50.2v253.5C456.9,357.5,434.4,380,406.7,380z"/>
	<g>
		<path class="st1" d="M134,273.6c0.4-1.6,0.6-3.2,0.6-4.9l1.7-129.5c0.2-13.6-11.7-24.7-26.5-24.9c-14.8-0.2-27,10.7-27.1,24.2
			L81,268c-0.1,5.1,1.6,9.8,4.4,13.8"/>
		<path class="st2" d="M186.7,134.1c0.4,1.8,0.7,3.7,0.6,5.7l-1.7,129.5c-0.2,13.6-12,24.4-26.5,24.2c-14.5-0.2-26-11.3-25.9-24.9
			l1.7-129.5c0-2.8,0.6-5.6,1.6-8.1"/>
		<path class="st2" d="M187.4,278.6c-4.7-4.5-1.9-2.5-1.8-9.3l1.7-129.5c0.2-13.6,12-24.4,26.5-24.2c14.5,0.2,26,11.3,25.9,24.9
			L238,270c0,2.4-0.4,4.8-1.2,7"/>
		<path class="st3" d="M289.4,136.1c0.3,1.6,0.5,3.3,0.4,5l-1.7,129.5c-0.2,13.6-11.6,24.4-25.4,24.2C247.8,295,232.3,285,238,270
			l1.7-129.5c0-2.7,0.5-5.3,1.4-7.7"/>
		<path class="st4" d="M289.5,285.4c-3.8-4.2-6.1-9.3-6-14.8l1.7-129.5c0.2-13.6,14.3-24.4,31.5-24.2c17.2,0.2,31,11.4,30.8,25
			l-1.7,129.5c0,3-0.8,6-2.1,8.6"/>
		<path class="st4" d="M389.8,136.8c0.4,1.8,0.6,3.7,0.5,5.6l-1.7,129.5c-0.2,13.6-10.6,24.4-23.3,24.3
			c-12.7-0.2-22.9-11.3-22.7-24.9l1.7-129.5c0-3.4,0.7-6.6,1.9-9.5"/>
		<path class="st5" d="M385.7,132.5l0,1.9c0,2.8,1.5,4.4,4.2,4.4c2.8,0,4.3-1.6,4.3-4.4v-1.9c-1,0.4-2.4,0.7-4.3,0.7
			C388.1,133.2,386.7,132.9,385.7,132.5"/>
		<path class="st5" d="M392.3,111h-0.2v2.2h0.2c0.6,0,1-0.3,1-1.1C393.2,111.3,392.9,111,392.3,111"/>
		<path class="st5" d="M390,99c-7.2,0-12.9,5.9-12.9,13.1c0,5.4,2.5,7.8,4.9,10c1.8,1.6,3.7,3.2,3.7,5.6v1.8
			c0.6,0.3,1.8,0.8,4.2,0.8c2.4,0,3.6-0.4,4.3-0.8v-1.8c0-3.1,2.2-4.8,4.1-6.5c2.3-2,4.5-4.2,4.5-9.1C402.8,104.9,397.2,99,390,99
			 M388.3,113.5c0,0.1-0.1,0.1-0.1,0.1h-1.6c-0.1,0-0.1-0.1-0.1-0.1v-2.9c0-0.1,0.1-0.1,0.1-0.1h0.3c0.1,0,0.1,0.1,0.1,0.1v2.4
			c0,0.1,0.1,0.1,0.1,0.1h1c0.1,0,0.1,0.1,0.1,0.1V113.5z M390.8,113.5c0,0.1-0.1,0.1-0.1,0.1H389c-0.1,0-0.1-0.1-0.1-0.1v-2.9
			c0-0.1,0.1-0.1,0.1-0.1h1.7c0.1,0,0.1,0.1,0.1,0.1v0.2c0,0.1-0.1,0.1-0.1,0.1h-1c-0.1,0-0.1,0.1-0.1,0.1v0.4
			c0,0.1,0.1,0.1,0.1,0.1h0.8c0.1,0,0.1,0.1,0.1,0.1v0.2c0,0.1-0.1,0.1-0.1,0.1h-0.8c-0.1,0-0.1,0.1-0.1,0.1v0.6
			c0,0.1,0.1,0.1,0.1,0.1h1.1c0.1,0,0.1,0.1,0.1,0.1V113.5z M392.4,113.7h-0.8c-0.1,0-0.1-0.1-0.1-0.1v-2.9c0-0.1,0.1-0.1,0.1-0.1
			h0.7c1,0,1.6,0.5,1.6,1.6C393.9,113.1,393.3,113.7,392.4,113.7"/>
		<path class="st5" d="M397.9,182.6L396,183c-2.7,0.5-4.1,2.3-3.6,5c0.5,2.7,2.4,4,5.1,3.4l1.9-0.4c-0.5-0.9-1.1-2.3-1.4-4.1
			C397.7,185.1,397.7,183.7,397.9,182.6"/>
		<path class="st5" d="M420.3,185.1l0-0.2l-2.1,0.4l0,0.2c0.1,0.6,0.5,0.9,1.2,0.7C420.2,186.1,420.4,185.7,420.3,185.1"/>
		<path class="st5" d="M431.6,180.6c-1.3-7.1-8.2-11.5-15.3-10.2c-5.3,1-7.2,3.9-8.9,6.6c-1.3,2.1-2.4,4.2-4.8,4.7l-1.8,0.3
			c-0.2,0.6-0.4,1.9,0,4.3c0.4,2.3,1.1,3.5,1.6,4l1.8-0.3c3-0.6,5.1,1.3,7.1,2.8c2.4,1.9,4.9,3.7,9.8,2.7
			C428.2,194.4,433,187.7,431.6,180.6 M417,181.6c-0.1,0-0.2,0-0.2-0.1l-0.3-1.6c0-0.1,0-0.2,0.1-0.2l2.8-0.5c0.1,0,0.2,0,0.2,0.1
			l0.1,0.3c0,0.1,0,0.2-0.1,0.2l-2.3,0.4c-0.1,0-0.1,0.1-0.1,0.2l0.2,1c0,0.1,0,0.2-0.1,0.2L417,181.6z M417.5,184.1
			c-0.1,0-0.2,0-0.2-0.1l-0.3-1.7c0-0.1,0-0.2,0.1-0.2l2.8-0.5c0.1,0,0.2,0,0.2,0.1l0.3,1.6c0,0.1,0,0.2-0.1,0.2l-0.2,0
			c-0.1,0-0.2,0-0.2-0.1l-0.2-1c0-0.1-0.1-0.1-0.2-0.1l-0.4,0.1c-0.1,0-0.1,0.1-0.1,0.2l0.2,0.8c0,0.1,0,0.2-0.1,0.2l-0.2,0
			c-0.1,0-0.2,0-0.2-0.1l-0.2-0.8c0-0.1-0.1-0.1-0.2-0.1l-0.6,0.1c-0.1,0-0.1,0.1-0.1,0.2l0.2,1.1c0,0.1,0,0.2-0.1,0.2L417.5,184.1z
			 M417.7,185.7l-0.1-0.7c0-0.1,0-0.2,0.1-0.2l2.8-0.5c0.1,0,0.2,0,0.2,0.1l0.1,0.7c0.2,1-0.2,1.6-1.3,1.8
			C418.5,187.1,417.8,186.6,417.7,185.7"/>
		<path class="st5" d="M296.4,240.3l-1.9-0.1c-2.8-0.1-4.5,1.3-4.6,4c-0.1,2.8,1.4,4.4,4.2,4.5l1.9,0.1c-0.3-1.1-0.5-2.5-0.4-4.3
			C295.6,242.6,296,241.3,296.4,240.3"/>
		<path class="st5" d="M317.6,247.9l0-0.2l-2.2-0.1l0,0.2c0,0.6,0.3,1,1,1C317.2,248.9,317.5,248.5,317.6,247.9"/>
		<path class="st5" d="M329.6,246.2c0.4-7.2-5.2-13.1-12.5-13.5c-5.4-0.3-7.9,2.1-10.2,4.4c-1.7,1.7-3.4,3.6-5.8,3.4l-1.8-0.1
			c-0.4,0.6-0.9,1.7-1,4.2c-0.1,2.4,0.3,3.6,0.6,4.3l1.8,0.1c3,0.2,4.7,2.4,6.3,4.4c1.9,2.4,3.9,4.7,8.9,4.9
			C323.1,258.8,329.3,253.4,329.6,246.2 M315.2,243.8c-0.1,0-0.1-0.1-0.1-0.2l0.1-1.6c0-0.1,0.1-0.1,0.2-0.1l2.9,0.1
			c0.1,0,0.1,0.1,0.1,0.2l0,0.3c0,0.1-0.1,0.1-0.2,0.1l-2.4-0.1c-0.1,0-0.1,0.1-0.2,0.1l-0.1,1c0,0.1-0.1,0.1-0.2,0.1L315.2,243.8z
			 M315.1,246.3c-0.1,0-0.1-0.1-0.1-0.2l0.1-1.7c0-0.1,0.1-0.1,0.2-0.1l2.9,0.1c0.1,0,0.1,0.1,0.1,0.2l-0.1,1.7
			c0,0.1-0.1,0.1-0.2,0.1l-0.2,0c-0.1,0-0.1-0.1-0.1-0.2l0.1-1c0-0.1-0.1-0.1-0.1-0.2l-0.4,0c-0.1,0-0.1,0.1-0.2,0.1l0,0.8
			c0,0.1-0.1,0.1-0.2,0.1l-0.2,0c-0.1,0-0.1-0.1-0.1-0.2l0-0.8c0-0.1-0.1-0.1-0.1-0.2l-0.6,0c-0.1,0-0.1,0.1-0.2,0.1l-0.1,1.1
			c0,0.1-0.1,0.1-0.2,0.1L315.1,246.3z M314.9,247.9l0-0.8c0-0.1,0.1-0.1,0.2-0.1l2.9,0.1c0.1,0,0.1,0.1,0.1,0.2l0,0.7
			c0,1-0.6,1.5-1.7,1.5C315.3,249.4,314.8,248.8,314.9,247.9"/>
		<path class="st5" d="M74.4,214.5l1.9-0.1c2.8-0.1,4.5,1.3,4.6,4c0.1,2.8-1.4,4.4-4.2,4.5l-1.9,0.1c0.3-1.1,0.5-2.5,0.4-4.3
			C75.2,216.9,74.8,215.5,74.4,214.5"/>
		<path class="st5" d="M53.3,222.2l0-0.2l2.2-0.1l0,0.2c0,0.6-0.3,1-1,1C53.6,223.1,53.3,222.8,53.3,222.2"/>
		<path class="st5" d="M54.9,232.7c4.9-0.2,6.9-2.5,8.9-4.9c1.6-2,3.2-4.3,6.3-4.4l1.8-0.1c0.3-0.7,0.7-2,0.6-4.3
			c-0.1-2.5-0.6-3.6-1-4.2l-1.8,0.1c-2.4,0.1-4.1-1.7-5.8-3.4c-2.3-2.3-4.9-4.7-10.2-4.4c-7.2,0.4-12.8,6.3-12.5,13.5
			C41.5,227.7,47.7,233,54.9,232.7 M55.3,218.1c-0.1,0-0.1-0.1-0.2-0.1l-0.1-1c0-0.1-0.1-0.1-0.2-0.1l-2.4,0.1
			c-0.1,0-0.1-0.1-0.2-0.1l0-0.3c0-0.1,0.1-0.1,0.1-0.2l2.9-0.1c0.1,0,0.1,0.1,0.2,0.1l0.1,1.6c0,0.1-0.1,0.1-0.1,0.2L55.3,218.1z
			 M55.5,220.6c-0.1,0-0.1-0.1-0.2-0.1l-0.1-1.1c0-0.1-0.1-0.1-0.2-0.1l-0.6,0c-0.1,0-0.1,0.1-0.1,0.2l0,0.8c0,0.1-0.1,0.1-0.1,0.2
			l-0.2,0c-0.1,0-0.1-0.1-0.2-0.1l0-0.8c0-0.1-0.1-0.1-0.2-0.1l-0.4,0c-0.1,0-0.1,0.1-0.1,0.2l0.1,1c0,0.1-0.1,0.1-0.1,0.2l-0.2,0
			c-0.1,0-0.1-0.1-0.2-0.1l-0.1-1.7c0-0.1,0.1-0.1,0.1-0.2l2.9-0.1c0.1,0,0.1,0.1,0.2,0.1l0.1,1.7c0,0.1-0.1,0.1-0.1,0.2L55.5,220.6
			z M54.4,223.7c-1.1,0.1-1.6-0.5-1.7-1.5l0-0.7c0-0.1,0.1-0.1,0.1-0.2l2.9-0.1c0.1,0,0.1,0.1,0.2,0.1l0,0.8
			C56,223.1,55.5,223.7,54.4,223.7"/>
		<path class="st5" d="M209.9,107.9l0,1.9c0,2.8,1.5,4.4,4.2,4.4c2.8,0,4.3-1.6,4.3-4.4v-1.9c-1,0.4-2.4,0.7-4.3,0.7
			C212.4,108.5,211,108.2,209.9,107.9"/>
		<path class="st5" d="M216.5,86.3h-0.2v2.2h0.2c0.6,0,1-0.3,1-1.1C217.5,86.6,217.1,86.3,216.5,86.3"/>
		<path class="st5" d="M214.2,74.4c-7.2,0-12.9,5.9-12.9,13.1c0,5.4,2.5,7.8,4.9,10c1.8,1.6,3.7,3.2,3.7,5.6v1.8
			c0.6,0.3,1.8,0.8,4.2,0.8c2.4,0,3.6-0.4,4.3-0.8v-1.8c0-3.1,2.2-4.8,4.1-6.5c2.3-2,4.5-4.2,4.5-9.1
			C227.1,80.2,221.5,74.4,214.2,74.4 M212.5,88.9c0,0.1-0.1,0.1-0.1,0.1h-1.6c-0.1,0-0.1-0.1-0.1-0.1V86c0-0.1,0.1-0.1,0.1-0.1h0.3
			c0.1,0,0.1,0.1,0.1,0.1v2.4c0,0.1,0.1,0.1,0.1,0.1h1c0.1,0,0.1,0.1,0.1,0.1V88.9z M215.1,88.9c0,0.1-0.1,0.1-0.1,0.1h-1.7
			c-0.1,0-0.1-0.1-0.1-0.1V86c0-0.1,0.1-0.1,0.1-0.1h1.7c0.1,0,0.1,0.1,0.1,0.1v0.2c0,0.1-0.1,0.1-0.1,0.1h-1
			c-0.1,0-0.1,0.1-0.1,0.1V87c0,0.1,0.1,0.1,0.1,0.1h0.8c0.1,0,0.1,0.1,0.1,0.1v0.2c0,0.1-0.1,0.1-0.1,0.1h-0.8
			c-0.1,0-0.1,0.1-0.1,0.1v0.6c0,0.1,0.1,0.1,0.1,0.1h1.1c0.1,0,0.1,0.1,0.1,0.1V88.9z M216.6,89h-0.8c-0.1,0-0.1-0.1-0.1-0.1V86
			c0-0.1,0.1-0.1,0.1-0.1h0.7c1,0,1.6,0.5,1.6,1.6C218.1,88.5,217.5,89,216.6,89"/>
		<path class="st5" d="M277.7,296.6l0-1.9c0-2.8,1.5-4.4,4.2-4.4c2.8,0,4.3,1.6,4.3,4.4v1.9c-1-0.4-2.4-0.7-4.3-0.7
			C280.2,296,278.8,296.3,277.7,296.6"/>
		<path class="st5" d="M284.3,318.1h-0.2V316h0.2c0.6,0,1,0.3,1,1.1C285.3,317.8,284.9,318.1,284.3,318.1"/>
		<path class="st5" d="M294.9,317c0-4.9-2.2-7-4.5-9.1c-1.9-1.7-4.1-3.4-4.1-6.5v-1.8c-0.7-0.4-1.9-0.8-4.3-0.8
			c-2.5,0-3.6,0.4-4.2,0.8v1.8c0,2.4-1.9,4-3.7,5.6c-2.4,2.2-4.9,4.6-4.9,10c0,7.2,5.6,13.1,12.9,13.1
			C289.3,330.1,294.9,324.2,294.9,317 M280.3,315.9c0,0.1-0.1,0.1-0.1,0.1h-1c-0.1,0-0.1,0.1-0.1,0.1v2.4c0,0.1-0.1,0.1-0.1,0.1
			h-0.3c-0.1,0-0.1-0.1-0.1-0.1v-2.9c0-0.1,0.1-0.1,0.1-0.1h1.6c0.1,0,0.1,0.1,0.1,0.1V315.9z M282.8,315.9c0,0.1-0.1,0.1-0.1,0.1
			h-1.1c-0.1,0-0.1,0.1-0.1,0.1v0.6c0,0.1,0.1,0.1,0.1,0.1h0.8c0.1,0,0.1,0.1,0.1,0.1v0.2c0,0.1-0.1,0.1-0.1,0.1h-0.8
			c-0.1,0-0.1,0.1-0.1,0.1v0.4c0,0.1,0.1,0.1,0.1,0.1h1c0.1,0,0.1,0.1,0.1,0.1v0.2c0,0.1-0.1,0.1-0.1,0.1H281
			c-0.1,0-0.1-0.1-0.1-0.1v-2.9c0-0.1,0.1-0.1,0.1-0.1h1.7c0.1,0,0.1,0.1,0.1,0.1V315.9z M285.9,317.1c0,1.1-0.6,1.6-1.6,1.6h-0.7
			c-0.1,0-0.1-0.1-0.1-0.1v-2.9c0-0.1,0.1-0.1,0.1-0.1h0.8C285.3,315.5,285.9,316,285.9,317.1"/>
		<path class="st5" d="M156,302.5l0-1.9c0-2.8,1.5-4.4,4.2-4.4c2.8,0,4.3,1.6,4.3,4.4v1.9c-1-0.4-2.4-0.7-4.3-0.7
			C158.4,301.9,157,302.2,156,302.5"/>
		<path class="st5" d="M162.6,324.1h-0.2v-2.2h0.2c0.6,0,1,0.3,1,1.1C163.5,323.8,163.2,324.1,162.6,324.1"/>
		<path class="st5" d="M173.1,322.9c0-4.9-2.2-7-4.5-9.1c-1.9-1.7-4.1-3.4-4.1-6.5v-1.8c-0.7-0.4-1.9-0.8-4.3-0.8
			c-2.5,0-3.6,0.4-4.2,0.8v1.8c0,2.4-1.9,4-3.7,5.6c-2.4,2.2-4.9,4.6-4.9,10c0,7.2,5.6,13.1,12.9,13.1
			C167.5,336.1,173.1,330.2,173.1,322.9 M158.6,321.8c0,0.1-0.1,0.1-0.1,0.1h-1c-0.1,0-0.1,0.1-0.1,0.1v2.4c0,0.1-0.1,0.1-0.1,0.1
			h-0.3c-0.1,0-0.1-0.1-0.1-0.1v-2.9c0-0.1,0.1-0.1,0.1-0.1h1.6c0.1,0,0.1,0.1,0.1,0.1V321.8z M161.1,321.8c0,0.1-0.1,0.1-0.1,0.1
			h-1.1c-0.1,0-0.1,0.1-0.1,0.1v0.6c0,0.1,0.1,0.1,0.1,0.1h0.8c0.1,0,0.1,0.1,0.1,0.1v0.2c0,0.1-0.1,0.1-0.1,0.1h-0.8
			c-0.1,0-0.1,0.1-0.1,0.1v0.4c0,0.1,0.1,0.1,0.1,0.1h1c0.1,0,0.1,0.1,0.1,0.1v0.2c0,0.1-0.1,0.1-0.1,0.1h-1.7
			c-0.1,0-0.1-0.1-0.1-0.1v-2.9c0-0.1,0.1-0.1,0.1-0.1h1.7c0.1,0,0.1,0.1,0.1,0.1V321.8z M164.2,323c0,1.1-0.6,1.6-1.6,1.6h-0.7
			c-0.1,0-0.1-0.1-0.1-0.1v-2.9c0-0.1,0.1-0.1,0.1-0.1h0.8C163.6,321.4,164.2,321.9,164.2,323"/>
		<path class="st5" d="M104.7,103.6l0,1.9c0,2.8,1.5,4.4,4.2,4.4c2.8,0,4.3-1.6,4.3-4.4v-1.9c-1,0.4-2.4,0.7-4.3,0.7
			C107.2,104.2,105.8,104,104.7,103.6"/>
		<path class="st5" d="M111.3,82.1h-0.2v2.2h0.2c0.6,0,1-0.3,1-1.1C112.3,82.4,111.9,82.1,111.3,82.1"/>
		<path class="st5" d="M109,70.1c-7.2,0-12.9,5.9-12.9,13.1c0,5.4,2.5,7.8,4.9,10c1.8,1.6,3.7,3.2,3.7,5.6v1.8
			c0.6,0.3,1.8,0.8,4.2,0.8c2.4,0,3.6-0.4,4.3-0.8v-1.8c0-3.1,2.2-4.8,4.1-6.5c2.3-2,4.5-4.2,4.5-9.1C121.9,76,116.3,70.1,109,70.1
			 M107.3,84.6c0,0.1-0.1,0.1-0.1,0.1h-1.6c-0.1,0-0.1-0.1-0.1-0.1v-2.9c0-0.1,0.1-0.1,0.1-0.1h0.3c0.1,0,0.1,0.1,0.1,0.1v2.4
			c0,0.1,0.1,0.1,0.1,0.1h1c0.1,0,0.1,0.1,0.1,0.1V84.6z M109.9,84.6c0,0.1-0.1,0.1-0.1,0.1H108c-0.1,0-0.1-0.1-0.1-0.1v-2.9
			c0-0.1,0.1-0.1,0.1-0.1h1.7c0.1,0,0.1,0.1,0.1,0.1V82c0,0.1-0.1,0.1-0.1,0.1h-1c-0.1,0-0.1,0.1-0.1,0.1v0.4c0,0.1,0.1,0.1,0.1,0.1
			h0.8c0.1,0,0.1,0.1,0.1,0.1v0.2c0,0.1-0.1,0.1-0.1,0.1h-0.8c-0.1,0-0.1,0.1-0.1,0.1v0.6c0,0.1,0.1,0.1,0.1,0.1h1.1
			c0.1,0,0.1,0.1,0.1,0.1V84.6z M111.4,84.8h-0.8c-0.1,0-0.1-0.1-0.1-0.1v-2.9c0-0.1,0.1-0.1,0.1-0.1h0.7c1,0,1.6,0.5,1.6,1.6
			C112.9,84.2,112.3,84.8,111.4,84.8"/>
		<path class="st5" d="M378.5,297.3l-1.4-1.3c-2-1.9-4.3-1.9-6.1,0c-1.9,2-1.8,4.3,0.2,6.2l1.4,1.3c0.4-1,1.2-2.2,2.4-3.6
			C376.4,298.6,377.5,297.8,378.5,297.3"/>
		<path class="st5" d="M389.6,316.9l0.1-0.1l-1.6-1.5l-0.1,0.1c-0.4,0.4-0.4,0.9,0.1,1.4C388.8,317.4,389.2,317.3,389.6,316.9"/>
		<path class="st5" d="M399.9,323.4c5-5.3,4.5-13.4-0.7-18.4c-3.9-3.7-7.4-3.6-10.6-3.3c-2.4,0.2-4.9,0.5-6.6-1.1l-1.3-1.3
			c-0.6,0.2-1.8,0.7-3.5,2.5c-1.6,1.7-2.1,2.9-2.3,3.7l1.3,1.2c2.2,2.1,2,4.9,1.9,7.4c-0.1,3.1-0.1,6.1,3.5,9.5
			C386.8,328.7,395,328.7,399.9,323.4 M390.6,312.2c-0.1-0.1-0.1-0.1,0-0.2l1.1-1.2c0.1-0.1,0.1-0.1,0.2,0l2.1,2
			c0.1,0.1,0.1,0.1,0,0.2l-0.2,0.3c-0.1,0.1-0.1,0.1-0.2,0l-1.7-1.6c-0.1-0.1-0.1-0.1-0.2,0l-0.7,0.7c-0.1,0.1-0.1,0.1-0.2,0
			L390.6,312.2z M388.8,314c-0.1-0.1-0.1-0.1,0-0.2l1.2-1.2c0.1-0.1,0.1-0.1,0.2,0l2.1,2c0.1,0.1,0.1,0.1,0,0.2l-1.1,1.2
			c-0.1,0.1-0.1,0.1-0.2,0l-0.2-0.2c-0.1-0.1-0.1-0.1,0-0.2l0.7-0.7c0.1-0.1,0.1-0.2,0-0.2l-0.3-0.3c-0.1-0.1-0.1-0.1-0.2,0
			l-0.6,0.6c-0.1,0.1-0.1,0.1-0.2,0l-0.2-0.2c-0.1-0.1-0.1-0.1,0-0.2l0.6-0.6c0.1-0.1,0.1-0.2,0-0.2l-0.4-0.4
			c-0.1-0.1-0.2-0.1-0.2,0l-0.7,0.8c-0.1,0.1-0.1,0.1-0.2,0L388.8,314z M387.6,315.1l0.5-0.6c0.1-0.1,0.1-0.1,0.2,0l2.1,2
			c0.1,0.1,0.1,0.1,0,0.2l-0.5,0.5c-0.7,0.7-1.4,0.8-2.2,0.1C387,316.6,387,315.8,387.6,315.1"/>
	</g>
</g>
</svg>
