<?xml version="1.0" encoding="utf-8"?>
<!-- Generator: Adobe Illustrator 22.0.0, SVG Export Plug-In . SVG Version: 6.00 Build 0)  -->
<svg version="1.1" id="图层_1" xmlns="http://www.w3.org/2000/svg" xmlns:xlink="http://www.w3.org/1999/xlink" x="0px" y="0px"
	 viewBox="0 0 480 400" style="enable-background:new 0 0 480 400;" xml:space="preserve">
<style type="text/css">
	.st0{fill:none;stroke:#FFFFFF;stroke-width:18.563;stroke-miterlimit:10;}
	.st1{fill:none;stroke:#FFFFFF;stroke-width:11.743;stroke-miterlimit:10;}
	.st2{fill:none;stroke:#FFFFFF;stroke-width:4.3768;stroke-miterlimit:10;}
	.st3{fill:none;stroke:#FFFFFF;stroke-width:4.5762;stroke-miterlimit:10;}
	.st4{opacity:0.8;}
	.st5{clip-path:url(#SVGID_2_);fill:none;stroke:#FFFFFF;stroke-width:1.5669;stroke-miterlimit:10;}
	.st6{clip-path:url(#SVGID_2_);fill:#FFFFFF;}
	.st7{opacity:0.8;clip-path:url(#SVGID_2_);}
	.st8{clip-path:url(#SVGID_4_);fill:#FFFFFF;}
	.st9{fill:#FFFFFF;}
	.st10{clip-path:url(#SVGID_6_);fill:#FFFFFF;}
	.st11{opacity:0.6;}
	.st12{clip-path:url(#SVGID_8_);fill:#FFFFFF;}
	
		.st13{clip-path:url(#SVGID_10_);fill:none;stroke:#FFFFFF;stroke-width:3.595;stroke-linecap:round;stroke-linejoin:round;stroke-miterlimit:10;}
	
		.st14{clip-path:url(#SVGID_10_);fill:none;stroke:#FFFFFF;stroke-width:3.5512;stroke-linecap:round;stroke-linejoin:round;stroke-miterlimit:10;}
	
		.st15{clip-path:url(#SVGID_10_);fill:none;stroke:#FFFFFF;stroke-width:3.2637;stroke-linecap:round;stroke-linejoin:round;stroke-miterlimit:10;}
	
		.st16{clip-path:url(#SVGID_10_);fill:none;stroke:#FFFFFF;stroke-width:3.3313;stroke-linecap:round;stroke-linejoin:round;stroke-miterlimit:10;}
</style>
<g>
	<path class="st0" d="M410.2,376.9H69.8c-27.7,0-50.2-22.5-50.2-50.2V73.3c0-27.7,22.5-50.2,50.2-50.2h340.5
		c27.7,0,50.2,22.5,50.2,50.2v253.5C460.4,354.5,437.9,376.9,410.2,376.9z"/>
	<g>
		<path class="st1" d="M175.8,138.1l-0.2-19.7l-16.4,0.2c-4.7,0.1-8.5-3.4-8.6-7.7L149.8,39c0-4.3,3.7-7.8,8.4-7.9l164.9-1.8
			c4.7-0.1,8.5,3.4,8.6,7.7l0.8,71.9c0,4.3-3.7,7.8-8.4,7.9l-16.4,0.2l0.2,19.7c0,4.3-3.7,7.8-8.4,7.9l-115.2,1.3
			C179.7,145.8,175.8,142.4,175.8,138.1z"/>
		<path class="st2" d="M192.5,80.8l-0.1-9.5c0-2.1-1.7-3.8-3.8-3.8l-11,0.1c-2.1,0-3.8,1.7-3.8,3.8l0.1,9.5c0,2.1,1.7,3.8,3.8,3.8
			l11-0.1C190.9,84.6,192.5,82.9,192.5,80.8z"/>
		<path class="st2" d="M231.2,80.4l-0.1-9.5c0-2.1-1.7-3.8-3.8-3.8l-11,0.1c-2.1,0-3.8,1.7-3.8,3.8l0.1,9.5c0,2.1,1.7,3.8,3.8,3.8
			l11-0.1C229.5,84.2,231.2,82.5,231.2,80.4z"/>
		<path class="st2" d="M269.9,79.9l-0.1-9.5c0-2.1-1.7-3.8-3.8-3.8l-11,0.1c-2.1,0-3.8,1.7-3.8,3.8l0.1,9.5c0,2.1,1.7,3.8,3.8,3.8
			l11-0.1C268.2,83.8,269.9,82,269.9,79.9z"/>
		<path class="st2" d="M308.5,79.5l-0.1-9.5c0-2.1-1.7-3.8-3.8-3.8l-11,0.1c-2.1,0-3.8,1.7-3.8,3.8l0.1,9.5c0,2.1,1.7,3.8,3.8,3.8
			l11-0.1C306.9,83.3,308.6,81.6,308.5,79.5z"/>
		<rect x="273.8" y="170" class="st3" width="89.5" height="48"/>
		<g class="st4">
			<g>
				<defs>
					<rect id="SVGID_1_" x="281.5" y="178" width="74.2" height="26.2"/>
				</defs>
				<clipPath id="SVGID_2_">
					<use xlink:href="#SVGID_1_"  style="overflow:visible;"/>
				</clipPath>
				<path class="st5" d="M354.4,184.9l0.2,11.2c0,3.2-2.2,5.9-5,5.9l-61.5,1.1c-2.8,0-5.2-2.5-5.2-5.7l-0.2-11.2
					c0-3.2,2.2-5.9,5-5.9l61.5-1.1C352,179.1,354.4,181.6,354.4,184.9z"/>
				<path class="st6" d="M344,185l0.2,11.2c0,3.2-2.2,5.9-5,5.9l-40.7,0.7c-2.8,0-5.2-2.5-5.2-5.7l-0.2-11.2c0-3.2,2.2-5.9,5.1-5.9
					l40.7-0.7C341.6,179.2,344,181.8,344,185"/>
				<g class="st7">
					<g>
						<defs>
							<rect id="SVGID_3_" x="282.8" y="186.2" width="71.7" height="9.7"/>
						</defs>
						<clipPath id="SVGID_4_">
							<use xlink:href="#SVGID_3_"  style="overflow:visible;"/>
						</clipPath>
						<path class="st8" d="M346.8,186.2c-1.9,0-3.5,1.8-3.4,4c0,2.2,1.6,4,3.6,3.9c1.3,0,2.4-0.8,3-2l4.6,1.6l-0.3-7.5l-4.1,2.4
							C349.6,187.2,348.3,186.2,346.8,186.2"/>
						<path class="st8" d="M290.3,188c1.9-0.1,3.5,1.7,3.6,3.9c0,2.2-1.5,4-3.4,4.1c-1.3,0-2.4-0.7-3-1.9l-4.6,1.8l0-7.5l4.2,2.2
							C287.6,189.1,288.8,188,290.3,188"/>
					</g>
				</g>
			</g>
		</g>
		<path class="st9" d="M218.9,313H111.4c-8.8,0-15.8-7.1-15.8-15.8v-70.1c0-8.8,7.1-15.8,15.8-15.8h107.4c8.8,0,15.8,7.1,15.8,15.8
			v70.1C234.7,306,227.6,313,218.9,313"/>
		<g class="st4">
			<g>
				<defs>
					<rect id="SVGID_5_" x="97.3" y="159.1" width="132.2" height="200.2"/>
				</defs>
				<clipPath id="SVGID_6_">
					<use xlink:href="#SVGID_5_"  style="overflow:visible;"/>
				</clipPath>
				<path class="st10" d="M170.7,216.7l-0.1-20.5c0-0.8,0.8-1.4,1.7-1.4l1.8,0c0.9,0,1.7-0.6,1.7-1.4l-0.2-32.8
					c0-0.8,0.8-1.4,1.7-1.4l10.1,0c0.9,0,1.7,0.6,1.7,1.4l0.2,33.6c0,0.7-0.7,1.3-1.6,1.4h0c-0.9,0.1-1.6,0.7-1.6,1.4l0.1,19.7
					c0,0.8-0.8,1.4-1.7,1.4l-12.2,0.1C171.5,218.1,170.7,217.5,170.7,216.7"/>
				<path class="st10" d="M207.4,216.7l-0.1-20.5c0-0.8,0.8-1.4,1.7-1.4l1.8,0c0.9,0,1.7-0.6,1.7-1.4l-0.2-32.8
					c0-0.8,0.8-1.4,1.7-1.4l10.1,0c0.9,0,1.7,0.6,1.7,1.4l0.2,33.6c0,0.7-0.7,1.3-1.6,1.4c-0.9,0.1-1.6,0.7-1.6,1.4l0.1,19.7
					c0,0.8-0.8,1.4-1.7,1.4l-12.2,0.1C208.2,218.1,207.4,217.4,207.4,216.7"/>
				<path class="st10" d="M134.1,216.8l-0.1-20.5c0-0.8,0.8-1.4,1.7-1.4l1.8,0c0.9,0,1.7-0.6,1.7-1.4l-0.2-32.8
					c0-0.8,0.8-1.4,1.7-1.4l10.1,0c0.9,0,1.7,0.6,1.7,1.4l0.2,33.6c0,0.7-0.7,1.3-1.6,1.4c-0.9,0.1-1.6,0.7-1.6,1.4l0.1,19.7
					c0,0.8-0.8,1.4-1.7,1.4l-12.2,0.1C134.8,218.1,134.1,217.5,134.1,216.8"/>
				<path class="st10" d="M97.4,216.8l-0.1-20.5c0-0.8,0.8-1.4,1.7-1.4l1.8,0c0.9,0,1.7-0.6,1.7-1.4l-0.2-32.8
					c0-0.8,0.8-1.4,1.7-1.4l10.1,0c0.9,0,1.7,0.6,1.7,1.4l0.2,33.6c0,0.7-0.7,1.3-1.6,1.4c-0.9,0.1-1.6,0.7-1.6,1.4l0.1,19.7
					c0,0.8-0.8,1.4-1.7,1.4l-12.2,0.1C98.2,218.2,97.4,217.6,97.4,216.8"/>
				<path class="st10" d="M156.2,301.6l0,20.5c0,0.8-0.8,1.4-1.7,1.4l-1.8,0c-0.9,0-1.7,0.6-1.7,1.4l0,32.8c0,0.8-0.8,1.4-1.7,1.4
					l-10.1,0c-0.9,0-1.7-0.6-1.7-1.4l0-33.6c0-0.7,0.7-1.3,1.6-1.4c0.9-0.1,1.6-0.7,1.6-1.4l-0.1-19.7c0-0.8,0.8-1.4,1.7-1.4l12.2,0
					C155.4,300.2,156.2,300.9,156.2,301.6"/>
				<path class="st10" d="M119.5,301.5l0,20.5c0,0.8-0.8,1.4-1.7,1.4l-1.8,0c-0.9,0-1.7,0.6-1.7,1.4l0,32.8c0,0.8-0.8,1.4-1.7,1.4
					l-10.1,0c-0.9,0-1.7-0.6-1.7-1.4l0-33.6c0-0.7,0.7-1.3,1.6-1.4c0.9-0.1,1.6-0.7,1.6-1.4l-0.1-19.7c0-0.8,0.8-1.4,1.7-1.4l12.2,0
					C118.7,300.1,119.5,300.7,119.5,301.5"/>
				<path class="st10" d="M192.8,301.7l0,20.5c0,0.8-0.8,1.4-1.7,1.4l-1.8,0c-0.9,0-1.7,0.6-1.7,1.4l0,32.8c0,0.8-0.8,1.4-1.7,1.4
					l-10.1,0c-0.9,0-1.7-0.6-1.7-1.4l0-33.6c0-0.7,0.7-1.3,1.6-1.4c0.9-0.1,1.6-0.7,1.6-1.4l-0.1-19.7c0-0.8,0.8-1.4,1.7-1.4l12.2,0
					C192.1,300.3,192.8,301,192.8,301.7"/>
				<path class="st10" d="M229.5,301.8l0,20.5c0,0.8-0.8,1.4-1.7,1.4l-1.8,0c-0.9,0-1.7,0.6-1.7,1.4l0,32.8c0,0.8-0.8,1.4-1.7,1.4
					l-10.1,0c-0.9,0-1.7-0.6-1.7-1.4l0-33.6c0-0.7,0.7-1.3,1.6-1.4c0.9-0.1,1.6-0.7,1.6-1.4l-0.1-19.7c0-0.8,0.8-1.4,1.7-1.4l12.2,0
					C228.8,300.5,229.5,301.1,229.5,301.8"/>
			</g>
		</g>
		<g class="st11">
			<g>
				<defs>
					<rect id="SVGID_7_" x="252.8" y="255.4" width="131.6" height="115.4"/>
				</defs>
				<clipPath id="SVGID_8_">
					<use xlink:href="#SVGID_7_"  style="overflow:visible;"/>
				</clipPath>
				<path class="st12" d="M343.5,370.7h-49.8c-22.5,0-40.9-18.4-40.9-40.9v-33.6c0-22.5,18.4-40.9,40.9-40.9h49.8
					c22.5,0,40.9,18.4,40.9,40.9v33.6C384.4,352.3,366,370.7,343.5,370.7"/>
			</g>
		</g>
		<g>
			<defs>
				<path id="SVGID_9_" d="M293.7,255.4c-22.5,0-40.9,18.4-40.9,40.9v33.6c0,22.5,18.4,40.9,40.9,40.9h49.8
					c22.5,0,40.9-18.4,40.9-40.9v-33.6c0-22.5-18.4-40.9-40.9-40.9H293.7z"/>
			</defs>
			<clipPath id="SVGID_10_">
				<use xlink:href="#SVGID_9_"  style="overflow:visible;"/>
			</clipPath>
			<path class="st13" d="M287.6,255c1.4-1.1,3.2-1.8,5-1.8h47.2c4.9,0,9,4.7,9,10.4s-4,10.4-9,10.4h-47.2c-0.6,0-1.2-0.1-1.8-0.2"/>
			<path class="st14" d="M341.9,293.7c-0.7,0.2-1.4,0.3-2.1,0.3h-47.2c-4.9,0-9-4.6-9-10.2s4-10.2,9-10.2h47.2c1,0,2,0.2,3,0.6"/>
			<path class="st14" d="M289.3,294.7c1.6-1.8,0.9-0.8,3.4-0.8h47.2c4.9,0,9,4.6,9,10.2c0,5.6-4,10.2-9,10.2h-47.2
				c-0.9,0-1.7-0.1-2.5-0.4"/>
			<path class="st15" d="M341.6,333.6c-0.6,0.1-1.2,0.2-1.8,0.2h-47.2c-4.9,0-9-4.4-9-9.8h0c-0.1-5.8,3.4-11.9,9-9.8h47.2
				c1,0,1.9,0.2,2.8,0.5"/>
			<path class="st16" d="M287.3,334.4c1.5-1.5,3.4-2.4,5.4-2.4h47.2c4.9,0,9,5.4,9,12.1c0,6.7-4,12.1-9,12.1h-47.2
				c-1.1,0-2.2-0.3-3.2-0.8"/>
			<path class="st16" d="M341.9,372.6c-0.7,0.2-1.3,0.2-2,0.2h-47.2c-4.9,0-9-4-9-9c0-4.9,4-9,9-9h47.2c1.2,0,2.4,0.2,3.5,0.7"/>
		</g>
	</g>
</g>
</svg>
