<?xml version="1.0" encoding="utf-8"?>
<!-- Generator: Adobe Illustrator 22.0.0, SVG Export Plug-In . SVG Version: 6.00 Build 0)  -->
<svg version="1.1" id="图层_1" xmlns="http://www.w3.org/2000/svg" xmlns:xlink="http://www.w3.org/1999/xlink" x="0px" y="0px"
	 viewBox="0 0 480 400" style="enable-background:new 0 0 480 400;" xml:space="preserve">
<style type="text/css">
	.st0{fill:none;stroke:#FFFFFF;stroke-width:3.1708;stroke-miterlimit:10;}
	.st1{opacity:0.2;}
	.st2{clip-path:url(#SVGID_2_);fill:#FFFDFD;}
	.st3{clip-path:url(#SVGID_4_);fill:#FFFDFD;}
	.st4{opacity:0.6;}
	.st5{clip-path:url(#SVGID_6_);fill:#FFFDFD;}
	.st6{opacity:0.8;}
	.st7{clip-path:url(#SVGID_8_);fill:#FFFDFD;}
	.st8{clip-path:url(#SVGID_10_);fill:#FFFDFD;}
	.st9{clip-path:url(#SVGID_12_);fill:#FFFDFD;}
	.st10{fill:#FFFDFD;}
	.st11{clip-path:url(#SVGID_14_);fill:#FFFDFD;}
	.st12{fill:#FFFFFF;}
	.st13{clip-path:url(#SVGID_16_);fill:#FFFFFF;}
	.st14{clip-path:url(#SVGID_18_);fill:#FFFDFD;}
	.st15{clip-path:url(#SVGID_20_);fill:#FFFDFD;}
	.st16{clip-path:url(#SVGID_22_);fill:#FFFDFD;}
	.st17{clip-path:url(#SVGID_24_);fill:#FFFDFD;}
	.st18{fill:none;stroke:#FFFFFF;stroke-width:18.563;stroke-miterlimit:10;}
</style>
<g>
	<g>
		<rect x="113.8" y="45.3" class="st0" width="124.2" height="124.1"/>
		<rect x="242" y="45.3" class="st0" width="124.2" height="124.1"/>
		<g class="st1">
			<g>
				<defs>
					<rect id="SVGID_1_" x="113.8" y="45.3" width="124.2" height="124.1"/>
				</defs>
				<clipPath id="SVGID_2_">
					<use xlink:href="#SVGID_1_"  style="overflow:visible;"/>
				</clipPath>
				<rect x="113.8" y="45.3" class="st2" width="124.2" height="124.1"/>
			</g>
		</g>
		<g class="st1">
			<g>
				<defs>
					<rect id="SVGID_3_" x="242" y="45.3" width="124.2" height="124.1"/>
				</defs>
				<clipPath id="SVGID_4_">
					<use xlink:href="#SVGID_3_"  style="overflow:visible;"/>
				</clipPath>
				<rect x="242" y="45.3" class="st3" width="124.2" height="124.1"/>
			</g>
		</g>
		<g class="st4">
			<g>
				<defs>
					<rect id="SVGID_5_" x="266.3" y="83.8" width="47.2" height="47.2"/>
				</defs>
				<clipPath id="SVGID_6_">
					<use xlink:href="#SVGID_5_"  style="overflow:visible;"/>
				</clipPath>
				<path class="st5" d="M313.5,107.4c0,13-10.6,23.6-23.6,23.6s-23.6-10.6-23.6-23.6c0-13,10.6-23.6,23.6-23.6
					S313.5,94.3,313.5,107.4"/>
			</g>
		</g>
		<g class="st6">
			<g>
				<defs>
					<rect id="SVGID_7_" x="266.8" y="102.8" width="16.5" height="16.5"/>
				</defs>
				<clipPath id="SVGID_8_">
					<use xlink:href="#SVGID_7_"  style="overflow:visible;"/>
				</clipPath>
				<path class="st7" d="M283.3,111c0,4.6-3.7,8.3-8.3,8.3c-4.6,0-8.3-3.7-8.3-8.3c0-4.6,3.7-8.3,8.3-8.3
					C279.6,102.8,283.3,106.5,283.3,111"/>
			</g>
		</g>
		<g class="st6">
			<g>
				<defs>
					<rect id="SVGID_9_" x="297" y="99.1" width="16.5" height="16.5"/>
				</defs>
				<clipPath id="SVGID_10_">
					<use xlink:href="#SVGID_9_"  style="overflow:visible;"/>
				</clipPath>
				<path class="st8" d="M313.5,107.4c0,4.6-3.7,8.3-8.3,8.3c-4.6,0-8.3-3.7-8.3-8.3c0-4.6,3.7-8.3,8.3-8.3
					C309.8,99.1,313.5,102.8,313.5,107.4"/>
			</g>
		</g>
		<g class="st4">
			<g>
				<defs>
					<rect id="SVGID_11_" x="136" y="70.8" width="79.2" height="79.2"/>
				</defs>
				<clipPath id="SVGID_12_">
					<use xlink:href="#SVGID_11_"  style="overflow:visible;"/>
				</clipPath>
				<path class="st9" d="M215.2,110.4c0,21.9-17.7,39.6-39.6,39.6c-21.9,0-39.6-17.7-39.6-39.6s17.7-39.6,39.6-39.6
					C197.5,70.8,215.2,88.5,215.2,110.4"/>
			</g>
		</g>
		<path class="st10" d="M180,137.4h-8.7c-8.5,0-15.5-7-15.5-15.5v-23c0-8.5,7-15.5,15.5-15.5h8.7c8.5,0,15.5,7,15.5,15.5v23
			C195.5,130.4,188.5,137.4,180,137.4"/>
		<g class="st4">
			<g>
				<defs>
					<rect id="SVGID_13_" x="164.6" y="69.5" width="22.1" height="81.7"/>
				</defs>
				<clipPath id="SVGID_14_">
					<use xlink:href="#SVGID_13_"  style="overflow:visible;"/>
				</clipPath>
				<path class="st11" d="M181.2,151.2H170c-3,0-5.4-2.4-5.4-5.4V74.9c0-3,2.4-5.4,5.4-5.4h11.2c3,0,5.4,2.4,5.4,5.4v70.9
					C186.7,148.8,184.2,151.2,181.2,151.2"/>
			</g>
		</g>
		<path class="st12" d="M279.5,315.4h-85.9c-7.1,0-12.9-5.8-12.9-12.9v-85.9c0-7.1,5.8-12.9,12.9-12.9h85.9
			c7.1,0,12.9,5.8,12.9,12.9v85.9C292.4,309.6,286.6,315.4,279.5,315.4"/>
		<g class="st6">
			<g>
				<defs>
					<rect id="SVGID_15_" x="156.5" y="216.1" width="160.1" height="88.4"/>
				</defs>
				<clipPath id="SVGID_16_">
					<use xlink:href="#SVGID_15_"  style="overflow:visible;"/>
				</clipPath>
				<path class="st13" d="M281.9,216.2l11.8-0.1c0.4,0,0.8,0.7,0.8,1.6l0,1.7c0,0.9,0.4,1.6,0.8,1.6l18.8-0.2c0.4,0,0.8,0.7,0.8,1.6
					l0.1,9.4c0,0.9-0.3,1.6-0.8,1.6l-19.3,0.2c-0.4,0-0.8-0.6-0.8-1.5c0-0.8-0.4-1.5-0.8-1.5l-11.3,0.1c-0.4,0-0.8-0.7-0.8-1.6
					l-0.1-11.4C281.1,216.9,281.5,216.2,281.9,216.2"/>
				<path class="st13" d="M282.3,234l11.8-0.1c0.4,0,0.8,0.7,0.8,1.6l0,1.7c0,0.9,0.4,1.6,0.8,1.6l18.8-0.2c0.4,0,0.8,0.7,0.8,1.6
					l0.1,9.4c0,0.9-0.3,1.6-0.8,1.6l-19.3,0.2c-0.4,0-0.8-0.6-0.8-1.5c0-0.8-0.4-1.5-0.8-1.5l-11.3,0.1c-0.4,0-0.8-0.7-0.8-1.6
					l-0.1-11.4C281.5,234.7,281.9,234,282.3,234"/>
				<path class="st13" d="M282.7,251.7l11.8-0.1c0.4,0,0.8,0.7,0.8,1.6l0,1.7c0,0.9,0.4,1.6,0.8,1.6l18.8-0.2c0.4,0,0.8,0.7,0.8,1.6
					l0.1,9.4c0,0.9-0.3,1.6-0.8,1.6l-19.3,0.2c-0.4,0-0.8-0.6-0.8-1.5c0-0.8-0.4-1.5-0.8-1.5l-11.3,0.1c-0.4,0-0.8-0.7-0.8-1.6
					l-0.1-11.4C281.9,252.4,282.3,251.7,282.7,251.7"/>
				<path class="st13" d="M283.1,269.4l11.8-0.1c0.4,0,0.8,0.7,0.8,1.6l0,1.7c0,0.9,0.4,1.6,0.8,1.6l18.8-0.2c0.4,0,0.8,0.7,0.8,1.6
					l0.1,9.4c0,0.9-0.3,1.6-0.8,1.6l-19.3,0.2c-0.4,0-0.8-0.6-0.8-1.5c0-0.8-0.4-1.5-0.8-1.5l-11.3,0.1c-0.4,0-0.8-0.7-0.8-1.6
					l-0.1-11.4C282.3,270.2,282.7,269.4,283.1,269.4"/>
				<path class="st13" d="M283.5,287.2l11.8-0.1c0.4,0,0.8,0.7,0.8,1.6l0,1.7c0,0.9,0.4,1.6,0.8,1.6l18.8-0.2c0.4,0,0.8,0.7,0.8,1.6
					l0.1,9.4c0,0.9-0.3,1.6-0.8,1.6l-19.3,0.2c-0.4,0-0.8-0.6-0.8-1.5c0-0.8-0.4-1.5-0.8-1.5l-11.3,0.1c-0.4,0-0.8-0.7-0.8-1.6
					l-0.1-11.4C282.7,287.9,283.1,287.2,283.5,287.2"/>
				<path class="st13" d="M191.2,216.2l-11.8-0.1c-0.4,0-0.8,0.7-0.8,1.6l0,1.7c0,0.9-0.4,1.6-0.8,1.6l-18.8-0.2
					c-0.4,0-0.8,0.7-0.8,1.6l-0.1,9.4c0,0.9,0.3,1.6,0.8,1.6l19.3,0.2c0.4,0,0.8-0.6,0.8-1.5c0-0.8,0.4-1.5,0.8-1.5l11.3,0.1
					c0.4,0,0.8-0.7,0.8-1.6l0.1-11.4C192,216.9,191.6,216.2,191.2,216.2"/>
				<path class="st13" d="M190.8,234l-11.8-0.1c-0.4,0-0.8,0.7-0.8,1.6l0,1.7c0,0.9-0.4,1.6-0.8,1.6l-18.8-0.2
					c-0.4,0-0.8,0.7-0.8,1.6l-0.1,9.4c0,0.9,0.3,1.6,0.8,1.6l19.3,0.2c0.4,0,0.8-0.6,0.8-1.5c0-0.8,0.4-1.5,0.8-1.5l11.3,0.1
					c0.4,0,0.8-0.7,0.8-1.6l0.1-11.4C191.6,234.7,191.2,234,190.8,234"/>
				<path class="st13" d="M190.4,251.7l-11.8-0.1c-0.4,0-0.8,0.7-0.8,1.6l0,1.7c0,0.9-0.4,1.6-0.8,1.6l-18.8-0.2
					c-0.4,0-0.8,0.7-0.8,1.6l-0.1,9.4c0,0.9,0.3,1.6,0.8,1.6l19.3,0.2c0.4,0,0.8-0.6,0.8-1.5c0-0.8,0.4-1.5,0.8-1.5l11.3,0.1
					c0.4,0,0.8-0.7,0.8-1.6l0.1-11.4C191.2,252.4,190.8,251.7,190.4,251.7"/>
				<path class="st13" d="M190,269.4l-11.8-0.1c-0.4,0-0.8,0.7-0.8,1.6l0,1.7c0,0.9-0.4,1.6-0.8,1.6l-18.8-0.2
					c-0.4,0-0.8,0.7-0.8,1.6l-0.1,9.4c0,0.9,0.3,1.6,0.8,1.6l19.3,0.2c0.4,0,0.8-0.6,0.8-1.5c0-0.8,0.4-1.5,0.8-1.5l11.3,0.1
					c0.4,0,0.8-0.7,0.8-1.6l0.1-11.4C190.8,270.2,190.4,269.4,190,269.4"/>
				<path class="st13" d="M189.6,287.2l-11.8-0.1c-0.4,0-0.8,0.7-0.8,1.6l0,1.7c0,0.9-0.4,1.6-0.8,1.6l-18.8-0.2
					c-0.4,0-0.8,0.7-0.8,1.6l-0.1,9.4c0,0.9,0.3,1.6,0.8,1.6l19.3,0.2c0.4,0,0.8-0.6,0.8-1.5c0-0.8,0.4-1.5,0.8-1.5l11.3,0.1
					c0.4,0,0.8-0.7,0.8-1.6l0.1-11.4C190.4,287.9,190,287.2,189.6,287.2"/>
			</g>
		</g>
		<g class="st6">
			<g>
				<defs>
					<rect id="SVGID_17_" x="213.7" y="330.1" width="24.7" height="24.7"/>
				</defs>
				<clipPath id="SVGID_18_">
					<use xlink:href="#SVGID_17_"  style="overflow:visible;"/>
				</clipPath>
				<path class="st14" d="M238.4,342.4c0,6.8-5.5,12.3-12.4,12.3c-6.8,0-12.4-5.5-12.4-12.3c0-6.8,5.5-12.3,12.4-12.3
					C232.8,330.1,238.4,335.6,238.4,342.4"/>
			</g>
		</g>
		<g class="st6">
			<g>
				<defs>
					<rect id="SVGID_19_" x="256.2" y="330.1" width="24.7" height="24.7"/>
				</defs>
				<clipPath id="SVGID_20_">
					<use xlink:href="#SVGID_19_"  style="overflow:visible;"/>
				</clipPath>
				<path class="st15" d="M280.9,342.4c0,6.8-5.5,12.3-12.4,12.3c-6.8,0-12.4-5.5-12.4-12.3c0-6.8,5.5-12.3,12.4-12.3
					C275.4,330.1,280.9,335.6,280.9,342.4"/>
			</g>
		</g>
		<g class="st6">
			<g>
				<defs>
					<rect id="SVGID_21_" x="298.8" y="330.1" width="24.7" height="24.7"/>
				</defs>
				<clipPath id="SVGID_22_">
					<use xlink:href="#SVGID_21_"  style="overflow:visible;"/>
				</clipPath>
				<path class="st16" d="M323.5,342.4c0,6.8-5.5,12.3-12.4,12.3c-6.8,0-12.4-5.5-12.4-12.3c0-6.8,5.5-12.3,12.4-12.3
					C318,330.1,323.5,335.6,323.5,342.4"/>
			</g>
		</g>
		<g class="st6">
			<g>
				<defs>
					<rect id="SVGID_23_" x="168.9" y="328.4" width="28" height="28"/>
				</defs>
				<clipPath id="SVGID_24_">
					<use xlink:href="#SVGID_23_"  style="overflow:visible;"/>
				</clipPath>
				<rect x="168.9" y="328.4" class="st17" width="28" height="28"/>
			</g>
		</g>
	</g>
	<path class="st18" d="M410.2,377.8H69.8c-27.7,0-50.2-22.5-50.2-50.2V74.1c0-27.7,22.5-50.2,50.2-50.2h340.5
		c27.7,0,50.2,22.5,50.2,50.2v253.5C460.4,355.3,437.9,377.8,410.2,377.8z"/>
</g>
</svg>
