<?xml version="1.0" encoding="utf-8"?>
<!-- Generator: Adobe Illustrator 22.0.0, SVG Export Plug-In . SVG Version: 6.00 Build 0)  -->
<svg version="1.1" id="图层_1" xmlns="http://www.w3.org/2000/svg" xmlns:xlink="http://www.w3.org/1999/xlink" x="0px" y="0px"
	 viewBox="0 0 480 400" style="enable-background:new 0 0 480 400;" xml:space="preserve">
<style type="text/css">
	.st0{fill:none;stroke:#FFFFFF;stroke-width:18.563;stroke-miterlimit:10;}
	.st1{fill:none;stroke:#FFFFFF;stroke-width:12.5876;stroke-miterlimit:10;}
	.st2{fill:none;stroke:#FFFFFF;stroke-width:4.6916;stroke-miterlimit:10;}
	.st3{fill:none;stroke:#FFFFFF;stroke-width:3.5006;stroke-miterlimit:10;}
	.st4{opacity:0.8;}
	.st5{clip-path:url(#SVGID_2_);fill:none;stroke:#FFFFFF;stroke-width:1.1988;stroke-miterlimit:10;}
	.st6{clip-path:url(#SVGID_2_);fill:#FFFFFF;}
	.st7{opacity:0.8;clip-path:url(#SVGID_2_);}
	.st8{clip-path:url(#SVGID_4_);fill:#FFFFFF;}
	.st9{clip-path:url(#SVGID_6_);fill:none;stroke:#FFFFFF;stroke-width:1.1988;stroke-miterlimit:10;}
	.st10{clip-path:url(#SVGID_6_);fill:#FFFFFF;}
	.st11{opacity:0.8;clip-path:url(#SVGID_6_);}
	.st12{clip-path:url(#SVGID_8_);fill:#FFFFFF;}
	.st13{clip-path:url(#SVGID_10_);fill:none;stroke:#FFFFFF;stroke-width:1.1988;stroke-miterlimit:10;}
	.st14{clip-path:url(#SVGID_10_);fill:#FFFFFF;}
	.st15{opacity:0.8;clip-path:url(#SVGID_10_);}
	.st16{clip-path:url(#SVGID_12_);fill:#FFFFFF;}
	.st17{opacity:0.6;}
	.st18{clip-path:url(#SVGID_14_);fill:#FFFFFF;}
	.st19{clip-path:url(#SVGID_14_);fill:none;stroke:#000000;stroke-width:0.875;stroke-miterlimit:10;}
	.st20{clip-path:url(#SVGID_16_);fill:#FFFFFF;}
	.st21{fill:#FFFFFF;}
</style>
<g>
	<path class="st0" d="M410.2,374H69.8c-27.7,0-50.2-22.5-50.2-50.2V70.3c0-27.7,22.5-50.2,50.2-50.2h340.5
		c27.7,0,50.2,22.5,50.2,50.2v253.5C460.4,351.5,437.9,374,410.2,374z"/>
	<g>
		<path class="st1" d="M182.5,147.9l-0.2-18l-14.9,0.2c-4.3,0-7.8-3.1-7.8-7l-0.7-65.6c0-3.9,3.4-7.2,7.7-7.2l150.5-1.7
			c4.3,0,7.8,3.1,7.8,7l0.7,65.6c0,3.9-3.4,7.2-7.7,7.2l-14.9,0.2l0.2,18c0,3.9-3.4,7.2-7.7,7.2l-105.1,1.2
			C186,154.9,182.5,151.8,182.5,147.9z"/>
		<path class="st2" d="M197.8,95.6l-0.1-8.7c0-1.9-1.6-3.5-3.5-3.4l-10,0.1c-1.9,0-3.5,1.6-3.4,3.5l0.1,8.7c0,1.9,1.6,3.5,3.5,3.4
			l10-0.1C196.3,99.1,197.8,97.5,197.8,95.6z"/>
		<path class="st2" d="M233.1,95.2l-0.1-8.7c0-1.9-1.6-3.5-3.5-3.4l-10,0.1c-1.9,0-3.5,1.6-3.4,3.5l0.1,8.7c0,1.9,1.6,3.5,3.5,3.4
			l10-0.1C231.5,98.7,233.1,97.1,233.1,95.2z"/>
		<path class="st2" d="M268.3,94.8l-0.1-8.7c0-1.9-1.6-3.5-3.5-3.4l-10,0.1c-1.9,0-3.5,1.6-3.4,3.5l0.1,8.7c0,1.9,1.6,3.5,3.5,3.4
			l10-0.1C266.8,98.3,268.4,96.8,268.3,94.8z"/>
		<path class="st2" d="M303.6,94.4l-0.1-8.7c0-1.9-1.6-3.5-3.5-3.4l-10,0.1c-1.9,0-3.5,1.6-3.4,3.5l0.1,8.7c0,1.9,1.6,3.5,3.5,3.4
			l10-0.1C302.1,97.9,303.7,96.4,303.6,94.4z"/>
		<rect x="149.4" y="182.3" class="st3" width="62.2" height="29.3"/>
		<rect x="152" y="220.6" class="st3" width="62.2" height="29.3"/>
		<rect x="256.8" y="220.6" class="st3" width="62.2" height="29.3"/>
		<g class="st4">
			<g>
				<defs>
					<rect id="SVGID_1_" x="262.2" y="225.4" width="51.5" height="16.1"/>
				</defs>
				<clipPath id="SVGID_2_">
					<use xlink:href="#SVGID_1_"  style="overflow:visible;"/>
				</clipPath>
				<path class="st5" d="M312.8,229.6l0.1,6.8c0,2-1.5,3.6-3.5,3.6l-42.7,0.7c-2,0-3.6-1.5-3.6-3.5l-0.1-6.8c0-2,1.5-3.6,3.5-3.6
					l42.7-0.7C311.1,226.1,312.7,227.7,312.8,229.6z"/>
				<path class="st6" d="M305.5,229.7l0.1,6.8c0,2-1.5,3.6-3.5,3.6l-28.3,0.4c-2,0-3.6-1.5-3.6-3.5l-0.1-6.8c0-2,1.5-3.6,3.5-3.6
					l28.3-0.4C303.9,226.2,305.5,227.8,305.5,229.7"/>
				<g class="st7">
					<g>
						<defs>
							<rect id="SVGID_3_" x="263" y="230.5" width="49.8" height="5.9"/>
						</defs>
						<clipPath id="SVGID_4_">
							<use xlink:href="#SVGID_3_"  style="overflow:visible;"/>
						</clipPath>
						<path class="st8" d="M307.5,230.5c-1.3,0-2.4,1.1-2.4,2.5c0,1.3,1.1,2.4,2.5,2.4c0.9,0,1.7-0.5,2.1-1.2l3.2,1l-0.2-4.6
							l-2.9,1.4C309.4,231.1,308.5,230.4,307.5,230.5"/>
						<path class="st8" d="M268.2,231.5c1.3,0,2.5,1,2.5,2.4c0,1.3-1,2.5-2.4,2.5c-0.9,0-1.7-0.4-2.1-1.1l-3.2,1.1l0-4.6l2.9,1.3
							C266.3,232.2,267.2,231.6,268.2,231.5"/>
					</g>
				</g>
			</g>
		</g>
		<g class="st4">
			<g>
				<defs>
					<rect id="SVGID_5_" x="154.8" y="188.9" width="51.5" height="16.1"/>
				</defs>
				<clipPath id="SVGID_6_">
					<use xlink:href="#SVGID_5_"  style="overflow:visible;"/>
				</clipPath>
				<path class="st9" d="M205.4,193.1l0.1,6.8c0,2-1.5,3.6-3.5,3.6l-42.7,0.7c-2,0-3.6-1.5-3.6-3.5l-0.1-6.8c0-2,1.5-3.6,3.5-3.6
					l42.7-0.7C203.7,189.6,205.4,191.2,205.4,193.1z"/>
				<path class="st10" d="M198.2,193.2l0.1,6.8c0,2-1.5,3.6-3.5,3.6l-28.3,0.4c-2,0-3.6-1.5-3.6-3.5l-0.1-6.8c0-2,1.5-3.6,3.5-3.6
					l28.3-0.4C196.5,189.7,198.1,191.3,198.2,193.2"/>
				<g class="st11">
					<g>
						<defs>
							<rect id="SVGID_7_" x="155.6" y="193.9" width="49.8" height="5.9"/>
						</defs>
						<clipPath id="SVGID_8_">
							<use xlink:href="#SVGID_7_"  style="overflow:visible;"/>
						</clipPath>
						<path class="st12" d="M200.1,193.9c-1.3,0-2.4,1.1-2.4,2.5c0,1.3,1.1,2.4,2.5,2.4c0.9,0,1.7-0.5,2.1-1.2l3.2,1l-0.2-4.6
							l-2.9,1.4C202,194.6,201.1,193.9,200.1,193.9"/>
						<path class="st12" d="M160.8,195c1.3,0,2.5,1,2.5,2.4c0,1.3-1,2.5-2.4,2.5c-0.9,0-1.7-0.4-2.1-1.1l-3.2,1.1l0-4.6l2.9,1.3
							C158.9,195.7,159.8,195.1,160.8,195"/>
					</g>
				</g>
			</g>
		</g>
		<g class="st4">
			<g>
				<defs>
					<rect id="SVGID_9_" x="157.3" y="225.9" width="51.5" height="16.1"/>
				</defs>
				<clipPath id="SVGID_10_">
					<use xlink:href="#SVGID_9_"  style="overflow:visible;"/>
				</clipPath>
				<path class="st13" d="M207.9,230.2l0.1,6.8c0,2-1.5,3.6-3.5,3.6l-42.7,0.7c-2,0-3.6-1.5-3.6-3.5l-0.1-6.8c0-2,1.5-3.6,3.5-3.6
					l42.7-0.7C206.3,226.6,207.9,228.2,207.9,230.2z"/>
				<path class="st14" d="M200.7,230.3l0.1,6.8c0,2-1.5,3.6-3.5,3.6l-28.3,0.4c-2,0-3.6-1.5-3.6-3.5l-0.1-6.8c0-2,1.5-3.6,3.5-3.6
					l28.3-0.4C199.1,226.7,200.7,228.3,200.7,230.3"/>
				<g class="st15">
					<g>
						<defs>
							<rect id="SVGID_11_" x="158.2" y="231" width="49.8" height="5.9"/>
						</defs>
						<clipPath id="SVGID_12_">
							<use xlink:href="#SVGID_11_"  style="overflow:visible;"/>
						</clipPath>
						<path class="st16" d="M202.7,231c-1.3,0-2.4,1.1-2.4,2.5c0,1.3,1.1,2.4,2.5,2.4c0.9,0,1.7-0.5,2.1-1.2l3.2,1l-0.2-4.6
							l-2.9,1.4C204.6,231.6,203.7,231,202.7,231"/>
						<path class="st16" d="M163.4,232.1c1.3,0,2.5,1,2.5,2.4c0,1.3-1,2.5-2.4,2.5c-0.9,0-1.7-0.4-2.1-1.1l-3.2,1.1l0-4.6l2.9,1.3
							C161.5,232.8,162.3,232.1,163.4,232.1"/>
					</g>
				</g>
			</g>
		</g>
		<g class="st17">
			<g>
				<defs>
					<rect id="SVGID_13_" x="115.5" y="289.1" width="242.8" height="56.4"/>
				</defs>
				<clipPath id="SVGID_14_">
					<use xlink:href="#SVGID_13_"  style="overflow:visible;"/>
				</clipPath>
				<path class="st18" d="M351.3,345H122.4c-3.5,0-6.4-2.9-6.4-6.4V296c0-3.5,2.9-6.4,6.4-6.4h228.9c3.5,0,6.4,2.9,6.4,6.4v42.5
					C357.7,342.1,354.9,345,351.3,345"/>
				<path class="st19" d="M351.3,345H122.4c-3.5,0-6.4-2.9-6.4-6.4V296c0-3.5,2.9-6.4,6.4-6.4h228.9c3.5,0,6.4,2.9,6.4,6.4v42.5
					C357.7,342.1,354.9,345,351.3,345z"/>
			</g>
		</g>
		<g class="st17">
			<g>
				<defs>
					<rect id="SVGID_15_" x="120.1" y="294.2" width="233.6" height="46.3"/>
				</defs>
				<clipPath id="SVGID_16_">
					<use xlink:href="#SVGID_15_"  style="overflow:visible;"/>
				</clipPath>
				<path class="st20" d="M347.3,340.5H126.5c-3.5,0-6.4-2.9-6.4-6.4v-33.5c0-3.5,2.9-6.4,6.4-6.4h220.8c3.5,0,6.4,2.9,6.4,6.4v33.5
					C353.6,337.6,350.8,340.5,347.3,340.5"/>
			</g>
		</g>
		<path class="st3" d="M351.3,345H122.4c-3.5,0-6.4-2.9-6.4-6.4V296c0-3.5,2.9-6.4,6.4-6.4h228.9c3.5,0,6.4,2.9,6.4,6.4v42.5
			C357.7,342.1,354.9,345,351.3,345z"/>
		<path class="st21" d="M410.4,325.1l-19.3-0.2c-0.7,0-1.3-0.6-1.3-1.4l0-1.5c0-0.8-0.6-1.4-1.3-1.4l-30.8-0.2
			c-0.7,0-1.3-0.6-1.3-1.4l0.1-8.1c0-0.8,0.6-1.4,1.3-1.4l31.6,0.2c0.7,0,1.2,0.6,1.3,1.3c0,0.7,0.6,1.3,1.3,1.3l18.5,0.1
			c0.7,0,1.3,0.6,1.3,1.4l-0.1,9.9C411.7,324.5,411.1,325.1,410.4,325.1"/>
		<path class="st21" d="M122.1,325.1l-19.3-0.2c-0.7,0-1.3-0.6-1.3-1.4l0-1.5c0-0.8-0.6-1.4-1.3-1.4l-30.8-0.2
			c-0.7,0-1.3-0.6-1.3-1.4l0.1-8.1c0-0.8,0.6-1.4,1.3-1.4l31.6,0.2c0.7,0,1.2,0.6,1.3,1.3c0,0.7,0.6,1.3,1.3,1.3l18.5,0.1
			c0.7,0,1.3,0.6,1.3,1.4l-0.1,9.9C123.4,324.5,122.8,325.1,122.1,325.1"/>
	</g>
</g>
</svg>
