<?xml version="1.0" encoding="utf-8"?>
<!-- Generator: Adobe Illustrator 22.0.0, SVG Export Plug-In . SVG Version: 6.00 Build 0)  -->
<svg version="1.1" id="图层_1" xmlns="http://www.w3.org/2000/svg" xmlns:xlink="http://www.w3.org/1999/xlink" x="0px" y="0px"
	 viewBox="0 0 480 400" style="enable-background:new 0 0 480 400;" xml:space="preserve">
<style type="text/css">
	.st0{opacity:3.999330e-02;}
	.st1{clip-path:url(#SVGID_2_);fill:#FFFFFF;}
	.st2{fill:none;stroke:#FFFFFF;stroke-width:6.0332;stroke-miterlimit:10;}
	.st3{opacity:0.3;}
	.st4{clip-path:url(#SVGID_4_);fill:#FFFFFF;}
	.st5{fill:none;stroke:#FFFFFF;stroke-width:4.326;stroke-miterlimit:10;}
	.st6{opacity:0.6;}
	.st7{clip-path:url(#SVGID_6_);fill:#FFFFFF;}
	.st8{fill:#FFFFFF;}
	.st9{fill:none;stroke:#FFFFFF;stroke-width:18.563;stroke-miterlimit:10;}
</style>
<g>
	<g>
		<g class="st0">
			<g>
				<defs>
					<rect id="SVGID_1_" x="114.9" y="74.9" width="250.1" height="250.1"/>
				</defs>
				<clipPath id="SVGID_2_">
					<use xlink:href="#SVGID_1_"  style="overflow:visible;"/>
				</clipPath>
				<path class="st1" d="M365.1,200c0,69.1-56,125.1-125.1,125.1c-69.1,0-125.1-56-125.1-125.1S170.9,74.9,240,74.9
					C309.1,74.9,365.1,130.9,365.1,200"/>
			</g>
		</g>
		<path class="st2" d="M365.1,200c0,69.1-56,125.1-125.1,125.1c-69.1,0-125.1-56-125.1-125.1S170.9,74.9,240,74.9
			C309.1,74.9,365.1,130.9,365.1,200z"/>
		<g class="st3">
			<g>
				<defs>
					<rect id="SVGID_3_" x="146.5" y="118" width="187" height="164"/>
				</defs>
				<clipPath id="SVGID_4_">
					<use xlink:href="#SVGID_3_"  style="overflow:visible;"/>
				</clipPath>
				<path class="st4" d="M225.2,185.9c0,0-12.8-33.1-6.9-50.6c0,0,7.1-21.7,35.5-16.4c0,0,24.3,4.7,26.3,27.7c0,0,4.9,13-12,20.9
					c0,0-10.2,15.7-10.2,17C257.9,185.6,225.2,185.9,225.2,185.9"/>
				<path class="st4" d="M224.2,242.1c0,0-24.2,26.9-43.3,30.9c0,0-23.6,5-32.9-20.6c0,0-7.8-22,12.4-35.2c0,0,9.6-10.5,25.3-0.7
					c0,0,19.6,0.5,20.8-0.2C207.7,215.7,224.2,242.1,224.2,242.1"/>
				<path class="st4" d="M276.7,214.7c0,0,37,6.2,50.2,19.7c0,0,16.4,16.6-2.6,37c0,0-16.5,17.3-38.7,7.5c0,0-14.5-2.6-13.3-20.2
					c0,0-9.4-16.1-10.6-16.8C260.6,241.4,276.7,214.7,276.7,214.7"/>
			</g>
		</g>
		<path class="st5" d="M225.2,185.9c0,0-12.8-33.1-6.9-50.6c0,0,7.1-21.7,35.5-16.4c0,0,24.3,4.7,26.3,27.7c0,0,4.9,13-12,20.9
			c0,0-10.2,15.7-10.2,17C257.9,185.6,225.2,185.9,225.2,185.9z"/>
		<path class="st5" d="M224.2,242.1c0,0-24.2,26.9-43.3,30.9c0,0-23.6,5-32.9-20.6c0,0-7.8-22,12.4-35.2c0,0,9.6-10.5,25.3-0.7
			c0,0,19.6,0.5,20.8-0.2C207.7,215.7,224.2,242.1,224.2,242.1z"/>
		<path class="st5" d="M276.7,214.7c0,0,37,6.2,50.2,19.7c0,0,16.4,16.6-2.6,37c0,0-16.5,17.3-38.7,7.5c0,0-14.5-2.6-13.3-20.2
			c0,0-9.4-16.1-10.6-16.8C260.6,241.4,276.7,214.7,276.7,214.7z"/>
		<g class="st6">
			<g>
				<defs>
					<rect id="SVGID_5_" x="206" y="177" width="81.3" height="76.2"/>
				</defs>
				<clipPath id="SVGID_6_">
					<use xlink:href="#SVGID_5_"  style="overflow:visible;"/>
				</clipPath>
				<path class="st7" d="M287.3,215.3c-0.1,21.1-18.4,38-40.9,37.9c-22.5-0.1-40.6-17.3-40.4-38.3c0.1-21.1,18.4-38,40.9-37.9
					C269.3,177.1,287.4,194.3,287.3,215.3"/>
			</g>
		</g>
		<path class="st5" d="M287.3,215.3c-0.1,21.1-18.4,38-40.9,37.9c-22.5-0.1-40.6-17.3-40.4-38.3c0.1-21.1,18.4-38,40.9-37.9
			C269.3,177.1,287.4,194.3,287.3,215.3z"/>
		<path class="st8" d="M221.3,202.1c0,0-0.2-27.3,35.1-20.1c0,0,9.6,1.9,17,10.3c0,0-7.7,3.8-8.1,3.9c-0.4,0.1,24,9,14.1,31.8
			c0,0-10.7,21-25.6,20.6c0,0-4-13.8-4-14.1c0-0.3-10,9.9-24.3,5.1c0,0-18.7-5.3-15.6-28.3c0,0,1.9-7.7,3.2-9.5L221.3,202.1z"/>
	</g>
	<path class="st9" d="M410.2,376.9H69.8c-27.7,0-50.2-22.5-50.2-50.2V73.3c0-27.7,22.5-50.2,50.2-50.2h340.5
		c27.7,0,50.2,22.5,50.2,50.2v253.5C460.4,354.5,437.9,376.9,410.2,376.9z"/>
</g>
</svg>
