<?xml version="1.0" encoding="utf-8"?>
<!-- Generator: Adobe Illustrator 22.0.0, SVG Export Plug-In . SVG Version: 6.00 Build 0)  -->
<svg version="1.1" id="图层_1" xmlns="http://www.w3.org/2000/svg" xmlns:xlink="http://www.w3.org/1999/xlink" x="0px" y="0px"
	 viewBox="0 0 740 400" style="enable-background:new 0 0 740 400;" xml:space="preserve">
<style type="text/css">
	.st0{fill:none;stroke:#FFFFFF;stroke-width:12;stroke-miterlimit:10;}
	.st1{fill:#FFFFFF;}
	.st2{fill:none;stroke:#FFFFFF;stroke-width:16.788;stroke-miterlimit:10;}
	.st3{fill:none;stroke:#FFFFFF;stroke-width:8.394;stroke-miterlimit:10;}
	.st4{fill:none;stroke:#FFFFFF;stroke-width:18.563;stroke-miterlimit:10;}
	.st5{fill:none;stroke:#FFFFFF;stroke-width:17.724;stroke-miterlimit:10;}
	.st6{fill:none;stroke:#FFFFFF;stroke-width:6.606;stroke-miterlimit:10;}
	.st7{fill:none;stroke:#FFFFFF;stroke-width:9.938;stroke-miterlimit:10;}
	.st8{fill:none;stroke:#FFFFFF;stroke-width:4.969;stroke-miterlimit:10;}
	.st9{fill:none;stroke:#FFFFFF;stroke-width:2.417;stroke-miterlimit:10;}
	.st10{opacity:0.3;}
	.st11{clip-path:url(#SVGID_2_);fill:#FFFFFF;}
	.st12{clip-path:url(#SVGID_4_);fill:#FFFFFF;}
	.st13{clip-path:url(#SVGID_6_);fill:#FFFFFF;}
	.st14{opacity:0.8;}
	.st15{clip-path:url(#SVGID_8_);fill:#FFFFFF;}
	.st16{opacity:0.4;}
	.st17{clip-path:url(#SVGID_10_);fill:#FFFFFF;}
	.st18{clip-path:url(#SVGID_12_);fill:#FFFFFF;}
	.st19{fill:none;stroke:#FFFFFF;stroke-width:4.388;stroke-miterlimit:10;}
	.st20{clip-path:url(#SVGID_14_);fill:none;stroke:#FFFFFF;stroke-width:1.303;stroke-miterlimit:10;}
	.st21{clip-path:url(#SVGID_14_);fill:#FFFFFF;}
	.st22{opacity:0.8;clip-path:url(#SVGID_14_);}
	.st23{clip-path:url(#SVGID_16_);fill:#FFFFFF;}
	.st24{clip-path:url(#SVGID_18_);fill:none;stroke:#FFFFFF;stroke-width:1.303;stroke-miterlimit:10;}
	.st25{clip-path:url(#SVGID_18_);fill:#FFFFFF;}
	.st26{opacity:0.8;clip-path:url(#SVGID_18_);}
	.st27{clip-path:url(#SVGID_20_);fill:#FFFFFF;}
	.st28{clip-path:url(#SVGID_22_);fill:none;stroke:#FFFFFF;stroke-width:1.303;stroke-miterlimit:10;}
	.st29{clip-path:url(#SVGID_22_);fill:#FFFFFF;}
	.st30{opacity:0.8;clip-path:url(#SVGID_22_);}
	.st31{clip-path:url(#SVGID_24_);fill:#FFFFFF;}
	.st32{clip-path:url(#SVGID_26_);fill:none;stroke:#FFFFFF;stroke-width:1.303;stroke-miterlimit:10;}
	.st33{clip-path:url(#SVGID_26_);fill:#FFFFFF;}
	.st34{opacity:0.8;clip-path:url(#SVGID_26_);}
	.st35{clip-path:url(#SVGID_28_);fill:#FFFFFF;}
	.st36{clip-path:url(#SVGID_30_);fill:none;stroke:#FFFFFF;stroke-width:1.303;stroke-miterlimit:10;}
	.st37{clip-path:url(#SVGID_30_);fill:#FFFFFF;}
	.st38{opacity:0.8;clip-path:url(#SVGID_30_);}
	.st39{clip-path:url(#SVGID_32_);fill:#FFFFFF;}
	.st40{clip-path:url(#SVGID_34_);fill:none;stroke:#FFFFFF;stroke-width:1.303;stroke-miterlimit:10;}
	.st41{clip-path:url(#SVGID_34_);fill:#FFFFFF;}
	.st42{opacity:0.8;clip-path:url(#SVGID_34_);}
	.st43{clip-path:url(#SVGID_36_);fill:#FFFFFF;}
	.st44{clip-path:url(#SVGID_38_);fill:none;stroke:#FFFFFF;stroke-width:1.303;stroke-miterlimit:10;}
	.st45{clip-path:url(#SVGID_38_);fill:#FFFFFF;}
	.st46{opacity:0.8;clip-path:url(#SVGID_38_);}
	.st47{clip-path:url(#SVGID_40_);fill:#FFFFFF;}
	.st48{clip-path:url(#SVGID_42_);fill:none;stroke:#FFFFFF;stroke-width:1.303;stroke-miterlimit:10;}
	.st49{clip-path:url(#SVGID_42_);fill:#FFFFFF;}
	.st50{opacity:0.8;clip-path:url(#SVGID_42_);}
	.st51{clip-path:url(#SVGID_44_);fill:#FFFFFF;}
	.st52{clip-path:url(#SVGID_46_);fill:none;stroke:#FFFFFF;stroke-width:1.303;stroke-miterlimit:10;}
	.st53{clip-path:url(#SVGID_46_);fill:#FFFFFF;}
	.st54{opacity:0.8;clip-path:url(#SVGID_46_);}
	.st55{clip-path:url(#SVGID_48_);fill:#FFFFFF;}
	.st56{clip-path:url(#SVGID_50_);fill:none;stroke:#FFFFFF;stroke-width:1.303;stroke-miterlimit:10;}
	.st57{clip-path:url(#SVGID_50_);fill:#FFFFFF;}
	.st58{opacity:0.8;clip-path:url(#SVGID_50_);}
	.st59{clip-path:url(#SVGID_52_);fill:#FFFFFF;}
	.st60{clip-path:url(#SVGID_54_);fill:none;stroke:#FFFFFF;stroke-width:1.952;stroke-miterlimit:10;}
	.st61{clip-path:url(#SVGID_54_);fill:#FFFFFF;}
	.st62{opacity:0.8;clip-path:url(#SVGID_54_);}
	.st63{clip-path:url(#SVGID_56_);fill:#FFFFFF;}
	.st64{clip-path:url(#SVGID_58_);fill:none;stroke:#FFFFFF;stroke-width:1.303;stroke-miterlimit:10;}
	.st65{clip-path:url(#SVGID_58_);fill:#FFFFFF;}
	.st66{opacity:0.8;clip-path:url(#SVGID_58_);}
	.st67{clip-path:url(#SVGID_60_);fill:#FFFFFF;}
	.st68{clip-path:url(#SVGID_62_);fill:none;stroke:#FFFFFF;stroke-width:1.303;stroke-miterlimit:10;}
	.st69{clip-path:url(#SVGID_62_);fill:#FFFFFF;}
	.st70{opacity:0.8;clip-path:url(#SVGID_62_);}
	.st71{clip-path:url(#SVGID_64_);fill:#FFFFFF;}
	.st72{clip-path:url(#SVGID_66_);fill:none;stroke:#FFFFFF;stroke-width:1.303;stroke-miterlimit:10;}
	.st73{clip-path:url(#SVGID_66_);fill:#FFFFFF;}
	.st74{opacity:0.8;clip-path:url(#SVGID_66_);}
	.st75{clip-path:url(#SVGID_68_);fill:#FFFFFF;}
	.st76{clip-path:url(#SVGID_70_);fill:none;stroke:#FFFFFF;stroke-width:1.303;stroke-miterlimit:10;}
	.st77{clip-path:url(#SVGID_70_);fill:#FFFFFF;}
	.st78{opacity:0.8;clip-path:url(#SVGID_70_);}
	.st79{clip-path:url(#SVGID_72_);fill:#FFFFFF;}
	.st80{clip-path:url(#SVGID_74_);fill:none;stroke:#FFFFFF;stroke-width:1.303;stroke-miterlimit:10;}
	.st81{clip-path:url(#SVGID_74_);fill:#FFFFFF;}
	.st82{opacity:0.8;clip-path:url(#SVGID_74_);}
	.st83{clip-path:url(#SVGID_76_);fill:#FFFFFF;}
	.st84{clip-path:url(#SVGID_78_);fill:none;stroke:#FFFFFF;stroke-width:1.303;stroke-miterlimit:10;}
	.st85{clip-path:url(#SVGID_78_);fill:#FFFFFF;}
	.st86{opacity:0.8;clip-path:url(#SVGID_78_);}
	.st87{clip-path:url(#SVGID_80_);fill:#FFFFFF;}
	.st88{clip-path:url(#SVGID_82_);fill:none;stroke:#FFFFFF;stroke-width:1.303;stroke-miterlimit:10;}
	.st89{clip-path:url(#SVGID_82_);fill:#FFFFFF;}
	.st90{opacity:0.8;clip-path:url(#SVGID_82_);}
	.st91{clip-path:url(#SVGID_84_);fill:#FFFFFF;}
	.st92{clip-path:url(#SVGID_86_);fill:none;stroke:#FFFFFF;stroke-width:1.303;stroke-miterlimit:10;}
	.st93{clip-path:url(#SVGID_86_);fill:#FFFFFF;}
	.st94{opacity:0.8;clip-path:url(#SVGID_86_);}
	.st95{clip-path:url(#SVGID_88_);fill:#FFFFFF;}
	.st96{clip-path:url(#SVGID_90_);fill:none;stroke:#FFFFFF;stroke-width:1.303;stroke-miterlimit:10;}
	.st97{clip-path:url(#SVGID_90_);fill:#FFFFFF;}
	.st98{opacity:0.8;clip-path:url(#SVGID_90_);}
	.st99{clip-path:url(#SVGID_92_);fill:#FFFFFF;}
	.st100{clip-path:url(#SVGID_94_);fill:none;stroke:#FFFFFF;stroke-width:1.303;stroke-miterlimit:10;}
	.st101{clip-path:url(#SVGID_94_);fill:#FFFFFF;}
	.st102{opacity:0.8;clip-path:url(#SVGID_94_);}
	.st103{clip-path:url(#SVGID_96_);fill:#FFFFFF;}
	.st104{clip-path:url(#SVGID_98_);fill:none;stroke:#FFFFFF;stroke-width:1.952;stroke-miterlimit:10;}
	.st105{clip-path:url(#SVGID_98_);fill:#FFFFFF;}
	.st106{opacity:0.8;clip-path:url(#SVGID_98_);}
	.st107{clip-path:url(#SVGID_100_);fill:#FFFFFF;}
	.st108{clip-path:url(#SVGID_102_);fill:none;stroke:#FFFFFF;stroke-width:1.952;stroke-miterlimit:10;}
	.st109{clip-path:url(#SVGID_102_);fill:#FFFFFF;}
	.st110{opacity:0.8;clip-path:url(#SVGID_102_);}
	.st111{clip-path:url(#SVGID_104_);fill:#FFFFFF;}
	.st112{clip-path:url(#SVGID_106_);fill:none;stroke:#FFFFFF;stroke-width:1.952;stroke-miterlimit:10;}
	.st113{clip-path:url(#SVGID_106_);fill:#FFFFFF;}
	.st114{opacity:0.8;clip-path:url(#SVGID_106_);}
	.st115{clip-path:url(#SVGID_108_);fill:#FFFFFF;}
	.st116{fill:none;stroke:#FFFFFF;stroke-width:4.859;stroke-miterlimit:10;}
	.st117{clip-path:url(#SVGID_110_);fill:none;stroke:#FFFFFF;stroke-width:1.442;stroke-miterlimit:10;}
	.st118{clip-path:url(#SVGID_110_);fill:#FFFFFF;}
	.st119{opacity:0.8;clip-path:url(#SVGID_110_);}
	.st120{clip-path:url(#SVGID_112_);fill:#FFFFFF;}
	.st121{clip-path:url(#SVGID_114_);fill:none;stroke:#FFFFFF;stroke-width:1.442;stroke-miterlimit:10;}
	.st122{clip-path:url(#SVGID_114_);fill:#FFFFFF;}
	.st123{opacity:0.8;clip-path:url(#SVGID_114_);}
	.st124{clip-path:url(#SVGID_116_);fill:#FFFFFF;}
	.st125{clip-path:url(#SVGID_118_);fill:none;stroke:#FFFFFF;stroke-width:1.442;stroke-miterlimit:10;}
	.st126{clip-path:url(#SVGID_118_);fill:#FFFFFF;}
	.st127{opacity:0.8;clip-path:url(#SVGID_118_);}
	.st128{clip-path:url(#SVGID_120_);fill:#FFFFFF;}
	.st129{clip-path:url(#SVGID_122_);fill:none;stroke:#FFFFFF;stroke-width:1.442;stroke-miterlimit:10;}
	.st130{clip-path:url(#SVGID_122_);fill:#FFFFFF;}
	.st131{opacity:0.8;clip-path:url(#SVGID_122_);}
	.st132{clip-path:url(#SVGID_124_);fill:#FFFFFF;}
	.st133{clip-path:url(#SVGID_126_);fill:none;stroke:#FFFFFF;stroke-width:1.442;stroke-miterlimit:10;}
	.st134{clip-path:url(#SVGID_126_);fill:#FFFFFF;}
	.st135{opacity:0.8;clip-path:url(#SVGID_126_);}
	.st136{clip-path:url(#SVGID_128_);fill:#FFFFFF;}
	.st137{clip-path:url(#SVGID_130_);fill:none;stroke:#FFFFFF;stroke-width:1.442;stroke-miterlimit:10;}
	.st138{clip-path:url(#SVGID_130_);fill:#FFFFFF;}
	.st139{opacity:0.8;clip-path:url(#SVGID_130_);}
	.st140{clip-path:url(#SVGID_132_);fill:#FFFFFF;}
	.st141{clip-path:url(#SVGID_134_);fill:none;stroke:#FFFFFF;stroke-width:1.442;stroke-miterlimit:10;}
	.st142{clip-path:url(#SVGID_134_);fill:#FFFFFF;}
	.st143{opacity:0.8;clip-path:url(#SVGID_134_);}
	.st144{clip-path:url(#SVGID_136_);fill:#FFFFFF;}
	.st145{clip-path:url(#SVGID_138_);fill:none;stroke:#FFFFFF;stroke-width:1.442;stroke-miterlimit:10;}
	.st146{clip-path:url(#SVGID_138_);fill:#FFFFFF;}
	.st147{opacity:0.8;clip-path:url(#SVGID_138_);}
	.st148{clip-path:url(#SVGID_140_);fill:#FFFFFF;}
	.st149{clip-path:url(#SVGID_142_);fill:#FFFFFF;}
	.st150{clip-path:url(#SVGID_144_);fill:#FFFFFF;}
</style>
<g>
	<path class="st0" d="M-1926.9-4685h-15.6c-4.1,0-7.4-3.3-7.4-7.4v-58.1c0-4.1,3.3-7.4,7.4-7.4h15.6c4.1,0,7.4,3.3,7.4,7.4v58.1
		C-1919.5-4688.3-1922.8-4685-1926.9-4685z"/>
	<path class="st1" d="M-2110.1-4814.7h-256.6c-3.4,0-6.1-2.7-6.1-6.1c0-3.4,2.7-6.1,6.1-6.1h256.6c3.4,0,6.1,2.7,6.1,6.1
		C-2104.1-4817.5-2106.8-4814.7-2110.1-4814.7"/>
	<path class="st1" d="M-2087.4-4820.8c0,4.6-3.7,8.3-8.3,8.3c-4.6,0-8.3-3.7-8.3-8.3s3.7-8.3,8.3-8.3
		C-2091.1-4829.2-2087.4-4825.4-2087.4-4820.8"/>
	<path class="st1" d="M-2110.1-4792h-256.6c-3.4,0-6.1-2.7-6.1-6.1s2.7-6.1,6.1-6.1h256.6c3.4,0,6.1,2.7,6.1,6.1
		S-2106.8-4792-2110.1-4792"/>
	<path class="st1" d="M-2087.4-4798c0,4.6-3.7,8.3-8.3,8.3c-4.6,0-8.3-3.7-8.3-8.3s3.7-8.3,8.3-8.3
		C-2091.1-4806.4-2087.4-4802.7-2087.4-4798"/>
	<path class="st1" d="M-2110.1-4769.2h-256.6c-3.4,0-6.1-2.7-6.1-6.1s2.7-6.1,6.1-6.1h256.6c3.4,0,6.1,2.7,6.1,6.1
		S-2106.8-4769.2-2110.1-4769.2"/>
	<path class="st1" d="M-2087.4-4775.3c0,4.6-3.7,8.3-8.3,8.3c-4.6,0-8.3-3.7-8.3-8.3c0-4.6,3.7-8.4,8.3-8.4
		C-2091.1-4783.6-2087.4-4779.9-2087.4-4775.3"/>
	<path class="st1" d="M-2110.1-4746.4h-256.6c-3.4,0-6.1-2.7-6.1-6.1s2.7-6.1,6.1-6.1h256.6c3.4,0,6.1,2.7,6.1,6.1
		S-2106.8-4746.4-2110.1-4746.4"/>
	<path class="st1" d="M-2087.4-4752.5c0,4.6-3.7,8.4-8.3,8.4c-4.6,0-8.3-3.7-8.3-8.4c0-4.6,3.7-8.3,8.3-8.3
		C-2091.1-4760.9-2087.4-4757.1-2087.4-4752.5"/>
	<path class="st1" d="M-2110.1-4723.7h-256.6c-3.4,0-6.1-2.7-6.1-6.1s2.7-6.1,6.1-6.1h256.6c3.4,0,6.1,2.7,6.1,6.1
		S-2106.8-4723.7-2110.1-4723.7"/>
	<path class="st1" d="M-2087.4-4729.7c0,4.6-3.7,8.3-8.3,8.3c-4.6,0-8.3-3.7-8.3-8.3c0-4.6,3.7-8.3,8.3-8.3
		C-2091.1-4738.1-2087.4-4734.3-2087.4-4729.7"/>
	<path class="st1" d="M-2110.1-4700.9h-256.6c-3.4,0-6.1-2.7-6.1-6.1c0-3.4,2.7-6.1,6.1-6.1h256.6c3.4,0,6.1,2.7,6.1,6.1
		C-2104.1-4703.6-2106.8-4700.9-2110.1-4700.9"/>
	<path class="st1" d="M-2087.4-4707c0,4.6-3.7,8.3-8.3,8.3c-4.6,0-8.3-3.7-8.3-8.3s3.7-8.3,8.3-8.3
		C-2091.1-4715.3-2087.4-4711.6-2087.4-4707"/>
	<path class="st1" d="M-2110.1-4678.1h-256.6c-3.4,0-6.1-2.7-6.1-6.1c0-3.4,2.7-6.1,6.1-6.1h256.6c3.4,0,6.1,2.7,6.1,6.1
		C-2104.1-4680.8-2106.8-4678.1-2110.1-4678.1"/>
	<path class="st1" d="M-2087.4-4684.2c0,4.6-3.7,8.3-8.3,8.3c-4.6,0-8.3-3.7-8.3-8.3c0-4.6,3.7-8.3,8.3-8.3
		C-2091.1-4692.5-2087.4-4688.8-2087.4-4684.2"/>
	<path class="st1" d="M-2110.1-4655.4h-256.6c-3.4,0-6.1-2.7-6.1-6.1s2.7-6.1,6.1-6.1h256.6c3.4,0,6.1,2.7,6.1,6.1
		S-2106.8-4655.4-2110.1-4655.4"/>
	<path class="st1" d="M-2087.4-4661.4c0,4.6-3.7,8.3-8.3,8.3c-4.6,0-8.3-3.7-8.3-8.3c0-4.6,3.7-8.3,8.3-8.3
		C-2091.1-4669.8-2087.4-4666-2087.4-4661.4"/>
	<path class="st1" d="M-2110.1-4632.6h-256.6c-3.4,0-6.1-2.7-6.1-6.1s2.7-6.1,6.1-6.1h256.6c3.4,0,6.1,2.7,6.1,6.1
		S-2106.8-4632.6-2110.1-4632.6"/>
	<path class="st1" d="M-2087.4-4638.7c0,4.6-3.7,8.3-8.3,8.3c-4.6,0-8.3-3.7-8.3-8.3c0-4.6,3.7-8.3,8.3-8.3
		C-2091.1-4647-2087.4-4643.3-2087.4-4638.7"/>
	<path class="st2" d="M-1855.3-4797.2h24.5v-18.8c0-5.4,4.4-9.7,9.7-9.7h89.6c5.4,0,9.7,4.4,9.7,9.7v189.1c0,5.4-4.4,9.7-9.7,9.7
		h-89.6c-5.4,0-9.7-4.4-9.7-9.7v-18.8h-24.5c-5.4,0-9.7-4.4-9.7-9.7v-132.1C-1865.1-4792.8-1860.7-4797.2-1855.3-4797.2z"/>
	<path class="st3" d="M-1785.4-4777.2h14.2c2,0,3.6-1.6,3.6-3.6v-14.2c0-2-1.6-3.6-3.6-3.6h-14.2c-2,0-3.6,1.6-3.6,3.6v14.2
		C-1789-4778.8-1787.4-4777.2-1785.4-4777.2z"/>
	<path class="st3" d="M-1785.4-4732.9h14.2c2,0,3.6-1.6,3.6-3.6v-14.2c0-2-1.6-3.6-3.6-3.6h-14.2c-2,0-3.6,1.6-3.6,3.6v14.2
		C-1789-4734.5-1787.4-4732.9-1785.4-4732.9z"/>
	<path class="st3" d="M-1785.4-4688.6h14.2c2,0,3.6-1.6,3.6-3.6v-14.2c0-2-1.6-3.6-3.6-3.6h-14.2c-2,0-3.6,1.6-3.6,3.6v14.2
		C-1789-4690.2-1787.4-4688.6-1785.4-4688.6z"/>
	<path class="st3" d="M-1785.4-4644.2h14.2c2,0,3.6-1.6,3.6-3.6v-14.2c0-2-1.6-3.6-3.6-3.6h-14.2c-2,0-3.6,1.6-3.6,3.6v14.2
		C-1789-4645.8-1787.4-4644.2-1785.4-4644.2z"/>
	<path class="st4" d="M-1731.8-4562.1h-625.5c-22.6,0-40.9-18.3-40.9-40.9v-261.7c0-22.6,18.3-40.9,40.9-40.9h625.5
		c22.6,0,40.9,18.3,40.9,40.9v261.7C-1690.9-4580.4-1709.2-4562.1-1731.8-4562.1z"/>
</g>
<g>
	<g>
		<path class="st5" d="M585.3,140.2l17.2,0.1l0.1-14.3c0-4.1,3.1-7.4,6.9-7.4l62.9,0.5c3.8,0,6.8,3.4,6.8,7.5L678,271
			c0,4.1-3.1,7.4-6.9,7.4l-62.9-0.5c-3.8,0-6.8-3.4-6.8-7.5l0.1-14.3l-17.2-0.1c-3.8,0-6.8-3.4-6.8-7.5l0.9-100.8
			C578.5,143.5,581.6,140.2,585.3,140.2z"/>
		<path class="st6" d="M635.1,155.8l8.3,0.1c1.8,0,3.3-1.5,3.4-3.3l0.1-9.6c0-1.8-1.5-3.3-3.3-3.4l-8.3-0.1c-1.8,0-3.3,1.5-3.4,3.3
			l-0.1,9.6C631.8,154.3,633.3,155.8,635.1,155.8z"/>
		<path class="st6" d="M634.8,189.7l8.3,0.1c1.8,0,3.3-1.5,3.4-3.3l0.1-9.6c0-1.8-1.5-3.3-3.3-3.4l-8.3-0.1c-1.8,0-3.3,1.5-3.4,3.3
			l-0.1,9.6C631.5,188.2,633,189.7,634.8,189.7z"/>
		<path class="st6" d="M634.6,223.5l8.3,0.1c1.8,0,3.3-1.5,3.4-3.3l0.1-9.6c0-1.8-1.5-3.3-3.3-3.4l-8.3-0.1c-1.8,0-3.3,1.5-3.4,3.3
			l-0.1,9.6C631.2,222,632.7,223.5,634.6,223.5z"/>
		<path class="st6" d="M634.3,257.4l8.3,0.1c1.8,0,3.3-1.5,3.4-3.3l0.1-9.6c0-1.8-1.5-3.3-3.3-3.4l-8.3-0.1c-1.8,0-3.3,1.5-3.4,3.3
			L631,254C630.9,255.8,632.4,257.3,634.3,257.4z"/>
		<path class="st7" d="M91.1,71.5l-7,0l-0.1-10.4l-43,0.2c-3.8,0-6.8,2.9-6.8,6.3l0.3,56.8c0,3.5,3.1,6.3,6.8,6.3l43-0.2l-0.1-10.4
			l7,0c4,0,7.2-3,7.2-6.7l-0.2-35.4C98.3,74.4,95.1,71.4,91.1,71.5z"/>
		<path class="st8" d="M53.7,90.9l7.8,0c0.7,0,1.2-0.5,1.2-1l0-7.4c0-0.6-0.5-1-1.2-1l-7.8,0c-0.7,0-1.2,0.5-1.2,1l0,7.4
			C52.5,90.4,53.1,90.9,53.7,90.9z"/>
		<path class="st8" d="M53.9,110.6l7.8,0c0.7,0,1.2-0.5,1.2-1l0-7.4c0-0.6-0.5-1-1.2-1l-7.8,0c-0.7,0-1.2,0.5-1.2,1l0,7.4
			C52.6,110.1,53.2,110.6,53.9,110.6z"/>
		<path class="st7" d="M87.5,275l-7,0l-0.1-10.4l-43,0.2c-3.8,0-6.8,2.9-6.8,6.3l0.3,56.8c0,3.5,3.1,6.3,6.8,6.3l43-0.2l-0.1-10.4
			l7,0c4,0,7.2-3,7.2-6.7l-0.2-35.4C94.7,277.9,91.4,275,87.5,275z"/>
		<path class="st8" d="M50.1,294.4l7.8,0c0.7,0,1.2-0.5,1.2-1l0-7.4c0-0.6-0.5-1-1.2-1l-7.8,0c-0.7,0-1.2,0.5-1.2,1l0,7.4
			C48.9,294,49.4,294.4,50.1,294.4z"/>
		<path class="st8" d="M50.2,314.1l7.8,0c0.7,0,1.2-0.5,1.2-1l0-7.4c0-0.6-0.5-1-1.2-1l-7.8,0c-0.7,0-1.2,0.5-1.2,1l0,7.4
			C49,313.7,49.5,314.1,50.2,314.1z"/>
		<rect x="470.6" y="99.8" class="st9" width="82.2" height="51.2"/>
		<g class="st10">
			<g>
				<defs>
					<rect id="SVGID_1_" x="482.9" y="102.2" width="57" height="45.7"/>
				</defs>
				<clipPath id="SVGID_2_">
					<use xlink:href="#SVGID_1_"  style="overflow:visible;"/>
				</clipPath>
				<rect x="482.9" y="102.2" class="st11" width="57" height="45.7"/>
			</g>
		</g>
		<rect x="529.2" y="102.2" class="st1" width="10.8" height="45.7"/>
		<rect x="470.6" y="274.8" class="st9" width="82.2" height="51.2"/>
		<g class="st10">
			<g>
				<defs>
					<rect id="SVGID_3_" x="482.9" y="277.1" width="57" height="45.7"/>
				</defs>
				<clipPath id="SVGID_4_">
					<use xlink:href="#SVGID_3_"  style="overflow:visible;"/>
				</clipPath>
				<rect x="482.9" y="277.1" class="st12" width="57" height="45.7"/>
			</g>
		</g>
		<rect x="529.2" y="277.1" class="st1" width="10.8" height="45.7"/>
		<g class="st10">
			<g>
				<defs>
					<rect id="SVGID_5_" x="472.5" y="163.1" width="78.4" height="93.8"/>
				</defs>
				<clipPath id="SVGID_6_">
					<use xlink:href="#SVGID_5_"  style="overflow:visible;"/>
				</clipPath>
				<rect x="472.5" y="163.1" class="st13" width="78.4" height="93.8"/>
			</g>
		</g>
		<g class="st14">
			<g>
				<defs>
					<rect id="SVGID_7_" x="475.9" y="174.2" width="71.5" height="71.5"/>
				</defs>
				<clipPath id="SVGID_8_">
					<use xlink:href="#SVGID_7_"  style="overflow:visible;"/>
				</clipPath>
				<path class="st15" d="M524.7,245.8h-25.9c-12.5,0-22.8-10.3-22.8-22.8V197c0-12.5,10.3-22.8,22.8-22.8h25.9
					c12.5,0,22.8,10.3,22.8,22.8V223C547.5,235.5,537.2,245.8,524.7,245.8"/>
			</g>
		</g>
		<rect x="661.5" y="43.3" class="st9" width="47.9" height="47.9"/>
		<g class="st16">
			<g>
				<defs>
					<rect id="SVGID_9_" x="669.1" y="53.8" width="32.7" height="32.7"/>
				</defs>
				<clipPath id="SVGID_10_">
					<use xlink:href="#SVGID_9_"  style="overflow:visible;"/>
				</clipPath>
				<path class="st17" d="M701.8,70.2c0,9-7.3,16.3-16.3,16.3c-9,0-16.3-7.3-16.3-16.3s7.3-16.3,16.3-16.3
					C694.5,53.8,701.8,61.1,701.8,70.2"/>
			</g>
		</g>
		<rect x="661.5" y="308.8" class="st9" width="47.9" height="47.9"/>
		<g class="st16">
			<g>
				<defs>
					<rect id="SVGID_11_" x="669.1" y="319.3" width="32.7" height="32.7"/>
				</defs>
				<clipPath id="SVGID_12_">
					<use xlink:href="#SVGID_11_"  style="overflow:visible;"/>
				</clipPath>
				<path class="st18" d="M701.8,335.7c0,9-7.3,16.3-16.3,16.3c-9,0-16.3-7.3-16.3-16.3s7.3-16.3,16.3-16.3
					C694.5,319.3,701.8,326.7,701.8,335.7"/>
			</g>
		</g>
		<rect x="393.5" y="69" class="st19" width="43.1" height="23.2"/>
		<g class="st14">
			<g>
				<defs>
					<rect id="SVGID_13_" x="397.2" y="72.9" width="35.8" height="12.6"/>
				</defs>
				<clipPath id="SVGID_14_">
					<use xlink:href="#SVGID_13_"  style="overflow:visible;"/>
				</clipPath>
				<path class="st20" d="M432.4,76.2l0.1,5.4c0,1.6-1.1,2.8-2.4,2.9L400.4,85c-1.4,0-2.5-1.2-2.5-2.8l-0.1-5.4
					c0-1.6,1.1-2.8,2.4-2.9l29.6-0.5C431.2,73.4,432.3,74.6,432.4,76.2z"/>
				<path class="st21" d="M427.3,76.3l0.1,5.4c0,1.6-1.1,2.8-2.4,2.9l-19.6,0.3c-1.4,0-2.5-1.2-2.5-2.8l-0.1-5.4
					c0-1.6,1.1-2.8,2.4-2.9l19.6-0.3C426.2,73.5,427.3,74.7,427.3,76.3"/>
				<g class="st22">
					<g>
						<defs>
							<rect id="SVGID_15_" x="397.9" y="76.8" width="34.6" height="4.7"/>
						</defs>
						<clipPath id="SVGID_16_">
							<use xlink:href="#SVGID_15_"  style="overflow:visible;"/>
						</clipPath>
						<path class="st23" d="M428.7,76.8c-0.9,0-1.7,0.9-1.7,1.9c0,1.1,0.8,1.9,1.7,1.9c0.6,0,1.1-0.4,1.4-1l2.2,0.8l-0.1-3.6l-2,1.1
							C430,77.3,429.4,76.8,428.7,76.8"/>
						<path class="st23" d="M401.5,77.7c0.9,0,1.7,0.8,1.7,1.9c0,1.1-0.7,1.9-1.6,2c-0.6,0-1.2-0.3-1.5-0.9l-2.2,0.9l0-3.6l2,1
							C400.1,78.2,400.7,77.7,401.5,77.7"/>
					</g>
				</g>
			</g>
		</g>
		<rect x="393.5" y="93.9" class="st19" width="43.1" height="23.2"/>
		<g class="st14">
			<g>
				<defs>
					<rect id="SVGID_17_" x="397.2" y="97.8" width="35.8" height="12.6"/>
				</defs>
				<clipPath id="SVGID_18_">
					<use xlink:href="#SVGID_17_"  style="overflow:visible;"/>
				</clipPath>
				<path class="st24" d="M432.4,101.1l0.1,5.4c0,1.6-1.1,2.8-2.4,2.9l-29.6,0.5c-1.4,0-2.5-1.2-2.5-2.8l-0.1-5.4
					c0-1.6,1.1-2.8,2.4-2.9l29.6-0.5C431.2,98.3,432.3,99.5,432.4,101.1z"/>
				<path class="st25" d="M427.3,101.2l0.1,5.4c0,1.6-1.1,2.8-2.4,2.9l-19.6,0.3c-1.4,0-2.5-1.2-2.5-2.8l-0.1-5.4
					c0-1.6,1.1-2.8,2.4-2.9l19.6-0.3C426.2,98.4,427.3,99.6,427.3,101.2"/>
				<g class="st26">
					<g>
						<defs>
							<rect id="SVGID_19_" x="397.9" y="101.7" width="34.6" height="4.7"/>
						</defs>
						<clipPath id="SVGID_20_">
							<use xlink:href="#SVGID_19_"  style="overflow:visible;"/>
						</clipPath>
						<path class="st27" d="M428.7,101.7c-0.9,0-1.7,0.9-1.7,1.9c0,1.1,0.8,1.9,1.7,1.9c0.6,0,1.1-0.4,1.4-1l2.2,0.8l-0.1-3.6
							l-2,1.1C430,102.2,429.4,101.7,428.7,101.7"/>
						<path class="st27" d="M401.5,102.6c0.9,0,1.7,0.8,1.7,1.9c0,1.1-0.7,1.9-1.6,2c-0.6,0-1.2-0.3-1.5-0.9l-2.2,0.9l0-3.6l2,1.1
							C400.1,103.1,400.7,102.6,401.5,102.6"/>
					</g>
				</g>
			</g>
		</g>
		<rect x="393.5" y="118.8" class="st19" width="43.1" height="23.2"/>
		<g class="st14">
			<g>
				<defs>
					<rect id="SVGID_21_" x="397.2" y="122.7" width="35.8" height="12.6"/>
				</defs>
				<clipPath id="SVGID_22_">
					<use xlink:href="#SVGID_21_"  style="overflow:visible;"/>
				</clipPath>
				<path class="st28" d="M432.4,126l0.1,5.4c0,1.6-1.1,2.8-2.4,2.9l-29.6,0.5c-1.4,0-2.5-1.2-2.5-2.8l-0.1-5.4
					c0-1.6,1.1-2.8,2.4-2.9l29.6-0.5C431.2,123.2,432.3,124.4,432.4,126z"/>
				<path class="st29" d="M427.3,126.1l0.1,5.4c0,1.6-1.1,2.8-2.4,2.9l-19.6,0.3c-1.4,0-2.5-1.2-2.5-2.8l-0.1-5.4
					c0-1.6,1.1-2.8,2.4-2.9l19.6-0.3C426.2,123.3,427.3,124.5,427.3,126.1"/>
				<g class="st30">
					<g>
						<defs>
							<rect id="SVGID_23_" x="397.9" y="126.6" width="34.6" height="4.7"/>
						</defs>
						<clipPath id="SVGID_24_">
							<use xlink:href="#SVGID_23_"  style="overflow:visible;"/>
						</clipPath>
						<path class="st31" d="M428.7,126.6c-0.9,0-1.7,0.9-1.7,1.9c0,1.1,0.8,1.9,1.7,1.9c0.6,0,1.1-0.4,1.4-1l2.2,0.8l-0.1-3.6
							l-2,1.1C430,127.1,429.4,126.6,428.7,126.6"/>
						<path class="st31" d="M401.5,127.5c0.9,0,1.7,0.8,1.7,1.9c0,1.1-0.7,1.9-1.6,2c-0.6,0-1.2-0.3-1.5-0.9l-2.2,0.9l0-3.6l2,1.1
							C400.1,128,400.7,127.5,401.5,127.5"/>
					</g>
				</g>
			</g>
		</g>
		<rect x="393.5" y="143.7" class="st19" width="43.1" height="23.2"/>
		<g class="st14">
			<g>
				<defs>
					<rect id="SVGID_25_" x="397.2" y="147.6" width="35.8" height="12.6"/>
				</defs>
				<clipPath id="SVGID_26_">
					<use xlink:href="#SVGID_25_"  style="overflow:visible;"/>
				</clipPath>
				<path class="st32" d="M432.4,150.9l0.1,5.4c0,1.6-1.1,2.8-2.4,2.9l-29.6,0.5c-1.4,0-2.5-1.2-2.5-2.8l-0.1-5.4
					c0-1.6,1.1-2.8,2.4-2.9l29.6-0.5C431.2,148.1,432.3,149.3,432.4,150.9z"/>
				<path class="st33" d="M427.3,151l0.1,5.4c0,1.6-1.1,2.8-2.4,2.9l-19.6,0.3c-1.4,0-2.5-1.2-2.5-2.8l-0.1-5.4
					c0-1.6,1.1-2.8,2.4-2.9l19.6-0.3C426.2,148.2,427.3,149.4,427.3,151"/>
				<g class="st34">
					<g>
						<defs>
							<rect id="SVGID_27_" x="397.9" y="151.5" width="34.6" height="4.7"/>
						</defs>
						<clipPath id="SVGID_28_">
							<use xlink:href="#SVGID_27_"  style="overflow:visible;"/>
						</clipPath>
						<path class="st35" d="M428.7,151.5c-0.9,0-1.7,0.9-1.7,1.9c0,1.1,0.8,1.9,1.7,1.9c0.6,0,1.1-0.4,1.4-1l2.2,0.8l-0.1-3.6
							l-2,1.1C430,152,429.4,151.5,428.7,151.5"/>
						<path class="st35" d="M401.5,152.4c0.9,0,1.7,0.8,1.7,1.9c0,1.1-0.7,1.9-1.6,2c-0.6,0-1.2-0.3-1.5-0.9l-2.2,0.9l0-3.6l2,1.1
							C400.1,152.9,400.7,152.4,401.5,152.4"/>
					</g>
				</g>
			</g>
		</g>
		<rect x="393.5" y="168.6" class="st19" width="43.1" height="23.2"/>
		<g class="st14">
			<g>
				<defs>
					<rect id="SVGID_29_" x="397.2" y="172.5" width="35.8" height="12.6"/>
				</defs>
				<clipPath id="SVGID_30_">
					<use xlink:href="#SVGID_29_"  style="overflow:visible;"/>
				</clipPath>
				<path class="st36" d="M432.4,175.8l0.1,5.4c0,1.6-1.1,2.8-2.4,2.9l-29.6,0.5c-1.4,0-2.5-1.2-2.5-2.8l-0.1-5.4
					c0-1.6,1.1-2.8,2.4-2.9l29.6-0.5C431.2,173,432.3,174.2,432.4,175.8z"/>
				<path class="st37" d="M427.3,175.9l0.1,5.4c0,1.6-1.1,2.8-2.4,2.9l-19.6,0.3c-1.4,0-2.5-1.2-2.5-2.8l-0.1-5.4
					c0-1.6,1.1-2.8,2.4-2.9l19.6-0.3C426.2,173.1,427.3,174.3,427.3,175.9"/>
				<g class="st38">
					<g>
						<defs>
							<rect id="SVGID_31_" x="397.9" y="176.5" width="34.6" height="4.7"/>
						</defs>
						<clipPath id="SVGID_32_">
							<use xlink:href="#SVGID_31_"  style="overflow:visible;"/>
						</clipPath>
						<path class="st39" d="M428.7,176.5c-0.9,0-1.7,0.9-1.7,1.9c0,1.1,0.8,1.9,1.7,1.9c0.6,0,1.1-0.4,1.4-1l2.2,0.8l-0.1-3.6
							l-2,1.1C430,176.9,429.4,176.4,428.7,176.5"/>
						<path class="st39" d="M401.5,177.3c0.9,0,1.7,0.8,1.7,1.9c0,1.1-0.7,1.9-1.6,2c-0.6,0-1.2-0.3-1.5-0.9l-2.2,0.9l0-3.6l2,1
							C400.1,177.9,400.7,177.3,401.5,177.3"/>
					</g>
				</g>
			</g>
		</g>
		<rect x="393.5" y="210" class="st19" width="43.1" height="23.2"/>
		<g class="st14">
			<g>
				<defs>
					<rect id="SVGID_33_" x="397.2" y="213.8" width="35.8" height="12.6"/>
				</defs>
				<clipPath id="SVGID_34_">
					<use xlink:href="#SVGID_33_"  style="overflow:visible;"/>
				</clipPath>
				<path class="st40" d="M432.4,217.2l0.1,5.4c0,1.6-1.1,2.8-2.4,2.9l-29.6,0.5c-1.4,0-2.5-1.2-2.5-2.8l-0.1-5.4
					c0-1.6,1.1-2.8,2.4-2.9l29.6-0.5C431.2,214.4,432.3,215.6,432.4,217.2z"/>
				<path class="st41" d="M427.3,217.2l0.1,5.4c0,1.6-1.1,2.8-2.4,2.9l-19.6,0.3c-1.4,0-2.5-1.2-2.5-2.8l-0.1-5.4
					c0-1.6,1.1-2.8,2.4-2.9l19.6-0.3C426.2,214.4,427.3,215.7,427.3,217.2"/>
				<g class="st42">
					<g>
						<defs>
							<rect id="SVGID_35_" x="397.9" y="217.8" width="34.6" height="4.7"/>
						</defs>
						<clipPath id="SVGID_36_">
							<use xlink:href="#SVGID_35_"  style="overflow:visible;"/>
						</clipPath>
						<path class="st43" d="M428.7,217.8c-0.9,0-1.7,0.9-1.7,1.9c0,1.1,0.8,1.9,1.7,1.9c0.6,0,1.1-0.4,1.4-1l2.2,0.8l-0.1-3.6
							l-2,1.1C430,218.3,429.4,217.8,428.7,217.8"/>
						<path class="st43" d="M401.5,218.7c0.9,0,1.7,0.8,1.7,1.9c0,1.1-0.7,1.9-1.6,2c-0.6,0-1.2-0.3-1.5-0.9l-2.2,0.9l0-3.6l2,1.1
							C400.1,219.2,400.7,218.7,401.5,218.7"/>
					</g>
				</g>
			</g>
		</g>
		<rect x="393.5" y="234.9" class="st19" width="43.1" height="23.2"/>
		<g class="st14">
			<g>
				<defs>
					<rect id="SVGID_37_" x="397.2" y="238.7" width="35.8" height="12.6"/>
				</defs>
				<clipPath id="SVGID_38_">
					<use xlink:href="#SVGID_37_"  style="overflow:visible;"/>
				</clipPath>
				<path class="st44" d="M432.4,242.1l0.1,5.4c0,1.6-1.1,2.8-2.4,2.9l-29.6,0.5c-1.4,0-2.5-1.2-2.5-2.8l-0.1-5.4
					c0-1.6,1.1-2.8,2.4-2.9l29.6-0.5C431.2,239.3,432.3,240.5,432.4,242.1z"/>
				<path class="st45" d="M427.3,242.1l0.1,5.4c0,1.6-1.1,2.8-2.4,2.9l-19.6,0.3c-1.4,0-2.5-1.2-2.5-2.8l-0.1-5.4
					c0-1.6,1.1-2.8,2.4-2.9l19.6-0.3C426.2,239.4,427.3,240.6,427.3,242.1"/>
				<g class="st46">
					<g>
						<defs>
							<rect id="SVGID_39_" x="397.9" y="242.7" width="34.6" height="4.7"/>
						</defs>
						<clipPath id="SVGID_40_">
							<use xlink:href="#SVGID_39_"  style="overflow:visible;"/>
						</clipPath>
						<path class="st47" d="M428.7,242.7c-0.9,0-1.7,0.9-1.7,1.9c0,1.1,0.8,1.9,1.7,1.9c0.6,0,1.1-0.4,1.4-1l2.2,0.8l-0.1-3.6
							l-2,1.1C430,243.2,429.4,242.7,428.7,242.7"/>
						<path class="st47" d="M401.5,243.6c0.9,0,1.7,0.8,1.7,1.9c0,1.1-0.7,1.9-1.6,2c-0.6,0-1.2-0.3-1.5-0.9l-2.2,0.9l0-3.6l2,1
							C400.1,244.1,400.7,243.6,401.5,243.6"/>
					</g>
				</g>
			</g>
		</g>
		<rect x="393.5" y="259.8" class="st19" width="43.1" height="23.2"/>
		<g class="st14">
			<g>
				<defs>
					<rect id="SVGID_41_" x="397.2" y="263.6" width="35.8" height="12.6"/>
				</defs>
				<clipPath id="SVGID_42_">
					<use xlink:href="#SVGID_41_"  style="overflow:visible;"/>
				</clipPath>
				<path class="st48" d="M432.4,267l0.1,5.4c0,1.6-1.1,2.8-2.4,2.9l-29.6,0.5c-1.4,0-2.5-1.2-2.5-2.8l-0.1-5.4
					c0-1.6,1.1-2.8,2.4-2.9l29.6-0.5C431.2,264.2,432.3,265.4,432.4,267z"/>
				<path class="st49" d="M427.3,267.1l0.1,5.4c0,1.6-1.1,2.8-2.4,2.9l-19.6,0.3c-1.4,0-2.5-1.2-2.5-2.8l-0.1-5.4
					c0-1.6,1.1-2.8,2.4-2.9l19.6-0.3C426.2,264.3,427.3,265.5,427.3,267.1"/>
				<g class="st50">
					<g>
						<defs>
							<rect id="SVGID_43_" x="397.9" y="267.6" width="34.6" height="4.7"/>
						</defs>
						<clipPath id="SVGID_44_">
							<use xlink:href="#SVGID_43_"  style="overflow:visible;"/>
						</clipPath>
						<path class="st51" d="M428.7,267.6c-0.9,0-1.7,0.9-1.7,1.9c0,1.1,0.8,1.9,1.7,1.9c0.6,0,1.1-0.4,1.4-1l2.2,0.8l-0.1-3.6
							l-2,1.1C430,268.1,429.4,267.6,428.7,267.6"/>
						<path class="st51" d="M401.5,268.5c0.9,0,1.7,0.8,1.7,1.9c0,1.1-0.7,1.9-1.6,2c-0.6,0-1.2-0.3-1.5-0.9l-2.2,0.9l0-3.6l2,1
							C400.1,269,400.7,268.5,401.5,268.5"/>
					</g>
				</g>
			</g>
		</g>
		<rect x="393.5" y="284.7" class="st19" width="43.1" height="23.2"/>
		<g class="st14">
			<g>
				<defs>
					<rect id="SVGID_45_" x="397.2" y="288.5" width="35.8" height="12.6"/>
				</defs>
				<clipPath id="SVGID_46_">
					<use xlink:href="#SVGID_45_"  style="overflow:visible;"/>
				</clipPath>
				<path class="st52" d="M432.4,291.9l0.1,5.4c0,1.6-1.1,2.8-2.4,2.9l-29.6,0.5c-1.4,0-2.5-1.2-2.5-2.8l-0.1-5.4
					c0-1.6,1.1-2.8,2.4-2.9l29.6-0.5C431.2,289.1,432.3,290.3,432.4,291.9z"/>
				<path class="st53" d="M427.3,292l0.1,5.4c0,1.6-1.1,2.8-2.4,2.9l-19.6,0.3c-1.4,0-2.5-1.2-2.5-2.8l-0.1-5.4
					c0-1.6,1.1-2.8,2.4-2.9l19.6-0.3C426.2,289.2,427.3,290.4,427.3,292"/>
				<g class="st54">
					<g>
						<defs>
							<rect id="SVGID_47_" x="397.9" y="292.5" width="34.6" height="4.7"/>
						</defs>
						<clipPath id="SVGID_48_">
							<use xlink:href="#SVGID_47_"  style="overflow:visible;"/>
						</clipPath>
						<path class="st55" d="M428.7,292.5c-0.9,0-1.7,0.9-1.7,1.9c0,1.1,0.8,1.9,1.7,1.9c0.6,0,1.1-0.4,1.4-1l2.2,0.8l-0.1-3.6
							l-2,1.1C430,293,429.4,292.5,428.7,292.5"/>
						<path class="st55" d="M401.5,293.4c0.9,0,1.7,0.8,1.7,1.9c0,1.1-0.7,1.9-1.6,2c-0.6,0-1.2-0.3-1.5-0.9l-2.2,0.9l0-3.6l2,1.1
							C400.1,293.9,400.7,293.4,401.5,293.4"/>
					</g>
				</g>
			</g>
		</g>
		<rect x="393.5" y="309.6" class="st19" width="43.1" height="23.2"/>
		<g class="st14">
			<g>
				<defs>
					<rect id="SVGID_49_" x="397.2" y="313.5" width="35.8" height="12.6"/>
				</defs>
				<clipPath id="SVGID_50_">
					<use xlink:href="#SVGID_49_"  style="overflow:visible;"/>
				</clipPath>
				<path class="st56" d="M432.4,316.8l0.1,5.4c0,1.6-1.1,2.8-2.4,2.9l-29.6,0.5c-1.4,0-2.5-1.2-2.5-2.8l-0.1-5.4
					c0-1.6,1.1-2.8,2.4-2.9l29.6-0.5C431.2,314,432.3,315.2,432.4,316.8z"/>
				<path class="st57" d="M427.3,316.9l0.1,5.4c0,1.6-1.1,2.8-2.4,2.9l-19.6,0.3c-1.4,0-2.5-1.2-2.5-2.8l-0.1-5.4
					c0-1.6,1.1-2.8,2.4-2.9l19.6-0.3C426.2,314.1,427.3,315.3,427.3,316.9"/>
				<g class="st58">
					<g>
						<defs>
							<rect id="SVGID_51_" x="397.9" y="317.4" width="34.6" height="4.7"/>
						</defs>
						<clipPath id="SVGID_52_">
							<use xlink:href="#SVGID_51_"  style="overflow:visible;"/>
						</clipPath>
						<path class="st59" d="M428.7,317.4c-0.9,0-1.7,0.9-1.7,1.9c0,1.1,0.8,1.9,1.7,1.9c0.6,0,1.1-0.4,1.4-1l2.2,0.8l-0.1-3.6
							l-2,1.1C430,317.9,429.4,317.4,428.7,317.4"/>
						<path class="st59" d="M401.5,318.3c0.9,0,1.7,0.8,1.7,1.9c0,1.1-0.7,1.9-1.6,2c-0.6,0-1.2-0.3-1.5-0.9l-2.2,0.9l0-3.6l2,1.1
							C400.1,318.8,400.7,318.3,401.5,318.3"/>
					</g>
				</g>
			</g>
		</g>
		<g class="st14">
			<g>
				<defs>
					<rect id="SVGID_53_" x="180.1" y="93.5" width="57.4" height="17.1"/>
				</defs>
				<clipPath id="SVGID_54_">
					<use xlink:href="#SVGID_53_"  style="overflow:visible;"/>
				</clipPath>
				<path class="st60" d="M180.9,105.9l0-7.5c0-2.2,1.8-3.9,4-3.9l47.8-0.1c2.2,0,4,1.7,4,3.9l0,7.5c0,2.2-1.8,3.9-4,3.9l-47.8,0.1
					C182.7,109.8,180.9,108,180.9,105.9z"/>
				<path class="st61" d="M189,105.8l0-7.5c0-2.2,1.8-3.9,4-3.9l31.6-0.1c2.2,0,4,1.7,4,3.9l0,7.5c0,2.2-1.8,3.9-4,3.9l-31.6,0.1
					C190.8,109.8,189,108,189,105.8"/>
				<g class="st62">
					<g>
						<defs>
							<rect id="SVGID_55_" x="180.9" y="99" width="55.8" height="6"/>
						</defs>
						<clipPath id="SVGID_56_">
							<use xlink:href="#SVGID_55_"  style="overflow:visible;"/>
						</clipPath>
						<path class="st63" d="M186.8,105c1.5,0,2.7-1.2,2.7-2.7c0-1.5-1.2-2.7-2.7-2.7c-1,0-1.9,0.5-2.3,1.3l-3.6-1.1l0.2,5l3.2-1.6
							C184.7,104.3,185.7,105,186.8,105"/>
						<path class="st63" d="M230.8,104.4c-1.5,0-2.7-1.2-2.7-2.6c0-1.5,1.2-2.7,2.7-2.7c1,0,1.9,0.5,2.3,1.3l3.6-1.2l-0.1,5
							l-3.3-1.5C232.9,103.6,231.9,104.4,230.8,104.4"/>
					</g>
				</g>
			</g>
		</g>
		<rect x="292.1" y="314" class="st19" width="43.1" height="23.2"/>
		<g class="st14">
			<g>
				<defs>
					<rect id="SVGID_57_" x="295.8" y="317.8" width="35.8" height="12.6"/>
				</defs>
				<clipPath id="SVGID_58_">
					<use xlink:href="#SVGID_57_"  style="overflow:visible;"/>
				</clipPath>
				<path class="st64" d="M331,321.1l0.1,5.4c0,1.6-1.1,2.8-2.4,2.9l-29.6,0.5c-1.4,0-2.5-1.2-2.5-2.8l-0.1-5.4
					c0-1.6,1.1-2.8,2.4-2.9l29.6-0.5C329.8,318.3,330.9,319.6,331,321.1z"/>
				<path class="st65" d="M325.9,321.2l0.1,5.4c0,1.6-1.1,2.8-2.4,2.9l-19.6,0.3c-1.4,0-2.5-1.2-2.5-2.8l-0.1-5.4
					c0-1.6,1.1-2.8,2.4-2.9l19.6-0.3C324.8,318.4,325.9,319.7,325.9,321.2"/>
				<g class="st66">
					<g>
						<defs>
							<rect id="SVGID_59_" x="296.5" y="321.8" width="34.6" height="4.7"/>
						</defs>
						<clipPath id="SVGID_60_">
							<use xlink:href="#SVGID_59_"  style="overflow:visible;"/>
						</clipPath>
						<path class="st67" d="M327.3,321.8c-0.9,0-1.7,0.9-1.7,1.9s0.8,1.9,1.7,1.9c0.6,0,1.1-0.4,1.4-1l2.2,0.8l-0.1-3.6l-2,1.1
							C328.6,322.3,328,321.8,327.3,321.8"/>
						<path class="st67" d="M300.1,322.6c0.9,0,1.7,0.8,1.7,1.9c0,1.1-0.7,1.9-1.6,2c-0.6,0-1.2-0.3-1.5-0.9l-2.2,0.9l0-3.6l2,1
							C298.8,323.2,299.3,322.7,300.1,322.6"/>
					</g>
				</g>
			</g>
		</g>
		<rect x="296.4" y="167.2" class="st19" width="43.1" height="23.2"/>
		<g class="st14">
			<g>
				<defs>
					<rect id="SVGID_61_" x="300.1" y="171.1" width="35.8" height="12.6"/>
				</defs>
				<clipPath id="SVGID_62_">
					<use xlink:href="#SVGID_61_"  style="overflow:visible;"/>
				</clipPath>
				<path class="st68" d="M335.2,174.4l0.1,5.4c0,1.6-1.1,2.8-2.4,2.9l-29.6,0.5c-1.4,0-2.5-1.2-2.5-2.8l-0.1-5.4
					c0-1.6,1.1-2.8,2.4-2.9l29.6-0.5C334.1,171.6,335.2,172.8,335.2,174.4z"/>
				<path class="st69" d="M330.2,174.5l0.1,5.4c0,1.6-1.1,2.8-2.4,2.9l-19.6,0.3c-1.4,0-2.5-1.2-2.5-2.8l-0.1-5.4
					c0-1.6,1.1-2.8,2.4-2.9l19.6-0.3C329.1,171.7,330.2,172.9,330.2,174.5"/>
				<g class="st70">
					<g>
						<defs>
							<rect id="SVGID_63_" x="300.7" y="175" width="34.6" height="4.7"/>
						</defs>
						<clipPath id="SVGID_64_">
							<use xlink:href="#SVGID_63_"  style="overflow:visible;"/>
						</clipPath>
						<path class="st71" d="M331.6,175c-0.9,0-1.7,0.9-1.7,1.9c0,1.1,0.8,1.9,1.7,1.9c0.6,0,1.1-0.4,1.4-1l2.2,0.8l-0.1-3.6l-2,1.1
							C332.9,175.5,332.3,175,331.6,175"/>
						<path class="st71" d="M304.3,175.9c0.9,0,1.7,0.8,1.7,1.9c0,1.1-0.7,1.9-1.6,2c-0.6,0-1.2-0.3-1.5-0.9l-2.2,0.9l0-3.6l2,1.1
							C303,176.4,303.6,175.9,304.3,175.9"/>
					</g>
				</g>
			</g>
		</g>
		<rect x="292.1" y="54.7" class="st19" width="43.1" height="23.2"/>
		<g class="st14">
			<g>
				<defs>
					<rect id="SVGID_65_" x="295.8" y="58.6" width="35.8" height="12.6"/>
				</defs>
				<clipPath id="SVGID_66_">
					<use xlink:href="#SVGID_65_"  style="overflow:visible;"/>
				</clipPath>
				<path class="st72" d="M331,61.9l0.1,5.4c0,1.6-1.1,2.8-2.4,2.9L299,70.7c-1.4,0-2.5-1.2-2.5-2.8l-0.1-5.4c0-1.6,1.1-2.8,2.4-2.9
					l29.6-0.5C329.8,59.1,330.9,60.3,331,61.9z"/>
				<path class="st73" d="M325.9,62l0.1,5.4c0,1.6-1.1,2.8-2.4,2.9L304,70.6c-1.4,0-2.5-1.2-2.5-2.8l-0.1-5.4c0-1.6,1.1-2.8,2.4-2.9
					l19.6-0.3C324.8,59.2,325.9,60.4,325.9,62"/>
				<g class="st74">
					<g>
						<defs>
							<rect id="SVGID_67_" x="296.5" y="62.5" width="34.6" height="4.7"/>
						</defs>
						<clipPath id="SVGID_68_">
							<use xlink:href="#SVGID_67_"  style="overflow:visible;"/>
						</clipPath>
						<path class="st75" d="M327.3,62.5c-0.9,0-1.7,0.9-1.7,1.9c0,1.1,0.8,1.9,1.7,1.9c0.6,0,1.1-0.4,1.4-1l2.2,0.8l-0.1-3.6l-2,1.1
							C328.6,63,328,62.5,327.3,62.5"/>
						<path class="st75" d="M300.1,63.4c0.9,0,1.7,0.8,1.7,1.9c0,1.1-0.7,1.9-1.6,2c-0.6,0-1.2-0.3-1.5-0.9l-2.2,0.9l0-3.6l2,1.1
							C298.8,63.9,299.3,63.4,300.1,63.4"/>
					</g>
				</g>
			</g>
		</g>
		<rect x="292.1" y="79.6" class="st19" width="43.1" height="23.2"/>
		<g class="st14">
			<g>
				<defs>
					<rect id="SVGID_69_" x="295.8" y="83.5" width="35.8" height="12.6"/>
				</defs>
				<clipPath id="SVGID_70_">
					<use xlink:href="#SVGID_69_"  style="overflow:visible;"/>
				</clipPath>
				<path class="st76" d="M331,86.8l0.1,5.4c0,1.6-1.1,2.8-2.4,2.9L299,95.6c-1.4,0-2.5-1.2-2.5-2.8l-0.1-5.4c0-1.6,1.1-2.8,2.4-2.9
					l29.6-0.5C329.8,84,330.9,85.2,331,86.8z"/>
				<path class="st77" d="M325.9,86.9l0.1,5.4c0,1.6-1.1,2.8-2.4,2.9L304,95.5c-1.4,0-2.5-1.2-2.5-2.8l-0.1-5.4
					c0-1.6,1.1-2.8,2.4-2.9l19.6-0.3C324.8,84.1,325.9,85.3,325.9,86.9"/>
				<g class="st78">
					<g>
						<defs>
							<rect id="SVGID_71_" x="296.5" y="87.4" width="34.6" height="4.7"/>
						</defs>
						<clipPath id="SVGID_72_">
							<use xlink:href="#SVGID_71_"  style="overflow:visible;"/>
						</clipPath>
						<path class="st79" d="M327.3,87.4c-0.9,0-1.7,0.9-1.7,1.9c0,1.1,0.8,1.9,1.7,1.9c0.6,0,1.1-0.4,1.4-1l2.2,0.8l-0.1-3.6l-2,1.1
							C328.6,87.9,328,87.4,327.3,87.4"/>
						<path class="st79" d="M300.1,88.3c0.9,0,1.7,0.8,1.7,1.9c0,1.1-0.7,1.9-1.6,2c-0.6,0-1.2-0.3-1.5-0.9l-2.2,0.9l0-3.6l2,1
							C298.8,88.8,299.3,88.3,300.1,88.3"/>
					</g>
				</g>
			</g>
		</g>
		<rect x="292.1" y="201.9" class="st19" width="43.1" height="23.2"/>
		<g class="st14">
			<g>
				<defs>
					<rect id="SVGID_73_" x="295.8" y="205.7" width="35.8" height="12.6"/>
				</defs>
				<clipPath id="SVGID_74_">
					<use xlink:href="#SVGID_73_"  style="overflow:visible;"/>
				</clipPath>
				<path class="st80" d="M331,209.1l0.1,5.4c0,1.6-1.1,2.8-2.4,2.9l-29.6,0.5c-1.4,0-2.5-1.2-2.5-2.8l-0.1-5.4
					c0-1.6,1.1-2.8,2.4-2.9l29.6-0.5C329.8,206.3,330.9,207.5,331,209.1z"/>
				<path class="st81" d="M325.9,209.1l0.1,5.4c0,1.6-1.1,2.8-2.4,2.9l-19.6,0.3c-1.4,0-2.5-1.2-2.5-2.8l-0.1-5.4
					c0-1.6,1.1-2.8,2.4-2.9l19.6-0.3C324.8,206.4,325.9,207.6,325.9,209.1"/>
				<g class="st82">
					<g>
						<defs>
							<rect id="SVGID_75_" x="296.5" y="209.7" width="34.6" height="4.7"/>
						</defs>
						<clipPath id="SVGID_76_">
							<use xlink:href="#SVGID_75_"  style="overflow:visible;"/>
						</clipPath>
						<path class="st83" d="M327.3,209.7c-0.9,0-1.7,0.9-1.7,1.9s0.8,1.9,1.7,1.9c0.6,0,1.1-0.4,1.4-1l2.2,0.8l-0.1-3.6l-2,1.1
							C328.6,210.2,328,209.7,327.3,209.7"/>
						<path class="st83" d="M300.1,210.6c0.9,0,1.7,0.8,1.7,1.9c0,1.1-0.7,1.9-1.6,2c-0.6,0-1.2-0.3-1.5-0.9l-2.2,0.9l0-3.6l2,1
							C298.8,211.1,299.3,210.6,300.1,210.6"/>
					</g>
				</g>
			</g>
		</g>
		<rect x="292.1" y="226.8" class="st19" width="43.1" height="23.2"/>
		<g class="st14">
			<g>
				<defs>
					<rect id="SVGID_77_" x="295.8" y="230.6" width="35.8" height="12.6"/>
				</defs>
				<clipPath id="SVGID_78_">
					<use xlink:href="#SVGID_77_"  style="overflow:visible;"/>
				</clipPath>
				<path class="st84" d="M331,234l0.1,5.4c0,1.6-1.1,2.8-2.4,2.9l-29.6,0.5c-1.4,0-2.5-1.2-2.5-2.8l-0.1-5.4c0-1.6,1.1-2.8,2.4-2.9
					l29.6-0.5C329.8,231.2,330.9,232.4,331,234z"/>
				<path class="st85" d="M325.9,234.1l0.1,5.4c0,1.6-1.1,2.8-2.4,2.9l-19.6,0.3c-1.4,0-2.5-1.2-2.5-2.8l-0.1-5.4
					c0-1.6,1.1-2.8,2.4-2.9l19.6-0.3C324.8,231.3,325.9,232.5,325.9,234.1"/>
				<g class="st86">
					<g>
						<defs>
							<rect id="SVGID_79_" x="296.5" y="234.6" width="34.6" height="4.7"/>
						</defs>
						<clipPath id="SVGID_80_">
							<use xlink:href="#SVGID_79_"  style="overflow:visible;"/>
						</clipPath>
						<path class="st87" d="M327.3,234.6c-0.9,0-1.7,0.9-1.7,1.9c0,1.1,0.8,1.9,1.7,1.9c0.6,0,1.1-0.4,1.4-1l2.2,0.8l-0.1-3.6
							l-2,1.1C328.6,235.1,328,234.6,327.3,234.6"/>
						<path class="st87" d="M300.1,235.5c0.9,0,1.7,0.8,1.7,1.9c0,1.1-0.7,1.9-1.6,2c-0.6,0-1.2-0.3-1.5-0.9l-2.2,0.9l0-3.6l2,1.1
							C298.8,236,299.3,235.5,300.1,235.5"/>
					</g>
				</g>
			</g>
		</g>
		<rect x="188.9" y="114.1" class="st19" width="43.1" height="23.2"/>
		<g class="st14">
			<g>
				<defs>
					<rect id="SVGID_81_" x="192.6" y="117.9" width="35.8" height="12.6"/>
				</defs>
				<clipPath id="SVGID_82_">
					<use xlink:href="#SVGID_81_"  style="overflow:visible;"/>
				</clipPath>
				<path class="st88" d="M227.8,121.3l0.1,5.4c0,1.6-1.1,2.8-2.4,2.9l-29.6,0.5c-1.4,0-2.5-1.2-2.5-2.8l-0.1-5.4
					c0-1.6,1.1-2.8,2.4-2.9l29.6-0.5C226.6,118.5,227.7,119.7,227.8,121.3z"/>
				<path class="st89" d="M222.7,121.3l0.1,5.4c0,1.6-1.1,2.8-2.4,2.9l-19.6,0.3c-1.4,0-2.5-1.2-2.5-2.8l-0.1-5.4
					c0-1.6,1.1-2.8,2.4-2.9l19.6-0.3C221.6,118.6,222.7,119.8,222.7,121.3"/>
				<g class="st90">
					<g>
						<defs>
							<rect id="SVGID_83_" x="193.3" y="121.9" width="34.6" height="4.7"/>
						</defs>
						<clipPath id="SVGID_84_">
							<use xlink:href="#SVGID_83_"  style="overflow:visible;"/>
						</clipPath>
						<path class="st91" d="M224.1,121.9c-0.9,0-1.7,0.9-1.7,1.9c0,1.1,0.8,1.9,1.7,1.9c0.6,0,1.1-0.4,1.4-1l2.2,0.8l-0.1-3.6
							l-2,1.1C225.4,122.4,224.8,121.9,224.1,121.9"/>
						<path class="st91" d="M196.8,122.8c0.9,0,1.7,0.8,1.7,1.9c0,1.1-0.7,1.9-1.6,2c-0.6,0-1.2-0.3-1.5-0.9l-2.2,0.9l0-3.6l2,1
							C195.5,123.3,196.1,122.8,196.8,122.8"/>
					</g>
				</g>
			</g>
		</g>
		<rect x="188.9" y="139" class="st19" width="43.1" height="23.2"/>
		<g class="st14">
			<g>
				<defs>
					<rect id="SVGID_85_" x="192.6" y="142.8" width="35.8" height="12.6"/>
				</defs>
				<clipPath id="SVGID_86_">
					<use xlink:href="#SVGID_85_"  style="overflow:visible;"/>
				</clipPath>
				<path class="st92" d="M227.8,146.2l0.1,5.4c0,1.6-1.1,2.8-2.4,2.9l-29.6,0.5c-1.4,0-2.5-1.2-2.5-2.8l-0.1-5.4
					c0-1.6,1.1-2.8,2.4-2.9l29.6-0.5C226.6,143.4,227.7,144.6,227.8,146.2z"/>
				<path class="st93" d="M222.7,146.3l0.1,5.4c0,1.6-1.1,2.8-2.4,2.9l-19.6,0.3c-1.4,0-2.5-1.2-2.5-2.8l-0.1-5.4
					c0-1.6,1.1-2.8,2.4-2.9l19.6-0.3C221.6,143.5,222.7,144.7,222.7,146.3"/>
				<g class="st94">
					<g>
						<defs>
							<rect id="SVGID_87_" x="193.3" y="146.8" width="34.6" height="4.7"/>
						</defs>
						<clipPath id="SVGID_88_">
							<use xlink:href="#SVGID_87_"  style="overflow:visible;"/>
						</clipPath>
						<path class="st95" d="M224.1,146.8c-0.9,0-1.7,0.9-1.7,1.9c0,1.1,0.8,1.9,1.7,1.9c0.6,0,1.1-0.4,1.4-1l2.2,0.8l-0.1-3.6
							l-2,1.1C225.4,147.3,224.8,146.8,224.1,146.8"/>
						<path class="st95" d="M196.8,147.7c0.9,0,1.7,0.8,1.7,1.9c0,1.1-0.7,1.9-1.6,2c-0.6,0-1.2-0.3-1.5-0.9l-2.2,0.9l0-3.6l2,1.1
							C195.5,148.2,196.1,147.7,196.8,147.7"/>
					</g>
				</g>
			</g>
		</g>
		<rect x="184.7" y="226.8" class="st19" width="43.1" height="23.2"/>
		<g class="st14">
			<g>
				<defs>
					<rect id="SVGID_89_" x="188.4" y="230.6" width="35.8" height="12.6"/>
				</defs>
				<clipPath id="SVGID_90_">
					<use xlink:href="#SVGID_89_"  style="overflow:visible;"/>
				</clipPath>
				<path class="st96" d="M223.5,234l0.1,5.4c0,1.6-1.1,2.8-2.4,2.9l-29.6,0.5c-1.4,0-2.5-1.2-2.5-2.8l-0.1-5.4
					c0-1.6,1.1-2.8,2.4-2.9l29.6-0.5C222.4,231.2,223.5,232.4,223.5,234z"/>
				<path class="st97" d="M218.5,234.1l0.1,5.4c0,1.6-1.1,2.8-2.4,2.9l-19.6,0.3c-1.4,0-2.5-1.2-2.5-2.8l-0.1-5.4
					c0-1.6,1.1-2.8,2.4-2.9l19.6-0.3C217.3,231.3,218.5,232.5,218.5,234.1"/>
				<g class="st98">
					<g>
						<defs>
							<rect id="SVGID_91_" x="189" y="234.6" width="34.6" height="4.7"/>
						</defs>
						<clipPath id="SVGID_92_">
							<use xlink:href="#SVGID_91_"  style="overflow:visible;"/>
						</clipPath>
						<path class="st99" d="M219.8,234.6c-0.9,0-1.7,0.9-1.7,1.9c0,1.1,0.8,1.9,1.7,1.9c0.6,0,1.1-0.4,1.4-1l2.2,0.8l-0.1-3.6
							l-2,1.1C221.2,235.1,220.6,234.6,219.8,234.6"/>
						<path class="st99" d="M192.6,235.5c0.9,0,1.7,0.8,1.7,1.9c0,1.1-0.7,1.9-1.6,2c-0.6,0-1.2-0.3-1.5-0.9l-2.2,0.9l0-3.6l2,1.1
							C191.3,236,191.9,235.5,192.6,235.5"/>
					</g>
				</g>
			</g>
		</g>
		<rect x="184.7" y="251.7" class="st19" width="43.1" height="23.2"/>
		<g class="st14">
			<g>
				<defs>
					<rect id="SVGID_93_" x="188.4" y="255.5" width="35.8" height="12.6"/>
				</defs>
				<clipPath id="SVGID_94_">
					<use xlink:href="#SVGID_93_"  style="overflow:visible;"/>
				</clipPath>
				<path class="st100" d="M223.5,258.9l0.1,5.4c0,1.6-1.1,2.8-2.4,2.9l-29.6,0.5c-1.4,0-2.5-1.2-2.5-2.8l-0.1-5.4
					c0-1.6,1.1-2.8,2.4-2.9l29.6-0.5C222.4,256.1,223.5,257.3,223.5,258.9z"/>
				<path class="st101" d="M218.5,259l0.1,5.4c0,1.6-1.1,2.8-2.4,2.9l-19.6,0.3c-1.4,0-2.5-1.2-2.5-2.8l-0.1-5.4
					c0-1.6,1.1-2.8,2.4-2.9l19.6-0.3C217.3,256.2,218.5,257.4,218.5,259"/>
				<g class="st102">
					<g>
						<defs>
							<rect id="SVGID_95_" x="189" y="259.5" width="34.6" height="4.7"/>
						</defs>
						<clipPath id="SVGID_96_">
							<use xlink:href="#SVGID_95_"  style="overflow:visible;"/>
						</clipPath>
						<path class="st103" d="M219.8,259.5c-0.9,0-1.7,0.9-1.7,1.9c0,1.1,0.8,1.9,1.7,1.9c0.6,0,1.1-0.4,1.4-1l2.2,0.8l-0.1-3.6
							l-2,1.1C221.2,260,220.6,259.5,219.8,259.5"/>
						<path class="st103" d="M192.6,260.4c0.9,0,1.7,0.8,1.7,1.9c0,1.1-0.7,1.9-1.6,2c-0.6,0-1.2-0.3-1.5-0.9l-2.2,0.9l0-3.6l2,1.1
							C191.3,260.9,191.9,260.4,192.6,260.4"/>
					</g>
				</g>
			</g>
		</g>
		<g class="st14">
			<g>
				<defs>
					<rect id="SVGID_97_" x="181.8" y="171.2" width="57.4" height="17.1"/>
				</defs>
				<clipPath id="SVGID_98_">
					<use xlink:href="#SVGID_97_"  style="overflow:visible;"/>
				</clipPath>
				<path class="st104" d="M182.6,183.6l0-7.5c0-2.2,1.8-3.9,4-3.9l47.8-0.1c2.2,0,4,1.7,4,3.9l0,7.5c0,2.2-1.8,3.9-4,3.9l-47.8,0.1
					C184.4,187.5,182.6,185.7,182.6,183.6z"/>
				<path class="st105" d="M190.7,183.5l0-7.5c0-2.2,1.8-3.9,4-3.9l31.6-0.1c2.2,0,4,1.7,4,3.9l0,7.5c0,2.2-1.8,3.9-4,3.9l-31.6,0.1
					C192.5,187.5,190.7,185.7,190.7,183.5"/>
				<g class="st106">
					<g>
						<defs>
							<rect id="SVGID_99_" x="182.6" y="176.7" width="55.8" height="6"/>
						</defs>
						<clipPath id="SVGID_100_">
							<use xlink:href="#SVGID_99_"  style="overflow:visible;"/>
						</clipPath>
						<path class="st107" d="M188.5,182.7c1.5,0,2.7-1.2,2.7-2.7c0-1.5-1.2-2.7-2.7-2.7c-1,0-1.9,0.5-2.3,1.3l-3.6-1.1l0.2,5
							l3.2-1.6C186.4,182,187.4,182.7,188.5,182.7"/>
						<path class="st107" d="M232.5,182.1c-1.5,0-2.7-1.2-2.7-2.6c0-1.5,1.2-2.7,2.7-2.7c1,0,1.9,0.5,2.3,1.3l3.6-1.2l-0.1,5
							l-3.3-1.5C234.6,181.4,233.6,182.1,232.5,182.1"/>
					</g>
				</g>
			</g>
		</g>
		<g class="st14">
			<g>
				<defs>
					<rect id="SVGID_101_" x="177.5" y="204.9" width="57.4" height="17.1"/>
				</defs>
				<clipPath id="SVGID_102_">
					<use xlink:href="#SVGID_101_"  style="overflow:visible;"/>
				</clipPath>
				<path class="st108" d="M178.4,217.3l0-7.5c0-2.2,1.8-3.9,4-3.9l47.8-0.1c2.2,0,4,1.7,4,3.9l0,7.5c0,2.2-1.8,3.9-4,3.9l-47.8,0.1
					C180.1,221.2,178.4,219.5,178.4,217.3z"/>
				<path class="st109" d="M186.5,217.3l0-7.5c0-2.2,1.8-3.9,4-3.9l31.6-0.1c2.2,0,4,1.7,4,3.9l0,7.5c0,2.2-1.8,3.9-4,3.9l-31.6,0.1
					C188.2,221.2,186.5,219.4,186.5,217.3"/>
				<g class="st110">
					<g>
						<defs>
							<rect id="SVGID_103_" x="178.4" y="210.5" width="55.8" height="6"/>
						</defs>
						<clipPath id="SVGID_104_">
							<use xlink:href="#SVGID_103_"  style="overflow:visible;"/>
						</clipPath>
						<path class="st111" d="M184.3,216.5c1.5,0,2.7-1.2,2.7-2.7c0-1.5-1.2-2.7-2.7-2.7c-1,0-1.9,0.5-2.3,1.3l-3.6-1.1l0.2,5
							l3.2-1.6C182.2,215.8,183.1,216.5,184.3,216.5"/>
						<path class="st111" d="M228.2,215.8c-1.5,0-2.7-1.2-2.7-2.6c0-1.5,1.2-2.7,2.7-2.7c1,0,1.9,0.5,2.3,1.3l3.6-1.2l-0.1,5
							l-3.3-1.5C230.4,215.1,229.4,215.8,228.2,215.8"/>
					</g>
				</g>
			</g>
		</g>
		<g class="st14">
			<g>
				<defs>
					<rect id="SVGID_105_" x="180.1" y="284.8" width="57.4" height="17.1"/>
				</defs>
				<clipPath id="SVGID_106_">
					<use xlink:href="#SVGID_105_"  style="overflow:visible;"/>
				</clipPath>
				<path class="st112" d="M180.9,297.2l0-7.5c0-2.2,1.8-3.9,4-3.9l47.8-0.1c2.2,0,4,1.7,4,3.9l0,7.5c0,2.2-1.8,3.9-4,3.9l-47.8,0.1
					C182.7,301.1,180.9,299.4,180.9,297.2z"/>
				<path class="st113" d="M189,297.2l0-7.5c0-2.2,1.8-3.9,4-3.9l31.6-0.1c2.2,0,4,1.7,4,3.9l0,7.5c0,2.2-1.8,3.9-4,3.9l-31.6,0.1
					C190.8,301.1,189,299.4,189,297.2"/>
				<g class="st114">
					<g>
						<defs>
							<rect id="SVGID_107_" x="180.9" y="290.4" width="55.8" height="6"/>
						</defs>
						<clipPath id="SVGID_108_">
							<use xlink:href="#SVGID_107_"  style="overflow:visible;"/>
						</clipPath>
						<path class="st115" d="M186.8,296.4c1.5,0,2.7-1.2,2.7-2.7c0-1.5-1.2-2.7-2.7-2.7c-1,0-1.9,0.5-2.3,1.3l-3.6-1.1l0.2,5
							l3.2-1.6C184.7,295.7,185.7,296.4,186.8,296.4"/>
						<path class="st115" d="M230.8,295.7c-1.5,0-2.7-1.2-2.7-2.6c0-1.5,1.2-2.7,2.7-2.7c1,0,1.9,0.5,2.3,1.3l3.6-1.2l-0.1,5
							l-3.3-1.5C232.9,295,231.9,295.7,230.8,295.7"/>
					</g>
				</g>
			</g>
		</g>
		
			<rect x="116.9" y="102.5" transform="matrix(1.334606e-03 -1 1 1.334606e-03 29.4772 257.3822)" class="st116" width="53.5" height="22.9"/>
		<g class="st14">
			<g>
				<defs>
					<rect id="SVGID_109_" x="135.9" y="91.8" width="12.6" height="44.2"/>
				</defs>
				<clipPath id="SVGID_110_">
					<use xlink:href="#SVGID_109_"  style="overflow:visible;"/>
				</clipPath>
				<path class="st117" d="M139.3,92.5l5.3-0.1c1.5,0,2.8,1.3,2.8,3l0.5,36.7c0,1.7-1.2,3.1-2.7,3.1l-5.3,0.1c-1.5,0-2.8-1.3-2.8-3
					l-0.5-36.7C136.5,94,137.7,92.6,139.3,92.5z"/>
				<path class="st118" d="M139.3,98.8l5.3-0.1c1.5,0,2.8,1.3,2.8,3l0.3,24.3c0,1.7-1.2,3.1-2.7,3.1l-5.3,0.1c-1.5,0-2.8-1.3-2.8-3
					l-0.3-24.3C136.6,100.2,137.8,98.8,139.3,98.8"/>
				<g class="st119">
					<g>
						<defs>
							<rect id="SVGID_111_" x="139.9" y="92.5" width="4.6" height="42.8"/>
						</defs>
						<clipPath id="SVGID_112_">
							<use xlink:href="#SVGID_111_"  style="overflow:visible;"/>
						</clipPath>
						<path class="st120" d="M139.9,97.1c0,1.2,0.9,2.1,1.9,2.1c1,0,1.9-1,1.9-2.1c0-0.8-0.4-1.4-0.9-1.8l0.8-2.8l-3.6,0.2l1.1,2.5
							C140.4,95.4,139.9,96.2,139.9,97.1"/>
						<path class="st120" d="M140.7,130.9c0-1.2,0.8-2.1,1.9-2.1c1,0,1.9,0.9,1.9,2c0,0.8-0.3,1.4-0.9,1.8l0.9,2.7l-3.6,0l1-2.5
							C141.2,132.5,140.7,131.7,140.7,130.9"/>
					</g>
				</g>
			</g>
		</g>
		
			<rect x="140.9" y="102.5" transform="matrix(1.334606e-03 -1 1 1.334606e-03 53.4689 281.4059)" class="st116" width="53.5" height="22.9"/>
		<g class="st14">
			<g>
				<defs>
					<rect id="SVGID_113_" x="159.9" y="91.8" width="12.6" height="44.2"/>
				</defs>
				<clipPath id="SVGID_114_">
					<use xlink:href="#SVGID_113_"  style="overflow:visible;"/>
				</clipPath>
				<path class="st121" d="M163.3,92.5l5.3-0.1c1.5,0,2.8,1.3,2.8,3l0.5,36.7c0,1.7-1.2,3.1-2.7,3.1l-5.3,0.1c-1.5,0-2.8-1.3-2.8-3
					l-0.5-36.7C160.5,94,161.7,92.6,163.3,92.5z"/>
				<path class="st122" d="M163.4,98.8l5.3-0.1c1.5,0,2.8,1.3,2.8,3l0.3,24.3c0,1.7-1.2,3.1-2.7,3.1l-5.3,0.1c-1.5,0-2.8-1.3-2.8-3
					l-0.3-24.3C160.6,100.2,161.8,98.8,163.4,98.8"/>
				<g class="st123">
					<g>
						<defs>
							<rect id="SVGID_115_" x="163.9" y="92.5" width="4.6" height="42.8"/>
						</defs>
						<clipPath id="SVGID_116_">
							<use xlink:href="#SVGID_115_"  style="overflow:visible;"/>
						</clipPath>
						<path class="st124" d="M163.9,97.1c0,1.2,0.9,2.1,1.9,2.1c1,0,1.9-1,1.9-2.1c0-0.8-0.4-1.4-0.9-1.8l0.8-2.8l-3.6,0.2l1.1,2.5
							C164.4,95.4,163.9,96.2,163.9,97.1"/>
						<path class="st124" d="M164.7,130.9c0-1.2,0.8-2.1,1.9-2.1c1,0,1.9,0.9,1.9,2c0,0.8-0.3,1.4-0.9,1.8l0.9,2.7l-3.6,0l1-2.5
							C165.3,132.5,164.7,131.7,164.7,130.9"/>
					</g>
				</g>
			</g>
		</g>
		
			<rect x="116.9" y="153.6" transform="matrix(1.334628e-03 -1 1 1.334628e-03 -21.615 308.4062)" class="st116" width="53.5" height="22.9"/>
		<g class="st14">
			<g>
				<defs>
					<rect id="SVGID_117_" x="135.9" y="142.9" width="12.6" height="44.2"/>
				</defs>
				<clipPath id="SVGID_118_">
					<use xlink:href="#SVGID_117_"  style="overflow:visible;"/>
				</clipPath>
				<path class="st125" d="M139.3,143.6l5.3-0.1c1.5,0,2.8,1.3,2.8,3l0.5,36.7c0,1.7-1.2,3.1-2.7,3.1l-5.3,0.1c-1.5,0-2.8-1.3-2.8-3
					l-0.5-36.7C136.5,145,137.7,143.7,139.3,143.6z"/>
				<path class="st126" d="M139.3,149.9l5.3-0.1c1.5,0,2.8,1.3,2.8,3l0.3,24.3c0,1.7-1.2,3.1-2.7,3.1l-5.3,0.1c-1.5,0-2.8-1.3-2.8-3
					l-0.3-24.3C136.6,151.3,137.8,149.9,139.3,149.9"/>
				<g class="st127">
					<g>
						<defs>
							<rect id="SVGID_119_" x="139.9" y="143.6" width="4.6" height="42.8"/>
						</defs>
						<clipPath id="SVGID_120_">
							<use xlink:href="#SVGID_119_"  style="overflow:visible;"/>
						</clipPath>
						<path class="st128" d="M139.9,148.2c0,1.2,0.9,2.1,1.9,2.1c1,0,1.9-1,1.9-2.1c0-0.8-0.4-1.4-0.9-1.8l0.8-2.8l-3.6,0.2l1.1,2.5
							C140.4,146.5,139.9,147.3,139.9,148.2"/>
						<path class="st128" d="M140.7,182c0-1.2,0.8-2.1,1.9-2.1c1,0,1.9,0.9,1.9,2c0,0.8-0.3,1.4-0.9,1.8l0.9,2.7l-3.6,0l1-2.5
							C141.2,183.6,140.7,182.8,140.7,182"/>
					</g>
				</g>
			</g>
		</g>
		
			<rect x="140.9" y="153.6" transform="matrix(1.334628e-03 -1 1 1.334628e-03 2.3767 332.43)" class="st116" width="53.5" height="22.9"/>
		<g class="st14">
			<g>
				<defs>
					<rect id="SVGID_121_" x="159.9" y="142.9" width="12.6" height="44.2"/>
				</defs>
				<clipPath id="SVGID_122_">
					<use xlink:href="#SVGID_121_"  style="overflow:visible;"/>
				</clipPath>
				<path class="st129" d="M163.3,143.6l5.3-0.1c1.5,0,2.8,1.3,2.8,3l0.5,36.7c0,1.7-1.2,3.1-2.7,3.1l-5.3,0.1c-1.5,0-2.8-1.3-2.8-3
					l-0.5-36.7C160.5,145,161.7,143.7,163.3,143.6z"/>
				<path class="st130" d="M163.4,149.9l5.3-0.1c1.5,0,2.8,1.3,2.8,3l0.3,24.3c0,1.7-1.2,3.1-2.7,3.1l-5.3,0.1c-1.5,0-2.8-1.3-2.8-3
					l-0.3-24.3C160.6,151.3,161.8,149.9,163.4,149.9"/>
				<g class="st131">
					<g>
						<defs>
							<rect id="SVGID_123_" x="163.9" y="143.6" width="4.6" height="42.8"/>
						</defs>
						<clipPath id="SVGID_124_">
							<use xlink:href="#SVGID_123_"  style="overflow:visible;"/>
						</clipPath>
						<path class="st132" d="M163.9,148.2c0,1.2,0.9,2.1,1.9,2.1c1,0,1.9-1,1.9-2.1c0-0.8-0.4-1.4-0.9-1.8l0.8-2.8l-3.6,0.2l1.1,2.5
							C164.4,146.5,163.9,147.3,163.9,148.2"/>
						<path class="st132" d="M164.7,182c0-1.2,0.8-2.1,1.9-2.1c1,0,1.9,0.9,1.9,2c0,0.8-0.3,1.4-0.9,1.8l0.9,2.7l-3.6,0l1-2.5
							C165.3,183.6,164.7,182.8,164.7,182"/>
					</g>
				</g>
			</g>
		</g>
		
			<rect x="113" y="215.4" transform="matrix(1.318629e-03 -1 1 1.318629e-03 -87.2545 366.2719)" class="st116" width="53.5" height="22.9"/>
		<g class="st14">
			<g>
				<defs>
					<rect id="SVGID_125_" x="132.1" y="204.7" width="12.6" height="44.2"/>
				</defs>
				<clipPath id="SVGID_126_">
					<use xlink:href="#SVGID_125_"  style="overflow:visible;"/>
				</clipPath>
				<path class="st133" d="M135.4,205.4l5.3-0.1c1.5,0,2.8,1.3,2.8,3l0.5,36.7c0,1.7-1.2,3.1-2.7,3.1l-5.3,0.1c-1.5,0-2.8-1.3-2.8-3
					l-0.5-36.7C132.6,206.8,133.9,205.4,135.4,205.4z"/>
				<path class="st134" d="M135.5,211.6l5.3-0.1c1.5,0,2.8,1.3,2.8,3l0.3,24.3c0,1.7-1.2,3.1-2.7,3.1l-5.3,0.1c-1.5,0-2.8-1.3-2.8-3
					l-0.3-24.3C132.7,213.1,134,211.7,135.5,211.6"/>
				<g class="st135">
					<g>
						<defs>
							<rect id="SVGID_127_" x="136" y="205.4" width="4.6" height="42.8"/>
						</defs>
						<clipPath id="SVGID_128_">
							<use xlink:href="#SVGID_127_"  style="overflow:visible;"/>
						</clipPath>
						<path class="st136" d="M136.1,210c0,1.2,0.9,2.1,1.9,2.1c1,0,1.9-1,1.9-2.1c0-0.8-0.4-1.4-0.9-1.8l0.8-2.8l-3.6,0.2l1.1,2.5
							C136.5,208.3,136,209.1,136.1,210"/>
						<path class="st136" d="M136.9,243.7c0-1.2,0.8-2.1,1.9-2.1c1,0,1.9,0.9,1.9,2c0,0.8-0.3,1.4-0.9,1.8l0.9,2.7l-3.6,0l1-2.5
							C137.4,245.4,136.9,244.6,136.9,243.7"/>
					</g>
				</g>
			</g>
		</g>
		
			<rect x="137" y="215.4" transform="matrix(1.334628e-03 -1 1 1.334628e-03 -63.2648 390.2922)" class="st116" width="53.5" height="22.9"/>
		<g class="st14">
			<g>
				<defs>
					<rect id="SVGID_129_" x="156.1" y="204.7" width="12.6" height="44.2"/>
				</defs>
				<clipPath id="SVGID_130_">
					<use xlink:href="#SVGID_129_"  style="overflow:visible;"/>
				</clipPath>
				<path class="st137" d="M159.4,205.4l5.3-0.1c1.5,0,2.8,1.3,2.8,3l0.5,36.7c0,1.7-1.2,3.1-2.7,3.1l-5.3,0.1c-1.5,0-2.8-1.3-2.8-3
					l-0.5-36.7C156.7,206.8,157.9,205.4,159.4,205.4z"/>
				<path class="st138" d="M159.5,211.6l5.3-0.1c1.5,0,2.8,1.3,2.8,3l0.3,24.3c0,1.7-1.2,3.1-2.7,3.1l-5.3,0.1c-1.5,0-2.8-1.3-2.8-3
					l-0.3-24.3C156.7,213.1,158,211.7,159.5,211.6"/>
				<g class="st139">
					<g>
						<defs>
							<rect id="SVGID_131_" x="160.1" y="205.4" width="4.6" height="42.8"/>
						</defs>
						<clipPath id="SVGID_132_">
							<use xlink:href="#SVGID_131_"  style="overflow:visible;"/>
						</clipPath>
						<path class="st140" d="M160.1,210c0,1.2,0.9,2.1,1.9,2.1c1,0,1.9-1,1.9-2.1c0-0.8-0.4-1.4-0.9-1.8l0.8-2.8l-3.6,0.2l1.1,2.5
							C160.6,208.3,160.1,209.1,160.1,210"/>
						<path class="st140" d="M160.9,243.7c0-1.2,0.8-2.1,1.9-2.1c1,0,1.9,0.9,1.9,2c0,0.8-0.3,1.4-0.9,1.8l0.9,2.7l-3.6,0l1-2.5
							C161.4,245.4,160.9,244.6,160.9,243.7"/>
					</g>
				</g>
			</g>
		</g>
		
			<rect x="113" y="266.5" transform="matrix(1.318629e-03 -1 1 1.318629e-03 -138.3465 417.2966)" class="st116" width="53.5" height="22.9"/>
		<g class="st14">
			<g>
				<defs>
					<rect id="SVGID_133_" x="132.1" y="255.8" width="12.6" height="44.2"/>
				</defs>
				<clipPath id="SVGID_134_">
					<use xlink:href="#SVGID_133_"  style="overflow:visible;"/>
				</clipPath>
				<path class="st141" d="M135.4,256.5l5.3-0.1c1.5,0,2.8,1.3,2.8,3l0.5,36.7c0,1.7-1.2,3.1-2.7,3.1l-5.3,0.1c-1.5,0-2.8-1.3-2.8-3
					l-0.5-36.7C132.6,257.9,133.9,256.5,135.4,256.5z"/>
				<path class="st142" d="M135.5,262.7l5.3-0.1c1.5,0,2.8,1.3,2.8,3L144,290c0,1.7-1.2,3.1-2.7,3.1l-5.3,0.1c-1.5,0-2.8-1.3-2.8-3
					l-0.3-24.3C132.7,264.2,134,262.8,135.5,262.7"/>
				<g class="st143">
					<g>
						<defs>
							<rect id="SVGID_135_" x="136" y="256.5" width="4.6" height="42.8"/>
						</defs>
						<clipPath id="SVGID_136_">
							<use xlink:href="#SVGID_135_"  style="overflow:visible;"/>
						</clipPath>
						<path class="st144" d="M136.1,261.1c0,1.2,0.9,2.1,1.9,2.1c1,0,1.9-1,1.9-2.1c0-0.8-0.4-1.4-0.9-1.8l0.8-2.8l-3.6,0.2l1.1,2.5
							C136.5,259.4,136,260.2,136.1,261.1"/>
						<path class="st144" d="M136.9,294.8c0-1.2,0.8-2.1,1.9-2.1c1,0,1.9,0.9,1.9,2c0,0.8-0.3,1.4-0.9,1.8l0.9,2.7l-3.6,0l1-2.5
							C137.4,296.5,136.9,295.7,136.9,294.8"/>
					</g>
				</g>
			</g>
		</g>
		
			<rect x="137" y="266.5" transform="matrix(1.334628e-03 -1 1 1.334628e-03 -114.3568 441.3161)" class="st116" width="53.5" height="22.9"/>
		<g class="st14">
			<g>
				<defs>
					<rect id="SVGID_137_" x="156.1" y="255.8" width="12.6" height="44.2"/>
				</defs>
				<clipPath id="SVGID_138_">
					<use xlink:href="#SVGID_137_"  style="overflow:visible;"/>
				</clipPath>
				<path class="st145" d="M159.4,256.5l5.3-0.1c1.5,0,2.8,1.3,2.8,3l0.5,36.7c0,1.7-1.2,3.1-2.7,3.1l-5.3,0.1c-1.5,0-2.8-1.3-2.8-3
					l-0.5-36.7C156.7,257.9,157.9,256.5,159.4,256.5z"/>
				<path class="st146" d="M159.5,262.7l5.3-0.1c1.5,0,2.8,1.3,2.8,3L168,290c0,1.7-1.2,3.1-2.7,3.1l-5.3,0.1c-1.5,0-2.8-1.3-2.8-3
					l-0.3-24.3C156.7,264.2,158,262.8,159.5,262.7"/>
				<g class="st147">
					<g>
						<defs>
							<rect id="SVGID_139_" x="160.1" y="256.5" width="4.6" height="42.8"/>
						</defs>
						<clipPath id="SVGID_140_">
							<use xlink:href="#SVGID_139_"  style="overflow:visible;"/>
						</clipPath>
						<path class="st148" d="M160.1,261.1c0,1.2,0.9,2.1,1.9,2.1c1,0,1.9-1,1.9-2.1c0-0.8-0.4-1.4-0.9-1.8l0.8-2.8l-3.6,0.2l1.1,2.5
							C160.6,259.4,160.1,260.2,160.1,261.1"/>
						<path class="st148" d="M160.9,294.8c0-1.2,0.8-2.1,1.9-2.1c1,0,1.9,0.9,1.9,2c0,0.8-0.3,1.4-0.9,1.8l0.9,2.7l-3.6,0l1-2.5
							C161.4,296.5,160.9,295.7,160.9,294.8"/>
					</g>
				</g>
			</g>
		</g>
		<path class="st1" d="M331.1,158.4h-30.4c-4.7,0-8.5-3.8-8.5-8.5v-30.4c0-4.7,3.8-8.5,8.5-8.5h30.4c4.7,0,8.5,3.8,8.5,8.5v30.4
			C339.5,154.6,335.7,158.4,331.1,158.4"/>
		<g class="st14">
			<g>
				<defs>
					<rect id="SVGID_141_" x="281.9" y="116.2" width="67.9" height="37.5"/>
				</defs>
				<clipPath id="SVGID_142_">
					<use xlink:href="#SVGID_141_"  style="overflow:visible;"/>
				</clipPath>
				<path class="st149" d="M335.1,116.3l5,0c0.2,0,0.3,0.3,0.3,0.7l0,0.7c0,0.4,0.2,0.7,0.3,0.7l8-0.1c0.2,0,0.3,0.3,0.3,0.7l0,4
					c0,0.4-0.1,0.7-0.3,0.7l-8.2,0.1c-0.2,0-0.3-0.3-0.3-0.6c0-0.4-0.2-0.6-0.3-0.6l-4.8,0.1c-0.2,0-0.3-0.3-0.3-0.7l0-4.8
					C334.8,116.6,334.9,116.3,335.1,116.3"/>
				<path class="st149" d="M335.3,123.8l5,0c0.2,0,0.3,0.3,0.3,0.7l0,0.7c0,0.4,0.2,0.7,0.3,0.7l8-0.1c0.2,0,0.3,0.3,0.3,0.7l0,4
					c0,0.4-0.1,0.7-0.3,0.7l-8.2,0.1c-0.2,0-0.3-0.3-0.3-0.6c0-0.4-0.2-0.6-0.3-0.6l-4.8,0.1c-0.2,0-0.3-0.3-0.3-0.7l0-4.8
					C334.9,124.1,335.1,123.8,335.3,123.8"/>
				<path class="st149" d="M335.4,131.3l5,0c0.2,0,0.3,0.3,0.3,0.7l0,0.7c0,0.4,0.2,0.7,0.3,0.7l8-0.1c0.2,0,0.3,0.3,0.3,0.7l0,4
					c0,0.4-0.1,0.7-0.3,0.7l-8.2,0.1c-0.2,0-0.3-0.3-0.3-0.6c0-0.4-0.2-0.6-0.3-0.6l-4.8,0.1c-0.2,0-0.3-0.3-0.3-0.7l0-4.8
					C335.1,131.7,335.2,131.3,335.4,131.3"/>
				<path class="st149" d="M335.6,138.9l5,0c0.2,0,0.3,0.3,0.3,0.7l0,0.7c0,0.4,0.2,0.7,0.3,0.7l8-0.1c0.2,0,0.3,0.3,0.3,0.7l0,4
					c0,0.4-0.1,0.7-0.3,0.7l-8.2,0.1c-0.2,0-0.3-0.3-0.3-0.6c0-0.4-0.2-0.6-0.3-0.6l-4.8,0.1c-0.2,0-0.3-0.3-0.3-0.7l0-4.8
					C335.3,139.2,335.4,138.9,335.6,138.9"/>
				<path class="st149" d="M335.8,146.4l5,0c0.2,0,0.3,0.3,0.3,0.7l0,0.7c0,0.4,0.2,0.7,0.3,0.7l8-0.1c0.2,0,0.3,0.3,0.3,0.7l0,4
					c0,0.4-0.1,0.7-0.3,0.7l-8.2,0.1c-0.2,0-0.3-0.3-0.3-0.6c0-0.4-0.2-0.6-0.3-0.6l-4.8,0.1c-0.2,0-0.3-0.3-0.3-0.7l0-4.8
					C335.4,146.7,335.6,146.4,335.8,146.4"/>
				<path class="st149" d="M296.6,116.3l-5,0c-0.2,0-0.3,0.3-0.3,0.7l0,0.7c0,0.4-0.2,0.7-0.3,0.7l-8-0.1c-0.2,0-0.3,0.3-0.3,0.7
					l0,4c0,0.4,0.1,0.7,0.3,0.7l8.2,0.1c0.2,0,0.3-0.3,0.3-0.6c0-0.4,0.2-0.6,0.3-0.6l4.8,0.1c0.2,0,0.3-0.3,0.3-0.7l0-4.8
					C296.9,116.6,296.8,116.3,296.6,116.3"/>
				<path class="st149" d="M296.4,123.8l-5,0c-0.2,0-0.3,0.3-0.3,0.7l0,0.7c0,0.4-0.2,0.7-0.3,0.7l-8-0.1c-0.2,0-0.3,0.3-0.3,0.7
					l0,4c0,0.4,0.1,0.7,0.3,0.7l8.2,0.1c0.2,0,0.3-0.3,0.3-0.6c0-0.4,0.2-0.6,0.3-0.6l4.8,0.1c0.2,0,0.3-0.3,0.3-0.7l0-4.8
					C296.8,124.1,296.6,123.8,296.4,123.8"/>
				<path class="st149" d="M296.3,131.3l-5,0c-0.2,0-0.3,0.3-0.3,0.7l0,0.7c0,0.4-0.2,0.7-0.3,0.7l-8-0.1c-0.2,0-0.3,0.3-0.3,0.7
					l0,4c0,0.4,0.1,0.7,0.3,0.7l8.2,0.1c0.2,0,0.3-0.3,0.3-0.6c0-0.4,0.2-0.6,0.3-0.6l4.8,0.1c0.2,0,0.3-0.3,0.3-0.7l0-4.8
					C296.6,131.7,296.5,131.3,296.3,131.3"/>
				<path class="st149" d="M296.1,138.9l-5,0c-0.2,0-0.3,0.3-0.3,0.7l0,0.7c0,0.4-0.2,0.7-0.3,0.7l-8-0.1c-0.2,0-0.3,0.3-0.3,0.7
					l0,4c0,0.4,0.1,0.7,0.3,0.7l8.2,0.1c0.2,0,0.3-0.3,0.3-0.6c0-0.4,0.2-0.6,0.3-0.6l4.8,0.1c0.2,0,0.3-0.3,0.3-0.7l0-4.8
					C296.4,139.2,296.3,138.9,296.1,138.9"/>
				<path class="st149" d="M295.9,146.4l-5,0c-0.2,0-0.3,0.3-0.3,0.7l0,0.7c0,0.4-0.2,0.7-0.3,0.7l-8-0.1c-0.2,0-0.3,0.3-0.3,0.7
					l0,4c0,0.4,0.1,0.7,0.3,0.7l8.2,0.1c0.2,0,0.3-0.3,0.3-0.6c0-0.4,0.2-0.6,0.3-0.6l4.8,0.1c0.2,0,0.3-0.3,0.3-0.7l0-4.8
					C296.3,146.7,296.1,146.4,295.9,146.4"/>
			</g>
		</g>
		<path class="st1" d="M330.3,306.7h-30.4c-4.7,0-8.5-3.8-8.5-8.5v-30.4c0-4.7,3.8-8.5,8.5-8.5h30.4c4.7,0,8.5,3.8,8.5,8.5v30.4
			C338.8,302.9,335,306.7,330.3,306.7"/>
		<g class="st14">
			<g>
				<defs>
					<rect id="SVGID_143_" x="281.2" y="264.5" width="67.9" height="37.5"/>
				</defs>
				<clipPath id="SVGID_144_">
					<use xlink:href="#SVGID_143_"  style="overflow:visible;"/>
				</clipPath>
				<path class="st150" d="M334.4,264.6l5,0c0.2,0,0.3,0.3,0.3,0.7l0,0.7c0,0.4,0.2,0.7,0.3,0.7l8-0.1c0.2,0,0.3,0.3,0.3,0.7l0,4
					c0,0.4-0.1,0.7-0.3,0.7l-8.2,0.1c-0.2,0-0.3-0.3-0.3-0.6c0-0.4-0.2-0.6-0.3-0.6l-4.8,0.1c-0.2,0-0.3-0.3-0.3-0.7l0-4.8
					C334,264.9,334.2,264.6,334.4,264.6"/>
				<path class="st150" d="M334.5,272.1l5,0c0.2,0,0.3,0.3,0.3,0.7l0,0.7c0,0.4,0.2,0.7,0.3,0.7l8-0.1c0.2,0,0.3,0.3,0.3,0.7l0,4
					c0,0.4-0.1,0.7-0.3,0.7l-8.2,0.1c-0.2,0-0.3-0.3-0.3-0.6c0-0.4-0.2-0.6-0.3-0.6l-4.8,0.1c-0.2,0-0.3-0.3-0.3-0.7l0-4.8
					C334.2,272.4,334.3,272.1,334.5,272.1"/>
				<path class="st150" d="M334.7,279.6l5,0c0.2,0,0.3,0.3,0.3,0.7l0,0.7c0,0.4,0.2,0.7,0.3,0.7l8-0.1c0.2,0,0.3,0.3,0.3,0.7l0,4
					c0,0.4-0.1,0.7-0.3,0.7l-8.2,0.1c-0.2,0-0.3-0.3-0.3-0.6c0-0.4-0.2-0.6-0.3-0.6l-4.8,0.1c-0.2,0-0.3-0.3-0.3-0.7l0-4.8
					C334.4,279.9,334.5,279.6,334.7,279.6"/>
				<path class="st150" d="M334.9,287.2l5,0c0.2,0,0.3,0.3,0.3,0.7l0,0.7c0,0.4,0.2,0.7,0.3,0.7l8-0.1c0.2,0,0.3,0.3,0.3,0.7l0,4
					c0,0.4-0.1,0.7-0.3,0.7l-8.2,0.1c-0.2,0-0.3-0.3-0.3-0.6c0-0.4-0.2-0.6-0.3-0.6l-4.8,0.1c-0.2,0-0.3-0.3-0.3-0.7l0-4.8
					C334.5,287.5,334.7,287.2,334.9,287.2"/>
				<path class="st150" d="M335,294.7l5,0c0.2,0,0.3,0.3,0.3,0.7l0,0.7c0,0.4,0.2,0.7,0.3,0.7l8-0.1c0.2,0,0.3,0.3,0.3,0.7l0,4
					c0,0.4-0.1,0.7-0.3,0.7l-8.2,0.1c-0.2,0-0.3-0.3-0.3-0.6c0-0.4-0.2-0.6-0.3-0.6l-4.8,0.1c-0.2,0-0.3-0.3-0.3-0.7l0-4.8
					C334.7,295,334.8,294.7,335,294.7"/>
				<path class="st150" d="M295.9,264.6l-5,0c-0.2,0-0.3,0.3-0.3,0.7l0,0.7c0,0.4-0.2,0.7-0.3,0.7l-8-0.1c-0.2,0-0.3,0.3-0.3,0.7
					l0,4c0,0.4,0.1,0.7,0.3,0.7l8.2,0.1c0.2,0,0.3-0.3,0.3-0.6c0-0.4,0.2-0.6,0.3-0.6l4.8,0.1c0.2,0,0.3-0.3,0.3-0.7l0-4.8
					C296.2,264.9,296.1,264.6,295.9,264.6"/>
				<path class="st150" d="M295.7,272.1l-5,0c-0.2,0-0.3,0.3-0.3,0.7l0,0.7c0,0.4-0.2,0.7-0.3,0.7l-8-0.1c-0.2,0-0.3,0.3-0.3,0.7
					l0,4c0,0.4,0.1,0.7,0.3,0.7l8.2,0.1c0.2,0,0.3-0.3,0.3-0.6c0-0.4,0.2-0.6,0.3-0.6l4.8,0.1c0.2,0,0.3-0.3,0.3-0.7l0-4.8
					C296,272.4,295.9,272.1,295.7,272.1"/>
				<path class="st150" d="M295.5,279.6l-5,0c-0.2,0-0.3,0.3-0.3,0.7l0,0.7c0,0.4-0.2,0.7-0.3,0.7l-8-0.1c-0.2,0-0.3,0.3-0.3,0.7
					l0,4c0,0.4,0.1,0.7,0.3,0.7l8.2,0.1c0.2,0,0.3-0.3,0.3-0.6c0-0.4,0.2-0.6,0.3-0.6l4.8,0.1c0.2,0,0.3-0.3,0.3-0.7l0-4.8
					C295.9,279.9,295.7,279.6,295.5,279.6"/>
				<path class="st150" d="M295.4,287.2l-5,0c-0.2,0-0.3,0.3-0.3,0.7l0,0.7c0,0.4-0.2,0.7-0.3,0.7l-8-0.1c-0.2,0-0.3,0.3-0.3,0.7
					l0,4c0,0.4,0.1,0.7,0.3,0.7l8.2,0.1c0.2,0,0.3-0.3,0.3-0.6c0-0.4,0.2-0.6,0.3-0.6l4.8,0.1c0.2,0,0.3-0.3,0.3-0.7l0-4.8
					C295.7,287.5,295.6,287.2,295.4,287.2"/>
				<path class="st150" d="M295.2,294.7l-5,0c-0.2,0-0.3,0.3-0.3,0.7l0,0.7c0,0.4-0.2,0.7-0.3,0.7l-8-0.1c-0.2,0-0.3,0.3-0.3,0.7
					l0,4c0,0.4,0.1,0.7,0.3,0.7l8.2,0.1c0.2,0,0.3-0.3,0.3-0.6c0-0.4,0.2-0.6,0.3-0.6l4.8,0.1c0.2,0,0.3-0.3,0.3-0.7l0-4.8
					C295.5,295,295.4,294.7,295.2,294.7"/>
			</g>
		</g>
	</g>
	<path class="st4" d="M682.7,371.7H57.3c-22.6,0-40.9-18.3-40.9-40.9V69.1c0-22.6,18.3-40.9,40.9-40.9h625.5
		c22.6,0,40.9,18.3,40.9,40.9v261.7C723.6,353.4,705.3,371.7,682.7,371.7z"/>
</g>
</svg>
