<?xml version="1.0" encoding="utf-8"?>
<!-- Generator: Adobe Illustrator 22.0.0, SVG Export Plug-In . SVG Version: 6.00 Build 0)  -->
<svg version="1.1" id="图层_1" xmlns="http://www.w3.org/2000/svg" xmlns:xlink="http://www.w3.org/1999/xlink" x="0px" y="0px"
	 viewBox="0 0 740 400" style="enable-background:new 0 0 740 400;" xml:space="preserve">
<style type="text/css">
	.st0{fill:none;stroke:#FFFFFF;stroke-width:12;stroke-miterlimit:10;}
	.st1{fill:#FFFFFF;}
	.st2{fill:none;stroke:#FFFFFF;stroke-width:16.788;stroke-miterlimit:10;}
	.st3{fill:none;stroke:#FFFFFF;stroke-width:8.394;stroke-miterlimit:10;}
	.st4{fill:none;stroke:#FFFFFF;stroke-width:18.563;stroke-miterlimit:10;}
	.st5{fill:none;}
	.st6{fill:none;stroke:#FFFFFF;stroke-width:17.724;stroke-miterlimit:10;}
	.st7{fill:none;stroke:#FFFFFF;stroke-width:6.606;stroke-miterlimit:10;}
	.st8{fill:none;stroke:#FFFFFF;stroke-width:5.344;stroke-miterlimit:10;}
</style>
<g>
	<path class="st0" d="M-1926.9-4685h-15.6c-4.1,0-7.4-3.3-7.4-7.4v-58.1c0-4.1,3.3-7.4,7.4-7.4h15.6c4.1,0,7.4,3.3,7.4,7.4v58.1
		C-1919.5-4688.3-1922.8-4685-1926.9-4685z"/>
	<path class="st1" d="M-2110.1-4814.7h-256.6c-3.4,0-6.1-2.7-6.1-6.1c0-3.4,2.7-6.1,6.1-6.1h256.6c3.4,0,6.1,2.7,6.1,6.1
		C-2104.1-4817.5-2106.8-4814.7-2110.1-4814.7"/>
	<path class="st1" d="M-2087.4-4820.8c0,4.6-3.7,8.3-8.3,8.3c-4.6,0-8.3-3.7-8.3-8.3s3.7-8.3,8.3-8.3
		C-2091.1-4829.2-2087.4-4825.4-2087.4-4820.8"/>
	<path class="st1" d="M-2110.1-4792h-256.6c-3.4,0-6.1-2.7-6.1-6.1s2.7-6.1,6.1-6.1h256.6c3.4,0,6.1,2.7,6.1,6.1
		S-2106.8-4792-2110.1-4792"/>
	<path class="st1" d="M-2087.4-4798c0,4.6-3.7,8.3-8.3,8.3c-4.6,0-8.3-3.7-8.3-8.3s3.7-8.3,8.3-8.3
		C-2091.1-4806.4-2087.4-4802.7-2087.4-4798"/>
	<path class="st1" d="M-2110.1-4769.2h-256.6c-3.4,0-6.1-2.7-6.1-6.1s2.7-6.1,6.1-6.1h256.6c3.4,0,6.1,2.7,6.1,6.1
		S-2106.8-4769.2-2110.1-4769.2"/>
	<path class="st1" d="M-2087.4-4775.3c0,4.6-3.7,8.3-8.3,8.3c-4.6,0-8.3-3.7-8.3-8.3c0-4.6,3.7-8.4,8.3-8.4
		C-2091.1-4783.6-2087.4-4779.9-2087.4-4775.3"/>
	<path class="st1" d="M-2110.1-4746.4h-256.6c-3.4,0-6.1-2.7-6.1-6.1s2.7-6.1,6.1-6.1h256.6c3.4,0,6.1,2.7,6.1,6.1
		S-2106.8-4746.4-2110.1-4746.4"/>
	<path class="st1" d="M-2087.4-4752.5c0,4.6-3.7,8.4-8.3,8.4c-4.6,0-8.3-3.7-8.3-8.4c0-4.6,3.7-8.3,8.3-8.3
		C-2091.1-4760.9-2087.4-4757.1-2087.4-4752.5"/>
	<path class="st1" d="M-2110.1-4723.7h-256.6c-3.4,0-6.1-2.7-6.1-6.1s2.7-6.1,6.1-6.1h256.6c3.4,0,6.1,2.7,6.1,6.1
		S-2106.8-4723.7-2110.1-4723.7"/>
	<path class="st1" d="M-2087.4-4729.7c0,4.6-3.7,8.3-8.3,8.3c-4.6,0-8.3-3.7-8.3-8.3c0-4.6,3.7-8.3,8.3-8.3
		C-2091.1-4738.1-2087.4-4734.3-2087.4-4729.7"/>
	<path class="st1" d="M-2110.1-4700.9h-256.6c-3.4,0-6.1-2.7-6.1-6.1c0-3.4,2.7-6.1,6.1-6.1h256.6c3.4,0,6.1,2.7,6.1,6.1
		C-2104.1-4703.6-2106.8-4700.9-2110.1-4700.9"/>
	<path class="st1" d="M-2087.4-4707c0,4.6-3.7,8.3-8.3,8.3c-4.6,0-8.3-3.7-8.3-8.3s3.7-8.3,8.3-8.3
		C-2091.1-4715.3-2087.4-4711.6-2087.4-4707"/>
	<path class="st1" d="M-2110.1-4678.1h-256.6c-3.4,0-6.1-2.7-6.1-6.1c0-3.4,2.7-6.1,6.1-6.1h256.6c3.4,0,6.1,2.7,6.1,6.1
		C-2104.1-4680.8-2106.8-4678.1-2110.1-4678.1"/>
	<path class="st1" d="M-2087.4-4684.2c0,4.6-3.7,8.3-8.3,8.3c-4.6,0-8.3-3.7-8.3-8.3c0-4.6,3.7-8.3,8.3-8.3
		C-2091.1-4692.5-2087.4-4688.8-2087.4-4684.2"/>
	<path class="st1" d="M-2110.1-4655.4h-256.6c-3.4,0-6.1-2.7-6.1-6.1s2.7-6.1,6.1-6.1h256.6c3.4,0,6.1,2.7,6.1,6.1
		S-2106.8-4655.4-2110.1-4655.4"/>
	<path class="st1" d="M-2087.4-4661.4c0,4.6-3.7,8.3-8.3,8.3c-4.6,0-8.3-3.7-8.3-8.3c0-4.6,3.7-8.3,8.3-8.3
		C-2091.1-4669.8-2087.4-4666-2087.4-4661.4"/>
	<path class="st1" d="M-2110.1-4632.6h-256.6c-3.4,0-6.1-2.7-6.1-6.1s2.7-6.1,6.1-6.1h256.6c3.4,0,6.1,2.7,6.1,6.1
		S-2106.8-4632.6-2110.1-4632.6"/>
	<path class="st1" d="M-2087.4-4638.7c0,4.6-3.7,8.3-8.3,8.3c-4.6,0-8.3-3.7-8.3-8.3c0-4.6,3.7-8.3,8.3-8.3
		C-2091.1-4647-2087.4-4643.3-2087.4-4638.7"/>
	<path class="st2" d="M-1855.3-4797.2h24.5v-18.8c0-5.4,4.4-9.7,9.7-9.7h89.6c5.4,0,9.7,4.4,9.7,9.7v189.1c0,5.4-4.4,9.7-9.7,9.7
		h-89.6c-5.4,0-9.7-4.4-9.7-9.7v-18.8h-24.5c-5.4,0-9.7-4.4-9.7-9.7v-132.1C-1865.1-4792.8-1860.7-4797.2-1855.3-4797.2z"/>
	<path class="st3" d="M-1785.4-4777.2h14.2c2,0,3.6-1.6,3.6-3.6v-14.2c0-2-1.6-3.6-3.6-3.6h-14.2c-2,0-3.6,1.6-3.6,3.6v14.2
		C-1789-4778.8-1787.4-4777.2-1785.4-4777.2z"/>
	<path class="st3" d="M-1785.4-4732.9h14.2c2,0,3.6-1.6,3.6-3.6v-14.2c0-2-1.6-3.6-3.6-3.6h-14.2c-2,0-3.6,1.6-3.6,3.6v14.2
		C-1789-4734.5-1787.4-4732.9-1785.4-4732.9z"/>
	<path class="st3" d="M-1785.4-4688.6h14.2c2,0,3.6-1.6,3.6-3.6v-14.2c0-2-1.6-3.6-3.6-3.6h-14.2c-2,0-3.6,1.6-3.6,3.6v14.2
		C-1789-4690.2-1787.4-4688.6-1785.4-4688.6z"/>
	<path class="st3" d="M-1785.4-4644.2h14.2c2,0,3.6-1.6,3.6-3.6v-14.2c0-2-1.6-3.6-3.6-3.6h-14.2c-2,0-3.6,1.6-3.6,3.6v14.2
		C-1789-4645.8-1787.4-4644.2-1785.4-4644.2z"/>
	<path class="st4" d="M-1731.8-4562.1h-625.5c-22.6,0-40.9-18.3-40.9-40.9v-261.7c0-22.6,18.3-40.9,40.9-40.9h625.5
		c22.6,0,40.9,18.3,40.9,40.9v261.7C-1690.9-4580.4-1709.2-4562.1-1731.8-4562.1z"/>
</g>
<g>
	<g>
		<path class="st1" d="M84.5,68.6L39,96.5c-1.2,0.7-2,2.3-2,4v26.2l41.6,24h312.5V68.6H84.5z M90.8,139.4c-2,0-3.7-2.1-3.7-4.7
			c0-2.6,1.6-4.7,3.7-4.7s3.7,2.1,3.7,4.7C94.5,137.3,92.8,139.4,90.8,139.4 M90.8,114.4c-2,0-3.7-2.1-3.7-4.7
			c0-2.6,1.6-4.7,3.7-4.7s3.7,2.1,3.7,4.7C94.5,112.3,92.8,114.4,90.8,114.4 M90.8,89.5c-2,0-3.7-2.1-3.7-4.7c0-2.6,1.6-4.7,3.7-4.7
			s3.7,2.1,3.7,4.7C94.5,87.4,92.8,89.5,90.8,89.5 M155.6,139.4c-2,0-3.7-2.1-3.7-4.7c0-2.6,1.6-4.7,3.7-4.7c2,0,3.7,2.1,3.7,4.7
			C159.2,137.3,157.6,139.4,155.6,139.4 M155.6,114.4c-2,0-3.7-2.1-3.7-4.7c0-2.6,1.6-4.7,3.7-4.7c2,0,3.7,2.1,3.7,4.7
			C159.2,112.3,157.6,114.4,155.6,114.4 M155.6,89.5c-2,0-3.7-2.1-3.7-4.7c0-2.6,1.6-4.7,3.7-4.7c2,0,3.7,2.1,3.7,4.7
			C159.2,87.4,157.6,89.5,155.6,89.5 M220.3,139.4c-2,0-3.7-2.1-3.7-4.7c0-2.6,1.6-4.7,3.7-4.7c2,0,3.7,2.1,3.7,4.7
			C224,137.3,222.3,139.4,220.3,139.4 M220.3,114.4c-2,0-3.7-2.1-3.7-4.7c0-2.6,1.6-4.7,3.7-4.7c2,0,3.7,2.1,3.7,4.7
			C224,112.3,222.3,114.4,220.3,114.4 M220.3,89.5c-2,0-3.7-2.1-3.7-4.7c0-2.6,1.6-4.7,3.7-4.7c2,0,3.7,2.1,3.7,4.7
			C224,87.4,222.3,89.5,220.3,89.5 M285.1,139.4c-2,0-3.7-2.1-3.7-4.7c0-2.6,1.6-4.7,3.7-4.7c2,0,3.7,2.1,3.7,4.7
			C288.7,137.3,287.1,139.4,285.1,139.4 M285.1,114.4c-2,0-3.7-2.1-3.7-4.7c0-2.6,1.6-4.7,3.7-4.7c2,0,3.7,2.1,3.7,4.7
			C288.7,112.3,287.1,114.4,285.1,114.4 M285.1,89.5c-2,0-3.7-2.1-3.7-4.7c0-2.6,1.6-4.7,3.7-4.7c2,0,3.7,2.1,3.7,4.7
			C288.7,87.4,287.1,89.5,285.1,89.5 M349.8,139.4c-2,0-3.7-2.1-3.7-4.7c0-2.6,1.6-4.7,3.7-4.7c2,0,3.7,2.1,3.7,4.7
			C353.4,137.3,351.8,139.4,349.8,139.4 M349.8,114.4c-2,0-3.7-2.1-3.7-4.7c0-2.6,1.6-4.7,3.7-4.7c2,0,3.7,2.1,3.7,4.7
			C353.4,112.3,351.8,114.4,349.8,114.4 M349.8,89.5c-2,0-3.7-2.1-3.7-4.7c0-2.6,1.6-4.7,3.7-4.7c2,0,3.7,2.1,3.7,4.7
			C353.4,87.4,351.8,89.5,349.8,89.5"/>
		<path class="st1" d="M84.5,273.6L39,301.4c-1.2,0.7-2,2.3-2,4v26.2l41.6,24h312.5v-82.1H84.5z M90.8,344.3c-2,0-3.7-2.1-3.7-4.7
			c0-2.6,1.6-4.7,3.7-4.7s3.7,2.1,3.7,4.7C94.5,342.2,92.8,344.3,90.8,344.3 M90.8,319.4c-2,0-3.7-2.1-3.7-4.7
			c0-2.6,1.6-4.7,3.7-4.7s3.7,2.1,3.7,4.7C94.5,317.3,92.8,319.4,90.8,319.4 M90.8,294.4c-2,0-3.7-2.1-3.7-4.7
			c0-2.6,1.6-4.7,3.7-4.7s3.7,2.1,3.7,4.7C94.5,292.3,92.8,294.4,90.8,294.4 M155.6,344.3c-2,0-3.7-2.1-3.7-4.7
			c0-2.6,1.6-4.7,3.7-4.7c2,0,3.7,2.1,3.7,4.7C159.2,342.2,157.6,344.3,155.6,344.3 M155.6,319.4c-2,0-3.7-2.1-3.7-4.7
			c0-2.6,1.6-4.7,3.7-4.7c2,0,3.7,2.1,3.7,4.7C159.2,317.3,157.6,319.4,155.6,319.4 M155.6,294.4c-2,0-3.7-2.1-3.7-4.7
			c0-2.6,1.6-4.7,3.7-4.7c2,0,3.7,2.1,3.7,4.7C159.2,292.3,157.6,294.4,155.6,294.4 M220.3,344.3c-2,0-3.7-2.1-3.7-4.7
			c0-2.6,1.6-4.7,3.7-4.7c2,0,3.7,2.1,3.7,4.7C224,342.2,222.3,344.3,220.3,344.3 M220.3,319.4c-2,0-3.7-2.1-3.7-4.7
			c0-2.6,1.6-4.7,3.7-4.7c2,0,3.7,2.1,3.7,4.7C224,317.3,222.3,319.4,220.3,319.4 M220.3,294.4c-2,0-3.7-2.1-3.7-4.7
			c0-2.6,1.6-4.7,3.7-4.7c2,0,3.7,2.1,3.7,4.7C224,292.3,222.3,294.4,220.3,294.4 M285.1,344.3c-2,0-3.7-2.1-3.7-4.7
			c0-2.6,1.6-4.7,3.7-4.7c2,0,3.7,2.1,3.7,4.7C288.7,342.2,287.1,344.3,285.1,344.3 M285.1,319.4c-2,0-3.7-2.1-3.7-4.7
			c0-2.6,1.6-4.7,3.7-4.7c2,0,3.7,2.1,3.7,4.7C288.7,317.3,287.1,319.4,285.1,319.4 M285.1,294.4c-2,0-3.7-2.1-3.7-4.7
			c0-2.6,1.6-4.7,3.7-4.7c2,0,3.7,2.1,3.7,4.7C288.7,292.3,287.1,294.4,285.1,294.4 M349.8,344.3c-2,0-3.7-2.1-3.7-4.7
			c0-2.6,1.6-4.7,3.7-4.7c2,0,3.7,2.1,3.7,4.7C353.4,342.2,351.8,344.3,349.8,344.3 M349.8,319.4c-2,0-3.7-2.1-3.7-4.7
			c0-2.6,1.6-4.7,3.7-4.7c2,0,3.7,2.1,3.7,4.7C353.4,317.3,351.8,319.4,349.8,319.4 M349.8,294.4c-2,0-3.7-2.1-3.7-4.7
			c0-2.6,1.6-4.7,3.7-4.7c2,0,3.7,2.1,3.7,4.7C353.4,292.3,351.8,294.4,349.8,294.4"/>
	</g>
	<g>
		<rect x="260.3" y="36" class="st5" width="554.5" height="337.6"/>
		<g>
			<g>
				<path class="st6" d="M570.2,234.2l12.6-0.1l0.1,10.5c0,3,2.3,5.4,5,5.4l45.9-0.2c2.8,0,5-2.5,5-5.4l-0.6-105.4
					c0-3-2.3-5.4-5-5.4l-45.9,0.2c-2.8,0-5,2.5-5,5.4l0.1,10.5l-12.6,0.1c-2.8,0-5,2.5-5,5.4l0.4,73.6
					C565.2,231.8,567.4,234.2,570.2,234.2z"/>
				<path class="st7" d="M606.6,222.9l6.1,0c1.3,0,2.4,1.1,2.4,2.4l0,7c0,1.3-1.1,2.4-2.4,2.4l-6.1,0c-1.3,0-2.4-1.1-2.4-2.4l0-7
					C604.1,224,605.2,222.9,606.6,222.9z"/>
				<path class="st7" d="M606.4,198.2l6.1,0c1.3,0,2.4,1.1,2.4,2.4l0,7c0,1.3-1.1,2.4-2.4,2.4l-6.1,0c-1.3,0-2.4-1.1-2.4-2.4l0-7
					C604,199.3,605.1,198.2,606.4,198.2z"/>
				<path class="st7" d="M606.3,173.5l6.1,0c1.3,0,2.4,1.1,2.4,2.4l0,7c0,1.3-1.1,2.4-2.4,2.4l-6.1,0c-1.3,0-2.4-1.1-2.4-2.4l0-7
					C603.9,174.6,605,173.5,606.3,173.5z"/>
				<path class="st7" d="M606.2,148.7l6.1,0c1.3,0,2.4,1.1,2.4,2.4l0,7c0,1.3-1.1,2.4-2.4,2.4l-6.1,0c-1.3,0-2.4-1.1-2.4-2.4l0-7
					C603.7,149.8,604.8,148.8,606.2,148.7z"/>
				<rect x="440" y="109" class="st8" width="46" height="22.4"/>
				<rect x="451.8" y="173.9" class="st8" width="22.4" height="46"/>
				<rect x="440" y="267.9" class="st8" width="46" height="22.4"/>
			</g>
			<path class="st4" d="M645.3,370.1H433.4c-22.2,0-40.2-18-40.2-40.2V69.4c0-22.2,18-40.2,40.2-40.2h211.9
				c22.2,0,40.2,18,40.2,40.2v260.5C685.5,352.1,667.5,370.1,645.3,370.1z"/>
		</g>
	</g>
</g>
</svg>
