<?xml version="1.0" encoding="utf-8"?>
<!-- Generator: Adobe Illustrator 21.0.0, SVG Export Plug-In . SVG Version: 6.00 Build 0)  -->
<svg version="1.1" id="图层_1" xmlns="http://www.w3.org/2000/svg" xmlns:xlink="http://www.w3.org/1999/xlink" x="0px" y="0px"
	 viewBox="0 0 480 400" style="enable-background:new 0 0 480 400;" xml:space="preserve">
<style type="text/css">
	.st0{fill:#FFFFFF;}
	.st1{opacity:0.8;}
</style>
<g>
	<path class="st0" d="M373.2,400H41.6c-21.9,0-39.8-17.9-39.8-39.8V39.8C1.8,17.9,19.7,0,41.6,0h331.6C395.2,0,413,17.9,413,39.8V68
		l38.5,9.7c14.7,4.2,25,17.8,25,33.1v178.4c0,15.3-10.3,28.9-25,33.1l-0.3,0.1L413,332v28.2C413,382.1,395.2,400,373.2,400z
		 M41.6,18.9c-11.5,0-20.9,9.4-20.9,20.9v320.4c0,11.5,9.4,20.9,20.9,20.9h331.6c11.5,0,20.9-9.4,20.9-20.9v-42.9l52.4-13.2
		c6.6-1.9,11.2-8,11.2-14.9V110.8c0-6.9-4.6-13-11.2-14.9l-52.4-13.2V39.8c0-11.5-9.4-20.9-20.9-20.9H41.6z"/>
</g>
<g>
	<path class="st0" d="M421.9,160.5c-18.4,0-33.4-15-33.4-33.4s15-33.4,33.4-33.4c18.4,0,33.4,15,33.4,33.4S440.3,160.5,421.9,160.5z
		 M421.9,112.5c-8,0-14.5,6.5-14.5,14.5s6.5,14.5,14.5,14.5c8,0,14.5-6.5,14.5-14.5S429.9,112.5,421.9,112.5z"/>
</g>
<g>
	<path class="st0" d="M421.9,233.4c-18.4,0-33.4-15-33.4-33.4s15-33.4,33.4-33.4c18.4,0,33.4,15,33.4,33.4S440.3,233.4,421.9,233.4z
		 M421.9,185.5c-8,0-14.5,6.5-14.5,14.5c0,8,6.5,14.5,14.5,14.5c8,0,14.5-6.5,14.5-14.5C436.5,192,429.9,185.5,421.9,185.5z"/>
</g>
<g>
	<path class="st0" d="M421.9,306.3c-18.4,0-33.4-15-33.4-33.4c0-18.4,15-33.4,33.4-33.4c18.4,0,33.4,15,33.4,33.4
		C455.3,291.4,440.3,306.3,421.9,306.3z M421.9,258.4c-8,0-14.5,6.5-14.5,14.5c0,8,6.5,14.5,14.5,14.5c8,0,14.5-6.5,14.5-14.5
		C436.5,264.9,429.9,258.4,421.9,258.4z"/>
</g>
<g class="st1">
	<path class="st0" d="M317.3,336.4H91.8c-17.5,0-31.8-14.2-31.8-31.8V98.8C60.1,81.3,74.3,67,91.8,67h225.4
		c17.5,0,31.8,14.2,31.8,31.8v205.8C349,322.1,334.8,336.4,317.3,336.4z"/>
</g>
</svg>
