<?xml version="1.0" encoding="utf-8"?>
<!-- Generator: Adobe Illustrator 22.0.0, SVG Export Plug-In . SVG Version: 6.00 Build 0)  -->
<svg version="1.1" id="图层_1" xmlns="http://www.w3.org/2000/svg" xmlns:xlink="http://www.w3.org/1999/xlink" x="0px" y="0px"
	 viewBox="0 0 480 400" style="enable-background:new 0 0 480 400;" xml:space="preserve">
<style type="text/css">
	.st0{opacity:0.4;fill:#FFFFFF;}
	.st1{fill:#FFFFFF;}
	.st2{fill:none;stroke:#FFFFFF;stroke-width:2.632;stroke-miterlimit:10;}
	.st3{clip-path:url(#SVGID_2_);}
	.st4{fill:none;stroke:#FFFFFF;stroke-width:0.6758;stroke-miterlimit:10;}
	.st5{clip-path:url(#SVGID_4_);}
	.st6{opacity:0.4;clip-path:url(#SVGID_6_);fill:#FFFFFF;}
	.st7{clip-path:url(#SVGID_6_);}
	.st8{opacity:0.4;clip-path:url(#SVGID_8_);fill:#FFFFFF;}
	.st9{clip-path:url(#SVGID_8_);}
	.st10{fill:none;stroke:#FFFFFF;stroke-width:18.563;stroke-miterlimit:10;}
</style>
<g>
	<g>
		<g>
			<g>
				<g>
					<path class="st0" d="M203.8,243.5l-16.6-1c-0.8,0-1.4-0.6-1.3-1.2l0.2-2.5c0.1-0.6,0.8-1.1,1.5-1l16.6,1c0.8,0,1.4,0.6,1.3,1.2
						l-0.2,2.5C205.3,243.1,204.6,243.6,203.8,243.5z"/>
					<polygon class="st0" points="199.3,249.1 190.4,248.6 191,242.7 199.9,243.3 					"/>
				</g>
				<polygon class="st0" points="203.9,253.4 185,252.3 185.4,248.3 204.3,249.4 				"/>
				<g>
					<path class="st0" d="M204.1,271.5l-22.7-1.3c-1.3-0.1-2.3-1-2.2-2l1.6-16.3c0.1-1,1.3-1.8,2.6-1.7l22.7,1.3
						c1.3,0.1,2.3,1,2.2,2l-1.6,16.3C206.6,270.8,205.5,271.6,204.1,271.5z"/>
					<path class="st0" d="M207.2,255.6l-3.2-0.2c-0.5,0-0.9-0.4-0.8-0.8l0.2-2.5c0-0.4-0.3-0.8-0.8-0.8l-15.7-0.9
						c-0.5,0-1,0.3-1,0.7l-0.2,2.5c0,0.4-0.5,0.8-1,0.7l-3.2-0.2c-0.5,0-1,0.3-1,0.7l-0.1,1.4c0,0.4,0.3,0.8,0.8,0.8l3.2,0.2
						c0.5,0,0.9,0.4,0.8,0.8l-1.1,11.5c0,0.4,0.3,0.8,0.8,0.8l15.7,0.9c0.5,0,1-0.3,1-0.7l1.1-11.5c0-0.4,0.5-0.8,1-0.7l3.2,0.2
						c0.5,0,1-0.3,1-0.7l0.1-1.4C208.1,256,207.7,255.6,207.2,255.6z"/>
					<g>
						<ellipse class="st0" cx="193.3" cy="265.8" rx="2.4" ry="1.9"/>
						<g>
							<path class="st1" d="M193.9,264.5l-0.2,2.6c0,0.1-0.2,0.3-0.4,0.2l-0.2,0c-0.2,0-0.3-0.1-0.3-0.3l0.2-2.6
								c0-0.1,0.2-0.3,0.4-0.2l0.2,0C193.7,264.2,193.9,264.3,193.9,264.5z"/>
							<path class="st1" d="M191.6,265.3l3.3,0.2c0.2,0,0.3,0.1,0.3,0.3l0,0.2c0,0.1-0.2,0.3-0.4,0.2l-3.3-0.2
								c-0.2,0-0.3-0.1-0.3-0.3l0-0.2C191.3,265.4,191.5,265.3,191.6,265.3z"/>
						</g>
					</g>
					<g>
						<path class="st1" d="M189.6,255.5l4.1,0.2l-0.1,0.7l-2.7-0.2l-0.1,1.1l2.3,0.1l-0.1,0.7l-2.3-0.1l-0.2,1.7l-1.3-0.1
							L189.6,255.5z"/>
						<path class="st1" d="M194.1,259.4c1.9-0.9,3-1.6,3.1-2.2c0-0.4-0.3-0.7-0.9-0.7c-0.5,0-0.9,0.1-1.3,0.4l-0.7-0.5
							c0.6-0.4,1.3-0.6,2.2-0.5c1.2,0.1,2,0.6,2,1.4c-0.1,0.7-1.1,1.5-2.4,2.2c0.3,0,0.8,0,1.1,0l1.4,0.1l-0.1,0.7l-4.4-0.3
							L194.1,259.4z"/>
					</g>
				</g>
				<path class="st0" d="M211.7,344c-0.1,0.7-1,1.3-2,1.2l-5.9-0.3c-1-0.1-1.9,0.5-2,1.3c-0.1,0.8-1,1.4-2.1,1.3l-34.9-3
					c-1-0.1-1.7-0.8-1.7-1.5l0.1-0.9c0.1-0.8-0.7-1.4-1.6-1.5l-6.4-0.6c-1-0.1-1.8-0.8-1.6-1.6l3.1-17.1l-4-0.3
					c-5.2-0.5-9.9,2.2-10.9,6.1l-6,23.7c-1.1,4.4,2.9,8.5,8.6,9l63.5,5.6l7.2-39l0,0L211.7,344z"/>
				<path class="st0" d="M222.6,287.8c0.1-0.3,0-0.7-0.2-1l-6.9-8.7c-0.3-0.4-0.8-0.6-1.4-0.7l-4.1-0.3l0.6-6.1
					c0.1-1.4-1.2-2.5-3-2.7l-29.1-1.7c-1.8-0.1-3.3,0.9-3.4,2.3l-0.5,5.2l-0.2,0c-0.6,0-1.1,0.1-1.5,0.4l-8.7,6.9
					c-0.3,0.2-0.5,0.5-0.5,0.8l-7,39l58.4,5.1L222.6,287.8z"/>
				<path class="st0" d="M155.2,340l6.4,0.6c1,0.1,1.7,0.8,1.6,1.5l-0.1,0.9c-0.1,0.8,0.7,1.4,1.7,1.5l34.9,3c1,0.1,2-0.5,2.1-1.3
					c0.1-0.8,1-1.3,2-1.3l5.9,0.3c1,0.1,1.8-0.5,2-1.2l3.4-17.6l-58.4-5.1l-3.1,17.1C153.5,339.1,154.2,339.9,155.2,340z"/>
				<g>
					<ellipse class="st0" cx="188.7" cy="298.1" rx="6.4" ry="4.9"/>
					<g>
						<path class="st1" d="M190.3,294.8l-0.6,6.8c0,0.4-0.5,0.7-1,0.7l-0.6,0c-0.5,0-0.9-0.4-0.9-0.8l0.6-6.8c0-0.4,0.5-0.7,1-0.7
							l0.6,0C189.9,294.1,190.3,294.4,190.3,294.8z"/>
						<path class="st1" d="M184.4,296.9l8.8,0.5c0.5,0,0.9,0.4,0.9,0.8l0,0.5c0,0.4-0.5,0.7-1,0.7l-8.8-0.5c-0.5,0-0.9-0.4-0.9-0.8
							l0-0.5C183.5,297.2,183.9,296.9,184.4,296.9z"/>
					</g>
				</g>
				<g>
					<ellipse class="st0" cx="185.5" cy="320.5" rx="6.4" ry="4.9"/>
					<g>
						<path class="st1" d="M187,317.2l-0.6,6.8c0,0.4-0.5,0.7-1,0.7l-0.6,0c-0.5,0-0.9-0.4-0.9-0.8l0.6-6.8c0-0.4,0.5-0.7,1-0.7
							l0.6,0C186.7,316.5,187,316.8,187,317.2z"/>
						<path class="st1" d="M181.2,319.4l8.8,0.5c0.5,0,0.9,0.4,0.9,0.8l0,0.5c0,0.4-0.5,0.7-1,0.7l-8.8-0.5c-0.5,0-0.9-0.4-0.9-0.8
							l0-0.5C180.2,319.6,180.7,319.3,181.2,319.4z"/>
					</g>
				</g>
				<g>
					<path class="st1" d="M177.3,328.8l5.7,0.3l-0.1,1.2l-3.8-0.2l-0.2,1.9l3.3,0.2l-0.1,1.2l-3.3-0.2l-0.3,2.9l-1.8-0.1
						L177.3,328.8z"/>
					<path class="st1" d="M183.1,335.5l0.9-0.9c0.5,0.4,1.1,0.8,2,0.8c1,0.1,1.7-0.4,1.8-1.2c0.1-0.8-0.5-1.3-1.4-1.4
						c-0.5,0-0.9,0.1-1.4,0.3l-0.8-0.5l0.6-3.4l4.9,0.3l-0.1,1.2l-3.4-0.2l-0.3,1.5c0.4-0.1,0.7-0.2,1.1-0.1
						c1.5,0.1,2.8,0.9,2.6,2.4c-0.2,1.6-1.8,2.4-3.5,2.3C184.7,336.5,183.8,336,183.1,335.5z"/>
				</g>
				<path class="st0" d="M135.6,352c-0.2,3.9,3.6,7.4,8.8,7.8l63.5,5.6l1.2-6.3L135.6,352z"/>
			</g>
			<g>
				<g>
					<path class="st0" d="M274.1,244.3l16.6-1c0.8,0,1.4-0.6,1.3-1.2l-0.2-2.5c-0.1-0.6-0.8-1.1-1.5-1l-16.6,1
						c-0.8,0-1.4,0.6-1.3,1.2l0.2,2.5C272.6,243.9,273.3,244.3,274.1,244.3z"/>
					<polygon class="st0" points="278.5,249.9 287.5,249.4 286.9,243.5 277.9,244.1 					"/>
				</g>
				<polygon class="st0" points="273.9,254.2 292.8,253.1 292.4,249.1 273.5,250.2 				"/>
				<g>
					<path class="st0" d="M273.7,272.3l22.7-1.3c1.3-0.1,2.3-1,2.2-2l-1.6-16.3c-0.1-1-1.3-1.8-2.6-1.7l-22.7,1.3
						c-1.3,0.1-2.3,1-2.2,2l1.6,16.3C271.2,271.6,272.4,272.4,273.7,272.3z"/>
					<path class="st0" d="M270.7,256.4l3.2-0.2c0.5,0,0.9-0.4,0.8-0.8l-0.2-2.5c0-0.4,0.3-0.8,0.8-0.8l15.7-0.9c0.5,0,1,0.3,1,0.7
						l0.2,2.5c0,0.4,0.5,0.8,1,0.7l3.2-0.2c0.5,0,1,0.3,1,0.7l0.1,1.4c0,0.4-0.3,0.8-0.8,0.8l-3.2,0.2c-0.5,0-0.9,0.4-0.8,0.8
						l1.1,11.5c0,0.4-0.3,0.8-0.8,0.8l-15.7,0.9c-0.5,0-1-0.3-1-0.7l-1.1-11.5c0-0.4-0.5-0.8-1-0.7l-3.2,0.2c-0.5,0-1-0.3-1-0.7
						l-0.1-1.4C269.8,256.8,270.1,256.4,270.7,256.4z"/>
					<g>
						<ellipse class="st0" cx="284.6" cy="266.5" rx="2.4" ry="1.9"/>
						<g>
							<path class="st1" d="M284,265.3l0.2,2.6c0,0.1,0.2,0.3,0.4,0.2l0.2,0c0.2,0,0.3-0.1,0.3-0.3l-0.2-2.6c0-0.1-0.2-0.3-0.4-0.2
								l-0.2,0C284.1,265,284,265.1,284,265.3z"/>
							<path class="st1" d="M286.2,266.1l-3.3,0.2c-0.2,0-0.3,0.1-0.3,0.3l0,0.2c0,0.1,0.2,0.3,0.4,0.2l3.3-0.2
								c0.2,0,0.3-0.1,0.3-0.3l0-0.2C286.6,266.2,286.4,266.1,286.2,266.1z"/>
						</g>
					</g>
					<g>
						<path class="st1" d="M288.7,260.4l-1.3,0.1l-0.2-1.7l-2.3,0.1l-0.1-0.7l2.3-0.1L287,257l-2.7,0.2l-0.1-0.7l4.1-0.2
							L288.7,260.4z"/>
						<path class="st1" d="M283.9,260.7l-4.4,0.3l-0.1-0.7l1.4-0.1c0.3,0,0.7,0,1.1,0c-1.3-0.7-2.3-1.4-2.4-2.2
							c-0.1-0.8,0.7-1.3,2-1.4c0.9-0.1,1.5,0.1,2.2,0.5l-0.7,0.5c-0.4-0.2-0.8-0.4-1.3-0.4c-0.6,0-1,0.3-0.9,0.7
							c0.1,0.6,1.2,1.3,3.1,2.2L283.9,260.7z"/>
					</g>
				</g>
				<path class="st0" d="M266.2,344.8c0.1,0.7,1,1.3,2,1.2l5.9-0.3c1-0.1,1.9,0.5,2,1.3c0.1,0.8,1,1.4,2.1,1.3l34.9-3
					c1-0.1,1.7-0.8,1.7-1.5l-0.1-0.9c-0.1-0.8,0.7-1.4,1.6-1.5l6.4-0.6c1-0.1,1.8-0.8,1.6-1.6l-3.1-17.1l4-0.3
					c5.2-0.5,9.9,2.2,10.9,6.1l6,23.7c1.1,4.4-2.9,8.5-8.6,9l-63.5,5.6l-7.2-39l0,0L266.2,344.8z"/>
				<path class="st0" d="M255.3,288.6c-0.1-0.3,0-0.7,0.2-1l6.9-8.7c0.3-0.4,0.8-0.6,1.4-0.7l4.1-0.3l-0.6-6.1
					c-0.1-1.4,1.2-2.5,3-2.7l29.1-1.7c1.8-0.1,3.3,0.9,3.4,2.3l0.5,5.2l0.2,0c0.6,0,1.1,0.1,1.5,0.4l8.7,6.9
					c0.3,0.2,0.5,0.5,0.5,0.8l7,39l-58.4,5.1L255.3,288.6z"/>
				<path class="st0" d="M322.6,340.8l-6.4,0.6c-1,0.1-1.7,0.8-1.6,1.5l0.1,0.9c0.1,0.8-0.7,1.4-1.7,1.5l-34.9,3
					c-1,0.1-2-0.5-2.1-1.3c-0.1-0.8-1-1.3-2-1.3l-5.9,0.3c-1,0.1-1.8-0.5-2-1.2l-3.4-17.6l58.4-5.1l3.1,17.1
					C324.4,339.9,323.7,340.7,322.6,340.8z"/>
				<g>
					<ellipse class="st0" cx="289.2" cy="298.9" rx="6.4" ry="4.9"/>
					<g>
						<path class="st1" d="M287.6,295.6l0.6,6.8c0,0.4,0.5,0.7,1,0.7l0.6,0c0.5,0,0.9-0.4,0.9-0.8l-0.6-6.8c0-0.4-0.5-0.7-1-0.7
							l-0.6,0C288,294.9,287.6,295.2,287.6,295.6z"/>
						<path class="st1" d="M293.5,297.7l-8.8,0.5c-0.5,0-0.9,0.4-0.9,0.8l0,0.5c0,0.4,0.5,0.7,1,0.7l8.8-0.5c0.5,0,0.9-0.4,0.9-0.8
							l0-0.5C294.4,298,294,297.7,293.5,297.7z"/>
					</g>
				</g>
				<g>
					<ellipse class="st0" cx="292.4" cy="321.3" rx="6.4" ry="4.9"/>
					<g>
						<path class="st1" d="M290.9,318l0.6,6.8c0,0.4,0.5,0.7,1,0.7l0.6,0c0.5,0,0.9-0.4,0.9-0.8l-0.6-6.8c0-0.4-0.5-0.7-1-0.7
							l-0.6,0C291.2,317.3,290.8,317.6,290.9,318z"/>
						<path class="st1" d="M296.7,320.2l-8.8,0.5c-0.5,0-0.9,0.4-0.9,0.8l0,0.5c0,0.4,0.5,0.7,1,0.7l8.8-0.5c0.5,0,0.9-0.4,0.9-0.8
							l0-0.5C297.7,320.4,297.2,320.1,296.7,320.2z"/>
					</g>
				</g>
				<g>
					<path class="st1" d="M301.3,336.7l-1.8,0.1l-0.3-2.9l-3.3,0.2l-0.1-1.2l3.3-0.2l-0.2-1.9l-3.8,0.2l-0.1-1.2l5.7-0.3
						L301.3,336.7z"/>
					<path class="st1" d="M291.7,337.4c-1.7,0.1-3.3-0.7-3.5-2.3c-0.2-1.5,1.1-2.3,2.6-2.4c0.4,0,0.8,0,1.1,0.1l-0.3-1.5l-3.4,0.2
						l-0.1-1.2l4.9-0.3l0.6,3.4l-0.8,0.5c-0.6-0.2-0.9-0.3-1.4-0.3c-0.9,0.1-1.5,0.6-1.4,1.4c0.1,0.8,0.8,1.3,1.8,1.2
						c0.9-0.1,1.5-0.4,2-0.8l0.9,0.9C294.1,336.8,293.2,337.3,291.7,337.4z"/>
				</g>
				<path class="st0" d="M342.3,352.7c0.2,3.9-3.6,7.4-8.8,7.8l-63.5,5.6l-1.2-6.3L342.3,352.7z"/>
			</g>
		</g>
		<g>
			<path class="st1" d="M162.9,64.2L151,63.6c-1.4-0.1-2.2-1.2-1.6-2.1c1.3-2,4.2-4.9,10.5-5.1c0,0,21.1-2.1,32.9,3.6
				c0.7,0.3,1.6,0.4,2.3,0.2c1.4-0.4,2.1-1.7-6.8-6c-0.2-0.1-0.5-0.2-0.8-0.3c-2.6-0.9-17.3-5.6-25.7-5c-1.1,0.1-1.7-0.9-1-1.5
				c1.9-1.8,6.4-3.9,15.9-2.3c0,0,22.9,2.8,30.8,10.6c0,0,6.7,1.3,0-3.7c0,0-18.5-10.2-29-12c-1.1-0.2-1.2-1.3-0.2-1.7
				c4.6-1.7,13.1-3.9,21.7-1.1c0,0,13.8,2.5,23.7,14.4c0,0,8.2,1.5,0-6.3c0,0-5.3-6.7-9.9-9.4c-1-0.6-0.7-1.7,0.4-2.1
				c3.3-0.9,8.8-1.6,13.1,1.8c0,0,7.6,7.4,9.4,12.4c0.5,1.3,2.8,1.4,3.3,0.1c0.2-0.4,0.4-0.9,0.5-1.6c0,0,4.6-9.6,8.9-11.4
				c0.7-0.3,1.4-0.6,2.1-1l0.4-0.3c0.9-0.6,2.1-0.8,3.3-0.5l6.4,1.2c1.2,0.2,1.7,1.4,0.9,2.1c-4,3.4-12.7,11.1-13.2,14.3
				c0,0,1.7,3.7,6.9-3.3c0,0,14.6-11.5,29.1-10c0,0,6.9-0.1,11.3,1.7c1.1,0.4,1,1.6-0.1,2c-6.4,2.1-24.2,8-29.6,12.1
				c-0.8,0.6-1.2,1.6-0.8,2.5c0.4,1,1.7,1.4,5.4-2.1c0,0,23.3-9.3,35-7.1c0,0,4.2-0.4,6.7,2.6c0.5,0.5,0,1.3-0.8,1.3
				c-5.4,0.4-22.5,2.1-31.1,7.5c-0.6,0.4-1,1-1,1.6c0,0.9,0.9,1.6,5,0c0,0,16.7-5,30.7-1.3c0,0,4.6,0.3,7.9,3.7
				c0.8,0.8,0.2,1.9-1.1,2.1c-3.3,0.4-9.1,1.1-13.1,0.9c-0.8,0-1.4,0.5-1.2,1.1c0.2,0.6,1.2,1.3,4.2,1.8c3.4,0.5,6.6,1.6,9.1,3.3
				c4.9,3.4,11,10,10.9,22.1l0,0.4c0,2.1-2.2,3.8-4.9,3.8l-183.6-1c-1.6,0-2.7-1.1-2.5-2.3c0.8-4,2.7-12.3,4.4-17.3
				c0.7-2.2,2.2-4.1,4.3-5.7c3.4-2.6,9.2-6.5,12.8-6.2l0,0C164.2,65.2,163.8,64.3,162.9,64.2z"/>
			<g>
				<g>
					<ellipse class="st0" cx="204.6" cy="115.9" rx="10.4" ry="8"/>
					<g>
						<ellipse class="st2" cx="204.6" cy="115.9" rx="20.5" ry="15.8"/>
						<g>
							<defs>
								<ellipse id="SVGID_1_" cx="204.5" cy="115.9" rx="20.5" ry="15.8"/>
							</defs>
							<clipPath id="SVGID_2_">
								<use xlink:href="#SVGID_1_"  style="overflow:visible;"/>
							</clipPath>
							<g class="st3">
								<line class="st4" x1="156.2" y1="102.4" x2="249.7" y2="102.4"/>
								<line class="st4" x1="155.9" y1="105.8" x2="249.4" y2="105.8"/>
								<line class="st4" x1="155.6" y1="109.2" x2="249.2" y2="109.2"/>
								<line class="st4" x1="155.4" y1="112.5" x2="248.9" y2="112.5"/>
								<line class="st4" x1="155.1" y1="115.9" x2="248.7" y2="115.9"/>
								<line class="st4" x1="154.9" y1="119.2" x2="248.4" y2="119.2"/>
								<line class="st4" x1="154.6" y1="122.6" x2="248.1" y2="122.6"/>
								<line class="st4" x1="154.4" y1="126" x2="247.9" y2="126"/>
								<line class="st4" x1="154.1" y1="129.3" x2="247.6" y2="129.3"/>
								<line class="st4" x1="162.8" y1="95.7" x2="162.8" y2="138.6"/>
								<line class="st4" x1="167.2" y1="95.9" x2="167.2" y2="138.8"/>
								<line class="st4" x1="171.6" y1="96.1" x2="171.6" y2="139"/>
								<line class="st4" x1="175.9" y1="96.3" x2="175.9" y2="139.2"/>
								<line class="st4" x1="180.3" y1="96.5" x2="180.3" y2="139.4"/>
								<line class="st4" x1="184.7" y1="96.7" x2="184.7" y2="139.6"/>
								<line class="st4" x1="189" y1="96.9" x2="189" y2="139.8"/>
								<line class="st4" x1="193.4" y1="97.1" x2="193.4" y2="140"/>
								<line class="st4" x1="197.8" y1="97.3" x2="197.8" y2="140.2"/>
								<line class="st4" x1="202.2" y1="97.5" x2="202.2" y2="140.4"/>
								<line class="st4" x1="206.5" y1="97.7" x2="206.5" y2="140.6"/>
								<line class="st4" x1="210.9" y1="97.9" x2="210.9" y2="140.8"/>
								<line class="st4" x1="215.3" y1="98.1" x2="215.3" y2="141"/>
								<line class="st4" x1="219.6" y1="98.3" x2="219.6" y2="141.2"/>
								<line class="st4" x1="224" y1="98.5" x2="224" y2="141.4"/>
								<line class="st4" x1="228.4" y1="98.7" x2="228.4" y2="141.6"/>
								<line class="st4" x1="232.7" y1="98.9" x2="232.7" y2="141.8"/>
								<line class="st4" x1="237.1" y1="99.1" x2="237.1" y2="141.9"/>
								<line class="st4" x1="241.5" y1="99.3" x2="241.5" y2="142.1"/>
								<line class="st4" x1="245.8" y1="99.5" x2="245.8" y2="142.3"/>
							</g>
						</g>
					</g>
				</g>
				<g>
					<ellipse class="st0" cx="273.8" cy="115.9" rx="10.4" ry="8"/>
					<g>
						<ellipse class="st2" cx="273.7" cy="115.9" rx="20.5" ry="15.8"/>
						<g>
							<defs>
								<ellipse id="SVGID_3_" cx="273.9" cy="115.9" rx="20.5" ry="15.8"/>
							</defs>
							<clipPath id="SVGID_4_">
								<use xlink:href="#SVGID_3_"  style="overflow:visible;"/>
							</clipPath>
							<g class="st5">
								<line class="st4" x1="322.2" y1="102.4" x2="228.7" y2="102.4"/>
								<line class="st4" x1="322.5" y1="105.8" x2="228.9" y2="105.8"/>
								<line class="st4" x1="322.7" y1="109.2" x2="229.2" y2="109.2"/>
								<line class="st4" x1="323" y1="112.5" x2="229.4" y2="112.5"/>
								<line class="st4" x1="323.2" y1="115.9" x2="229.7" y2="115.9"/>
								<line class="st4" x1="323.5" y1="119.2" x2="230" y2="119.2"/>
								<line class="st4" x1="323.7" y1="122.6" x2="230.2" y2="122.6"/>
								<line class="st4" x1="324" y1="126" x2="230.5" y2="126"/>
								<line class="st4" x1="324.3" y1="129.3" x2="230.7" y2="129.3"/>
								<line class="st4" x1="315.5" y1="95.7" x2="315.5" y2="138.6"/>
								<line class="st4" x1="311.2" y1="95.9" x2="311.2" y2="138.8"/>
								<line class="st4" x1="306.8" y1="96.1" x2="306.8" y2="139"/>
								<line class="st4" x1="302.4" y1="96.3" x2="302.4" y2="139.2"/>
								<line class="st4" x1="298" y1="96.5" x2="298" y2="139.4"/>
								<line class="st4" x1="293.7" y1="96.7" x2="293.7" y2="139.6"/>
								<line class="st4" x1="289.3" y1="96.9" x2="289.3" y2="139.8"/>
								<line class="st4" x1="284.9" y1="97.1" x2="284.9" y2="140"/>
								<line class="st4" x1="280.6" y1="97.3" x2="280.6" y2="140.2"/>
								<line class="st4" x1="276.2" y1="97.5" x2="276.2" y2="140.4"/>
								<line class="st4" x1="271.8" y1="97.7" x2="271.8" y2="140.6"/>
								<line class="st4" x1="267.5" y1="97.9" x2="267.5" y2="140.8"/>
								<line class="st4" x1="263.1" y1="98.1" x2="263.1" y2="141"/>
								<line class="st4" x1="258.7" y1="98.3" x2="258.7" y2="141.2"/>
								<line class="st4" x1="254.4" y1="98.5" x2="254.4" y2="141.4"/>
								<line class="st4" x1="250" y1="98.7" x2="250" y2="141.6"/>
								<line class="st4" x1="245.6" y1="98.9" x2="245.6" y2="141.8"/>
								<line class="st4" x1="241.3" y1="99.1" x2="241.3" y2="141.9"/>
								<line class="st4" x1="236.9" y1="99.3" x2="236.9" y2="142.1"/>
								<line class="st4" x1="232.5" y1="99.5" x2="232.5" y2="142.3"/>
							</g>
						</g>
					</g>
				</g>
			</g>
			<g>
				<defs>
					<path id="SVGID_5_" d="M327.3,162.6H151.1c-4.1,0-7.4-3.3-7.4-7.4V101c0-4.1,3.3-7.4,7.4-7.4h176.2c4.1,0,7.4,3.3,7.4,7.4v54.2
						C334.7,159.2,331.4,162.6,327.3,162.6z"/>
				</defs>
				<clipPath id="SVGID_6_">
					<use xlink:href="#SVGID_5_"  style="overflow:visible;"/>
				</clipPath>
				<path class="st6" d="M327.3,162.6H151.1c-4.1,0-7.4-3.3-7.4-7.4V101c0-4.1,3.3-7.4,7.4-7.4h176.2c4.1,0,7.4,3.3,7.4,7.4v54.2
					C334.7,159.2,331.4,162.6,327.3,162.6z"/>
				<g class="st7">
					<g>
						<g>
							<path class="st1" d="M142.8,98.7V138c0,0.8,0.8,1.5,1.8,1.5h3.6c1,0,1.8-0.7,1.8-1.5V98.7c0-0.8-0.8-1.5-1.8-1.5h-3.6
								C143.6,97.2,142.8,97.8,142.8,98.7z M147.7,135.2c0,0.7-0.6,1.2-1.4,1.2c-0.7,0-1.3-0.6-1.3-1.3v-33.5c0-0.6,0.6-1.2,1.3-1.3
								c0.8,0,1.4,0.5,1.4,1.2V135.2z"/>
							<path class="st1" d="M142.8,128.8v39.4c0,0.8,0.8,1.5,1.8,1.5h3.6c1,0,1.8-0.7,1.8-1.5v-39.4c0-0.8-0.8-1.5-1.8-1.5h-3.6
								C143.6,127.3,142.8,127.9,142.8,128.8z M147.7,165.3c0,0.7-0.6,1.2-1.4,1.2c-0.7,0-1.3-0.6-1.3-1.3v-33.5
								c0-0.6,0.6-1.2,1.3-1.3c0.8,0,1.4,0.5,1.4,1.2V165.3z"/>
						</g>
						<g>
							<path class="st1" d="M150,94.2v39.4c0,0.8,0.8,1.5,1.8,1.5h3.6c1,0,1.8-0.7,1.8-1.5V94.2c0-0.8-0.8-1.5-1.8-1.5h-3.6
								C150.8,92.7,150,93.4,150,94.2z M154.9,130.7c0,0.7-0.6,1.2-1.4,1.2c-0.7,0-1.3-0.6-1.3-1.3V97.1c0-0.6,0.6-1.2,1.3-1.3
								c0.8,0,1.4,0.5,1.4,1.2V130.7z"/>
							<path class="st1" d="M150,124.3v39.4c0,0.8,0.8,1.5,1.8,1.5h3.6c1,0,1.8-0.7,1.8-1.5v-39.4c0-0.8-0.8-1.5-1.8-1.5h-3.6
								C150.8,122.8,150,123.5,150,124.3z M154.9,160.8c0,0.7-0.6,1.2-1.4,1.2c-0.7,0-1.3-0.6-1.3-1.3v-33.5c0-0.6,0.6-1.2,1.3-1.3
								c0.8,0,1.4,0.5,1.4,1.2V160.8z"/>
						</g>
						<g>
							<path class="st1" d="M137.9,94.2v39.4c0,0.8,0.8,1.5,1.8,1.5h3.6c1,0,1.8-0.7,1.8-1.5V94.2c0-0.8-0.8-1.5-1.8-1.5h-3.6
								C138.6,92.7,137.9,93.4,137.9,94.2z M142.8,130.7c0,0.7-0.6,1.2-1.4,1.2c-0.7,0-1.3-0.6-1.3-1.3V97.1c0-0.6,0.6-1.2,1.3-1.3
								c0.8,0,1.4,0.5,1.4,1.2V130.7z"/>
							<path class="st1" d="M137.9,124.3v39.4c0,0.8,0.8,1.5,1.8,1.5h3.6c1,0,1.8-0.7,1.8-1.5v-39.4c0-0.8-0.8-1.5-1.8-1.5h-3.6
								C138.6,122.8,137.9,123.5,137.9,124.3z M142.8,160.8c0,0.7-0.6,1.2-1.4,1.2c-0.7,0-1.3-0.6-1.3-1.3v-33.5
								c0-0.6,0.6-1.2,1.3-1.3c0.8,0,1.4,0.5,1.4,1.2V160.8z"/>
						</g>
					</g>
					<g>
						<g>
							<path class="st1" d="M162,98v39.4c0,0.8,0.8,1.5,1.8,1.5h3.6c1,0,1.8-0.7,1.8-1.5V98c0-0.8-0.8-1.5-1.8-1.5h-3.6
								C162.8,96.4,162,97.1,162,98z M166.9,134.5c0,0.7-0.6,1.2-1.4,1.2c-0.7,0-1.3-0.6-1.3-1.3v-33.5c0-0.6,0.6-1.2,1.3-1.3
								c0.8,0,1.4,0.5,1.4,1.2V134.5z"/>
							<path class="st1" d="M162,128.1v39.4c0,0.8,0.8,1.5,1.8,1.5h3.6c1,0,1.8-0.7,1.8-1.5v-39.4c0-0.8-0.8-1.5-1.8-1.5h-3.6
								C162.8,126.5,162,127.2,162,128.1z M166.9,164.6c0,0.7-0.6,1.2-1.4,1.2c-0.7,0-1.3-0.6-1.3-1.3V131c0-0.6,0.6-1.2,1.3-1.3
								c0.8,0,1.4,0.5,1.4,1.2V164.6z"/>
						</g>
						<g>
							<path class="st1" d="M169.2,93.5v39.4c0,0.8,0.8,1.5,1.8,1.5h3.6c1,0,1.8-0.7,1.8-1.5V93.5c0-0.8-0.8-1.5-1.8-1.5h-3.6
								C170,92,169.2,92.6,169.2,93.5z M174.1,130c0,0.7-0.6,1.2-1.4,1.2c-0.7,0-1.3-0.6-1.3-1.3V96.4c0-0.6,0.6-1.2,1.3-1.3
								c0.8,0,1.4,0.5,1.4,1.2V130z"/>
							<path class="st1" d="M169.2,123.6v39.4c0,0.8,0.8,1.5,1.8,1.5h3.6c1,0,1.8-0.7,1.8-1.5v-39.4c0-0.8-0.8-1.5-1.8-1.5h-3.6
								C170,122.1,169.2,122.8,169.2,123.6z M174.1,160.1c0,0.7-0.6,1.2-1.4,1.2c-0.7,0-1.3-0.6-1.3-1.3v-33.5
								c0-0.6,0.6-1.2,1.3-1.3c0.8,0,1.4,0.5,1.4,1.2V160.1z"/>
						</g>
						<g>
							<path class="st1" d="M157,93.5v39.4c0,0.8,0.8,1.5,1.8,1.5h3.6c1,0,1.8-0.7,1.8-1.5V93.5c0-0.8-0.8-1.5-1.8-1.5h-3.6
								C157.8,92,157,92.6,157,93.5z M162,130c0,0.7-0.6,1.2-1.4,1.2c-0.7,0-1.3-0.6-1.3-1.3V96.4c0-0.6,0.6-1.2,1.3-1.3
								c0.8,0,1.4,0.5,1.4,1.2V130z"/>
							<path class="st1" d="M157,123.6v39.4c0,0.8,0.8,1.5,1.8,1.5h3.6c1,0,1.8-0.7,1.8-1.5v-39.4c0-0.8-0.8-1.5-1.8-1.5h-3.6
								C157.8,122.1,157,122.8,157,123.6z M162,160.1c0,0.7-0.6,1.2-1.4,1.2c-0.7,0-1.3-0.6-1.3-1.3v-33.5c0-0.6,0.6-1.2,1.3-1.3
								c0.8,0,1.4,0.5,1.4,1.2V160.1z"/>
						</g>
					</g>
				</g>
				<g class="st7">
					<g>
						<g>
							<path class="st1" d="M333.8,97.2h-3.6c-1,0-1.8,0.7-1.8,1.5V138c0,0.8,0.8,1.5,1.8,1.5h3.6c1,0,1.8-0.7,1.8-1.5V98.7
								C335.6,97.8,334.8,97.2,333.8,97.2z M330.6,101.5c0-0.7,0.6-1.2,1.4-1.2c0.7,0,1.3,0.6,1.3,1.3v33.5c0,0.6-0.6,1.2-1.3,1.3
								c-0.8,0-1.4-0.5-1.4-1.2V101.5z"/>
							<path class="st1" d="M333.8,127.3h-3.6c-1,0-1.8,0.7-1.8,1.5v39.4c0,0.8,0.8,1.5,1.8,1.5h3.6c1,0,1.8-0.7,1.8-1.5v-39.4
								C335.6,127.9,334.8,127.3,333.8,127.3z M330.6,131.6c0-0.7,0.6-1.2,1.4-1.2c0.7,0,1.3,0.6,1.3,1.3v33.5
								c0,0.6-0.6,1.2-1.3,1.3c-0.8,0-1.4-0.5-1.4-1.2V131.6z"/>
						</g>
						<g>
							<path class="st1" d="M326.6,92.7H323c-1,0-1.8,0.7-1.8,1.5v39.4c0,0.8,0.8,1.5,1.8,1.5h3.6c1,0,1.8-0.7,1.8-1.5V94.2
								C328.4,93.4,327.6,92.7,326.6,92.7z M323.4,97.1c0-0.7,0.6-1.2,1.4-1.2c0.7,0,1.3,0.6,1.3,1.3v33.5c0,0.6-0.6,1.2-1.3,1.3
								c-0.8,0-1.4-0.5-1.4-1.2V97.1z"/>
							<path class="st1" d="M326.6,122.8H323c-1,0-1.8,0.7-1.8,1.5v39.4c0,0.8,0.8,1.5,1.8,1.5h3.6c1,0,1.8-0.7,1.8-1.5v-39.4
								C328.4,123.5,327.6,122.8,326.6,122.8z M323.4,127.2c0-0.7,0.6-1.2,1.4-1.2c0.7,0,1.3,0.6,1.3,1.3v33.5
								c0,0.6-0.6,1.2-1.3,1.3c-0.8,0-1.4-0.5-1.4-1.2V127.2z"/>
						</g>
						<g>
							<path class="st1" d="M338.7,92.7h-3.6c-1,0-1.8,0.7-1.8,1.5v39.4c0,0.8,0.8,1.5,1.8,1.5h3.6c1,0,1.8-0.7,1.8-1.5V94.2
								C340.5,93.4,339.7,92.7,338.7,92.7z M335.6,97.1c0-0.7,0.6-1.2,1.4-1.2c0.7,0,1.3,0.6,1.3,1.3v33.5c0,0.6-0.6,1.2-1.3,1.3
								c-0.8,0-1.4-0.5-1.4-1.2V97.1z"/>
							<path class="st1" d="M338.7,122.8h-3.6c-1,0-1.8,0.7-1.8,1.5v39.4c0,0.8,0.8,1.5,1.8,1.5h3.6c1,0,1.8-0.7,1.8-1.5v-39.4
								C340.5,123.5,339.7,122.8,338.7,122.8z M335.6,127.2c0-0.7,0.6-1.2,1.4-1.2c0.7,0,1.3,0.6,1.3,1.3v33.5
								c0,0.6-0.6,1.2-1.3,1.3c-0.8,0-1.4-0.5-1.4-1.2V127.2z"/>
						</g>
					</g>
					<g>
						<g>
							<path class="st1" d="M314.6,96.4H311c-1,0-1.8,0.7-1.8,1.5v39.4c0,0.8,0.8,1.5,1.8,1.5h3.6c1,0,1.8-0.7,1.8-1.5V98
								C316.4,97.1,315.6,96.4,314.6,96.4z M311.5,100.8c0-0.7,0.6-1.2,1.4-1.2c0.7,0,1.3,0.6,1.3,1.3v33.5c0,0.6-0.6,1.2-1.3,1.3
								c-0.8,0-1.4-0.5-1.4-1.2V100.8z"/>
							<path class="st1" d="M314.6,126.5H311c-1,0-1.8,0.7-1.8,1.5v39.4c0,0.8,0.8,1.5,1.8,1.5h3.6c1,0,1.8-0.7,1.8-1.5v-39.4
								C316.4,127.2,315.6,126.5,314.6,126.5z M311.5,130.9c0-0.7,0.6-1.2,1.4-1.2c0.7,0,1.3,0.6,1.3,1.3v33.5
								c0,0.6-0.6,1.2-1.3,1.3c-0.8,0-1.4-0.5-1.4-1.2V130.9z"/>
						</g>
						<g>
							<path class="st1" d="M307.4,92h-3.6c-1,0-1.8,0.7-1.8,1.5v39.4c0,0.8,0.8,1.5,1.8,1.5h3.6c1,0,1.8-0.7,1.8-1.5V93.5
								C309.2,92.6,308.4,92,307.4,92z M304.3,96.3c0-0.7,0.6-1.2,1.4-1.2c0.7,0,1.3,0.6,1.3,1.3v33.5c0,0.6-0.6,1.2-1.3,1.3
								c-0.8,0-1.4-0.5-1.4-1.2V96.3z"/>
							<path class="st1" d="M307.4,122.1h-3.6c-1,0-1.8,0.7-1.8,1.5v39.4c0,0.8,0.8,1.5,1.8,1.5h3.6c1,0,1.8-0.7,1.8-1.5v-39.4
								C309.2,122.8,308.4,122.1,307.4,122.1z M304.3,126.4c0-0.7,0.6-1.2,1.4-1.2c0.7,0,1.3,0.6,1.3,1.3V160c0,0.6-0.6,1.2-1.3,1.3
								c-0.8,0-1.4-0.5-1.4-1.2V126.4z"/>
						</g>
						<g>
							<path class="st1" d="M319.6,92H316c-1,0-1.8,0.7-1.8,1.5v39.4c0,0.8,0.8,1.5,1.8,1.5h3.6c1,0,1.8-0.7,1.8-1.5V93.5
								C321.3,92.6,320.5,92,319.6,92z M316.4,96.3c0-0.7,0.6-1.2,1.4-1.2c0.7,0,1.3,0.6,1.3,1.3v33.5c0,0.6-0.6,1.2-1.3,1.3
								c-0.8,0-1.4-0.5-1.4-1.2V96.3z"/>
							<path class="st1" d="M319.6,122.1H316c-1,0-1.8,0.7-1.8,1.5v39.4c0,0.8,0.8,1.5,1.8,1.5h3.6c1,0,1.8-0.7,1.8-1.5v-39.4
								C321.3,122.8,320.5,122.1,319.6,122.1z M316.4,126.4c0-0.7,0.6-1.2,1.4-1.2c0.7,0,1.3,0.6,1.3,1.3V160c0,0.6-0.6,1.2-1.3,1.3
								c-0.8,0-1.4-0.5-1.4-1.2V126.4z"/>
						</g>
					</g>
				</g>
			</g>
			<g>
				<defs>
					<path id="SVGID_7_" d="M326.3,250.5H152.1c-4.7,0-8.4-3.8-8.4-8.4v-72.3c0-4.7,3.8-8.4,8.4-8.4h174.2c4.7,0,8.4,3.8,8.4,8.4
						v72.3C334.7,246.7,330.9,250.5,326.3,250.5z"/>
				</defs>
				<clipPath id="SVGID_8_">
					<use xlink:href="#SVGID_7_"  style="overflow:visible;"/>
				</clipPath>
				<path class="st8" d="M328.1,249.2H153.7c-9.8,0-17.8-8-17.8-17.8v-54.3c0-9.8,8-17.8,17.8-17.8h174.5c9.8,0,17.8,8,17.8,17.8
					v54.3C345.9,241.2,338,249.2,328.1,249.2z"/>
				<g class="st9">
					<g>
						<g>
							<path class="st1" d="M142.8,168v50.8c0,1.1,0.8,2,1.8,2h3.6c1,0,1.8-0.9,1.8-2V168c0-1.1-0.8-2-1.8-2h-3.6
								C143.6,166,142.8,166.9,142.8,168z M147.7,215.2c0,0.9-0.6,1.6-1.4,1.5c-0.7,0-1.3-0.8-1.3-1.6v-43.3c0-0.8,0.6-1.6,1.3-1.6
								c0.8,0,1.4,0.7,1.4,1.5V215.2z"/>
							<path class="st1" d="M142.8,206.9v50.8c0,1.1,0.8,2,1.8,2h3.6c1,0,1.8-0.9,1.8-2v-50.8c0-1.1-0.8-2-1.8-2h-3.6
								C143.6,204.9,142.8,205.8,142.8,206.9z M147.7,254c0,0.9-0.6,1.6-1.4,1.5c-0.7,0-1.3-0.8-1.3-1.6v-43.3
								c0-0.8,0.6-1.6,1.3-1.6c0.8,0,1.4,0.7,1.4,1.5V254z"/>
						</g>
						<g>
							<path class="st1" d="M150,162.2v50.8c0,1.1,0.8,2,1.8,2h3.6c1,0,1.8-0.9,1.8-2v-50.8c0-1.1-0.8-2-1.8-2h-3.6
								C150.8,160.3,150,161.1,150,162.2z M154.9,209.4c0,0.9-0.6,1.6-1.4,1.5c-0.7,0-1.3-0.8-1.3-1.6V166c0-0.8,0.6-1.6,1.3-1.6
								c0.8,0,1.4,0.7,1.4,1.5V209.4z"/>
							<path class="st1" d="M150,201.1v50.8c0,1.1,0.8,2,1.8,2h3.6c1,0,1.8-0.9,1.8-2v-50.8c0-1.1-0.8-2-1.8-2h-3.6
								C150.8,199.1,150,200,150,201.1z M154.9,248.3c0,0.9-0.6,1.6-1.4,1.5c-0.7,0-1.3-0.8-1.3-1.6v-43.3c0-0.8,0.6-1.6,1.3-1.6
								c0.8,0,1.4,0.7,1.4,1.5V248.3z"/>
						</g>
						<g>
							<path class="st1" d="M137.9,162.2v50.8c0,1.1,0.8,2,1.8,2h3.6c1,0,1.8-0.9,1.8-2v-50.8c0-1.1-0.8-2-1.8-2h-3.6
								C138.6,160.3,137.9,161.1,137.9,162.2z M142.8,209.4c0,0.9-0.6,1.6-1.4,1.5c-0.7,0-1.3-0.8-1.3-1.6V166
								c0-0.8,0.6-1.6,1.3-1.6c0.8,0,1.4,0.7,1.4,1.5V209.4z"/>
							<path class="st1" d="M137.9,201.1v50.8c0,1.1,0.8,2,1.8,2h3.6c1,0,1.8-0.9,1.8-2v-50.8c0-1.1-0.8-2-1.8-2h-3.6
								C138.6,199.1,137.9,200,137.9,201.1z M142.8,248.3c0,0.9-0.6,1.6-1.4,1.5c-0.7,0-1.3-0.8-1.3-1.6v-43.3
								c0-0.8,0.6-1.6,1.3-1.6c0.8,0,1.4,0.7,1.4,1.5V248.3z"/>
						</g>
					</g>
					<g>
						<g>
							<path class="st1" d="M162,167.1v50.8c0,1.1,0.8,2,1.8,2h3.6c1,0,1.8-0.9,1.8-2v-50.8c0-1.1-0.8-2-1.8-2h-3.6
								C162.8,165.1,162,166,162,167.1z M166.9,214.2c0,0.9-0.6,1.6-1.4,1.5c-0.7,0-1.3-0.8-1.3-1.6v-43.3c0-0.8,0.6-1.6,1.3-1.6
								c0.8,0,1.4,0.7,1.4,1.5V214.2z"/>
							<path class="st1" d="M162,206v50.8c0,1.1,0.8,2,1.8,2h3.6c1,0,1.8-0.9,1.8-2V206c0-1.1-0.8-2-1.8-2h-3.6
								C162.8,204,162,204.9,162,206z M166.9,253.1c0,0.9-0.6,1.6-1.4,1.5c-0.7,0-1.3-0.8-1.3-1.6v-43.3c0-0.8,0.6-1.6,1.3-1.6
								c0.8,0,1.4,0.7,1.4,1.5V253.1z"/>
						</g>
						<g>
							<path class="st1" d="M169.2,161.3v50.8c0,1.1,0.8,2,1.8,2h3.6c1,0,1.8-0.9,1.8-2v-50.8c0-1.1-0.8-2-1.8-2h-3.6
								C170,159.3,169.2,160.2,169.2,161.3z M174.1,208.5c0,0.9-0.6,1.6-1.4,1.5c-0.7,0-1.3-0.8-1.3-1.6v-43.3
								c0-0.8,0.6-1.6,1.3-1.6c0.8,0,1.4,0.7,1.4,1.5V208.5z"/>
							<path class="st1" d="M169.2,200.2V251c0,1.1,0.8,2,1.8,2h3.6c1,0,1.8-0.9,1.8-2v-50.8c0-1.1-0.8-2-1.8-2h-3.6
								C170,198.2,169.2,199.1,169.2,200.2z M174.1,247.3c0,0.9-0.6,1.6-1.4,1.5c-0.7,0-1.3-0.8-1.3-1.6V204c0-0.8,0.6-1.6,1.3-1.6
								c0.8,0,1.4,0.7,1.4,1.5V247.3z"/>
						</g>
						<g>
							<path class="st1" d="M157,161.3v50.8c0,1.1,0.8,2,1.8,2h3.6c1,0,1.8-0.9,1.8-2v-50.8c0-1.1-0.8-2-1.8-2h-3.6
								C157.8,159.3,157,160.2,157,161.3z M162,208.5c0,0.9-0.6,1.6-1.4,1.5c-0.7,0-1.3-0.8-1.3-1.6v-43.3c0-0.8,0.6-1.6,1.3-1.6
								c0.8,0,1.4,0.7,1.4,1.5V208.5z"/>
							<path class="st1" d="M157,200.2V251c0,1.1,0.8,2,1.8,2h3.6c1,0,1.8-0.9,1.8-2v-50.8c0-1.1-0.8-2-1.8-2h-3.6
								C157.8,198.2,157,199.1,157,200.2z M162,247.3c0,0.9-0.6,1.6-1.4,1.5c-0.7,0-1.3-0.8-1.3-1.6V204c0-0.8,0.6-1.6,1.3-1.6
								c0.8,0,1.4,0.7,1.4,1.5V247.3z"/>
						</g>
					</g>
				</g>
				<g class="st9">
					<g>
						<g>
							<path class="st1" d="M333.8,166h-3.6c-1,0-1.8,0.9-1.8,2v50.8c0,1.1,0.8,2,1.8,2h3.6c1,0,1.8-0.9,1.8-2V168
								C335.6,166.9,334.8,166,333.8,166z M330.6,171.7c0-0.9,0.6-1.6,1.4-1.5c0.7,0,1.3,0.8,1.3,1.6v43.3c0,0.8-0.6,1.6-1.3,1.6
								c-0.8,0-1.4-0.7-1.4-1.5V171.7z"/>
							<path class="st1" d="M333.8,204.9h-3.6c-1,0-1.8,0.9-1.8,2v50.8c0,1.1,0.8,2,1.8,2h3.6c1,0,1.8-0.9,1.8-2v-50.8
								C335.6,205.8,334.8,204.9,333.8,204.9z M330.6,210.6c0-0.9,0.6-1.6,1.4-1.5c0.7,0,1.3,0.8,1.3,1.6v43.3
								c0,0.8-0.6,1.6-1.3,1.6c-0.8,0-1.4-0.7-1.4-1.5V210.6z"/>
						</g>
						<g>
							<path class="st1" d="M326.6,160.3H323c-1,0-1.8,0.9-1.8,2v50.8c0,1.1,0.8,2,1.8,2h3.6c1,0,1.8-0.9,1.8-2v-50.8
								C328.4,161.1,327.6,160.3,326.6,160.3z M323.4,165.9c0-0.9,0.6-1.6,1.4-1.5c0.7,0,1.3,0.8,1.3,1.6v43.3
								c0,0.8-0.6,1.6-1.3,1.6c-0.8,0-1.4-0.7-1.4-1.5V165.9z"/>
							<path class="st1" d="M326.6,199.1H323c-1,0-1.8,0.9-1.8,2v50.8c0,1.1,0.8,2,1.8,2h3.6c1,0,1.8-0.9,1.8-2v-50.8
								C328.4,200,327.6,199.1,326.6,199.1z M323.4,204.8c0-0.9,0.6-1.6,1.4-1.5c0.7,0,1.3,0.8,1.3,1.6v43.3c0,0.8-0.6,1.6-1.3,1.6
								c-0.8,0-1.4-0.7-1.4-1.5V204.8z"/>
						</g>
						<g>
							<path class="st1" d="M338.7,160.3h-3.6c-1,0-1.8,0.9-1.8,2v50.8c0,1.1,0.8,2,1.8,2h3.6c1,0,1.8-0.9,1.8-2v-50.8
								C340.5,161.1,339.7,160.3,338.7,160.3z M335.6,165.9c0-0.9,0.6-1.6,1.4-1.5c0.7,0,1.3,0.8,1.3,1.6v43.3
								c0,0.8-0.6,1.6-1.3,1.6c-0.8,0-1.4-0.7-1.4-1.5V165.9z"/>
							<path class="st1" d="M338.7,199.1h-3.6c-1,0-1.8,0.9-1.8,2v50.8c0,1.1,0.8,2,1.8,2h3.6c1,0,1.8-0.9,1.8-2v-50.8
								C340.5,200,339.7,199.1,338.7,199.1z M335.6,204.8c0-0.9,0.6-1.6,1.4-1.5c0.7,0,1.3,0.8,1.3,1.6v43.3c0,0.8-0.6,1.6-1.3,1.6
								c-0.8,0-1.4-0.7-1.4-1.5V204.8z"/>
						</g>
					</g>
					<g>
						<g>
							<path class="st1" d="M314.6,165.1H311c-1,0-1.8,0.9-1.8,2v50.8c0,1.1,0.8,2,1.8,2h3.6c1,0,1.8-0.9,1.8-2v-50.8
								C316.4,166,315.6,165.1,314.6,165.1z M311.5,170.8c0-0.9,0.6-1.6,1.4-1.5c0.7,0,1.3,0.8,1.3,1.6v43.3c0,0.8-0.6,1.6-1.3,1.6
								c-0.8,0-1.4-0.7-1.4-1.5V170.8z"/>
							<path class="st1" d="M314.6,204H311c-1,0-1.8,0.9-1.8,2v50.8c0,1.1,0.8,2,1.8,2h3.6c1,0,1.8-0.9,1.8-2V206
								C316.4,204.9,315.6,204,314.6,204z M311.5,209.6c0-0.9,0.6-1.6,1.4-1.5c0.7,0,1.3,0.8,1.3,1.6V253c0,0.8-0.6,1.6-1.3,1.6
								c-0.8,0-1.4-0.7-1.4-1.5V209.6z"/>
						</g>
						<g>
							<path class="st1" d="M307.4,159.3h-3.6c-1,0-1.8,0.9-1.8,2v50.8c0,1.1,0.8,2,1.8,2h3.6c1,0,1.8-0.9,1.8-2v-50.8
								C309.2,160.2,308.4,159.3,307.4,159.3z M304.3,165c0-0.9,0.6-1.6,1.4-1.5c0.7,0,1.3,0.8,1.3,1.6v43.3c0,0.8-0.6,1.6-1.3,1.6
								c-0.8,0-1.4-0.7-1.4-1.5V165z"/>
							<path class="st1" d="M307.4,198.2h-3.6c-1,0-1.8,0.9-1.8,2V251c0,1.1,0.8,2,1.8,2h3.6c1,0,1.8-0.9,1.8-2v-50.8
								C309.2,199.1,308.4,198.2,307.4,198.2z M304.3,203.9c0-0.9,0.6-1.6,1.4-1.5c0.7,0,1.3,0.8,1.3,1.6v43.3
								c0,0.8-0.6,1.6-1.3,1.6c-0.8,0-1.4-0.7-1.4-1.5V203.9z"/>
						</g>
						<g>
							<path class="st1" d="M319.6,159.3H316c-1,0-1.8,0.9-1.8,2v50.8c0,1.1,0.8,2,1.8,2h3.6c1,0,1.8-0.9,1.8-2v-50.8
								C321.3,160.2,320.5,159.3,319.6,159.3z M316.4,165c0-0.9,0.6-1.6,1.4-1.5c0.7,0,1.3,0.8,1.3,1.6v43.3c0,0.8-0.6,1.6-1.3,1.6
								c-0.8,0-1.4-0.7-1.4-1.5V165z"/>
							<path class="st1" d="M319.6,198.2H316c-1,0-1.8,0.9-1.8,2V251c0,1.1,0.8,2,1.8,2h3.6c1,0,1.8-0.9,1.8-2v-50.8
								C321.3,199.1,320.5,198.2,319.6,198.2z M316.4,203.9c0-0.9,0.6-1.6,1.4-1.5c0.7,0,1.3,0.8,1.3,1.6v43.3
								c0,0.8-0.6,1.6-1.3,1.6c-0.8,0-1.4-0.7-1.4-1.5V203.9z"/>
						</g>
					</g>
				</g>
			</g>
			<g>
				<g>
					<g>
						<rect x="189.1" y="168.5" class="st0" width="8.6" height="6.6"/>
						<ellipse class="st1" cx="193.4" cy="171.8" rx="2.6" ry="2"/>
					</g>
					<g>
						<rect x="202.2" y="168.5" class="st0" width="8.6" height="6.6"/>
						<ellipse class="st1" cx="206.5" cy="171.8" rx="2.6" ry="2"/>
					</g>
					<g>
						<rect x="215.3" y="168.5" class="st0" width="8.6" height="6.6"/>
						<ellipse class="st1" cx="219.6" cy="171.8" rx="2.6" ry="2"/>
					</g>
					<g>
						<rect x="228.3" y="168.5" class="st0" width="8.6" height="6.6"/>
						<ellipse class="st1" cx="232.6" cy="171.8" rx="2.6" ry="2"/>
					</g>
					<g>
						<rect x="241.4" y="168.5" class="st0" width="8.6" height="6.6"/>
						<ellipse class="st1" cx="245.7" cy="171.8" rx="2.6" ry="2"/>
					</g>
					<g>
						<rect x="254.5" y="168.5" class="st0" width="8.6" height="6.6"/>
						<ellipse class="st1" cx="258.8" cy="171.8" rx="2.6" ry="2"/>
					</g>
					<g>
						<rect x="267.6" y="168.5" class="st0" width="8.6" height="6.6"/>
						<ellipse class="st1" cx="271.9" cy="171.8" rx="2.6" ry="2"/>
					</g>
					<g>
						<rect x="280.6" y="168.5" class="st0" width="8.6" height="6.6"/>
						<ellipse class="st1" cx="284.9" cy="171.8" rx="2.6" ry="2"/>
					</g>
				</g>
				<g>
					<g>
						<rect x="189.1" y="178.2" class="st0" width="8.6" height="6.6"/>
						<ellipse class="st1" cx="193.4" cy="181.5" rx="2.6" ry="2"/>
					</g>
					<g>
						<rect x="202.2" y="178.2" class="st0" width="8.6" height="6.6"/>
						<ellipse class="st1" cx="206.5" cy="181.5" rx="2.6" ry="2"/>
					</g>
					<g>
						<rect x="215.3" y="178.2" class="st0" width="8.6" height="6.6"/>
						<ellipse class="st1" cx="219.6" cy="181.5" rx="2.6" ry="2"/>
					</g>
					<g>
						<rect x="228.3" y="178.2" class="st0" width="8.6" height="6.6"/>
						<ellipse class="st1" cx="232.6" cy="181.5" rx="2.6" ry="2"/>
					</g>
					<g>
						<rect x="241.4" y="178.2" class="st0" width="8.6" height="6.6"/>
						<ellipse class="st1" cx="245.7" cy="181.5" rx="2.6" ry="2"/>
					</g>
					<g>
						<rect x="254.5" y="178.2" class="st0" width="8.6" height="6.6"/>
						<ellipse class="st1" cx="258.8" cy="181.5" rx="2.6" ry="2"/>
					</g>
					<g>
						<rect x="267.6" y="178.2" class="st0" width="8.6" height="6.6"/>
						<ellipse class="st1" cx="271.9" cy="181.5" rx="2.6" ry="2"/>
					</g>
					<g>
						<rect x="280.6" y="178.2" class="st0" width="8.6" height="6.6"/>
						<ellipse class="st1" cx="284.9" cy="181.5" rx="2.6" ry="2"/>
					</g>
				</g>
				<g>
					<g>
						<rect x="189.1" y="188" class="st0" width="8.6" height="6.6"/>
						<ellipse class="st1" cx="193.4" cy="191.3" rx="2.6" ry="2"/>
					</g>
					<g>
						<rect x="202.2" y="188" class="st0" width="8.6" height="6.6"/>
						<ellipse class="st1" cx="206.5" cy="191.3" rx="2.6" ry="2"/>
					</g>
					<g>
						<rect x="215.3" y="188" class="st0" width="8.6" height="6.6"/>
						<ellipse class="st1" cx="219.6" cy="191.3" rx="2.6" ry="2"/>
					</g>
					<g>
						<rect x="228.3" y="188" class="st0" width="8.6" height="6.6"/>
						<ellipse class="st1" cx="232.6" cy="191.3" rx="2.6" ry="2"/>
					</g>
					<g>
						<rect x="241.4" y="188" class="st0" width="8.6" height="6.6"/>
						<ellipse class="st1" cx="245.7" cy="191.3" rx="2.6" ry="2"/>
					</g>
					<g>
						<rect x="254.5" y="188" class="st0" width="8.6" height="6.6"/>
						<ellipse class="st1" cx="258.8" cy="191.3" rx="2.6" ry="2"/>
					</g>
					<g>
						<rect x="267.6" y="188" class="st0" width="8.6" height="6.6"/>
						<ellipse class="st1" cx="271.9" cy="191.3" rx="2.6" ry="2"/>
					</g>
					<g>
						<rect x="280.6" y="188" class="st0" width="8.6" height="6.6"/>
						<ellipse class="st1" cx="284.9" cy="191.3" rx="2.6" ry="2"/>
					</g>
				</g>
				<g>
					<g>
						<rect x="189.1" y="197.7" class="st0" width="8.6" height="6.6"/>
						<ellipse class="st1" cx="193.4" cy="201" rx="2.6" ry="2"/>
					</g>
					<g>
						<rect x="202.2" y="197.7" class="st0" width="8.6" height="6.6"/>
						<ellipse class="st1" cx="206.5" cy="201" rx="2.6" ry="2"/>
					</g>
					<g>
						<rect x="215.3" y="197.7" class="st0" width="8.6" height="6.6"/>
						<ellipse class="st1" cx="219.6" cy="201" rx="2.6" ry="2"/>
					</g>
					<g>
						<rect x="228.3" y="197.7" class="st0" width="8.6" height="6.6"/>
						<ellipse class="st1" cx="232.6" cy="201" rx="2.6" ry="2"/>
					</g>
					<g>
						<rect x="241.4" y="197.7" class="st0" width="8.6" height="6.6"/>
						<ellipse class="st1" cx="245.7" cy="201" rx="2.6" ry="2"/>
					</g>
					<g>
						<rect x="254.5" y="197.7" class="st0" width="8.6" height="6.6"/>
						<ellipse class="st1" cx="258.8" cy="201" rx="2.6" ry="2"/>
					</g>
					<g>
						<rect x="267.6" y="197.7" class="st0" width="8.6" height="6.6"/>
						<ellipse class="st1" cx="271.9" cy="201" rx="2.6" ry="2"/>
					</g>
					<g>
						<rect x="280.6" y="197.7" class="st0" width="8.6" height="6.6"/>
						<ellipse class="st1" cx="284.9" cy="201" rx="2.6" ry="2"/>
					</g>
				</g>
				<g>
					<g>
						<rect x="189.1" y="207.4" class="st0" width="8.6" height="6.6"/>
						<ellipse class="st1" cx="193.4" cy="210.7" rx="2.6" ry="2"/>
					</g>
					<g>
						<rect x="202.2" y="207.4" class="st0" width="8.6" height="6.6"/>
						<ellipse class="st1" cx="206.5" cy="210.7" rx="2.6" ry="2"/>
					</g>
					<g>
						<rect x="215.3" y="207.4" class="st0" width="8.6" height="6.6"/>
						<ellipse class="st1" cx="219.6" cy="210.7" rx="2.6" ry="2"/>
					</g>
					<g>
						<rect x="228.3" y="207.4" class="st0" width="8.6" height="6.6"/>
						<ellipse class="st1" cx="232.6" cy="210.7" rx="2.6" ry="2"/>
					</g>
					<g>
						<rect x="241.4" y="207.4" class="st0" width="8.6" height="6.6"/>
						<ellipse class="st1" cx="245.7" cy="210.7" rx="2.6" ry="2"/>
					</g>
					<g>
						<rect x="254.5" y="207.4" class="st0" width="8.6" height="6.6"/>
						<ellipse class="st1" cx="258.8" cy="210.7" rx="2.6" ry="2"/>
					</g>
					<g>
						<rect x="267.6" y="207.4" class="st0" width="8.6" height="6.6"/>
						<ellipse class="st1" cx="271.9" cy="210.7" rx="2.6" ry="2"/>
					</g>
					<g>
						<rect x="280.6" y="207.4" class="st0" width="8.6" height="6.6"/>
						<ellipse class="st1" cx="284.9" cy="210.7" rx="2.6" ry="2"/>
					</g>
				</g>
				<g>
					<g>
						<rect x="189.1" y="217.1" class="st0" width="8.6" height="6.6"/>
						<ellipse class="st1" cx="193.4" cy="220.4" rx="2.6" ry="2"/>
					</g>
					<g>
						<rect x="202.2" y="217.1" class="st0" width="8.6" height="6.6"/>
						<ellipse class="st1" cx="206.5" cy="220.4" rx="2.6" ry="2"/>
					</g>
					<g>
						<rect x="215.3" y="217.1" class="st0" width="8.6" height="6.6"/>
						<ellipse class="st1" cx="219.6" cy="220.4" rx="2.6" ry="2"/>
					</g>
					<g>
						<rect x="228.3" y="217.1" class="st0" width="8.6" height="6.6"/>
						<ellipse class="st1" cx="232.6" cy="220.4" rx="2.6" ry="2"/>
					</g>
					<g>
						<rect x="241.4" y="217.1" class="st0" width="8.6" height="6.6"/>
						<ellipse class="st1" cx="245.7" cy="220.4" rx="2.6" ry="2"/>
					</g>
					<g>
						<rect x="254.5" y="217.1" class="st0" width="8.6" height="6.6"/>
						<ellipse class="st1" cx="258.8" cy="220.4" rx="2.6" ry="2"/>
					</g>
					<g>
						<rect x="267.6" y="217.1" class="st0" width="8.6" height="6.6"/>
						<ellipse class="st1" cx="271.9" cy="220.4" rx="2.6" ry="2"/>
					</g>
					<g>
						<rect x="280.6" y="217.1" class="st0" width="8.6" height="6.6"/>
						<ellipse class="st1" cx="284.9" cy="220.4" rx="2.6" ry="2"/>
					</g>
				</g>
				<g>
					<g>
						<rect x="189.1" y="226.9" class="st0" width="8.6" height="6.6"/>
						<ellipse class="st1" cx="193.4" cy="230.2" rx="2.6" ry="2"/>
					</g>
					<g>
						<rect x="202.2" y="226.9" class="st0" width="8.6" height="6.6"/>
						<ellipse class="st1" cx="206.5" cy="230.2" rx="2.6" ry="2"/>
					</g>
					<g>
						<rect x="215.3" y="226.9" class="st0" width="8.6" height="6.6"/>
						<ellipse class="st1" cx="219.6" cy="230.2" rx="2.6" ry="2"/>
					</g>
					<g>
						<rect x="228.3" y="226.9" class="st0" width="8.6" height="6.6"/>
						<ellipse class="st1" cx="232.6" cy="230.2" rx="2.6" ry="2"/>
					</g>
					<g>
						<rect x="241.4" y="226.9" class="st0" width="8.6" height="6.6"/>
						<ellipse class="st1" cx="245.7" cy="230.2" rx="2.6" ry="2"/>
					</g>
					<g>
						<rect x="254.5" y="226.9" class="st0" width="8.6" height="6.6"/>
						<ellipse class="st1" cx="258.8" cy="230.2" rx="2.6" ry="2"/>
					</g>
					<g>
						<rect x="267.6" y="226.9" class="st0" width="8.6" height="6.6"/>
						<ellipse class="st1" cx="271.9" cy="230.2" rx="2.6" ry="2"/>
					</g>
					<g>
						<rect x="280.6" y="226.9" class="st0" width="8.6" height="6.6"/>
						<ellipse class="st1" cx="284.9" cy="230.2" rx="2.6" ry="2"/>
					</g>
				</g>
				<g>
					<g>
						<rect x="189.1" y="236.6" class="st0" width="8.6" height="6.6"/>
						<ellipse class="st1" cx="193.4" cy="239.9" rx="2.6" ry="2"/>
					</g>
					<g>
						<rect x="202.2" y="236.6" class="st0" width="8.6" height="6.6"/>
						<ellipse class="st1" cx="206.5" cy="239.9" rx="2.6" ry="2"/>
					</g>
					<g>
						<rect x="215.3" y="236.6" class="st0" width="8.6" height="6.6"/>
						<ellipse class="st1" cx="219.6" cy="239.9" rx="2.6" ry="2"/>
					</g>
					<g>
						<rect x="228.3" y="236.6" class="st0" width="8.6" height="6.6"/>
						<ellipse class="st1" cx="232.6" cy="239.9" rx="2.6" ry="2"/>
					</g>
					<g>
						<rect x="241.4" y="236.6" class="st0" width="8.6" height="6.6"/>
						<ellipse class="st1" cx="245.7" cy="239.9" rx="2.6" ry="2"/>
					</g>
					<g>
						<rect x="254.5" y="236.6" class="st0" width="8.6" height="6.6"/>
						<ellipse class="st1" cx="258.8" cy="239.9" rx="2.6" ry="2"/>
					</g>
					<g>
						<rect x="267.6" y="236.6" class="st0" width="8.6" height="6.6"/>
						<ellipse class="st1" cx="271.9" cy="239.9" rx="2.6" ry="2"/>
					</g>
					<g>
						<rect x="280.6" y="236.6" class="st0" width="8.6" height="6.6"/>
						<ellipse class="st1" cx="284.9" cy="239.9" rx="2.6" ry="2"/>
					</g>
				</g>
				<path class="st0" d="M286.7,165.8h-95c-3.2,0-5.9,2-5.9,4.5v71.2c0,2.5,2.6,4.5,5.9,4.5h95c3.2,0,5.9-2,5.9-4.5v-71.2
					C292.6,167.8,289.9,165.8,286.7,165.8z M213,226.9c-0.9,0-1.6-0.6-1.6-1.2c0-0.7,0.7-1.2,1.6-1.2c0.9,0,1.6,0.6,1.6,1.2
					C214.6,226.3,213.9,226.9,213,226.9z M213,187.7c-0.9,0-1.6-0.6-1.6-1.2c0-0.7,0.7-1.2,1.6-1.2c0.9,0,1.6,0.6,1.6,1.2
					C214.6,187.1,213.9,187.7,213,187.7z M265.1,226.9c-0.9,0-1.6-0.6-1.6-1.2c0-0.7,0.7-1.2,1.6-1.2c0.9,0,1.6,0.6,1.6,1.2
					C266.7,226.3,266,226.9,265.1,226.9z M265.1,187.7c-0.9,0-1.6-0.6-1.6-1.2c0-0.7,0.7-1.2,1.6-1.2c0.9,0,1.6,0.6,1.6,1.2
					C266.7,187.1,266,187.7,265.1,187.7z"/>
			</g>
		</g>
		<g>
			<g>
				<path class="st1" d="M143.7,204.9c-1.3-0.5-35.5-26.2-36.6-9.2c0,0,5.8,28.6,37.5,39.7L143.7,204.9z"/>
				<path class="st1" d="M334.7,204.9c1.3-0.5,35.5-26.2,36.6-9.2c0,0-5.8,28.6-37.5,39.7L334.7,204.9z"/>
			</g>
			<g>
				<path class="st1" d="M341.9,180.5H335c-0.5,0-0.9-0.4-0.9-0.9v-9c0-0.5,0.4-0.9,0.9-0.9h6.8c0.5,0,0.9,0.4,0.9,0.9v9
					C342.8,180.1,342.4,180.5,341.9,180.5z"/>
				<path class="st1" d="M136.5,180.5h6.8c0.5,0,0.9-0.4,0.9-0.9v-9c0-0.5-0.4-0.9-0.9-0.9h-6.8c-0.5,0-0.9,0.4-0.9,0.9v9
					C135.6,180.1,136,180.5,136.5,180.5z"/>
			</g>
		</g>
	</g>
	<path class="st10" d="M409.4,376.6H68.9c-27.7,0-50.2-22.5-50.2-50.2V73c0-27.7,22.5-50.2,50.2-50.2h340.5
		c27.7,0,50.2,22.5,50.2,50.2v253.5C459.6,354.2,437.1,376.6,409.4,376.6z"/>
</g>
</svg>
