<?xml version="1.0" encoding="utf-8"?>
<!-- Generator: Adobe Illustrator 22.0.0, SVG Export Plug-In . SVG Version: 6.00 Build 0)  -->
<svg version="1.1" id="图层_1" xmlns="http://www.w3.org/2000/svg" xmlns:xlink="http://www.w3.org/1999/xlink" x="0px" y="0px"
	 viewBox="0 0 740 400" style="enable-background:new 0 0 740 400;" xml:space="preserve">
<style type="text/css">
	.st0{fill:none;stroke:#FFFFFF;stroke-width:12;stroke-miterlimit:10;}
	.st1{fill:#FFFFFF;}
	.st2{fill:none;stroke:#FFFFFF;stroke-width:16.788;stroke-miterlimit:10;}
	.st3{fill:none;stroke:#FFFFFF;stroke-width:8.394;stroke-miterlimit:10;}
	.st4{fill:none;stroke:#FFFFFF;stroke-width:18.563;stroke-miterlimit:10;}
	.st5{opacity:0.8;}
	.st6{opacity:0.4;}
	.st7{fill:none;stroke:#FFFFFF;stroke-width:3.5333;stroke-miterlimit:10;}
	.st8{opacity:0.4;fill:#FFFFFF;}
	.st9{fill:none;stroke:#FFFFFF;stroke-width:2.7754;stroke-miterlimit:10;}
	.st10{opacity:0.4;fill:none;stroke:#FFFFFF;stroke-width:2.7754;stroke-miterlimit:10;}
	.st11{opacity:0.4;fill:none;stroke:#FFFFFF;stroke-width:2.6379;stroke-miterlimit:10;}
	.st12{opacity:0.4;fill:none;stroke:#FFFFFF;stroke-width:2.6956;stroke-miterlimit:10;}
	.st13{opacity:0.4;fill:none;stroke:#FFFFFF;stroke-width:2.6304;stroke-miterlimit:10;}
	.st14{opacity:0.8;fill:#FFFFFF;}
	.st15{fill:none;stroke:#FFFFFF;stroke-width:13.6472;stroke-miterlimit:10;}
	.st16{fill:none;stroke:#FFFFFF;stroke-width:5.0864;stroke-miterlimit:10;}
	.st17{opacity:0.6;fill:#FFFFFF;}
	.st18{opacity:0.2;fill:#FFFFFF;}
</style>
<g>
	<path class="st0" d="M-1926.9-4685h-15.6c-4.1,0-7.4-3.3-7.4-7.4v-58.1c0-4.1,3.3-7.4,7.4-7.4h15.6c4.1,0,7.4,3.3,7.4,7.4v58.1
		C-1919.5-4688.3-1922.8-4685-1926.9-4685z"/>
	<path class="st1" d="M-2110.1-4814.7h-256.6c-3.4,0-6.1-2.7-6.1-6.1c0-3.4,2.7-6.1,6.1-6.1h256.6c3.4,0,6.1,2.7,6.1,6.1
		C-2104.1-4817.5-2106.8-4814.7-2110.1-4814.7"/>
	<path class="st1" d="M-2087.4-4820.8c0,4.6-3.7,8.3-8.3,8.3c-4.6,0-8.3-3.7-8.3-8.3s3.7-8.3,8.3-8.3
		C-2091.1-4829.2-2087.4-4825.4-2087.4-4820.8"/>
	<path class="st1" d="M-2110.1-4792h-256.6c-3.4,0-6.1-2.7-6.1-6.1s2.7-6.1,6.1-6.1h256.6c3.4,0,6.1,2.7,6.1,6.1
		S-2106.8-4792-2110.1-4792"/>
	<path class="st1" d="M-2087.4-4798c0,4.6-3.7,8.3-8.3,8.3c-4.6,0-8.3-3.7-8.3-8.3s3.7-8.3,8.3-8.3
		C-2091.1-4806.4-2087.4-4802.7-2087.4-4798"/>
	<path class="st1" d="M-2110.1-4769.2h-256.6c-3.4,0-6.1-2.7-6.1-6.1s2.7-6.1,6.1-6.1h256.6c3.4,0,6.1,2.7,6.1,6.1
		S-2106.8-4769.2-2110.1-4769.2"/>
	<path class="st1" d="M-2087.4-4775.3c0,4.6-3.7,8.3-8.3,8.3c-4.6,0-8.3-3.7-8.3-8.3c0-4.6,3.7-8.4,8.3-8.4
		C-2091.1-4783.6-2087.4-4779.9-2087.4-4775.3"/>
	<path class="st1" d="M-2110.1-4746.4h-256.6c-3.4,0-6.1-2.7-6.1-6.1s2.7-6.1,6.1-6.1h256.6c3.4,0,6.1,2.7,6.1,6.1
		S-2106.8-4746.4-2110.1-4746.4"/>
	<path class="st1" d="M-2087.4-4752.5c0,4.6-3.7,8.4-8.3,8.4c-4.6,0-8.3-3.7-8.3-8.4c0-4.6,3.7-8.3,8.3-8.3
		C-2091.1-4760.9-2087.4-4757.1-2087.4-4752.5"/>
	<path class="st1" d="M-2110.1-4723.7h-256.6c-3.4,0-6.1-2.7-6.1-6.1s2.7-6.1,6.1-6.1h256.6c3.4,0,6.1,2.7,6.1,6.1
		S-2106.8-4723.7-2110.1-4723.7"/>
	<path class="st1" d="M-2087.4-4729.7c0,4.6-3.7,8.3-8.3,8.3c-4.6,0-8.3-3.7-8.3-8.3c0-4.6,3.7-8.3,8.3-8.3
		C-2091.1-4738.1-2087.4-4734.3-2087.4-4729.7"/>
	<path class="st1" d="M-2110.1-4700.9h-256.6c-3.4,0-6.1-2.7-6.1-6.1c0-3.4,2.7-6.1,6.1-6.1h256.6c3.4,0,6.1,2.7,6.1,6.1
		C-2104.1-4703.6-2106.8-4700.9-2110.1-4700.9"/>
	<path class="st1" d="M-2087.4-4707c0,4.6-3.7,8.3-8.3,8.3c-4.6,0-8.3-3.7-8.3-8.3s3.7-8.3,8.3-8.3
		C-2091.1-4715.3-2087.4-4711.6-2087.4-4707"/>
	<path class="st1" d="M-2110.1-4678.1h-256.6c-3.4,0-6.1-2.7-6.1-6.1c0-3.4,2.7-6.1,6.1-6.1h256.6c3.4,0,6.1,2.7,6.1,6.1
		C-2104.1-4680.8-2106.8-4678.1-2110.1-4678.1"/>
	<path class="st1" d="M-2087.4-4684.2c0,4.6-3.7,8.3-8.3,8.3c-4.6,0-8.3-3.7-8.3-8.3c0-4.6,3.7-8.3,8.3-8.3
		C-2091.1-4692.5-2087.4-4688.8-2087.4-4684.2"/>
	<path class="st1" d="M-2110.1-4655.4h-256.6c-3.4,0-6.1-2.7-6.1-6.1s2.7-6.1,6.1-6.1h256.6c3.4,0,6.1,2.7,6.1,6.1
		S-2106.8-4655.4-2110.1-4655.4"/>
	<path class="st1" d="M-2087.4-4661.4c0,4.6-3.7,8.3-8.3,8.3c-4.6,0-8.3-3.7-8.3-8.3c0-4.6,3.7-8.3,8.3-8.3
		C-2091.1-4669.8-2087.4-4666-2087.4-4661.4"/>
	<path class="st1" d="M-2110.1-4632.6h-256.6c-3.4,0-6.1-2.7-6.1-6.1s2.7-6.1,6.1-6.1h256.6c3.4,0,6.1,2.7,6.1,6.1
		S-2106.8-4632.6-2110.1-4632.6"/>
	<path class="st1" d="M-2087.4-4638.7c0,4.6-3.7,8.3-8.3,8.3c-4.6,0-8.3-3.7-8.3-8.3c0-4.6,3.7-8.3,8.3-8.3
		C-2091.1-4647-2087.4-4643.3-2087.4-4638.7"/>
	<path class="st2" d="M-1855.3-4797.2h24.5v-18.8c0-5.4,4.4-9.7,9.7-9.7h89.6c5.4,0,9.7,4.4,9.7,9.7v189.1c0,5.4-4.4,9.7-9.7,9.7
		h-89.6c-5.4,0-9.7-4.4-9.7-9.7v-18.8h-24.5c-5.4,0-9.7-4.4-9.7-9.7v-132.1C-1865.1-4792.8-1860.7-4797.2-1855.3-4797.2z"/>
	<path class="st3" d="M-1785.4-4777.2h14.2c2,0,3.6-1.6,3.6-3.6v-14.2c0-2-1.6-3.6-3.6-3.6h-14.2c-2,0-3.6,1.6-3.6,3.6v14.2
		C-1789-4778.8-1787.4-4777.2-1785.4-4777.2z"/>
	<path class="st3" d="M-1785.4-4732.9h14.2c2,0,3.6-1.6,3.6-3.6v-14.2c0-2-1.6-3.6-3.6-3.6h-14.2c-2,0-3.6,1.6-3.6,3.6v14.2
		C-1789-4734.5-1787.4-4732.9-1785.4-4732.9z"/>
	<path class="st3" d="M-1785.4-4688.6h14.2c2,0,3.6-1.6,3.6-3.6v-14.2c0-2-1.6-3.6-3.6-3.6h-14.2c-2,0-3.6,1.6-3.6,3.6v14.2
		C-1789-4690.2-1787.4-4688.6-1785.4-4688.6z"/>
	<path class="st3" d="M-1785.4-4644.2h14.2c2,0,3.6-1.6,3.6-3.6v-14.2c0-2-1.6-3.6-3.6-3.6h-14.2c-2,0-3.6,1.6-3.6,3.6v14.2
		C-1789-4645.8-1787.4-4644.2-1785.4-4644.2z"/>
	<path class="st4" d="M-1731.8-4562.1h-625.5c-22.6,0-40.9-18.3-40.9-40.9v-261.7c0-22.6,18.3-40.9,40.9-40.9h625.5
		c22.6,0,40.9,18.3,40.9,40.9v261.7C-1690.9-4580.4-1709.2-4562.1-1731.8-4562.1z"/>
</g>
<g>
	<path class="st4" d="M675.1,371.7H49.7c-22.6,0-40.9-18.3-40.9-40.9V69.1c0-22.6,18.3-40.9,40.9-40.9h625.5
		c22.6,0,40.9,18.3,40.9,40.9v261.7C716,353.4,697.7,371.7,675.1,371.7z"/>
	<g>
		<g>
			<g class="st5">
				<path class="st1" d="M414.5,233.9h-27.8c-7.6,0-13.7-6.1-13.7-13.7V97.7c0-7.6,6.1-13.7,13.7-13.7h27.8
					c7.6,0,13.7,6.1,13.7,13.7v122.5C428.2,227.8,422.1,233.9,414.5,233.9z"/>
				<g>
					<path class="st1" d="M429,96.4h11.7c0.4,0,0.8,0.3,0.8,0.7v0.7c0,0.4,0.4,0.7,0.8,0.7h18.7c0.4,0,0.8,0.3,0.8,0.7v3.9
						c0,0.4-0.4,0.7-0.8,0.7h-19.1c-0.4,0-0.8-0.3-0.8-0.6l0,0c0-0.3-0.4-0.6-0.8-0.6l-11.2,0c-0.4,0-0.8-0.3-0.8-0.7V97
						C428.2,96.7,428.5,96.4,429,96.4z"/>
					<path class="st1" d="M426.7,114.6h11.7c0.4,0,0.8,0.3,0.8,0.7v0.7c0,0.4,0.4,0.7,0.8,0.7h18.7c0.4,0,0.8,0.3,0.8,0.7v3.9
						c0,0.4-0.4,0.7-0.8,0.7h-19.1c-0.4,0-0.8-0.3-0.8-0.6v0c0-0.3-0.4-0.6-0.8-0.6l-11.2,0c-0.4,0-0.8-0.3-0.8-0.7v-4.7
						C425.9,114.9,426.2,114.6,426.7,114.6z"/>
					<path class="st1" d="M425.5,133.1h11.7c0.4,0,0.8,0.3,0.8,0.7v0.7c0,0.4,0.4,0.7,0.8,0.7h18.7c0.4,0,0.8,0.3,0.8,0.7v3.9
						c0,0.4-0.4,0.7-0.8,0.7h-19.1c-0.4,0-0.8-0.3-0.8-0.6l0,0c0-0.3-0.4-0.6-0.8-0.6l-11.2,0c-0.4,0-0.8-0.3-0.8-0.7v-4.7
						C424.7,133.4,425.1,133.1,425.5,133.1z"/>
					<path class="st1" d="M425.5,151.5h11.7c0.4,0,0.8,0.3,0.8,0.7v0.7c0,0.4,0.4,0.7,0.8,0.7h18.7c0.4,0,0.8,0.3,0.8,0.7v3.9
						c0,0.4-0.4,0.7-0.8,0.7h-19.1c-0.4,0-0.8-0.3-0.8-0.6l0,0c0-0.3-0.4-0.6-0.8-0.6l-11.2,0c-0.4,0-0.8-0.3-0.8-0.7v-4.7
						C424.7,151.8,425.1,151.5,425.5,151.5z"/>
					<path class="st1" d="M425.5,171.2h11.7c0.4,0,0.8,0.3,0.8,0.7v0.7c0,0.4,0.4,0.7,0.8,0.7h18.7c0.4,0,0.8,0.3,0.8,0.7v3.9
						c0,0.4-0.4,0.7-0.8,0.7h-19.1c-0.4,0-0.8-0.3-0.8-0.6l0,0c0-0.3-0.4-0.6-0.8-0.6l-11.2,0c-0.4,0-0.8-0.3-0.8-0.7v-4.7
						C424.7,171.5,425.1,171.2,425.5,171.2z"/>
					<path class="st1" d="M425.5,189.9h11.7c0.4,0,0.8,0.3,0.8,0.7v0.7c0,0.4,0.4,0.7,0.8,0.7h18.7c0.4,0,0.8,0.3,0.8,0.7v3.9
						c0,0.4-0.4,0.7-0.8,0.7h-19.1c-0.4,0-0.8-0.3-0.8-0.6l0,0c0-0.3-0.4-0.6-0.8-0.6l-11.2,0c-0.4,0-0.8-0.3-0.8-0.7v-4.7
						C424.7,190.2,425.1,189.9,425.5,189.9z"/>
					<path class="st1" d="M424.4,208.7H436c0.4,0,0.8,0.3,0.8,0.7v0.7c0,0.4,0.4,0.7,0.8,0.7h18.7c0.4,0,0.8,0.3,0.8,0.7v3.9
						c0,0.4-0.4,0.7-0.8,0.7h-19.1c-0.4,0-0.8-0.3-0.8-0.6l0,0c0-0.3-0.4-0.6-0.8-0.6l-11.2,0c-0.4,0-0.8-0.3-0.8-0.7v-4.7
						C423.6,209,423.9,208.7,424.4,208.7z"/>
					<path class="st1" d="M422.9,223.7h11.7c0.4,0,0.8,0.3,0.8,0.7v0.7c0,0.4,0.4,0.7,0.8,0.7h18.7c0.4,0,0.8,0.3,0.8,0.7v3.9
						c0,0.4-0.4,0.7-0.8,0.7h-19.1c-0.4,0-0.8-0.3-0.8-0.6l0,0c0-0.3-0.4-0.6-0.8-0.6l-11.2,0c-0.4,0-0.8-0.3-0.8-0.7v-4.7
						C422.1,224,422.5,223.7,422.9,223.7z"/>
				</g>
				<g>
					<path class="st1" d="M374.2,96.4h-11.7c-0.4,0-0.8,0.3-0.8,0.7v0.7c0,0.4-0.4,0.7-0.8,0.7h-18.7c-0.4,0-0.8,0.3-0.8,0.7v3.9
						c0,0.4,0.4,0.7,0.8,0.7h19.1c0.4,0,0.8-0.3,0.8-0.6l0,0c0-0.3,0.4-0.6,0.8-0.6l11.2,0c0.4,0,0.8-0.3,0.8-0.7V97
						C375,96.7,374.6,96.4,374.2,96.4z"/>
					<path class="st1" d="M376.5,114.6h-11.7c-0.4,0-0.8,0.3-0.8,0.7v0.7c0,0.4-0.4,0.7-0.8,0.7h-18.7c-0.4,0-0.8,0.3-0.8,0.7v3.9
						c0,0.4,0.4,0.7,0.8,0.7h19.1c0.4,0,0.8-0.3,0.8-0.6v0c0-0.3,0.4-0.6,0.8-0.6l11.2,0c0.4,0,0.8-0.3,0.8-0.7v-4.7
						C377.3,114.9,376.9,114.6,376.5,114.6z"/>
					<path class="st1" d="M377.7,133.1H366c-0.4,0-0.8,0.3-0.8,0.7v0.7c0,0.4-0.4,0.7-0.8,0.7h-18.7c-0.4,0-0.8,0.3-0.8,0.7v3.9
						c0,0.4,0.4,0.7,0.8,0.7h19.1c0.4,0,0.8-0.3,0.8-0.6l0,0c0-0.3,0.4-0.6,0.8-0.6l11.2,0c0.4,0,0.8-0.3,0.8-0.7v-4.7
						C378.4,133.4,378.1,133.1,377.7,133.1z"/>
					<path class="st1" d="M377.7,151.5H366c-0.4,0-0.8,0.3-0.8,0.7v0.7c0,0.4-0.4,0.7-0.8,0.7h-18.7c-0.4,0-0.8,0.3-0.8,0.7v3.9
						c0,0.4,0.4,0.7,0.8,0.7h19.1c0.4,0,0.8-0.3,0.8-0.6l0,0c0-0.3,0.4-0.6,0.8-0.6l11.2,0c0.4,0,0.8-0.3,0.8-0.7v-4.7
						C378.4,151.8,378.1,151.5,377.7,151.5z"/>
					<path class="st1" d="M377.7,171.2H366c-0.4,0-0.8,0.3-0.8,0.7v0.7c0,0.4-0.4,0.7-0.8,0.7h-18.7c-0.4,0-0.8,0.3-0.8,0.7v3.9
						c0,0.4,0.4,0.7,0.8,0.7h19.1c0.4,0,0.8-0.3,0.8-0.6l0,0c0-0.3,0.4-0.6,0.8-0.6l11.2,0c0.4,0,0.8-0.3,0.8-0.7v-4.7
						C378.4,171.5,378.1,171.2,377.7,171.2z"/>
					<path class="st1" d="M377.7,189.9H366c-0.4,0-0.8,0.3-0.8,0.7v0.7c0,0.4-0.4,0.7-0.8,0.7h-18.7c-0.4,0-0.8,0.3-0.8,0.7v3.9
						c0,0.4,0.4,0.7,0.8,0.7h19.1c0.4,0,0.8-0.3,0.8-0.6l0,0c0-0.3,0.4-0.6,0.8-0.6l11.2,0c0.4,0,0.8-0.3,0.8-0.7v-4.7
						C378.4,190.2,378.1,189.9,377.7,189.9z"/>
					<path class="st1" d="M378.8,208.7h-11.7c-0.4,0-0.8,0.3-0.8,0.7v0.7c0,0.4-0.4,0.7-0.8,0.7h-18.7c-0.4,0-0.8,0.3-0.8,0.7v3.9
						c0,0.4,0.4,0.7,0.8,0.7H366c0.4,0,0.8-0.3,0.8-0.6l0,0c0-0.3,0.4-0.6,0.8-0.6l11.2,0c0.4,0,0.8-0.3,0.8-0.7v-4.7
						C379.6,209,379.2,208.7,378.8,208.7z"/>
					<path class="st1" d="M380.2,223.7h-11.7c-0.4,0-0.8,0.3-0.8,0.7v0.7c0,0.4-0.4,0.7-0.8,0.7h-18.7c-0.4,0-0.8,0.3-0.8,0.7v3.9
						c0,0.4,0.4,0.7,0.8,0.7h19.1c0.4,0,0.8-0.3,0.8-0.6l0,0c0-0.3,0.4-0.6,0.8-0.6l11.2,0c0.4,0,0.8-0.3,0.8-0.7v-4.7
						C381,224,380.7,223.7,380.2,223.7z"/>
				</g>
			</g>
			<g class="st6">
				<rect x="263.5" y="245.4" class="st1" width="20.7" height="19.6"/>
				<rect x="263.2" y="272.4" class="st1" width="20.7" height="19.6"/>
				<rect x="308.4" y="258.4" class="st1" width="20.7" height="19.6"/>
			</g>
			<g class="st6">
				<g>
					
						<rect x="343.6" y="233.2" transform="matrix(-1.836970e-16 1 -1 -1.836970e-16 611.86 -98.2435)" class="st7" width="22.8" height="47.2"/>
					
						<rect x="392.3" y="233.2" transform="matrix(-1.836970e-16 1 -1 -1.836970e-16 660.5208 -146.9042)" class="st7" width="22.8" height="47.2"/>
				</g>
				<g>
					
						<rect x="343.6" y="258.5" transform="matrix(-1.836970e-16 1 -1 -1.836970e-16 637.212 -72.8915)" class="st7" width="22.8" height="47.2"/>
					
						<rect x="392.3" y="258.5" transform="matrix(-1.836970e-16 1 -1 -1.836970e-16 685.8727 -121.5522)" class="st7" width="22.8" height="47.2"/>
				</g>
			</g>
			<g class="st6">
				<rect x="451.6" y="269.4" class="st1" width="20.6" height="19.6"/>
				<rect x="451.3" y="296.4" class="st1" width="20.6" height="19.6"/>
				<rect x="496.1" y="282.5" class="st1" width="20.6" height="19.6"/>
			</g>
			<g class="st6">
				<rect x="243.8" y="96.4" class="st1" width="19.3" height="18.3"/>
				<rect x="243.8" y="143.5" class="st1" width="19.3" height="18.3"/>
				<rect x="239.3" y="181.1" class="st1" width="28.2" height="42.6"/>
				<rect x="239.3" y="223.7" class="st8" width="28.2" height="10.8"/>
				<rect x="237.4" y="169.3" class="st9" width="32.1" height="65.2"/>
				<rect x="239.3" y="109.1" class="st9" width="28.2" height="60.2"/>
				<path class="st1" d="M261,126.6l-5.4,8.5c-1.1,1.8-3.7,1.7-4.8-0.1l-5.1-8.7c-1.1-1.9,0.3-4.3,2.5-4.2l10.5,0.2
					C260.9,122.3,262.2,124.7,261,126.6z"/>
			</g>
			<g class="st6">
				<rect x="280.5" y="87.9" class="st9" width="35.4" height="53.7"/>
				<rect x="315.9" y="95.3" class="st9" width="24.5" height="46.3"/>
			</g>
			<rect x="286.5" y="95.3" class="st8" width="21.9" height="41.4"/>
			<rect x="318.8" y="102" class="st8" width="17.6" height="34.7"/>
			<rect x="273.6" y="148.9" class="st8" width="14.7" height="36"/>
			<rect x="297.5" y="148.9" class="st8" width="13.7" height="36"/>
			<rect x="318.8" y="148.9" class="st8" width="17.6" height="36"/>
			<rect x="320.7" y="193.6" class="st8" width="13" height="37.4"/>
			<rect x="297.5" y="195.1" class="st8" width="13.7" height="35.8"/>
			<rect x="273.6" y="195.1" class="st8" width="14.7" height="34"/>
			<rect x="336.3" y="252.3" class="st8" width="36.6" height="12.7"/>
			<rect x="384.4" y="252.3" class="st8" width="37.7" height="12.7"/>
			<rect x="393.2" y="280.7" class="st8" width="33.3" height="13.3"/>
			<rect x="350.7" y="282.5" class="st8" width="34.2" height="11.6"/>
			<g class="st5">
				<rect x="526.3" y="117.2" class="st1" width="22.1" height="33.5"/>
				<path class="st1" d="M537.6,161.5h-1.9c-3.7,0-6.7-3-6.7-6.7v-43.4c0-3.7,3-6.7,6.7-6.7h1.9c3.7,0,6.7,3,6.7,6.7v43.4
					C544.3,158.5,541.3,161.5,537.6,161.5z"/>
			</g>
			<g class="st5">
				<rect x="526.3" y="185.5" class="st1" width="24.9" height="38.3"/>
				<path class="st1" d="M540,236.1H536c-3.7,0-6.7-3-6.7-6.7v-51.6c0-3.7,3-6.7,6.7-6.7h3.9c3.7,0,6.7,3,6.7,6.7v51.6
					C546.6,233.1,543.6,236.1,540,236.1z"/>
			</g>
			<g class="st6">
				<rect x="473.1" y="137.2" class="st1" width="14.3" height="20.2"/>
				<path class="st1" d="M479.8,163.9L479.8,163.9c-2.7,0-4.9-2.2-4.9-4.9v-24.4c0-2.7,2.2-4.9,4.9-4.9l0,0c2.7,0,4.9,2.2,4.9,4.9
					v24.4C484.7,161.7,482.5,163.9,479.8,163.9z"/>
			</g>
			<g class="st6">
				<rect x="498.4" y="137.2" class="st1" width="14.3" height="20.2"/>
				<path class="st1" d="M505,163.9L505,163.9c-2.7,0-4.9-2.2-4.9-4.9v-24.4c0-2.7,2.2-4.9,4.9-4.9h0c2.7,0,4.9,2.2,4.9,4.9v24.4
					C510,161.7,507.8,163.9,505,163.9z"/>
			</g>
			<g class="st6">
				<rect x="498.5" y="190.1" class="st1" width="14.3" height="20.5"/>
				<path class="st1" d="M505.2,217.3L505.2,217.3c-2.7,0-4.9-2.2-4.9-4.9v-24.9c0-2.7,2.2-4.9,4.9-4.9l0,0c2.7,0,4.9,2.2,4.9,4.9
					v24.9C510.2,215.1,507.9,217.3,505.2,217.3z"/>
			</g>
			<rect x="473.5" y="103.6" class="st8" width="14.3" height="13.5"/>
			<rect x="497.9" y="104.8" class="st8" width="14.3" height="13.5"/>
			<rect x="468.4" y="96.4" class="st10" width="48.8" height="25.5"/>
			<rect x="468.4" y="126.2" class="st11" width="50.5" height="40.7"/>
			<rect x="494.1" y="178.4" class="st12" width="23" height="43"/>
			<g class="st6">
				<rect x="471.4" y="190.5" class="st1" width="14.3" height="20.5"/>
				<path class="st1" d="M478.1,217.7L478.1,217.7c-2.7,0-4.9-2.2-4.9-4.9v-24.9c0-2.7,2.2-4.9,4.9-4.9l0,0c2.7,0,4.9,2.2,4.9,4.9
					v24.9C483.1,215.5,480.8,217.7,478.1,217.7z"/>
			</g>
			<rect x="467" y="178.8" class="st12" width="23" height="43"/>
			<rect x="522.3" y="100" class="st13" width="29.8" height="66.9"/>
			<rect x="520.4" y="260.5" class="st10" width="125.1" height="40"/>
			<path class="st14" d="M553.4,298.9h-17.4c-4.8,0-8.6-3.9-8.6-8.6v-18.7c0-4.8,3.9-8.6,8.6-8.6h17.4c4.8,0,8.6,3.9,8.6,8.6v18.7
				C562.1,295,558.2,298.9,553.4,298.9z"/>
			<path class="st14" d="M634.9,298.9h-59.5c-4.7,0-8.4-3.8-8.4-8.4v-19.1c0-4.7,3.8-8.4,8.4-8.4h59.5c4.7,0,8.4,3.8,8.4,8.4v19.1
				C643.3,295.1,639.5,298.9,634.9,298.9z"/>
			<g>
				<path class="st15" d="M571.7,233.3l14.2-0.1l0.1,11.8c0,3.4,2.5,6.1,5.7,6.1l51.7-0.3c3.1,0,5.6-2.8,5.6-6.1l-0.6-118.7
					c0-3.4-2.5-6.1-5.7-6.1l-51.7,0.3c-3.1,0-5.6,2.8-5.6,6.1l0.1,11.8l-14.2,0.1c-3.1,0-5.6,2.8-5.6,6.1l0.4,83
					C566,230.6,568.6,233.3,571.7,233.3z"/>
				<path class="st16" d="M613.8,220.6l4.5,0c2.2,0,3.9,1.7,3.9,3.9l0,5.6c0,2.2-1.7,3.9-3.9,3.9l-4.5,0c-2.2,0-3.9-1.7-3.9-3.9
					l0-5.6C609.9,222.3,611.7,220.6,613.8,220.6z"/>
				<path class="st16" d="M613.7,192.7l4.5,0c2.2,0,3.9,1.7,3.9,3.9l0,5.6c0,2.2-1.7,3.9-3.9,3.9l-4.5,0c-2.2,0-3.9-1.7-3.9-3.9
					l0-5.6C609.8,194.5,611.5,192.7,613.7,192.7z"/>
				<path class="st16" d="M613.5,164.9l4.5,0c2.2,0,3.9,1.7,3.9,3.9l0,5.6c0,2.2-1.7,3.9-3.9,3.9l-4.5,0c-2.2,0-3.9-1.7-3.9-3.9
					l0-5.6C609.6,166.6,611.4,164.9,613.5,164.9z"/>
				<path class="st16" d="M613.4,137l4.5,0c2.2,0,3.9,1.7,3.9,3.9l0,5.6c0,2.2-1.7,3.9-3.9,3.9l-4.5,0c-2.2,0-3.9-1.7-3.9-3.9l0-5.6
					C609.5,138.8,611.2,137,613.4,137z"/>
			</g>
		</g>
		<g>
			<ellipse class="st17" cx="155.8" cy="200" rx="79.9" ry="76.4"/>
			<polygon class="st8" points="205.7,257.2 161,274.3 114.3,263 83.5,227.7 80.3,181.7 105.9,142.8 150.7,125.7 197.3,137 
				228.2,172.3 231.4,218.3 			"/>
			<polygon class="st18" points="195.2,245.2 159.9,258.7 123,249.8 98.7,221.9 96.1,185.6 116.4,154.8 151.7,141.3 188.6,150.2 
				213,178.1 215.5,214.4 			"/>
			<polygon class="st8" points="187.4,236.2 159.1,247 129.6,239.9 110.1,217.5 108.1,188.5 124.3,163.8 152.6,153 182.1,160.1 
				201.6,182.5 203.6,211.5 			"/>
		</g>
	</g>
</g>
</svg>
