<?xml version="1.0" encoding="utf-8"?>
<!-- Generator: Adobe Illustrator 22.0.0, SVG Export Plug-In . SVG Version: 6.00 Build 0)  -->
<svg version="1.1" id="图层_1" xmlns="http://www.w3.org/2000/svg" xmlns:xlink="http://www.w3.org/1999/xlink" x="0px" y="0px"
	 viewBox="0 0 740 400" style="enable-background:new 0 0 740 400;" xml:space="preserve">
<style type="text/css">
	.st0{fill:none;stroke:#FFFFFF;stroke-width:18.563;stroke-miterlimit:10;}
	.st1{fill:none;stroke:#FFFFFF;stroke-width:14.3229;stroke-miterlimit:10;}
	.st2{fill:none;stroke:#FFFFFF;stroke-width:5.3383;stroke-miterlimit:10;}
	.st3{fill:#FFFFFF;}
	.st4{fill:none;stroke:#FFFFFF;stroke-width:3.5721;stroke-linecap:round;stroke-linejoin:round;stroke-miterlimit:10;}
	.st5{fill:none;stroke:#FFFFFF;stroke-width:1.9736;stroke-miterlimit:10;}
	.st6{opacity:0.4;fill:#FFFFFF;}
	.st7{fill:none;}
	.st8{fill:none;stroke:#FFFFFF;stroke-width:15.3531;stroke-miterlimit:10;}
	.st9{fill:none;stroke:#FFFFFF;stroke-width:5.7219;stroke-miterlimit:10;}
	.st10{opacity:0.6;}
	.st11{clip-path:url(#SVGID_2_);fill:none;stroke:#FFFFFF;stroke-width:1.4132;stroke-miterlimit:10;}
	.st12{opacity:0.8;clip-path:url(#SVGID_2_);}
	.st13{clip-path:url(#SVGID_4_);fill:none;stroke:#FFFFFF;stroke-width:0.9109;stroke-miterlimit:10;}
	.st14{clip-path:url(#SVGID_4_);fill:#FFFFFF;}
	.st15{opacity:0.8;clip-path:url(#SVGID_4_);}
	.st16{clip-path:url(#SVGID_6_);fill:#FFFFFF;}
	.st17{clip-path:url(#SVGID_8_);fill:none;stroke:#FFFFFF;stroke-width:0.9109;stroke-miterlimit:10;}
	.st18{clip-path:url(#SVGID_8_);fill:#FFFFFF;}
	.st19{opacity:0.8;clip-path:url(#SVGID_8_);}
	.st20{clip-path:url(#SVGID_10_);fill:#FFFFFF;}
	.st21{fill:none;stroke:#FFFFFF;stroke-width:9.8998;stroke-miterlimit:10;}
	.st22{fill:none;stroke:#FFFFFF;stroke-width:4.9499;stroke-miterlimit:10;}
	.st23{fill:none;stroke:#FFFFFF;stroke-width:1.6489;stroke-miterlimit:10;}
	.st24{opacity:0.8;}
	.st25{clip-path:url(#SVGID_12_);fill:none;stroke:#FFFFFF;stroke-width:1.0628;stroke-miterlimit:10;}
	.st26{clip-path:url(#SVGID_12_);fill:#FFFFFF;}
	.st27{opacity:0.8;clip-path:url(#SVGID_12_);}
	.st28{clip-path:url(#SVGID_14_);fill:#FFFFFF;}
	.st29{clip-path:url(#SVGID_16_);fill:none;stroke:#FFFFFF;stroke-width:1.0628;stroke-miterlimit:10;}
	.st30{clip-path:url(#SVGID_16_);fill:#FFFFFF;}
	.st31{opacity:0.8;clip-path:url(#SVGID_16_);}
	.st32{clip-path:url(#SVGID_18_);fill:#FFFFFF;}
	.st33{fill:none;stroke:#FFFFFF;stroke-width:0.925;stroke-miterlimit:10;}
	.st34{clip-path:url(#SVGID_20_);fill:#FFFFFF;}
	.st35{fill:none;stroke:#FFFFFF;stroke-width:2.7602;stroke-miterlimit:10;}
	.st36{fill:none;stroke:#FFFFFF;stroke-width:1.2141;stroke-miterlimit:10;}
	.st37{fill:none;stroke:#FFFFFF;stroke-width:0.7825;stroke-miterlimit:10;}
	.st38{clip-path:url(#SVGID_22_);fill:#FFFFFF;}
	.st39{fill:none;stroke:#FFFFFF;stroke-width:1.361;stroke-miterlimit:10;}
	.st40{fill:none;stroke:#FFFFFF;stroke-width:1.1384;stroke-miterlimit:10;}
	.st41{clip-path:url(#SVGID_24_);fill:none;stroke:#FFFFFF;stroke-width:0.7338;stroke-miterlimit:10;}
	.st42{clip-path:url(#SVGID_24_);fill:#FFFFFF;}
	.st43{opacity:0.8;clip-path:url(#SVGID_24_);}
	.st44{clip-path:url(#SVGID_26_);fill:#FFFFFF;}
	.st45{clip-path:url(#SVGID_28_);fill:none;stroke:#FFFFFF;stroke-width:0.7338;stroke-miterlimit:10;}
	.st46{clip-path:url(#SVGID_28_);fill:#FFFFFF;}
	.st47{opacity:0.8;clip-path:url(#SVGID_28_);}
	.st48{clip-path:url(#SVGID_30_);fill:#FFFFFF;}
	.st49{fill:none;stroke:#FFFFFF;stroke-width:1.1391;stroke-miterlimit:10;}
	.st50{clip-path:url(#SVGID_32_);fill:none;stroke:#FFFFFF;stroke-width:0.7342;stroke-miterlimit:10;}
	.st51{clip-path:url(#SVGID_32_);fill:#FFFFFF;}
	.st52{opacity:0.8;clip-path:url(#SVGID_32_);}
	.st53{clip-path:url(#SVGID_34_);fill:#FFFFFF;}
	.st54{clip-path:url(#SVGID_36_);fill:none;stroke:#FFFFFF;stroke-width:0.7342;stroke-miterlimit:10;}
	.st55{clip-path:url(#SVGID_36_);fill:#FFFFFF;}
	.st56{opacity:0.8;clip-path:url(#SVGID_36_);}
	.st57{clip-path:url(#SVGID_38_);fill:#FFFFFF;}
	.st58{clip-path:url(#SVGID_40_);fill:none;stroke:#FFFFFF;stroke-width:0.7342;stroke-miterlimit:10;}
	.st59{clip-path:url(#SVGID_40_);fill:#FFFFFF;}
	.st60{opacity:0.8;clip-path:url(#SVGID_40_);}
	.st61{clip-path:url(#SVGID_42_);fill:#FFFFFF;}
	.st62{fill:none;stroke:#FFFFFF;stroke-width:3.2796;stroke-miterlimit:10;}
	.st63{fill:none;stroke:#FFFFFF;stroke-width:7.4114;stroke-miterlimit:10;}
	.st64{clip-path:url(#SVGID_44_);}
	.st65{fill:none;stroke:#FFFFFF;stroke-width:1.9031;stroke-miterlimit:10;}
	.st66{fill:none;stroke:#FFFFFF;stroke-width:19.7618;stroke-miterlimit:10;}
	.st67{fill:none;stroke:#FFFFFF;stroke-width:7.3654;stroke-miterlimit:10;}
	.st68{fill:none;stroke:#FFFFFF;stroke-width:0.8065;stroke-miterlimit:10;}
	.st69{clip-path:url(#SVGID_46_);fill:#FFFFFF;}
	.st70{fill:none;stroke:#FFFFFF;stroke-width:2.403;stroke-miterlimit:10;}
	.st71{clip-path:url(#SVGID_48_);fill:#FFFFFF;}
	.st72{fill:none;stroke:#FFFFFF;stroke-width:0.9541;stroke-miterlimit:10;}
	.st73{opacity:0.4;clip-path:url(#SVGID_50_);fill:#FFFFFF;}
	.st74{fill:none;stroke:#FFFFFF;stroke-width:0.8876;stroke-miterlimit:10;}
	.st75{fill:none;stroke:#FFFFFF;stroke-width:0.5721;stroke-miterlimit:10;}
	.st76{fill:none;stroke:#FFFFFF;stroke-width:0.9766;stroke-miterlimit:10;}
	.st77{fill:none;stroke:#FFFFFF;stroke-width:0.6295;stroke-miterlimit:10;}
</style>
<g>
	<path class="st0" d="M228.1-721.6h-625.5c-22.6,0-40.9-18.3-40.9-40.9v-261.7c0-22.6,18.3-40.9,40.9-40.9h625.5
		c22.6,0,40.9,18.3,40.9,40.9v261.7C269-739.9,250.7-721.6,228.1-721.6z"/>
	<g>
		<path class="st1" d="M-350.6-841.1l-16.4-0.1l-0.1,13.6c0,3.9-2.9,7-6.5,7l-59.8-0.3c-3.6,0-6.5-3.2-6.5-7.1l0.7-137.2
			c0-3.9,2.9-7,6.5-7l59.8,0.3c3.6,0,6.5,3.2,6.5,7.1l-0.1,13.6l16.4,0.1c3.6,0,6.5,3.2,6.5,7.1l-0.5,95.9
			C-344.1-844.3-347-841.1-350.6-841.1z"/>
		<path class="st2" d="M-398-855.8l-7.9,0c-1.7,0-3.2,1.4-3.2,3.1l0,9.1c0,1.7,1.4,3.2,3.1,3.2l7.9,0c1.7,0,3.2-1.4,3.2-3.1l0-9.1
			C-394.9-854.4-396.3-855.8-398-855.8z"/>
		<path class="st2" d="M-397.8-888l-7.9,0c-1.7,0-3.2,1.4-3.2,3.1l0,9.1c0,1.7,1.4,3.2,3.1,3.2l7.9,0c1.7,0,3.2-1.4,3.2-3.1l0-9.1
			C-394.7-886.6-396.1-888-397.8-888z"/>
		<path class="st2" d="M-397.7-920.2l-7.9,0c-1.7,0-3.2,1.4-3.2,3.1l0,9.1c0,1.7,1.4,3.2,3.1,3.2l7.9,0c1.7,0,3.2-1.4,3.2-3.1l0-9.1
			C-394.5-918.8-395.9-920.2-397.7-920.2z"/>
		<path class="st2" d="M-397.5-952.4l-7.9,0c-1.7,0-3.2,1.4-3.2,3.1l0,9.1c0,1.7,1.4,3.2,3.1,3.2l7.9,0c1.7,0,3.2-1.4,3.2-3.1l0-9.1
			C-394.3-950.9-395.7-952.4-397.5-952.4z"/>
	</g>
	<path class="st3" d="M-157.4-777.7v29.7c0,0.8,0.8,1.5,1.9,1.5h115.7c1,0,1.9-0.7,1.9-1.5v-29.7c0-0.8-0.8-1.5-1.9-1.5h-115.7
		C-156.6-779.1-157.4-778.5-157.4-777.7z M-66.7-757.4h-62c-1,0-1.9-0.7-1.9-1.5v-8c0-0.8,0.8-1.5,1.9-1.5h62c1,0,1.9,0.7,1.9,1.5v8
		C-64.8-758-65.7-757.4-66.7-757.4z"/>
	<path class="st3" d="M-32.2-749.7h-7.7c-0.8,0-1.5-0.7-1.5-1.5v-23c0-0.8,0.7-1.5,1.5-1.5h7.7c0.8,0,1.5,0.7,1.5,1.5v23
		C-30.8-750.4-31.4-749.7-32.2-749.7z"/>
	<path class="st3" d="M-163.2-749.7h7.7c0.8,0,1.5-0.7,1.5-1.5v-23c0-0.8-0.7-1.5-1.5-1.5h-7.7c-0.8,0-1.5,0.7-1.5,1.5v23
		C-164.7-750.4-164-749.7-163.2-749.7z"/>
	<g>
		<rect x="-123.2" y="-767.8" class="st3" width="0.9" height="9.9"/>
		<rect x="-121.3" y="-767.8" class="st3" width="0.9" height="9.9"/>
		<rect x="-125.2" y="-767.8" class="st3" width="0.9" height="9.9"/>
		<path class="st3" d="M-129.3-764.2v2.8c0,1.4,0.5,2.5,1.2,3.1v-9C-128.8-766.7-129.3-765.6-129.3-764.2z"/>
		<path class="st3" d="M-127-767.8c0,0-0.1,0-0.1,0v9.9c0,0,0.1,0,0.1,0h0.8v-9.9H-127z"/>
		<path class="st3" d="M-117.5-767.3v9c0.7-0.6,1.2-1.8,1.2-3.1v-2.8C-116.2-765.6-116.7-766.7-117.5-767.3z"/>
		<path class="st3" d="M-118.6-767.8h-0.8v9.9h0.8c0,0,0.1,0,0.1,0v-9.9C-118.5-767.8-118.5-767.8-118.6-767.8z"/>
	</g>
	<g>
		<g>
			<g>
				<rect x="-263.4" y="-969.7" class="st4" width="17.2" height="43.7"/>
				<path class="st3" d="M-264.2-940.6h-6.1c-0.4,0-0.8-0.3-0.8-0.8v-15.2c0-0.4,0.3-0.8,0.8-0.8h6.1c0.4,0,0.8,0.3,0.8,0.8v15.2
					C-263.4-940.9-263.8-940.6-264.2-940.6z"/>
				<path class="st3" d="M-238-953.3h-7.5c-0.4,0-0.8-0.3-0.8-0.8v-10.7c0-0.4,0.3-0.8,0.8-0.8h7.5c0.4,0,0.8,0.3,0.8,0.8v10.7
					C-237.2-953.7-237.5-953.3-238-953.3z"/>
				<path class="st3" d="M-238-928.1h-7.5c-0.4,0-0.8-0.3-0.8-0.8v-10.7c0-0.4,0.3-0.8,0.8-0.8h7.5c0.4,0,0.8,0.3,0.8,0.8v10.7
					C-237.2-928.4-237.5-928.1-238-928.1z"/>
				<rect x="-262" y="-961.8" class="st3" width="14.5" height="29.2"/>
			</g>
			<g>
				<rect x="-263.4" y="-913.8" class="st4" width="17.2" height="43.7"/>
				<path class="st3" d="M-264.2-884.6h-6.1c-0.4,0-0.8-0.3-0.8-0.8v-15.2c0-0.4,0.3-0.8,0.8-0.8h6.1c0.4,0,0.8,0.3,0.8,0.8v15.2
					C-263.4-884.9-263.8-884.6-264.2-884.6z"/>
				<path class="st3" d="M-238-897.3h-7.5c-0.4,0-0.8-0.3-0.8-0.8v-10.7c0-0.4,0.3-0.8,0.8-0.8h7.5c0.4,0,0.8,0.3,0.8,0.8v10.7
					C-237.2-897.7-237.5-897.3-238-897.3z"/>
				<path class="st3" d="M-238-872.1h-7.5c-0.4,0-0.8-0.3-0.8-0.8v-10.7c0-0.4,0.3-0.8,0.8-0.8h7.5c0.4,0,0.8,0.3,0.8,0.8v10.7
					C-237.2-872.4-237.5-872.1-238-872.1z"/>
				<rect x="-262" y="-905.9" class="st3" width="14.5" height="29.2"/>
			</g>
			<g>
				<rect x="-263.4" y="-857.8" class="st4" width="17.2" height="43.7"/>
				<path class="st3" d="M-264.2-828.6h-6.1c-0.4,0-0.8-0.3-0.8-0.8v-15.2c0-0.4,0.3-0.8,0.8-0.8h6.1c0.4,0,0.8,0.3,0.8,0.8v15.2
					C-263.4-828.9-263.8-828.6-264.2-828.6z"/>
				<path class="st3" d="M-238-841.3h-7.5c-0.4,0-0.8-0.3-0.8-0.8v-10.7c0-0.4,0.3-0.8,0.8-0.8h7.5c0.4,0,0.8,0.3,0.8,0.8v10.7
					C-237.2-841.7-237.5-841.3-238-841.3z"/>
				<path class="st3" d="M-238-816.1h-7.5c-0.4,0-0.8-0.3-0.8-0.8v-10.7c0-0.4,0.3-0.8,0.8-0.8h7.5c0.4,0,0.8,0.3,0.8,0.8v10.7
					C-237.2-816.4-237.5-816.1-238-816.1z"/>
				<rect x="-262" y="-849.9" class="st3" width="14.5" height="29.2"/>
			</g>
		</g>
		<g>
			<g>
				<path class="st5" d="M-291.8-925.4h-13c-2.9,0-5.3-2.4-5.3-5.3v-36.7c0-2.9,2.4-5.3,5.3-5.3h13c2.9,0,5.3,2.4,5.3,5.3v36.7
					C-286.5-927.8-288.9-925.4-291.8-925.4z"/>
				<g>
					<path class="st6" d="M-298.3-931.3L-298.3-931.3c-4.5,0-8.1-3.6-8.1-8.1v-19.2c0-4.5,3.6-8.1,8.1-8.1h0c4.5,0,8.1,3.6,8.1,8.1
						v19.2C-290.2-935-293.8-931.3-298.3-931.3z"/>
					<rect x="-306.5" y="-958" class="st3" width="16.3" height="17.8"/>
				</g>
			</g>
			<g>
				<path class="st5" d="M-291.8-868.2h-13c-2.9,0-5.3-2.4-5.3-5.3v-36.7c0-2.9,2.4-5.3,5.3-5.3h13c2.9,0,5.3,2.4,5.3,5.3v36.7
					C-286.5-870.6-288.9-868.2-291.8-868.2z"/>
				<g>
					<path class="st6" d="M-298.3-874.1L-298.3-874.1c-4.5,0-8.1-3.6-8.1-8.1v-19.2c0-4.5,3.6-8.1,8.1-8.1h0c4.5,0,8.1,3.6,8.1,8.1
						v19.2C-290.2-877.8-293.8-874.1-298.3-874.1z"/>
					<rect x="-306.5" y="-900.8" class="st3" width="16.3" height="17.8"/>
				</g>
			</g>
			<g>
				<path class="st5" d="M-291.8-811h-13c-2.9,0-5.3-2.4-5.3-5.3V-853c0-2.9,2.4-5.3,5.3-5.3h13c2.9,0,5.3,2.4,5.3,5.3v36.7
					C-286.5-813.3-288.9-811-291.8-811z"/>
				<g>
					<path class="st6" d="M-298.3-816.9L-298.3-816.9c-4.5,0-8.1-3.6-8.1-8.1v-19.2c0-4.5,3.6-8.1,8.1-8.1h0c4.5,0,8.1,3.6,8.1,8.1
						v19.2C-290.2-820.5-293.8-816.9-298.3-816.9z"/>
					<rect x="-306.5" y="-843.5" class="st3" width="16.3" height="17.8"/>
				</g>
			</g>
		</g>
	</g>
	<g>
		<path class="st6" d="M150.1-752.7H-25c-31,0-56.2-25.1-56.2-56.2v-175.1c0-31,25.1-56.2,56.2-56.2h175.1c31,0,56.2,25.1,56.2,56.2
			v175.1C206.2-777.8,181.1-752.7,150.1-752.7z"/>
		<g>
			<circle class="st7" cx="238" cy="-896.4" r="12.7"/>
			<path class="st7" d="M62.5-780c51.2,0,94.7-33.1,110.3-79.1H-47.7C-32.2-813.1,11.3-780,62.5-780z"/>
			<circle class="st7" cx="-113" cy="-896.4" r="12.7"/>
			<path class="st7" d="M62.5-1012.8c-51.2,0-94.7,33.1-110.3,79.1h220.5C157.2-979.7,113.7-1012.8,62.5-1012.8z"/>
			<path class="st3" d="M-68.1-882.4c-14-2.3-14.2-22.4-0.3-25.1l0,0c11.5-2.2,14.1-17.5,4.1-23.4c-1.4-0.8-2.5-1.8-3.4-2.9h-40.5
				c-20.6,0-37.4,16.7-37.4,37.4v0c0,20.6,16.7,37.4,37.4,37.4h44.8C-53.6-865.3-56.6-880.4-68.1-882.4z M-113-883.7
				c-7,0-12.7-5.7-12.7-12.7c0-7,5.7-12.7,12.7-12.7c7,0,12.7,5.7,12.7,12.7C-100.3-889.4-106-883.7-113-883.7z"/>
			<path class="st3" d="M233.3-933.8h-37.9c9.8,3.9,11.2,19.2-0.2,23.7c-10.9,4.3-10.7,19.8,0.3,23.8c13.3,4.9,9.9,24.6-4.3,24.7
				c-3,0-5.6,1-7.6,2.6h49.8c20.6,0,37.4-16.7,37.4-37.4v0C270.6-917,253.9-933.8,233.3-933.8z M238-883.7c-7,0-12.7-5.7-12.7-12.7
				c0-7,5.7-12.7,12.7-12.7c7,0,12.7,5.7,12.7,12.7C250.8-889.4,245.1-883.7,238-883.7z"/>
			<path class="st3" d="M62.5-1012.8c51.2,0,94.7,33.1,110.3,79.1h22.6c-1.5-0.6-3.2-0.9-5.1-0.9c-11.7,0.2-17.5-14.1-8.9-22.1
				c10.4-9.6-0.3-26.5-13.5-21.1c-10.8,4.4-21.4-6.9-16.3-17.4c6.2-12.7-9.9-24.6-20.2-14.8v0c-8.5,8-22.4,1.3-21.4-10.3
				c1.2-14.1-18.1-19.4-24.2-6.6c-5,10.6-20.4,9.3-23.7-1.9c-4-13.6-23.9-11.5-24.9,2.6c-0.9,11.7-15.7,16.1-22.8,6.8
				c-8.6-11.3-26.4-2.1-22.3,11.4v0c3.4,11.2-8.8,20.7-18.8,14.6c-12.1-7.4-25.4,7.6-16.6,18.7v0c7.2,9.2-0.8,22.5-12.3,20.4
				c-12.4-2.2-19.2,12.2-12.2,20.6h20C-32.2-979.7,11.3-1012.8,62.5-1012.8z"/>
			<path class="st3" d="M62.5-780c-51.2,0-94.7-33.1-110.3-79.1h-15.7c0,0,0,0,0,0v0c-12,7.5-4.5,26.1,9.3,23.2v0
				c11.5-2.4,19.8,10.7,12.8,20.1c-8.5,11.4,5.2,26,17.1,18.3v0c9.8-6.3,22.3,2.8,19.2,14.1v0c-3.8,13.7,14.2,22.4,22.6,10.9
				c6.9-9.5,21.8-5.4,23,6.2c1.4,14.1,21.3,15.7,25,2c3-11.3,18.4-12.9,23.7-2.5v0c6.4,12.7,25.6,6.9,24-7.2
				c-1.3-11.6,12.5-18.7,21.2-10.9h0c10.5,9.5,26.4-2.8,19.8-15.3c-5.4-10.4,4.9-21.9,15.8-17.8c13.3,5,23.6-12.1,12.9-21.5v0
				c-6.5-5.7-5.2-15.2,0.7-19.7h-10.7C157.2-813.1,113.7-780,62.5-780z"/>
			<path class="st3" d="M195.4-886.3c-11-4-11.2-19.5-0.3-23.8c11.4-4.5,10-19.8,0.2-23.7h-22.6c4,11.7,6.2,24.3,6.2,37.4
				s-2.2,25.6-6.2,37.4h10.7c2-1.6,4.6-2.6,7.6-2.6C205.3-861.7,208.7-881.4,195.4-886.3z"/>
			<path class="st3" d="M-53.9-896.4c0-13.1,2.2-25.6,6.2-37.4h-20c0.9,1.1,2,2.1,3.4,2.9c10.1,6,7.4,21.2-4.1,23.4l0,0
				c-13.9,2.7-13.7,22.7,0.3,25.1c11.5,1.9,14.6,17.1,4.7,23.3h15.7C-51.7-870.8-53.9-883.3-53.9-896.4z"/>
		</g>
	</g>
</g>
<g>
	<path class="st0" d="M-1024.1,1907h-625.5c-22.6,0-40.9-18.3-40.9-40.9v-261.7c0-22.6,18.3-40.9,40.9-40.9h625.5
		c22.6,0,40.9,18.3,40.9,40.9v261.7C-983.2,1888.7-1001.5,1907-1024.1,1907z"/>
	<g>
		<path class="st8" d="M-1585.9,1676.1l-17.6,0.1l-0.1-14.6c0-4.2-3.1-7.6-7-7.5l-64.1,0.3c-3.8,0-6.9,3.4-6.9,7.6l0.6,147.1
			c0,4.2,3.1,7.6,7,7.5l64.1-0.3c3.8,0,6.9-3.4,6.9-7.6l-0.1-14.6l17.6-0.1c3.8,0,6.9-3.4,6.9-7.6l-0.4-102.8
			C-1579,1679.4-1582.1,1676.1-1585.9,1676.1z"/>
		<path class="st9" d="M-1636.4,1691.8l-9.2,0c-1.7,0-3-1.3-3.1-3l0-10.5c0-1.7,1.4-3,3-3.1l9.2,0c1.7,0,3,1.3,3.1,3l0,10.5
			C-1633.4,1690.4-1634.7,1691.8-1636.4,1691.8z"/>
		<path class="st9" d="M-1636.3,1726.3l-9.2,0c-1.7,0-3-1.4-3.1-3l0-10.5c0-1.7,1.4-3,3-3.1l9.2,0c1.7,0,3,1.4,3.1,3l0,10.5
			C-1633.2,1724.9-1634.6,1726.3-1636.3,1726.3z"/>
		<path class="st9" d="M-1636.1,1760.8l-9.2,0c-1.7,0-3-1.3-3.1-3l0-10.5c0-1.7,1.3-3,3-3.1l9.2,0c1.7,0,3,1.3,3.1,3l0,10.5
			C-1633.1,1759.4-1634.5,1760.8-1636.1,1760.8z"/>
		<path class="st9" d="M-1636,1795.3l-9.2,0c-1.7,0-3-1.4-3.1-3l0-10.5c0-1.7,1.3-3,3-3.1l9.2,0c1.7,0,3,1.4,3.1,3l0,10.5
			C-1633,1793.9-1634.3,1795.3-1636,1795.3z"/>
	</g>
	<g class="st10">
		<g>
			<defs>
				<rect id="SVGID_1_" x="-1064.2" y="1614.3" width="39.3" height="39.7"/>
			</defs>
			<clipPath id="SVGID_2_">
				<use xlink:href="#SVGID_1_"  style="overflow:visible;"/>
			</clipPath>
			<polygon class="st11" points="-1063.5,1615.9 -1025.9,1615 -1025.6,1630.6 -1063.2,1631.5 			"/>
			<g class="st12">
				<g>
					<defs>
						<rect id="SVGID_3_" x="-1061.2" y="1619.4" width="33.4" height="9.6"/>
					</defs>
					<clipPath id="SVGID_4_">
						<use xlink:href="#SVGID_3_"  style="overflow:visible;"/>
					</clipPath>
					<path class="st13" d="M-1060.7,1626.5l-0.1-3.9c0-1.1,1-2.1,2.3-2.1l27.8-0.7c1.3,0,2.3,0.9,2.3,2l0.1,3.9c0,1.1-1,2.1-2.3,2.1
						l-27.8,0.7C-1059.7,1628.5-1060.7,1627.6-1060.7,1626.5z"/>
					<path class="st14" d="M-1056,1626.4l-0.1-3.9c0-1.1,1-2.1,2.3-2.1l18.4-0.5c1.3,0,2.3,0.9,2.3,2l0.1,3.9c0,1.1-1,2.1-2.3,2.1
						l-18.4,0.5C-1055,1628.4-1056,1627.5-1056,1626.4"/>
					<g class="st15">
						<g>
							<defs>
								<rect id="SVGID_5_" x="-1060.8" y="1622.3" width="32.4" height="3.7"/>
							</defs>
							<clipPath id="SVGID_6_">
								<use xlink:href="#SVGID_5_"  style="overflow:visible;"/>
							</clipPath>
							<path class="st16" d="M-1057.3,1626c0.9,0,1.6-0.7,1.6-1.4c0-0.8-0.7-1.4-1.6-1.3c-0.6,0-1.1,0.3-1.3,0.7l-2.1-0.5l0.1,2.6
								l1.9-0.8C-1058.5,1625.7-1058,1626-1057.3,1626"/>
							<path class="st16" d="M-1031.8,1625.1c-0.9,0-1.6-0.6-1.6-1.3c0-0.8,0.7-1.4,1.5-1.4c0.6,0,1.1,0.2,1.4,0.6l2.1-0.7l0,2.6
								l-1.9-0.7C-1030.5,1624.7-1031.1,1625.1-1031.8,1625.1"/>
						</g>
					</g>
				</g>
			</g>
			<polygon class="st11" points="-1063.5,1637.7 -1025.9,1636.8 -1025.6,1652.4 -1063.2,1653.3 			"/>
			<g class="st12">
				<g>
					<defs>
						<rect id="SVGID_7_" x="-1061.2" y="1641.2" width="33.4" height="9.6"/>
					</defs>
					<clipPath id="SVGID_8_">
						<use xlink:href="#SVGID_7_"  style="overflow:visible;"/>
					</clipPath>
					<path class="st17" d="M-1060.7,1648.3l-0.1-3.9c0-1.1,1-2.1,2.3-2.1l27.8-0.7c1.3,0,2.3,0.9,2.3,2l0.1,3.9c0,1.1-1,2.1-2.3,2.1
						l-27.8,0.7C-1059.7,1650.3-1060.7,1649.4-1060.7,1648.3z"/>
					<path class="st18" d="M-1056,1648.2l-0.1-3.9c0-1.1,1-2.1,2.3-2.1l18.4-0.5c1.3,0,2.3,0.9,2.3,2l0.1,3.9c0,1.1-1,2.1-2.3,2.1
						l-18.4,0.5C-1055,1650.2-1056,1649.3-1056,1648.2"/>
					<g class="st19">
						<g>
							<defs>
								<rect id="SVGID_9_" x="-1060.8" y="1644.1" width="32.4" height="3.7"/>
							</defs>
							<clipPath id="SVGID_10_">
								<use xlink:href="#SVGID_9_"  style="overflow:visible;"/>
							</clipPath>
							<path class="st20" d="M-1057.3,1647.8c0.9,0,1.6-0.7,1.6-1.4c0-0.8-0.7-1.4-1.6-1.3c-0.6,0-1.1,0.3-1.3,0.7l-2.1-0.5l0.1,2.6
								l1.9-0.8C-1058.5,1647.5-1058,1647.8-1057.3,1647.8"/>
							<path class="st20" d="M-1031.8,1646.9c-0.9,0-1.6-0.6-1.6-1.3c0-0.8,0.7-1.4,1.5-1.4c0.6,0,1.1,0.2,1.4,0.6l2.1-0.7l0,2.6
								l-1.9-0.7C-1030.5,1646.5-1031.1,1646.9-1031.8,1646.9"/>
						</g>
					</g>
				</g>
			</g>
		</g>
	</g>
	<g>
		<path class="st21" d="M-1045.6,1704.6l7.7,0l0.1-13l47.2,0.3c4.1,0,7.4,3.6,7.4,7.9l-0.4,71.2c0,4.4-3.4,7.9-7.5,7.8l-47.2-0.3
			l0.1-13l-7.7,0c-4.4,0-7.9-3.8-7.8-8.4l0.2-44.3C-1053.5,1708.3-1049.9,1704.6-1045.6,1704.6z"/>
		<g>
			<path class="st22" d="M-1004.6,1728.9l-8.6,0c-0.7,0-1.3-0.6-1.3-1.3l0-9.3c0-0.7,0.6-1.3,1.3-1.3l8.6,0c0.7,0,1.3,0.6,1.3,1.3
				l0,9.3C-1003.3,1728.3-1003.9,1728.9-1004.6,1728.9z"/>
			<path class="st22" d="M-1004.7,1753.6l-8.6,0c-0.7,0-1.3-0.6-1.3-1.3l0-9.3c0-0.7,0.6-1.3,1.3-1.3l8.6,0c0.7,0,1.3,0.6,1.3,1.3
				l0,9.3C-1003.4,1753-1004,1753.6-1004.7,1753.6z"/>
		</g>
	</g>
	<g>
		<path class="st6" d="M-1481.5,1686.3h-57.2c-4.1,0-7.4-3.3-7.4-7.4v-57.2c0-4.1,3.3-7.4,7.4-7.4h57.2c4.1,0,7.4,3.3,7.4,7.4v57.2
			C-1474.1,1683-1477.4,1686.3-1481.5,1686.3z"/>
		<path class="st3" d="M-1477.4,1686.3h-7.5c-1.8,0-3.3-1.5-3.3-3.3v-65.4c0-1.8,1.5-3.3,3.3-3.3h7.5c1.8,0,3.3,1.5,3.3,3.3v65.4
			C-1474.1,1684.8-1475.6,1686.3-1477.4,1686.3z"/>
	</g>
	<g>
		<path class="st6" d="M-1087.6,1847.2h-19.4c-4.1,0-7.4-3.3-7.4-7.4v-65c0-4.1,3.3-7.4,7.4-7.4h19.4c4.1,0,7.4,3.3,7.4,7.4v65
			C-1080.2,1843.9-1083.5,1847.2-1087.6,1847.2z"/>
		<path class="st3" d="M-1089.2,1834.1h-16.3c-4.9,0-9-4-9-9v-35.6c0-4.9,4-9,9-9h16.3c4.9,0,9,4,9,9v35.6
			C-1080.2,1830-1084.2,1834.1-1089.2,1834.1z"/>
	</g>
	<g>
		<path class="st6" d="M-1139.7,1845.1h-19.4c-3.2,0-5.8-2.6-5.8-5.8v-42.1c0-3.2,2.6-5.8,5.8-5.8h19.4c3.2,0,5.8,2.6,5.8,5.8v42.1
			C-1134,1842.5-1136.6,1845.1-1139.7,1845.1z"/>
		<path class="st3" d="M-1141,1836.3h-16.9c-3.8,0-7-3.1-7-7v-22c0-3.8,3.1-7,7-7h16.9c3.8,0,7,3.1,7,7v22
			C-1134,1833.2-1137.1,1836.3-1141,1836.3z"/>
	</g>
	<g>
		<polygon class="st23" points="-1205.3,1836.9 -1206.2,1799.3 -1185,1799.2 -1184.1,1836.8 		"/>
		<g class="st24">
			<g>
				<defs>
					
						<rect id="SVGID_11_" x="-1210.6" y="1811.5" transform="matrix(9.019782e-03 -1 1 9.019782e-03 -3001.1201 607.7914)" width="33.4" height="13"/>
				</defs>
				<clipPath id="SVGID_12_">
					<use xlink:href="#SVGID_11_"  style="overflow:visible;"/>
				</clipPath>
				<path class="st25" d="M-1190.9,1834.3l-5.3,0c-1.5,0-2.8-1-2.8-2.3l-0.7-27.8c0-1.3,1.2-2.3,2.7-2.3l5.3,0c1.5,0,2.8,1,2.8,2.3
					l0.7,27.8C-1188.1,1833.2-1189.3,1834.3-1190.9,1834.3z"/>
				<path class="st26" d="M-1191,1829.6l-5.3,0c-1.5,0-2.8-1-2.8-2.3l-0.4-18.4c0-1.3,1.2-2.3,2.7-2.3l5.3,0c1.5,0,2.8,1,2.8,2.3
					l0.4,18.4C-1188.2,1828.5-1189.4,1829.5-1191,1829.6"/>
				<g class="st27">
					<g>
						<defs>
							
								<rect id="SVGID_13_" x="-1210.1" y="1815.6" transform="matrix(9.019782e-03 -1 1 9.019782e-03 -3001.1653 607.7926)" width="32.4" height="5"/>
						</defs>
						<clipPath id="SVGID_14_">
							<use xlink:href="#SVGID_13_"  style="overflow:visible;"/>
						</clipPath>
						<path class="st28" d="M-1191.5,1830.8c0-0.9-0.9-1.6-1.9-1.6c-1,0-1.9,0.7-1.8,1.6c0,0.6,0.4,1.1,1,1.4l-0.8,2.1l3.6-0.1
							l-1.1-1.9C-1192,1832.1-1191.5,1831.5-1191.5,1830.8"/>
						<path class="st28" d="M-1192.5,1805.3c0,0.9-0.8,1.6-1.8,1.6c-1,0-1.9-0.7-1.9-1.6c0-0.6,0.3-1.1,0.9-1.4l-0.9-2.1l3.6,0.1
							l-1,1.9C-1193.1,1804-1192.5,1804.6-1192.5,1805.3"/>
					</g>
				</g>
			</g>
		</g>
	</g>
	<g>
		<polygon class="st23" points="-1241.2,1836.9 -1242.1,1799.3 -1221,1799.2 -1220.1,1836.8 		"/>
		<g class="st24">
			<g>
				<defs>
					
						<rect id="SVGID_15_" x="-1246.6" y="1811.5" transform="matrix(9.019782e-03 -1 1 9.019782e-03 -3036.7529 571.8355)" width="33.4" height="13"/>
				</defs>
				<clipPath id="SVGID_16_">
					<use xlink:href="#SVGID_15_"  style="overflow:visible;"/>
				</clipPath>
				<path class="st29" d="M-1226.8,1834.3l-5.3,0c-1.5,0-2.8-1-2.8-2.3l-0.7-27.8c0-1.3,1.2-2.3,2.7-2.3l5.3,0c1.5,0,2.8,1,2.8,2.3
					l0.7,27.8C-1224.1,1833.2-1225.3,1834.3-1226.8,1834.3z"/>
				<path class="st30" d="M-1226.9,1829.6l-5.3,0c-1.5,0-2.8-1-2.8-2.3l-0.4-18.4c0-1.3,1.2-2.3,2.7-2.3l5.3,0c1.5,0,2.8,1,2.8,2.3
					l0.4,18.4C-1224.2,1828.5-1225.4,1829.5-1226.9,1829.6"/>
				<g class="st31">
					<g>
						<defs>
							
								<rect id="SVGID_17_" x="-1246.1" y="1815.6" transform="matrix(9.019782e-03 -1 1 9.019782e-03 -3036.7983 571.8367)" width="32.4" height="5"/>
						</defs>
						<clipPath id="SVGID_18_">
							<use xlink:href="#SVGID_17_"  style="overflow:visible;"/>
						</clipPath>
						<path class="st32" d="M-1227.5,1830.8c0-0.9-0.9-1.6-1.9-1.6c-1,0-1.9,0.7-1.8,1.6c0,0.6,0.4,1.1,1,1.4l-0.8,2.1l3.6-0.1
							l-1.1-1.9C-1227.9,1832.1-1227.5,1831.5-1227.5,1830.8"/>
						<path class="st32" d="M-1228.5,1805.3c0,0.9-0.8,1.6-1.8,1.6c-1,0-1.9-0.7-1.9-1.6c0-0.6,0.3-1.1,0.9-1.4l-0.9-2.1l3.6,0.1
							l-1,1.9C-1229,1804-1228.5,1804.6-1228.5,1805.3"/>
					</g>
				</g>
			</g>
		</g>
	</g>
	<path class="st3" d="M-1175.6,1783.6h-23.4c-0.9,0-1.7-0.8-1.7-1.8v-56.5c0-1,0.8-1.8,1.7-1.8h20.2c0.4,0,0.8,0.1,1.1,0.4l1.9,1.6
		c0.1,0,0.1,0.1,0.1,0.1l1.3,1.3c0.3,0.3,0.5,0.8,0.5,1.2v53.6C-1173.9,1782.8-1174.6,1783.6-1175.6,1783.6z"/>
	<path class="st3" d="M-1511.4,1742.3h-16.9c-0.7,0-1.2-0.6-1.2-1.3v-40.9c0-0.7,0.6-1.3,1.2-1.3h14.6c0.3,0,0.6,0.1,0.8,0.3
		l1.4,1.1c0,0,0.1,0.1,0.1,0.1l0.9,1c0.2,0.2,0.4,0.6,0.4,0.9v38.8C-1510.1,1741.8-1510.7,1742.3-1511.4,1742.3z"/>
	<g>
		<path class="st6" d="M-1418.6,1781.2l0.5,95.8c0,6.6-5.3,12-11.9,12l-88.6,0.5c-6.6,0-12-5.3-12-11.9l-0.5-95.8
			c0-6.6,5.3-12,11.9-12l88.6-0.5C-1424.1,1769.3-1418.7,1774.6-1418.6,1781.2z"/>
		<path class="st3" d="M-1418.7,1774.6l0.1,12.8c0,2.9-2.3,5.3-5.3,5.3l-101.9,0.5c-2.9,0-5.3-2.3-5.3-5.3l-0.1-12.8
			c0-2.9,2.3-5.3,5.3-5.3l101.9-0.5C-1421.1,1769.3-1418.7,1771.6-1418.7,1774.6z"/>
	</g>
	<g>
		<path class="st6" d="M-1413.8,1718.8l-0.1,10c0,2.5-2.1,4.5-4.6,4.5l-44.5-0.4c-2.5,0-4.5-2.1-4.5-4.6l0.1-10
			c0-2.5,2.1-4.5,4.6-4.5l44.5,0.4C-1415.8,1714.3-1413.8,1716.3-1413.8,1718.8z"/>
		<path class="st3" d="M-1422.7,1719.7l-0.1,8.1c0,3-2.5,5.5-5.5,5.4l-25-0.2c-3,0-5.5-2.5-5.4-5.5l0.1-8.1c0-3,2.5-5.5,5.5-5.4
			l25,0.2C-1425.1,1714.2-1422.7,1716.7-1422.7,1719.7z"/>
	</g>
	<g>
		<path class="st6" d="M-1324.7,1757.7l-0.1,12.7c0,3.1-2.6,5.6-5.7,5.6l-54.5-0.5c-3.1,0-5.6-2.6-5.6-5.7l0.1-12.7
			c0-3.1,2.6-5.6,5.7-5.6l54.5,0.5C-1327.2,1752-1324.7,1754.5-1324.7,1757.7z"/>
		<path class="st3" d="M-1335.6,1758.7l-0.1,10.3c0,3.7-3.1,6.8-6.9,6.8l-30.5-0.3c-3.7,0-6.8-3.1-6.8-6.9l0.1-10.3
			c0-3.7,3.1-6.8,6.9-6.8l30.5,0.3C-1338.6,1751.9-1335.5,1755-1335.6,1758.7z"/>
	</g>
	<g>
		<g>
			<g>
				<ellipse class="st33" cx="-1383.3" cy="1630.6" rx="35.1" ry="35.6"/>
				<ellipse class="st6" cx="-1383.3" cy="1630.6" rx="29.9" ry="30.3"/>
			</g>
			<g>
				<path class="st3" d="M-1380.9,1637.8l-0.9,1.8l3.2,1.6l-1.4,2.7l-3.2-1.6l-3.1,6.3l-1.7-0.8l-4.7-9.3l1.7-3.5l7.2,3.7l0.9-1.8
					L-1380.9,1637.8z M-1385,1641.4l-2.5-1.3c-0.7-0.4-1.8-1-2.5-1.4l0,0.1c0.5,0.7,0.9,1.4,1.4,2.2l1.9,3.8L-1385,1641.4z"/>
				<path class="st3" d="M-1383.8,1626.1l-3.3,6.6l-2-1l4.9-9.8l1.5,0.8c1.8,5.2,4,6.9,8.7,9.6l-1.5,3
					C-1379.7,1632.8-1382,1630.5-1383.8,1626.1z"/>
				<path class="st3" d="M-1377.3,1623.1c-4.2-2.2-5.3-5.2-3.8-8.2c1.5-3,4.6-3.9,8.8-1.8c4.2,2.1,5.4,5.3,3.9,8.2
					C-1369.9,1624.4-1373.1,1625.3-1377.3,1623.1z M-1373.7,1615.9c-3.4-1.7-4.9-1.3-5.5,0c-0.6,1.3-0.1,2.7,3.3,4.5
					c3.4,1.8,5,1.3,5.6,0.1C-1369.7,1619.2-1370.3,1617.7-1373.7,1615.9z"/>
			</g>
		</g>
		<path class="st6" d="M-1350.6,1674.3h-64.4c-1.9,0-3.4-1.5-3.4-3.4v-77.3c0-1.9,1.5-3.4,3.4-3.4h64.4c1.9,0,3.4,1.5,3.4,3.4v77.3
			C-1347.2,1672.8-1348.7,1674.3-1350.6,1674.3z"/>
	</g>
	<g>
		<g class="st10">
			<g>
				<defs>
					<rect id="SVGID_19_" x="-1158.6" y="1612.6" width="55.6" height="84.6"/>
				</defs>
				<clipPath id="SVGID_20_">
					<use xlink:href="#SVGID_19_"  style="overflow:visible;"/>
				</clipPath>
				<path class="st34" d="M-1112.3,1697.1h-37c-5.1,0-9.3-5.1-9.3-11.4V1624c0-6.3,4.2-11.4,9.3-11.4h37c5.1,0,9.3,5.1,9.3,11.4
					v61.8C-1103,1692-1107.2,1697.1-1112.3,1697.1"/>
			</g>
		</g>
		<path class="st35" d="M-1112.3,1697.1h-37c-5.1,0-9.3-5.1-9.3-11.4V1624c0-6.3,4.2-11.4,9.3-11.4h37c5.1,0,9.3,5.1,9.3,11.4v61.8
			C-1103,1692-1107.2,1697.1-1112.3,1697.1z"/>
		<path class="st3" d="M-1102.5,1625h8c0.3,0,0.5,0.3,0.5,0.6v0.6c0,0.3,0.2,0.6,0.5,0.6h12.7c0.3,0,0.5,0.3,0.5,0.6v3.4
			c0,0.3-0.2,0.6-0.5,0.6h-13.1c-0.3,0-0.5-0.2-0.5-0.5c0-0.3-0.3-0.5-0.5-0.5l-7.7,0c-0.3,0-0.5-0.3-0.5-0.6v-4.2
			C-1103,1625.3-1102.8,1625-1102.5,1625"/>
		<path class="st3" d="M-1102.5,1643.4h8c0.3,0,0.5,0.3,0.5,0.6v0.6c0,0.3,0.2,0.6,0.5,0.6h12.7c0.3,0,0.5,0.3,0.5,0.6v3.4
			c0,0.3-0.2,0.6-0.5,0.6h-13.1c-0.3,0-0.5-0.2-0.5-0.5c0-0.3-0.3-0.5-0.5-0.5l-7.7,0c-0.3,0-0.5-0.3-0.5-0.6v-4.2
			C-1103,1643.7-1102.8,1643.4-1102.5,1643.4"/>
		<path class="st3" d="M-1102.5,1661.9h8c0.3,0,0.5,0.3,0.5,0.6v0.6c0,0.3,0.2,0.6,0.5,0.6h12.7c0.3,0,0.5,0.3,0.5,0.6v3.4
			c0,0.3-0.2,0.6-0.5,0.6h-13.1c-0.3,0-0.5-0.2-0.5-0.5c0-0.3-0.3-0.5-0.5-0.5l-7.7,0c-0.3,0-0.5-0.3-0.5-0.6v-4.2
			C-1103,1662.1-1102.8,1661.9-1102.5,1661.9"/>
		<path class="st3" d="M-1102.5,1680.3h8c0.3,0,0.5,0.3,0.5,0.6v0.6c0,0.3,0.2,0.6,0.5,0.6h12.7c0.3,0,0.5,0.3,0.5,0.6v3.4
			c0,0.3-0.2,0.6-0.5,0.6h-13.1c-0.3,0-0.5-0.2-0.5-0.5c0-0.3-0.3-0.5-0.5-0.5l-7.7,0c-0.3,0-0.5-0.3-0.5-0.6v-4.2
			C-1103,1680.6-1102.8,1680.3-1102.5,1680.3"/>
		<path class="st3" d="M-1159.2,1625h-8c-0.3,0-0.5,0.3-0.5,0.6v0.6c0,0.3-0.2,0.6-0.5,0.6h-12.7c-0.3,0-0.5,0.3-0.5,0.6v3.4
			c0,0.3,0.2,0.6,0.5,0.6h13.1c0.3,0,0.5-0.2,0.5-0.5c0-0.3,0.3-0.5,0.5-0.5l7.7,0c0.3,0,0.5-0.3,0.5-0.6v-4.2
			C-1158.7,1625.3-1158.9,1625-1159.2,1625"/>
		<path class="st3" d="M-1159.2,1643.4h-8c-0.3,0-0.5,0.3-0.5,0.6v0.6c0,0.3-0.2,0.6-0.5,0.6h-12.7c-0.3,0-0.5,0.3-0.5,0.6v3.4
			c0,0.3,0.2,0.6,0.5,0.6h13.1c0.3,0,0.5-0.2,0.5-0.5c0-0.3,0.3-0.5,0.5-0.5l7.7,0c0.3,0,0.5-0.3,0.5-0.6v-4.2
			C-1158.7,1643.7-1158.9,1643.4-1159.2,1643.4"/>
		<path class="st3" d="M-1159.2,1661.9h-8c-0.3,0-0.5,0.3-0.5,0.6v0.6c0,0.3-0.2,0.6-0.5,0.6h-12.7c-0.3,0-0.5,0.3-0.5,0.6v3.4
			c0,0.3,0.2,0.6,0.5,0.6h13.1c0.3,0,0.5-0.2,0.5-0.5c0-0.3,0.3-0.5,0.5-0.5l7.7,0c0.3,0,0.5-0.3,0.5-0.6v-4.2
			C-1158.7,1662.1-1158.9,1661.9-1159.2,1661.9"/>
		<path class="st3" d="M-1159.2,1680.3h-8c-0.3,0-0.5,0.3-0.5,0.6v0.6c0,0.3-0.2,0.6-0.5,0.6h-12.7c-0.3,0-0.5,0.3-0.5,0.6v3.4
			c0,0.3,0.2,0.6,0.5,0.6h13.1c0.3,0,0.5-0.2,0.5-0.5c0-0.3,0.3-0.5,0.5-0.5l7.7,0c0.3,0,0.5-0.3,0.5-0.6v-4.2
			C-1158.7,1680.6-1158.9,1680.3-1159.2,1680.3"/>
	</g>
	<g>
		
			<rect x="-1309.3" y="1587.6" transform="matrix(-1 4.785862e-03 -4.785862e-03 -1 -2581.7651 3196.2014)" class="st36" width="29.1" height="14.8"/>
		<g class="st24">
			<path class="st37" d="M-1307.3,1597.8l0-3.7c0-1.1,0.8-1.9,1.8-1.9l21.5-0.1c1,0,1.8,0.9,1.8,1.9l0,3.7c0,1.1-0.8,1.9-1.8,1.9
				l-21.5,0.1C-1306.5,1599.7-1307.3,1598.9-1307.3,1597.8z"/>
			<path class="st3" d="M-1303.6,1597.8l0-3.7c0-1.1,0.8-1.9,1.8-1.9l14.2-0.1c1,0,1.8,0.9,1.8,1.9l0,3.7c0,1.1-0.8,1.9-1.8,1.9
				l-14.2,0.1C-1302.8,1599.7-1303.6,1598.8-1303.6,1597.8z"/>
			<g class="st24">
				<path class="st3" d="M-1304.6,1597.4c0.7,0,1.2-0.6,1.2-1.3c0-0.7-0.6-1.3-1.2-1.3c-0.4,0-0.8,0.3-1.1,0.7l-1.6-0.6l0.1,2.5
					l1.5-0.8C-1305.6,1597-1305.1,1597.4-1304.6,1597.4z"/>
				<path class="st3" d="M-1284.8,1597c-0.7,0-1.2-0.6-1.2-1.3c0-0.7,0.5-1.3,1.2-1.3c0.4,0,0.8,0.2,1.1,0.6l1.6-0.6l0,2.5l-1.5-0.7
					C-1283.8,1596.7-1284.3,1597-1284.8,1597z"/>
			</g>
		</g>
	</g>
	<g>
		<g class="st10">
			<g>
				<defs>
					
						<rect id="SVGID_21_" x="-1324.6" y="1612.9" transform="matrix(1.148577e-02 -0.9999 0.9999 1.148577e-02 -2931.5266 304.7119)" width="25.8" height="44.3"/>
				</defs>
				<clipPath id="SVGID_22_">
					<use xlink:href="#SVGID_21_"  style="overflow:visible;"/>
				</clipPath>
				<path class="st38" d="M-1289.4,1626.7l-0.2,17.2c0,2.4-2.7,4.3-6,4.2l-32.3-0.4c-3.3,0-5.9-2-5.9-4.4l0.2-17.2
					c0-2.4,2.7-4.3,6-4.2l32.3,0.4C-1292,1622.4-1289.4,1624.3-1289.4,1626.7"/>
			</g>
		</g>
		<path class="st39" d="M-1289.4,1626.7l-0.2,17.2c0,2.4-2.7,4.3-6,4.2l-32.3-0.4c-3.3,0-5.9-2-5.9-4.4l0.2-17.2
			c0-2.4,2.7-4.3,6-4.2l32.3,0.4C-1292,1622.4-1289.4,1624.3-1289.4,1626.7z"/>
		<path class="st3" d="M-1327.1,1621.7l0-3.7c0-0.1,0.1-0.2,0.3-0.2l0.3,0c0.2,0,0.3-0.1,0.3-0.2l0.1-5.9c0-0.1,0.1-0.2,0.3-0.2
			l1.8,0c0.2,0,0.3,0.1,0.3,0.3l-0.1,6.1c0,0.1-0.1,0.2-0.3,0.2c-0.2,0-0.3,0.1-0.3,0.2l0,3.6c0,0.1-0.1,0.2-0.3,0.2l-2.2,0
			C-1327,1622-1327.1,1621.8-1327.1,1621.7"/>
		<path class="st3" d="M-1317.5,1621.8l0-3.7c0-0.1,0.1-0.2,0.3-0.2l0.3,0c0.2,0,0.3-0.1,0.3-0.2l0.1-5.9c0-0.1,0.1-0.2,0.3-0.2
			l1.8,0c0.2,0,0.3,0.1,0.3,0.3l-0.1,6.1c0,0.1-0.1,0.2-0.3,0.2c-0.2,0-0.3,0.1-0.3,0.2l0,3.6c0,0.1-0.1,0.2-0.3,0.2l-2.2,0
			C-1317.3,1622.1-1317.5,1622-1317.5,1621.8"/>
		<path class="st3" d="M-1307.8,1621.9l0-3.7c0-0.1,0.1-0.2,0.3-0.2l0.3,0c0.2,0,0.3-0.1,0.3-0.2l0.1-5.9c0-0.1,0.1-0.2,0.3-0.2
			l1.8,0c0.2,0,0.3,0.1,0.3,0.3l-0.1,6.1c0,0.1-0.1,0.2-0.3,0.2c-0.2,0-0.3,0.1-0.3,0.2l0,3.6c0,0.1-0.1,0.2-0.3,0.2l-2.2,0
			C-1307.7,1622.2-1307.8,1622.1-1307.8,1621.9"/>
		<path class="st3" d="M-1298.2,1622l0-3.7c0-0.1,0.1-0.2,0.3-0.2l0.3,0c0.2,0,0.3-0.1,0.3-0.2l0.1-5.9c0-0.1,0.1-0.2,0.3-0.2l1.8,0
			c0.2,0,0.3,0.1,0.3,0.3l-0.1,6.1c0,0.1-0.1,0.2-0.3,0.2c-0.2,0-0.3,0.1-0.3,0.2l0,3.6c0,0.1-0.1,0.2-0.3,0.2l-2.2,0
			C-1298,1622.3-1298.2,1622.2-1298.2,1622"/>
		<path class="st3" d="M-1327.4,1648.1l0,3.7c0,0.1,0.1,0.3,0.3,0.3l0.3,0c0.2,0,0.3,0.1,0.3,0.3l-0.1,5.9c0,0.1,0.1,0.3,0.3,0.3
			l1.8,0c0.2,0,0.3-0.1,0.3-0.2l0.1-6.1c0-0.1-0.1-0.2-0.3-0.3c-0.2,0-0.3-0.1-0.3-0.3l0-3.6c0-0.1-0.1-0.3-0.3-0.3l-2.2,0
			C-1327.3,1647.8-1327.4,1647.9-1327.4,1648.1"/>
		<path class="st3" d="M-1317.8,1648.2l0,3.7c0,0.1,0.1,0.3,0.3,0.3l0.3,0c0.2,0,0.3,0.1,0.3,0.3l-0.1,5.9c0,0.1,0.1,0.3,0.3,0.3
			l1.8,0c0.2,0,0.3-0.1,0.3-0.2l0.1-6.1c0-0.1-0.1-0.2-0.3-0.3c-0.2,0-0.3-0.1-0.3-0.3l0-3.6c0-0.1-0.1-0.3-0.3-0.3l-2.2,0
			C-1317.6,1647.9-1317.8,1648-1317.8,1648.2"/>
		<path class="st3" d="M-1308.1,1648.3l0,3.7c0,0.1,0.1,0.3,0.3,0.3l0.3,0c0.2,0,0.3,0.1,0.3,0.3l-0.1,5.9c0,0.1,0.1,0.3,0.3,0.3
			l1.8,0c0.2,0,0.3-0.1,0.3-0.2l0.1-6.1c0-0.1-0.1-0.2-0.3-0.3c-0.2,0-0.3-0.1-0.3-0.3l0-3.6c0-0.1-0.1-0.3-0.3-0.3l-2.2,0
			C-1308,1648-1308.1,1648.1-1308.1,1648.3"/>
		<path class="st3" d="M-1298.5,1648.4l0,3.7c0,0.1,0.1,0.3,0.3,0.3l0.3,0c0.2,0,0.3,0.1,0.3,0.3l-0.1,5.9c0,0.1,0.1,0.3,0.3,0.3
			l1.8,0c0.2,0,0.3-0.1,0.3-0.2l0.1-6.1c0-0.1-0.1-0.2-0.3-0.3c-0.2,0-0.3-0.1-0.3-0.3l0-3.6c0-0.1-0.1-0.3-0.3-0.3l-2.2,0
			C-1298.3,1648.1-1298.5,1648.2-1298.5,1648.4"/>
	</g>
	<g>
		<g>
			<polygon class="st40" points="-1334.5,1716.8 -1335.1,1690.9 -1320.5,1690.8 -1319.9,1716.8 			"/>
			<g class="st24">
				<g>
					<defs>
						
							<rect id="SVGID_23_" x="-1338.2" y="1699.3" transform="matrix(9.019782e-03 -1 1 9.019782e-03 -3018.4353 361.82)" width="23" height="9"/>
					</defs>
					<clipPath id="SVGID_24_">
						<use xlink:href="#SVGID_23_"  style="overflow:visible;"/>
					</clipPath>
					<path class="st41" d="M-1324.6,1715l-3.7,0c-1.1,0-1.9-0.7-1.9-1.6l-0.5-19.2c0-0.9,0.8-1.6,1.9-1.6l3.7,0
						c1.1,0,1.9,0.7,1.9,1.6l0.5,19.2C-1322.7,1714.3-1323.5,1715-1324.6,1715z"/>
					<path class="st42" d="M-1324.6,1711.7l-3.7,0c-1.1,0-1.9-0.7-1.9-1.6l-0.3-12.7c0-0.9,0.8-1.6,1.9-1.6l3.7,0
						c1.1,0,1.9,0.7,1.9,1.6l0.3,12.7C-1322.8,1711-1323.6,1711.7-1324.6,1711.7"/>
					<g class="st43">
						<g>
							<defs>
								
									<rect id="SVGID_25_" x="-1337.9" y="1702.1" transform="matrix(9.019782e-03 -1 1 9.019782e-03 -3018.4666 361.8209)" width="22.4" height="3.5"/>
							</defs>
							<clipPath id="SVGID_26_">
								<use xlink:href="#SVGID_25_"  style="overflow:visible;"/>
							</clipPath>
							<path class="st44" d="M-1325,1712.6c0-0.6-0.6-1.1-1.3-1.1c-0.7,0-1.3,0.5-1.3,1.1c0,0.4,0.3,0.7,0.7,0.9l-0.5,1.4l2.5-0.1
								l-0.8-1.3C-1325.3,1713.5-1325,1713.1-1325,1712.6"/>
							<path class="st44" d="M-1325.7,1695c0,0.6-0.5,1.1-1.3,1.1c-0.7,0-1.3-0.5-1.3-1.1c0-0.4,0.2-0.7,0.6-0.9l-0.6-1.4l2.5,0
								l-0.7,1.3C-1326.1,1694.1-1325.7,1694.5-1325.7,1695"/>
						</g>
					</g>
				</g>
			</g>
		</g>
		<g>
			<polygon class="st40" points="-1313.5,1716.8 -1314.1,1690.9 -1299.5,1690.8 -1298.9,1716.8 			"/>
			<g class="st24">
				<g>
					<defs>
						
							<rect id="SVGID_27_" x="-1317.2" y="1699.3" transform="matrix(9.019782e-03 -1 1 9.019782e-03 -2997.594 382.8502)" width="23" height="9"/>
					</defs>
					<clipPath id="SVGID_28_">
						<use xlink:href="#SVGID_27_"  style="overflow:visible;"/>
					</clipPath>
					<path class="st45" d="M-1303.5,1715l-3.7,0c-1.1,0-1.9-0.7-1.9-1.6l-0.5-19.2c0-0.9,0.8-1.6,1.9-1.6l3.7,0
						c1.1,0,1.9,0.7,1.9,1.6l0.5,19.2C-1301.6,1714.3-1302.5,1715-1303.5,1715z"/>
					<path class="st46" d="M-1303.6,1711.7l-3.7,0c-1.1,0-1.9-0.7-1.9-1.6l-0.3-12.7c0-0.9,0.8-1.6,1.9-1.6l3.7,0
						c1.1,0,1.9,0.7,1.9,1.6l0.3,12.7C-1301.7,1711-1302.6,1711.7-1303.6,1711.7"/>
					<g class="st47">
						<g>
							<defs>
								
									<rect id="SVGID_29_" x="-1316.8" y="1702.1" transform="matrix(9.019782e-03 -1 1 9.019782e-03 -2997.6252 382.851)" width="22.4" height="3.5"/>
							</defs>
							<clipPath id="SVGID_30_">
								<use xlink:href="#SVGID_29_"  style="overflow:visible;"/>
							</clipPath>
							<path class="st48" d="M-1304,1712.6c0-0.6-0.6-1.1-1.3-1.1c-0.7,0-1.3,0.5-1.3,1.1c0,0.4,0.3,0.7,0.7,0.9l-0.5,1.4l2.5-0.1
								l-0.8-1.3C-1304.3,1713.5-1304,1713.1-1304,1712.6"/>
							<path class="st48" d="M-1304.7,1695c0,0.6-0.5,1.1-1.3,1.1c-0.7,0-1.3-0.5-1.3-1.1c0-0.4,0.2-0.7,0.6-0.9l-0.6-1.4l2.5,0
								l-0.7,1.3C-1305.1,1694.1-1304.7,1694.5-1304.7,1695"/>
						</g>
					</g>
				</g>
			</g>
		</g>
	</g>
	<g>
		<g>
			<polygon class="st49" points="-1232.6,1654.9 -1233.1,1624.7 -1220.5,1624.6 -1220,1654.8 			"/>
			<g class="st24">
				<g>
					<defs>
						
							<rect id="SVGID_31_" x="-1239.2" y="1635.9" transform="matrix(9.019891e-03 -1 1 9.019891e-03 -2854.4067 399.2048)" width="26.8" height="7.7"/>
					</defs>
					<clipPath id="SVGID_32_">
						<use xlink:href="#SVGID_31_"  style="overflow:visible;"/>
					</clipPath>
					<path class="st50" d="M-1224,1652.7l-3.2,0c-0.9,0-1.7-0.8-1.7-1.9l-0.4-22.3c0-1,0.7-1.9,1.6-1.9l3.2,0c0.9,0,1.7,0.8,1.7,1.8
						l0.4,22.3C-1222.4,1651.9-1223.1,1652.7-1224,1652.7z"/>
					<path class="st51" d="M-1224.1,1649l-3.2,0c-0.9,0-1.7-0.8-1.7-1.9l-0.2-14.7c0-1,0.7-1.9,1.6-1.9l3.2,0c0.9,0,1.7,0.8,1.7,1.9
						l0.2,14.7C-1222.4,1648.1-1223.2,1649-1224.1,1649"/>
					<g class="st52">
						<g>
							<defs>
								
									<rect id="SVGID_33_" x="-1238.8" y="1638.3" transform="matrix(9.019891e-03 -1 1 9.019891e-03 -2854.4385 399.2103)" width="26" height="3"/>
							</defs>
							<clipPath id="SVGID_34_">
								<use xlink:href="#SVGID_33_"  style="overflow:visible;"/>
							</clipPath>
							<path class="st53" d="M-1224.4,1650c0-0.7-0.5-1.3-1.1-1.3c-0.6,0-1.1,0.6-1.1,1.3c0,0.5,0.2,0.9,0.6,1.1l-0.5,1.7l2.1-0.1
								l-0.7-1.5C-1224.7,1651-1224.4,1650.5-1224.4,1650"/>
							<path class="st53" d="M-1224.9,1629.5c0,0.7-0.5,1.3-1.1,1.3c-0.6,0-1.1-0.5-1.2-1.2c0-0.5,0.2-0.9,0.5-1.1l-0.5-1.7l2.1,0
								l-0.6,1.5C-1225.3,1628.5-1225,1628.9-1224.9,1629.5"/>
						</g>
					</g>
				</g>
			</g>
		</g>
		<g>
			<polygon class="st49" points="-1232.6,1698.6 -1233.1,1668.5 -1220.5,1668.4 -1220,1698.5 			"/>
			<g class="st24">
				<g>
					<defs>
						
							<rect id="SVGID_35_" x="-1239.2" y="1679.6" transform="matrix(9.019891e-03 -1 1 9.019891e-03 -2898.1582 442.5635)" width="26.8" height="7.7"/>
					</defs>
					<clipPath id="SVGID_36_">
						<use xlink:href="#SVGID_35_"  style="overflow:visible;"/>
					</clipPath>
					<path class="st54" d="M-1224,1696.5l-3.2,0c-0.9,0-1.7-0.8-1.7-1.9l-0.4-22.3c0-1,0.7-1.9,1.6-1.9l3.2,0c0.9,0,1.7,0.8,1.7,1.8
						l0.4,22.3C-1222.4,1695.6-1223.1,1696.5-1224,1696.5z"/>
					<path class="st55" d="M-1224.1,1692.7l-3.2,0c-0.9,0-1.7-0.8-1.7-1.9l-0.2-14.7c0-1,0.7-1.9,1.6-1.9l3.2,0
						c0.9,0,1.7,0.8,1.7,1.9l0.2,14.7C-1222.4,1691.9-1223.2,1692.7-1224.1,1692.7"/>
					<g class="st56">
						<g>
							<defs>
								
									<rect id="SVGID_37_" x="-1238.8" y="1682" transform="matrix(9.019891e-03 -1 1 9.019891e-03 -2898.1902 442.5691)" width="26" height="3"/>
							</defs>
							<clipPath id="SVGID_38_">
								<use xlink:href="#SVGID_37_"  style="overflow:visible;"/>
							</clipPath>
							<path class="st57" d="M-1224.4,1693.7c0-0.7-0.5-1.3-1.1-1.3c-0.6,0-1.1,0.6-1.1,1.3c0,0.5,0.2,0.9,0.6,1.1l-0.5,1.7l2.1-0.1
								l-0.7-1.5C-1224.7,1694.7-1224.4,1694.3-1224.4,1693.7"/>
							<path class="st57" d="M-1224.9,1673.2c0,0.7-0.5,1.3-1.1,1.3c-0.6,0-1.1-0.5-1.2-1.2c0-0.5,0.2-0.9,0.5-1.1l-0.5-1.7l2.1,0
								l-0.6,1.5C-1225.3,1672.2-1225,1672.7-1224.9,1673.2"/>
						</g>
					</g>
				</g>
			</g>
		</g>
		<g>
			<polygon class="st49" points="-1232.6,1750.4 -1233.1,1720.2 -1220.5,1720.1 -1220,1750.3 			"/>
			<g class="st24">
				<g>
					<defs>
						
							<rect id="SVGID_39_" x="-1239.2" y="1731.4" transform="matrix(9.019891e-03 -1 1 9.019891e-03 -2949.9172 493.8578)" width="26.8" height="7.7"/>
					</defs>
					<clipPath id="SVGID_40_">
						<use xlink:href="#SVGID_39_"  style="overflow:visible;"/>
					</clipPath>
					<path class="st58" d="M-1224,1748.2l-3.2,0c-0.9,0-1.7-0.8-1.7-1.9l-0.4-22.3c0-1,0.7-1.9,1.6-1.9l3.2,0c0.9,0,1.7,0.8,1.7,1.8
						l0.4,22.3C-1222.4,1747.4-1223.1,1748.2-1224,1748.2z"/>
					<path class="st59" d="M-1224.1,1744.5l-3.2,0c-0.9,0-1.7-0.8-1.7-1.9l-0.2-14.7c0-1,0.7-1.9,1.6-1.9l3.2,0
						c0.9,0,1.7,0.8,1.7,1.9l0.2,14.7C-1222.4,1743.6-1223.2,1744.5-1224.1,1744.5"/>
					<g class="st60">
						<g>
							<defs>
								
									<rect id="SVGID_41_" x="-1238.8" y="1733.8" transform="matrix(9.019891e-03 -1 1 9.019891e-03 -2949.9492 493.8633)" width="26" height="3"/>
							</defs>
							<clipPath id="SVGID_42_">
								<use xlink:href="#SVGID_41_"  style="overflow:visible;"/>
							</clipPath>
							<path class="st61" d="M-1224.4,1745.5c0-0.7-0.5-1.3-1.1-1.3c-0.6,0-1.1,0.6-1.1,1.3c0,0.5,0.2,0.9,0.6,1.1l-0.5,1.7l2.1-0.1
								l-0.7-1.5C-1224.7,1746.5-1224.4,1746-1224.4,1745.5"/>
							<path class="st61" d="M-1224.9,1725c0,0.7-0.5,1.3-1.1,1.3c-0.6,0-1.1-0.5-1.2-1.2c0-0.5,0.2-0.9,0.5-1.1l-0.5-1.7l2.1,0
								l-0.6,1.5C-1225.3,1724-1225,1724.5-1224.9,1725"/>
						</g>
					</g>
				</g>
			</g>
		</g>
	</g>
	<g>
		<path class="st6" d="M-1299.1,1889.3h-64.4c-1.9,0-3.4-1.5-3.4-3.4v-77.3c0-1.9,1.5-3.4,3.4-3.4h64.4c1.9,0,3.4,1.5,3.4,3.4v77.3
			C-1295.6,1887.7-1297.2,1889.3-1299.1,1889.3z"/>
		<g>
			<g>
				<ellipse class="st33" cx="-1331.7" cy="1845.6" rx="35.1" ry="35.6"/>
				<ellipse class="st6" cx="-1331.7" cy="1845.6" rx="29.9" ry="30.3"/>
			</g>
		</g>
		<g>
			<path class="st3" d="M-1340.8,1864.3l-0.3-2.9c1.6,0,3.2-0.3,4.4-1.4c1.4-1.3,1.7-2.9,0.6-4.1c-1.3-1.4-2.8-1.5-5.9,1.3l-1.8-2
				c2.6-2.3,2.6-4,1.4-5.2c-1-1.1-2.3-1.1-3.5,0c-1,0.9-1.4,2.1-1.5,3.7l-3-0.4c0.2-2.2,1-4,2.6-5.5c2.7-2.5,5.7-2.8,7.9-0.4
				c1.4,1.5,1.5,3.4,0.6,5.3l0.1,0.1c2-1,4.2-1,5.9,0.9c2.3,2.6,1.5,6.1-1.2,8.5C-1336.5,1864-1338.8,1864.5-1340.8,1864.3z"/>
			<path class="st3" d="M-1329.7,1854.1l-0.3-2.9c1.6,0,3.2-0.3,4.4-1.4c1.4-1.3,1.7-2.9,0.6-4.1c-1.3-1.4-2.8-1.5-5.9,1.3l-1.8-2
				c2.6-2.3,2.6-4,1.4-5.2c-1-1.1-2.3-1.1-3.5,0c-1,0.9-1.4,2.1-1.5,3.7l-3-0.4c0.2-2.2,1-4,2.6-5.5c2.7-2.5,5.7-2.8,7.9-0.4
				c1.4,1.5,1.5,3.4,0.6,5.3l0.1,0.1c2-1,4.2-1,5.9,0.9c2.3,2.6,1.5,6.1-1.2,8.5C-1325.5,1853.8-1327.7,1854.4-1329.7,1854.1z"/>
			<path class="st3" d="M-1318.1,1842.4l3-2.7l-8.1-8.8l-2.5,2.3l-1.6-1.7c1.1-1.5,1.8-2.8,2.2-4.1l2-1.9l10.7,11.6l2.6-2.4l2.1,2.2
				l-8.3,7.7L-1318.1,1842.4z"/>
		</g>
	</g>
	<g>
		<path class="st3" d="M-1015.5,1845.8l0.7,11.2c0.1,1.8-1.2,2.7-2.3,3.5c-0.1,0-0.1,0.1-0.2,0.2c-0.1,0.1-0.2,0.1-0.2,0.2l-7.5,5.7
			c-0.8,0.6-1.7,0.8-2.7,0.7c-1-0.1-1.8-0.6-2.4-1.4c-0.4-0.6-0.7-1.3-0.7-2c0-0.8,0.2-1.7,0.7-2.3l-13.9,0.8
			c-2,0.1-3.7-1.3-3.8-3.2c-0.1-1.9,1.4-3.5,3.4-3.7l5-0.3c-0.3-0.4-0.5-0.9-0.5-1.5c-0.1-1.1,0.5-2,1.4-2.7
			c-0.5-0.5-0.8-1.2-0.9-1.9c-0.1-1.3,0.7-2.4,2-3c-0.2-0.4-0.3-0.8-0.4-1.2c-0.1-1.8,1.4-3.3,3.4-3.4l10.9-0.6
			C-1019.7,1840.8-1015.6,1843.5-1015.5,1845.8 M-1029.4,1863.9c0,0.4,0.2,0.8,0.4,1.2c0.3,0.5,0.9,0.8,1.4,0.8
			c0.6,0.1,1.2-0.1,1.6-0.4l7.5-5.7c0.1,0,0.1-0.1,0.2-0.2c0.1-0.1,0.2-0.1,0.2-0.2l0,0c1.2-0.9,1.8-1.4,1.7-2.3l-0.7-11.2
			c-0.1-1.2-3.2-3.6-6.6-3.4l-10.9,0.6c-1.2,0.1-2.1,0.9-2.1,1.8c0,0.4,0.3,0.8,0.6,1.1l1.4,1.1l-1.7,0.2c-1.1,0.2-1.9,1-1.9,1.8
			c0,0.6,0.5,1.1,1.1,1.4l1.9,0.8l-2,0.6c-0.9,0.3-1.6,1-1.5,1.8c0,0.6,0.6,1.2,1.3,1.5l3.6,1.2l-10.7,0.6c-1.2,0.1-2.1,1-2.1,2.1
			c0.1,1.1,1.1,1.9,2.3,1.9l18.4-1.1l-2.7,2.1C-1029.2,1862.5-1029.5,1863.2-1029.4,1863.9"/>
		<g>
			<circle class="st62" cx="-1031.4" cy="1854.2" r="22.3"/>
			<line class="st62" x1="-1010" y1="1846.7" x2="-1051.3" y2="1861.7"/>
		</g>
	</g>
</g>
<g>
	<g>
		<g>
			<circle class="st63" cx="573" cy="202" r="50.6"/>
			<g>
				<defs>
					<circle id="SVGID_43_" cx="572.5" cy="202" r="50.6"/>
				</defs>
				<clipPath id="SVGID_44_">
					<use xlink:href="#SVGID_43_"  style="overflow:visible;"/>
				</clipPath>
				<g class="st64">
					<line class="st65" x1="453.2" y1="158.9" x2="684.1" y2="158.9"/>
					<line class="st65" x1="452.6" y1="169.7" x2="683.5" y2="169.7"/>
					<line class="st65" x1="452" y1="180.4" x2="682.9" y2="180.4"/>
					<line class="st65" x1="451.3" y1="191.2" x2="682.2" y2="191.2"/>
					<line class="st65" x1="450.7" y1="202" x2="681.6" y2="202"/>
					<line class="st65" x1="450.1" y1="212.8" x2="681" y2="212.8"/>
					<line class="st65" x1="449.4" y1="223.6" x2="680.3" y2="223.6"/>
					<line class="st65" x1="448.8" y1="234.4" x2="679.7" y2="234.4"/>
					<line class="st65" x1="448.2" y1="245.1" x2="679.1" y2="245.1"/>
					<line class="st65" x1="469.7" y1="137.3" x2="469.7" y2="275"/>
					<line class="st65" x1="480.5" y1="137.9" x2="480.5" y2="275.6"/>
					<line class="st65" x1="491.3" y1="138.6" x2="491.3" y2="276.2"/>
					<line class="st65" x1="502.1" y1="139.2" x2="502.1" y2="276.9"/>
					<line class="st65" x1="512.9" y1="139.8" x2="512.9" y2="277.5"/>
					<line class="st65" x1="523.6" y1="140.5" x2="523.6" y2="278.1"/>
					<line class="st65" x1="534.4" y1="141.1" x2="534.4" y2="278.8"/>
					<line class="st65" x1="545.2" y1="141.7" x2="545.2" y2="279.4"/>
					<line class="st65" x1="556" y1="142.4" x2="556" y2="280"/>
					<line class="st65" x1="566.8" y1="143" x2="566.8" y2="280.7"/>
					<line class="st65" x1="577.6" y1="143.6" x2="577.6" y2="281.3"/>
					<line class="st65" x1="588.4" y1="144.3" x2="588.4" y2="281.9"/>
					<line class="st65" x1="599.1" y1="144.9" x2="599.1" y2="282.6"/>
					<line class="st65" x1="609.9" y1="145.5" x2="609.9" y2="283.2"/>
					<line class="st65" x1="620.7" y1="146.2" x2="620.7" y2="283.8"/>
					<line class="st65" x1="631.5" y1="146.8" x2="631.5" y2="284.5"/>
					<line class="st65" x1="642.3" y1="147.4" x2="642.3" y2="285.1"/>
					<line class="st65" x1="653.1" y1="148.1" x2="653.1" y2="285.7"/>
					<line class="st65" x1="663.8" y1="148.7" x2="663.8" y2="286.4"/>
					<line class="st65" x1="674.6" y1="149.4" x2="674.6" y2="287"/>
				</g>
			</g>
		</g>
		<circle class="st6" cx="571.9" cy="202" r="67.4"/>
	</g>
	<g>
		<path class="st0" d="M681.9,372.2H56.4c-22.6,0-40.9-18.3-40.9-40.9V69.6c0-22.6,18.3-40.9,40.9-40.9h625.5
			c22.6,0,40.9,18.3,40.9,40.9v261.7C722.8,353.9,704.5,372.2,681.9,372.2z"/>
		<g>
			<path class="st66" d="M140.5,124.5l-22.6,0l0-18.8c0-5.4-4-9.7-9-9.7l-82.5,0.1c-4.9,0-9,4.4-8.9,9.7l0.2,189.3
				c0,5.4,4,9.7,9,9.7l82.5-0.1c4.9,0,9-4.4,8.9-9.7l0-18.8l22.6,0c4.9,0,9-4.4,8.9-9.7l-0.2-132.3
				C149.5,128.9,145.5,124.5,140.5,124.5z"/>
			<path class="st67" d="M75.5,144.5l-11.8,0c-2.2,0-3.9-1.7-3.9-3.9l0-13.5c0-2.2,1.7-3.9,3.9-3.9l11.8,0c2.2,0,3.9,1.7,3.9,3.9
				l0,13.5C79.4,142.8,77.6,144.5,75.5,144.5z"/>
			<path class="st67" d="M75.5,188.9l-11.8,0c-2.2,0-3.9-1.7-3.9-3.9l0-13.5c0-2.2,1.7-3.9,3.9-3.9l11.8,0c2.2,0,3.9,1.7,3.9,3.9
				l0,13.5C79.5,187.2,77.7,188.9,75.5,188.9z"/>
			<path class="st67" d="M75.6,233.3l-11.8,0c-2.2,0-3.9-1.7-3.9-3.9l0-13.5c0-2.2,1.7-3.9,3.9-3.9l11.8,0c2.2,0,3.9,1.7,3.9,3.9
				l0,13.5C79.5,231.6,77.8,233.3,75.6,233.3z"/>
			<path class="st67" d="M75.6,277.7l-11.8,0c-2.2,0-3.9-1.7-3.9-3.9l0-13.5c0-2.2,1.7-3.9,3.9-3.9l11.8,0c2.2,0,3.9,1.7,3.9,3.9
				l0,13.5C79.6,276,77.8,277.7,75.6,277.7z"/>
		</g>
	</g>
	<circle class="st3" cx="203.3" cy="342.4" r="37.5"/>
	<circle class="st3" cx="207.3" cy="57.4" r="37.5"/>
	<circle class="st3" cx="685.3" cy="200.5" r="37.5"/>
	<g class="st24">
		<path class="st68" d="M174.5,95.3l4.1,0c1.2,0,2.1,0.8,2.1,1.7l0,20.8c0,1-1,1.7-2.1,1.7l-4.1,0c-1.2,0-2.1-0.8-2.1-1.7l0-20.8
			C172.4,96,173.4,95.3,174.5,95.3z"/>
		<path class="st3" d="M174.5,98.8l4.1,0c1.2,0,2.1,0.8,2.1,1.7l0,13.8c0,1-1,1.7-2.1,1.7l-4.1,0c-1.2,0-2.1-0.8-2.1-1.7l0-13.8
			C172.4,99.6,173.4,98.8,174.5,98.8z"/>
		<g class="st24">
			<path class="st3" d="M175,97.9c0,0.7,0.6,1.2,1.5,1.2c0.8,0,1.5-0.5,1.5-1.2c0-0.4-0.3-0.8-0.7-1l0.6-1.6l-2.7,0.1l0.8,1.4
				C175.4,96.9,175,97.4,175,97.9z"/>
			<path class="st3" d="M175.3,117c0-0.7,0.6-1.2,1.4-1.2c0.8,0,1.5,0.5,1.5,1.2c0,0.4-0.3,0.8-0.7,1l0.6,1.6l-2.7-0.1l0.8-1.4
				C175.7,117.9,175.3,117.5,175.3,117z"/>
		</g>
	</g>
	<g>
		<path class="st6" d="M374.7,244.7h-48c-6.1,0-11-4.9-11-11v-63.4c0-6.1,4.9-11,11-11h48c6.1,0,11,4.9,11,11v63.4
			C385.7,239.7,380.8,244.7,374.7,244.7z"/>
		<path class="st3" d="M372.4,230.6H329c-7.3,0-13.3-6-13.3-13.3v-30.7c0-7.3,6-13.3,13.3-13.3h43.4c7.3,0,13.3,6,13.3,13.3v30.7
			C385.7,224.7,379.7,230.6,372.4,230.6z"/>
	</g>
	<g>
		<g>
			<g class="st10">
				<g>
					<defs>
						<rect id="SVGID_45_" x="376.8" y="257.9" width="42.1" height="84.6"/>
					</defs>
					<clipPath id="SVGID_46_">
						<use xlink:href="#SVGID_45_"  style="overflow:visible;"/>
					</clipPath>
					<path class="st69" d="M411.9,342.5h-28.1c-3.9,0-7-5.1-7-11.4v-61.8c0-6.3,3.1-11.4,7-11.4h28.1c3.9,0,7,5.1,7,11.4v61.8
						C419,337.4,415.8,342.5,411.9,342.5"/>
				</g>
			</g>
			<path class="st70" d="M411.9,342.5h-28.1c-3.9,0-7-5.1-7-11.4v-61.8c0-6.3,3.1-11.4,7-11.4h28.1c3.9,0,7,5.1,7,11.4v61.8
				C419,337.4,415.8,342.5,411.9,342.5z"/>
			<path class="st3" d="M419.4,270.4h6c0.2,0,0.4,0.3,0.4,0.6v0.6c0,0.3,0.2,0.6,0.4,0.6h9.7c0.2,0,0.4,0.3,0.4,0.6v3.4
				c0,0.3-0.2,0.6-0.4,0.6H426c-0.2,0-0.4-0.2-0.4-0.5c0-0.3-0.2-0.5-0.4-0.5l-5.8,0c-0.2,0-0.4-0.3-0.4-0.6V271
				C419,270.6,419.1,270.4,419.4,270.4"/>
			<path class="st3" d="M419.4,288.8h6c0.2,0,0.4,0.3,0.4,0.6v0.6c0,0.3,0.2,0.6,0.4,0.6h9.7c0.2,0,0.4,0.3,0.4,0.6v3.4
				c0,0.3-0.2,0.6-0.4,0.6H426c-0.2,0-0.4-0.2-0.4-0.5c0-0.3-0.2-0.5-0.4-0.5l-5.8,0c-0.2,0-0.4-0.3-0.4-0.6v-4.2
				C419,289.1,419.1,288.8,419.4,288.8"/>
			<path class="st3" d="M419.4,307.2h6c0.2,0,0.4,0.3,0.4,0.6v0.6c0,0.3,0.2,0.6,0.4,0.6h9.7c0.2,0,0.4,0.3,0.4,0.6v3.4
				c0,0.3-0.2,0.6-0.4,0.6H426c-0.2,0-0.4-0.2-0.4-0.5c0-0.3-0.2-0.5-0.4-0.5l-5.8,0c-0.2,0-0.4-0.3-0.4-0.6v-4.2
				C419,307.5,419.1,307.2,419.4,307.2"/>
			<path class="st3" d="M419.4,325.7h6c0.2,0,0.4,0.3,0.4,0.6v0.6c0,0.3,0.2,0.6,0.4,0.6h9.7c0.2,0,0.4,0.3,0.4,0.6v3.4
				c0,0.3-0.2,0.6-0.4,0.6H426c-0.2,0-0.4-0.2-0.4-0.5c0-0.3-0.2-0.5-0.4-0.5l-5.8,0c-0.2,0-0.4-0.3-0.4-0.6v-4.2
				C419,325.9,419.1,325.7,419.4,325.7"/>
			<path class="st3" d="M376.4,270.4h-6c-0.2,0-0.4,0.3-0.4,0.6v0.6c0,0.3-0.2,0.6-0.4,0.6h-9.7c-0.2,0-0.4,0.3-0.4,0.6v3.4
				c0,0.3,0.2,0.6,0.4,0.6h9.9c0.2,0,0.4-0.2,0.4-0.5c0-0.3,0.2-0.5,0.4-0.5l5.8,0c0.2,0,0.4-0.3,0.4-0.6V271
				C376.8,270.6,376.6,270.4,376.4,270.4"/>
			<path class="st3" d="M376.4,288.8h-6c-0.2,0-0.4,0.3-0.4,0.6v0.6c0,0.3-0.2,0.6-0.4,0.6h-9.7c-0.2,0-0.4,0.3-0.4,0.6v3.4
				c0,0.3,0.2,0.6,0.4,0.6h9.9c0.2,0,0.4-0.2,0.4-0.5s0.2-0.5,0.4-0.5l5.8,0c0.2,0,0.4-0.3,0.4-0.6v-4.2
				C376.8,289.1,376.6,288.8,376.4,288.8"/>
			<path class="st3" d="M376.4,307.2h-6c-0.2,0-0.4,0.3-0.4,0.6v0.6c0,0.3-0.2,0.6-0.4,0.6h-9.7c-0.2,0-0.4,0.3-0.4,0.6v3.4
				c0,0.3,0.2,0.6,0.4,0.6h9.9c0.2,0,0.4-0.2,0.4-0.5c0-0.3,0.2-0.5,0.4-0.5l5.8,0c0.2,0,0.4-0.3,0.4-0.6v-4.2
				C376.8,307.5,376.6,307.2,376.4,307.2"/>
			<path class="st3" d="M376.4,325.7h-6c-0.2,0-0.4,0.3-0.4,0.6v0.6c0,0.3-0.2,0.6-0.4,0.6h-9.7c-0.2,0-0.4,0.3-0.4,0.6v3.4
				c0,0.3,0.2,0.6,0.4,0.6h9.9c0.2,0,0.4-0.2,0.4-0.5c0-0.3,0.2-0.5,0.4-0.5l5.8,0c0.2,0,0.4-0.3,0.4-0.6v-4.2
				C376.8,325.9,376.6,325.7,376.4,325.7"/>
		</g>
		<path class="st3" d="M421,137.3h-46.2c-9.8,0-17.7-7.9-17.7-17.7v-2.1c0-9.8,7.9-17.7,17.7-17.7H421c9.8,0,17.7,7.9,17.7,17.7v2.1
			C438.7,129.4,430.8,137.3,421,137.3z"/>
		<g>
			
				<rect x="302.2" y="281.4" transform="matrix(4.482287e-11 -1 1 4.482287e-11 27.9304 605.545)" class="st36" width="29.1" height="14.8"/>
			<g class="st24">
				<path class="st37" d="M314,276.2l3.7,0c1.1,0,1.9,0.8,1.9,1.8l0,21.5c0,1-0.9,1.8-1.9,1.8l-3.7,0c-1.1,0-1.9-0.8-1.9-1.8l0-21.5
					C312.1,277,312.9,276.2,314,276.2z"/>
				<path class="st3" d="M314,279.9l3.7,0c1.1,0,1.9,0.8,1.9,1.8l0,14.2c0,1-0.9,1.8-1.9,1.8l-3.7,0c-1.1,0-1.9-0.8-1.9-1.8l0-14.2
					C312.1,280.7,312.9,279.9,314,279.9z"/>
				<g class="st24">
					<path class="st3" d="M314.4,278.9c0,0.7,0.6,1.2,1.3,1.2c0.7,0,1.3-0.5,1.3-1.2c0-0.4-0.3-0.8-0.6-1.1l0.6-1.6l-2.5,0.1
						l0.8,1.5C314.8,278,314.4,278.4,314.4,278.9z"/>
					<path class="st3" d="M314.7,298.7c0-0.7,0.6-1.2,1.3-1.2c0.7,0,1.3,0.5,1.3,1.2c0,0.4-0.3,0.8-0.6,1.1l0.6,1.6l-2.5-0.1
						l0.7-1.5C315,299.7,314.7,299.2,314.7,298.7z"/>
				</g>
			</g>
		</g>
		<g>
			<g>
				
					<rect x="454.9" y="175.4" transform="matrix(4.482287e-11 -1 1 4.482287e-11 286.6921 652.2484)" class="st36" width="29.1" height="14.8"/>
				<g class="st24">
					<path class="st37" d="M466.7,170.2l3.7,0c1.1,0,1.9,0.8,1.9,1.8l0,21.5c0,1-0.9,1.8-1.9,1.8l-3.7,0c-1.1,0-1.9-0.8-1.9-1.8
						l0-21.5C464.8,171,465.7,170.2,466.7,170.2z"/>
					<path class="st3" d="M466.8,173.9l3.7,0c1.1,0,1.9,0.8,1.9,1.8l0,14.2c0,1-0.9,1.8-1.9,1.8l-3.7,0c-1.1,0-1.9-0.8-1.9-1.8
						l0-14.2C464.8,174.7,465.7,173.9,466.8,173.9z"/>
					<g class="st24">
						<path class="st3" d="M467.2,172.9c0,0.7,0.6,1.2,1.3,1.2c0.7,0,1.3-0.5,1.3-1.2c0-0.4-0.3-0.8-0.6-1.1l0.6-1.6l-2.5,0.1
							l0.8,1.5C467.5,171.9,467.2,172.4,467.2,172.9z"/>
						<path class="st3" d="M467.4,192.7c0-0.7,0.6-1.2,1.3-1.2c0.7,0,1.3,0.5,1.3,1.2c0,0.4-0.3,0.8-0.6,1.1l0.6,1.6l-2.5-0.1
							l0.7-1.5C467.8,193.6,467.4,193.2,467.4,192.7z"/>
					</g>
				</g>
			</g>
			<g>
				
					<rect x="470.6" y="198.8" transform="matrix(4.482287e-11 -1 1 4.482287e-11 278.9675 691.3709)" class="st36" width="29.1" height="14.8"/>
				<g class="st24">
					<path class="st37" d="M482.4,193.6l3.7,0c1.1,0,1.9,0.8,1.9,1.8l0,21.5c0,1-0.9,1.8-1.9,1.8l-3.7,0c-1.1,0-1.9-0.8-1.9-1.8
						l0-21.5C480.5,194.4,481.4,193.6,482.4,193.6z"/>
					<path class="st3" d="M482.4,197.3l3.7,0c1.1,0,1.9,0.8,1.9,1.8l0,14.2c0,1-0.9,1.8-1.9,1.8l-3.7,0c-1.1,0-1.9-0.8-1.9-1.8
						l0-14.2C480.5,198.1,481.4,197.3,482.4,197.3z"/>
					<g class="st24">
						<path class="st3" d="M482.9,196.3c0,0.7,0.6,1.2,1.3,1.2c0.7,0,1.3-0.5,1.3-1.2c0-0.4-0.3-0.8-0.6-1.1l0.6-1.6l-2.5,0.1
							l0.8,1.5C483.2,195.3,482.9,195.8,482.9,196.3z"/>
						<path class="st3" d="M483.1,216.1c0-0.7,0.6-1.2,1.3-1.2c0.7,0,1.3,0.5,1.3,1.2c0,0.4-0.3,0.8-0.6,1.1l0.6,1.6l-2.5-0.1
							l0.7-1.5C483.5,217.1,483.1,216.6,483.1,216.1z"/>
					</g>
				</g>
			</g>
			<g>
				
					<rect x="470.9" y="238.4" transform="matrix(4.482287e-11 -1 1 4.482287e-11 239.6714 731.3181)" class="st36" width="29.1" height="14.8"/>
				<g class="st24">
					<path class="st37" d="M482.8,233.3l3.7,0c1.1,0,1.9,0.8,1.9,1.8l0,21.5c0,1-0.9,1.8-1.9,1.8l-3.7,0c-1.1,0-1.9-0.8-1.9-1.8
						l0-21.5C480.8,234.1,481.7,233.3,482.8,233.3z"/>
					<path class="st3" d="M482.8,236.9l3.7,0c1.1,0,1.9,0.8,1.9,1.8l0,14.2c0,1-0.9,1.8-1.9,1.8l-3.7,0c-1.1,0-1.9-0.8-1.9-1.8
						l0-14.2C480.8,237.7,481.7,236.9,482.8,236.9z"/>
					<g class="st24">
						<path class="st3" d="M483.2,235.9c0,0.7,0.6,1.2,1.3,1.2c0.7,0,1.3-0.5,1.3-1.2c0-0.4-0.3-0.8-0.6-1.1l0.6-1.6l-2.5,0.1
							l0.8,1.5C483.5,235,483.2,235.4,483.2,235.9z"/>
						<path class="st3" d="M483.4,255.7c0-0.7,0.6-1.2,1.3-1.2c0.7,0,1.3,0.5,1.3,1.2c0,0.4-0.3,0.8-0.6,1.1l0.6,1.6l-2.5-0.1
							l0.7-1.5C483.8,256.7,483.4,256.2,483.4,255.7z"/>
					</g>
				</g>
			</g>
		</g>
	</g>
	<g>
		<g class="st10">
			<g>
				<defs>
					<rect id="SVGID_47_" x="264.5" y="131.1" width="16.7" height="33.6"/>
				</defs>
				<clipPath id="SVGID_48_">
					<use xlink:href="#SVGID_47_"  style="overflow:visible;"/>
				</clipPath>
				<path class="st71" d="M278.5,164.7h-11.1c-1.5,0-2.8-2-2.8-4.5v-24.5c0-2.5,1.3-4.5,2.8-4.5h11.1c1.5,0,2.8,2,2.8,4.5v24.5
					C281.3,162.6,280,164.7,278.5,164.7"/>
			</g>
		</g>
		<path class="st72" d="M278.5,164.7h-11.1c-1.5,0-2.8-2-2.8-4.5v-24.5c0-2.5,1.3-4.5,2.8-4.5h11.1c1.5,0,2.8,2,2.8,4.5v24.5
			C281.3,162.6,280,164.7,278.5,164.7z"/>
		<path class="st3" d="M281.4,136h2.4c0.1,0,0.2,0.1,0.2,0.2v0.3c0,0.1,0.1,0.2,0.2,0.2h3.8c0.1,0,0.2,0.1,0.2,0.2v1.4
			c0,0.1-0.1,0.2-0.2,0.2h-3.9c-0.1,0-0.2-0.1-0.2-0.2c0-0.1-0.1-0.2-0.2-0.2l-2.3,0c-0.1,0-0.2-0.1-0.2-0.2v-1.7
			C281.3,136.1,281.3,136,281.4,136"/>
		<path class="st3" d="M281.4,143.3h2.4c0.1,0,0.2,0.1,0.2,0.2v0.3c0,0.1,0.1,0.2,0.2,0.2h3.8c0.1,0,0.2,0.1,0.2,0.2v1.4
			c0,0.1-0.1,0.2-0.2,0.2h-3.9c-0.1,0-0.2-0.1-0.2-0.2c0-0.1-0.1-0.2-0.2-0.2l-2.3,0c-0.1,0-0.2-0.1-0.2-0.2v-1.7
			C281.3,143.5,281.3,143.3,281.4,143.3"/>
		<path class="st3" d="M281.4,150.7h2.4c0.1,0,0.2,0.1,0.2,0.2v0.3c0,0.1,0.1,0.2,0.2,0.2h3.8c0.1,0,0.2,0.1,0.2,0.2v1.4
			c0,0.1-0.1,0.2-0.2,0.2h-3.9c-0.1,0-0.2-0.1-0.2-0.2c0-0.1-0.1-0.2-0.2-0.2l-2.3,0c-0.1,0-0.2-0.1-0.2-0.2v-1.7
			C281.3,150.8,281.3,150.7,281.4,150.7"/>
		<path class="st3" d="M281.4,158h2.4c0.1,0,0.2,0.1,0.2,0.2v0.3c0,0.1,0.1,0.2,0.2,0.2h3.8c0.1,0,0.2,0.1,0.2,0.2v1.4
			c0,0.1-0.1,0.2-0.2,0.2h-3.9c-0.1,0-0.2-0.1-0.2-0.2c0-0.1-0.1-0.2-0.2-0.2l-2.3,0c-0.1,0-0.2-0.1-0.2-0.2v-1.7
			C281.3,158.1,281.3,158,281.4,158"/>
		<path class="st3" d="M264.4,136H262c-0.1,0-0.2,0.1-0.2,0.2v0.3c0,0.1-0.1,0.2-0.2,0.2h-3.8c-0.1,0-0.2,0.1-0.2,0.2v1.4
			c0,0.1,0.1,0.2,0.2,0.2h3.9c0.1,0,0.2-0.1,0.2-0.2c0-0.1,0.1-0.2,0.2-0.2l2.3,0c0.1,0,0.2-0.1,0.2-0.2v-1.7
			C264.5,136.1,264.5,136,264.4,136"/>
		<path class="st3" d="M264.4,143.3H262c-0.1,0-0.2,0.1-0.2,0.2v0.3c0,0.1-0.1,0.2-0.2,0.2h-3.8c-0.1,0-0.2,0.1-0.2,0.2v1.4
			c0,0.1,0.1,0.2,0.2,0.2h3.9c0.1,0,0.2-0.1,0.2-0.2s0.1-0.2,0.2-0.2l2.3,0c0.1,0,0.2-0.1,0.2-0.2v-1.7
			C264.5,143.5,264.5,143.3,264.4,143.3"/>
		<path class="st3" d="M264.4,150.7H262c-0.1,0-0.2,0.1-0.2,0.2v0.3c0,0.1-0.1,0.2-0.2,0.2h-3.8c-0.1,0-0.2,0.1-0.2,0.2v1.4
			c0,0.1,0.1,0.2,0.2,0.2h3.9c0.1,0,0.2-0.1,0.2-0.2c0-0.1,0.1-0.2,0.2-0.2l2.3,0c0.1,0,0.2-0.1,0.2-0.2v-1.7
			C264.5,150.8,264.5,150.7,264.4,150.7"/>
		<path class="st3" d="M264.4,158H262c-0.1,0-0.2,0.1-0.2,0.2v0.3c0,0.1-0.1,0.2-0.2,0.2h-3.8c-0.1,0-0.2,0.1-0.2,0.2v1.4
			c0,0.1,0.1,0.2,0.2,0.2h3.9c0.1,0,0.2-0.1,0.2-0.2c0-0.1,0.1-0.2,0.2-0.2l2.3,0c0.1,0,0.2-0.1,0.2-0.2v-1.7
			C264.5,158.1,264.5,158,264.4,158"/>
	</g>
	<g>
		<path class="st6" d="M226.7,258.6h-46c-2.4,0-4.4-2-4.4-4.4v-46c0-2.4,2-4.4,4.4-4.4h46c2.4,0,4.4,2,4.4,4.4v46
			C231.1,256.6,229.1,258.6,226.7,258.6z"/>
		<g>
			<defs>
				<path id="SVGID_49_" d="M226.7,258.6h-46c-2.4,0-4.4-2-4.4-4.4v-46c0-2.4,2-4.4,4.4-4.4h46c2.4,0,4.4,2,4.4,4.4v46
					C231.1,256.6,229.1,258.6,226.7,258.6z"/>
			</defs>
			<clipPath id="SVGID_50_">
				<use xlink:href="#SVGID_49_"  style="overflow:visible;"/>
			</clipPath>
			<path class="st73" d="M231.3,212.1h-55.2c-0.3,0-0.6-0.3-0.6-0.6v-3.4c0-2.5,2-4.5,4.5-4.5h47.3c2.5,0,4.5,2,4.5,4.5v3.4
				C231.8,211.8,231.6,212.1,231.3,212.1z"/>
		</g>
	</g>
	<g>
		<g>
			<path class="st6" d="M222.3,134.7l0,6.7c0,1.6-1.3,2.8-2.8,2.8l-26.5,0.1c-1.6,0-2.8-1.3-2.8-2.8l0-6.7c0-1.6,1.3-2.8,2.8-2.8
				l26.5-0.1C221,131.9,222.3,133.2,222.3,134.7z"/>
			<path class="st3" d="M217,135.3l0,5.5c0,1.9-1.5,3.4-3.4,3.4l-14.7,0.1c-1.9,0-3.4-1.5-3.4-3.4l0-5.5c0-1.9,1.5-3.4,3.4-3.4
				l14.7-0.1C215.5,131.9,217,133.4,217,135.3z"/>
		</g>
		<g>
			
				<rect x="191.5" y="156.7" transform="matrix(-1 6.505876e-03 -6.505876e-03 -1 405.3786 322.9472)" class="st74" width="21.3" height="10.8"/>
			<g class="st24">
				<path class="st75" d="M193,164.2l0-2.7c0-0.8,0.6-1.4,1.3-1.4l15.7-0.1c0.7,0,1.3,0.6,1.3,1.4l0,2.7c0,0.8-0.6,1.4-1.3,1.4
					l-15.7,0.1C193.6,165.6,193,165,193,164.2z"/>
				<path class="st3" d="M195.7,164.2l0-2.7c0-0.8,0.6-1.4,1.3-1.4l10.4-0.1c0.7,0,1.3,0.6,1.3,1.4l0,2.7c0,0.8-0.6,1.4-1.3,1.4
					l-10.4,0.1C196.2,165.6,195.7,164.9,195.7,164.2z"/>
				<g class="st24">
					<path class="st3" d="M194.9,163.9c0.5,0,0.9-0.4,0.9-1s-0.4-1-0.9-1c-0.3,0-0.6,0.2-0.8,0.5L193,162l0.1,1.8l1.1-0.6
						C194.2,163.6,194.6,163.9,194.9,163.9z"/>
					<path class="st3" d="M209.4,163.6c-0.5,0-0.9-0.4-0.9-0.9c0-0.5,0.4-1,0.9-1c0.3,0,0.6,0.2,0.8,0.5l1.2-0.4l0,1.8l-1.1-0.5
						C210.1,163.3,209.8,163.6,209.4,163.6z"/>
				</g>
			</g>
		</g>
	</g>
	<g>
		<g>
			
				<rect x="650.9" y="80.4" transform="matrix(4.482287e-11 -1 1 4.482287e-11 577.6407 753.2624)" class="st36" width="29.1" height="14.8"/>
			<g class="st24">
				<path class="st37" d="M662.7,75.2l3.7,0c1.1,0,1.9,0.8,1.9,1.8l0,21.5c0,1-0.9,1.8-1.9,1.8l-3.7,0c-1.1,0-1.9-0.8-1.9-1.8
					l0-21.5C660.8,76,661.7,75.2,662.7,75.2z"/>
				<path class="st3" d="M662.7,78.9l3.7,0c1.1,0,1.9,0.8,1.9,1.8l0,14.2c0,1-0.9,1.8-1.9,1.8l-3.7,0c-1.1,0-1.9-0.8-1.9-1.8l0-14.2
					C660.8,79.7,661.7,78.9,662.7,78.9z"/>
				<g class="st24">
					<path class="st3" d="M663.1,77.9c0,0.7,0.6,1.2,1.3,1.2c0.7,0,1.3-0.5,1.3-1.2c0-0.4-0.3-0.8-0.6-1.1l0.6-1.6l-2.5,0.1l0.8,1.5
						C663.5,77,663.1,77.4,663.1,77.9z"/>
					<path class="st3" d="M663.4,97.7c0-0.7,0.6-1.2,1.3-1.2s1.3,0.5,1.3,1.2c0,0.4-0.3,0.8-0.6,1.1l0.6,1.6l-2.5-0.1l0.7-1.5
						C663.8,98.7,663.4,98.2,663.4,97.7z"/>
				</g>
			</g>
		</g>
		<g>
			
				<rect x="670.9" y="80.4" transform="matrix(4.482287e-11 -1 1 4.482287e-11 597.6819 773.3036)" class="st36" width="29.1" height="14.8"/>
			<g class="st24">
				<path class="st37" d="M682.8,75.2l3.7,0c1.1,0,1.9,0.8,1.9,1.8l0,21.5c0,1-0.9,1.8-1.9,1.8l-3.7,0c-1.1,0-1.9-0.8-1.9-1.8
					l0-21.5C680.8,76,681.7,75.2,682.8,75.2z"/>
				<path class="st3" d="M682.8,78.9l3.7,0c1.1,0,1.9,0.8,1.9,1.8l0,14.2c0,1-0.9,1.8-1.9,1.8l-3.7,0c-1.1,0-1.9-0.8-1.9-1.8l0-14.2
					C680.8,79.7,681.7,78.9,682.8,78.9z"/>
				<g class="st24">
					<path class="st3" d="M683.2,77.9c0,0.7,0.6,1.2,1.3,1.2s1.3-0.5,1.3-1.2c0-0.4-0.3-0.8-0.6-1.1l0.6-1.6l-2.5,0.1l0.8,1.5
						C683.5,77,683.2,77.4,683.2,77.9z"/>
					<path class="st3" d="M683.4,97.7c0-0.7,0.6-1.2,1.3-1.2s1.3,0.5,1.3,1.2c0,0.4-0.3,0.8-0.6,1.1l0.6,1.6l-2.5-0.1l0.7-1.5
						C683.8,98.7,683.4,98.2,683.4,97.7z"/>
				</g>
			</g>
		</g>
	</g>
	<g>
		<g>
			
				<rect x="498.8" y="100.1" transform="matrix(4.485840e-11 -1 1 4.485840e-11 404.416 616.5526)" class="st76" width="23.4" height="11.9"/>
			<g class="st24">
				<path class="st77" d="M508.3,96l3,0c0.9,0,1.6,0.7,1.6,1.4l0,17.3c0,0.8-0.7,1.4-1.6,1.4l-3,0c-0.9,0-1.6-0.7-1.6-1.4l0-17.3
					C506.7,96.6,507.4,96,508.3,96z"/>
				<path class="st3" d="M508.3,98.9l3,0c0.9,0,1.6,0.7,1.6,1.4l0,11.5c0,0.8-0.7,1.4-1.6,1.4l-3,0c-0.9,0-1.6-0.7-1.6-1.4l0-11.5
					C506.7,99.5,507.4,98.9,508.3,98.9z"/>
				<g class="st24">
					<path class="st3" d="M508.6,98.1c0,0.5,0.5,1,1.1,1s1.1-0.4,1.1-1c0-0.4-0.2-0.7-0.5-0.8l0.5-1.3l-2,0.1l0.6,1.2
						C508.9,97.3,508.6,97.7,508.6,98.1z"/>
					<path class="st3" d="M508.8,114c0-0.5,0.5-1,1.1-1s1.1,0.4,1.1,1c0,0.4-0.2,0.7-0.5,0.8l0.5,1.3l-2,0l0.6-1.2
						C509.1,114.8,508.8,114.5,508.8,114z"/>
				</g>
			</g>
		</g>
		<g>
			
				<rect x="514.9" y="100.1" transform="matrix(4.485840e-11 -1 1 4.485840e-11 420.5368 632.6732)" class="st76" width="23.4" height="11.9"/>
			<g class="st24">
				<path class="st77" d="M524.4,96l3,0c0.9,0,1.6,0.7,1.6,1.4l0,17.3c0,0.8-0.7,1.4-1.6,1.4l-3,0c-0.9,0-1.6-0.7-1.6-1.4l0-17.3
					C522.9,96.6,523.6,96,524.4,96z"/>
				<path class="st3" d="M524.4,98.9l3,0c0.9,0,1.6,0.7,1.6,1.4l0,11.5c0,0.8-0.7,1.4-1.6,1.4l-3,0c-0.9,0-1.6-0.7-1.6-1.4l0-11.5
					C522.9,99.5,523.6,98.9,524.4,98.9z"/>
				<g class="st24">
					<path class="st3" d="M524.7,98.1c0,0.5,0.5,1,1.1,1c0.6,0,1.1-0.4,1.1-1c0-0.4-0.2-0.7-0.5-0.8l0.5-1.3l-2,0.1l0.6,1.2
						C525,97.3,524.7,97.7,524.7,98.1z"/>
					<path class="st3" d="M525,114c0-0.5,0.5-1,1.1-1s1.1,0.4,1.1,1c0,0.4-0.2,0.7-0.5,0.8l0.5,1.3l-2,0l0.6-1.2
						C525.2,114.8,525,114.5,525,114z"/>
				</g>
			</g>
		</g>
	</g>
	<g>
		
			<rect x="231.4" y="224.9" transform="matrix(4.485840e-11 -1 1 4.485840e-11 12.2744 474.0192)" class="st76" width="23.4" height="11.9"/>
		<g class="st24">
			<path class="st77" d="M241,220.8l3,0c0.9,0,1.6,0.7,1.6,1.4l0,17.3c0,0.8-0.7,1.4-1.6,1.4l-3,0c-0.9,0-1.6-0.7-1.6-1.4l0-17.3
				C239.4,221.4,240.1,220.8,241,220.8z"/>
			<path class="st3" d="M241,223.7l3,0c0.9,0,1.6,0.7,1.6,1.4l0,11.5c0,0.8-0.7,1.4-1.6,1.4l-3,0c-0.9,0-1.6-0.7-1.6-1.4l0-11.5
				C239.4,224.3,240.1,223.7,241,223.7z"/>
			<g class="st24">
				<path class="st3" d="M241.3,222.9c0,0.5,0.5,1,1.1,1s1.1-0.4,1.1-1c0-0.4-0.2-0.7-0.5-0.8l0.5-1.3l-2,0.1l0.6,1.2
					C241.6,222.1,241.3,222.5,241.3,222.9z"/>
				<path class="st3" d="M241.5,238.8c0-0.5,0.5-1,1.1-1c0.6,0,1.1,0.4,1.1,1c0,0.4-0.2,0.7-0.5,0.8l0.5,1.3l-2,0l0.6-1.2
					C241.8,239.6,241.5,239.3,241.5,238.8z"/>
			</g>
		</g>
	</g>
</g>
</svg>
