<?xml version="1.0" encoding="utf-8"?>
<!-- Generator: Adobe Illustrator 22.0.0, SVG Export Plug-In . SVG Version: 6.00 Build 0)  -->
<svg version="1.1" id="图层_1" xmlns="http://www.w3.org/2000/svg" xmlns:xlink="http://www.w3.org/1999/xlink" x="0px" y="0px"
	 viewBox="0 0 740 400" style="enable-background:new 0 0 740 400;" xml:space="preserve">
<style type="text/css">
	.st0{fill:none;stroke:#FFFFFF;stroke-width:12;stroke-miterlimit:10;}
	.st1{fill:#FFFFFF;}
	.st2{fill:none;stroke:#FFFFFF;stroke-width:16.788;stroke-miterlimit:10;}
	.st3{fill:none;stroke:#FFFFFF;stroke-width:8.394;stroke-miterlimit:10;}
	.st4{fill:none;stroke:#FFFFFF;stroke-width:18.563;stroke-miterlimit:10;}
	.st5{fill:none;stroke:#FFFFFF;stroke-width:19.762;stroke-miterlimit:10;}
	.st6{fill:none;stroke:#FFFFFF;stroke-width:7.365;stroke-miterlimit:10;}
	.st7{opacity:0.6;}
	.st8{clip-path:url(#SVGID_2_);fill:#FFFFFF;}
	.st9{clip-path:url(#SVGID_4_);fill:#FFFFFF;}
	.st10{fill:none;stroke:#FFFFFF;stroke-width:7.33;stroke-miterlimit:10;}
	.st11{opacity:0.8;}
	
		.st12{clip-path:url(#SVGID_6_);fill:none;stroke:#FFFFFF;stroke-width:5.427;stroke-linecap:round;stroke-linejoin:round;stroke-miterlimit:10;}
	
		.st13{clip-path:url(#SVGID_8_);fill:none;stroke:#FFFFFF;stroke-width:5.427;stroke-linecap:round;stroke-linejoin:round;stroke-miterlimit:10;}
	.st14{opacity:0.3;}
	.st15{clip-path:url(#SVGID_10_);fill:#FFFFFF;}
	.st16{opacity:0.5;}
	.st17{clip-path:url(#SVGID_12_);fill:#FFFFFF;}
	.st18{fill:none;stroke:#FFFFFF;stroke-width:9.938;stroke-miterlimit:10;}
	.st19{fill:none;stroke:#FFFFFF;stroke-width:4.969;stroke-miterlimit:10;}
	.st20{fill:none;stroke:#FFFFFF;stroke-width:18.471;stroke-miterlimit:10;}
</style>
<g>
	<path class="st0" d="M-1926.9-4685h-15.6c-4.1,0-7.4-3.3-7.4-7.4v-58.1c0-4.1,3.3-7.4,7.4-7.4h15.6c4.1,0,7.4,3.3,7.4,7.4v58.1
		C-1919.5-4688.3-1922.8-4685-1926.9-4685z"/>
	<path class="st1" d="M-2110.1-4814.7h-256.6c-3.4,0-6.1-2.7-6.1-6.1c0-3.4,2.7-6.1,6.1-6.1h256.6c3.4,0,6.1,2.7,6.1,6.1
		C-2104.1-4817.5-2106.8-4814.7-2110.1-4814.7"/>
	<path class="st1" d="M-2087.4-4820.8c0,4.6-3.7,8.3-8.3,8.3c-4.6,0-8.3-3.7-8.3-8.3s3.7-8.3,8.3-8.3
		C-2091.1-4829.2-2087.4-4825.4-2087.4-4820.8"/>
	<path class="st1" d="M-2110.1-4792h-256.6c-3.4,0-6.1-2.7-6.1-6.1s2.7-6.1,6.1-6.1h256.6c3.4,0,6.1,2.7,6.1,6.1
		S-2106.8-4792-2110.1-4792"/>
	<path class="st1" d="M-2087.4-4798c0,4.6-3.7,8.3-8.3,8.3c-4.6,0-8.3-3.7-8.3-8.3s3.7-8.3,8.3-8.3
		C-2091.1-4806.4-2087.4-4802.7-2087.4-4798"/>
	<path class="st1" d="M-2110.1-4769.2h-256.6c-3.4,0-6.1-2.7-6.1-6.1s2.7-6.1,6.1-6.1h256.6c3.4,0,6.1,2.7,6.1,6.1
		S-2106.8-4769.2-2110.1-4769.2"/>
	<path class="st1" d="M-2087.4-4775.3c0,4.6-3.7,8.3-8.3,8.3c-4.6,0-8.3-3.7-8.3-8.3c0-4.6,3.7-8.4,8.3-8.4
		C-2091.1-4783.6-2087.4-4779.9-2087.4-4775.3"/>
	<path class="st1" d="M-2110.1-4746.4h-256.6c-3.4,0-6.1-2.7-6.1-6.1s2.7-6.1,6.1-6.1h256.6c3.4,0,6.1,2.7,6.1,6.1
		S-2106.8-4746.4-2110.1-4746.4"/>
	<path class="st1" d="M-2087.4-4752.5c0,4.6-3.7,8.4-8.3,8.4c-4.6,0-8.3-3.7-8.3-8.4c0-4.6,3.7-8.3,8.3-8.3
		C-2091.1-4760.9-2087.4-4757.1-2087.4-4752.5"/>
	<path class="st1" d="M-2110.1-4723.7h-256.6c-3.4,0-6.1-2.7-6.1-6.1s2.7-6.1,6.1-6.1h256.6c3.4,0,6.1,2.7,6.1,6.1
		S-2106.8-4723.7-2110.1-4723.7"/>
	<path class="st1" d="M-2087.4-4729.7c0,4.6-3.7,8.3-8.3,8.3c-4.6,0-8.3-3.7-8.3-8.3c0-4.6,3.7-8.3,8.3-8.3
		C-2091.1-4738.1-2087.4-4734.3-2087.4-4729.7"/>
	<path class="st1" d="M-2110.1-4700.9h-256.6c-3.4,0-6.1-2.7-6.1-6.1c0-3.4,2.7-6.1,6.1-6.1h256.6c3.4,0,6.1,2.7,6.1,6.1
		C-2104.1-4703.6-2106.8-4700.9-2110.1-4700.9"/>
	<path class="st1" d="M-2087.4-4707c0,4.6-3.7,8.3-8.3,8.3c-4.6,0-8.3-3.7-8.3-8.3s3.7-8.3,8.3-8.3
		C-2091.1-4715.3-2087.4-4711.6-2087.4-4707"/>
	<path class="st1" d="M-2110.1-4678.1h-256.6c-3.4,0-6.1-2.7-6.1-6.1c0-3.4,2.7-6.1,6.1-6.1h256.6c3.4,0,6.1,2.7,6.1,6.1
		C-2104.1-4680.8-2106.8-4678.1-2110.1-4678.1"/>
	<path class="st1" d="M-2087.4-4684.2c0,4.6-3.7,8.3-8.3,8.3c-4.6,0-8.3-3.7-8.3-8.3c0-4.6,3.7-8.3,8.3-8.3
		C-2091.1-4692.5-2087.4-4688.8-2087.4-4684.2"/>
	<path class="st1" d="M-2110.1-4655.4h-256.6c-3.4,0-6.1-2.7-6.1-6.1s2.7-6.1,6.1-6.1h256.6c3.4,0,6.1,2.7,6.1,6.1
		S-2106.8-4655.4-2110.1-4655.4"/>
	<path class="st1" d="M-2087.4-4661.4c0,4.6-3.7,8.3-8.3,8.3c-4.6,0-8.3-3.7-8.3-8.3c0-4.6,3.7-8.3,8.3-8.3
		C-2091.1-4669.8-2087.4-4666-2087.4-4661.4"/>
	<path class="st1" d="M-2110.1-4632.6h-256.6c-3.4,0-6.1-2.7-6.1-6.1s2.7-6.1,6.1-6.1h256.6c3.4,0,6.1,2.7,6.1,6.1
		S-2106.8-4632.6-2110.1-4632.6"/>
	<path class="st1" d="M-2087.4-4638.7c0,4.6-3.7,8.3-8.3,8.3c-4.6,0-8.3-3.7-8.3-8.3c0-4.6,3.7-8.3,8.3-8.3
		C-2091.1-4647-2087.4-4643.3-2087.4-4638.7"/>
	<path class="st2" d="M-1855.3-4797.2h24.5v-18.8c0-5.4,4.4-9.7,9.7-9.7h89.6c5.4,0,9.7,4.4,9.7,9.7v189.1c0,5.4-4.4,9.7-9.7,9.7
		h-89.6c-5.4,0-9.7-4.4-9.7-9.7v-18.8h-24.5c-5.4,0-9.7-4.4-9.7-9.7v-132.1C-1865.1-4792.8-1860.7-4797.2-1855.3-4797.2z"/>
	<path class="st3" d="M-1785.4-4777.2h14.2c2,0,3.6-1.6,3.6-3.6v-14.2c0-2-1.6-3.6-3.6-3.6h-14.2c-2,0-3.6,1.6-3.6,3.6v14.2
		C-1789-4778.8-1787.4-4777.2-1785.4-4777.2z"/>
	<path class="st3" d="M-1785.4-4732.9h14.2c2,0,3.6-1.6,3.6-3.6v-14.2c0-2-1.6-3.6-3.6-3.6h-14.2c-2,0-3.6,1.6-3.6,3.6v14.2
		C-1789-4734.5-1787.4-4732.9-1785.4-4732.9z"/>
	<path class="st3" d="M-1785.4-4688.6h14.2c2,0,3.6-1.6,3.6-3.6v-14.2c0-2-1.6-3.6-3.6-3.6h-14.2c-2,0-3.6,1.6-3.6,3.6v14.2
		C-1789-4690.2-1787.4-4688.6-1785.4-4688.6z"/>
	<path class="st3" d="M-1785.4-4644.2h14.2c2,0,3.6-1.6,3.6-3.6v-14.2c0-2-1.6-3.6-3.6-3.6h-14.2c-2,0-3.6,1.6-3.6,3.6v14.2
		C-1789-4645.8-1787.4-4644.2-1785.4-4644.2z"/>
	<path class="st4" d="M-1731.8-4562.1h-625.5c-22.6,0-40.9-18.3-40.9-40.9v-261.7c0-22.6,18.3-40.9,40.9-40.9h625.5
		c22.6,0,40.9,18.3,40.9,40.9v261.7C-1690.9-4580.4-1709.2-4562.1-1731.8-4562.1z"/>
</g>
<g>
	<g>
		<path class="st5" d="M571.8,268.6l18-0.1l0.1,14.9c0,4.3,3.2,7.7,7.2,7.7l65.5-0.4c3.9,0,7.1-3.5,7.1-7.8l-1-150.4
			c0-4.3-3.2-7.7-7.2-7.7l-65.5,0.4c-3.9,0-7.1,3.5-7.1,7.8L589,148l-18,0.1c-3.9,0-7.1,3.5-7.1,7.8l0.7,105.1
			C564.7,265.2,567.9,268.7,571.8,268.6z"/>
		<path class="st6" d="M623.4,252.4l9.4-0.1c1.7,0,3.1,1.4,3.1,3.1l0.1,10.7c0,1.7-1.4,3.1-3.1,3.1l-9.4,0.1c-1.7,0-3.1-1.4-3.1-3.1
			l-0.1-10.7C620.3,253.9,621.7,252.5,623.4,252.4z"/>
		<path class="st6" d="M623.1,217.2l9.4-0.1c1.7,0,3.1,1.4,3.1,3.1l0.1,10.7c0,1.7-1.4,3.1-3.1,3.1l-9.4,0.1c-1.7,0-3.1-1.4-3.1-3.1
			l-0.1-10.7C620,218.6,621.4,217.2,623.1,217.2z"/>
		<path class="st6" d="M622.9,181.9l9.4-0.1c1.7,0,3.1,1.4,3.1,3.1l0.1,10.7c0,1.7-1.4,3.1-3.1,3.1l-9.4,0.1c-1.7,0-3.1-1.4-3.1-3.1
			l-0.1-10.7C619.8,183.3,621.2,181.9,622.9,181.9z"/>
		<path class="st6" d="M622.7,146.6l9.4-0.1c1.7,0,3.1,1.4,3.1,3.1l0.1,10.7c0,1.7-1.4,3.1-3.1,3.1l-9.4,0.1c-1.7,0-3.1-1.4-3.1-3.1
			l-0.1-10.7C619.6,148.1,621,146.7,622.7,146.6z"/>
		<g class="st7">
			<g>
				<defs>
					<rect id="SVGID_1_" x="92.4" y="184.7" width="144.4" height="144.4"/>
				</defs>
				<clipPath id="SVGID_2_">
					<use xlink:href="#SVGID_1_"  style="overflow:visible;"/>
				</clipPath>
				<path class="st8" d="M236.9,256.9c0,39.9-32.3,72.2-72.2,72.2s-72.2-32.3-72.2-72.2s32.3-72.2,72.2-72.2S236.9,217,236.9,256.9"
					/>
			</g>
		</g>
		<g class="st7">
			<g>
				<defs>
					<rect id="SVGID_3_" x="266.1" y="76.1" width="251.8" height="83.9"/>
				</defs>
				<clipPath id="SVGID_4_">
					<use xlink:href="#SVGID_3_"  style="overflow:visible;"/>
				</clipPath>
				<path class="st9" d="M517.6,90l0.3,55.4c0,7.7-7.2,13.9-16.2,13.9l-219,0.8c-9,0-16.3-6.2-16.3-13.8l-0.3-55.4
					c0-7.7,7.2-13.9,16.2-13.9l219-0.8C510.2,76.1,517.6,82.3,517.6,90"/>
			</g>
		</g>
		<path class="st10" d="M517.6,90l0.3,55.4c0,7.7-7.2,13.9-16.2,13.9l-219,0.8c-9,0-16.3-6.2-16.3-13.8l-0.3-55.4
			c0-7.7,7.2-13.9,16.2-13.9l219-0.8C510.2,76.1,517.6,82.3,517.6,90z"/>
		<path class="st1" d="M308.5,79.8l-0.1-9.6c0-0.4,0.4-0.6,0.8-0.7l0.9,0c0.5,0,0.8-0.3,0.8-0.7l-0.1-15.4c0-0.4,0.4-0.7,0.8-0.7
			l4.9,0c0.5,0,0.8,0.3,0.8,0.6l0.1,15.7c0,0.3-0.3,0.6-0.8,0.6c-0.4,0-0.8,0.3-0.8,0.7l0.1,9.2c0,0.4-0.4,0.7-0.8,0.7l-6,0
			C308.9,80.4,308.5,80.1,308.5,79.8"/>
		<path class="st1" d="M334.8,79.7l-0.1-9.6c0-0.4,0.4-0.6,0.8-0.7l0.9,0c0.5,0,0.8-0.3,0.8-0.7l-0.1-15.4c0-0.4,0.4-0.7,0.8-0.7
			l4.9,0c0.5,0,0.8,0.3,0.8,0.6l0.1,15.7c0,0.3-0.3,0.6-0.8,0.6c-0.4,0-0.8,0.3-0.8,0.7l0.1,9.2c0,0.4-0.4,0.7-0.8,0.7l-6,0
			C335.2,80.4,334.8,80.1,334.8,79.7"/>
		<path class="st1" d="M361.2,79.6l-0.1-9.6c0-0.4,0.4-0.6,0.8-0.7l0.9,0c0.5,0,0.8-0.3,0.8-0.7l-0.1-15.4c0-0.4,0.4-0.7,0.8-0.7
			l4.9,0c0.5,0,0.8,0.3,0.8,0.6l0.1,15.7c0,0.3-0.3,0.6-0.8,0.6c-0.4,0-0.8,0.3-0.8,0.7l0.1,9.2c0,0.4-0.4,0.7-0.8,0.7l-6,0
			C361.5,80.3,361.2,80,361.2,79.6"/>
		<path class="st1" d="M387.5,79.6l-0.1-9.6c0-0.4,0.4-0.6,0.8-0.7l0.9,0c0.5,0,0.8-0.3,0.8-0.7l-0.1-15.4c0-0.4,0.4-0.6,0.8-0.7
			l4.9,0c0.5,0,0.8,0.3,0.8,0.6l0.1,15.7c0,0.3-0.3,0.6-0.8,0.6c-0.4,0-0.8,0.3-0.8,0.7l0.1,9.2c0,0.4-0.4,0.7-0.8,0.7l-6,0
			C387.9,80.2,387.5,79.9,387.5,79.6"/>
		<path class="st1" d="M411,79.6L411,70c0-0.4,0.4-0.7,0.8-0.7l0.9,0c0.5,0,0.8-0.3,0.8-0.7l-0.1-15.4c0-0.4,0.4-0.7,0.8-0.7l4.9,0
			c0.5,0,0.8,0.3,0.8,0.6l0.1,15.7c0,0.3-0.3,0.6-0.8,0.6c-0.4,0-0.8,0.3-0.8,0.7l0.1,9.2c0,0.4-0.4,0.7-0.8,0.7l-6,0
			C411.4,80.2,411,79.9,411,79.6"/>
		<path class="st1" d="M437.3,79.5l-0.1-9.6c0-0.4,0.4-0.6,0.8-0.7l0.9,0c0.5,0,0.8-0.3,0.8-0.7l-0.1-15.4c0-0.4,0.4-0.7,0.8-0.7
			l4.9,0c0.5,0,0.8,0.3,0.8,0.6l0.1,15.7c0,0.3-0.3,0.6-0.8,0.6c-0.4,0-0.8,0.3-0.8,0.7l0.1,9.2c0,0.4-0.4,0.7-0.8,0.7l-6,0
			C437.7,80.2,437.3,79.9,437.3,79.5"/>
		<path class="st1" d="M463.7,79.4l-0.1-9.6c0-0.4,0.4-0.6,0.8-0.7l0.9,0c0.5,0,0.8-0.3,0.8-0.7l-0.1-15.4c0-0.4,0.4-0.7,0.8-0.7
			l4.9,0c0.5,0,0.8,0.3,0.8,0.6l0.1,15.7c0,0.3-0.3,0.6-0.8,0.6c-0.4,0-0.8,0.3-0.8,0.7l0.1,9.2c0,0.4-0.4,0.7-0.8,0.7l-6,0
			C464,80.1,463.7,79.8,463.7,79.4"/>
		<path class="st1" d="M319,52.7c0,2.5-2.4,4.5-5.3,4.5c-2.9,0-5.3-2-5.3-4.5c0-2.5,2.4-4.5,5.3-4.5C316.7,48.2,319,50.2,319,52.7"
			/>
		<path class="st1" d="M345.4,52.6c0,2.5-2.4,4.5-5.3,4.5c-2.9,0-5.3-2-5.3-4.5c0-2.5,2.4-4.5,5.3-4.5
			C343,48.1,345.4,50.1,345.4,52.6"/>
		<path class="st1" d="M372.4,52.7c0,2.5-2.4,4.5-5.3,4.5c-2.9,0-5.3-2-5.3-4.5c0-2.5,2.4-4.5,5.3-4.5
			C370,48.2,372.4,50.2,372.4,52.7"/>
		<path class="st1" d="M398.4,52.5c0,2.5-2.4,4.5-5.3,4.5c-2.9,0-5.3-2-5.3-4.5c0-2.5,2.4-4.5,5.3-4.5C396,48,398.4,50,398.4,52.5"
			/>
		<path class="st1" d="M422.3,52.8c0,2.5-2.4,4.5-5.3,4.5c-2.9,0-5.3-2-5.3-4.5c0-2.5,2.4-4.5,5.3-4.5
			C419.9,48.3,422.3,50.3,422.3,52.8"/>
		<path class="st1" d="M448.7,52.6c0,2.5-2.4,4.5-5.3,4.5c-2.9,0-5.3-2-5.3-4.5c0-2.5,2.4-4.5,5.3-4.5
			C446.4,48.1,448.7,50.1,448.7,52.6"/>
		<path class="st1" d="M475.5,52.9c0,2.5-2.4,4.5-5.3,4.5c-2.9,0-5.3-2-5.3-4.5c0-2.5,2.4-4.5,5.3-4.5
			C473.1,48.3,475.5,50.4,475.5,52.9"/>
		<path class="st1" d="M308.4,148.1l0.1,9.6c0,0.4,0.4,0.6,0.8,0.6l0.9,0c0.5,0,0.8,0.3,0.8,0.6l0.1,15.4c0,0.4,0.4,0.6,0.8,0.6
			l4.9,0c0.5,0,0.8-0.3,0.8-0.7l-0.1-15.7c0-0.3-0.3-0.6-0.8-0.6c-0.4,0-0.8-0.3-0.8-0.6l0-9.2c0-0.4-0.4-0.6-0.8-0.6l-6,0
			C308.8,147.5,308.4,147.8,308.4,148.1"/>
		<path class="st1" d="M334.7,148l0.1,9.6c0,0.4,0.4,0.6,0.8,0.6l0.9,0c0.5,0,0.8,0.3,0.8,0.6l0.1,15.4c0,0.4,0.4,0.6,0.8,0.6l4.9,0
			c0.5,0,0.8-0.3,0.8-0.7l-0.1-15.7c0-0.3-0.3-0.6-0.8-0.6c-0.4,0-0.8-0.3-0.8-0.6l0-9.2c0-0.4-0.4-0.6-0.8-0.6l-6,0
			C335.1,147.4,334.7,147.7,334.7,148"/>
		<path class="st1" d="M361,148l0.1,9.6c0,0.4,0.4,0.6,0.8,0.6l0.9,0c0.5,0,0.8,0.3,0.8,0.6l0.1,15.4c0,0.4,0.4,0.6,0.8,0.6l4.9,0
			c0.5,0,0.8-0.3,0.8-0.7l-0.1-15.7c0-0.3-0.3-0.6-0.8-0.6c-0.4,0-0.8-0.3-0.8-0.6l0-9.2c0-0.4-0.4-0.6-0.8-0.6l-6,0
			C361.4,147.3,361,147.6,361,148"/>
		<path class="st1" d="M387.4,147.9l0.1,9.6c0,0.4,0.4,0.6,0.8,0.6l0.9,0c0.5,0,0.8,0.3,0.8,0.6l0.1,15.4c0,0.4,0.4,0.6,0.8,0.6
			l4.9,0c0.5,0,0.8-0.3,0.8-0.7l-0.1-15.7c0-0.3-0.3-0.6-0.8-0.6c-0.4,0-0.8-0.3-0.8-0.6l0-9.2c0-0.4-0.4-0.7-0.8-0.6l-6,0
			C387.7,147.2,387.4,147.5,387.4,147.9"/>
		<path class="st1" d="M410.9,147.9l0.1,9.6c0,0.4,0.4,0.6,0.8,0.6l0.9,0c0.5,0,0.8,0.3,0.8,0.6l0.1,15.4c0,0.4,0.4,0.6,0.8,0.6
			l4.9,0c0.5,0,0.8-0.3,0.8-0.7l-0.1-15.7c0-0.3-0.3-0.6-0.8-0.6c-0.4,0-0.8-0.3-0.8-0.6l0-9.2c0-0.4-0.4-0.6-0.8-0.6l-6,0
			C411.3,147.3,410.9,147.6,410.9,147.9"/>
		<path class="st1" d="M437.2,147.8l0.1,9.6c0,0.4,0.4,0.6,0.8,0.6l0.9,0c0.5,0,0.8,0.3,0.8,0.6l0.1,15.4c0,0.4,0.4,0.6,0.8,0.6
			l4.9,0c0.5,0,0.8-0.3,0.8-0.7l-0.1-15.7c0-0.3-0.3-0.6-0.8-0.6c-0.4,0-0.8-0.3-0.8-0.6l0-9.2c0-0.4-0.4-0.6-0.8-0.6l-6,0
			C437.6,147.2,437.2,147.5,437.2,147.8"/>
		<path class="st1" d="M385.4,147.9l0.1,9.6c0,0.4,0.4,0.6,0.8,0.6l0.9,0c0.5,0,0.8,0.3,0.8,0.6l0.1,15.4c0,0.4,0.4,0.6,0.8,0.6
			l4.9,0c0.5,0,0.8-0.3,0.8-0.7l-0.1-15.7c0-0.3-0.3-0.6-0.8-0.6c-0.4,0-0.8-0.3-0.8-0.6l0-9.2c0-0.4-0.4-0.6-0.8-0.6l-6,0
			C385.8,147.3,385.4,147.5,385.4,147.9"/>
		<path class="st1" d="M319.1,175c0,2.5-2.4,4.5-5.3,4.5c-2.9,0-5.3-2-5.3-4.5c0-2.5,2.4-4.5,5.3-4.5
			C316.7,170.5,319.1,172.5,319.1,175"/>
		<path class="st1" d="M345.4,175c0,2.5-2.4,4.5-5.3,4.5c-2.9,0-5.3-2-5.3-4.5c0-2.5,2.4-4.5,5.3-4.5
			C343.1,170.4,345.4,172.5,345.4,175"/>
		<path class="st1" d="M372.5,175c0,2.5-2.4,4.5-5.3,4.5c-2.9,0-5.3-2-5.3-4.5c0-2.5,2.4-4.5,5.3-4.5
			C370.1,170.5,372.5,172.5,372.5,175"/>
		<path class="st1" d="M398.4,174.8c0,2.5-2.4,4.5-5.3,4.5c-2.9,0-5.3-2-5.3-4.5c0-2.5,2.4-4.5,5.3-4.5
			C396.1,170.3,398.4,172.3,398.4,174.8"/>
		<path class="st1" d="M422.4,175.1c0,2.5-2.4,4.5-5.3,4.5c-2.9,0-5.3-2-5.3-4.5c0-2.5,2.4-4.5,5.3-4.5
			C420,170.6,422.4,172.6,422.4,175.1"/>
		<path class="st1" d="M448.8,174.9c0,2.5-2.4,4.5-5.3,4.5c-2.9,0-5.3-2-5.3-4.5c0-2.5,2.4-4.5,5.3-4.5
			C446.4,170.4,448.8,172.4,448.8,174.9"/>
		<path class="st1" d="M475.5,175.2c0,2.5-2.4,4.5-5.3,4.5c-2.9,0-5.3-2-5.3-4.5c0-2.5,2.4-4.5,5.3-4.5
			C473.2,170.7,475.5,172.7,475.5,175.2"/>
		<path class="st1" d="M464.1,148.1l0.1,9.6c0,0.4,0.4,0.6,0.8,0.6l0.9,0c0.5,0,0.8,0.3,0.8,0.6l0.1,15.4c0,0.4,0.4,0.6,0.8,0.6
			l4.9,0c0.5,0,0.8-0.3,0.8-0.7l-0.1-15.7c0-0.3-0.3-0.6-0.8-0.6c-0.4,0-0.8-0.3-0.8-0.6l0-9.2c0-0.4-0.4-0.6-0.8-0.6l-6,0
			C464.5,147.5,464.1,147.8,464.1,148.1"/>
		<g class="st11">
			<g>
				<defs>
					<rect id="SVGID_5_" x="288" y="258.7" width="91.2" height="91.2"/>
				</defs>
				<clipPath id="SVGID_6_">
					<use xlink:href="#SVGID_5_"  style="overflow:visible;"/>
				</clipPath>
				<rect x="290.2" y="260.9" class="st12" width="86.9" height="86.9"/>
			</g>
		</g>
		<path class="st1" d="M299.6,275.4c0,6.9-5.6,12.5-12.5,12.5c-6.9,0-12.5-5.6-12.5-12.5c0-6.9,5.6-12.5,12.5-12.5
			C294,262.9,299.6,268.5,299.6,275.4"/>
		<path class="st1" d="M297.9,337.4c0,6.9-5.6,12.5-12.5,12.5c-6.9,0-12.5-5.6-12.5-12.5c0-6.9,5.6-12.5,12.5-12.5
			C292.3,324.9,297.9,330.5,297.9,337.4"/>
		<path class="st1" d="M399.5,274.8c0,6.9-5.6,12.5-12.5,12.5c-6.9,0-12.5-5.6-12.5-12.5c0-6.9,5.6-12.5,12.5-12.5
			C393.9,262.3,399.5,267.9,399.5,274.8"/>
		<path class="st1" d="M401.8,336.2c0,6.9-5.6,12.5-12.5,12.5c-6.9,0-12.5-5.6-12.5-12.5s5.6-12.5,12.5-12.5
			C396.3,323.8,401.8,329.3,401.8,336.2"/>
		<g class="st11">
			<g>
				<defs>
					<rect id="SVGID_7_" x="437.1" y="260.8" width="91.2" height="91.2"/>
				</defs>
				<clipPath id="SVGID_8_">
					<use xlink:href="#SVGID_7_"  style="overflow:visible;"/>
				</clipPath>
				<rect x="439.3" y="263" class="st13" width="86.9" height="86.9"/>
			</g>
		</g>
		<g class="st14">
			<g>
				<defs>
					<rect id="SVGID_9_" x="439.3" y="263" width="86.9" height="86.9"/>
				</defs>
				<clipPath id="SVGID_10_">
					<use xlink:href="#SVGID_9_"  style="overflow:visible;"/>
				</clipPath>
				<rect x="439.3" y="263" class="st15" width="86.9" height="86.9"/>
			</g>
		</g>
		<path class="st1" d="M439.3,275.4c0,6.9-5.6,12.5-12.5,12.5c-6.9,0-12.5-5.6-12.5-12.5c0-6.9,5.6-12.5,12.5-12.5
			C433.7,262.9,439.3,268.5,439.3,275.4"/>
		<path class="st1" d="M440.3,336.5c0,6.9-5.6,12.5-12.5,12.5s-12.5-5.6-12.5-12.5c0-6.9,5.6-12.5,12.5-12.5
			S440.3,329.6,440.3,336.5"/>
		<path class="st1" d="M542.8,275.4c0,6.9-5.6,12.5-12.5,12.5c-6.9,0-12.5-5.6-12.5-12.5c0-6.9,5.6-12.5,12.5-12.5
			C537.2,262.9,542.8,268.5,542.8,275.4"/>
		<rect x="526.2" y="323.8" class="st1" width="20.2" height="26.1"/>
		<g class="st16">
			<g>
				<defs>
					<rect id="SVGID_11_" x="458.9" y="282.6" width="47.6" height="47.6"/>
				</defs>
				<clipPath id="SVGID_12_">
					<use xlink:href="#SVGID_11_"  style="overflow:visible;"/>
				</clipPath>
				<path class="st17" d="M495.4,326.6c-11.1,7-25.8,3.7-32.8-7.4c-7-11.1-3.7-25.8,7.4-32.8c11.1-7,25.8-3.7,32.8,7.4
					C509.9,304.8,506.6,319.5,495.4,326.6"/>
			</g>
		</g>
		<path class="st18" d="M123.6,84.6l-6.5,0l-0.1-9.7l-40.2,0.2c-3.5,0-6.3,2.7-6.3,5.9l0.3,53.1c0,3.2,2.9,5.9,6.4,5.9l40.2-0.2
			l-0.1-9.7l6.5,0c3.7,0,6.7-2.8,6.7-6.2l-0.2-33.1C130.3,87.3,127.3,84.6,123.6,84.6z"/>
		<path class="st19" d="M88.6,102.7l7.3,0c0.6,0,1.1-0.4,1.1-1l0-7c0-0.5-0.5-0.9-1.1-0.9l-7.3,0c-0.6,0-1.1,0.4-1.1,1l0,7
			C87.5,102.3,88,102.7,88.6,102.7z"/>
		<path class="st19" d="M88.7,121.1l7.3,0c0.6,0,1.1-0.4,1.1-1l0-7c0-0.5-0.5-0.9-1.1-0.9l-7.3,0c-0.6,0-1.1,0.4-1.1,1l0,7
			C87.6,120.7,88.1,121.1,88.7,121.1z"/>
		
			<ellipse transform="matrix(1.199744e-02 -0.9999 0.9999 1.199744e-02 -94.2166 418.44)" class="st20" cx="164.6" cy="256.9" rx="72.2" ry="72.2"/>
	</g>
	<path class="st4" d="M682.7,371.7H57.3c-22.6,0-40.9-18.3-40.9-40.9V69.1c0-22.6,18.3-40.9,40.9-40.9h625.5
		c22.6,0,40.9,18.3,40.9,40.9v261.7C723.6,353.4,705.3,371.7,682.7,371.7z"/>
</g>
</svg>
