<?xml version="1.0" encoding="utf-8"?>
<!-- Generator: Adobe Illustrator 22.0.0, SVG Export Plug-In . SVG Version: 6.00 Build 0)  -->
<svg version="1.1" id="图层_1" xmlns="http://www.w3.org/2000/svg" xmlns:xlink="http://www.w3.org/1999/xlink" x="0px" y="0px"
	 viewBox="0 0 740 400" style="enable-background:new 0 0 740 400;" xml:space="preserve">
<style type="text/css">
	.st0{fill:none;stroke:#FFFFFF;stroke-width:12;stroke-miterlimit:10;}
	.st1{fill:#FFFFFF;}
	.st2{fill:none;stroke:#FFFFFF;stroke-width:16.788;stroke-miterlimit:10;}
	.st3{fill:none;stroke:#FFFFFF;stroke-width:8.394;stroke-miterlimit:10;}
	.st4{fill:none;stroke:#FFFFFF;stroke-width:18.563;stroke-miterlimit:10;}
	.st5{fill:none;stroke:#FFFFFF;stroke-width:13.4353;stroke-miterlimit:10;}
	.st6{fill:none;stroke:#FFFFFF;stroke-width:5.0074;stroke-miterlimit:10;}
	.st7{opacity:0.4;fill:#FFFFFF;}
	.st8{fill:none;stroke:#FFFFFF;stroke-width:2;stroke-miterlimit:10;}
	.st9{opacity:0.8;fill:#FFFFFF;}
	.st10{opacity:0.6;fill:#FFFFFF;}
	.st11{opacity:0.6;}
	.st12{fill:none;stroke:#FFFFFF;stroke-width:6.4978;stroke-linecap:round;stroke-linejoin:round;stroke-miterlimit:10;}
</style>
<g>
	<path class="st0" d="M-1926.9-4685h-15.6c-4.1,0-7.4-3.3-7.4-7.4v-58.1c0-4.1,3.3-7.4,7.4-7.4h15.6c4.1,0,7.4,3.3,7.4,7.4v58.1
		C-1919.5-4688.3-1922.8-4685-1926.9-4685z"/>
	<path class="st1" d="M-2110.1-4814.7h-256.6c-3.4,0-6.1-2.7-6.1-6.1c0-3.4,2.7-6.1,6.1-6.1h256.6c3.4,0,6.1,2.7,6.1,6.1
		C-2104.1-4817.5-2106.8-4814.7-2110.1-4814.7"/>
	<path class="st1" d="M-2087.4-4820.8c0,4.6-3.7,8.3-8.3,8.3c-4.6,0-8.3-3.7-8.3-8.3s3.7-8.3,8.3-8.3
		C-2091.1-4829.2-2087.4-4825.4-2087.4-4820.8"/>
	<path class="st1" d="M-2110.1-4792h-256.6c-3.4,0-6.1-2.7-6.1-6.1s2.7-6.1,6.1-6.1h256.6c3.4,0,6.1,2.7,6.1,6.1
		S-2106.8-4792-2110.1-4792"/>
	<path class="st1" d="M-2087.4-4798c0,4.6-3.7,8.3-8.3,8.3c-4.6,0-8.3-3.7-8.3-8.3s3.7-8.3,8.3-8.3
		C-2091.1-4806.4-2087.4-4802.7-2087.4-4798"/>
	<path class="st1" d="M-2110.1-4769.2h-256.6c-3.4,0-6.1-2.7-6.1-6.1s2.7-6.1,6.1-6.1h256.6c3.4,0,6.1,2.7,6.1,6.1
		S-2106.8-4769.2-2110.1-4769.2"/>
	<path class="st1" d="M-2087.4-4775.3c0,4.6-3.7,8.3-8.3,8.3c-4.6,0-8.3-3.7-8.3-8.3c0-4.6,3.7-8.4,8.3-8.4
		C-2091.1-4783.6-2087.4-4779.9-2087.4-4775.3"/>
	<path class="st1" d="M-2110.1-4746.4h-256.6c-3.4,0-6.1-2.7-6.1-6.1s2.7-6.1,6.1-6.1h256.6c3.4,0,6.1,2.7,6.1,6.1
		S-2106.8-4746.4-2110.1-4746.4"/>
	<path class="st1" d="M-2087.4-4752.5c0,4.6-3.7,8.4-8.3,8.4c-4.6,0-8.3-3.7-8.3-8.4c0-4.6,3.7-8.3,8.3-8.3
		C-2091.1-4760.9-2087.4-4757.1-2087.4-4752.5"/>
	<path class="st1" d="M-2110.1-4723.7h-256.6c-3.4,0-6.1-2.7-6.1-6.1s2.7-6.1,6.1-6.1h256.6c3.4,0,6.1,2.7,6.1,6.1
		S-2106.8-4723.7-2110.1-4723.7"/>
	<path class="st1" d="M-2087.4-4729.7c0,4.6-3.7,8.3-8.3,8.3c-4.6,0-8.3-3.7-8.3-8.3c0-4.6,3.7-8.3,8.3-8.3
		C-2091.1-4738.1-2087.4-4734.3-2087.4-4729.7"/>
	<path class="st1" d="M-2110.1-4700.9h-256.6c-3.4,0-6.1-2.7-6.1-6.1c0-3.4,2.7-6.1,6.1-6.1h256.6c3.4,0,6.1,2.7,6.1,6.1
		C-2104.1-4703.6-2106.8-4700.9-2110.1-4700.9"/>
	<path class="st1" d="M-2087.4-4707c0,4.6-3.7,8.3-8.3,8.3c-4.6,0-8.3-3.7-8.3-8.3s3.7-8.3,8.3-8.3
		C-2091.1-4715.3-2087.4-4711.6-2087.4-4707"/>
	<path class="st1" d="M-2110.1-4678.1h-256.6c-3.4,0-6.1-2.7-6.1-6.1c0-3.4,2.7-6.1,6.1-6.1h256.6c3.4,0,6.1,2.7,6.1,6.1
		C-2104.1-4680.8-2106.8-4678.1-2110.1-4678.1"/>
	<path class="st1" d="M-2087.4-4684.2c0,4.6-3.7,8.3-8.3,8.3c-4.6,0-8.3-3.7-8.3-8.3c0-4.6,3.7-8.3,8.3-8.3
		C-2091.1-4692.5-2087.4-4688.8-2087.4-4684.2"/>
	<path class="st1" d="M-2110.1-4655.4h-256.6c-3.4,0-6.1-2.7-6.1-6.1s2.7-6.1,6.1-6.1h256.6c3.4,0,6.1,2.7,6.1,6.1
		S-2106.8-4655.4-2110.1-4655.4"/>
	<path class="st1" d="M-2087.4-4661.4c0,4.6-3.7,8.3-8.3,8.3c-4.6,0-8.3-3.7-8.3-8.3c0-4.6,3.7-8.3,8.3-8.3
		C-2091.1-4669.8-2087.4-4666-2087.4-4661.4"/>
	<path class="st1" d="M-2110.1-4632.6h-256.6c-3.4,0-6.1-2.7-6.1-6.1s2.7-6.1,6.1-6.1h256.6c3.4,0,6.1,2.7,6.1,6.1
		S-2106.8-4632.6-2110.1-4632.6"/>
	<path class="st1" d="M-2087.4-4638.7c0,4.6-3.7,8.3-8.3,8.3c-4.6,0-8.3-3.7-8.3-8.3c0-4.6,3.7-8.3,8.3-8.3
		C-2091.1-4647-2087.4-4643.3-2087.4-4638.7"/>
	<path class="st2" d="M-1855.3-4797.2h24.5v-18.8c0-5.4,4.4-9.7,9.7-9.7h89.6c5.4,0,9.7,4.4,9.7,9.7v189.1c0,5.4-4.4,9.7-9.7,9.7
		h-89.6c-5.4,0-9.7-4.4-9.7-9.7v-18.8h-24.5c-5.4,0-9.7-4.4-9.7-9.7v-132.1C-1865.1-4792.8-1860.7-4797.2-1855.3-4797.2z"/>
	<path class="st3" d="M-1785.4-4777.2h14.2c2,0,3.6-1.6,3.6-3.6v-14.2c0-2-1.6-3.6-3.6-3.6h-14.2c-2,0-3.6,1.6-3.6,3.6v14.2
		C-1789-4778.8-1787.4-4777.2-1785.4-4777.2z"/>
	<path class="st3" d="M-1785.4-4732.9h14.2c2,0,3.6-1.6,3.6-3.6v-14.2c0-2-1.6-3.6-3.6-3.6h-14.2c-2,0-3.6,1.6-3.6,3.6v14.2
		C-1789-4734.5-1787.4-4732.9-1785.4-4732.9z"/>
	<path class="st3" d="M-1785.4-4688.6h14.2c2,0,3.6-1.6,3.6-3.6v-14.2c0-2-1.6-3.6-3.6-3.6h-14.2c-2,0-3.6,1.6-3.6,3.6v14.2
		C-1789-4690.2-1787.4-4688.6-1785.4-4688.6z"/>
	<path class="st3" d="M-1785.4-4644.2h14.2c2,0,3.6-1.6,3.6-3.6v-14.2c0-2-1.6-3.6-3.6-3.6h-14.2c-2,0-3.6,1.6-3.6,3.6v14.2
		C-1789-4645.8-1787.4-4644.2-1785.4-4644.2z"/>
	<path class="st4" d="M-1731.8-4562.1h-625.5c-22.6,0-40.9-18.3-40.9-40.9v-261.7c0-22.6,18.3-40.9,40.9-40.9h625.5
		c22.6,0,40.9,18.3,40.9,40.9v261.7C-1690.9-4580.4-1709.2-4562.1-1731.8-4562.1z"/>
</g>
<g>
	<g>
		<g>
			<path class="st5" d="M144.5,244.5l-14.2-0.1l-0.1,11.8c0,3.4-2.6,6.1-5.7,6.1l-52-0.3c-3.1,0-5.6-2.8-5.6-6.2l0.8-119.3
				c0-3.4,2.6-6.1,5.7-6.1l52,0.3c3.1,0,5.6,2.8,5.6,6.2l-0.1,11.8l14.2,0.1c3.1,0,5.6,2.8,5.6,6.2l-0.6,83.4
				C150.2,241.8,147.6,244.5,144.5,244.5z"/>
			<path class="st6" d="M102.1,231.6l-4.5,0c-2.2,0-3.9,1.7-3.9,3.9l0,5.6c0,2.2,1.7,3.9,3.9,3.9l4.5,0c2.2,0,3.9-1.7,3.9-3.9l0-5.6
				C106.1,233.4,104.3,231.6,102.1,231.6z"/>
			<path class="st6" d="M102.3,203.6l-4.5,0c-2.2,0-3.9,1.7-3.9,3.9l0,5.6c0,2.2,1.7,3.9,3.9,3.9l4.5,0c2.2,0,3.9-1.7,3.9-3.9l0-5.6
				C106.2,205.4,104.5,203.6,102.3,203.6z"/>
			<path class="st6" d="M102.5,175.6l-4.5,0c-2.2,0-3.9,1.7-3.9,3.9l0,5.6c0,2.2,1.7,3.9,3.9,3.9l4.5,0c2.2,0,3.9-1.7,3.9-3.9l0-5.6
				C106.4,177.4,104.7,175.7,102.5,175.6z"/>
			<path class="st6" d="M102.7,147.6l-4.5,0c-2.2,0-3.9,1.7-3.9,3.9l0,5.6c0,2.2,1.7,3.9,3.9,3.9l4.5,0c2.2,0,3.9-1.7,3.9-3.9l0-5.6
				C106.6,149.4,104.9,147.7,102.7,147.6z"/>
		</g>
		<path class="st7" d="M644.6,313.9H400.5c-15.7,0-28.5-12.7-28.5-28.5V107.2c0-15.7,12.7-28.5,28.5-28.5h244.1
			c15.7,0,28.5,12.7,28.5,28.5v178.2C673.1,301.1,660.4,313.9,644.6,313.9z"/>
		<path class="st8" d="M261.5,349.5H178c-3.7,0-6.7-3-6.7-6.7v-83.5c0-3.7,3-6.7,6.7-6.7h83.5c3.7,0,6.7,3,6.7,6.7v83.5
			C268.2,346.5,265.2,349.5,261.5,349.5z"/>
		<rect x="177.5" y="277.5" class="st9" width="88.9" height="42.7"/>
		<path class="st10" d="M261.5,332.2v-11.7l8.1,4.7v-56.6c0-5.7-4.7-10.4-10.4-10.4h-71c-5.7,0-10.4,4.7-10.4,10.4v65
			c0,5.7,4.7,10.4,10.4,10.4h71c5.7,0,10.4-4.7,10.4-10.4v-6L261.5,332.2z M200.7,317.9c-9.3,0-16.9-7.6-16.9-16.9
			c0-9.3,7.6-16.9,16.9-16.9c9.3,0,16.9,7.6,16.9,16.9C217.7,310.4,210.1,317.9,200.7,317.9z M244.3,318.4
			c-9.3,0-16.9-7.6-16.9-16.9c0-9.3,7.6-16.9,16.9-16.9s16.9,7.6,16.9,16.9C261.2,310.8,253.7,318.4,244.3,318.4z"/>
		<path class="st1" d="M625.8,90.8H419.3c-17.7,0-32.1,14.4-32.1,32.1v146.9c0,17.7,14.4,32.1,32.1,32.1h206.4
			c17.7,0,32.1-14.4,32.1-32.1V122.9C657.9,105.2,643.5,90.8,625.8,90.8z M421.5,287.1c-7.5,0-13.5-6.1-13.5-13.5
			c0-7.5,6.1-13.5,13.5-13.5c7.5,0,13.5,6.1,13.5,13.5C435,281.1,428.9,287.1,421.5,287.1z"/>
		<g class="st11">
			<rect x="171.3" y="66.3" class="st12" width="58.7" height="30.9"/>
			<rect x="260.9" y="50.5" class="st12" width="23.3" height="61.8"/>
			<rect x="320.4" y="50.5" class="st12" width="30.9" height="61.8"/>
			<rect x="171.3" y="115.3" class="st12" width="58.7" height="28.6"/>
			<rect x="236" y="124.3" class="st12" width="55.7" height="24.9"/>
			<rect x="196.1" y="156.7" class="st12" width="33.9" height="63.3"/>
			<rect x="254.8" y="162.7" class="st12" width="33.1" height="57.2"/>
			<rect x="242" y="72.4" class="st1" width="20.3" height="20.3"/>
			<rect x="288" y="53.5" class="st1" width="22.2" height="22.2"/>
			<rect x="291.8" y="89.7" class="st1" width="18.5" height="18.5"/>
			<rect x="310.2" y="129.6" class="st12" width="37.3" height="90.4"/>
			<rect x="181" y="174.8" class="st1" width="15.1" height="24.1"/>
			<rect x="230" y="162.7" class="st1" width="17.7" height="17.7"/>
			<rect x="230" y="199.3" class="st1" width="17.7" height="17.7"/>
		</g>
		<rect x="320.4" y="59.7" class="st1" width="27.1" height="37.6"/>
		<rect x="262.4" y="59.7" class="st1" width="21.8" height="42.7"/>
		<rect x="188.6" y="66.3" class="st1" width="29.1" height="29.1"/>
		<rect x="199" y="168.1" class="st1" width="28.4" height="42.2"/>
		<rect x="310.2" y="149.2" class="st1" width="37.3" height="58.9"/>
	</g>
	<path class="st4" d="M682.7,371.7H57.3c-22.6,0-40.9-18.3-40.9-40.9V69.1c0-22.6,18.3-40.9,40.9-40.9h625.5
		c22.6,0,40.9,18.3,40.9,40.9v261.7C723.6,353.4,705.3,371.7,682.7,371.7z"/>
</g>
</svg>
