<?xml version="1.0" encoding="utf-8"?>
<!-- Generator: Adobe Illustrator 22.0.0, SVG Export Plug-In . SVG Version: 6.00 Build 0)  -->
<svg version="1.1" id="图层_1" xmlns="http://www.w3.org/2000/svg" xmlns:xlink="http://www.w3.org/1999/xlink" x="0px" y="0px"
	 viewBox="0 0 480 400" style="enable-background:new 0 0 480 400;" xml:space="preserve">
<style type="text/css">
	.st0{fill:none;stroke:#FFFFFF;stroke-width:21.8504;stroke-miterlimit:10;}
	.st1{opacity:0.2;fill:#FFFFFF;}
	.st2{fill:none;stroke:#FFFFFF;stroke-width:7.2825;stroke-miterlimit:10;}
	.st3{fill:#FFFFFF;}
</style>
<g>
	<g>
		<path class="st0" d="M404.6,378.6H75.4c-30.6,0-55.4-24.8-55.4-55.4V72.4C20,41.8,44.8,17,75.4,17h329.1
			c30.6,0,55.4,24.8,55.4,55.4v250.7C460,353.8,435.2,378.6,404.6,378.6z"/>
		<path class="st1" d="M404.6,378.6H75.4c-30.6,0-55.4-24.8-55.4-55.4V72.4C20,41.8,44.8,17,75.4,17h329.1
			c30.6,0,55.4,24.8,55.4,55.4v250.7C460,353.8,435.2,378.6,404.6,378.6z"/>
		<g>
			<line class="st2" x1="20" y1="67.1" x2="460" y2="67.1"/>
			<line class="st2" x1="20" y1="112.2" x2="460" y2="112.2"/>
			<line class="st2" x1="20" y1="157.3" x2="460" y2="157.3"/>
			<line class="st2" x1="20" y1="202.4" x2="460" y2="202.4"/>
			<line class="st2" x1="20" y1="247.6" x2="460" y2="247.6"/>
			<line class="st2" x1="20" y1="292.7" x2="460" y2="292.7"/>
			<line class="st2" x1="20" y1="337.8" x2="460" y2="337.8"/>
			<line class="st2" x1="108.3" y1="378.6" x2="108.3" y2="17"/>
			<line class="st2" x1="152.6" y1="378.6" x2="152.6" y2="17"/>
			<line class="st2" x1="197" y1="378.6" x2="197" y2="17"/>
			<line class="st2" x1="241.3" y1="378.6" x2="241.3" y2="17"/>
			<line class="st2" x1="285.7" y1="378.6" x2="285.7" y2="17"/>
			<line class="st2" x1="330" y1="378.6" x2="330" y2="17"/>
			<line class="st2" x1="374.3" y1="378.6" x2="374.3" y2="17"/>
			<line class="st2" x1="64" y1="383" x2="64" y2="21.4"/>
			<line class="st2" x1="418.7" y1="383" x2="418.7" y2="21.4"/>
		</g>
	</g>
	<g>
		<g>
			<ellipse class="st3" cx="129.2" cy="91.9" rx="9.2" ry="9"/>
			<ellipse class="st3" cx="350.8" cy="91.9" rx="9.2" ry="9"/>
		</g>
		<g>
			<ellipse class="st3" cx="129.2" cy="317.9" rx="9.2" ry="9"/>
			<ellipse class="st3" cx="350.8" cy="317.9" rx="9.2" ry="9"/>
		</g>
	</g>
</g>
<g>
	<g>
		<path class="st0" d="M404.6,378.6H75.4c-30.6,0-55.4-24.8-55.4-55.4V72.4C20,41.8,44.8,17,75.4,17h329.1
			c30.6,0,55.4,24.8,55.4,55.4v250.7C460,353.8,435.2,378.6,404.6,378.6z"/>
		<path class="st1" d="M404.6,378.6H75.4c-30.6,0-55.4-24.8-55.4-55.4V72.4C20,41.8,44.8,17,75.4,17h329.1
			c30.6,0,55.4,24.8,55.4,55.4v250.7C460,353.8,435.2,378.6,404.6,378.6z"/>
		<g>
			<line class="st2" x1="20" y1="67.1" x2="460" y2="67.1"/>
			<line class="st2" x1="20" y1="112.2" x2="460" y2="112.2"/>
			<line class="st2" x1="20" y1="157.3" x2="460" y2="157.3"/>
			<line class="st2" x1="20" y1="202.4" x2="460" y2="202.4"/>
			<line class="st2" x1="20" y1="247.6" x2="460" y2="247.6"/>
			<line class="st2" x1="20" y1="292.7" x2="460" y2="292.7"/>
			<line class="st2" x1="20" y1="337.8" x2="460" y2="337.8"/>
			<line class="st2" x1="108.3" y1="378.6" x2="108.3" y2="17"/>
			<line class="st2" x1="152.6" y1="378.6" x2="152.6" y2="17"/>
			<line class="st2" x1="197" y1="378.6" x2="197" y2="17"/>
			<line class="st2" x1="241.3" y1="378.6" x2="241.3" y2="17"/>
			<line class="st2" x1="285.7" y1="378.6" x2="285.7" y2="17"/>
			<line class="st2" x1="330" y1="378.6" x2="330" y2="17"/>
			<line class="st2" x1="374.3" y1="378.6" x2="374.3" y2="17"/>
			<line class="st2" x1="64" y1="383" x2="64" y2="21.4"/>
			<line class="st2" x1="418.7" y1="383" x2="418.7" y2="21.4"/>
		</g>
	</g>
	<g>
		<g>
			<ellipse class="st3" cx="129.2" cy="91.9" rx="9.2" ry="9"/>
			<ellipse class="st3" cx="350.8" cy="91.9" rx="9.2" ry="9"/>
		</g>
		<g>
			<ellipse class="st3" cx="129.2" cy="317.9" rx="9.2" ry="9"/>
			<ellipse class="st3" cx="350.8" cy="317.9" rx="9.2" ry="9"/>
		</g>
	</g>
</g>
</svg>
