<?xml version="1.0" encoding="utf-8"?>
<!-- Generator: Adobe Illustrator 21.0.0, SVG Export Plug-In . SVG Version: 6.00 Build 0)  -->
<svg version="1.1" id="图层_1" xmlns="http://www.w3.org/2000/svg" xmlns:xlink="http://www.w3.org/1999/xlink" x="0px" y="0px"
	 viewBox="0 0 740 400" style="enable-background:new 0 0 740 400;" xml:space="preserve">
<style type="text/css">
	.st0{fill:#FFFFFF;}
	.st1{opacity:0.8;}
</style>
<g>
	<rect class="st0" width="740" height="19.9"/>
</g>
<g>
	<rect y="124.2" class="st0" width="740" height="19.9"/>
</g>
<g>
	<g class="st1">
		<path class="st0" d="M77.3,103.7H37.7c-6,0-10.9-4.9-10.9-10.9V53.2c0-6,4.9-10.9,10.9-10.9h39.7c6,0,10.9,4.9,10.9,10.9v39.7
			C88.2,98.9,83.3,103.7,77.3,103.7z"/>
	</g>
	<g>
		<rect x="132.5" y="9.9" class="st0" width="8.3" height="124.2"/>
	</g>
</g>
<g>
	<g class="st1">
		<path class="st0" d="M233.3,103.7h-39.7c-6,0-10.9-4.9-10.9-10.9V53.2c0-6,4.9-10.9,10.9-10.9h39.7c6,0,10.9,4.9,10.9,10.9v39.7
			C244.2,98.9,239.3,103.7,233.3,103.7z"/>
	</g>
	<g>
		<rect x="288.5" y="9.9" class="st0" width="8.3" height="124.2"/>
	</g>
</g>
<g>
	<g class="st1">
		<path class="st0" d="M389.3,103.7h-39.7c-6,0-10.9-4.9-10.9-10.9V53.2c0-6,4.9-10.9,10.9-10.9h39.7c6,0,10.9,4.9,10.9,10.9v39.7
			C400.2,98.9,395.4,103.7,389.3,103.7z"/>
	</g>
	<g>
		<rect x="444.5" y="9.9" class="st0" width="8.3" height="124.2"/>
	</g>
</g>
<g>
	<g class="st1">
		<path class="st0" d="M545.3,103.7h-39.7c-6,0-10.9-4.9-10.9-10.9V53.2c0-6,4.9-10.9,10.9-10.9h39.7c6,0,10.9,4.9,10.9,10.9v39.7
			C556.2,98.9,551.4,103.7,545.3,103.7z"/>
	</g>
	<g>
		<rect x="600.5" y="9.9" class="st0" width="8.3" height="124.2"/>
	</g>
</g>
<g class="st1">
	<g>
		<path class="st0" d="M701.3,103.7h-39.7c-6,0-10.9-4.9-10.9-10.9V53.2c0-6,4.9-10.9,10.9-10.9h39.7c6,0,10.9,4.9,10.9,10.9v39.7
			C712.3,98.9,707.4,103.7,701.3,103.7z"/>
	</g>
</g>
<g>
	<rect y="256" class="st0" width="740" height="19.9"/>
</g>
<g>
	<rect y="380.3" class="st0" width="740" height="19.9"/>
</g>
<g>
	<g class="st1">
		<path class="st0" d="M77.3,359.8H37.7c-6,0-10.9-4.9-10.9-10.9v-39.7c0-6,4.9-10.9,10.9-10.9h39.7c6,0,10.9,4.9,10.9,10.9v39.7
			C88.2,354.9,83.3,359.8,77.3,359.8z"/>
	</g>
	<g>
		<rect x="132.5" y="265.9" class="st0" width="8.3" height="124.2"/>
	</g>
</g>
<g>
	<g class="st1">
		<path class="st0" d="M233.3,359.8h-39.7c-6,0-10.9-4.9-10.9-10.9v-39.7c0-6,4.9-10.9,10.9-10.9h39.7c6,0,10.9,4.9,10.9,10.9v39.7
			C244.2,354.9,239.3,359.8,233.3,359.8z"/>
	</g>
	<g>
		<rect x="288.5" y="265.9" class="st0" width="8.3" height="124.2"/>
	</g>
</g>
<g>
	<g class="st1">
		<path class="st0" d="M389.3,359.8h-39.7c-6,0-10.9-4.9-10.9-10.9v-39.7c0-6,4.9-10.9,10.9-10.9h39.7c6,0,10.9,4.9,10.9,10.9v39.7
			C400.2,354.9,395.4,359.8,389.3,359.8z"/>
	</g>
	<g>
		<rect x="444.5" y="265.9" class="st0" width="8.3" height="124.2"/>
	</g>
</g>
<g>
	<g class="st1">
		<path class="st0" d="M545.3,359.8h-39.7c-6,0-10.9-4.9-10.9-10.9v-39.7c0-6,4.9-10.9,10.9-10.9h39.7c6,0,10.9,4.9,10.9,10.9v39.7
			C556.2,354.9,551.4,359.8,545.3,359.8z"/>
	</g>
	<g>
		<rect x="600.5" y="265.9" class="st0" width="8.3" height="124.2"/>
	</g>
</g>
<g class="st1">
	<g>
		<path class="st0" d="M701.3,359.8h-39.7c-6,0-10.9-4.9-10.9-10.9v-39.7c0-6,4.9-10.9,10.9-10.9h39.7c6,0,10.9,4.9,10.9,10.9v39.7
			C712.3,354.9,707.4,359.8,701.3,359.8z"/>
	</g>
</g>
</svg>
