<?xml version="1.0" encoding="utf-8"?>
<!-- Generator: Adobe Illustrator 25.0.0, SVG Export Plug-In . SVG Version: 6.00 Build 0)  -->
<svg version="1.1" id="图层_1" xmlns="http://www.w3.org/2000/svg" xmlns:xlink="http://www.w3.org/1999/xlink" x="0px" y="0px"
	 viewBox="0 0 46 46" style="enable-background:new 0 0 46 46;" xml:space="preserve">
<style type="text/css">
	.st0{fill:#FFFFFF;}
</style>
<g>
	<path class="st0" d="M37.1,46H8.9C4,46,0,42,0,37.1V8.9C0,4,4,0,8.9,0h28.2C42,0,46,4,46,8.9v28.2C46,42,42,46,37.1,46z M8.9,2.5
		c-3.5,0-6.4,2.9-6.4,6.4v28.2c0,3.5,2.9,6.4,6.4,6.4h28.2c3.5,0,6.4-2.9,6.4-6.4V8.9c0-3.5-2.9-6.4-6.4-6.4H8.9z"/>
</g>
<g>
	<path class="st0" d="M30.5,38H15.5L8,30.5V15.5L15.5,8h14.9l7.6,7.6v14.9L30.5,38z M16.6,35.5h12.8l6.1-6.1V16.6l-6.1-6.1H16.6
		l-6.1,6.1v12.8L16.6,35.5z"/>
</g>
<g>
	<path class="st0" d="M27.4,32h-8.8L14,27.4v-8.8l4.6-4.6h8.8l4.6,4.6v8.8L27.4,32z M19.6,29.4h6.7l3.1-3.1v-6.7l-3.1-3.1h-6.7
		l-3.1,3.1v6.7L19.6,29.4z"/>
</g>
</svg>
