<?xml version="1.0" encoding="utf-8"?>
<!-- Generator: Adobe Illustrator 22.0.0, SVG Export Plug-In . SVG Version: 6.00 Build 0)  -->
<svg version="1.1" id="图层_1" xmlns="http://www.w3.org/2000/svg" xmlns:xlink="http://www.w3.org/1999/xlink" x="0px" y="0px"
	 viewBox="0 0 480 400" style="enable-background:new 0 0 480 400;" xml:space="preserve">
<style type="text/css">
	.st0{fill:none;stroke:#FFFFFF;stroke-width:18.563;stroke-miterlimit:10;}
	.st1{fill:none;stroke:#FFFFFF;stroke-width:13.0676;stroke-miterlimit:10;}
	.st2{fill:none;stroke:#FFFFFF;stroke-width:4.8701;stroke-miterlimit:10;}
	.st3{fill:#FFFFFF;}
	.st4{opacity:0.8;}
	.st5{clip-path:url(#SVGID_2_);fill:#FFFFFF;}
	.st6{clip-path:url(#SVGID_4_);fill:#FFFFFF;}
	.st7{clip-path:url(#SVGID_6_);fill:#FFFFFF;}
	.st8{fill:none;stroke:#FFFFFF;stroke-width:9.9187;stroke-miterlimit:10;}
	.st9{opacity:0.3;}
	.st10{clip-path:url(#SVGID_8_);fill:#FFFFFF;}
</style>
<g>
	<path class="st0" d="M410.2,376.9H69.8c-27.7,0-50.2-22.5-50.2-50.2V73.3c0-27.7,22.5-50.2,50.2-50.2h340.5
		c27.7,0,50.2,22.5,50.2,50.2v253.5C460.4,354.5,437.9,376.9,410.2,376.9z"/>
	<g>
		<path class="st1" d="M295.1,126.7l0.1-16.6l13.8,0.1c3.9,0,7.2-2.9,7.2-6.5l0.5-60.4c0-3.6-3.1-6.6-7.1-6.6L171,35.5
			c-3.9,0-7.2,2.9-7.2,6.5l-0.5,60.4c0,3.6,3.1,6.6,7.1,6.6l13.8,0.1l-0.1,16.6c0,3.6,3.1,6.6,7.1,6.6l96.9,0.8
			C291.9,133.2,295.1,130.3,295.1,126.7z"/>
		<path class="st2" d="M280.9,78.9l0.1-8.6c0-1.6,1.3-2.9,2.9-2.8l9.9,0.1c1.6,0,2.9,1.3,2.8,2.9l-0.1,8.6c0,1.6-1.3,2.9-2.9,2.8
			l-9.9-0.1C282.2,81.8,280.9,80.5,280.9,78.9z"/>
		<path class="st2" d="M248.4,78.6l0.1-8.6c0-1.6,1.3-2.9,2.9-2.8l9.9,0.1c1.6,0,2.9,1.3,2.8,2.9l-0.1,8.6c0,1.6-1.3,2.9-2.9,2.8
			l-9.9-0.1C249.7,81.5,248.4,80.2,248.4,78.6z"/>
		<path class="st2" d="M215.9,78.4l0.1-8.6c0-1.6,1.3-2.9,2.9-2.8l9.9,0.1c1.6,0,2.9,1.3,2.8,2.9l-0.1,8.6c0,1.6-1.3,2.9-2.9,2.8
			l-9.9-0.1C217.1,81.3,215.9,80,215.9,78.4z"/>
		<path class="st2" d="M183.4,78.1l0.1-8.6c0-1.6,1.3-2.9,2.9-2.8l9.9,0.1c1.6,0,2.9,1.3,2.8,2.9l-0.1,8.6c0,1.6-1.3,2.9-2.9,2.8
			l-9.9-0.1C184.6,81,183.3,79.7,183.4,78.1z"/>
		<path class="st3" d="M304,188.3H181c-5.7,0-10.4-4.7-10.4-10.4c0-5.7,4.7-10.4,10.4-10.4H304c5.7,0,10.4,4.7,10.4,10.4
			C314.4,183.6,309.8,188.3,304,188.3"/>
		<g class="st4">
			<g>
				<defs>
					<rect id="SVGID_1_" x="180.1" y="150.1" width="24.7" height="21"/>
				</defs>
				<clipPath id="SVGID_2_">
					<use xlink:href="#SVGID_1_"  style="overflow:visible;"/>
				</clipPath>
				<path class="st5" d="M192.5,150.1c-6,0-10.9,4.9-10.9,10.9h21.8C203.3,155,198.5,150.1,192.5,150.1"/>
				<rect x="180.1" y="161" class="st5" width="24.7" height="10.2"/>
			</g>
		</g>
		<g class="st4">
			<g>
				<defs>
					<rect id="SVGID_3_" x="228.4" y="150.1" width="24.7" height="21"/>
				</defs>
				<clipPath id="SVGID_4_">
					<use xlink:href="#SVGID_3_"  style="overflow:visible;"/>
				</clipPath>
				<path class="st6" d="M240.8,150.1c-6,0-10.9,4.9-10.9,10.9h21.8C251.6,155,246.8,150.1,240.8,150.1"/>
				<rect x="228.4" y="161" class="st6" width="24.7" height="10.2"/>
			</g>
		</g>
		<g class="st4">
			<g>
				<defs>
					<rect id="SVGID_5_" x="280.2" y="150.1" width="24.7" height="21"/>
				</defs>
				<clipPath id="SVGID_6_">
					<use xlink:href="#SVGID_5_"  style="overflow:visible;"/>
				</clipPath>
				<path class="st7" d="M292.5,150.1c-6,0-10.9,4.9-10.9,10.9h21.8C303.4,155,298.6,150.1,292.5,150.1"/>
				<rect x="280.2" y="161" class="st7" width="24.7" height="10.2"/>
			</g>
		</g>
		<path class="st8" d="M314.9,231.3V204c0-8.8-7.1-16-16-16H183.1c-8.8,0-16,7.1-16,16v27.3h-0.2c-17.1,0-30.9,13.8-30.9,30.9v18
			c0,17.1,13.8,30.9,30.9,30.9h0.2v37.5c0,8.8,7.1,16,16,16h115.8c8.8,0,16-7.1,16-16v-37.5c16.3-0.9,29.2-14.3,29.2-30.8v-18
			C344,245.7,331.1,232.2,314.9,231.3z M191.4,194.8c6.4,0,11.7,5.2,11.7,11.7c0,6.4-5.2,11.7-11.7,11.7s-11.7-5.2-11.7-11.7
			C179.7,200,185,194.8,191.4,194.8z M291.5,356.7c-6.4,0-11.7-5.2-11.7-11.7c0-6.4,5.2-11.7,11.7-11.7s11.7,5.2,11.7,11.7
			C303.2,351.5,298,356.7,291.5,356.7z"/>
		<g class="st9">
			<g>
				<defs>
					<rect id="SVGID_7_" x="136" y="188" width="208" height="176.4"/>
				</defs>
				<clipPath id="SVGID_8_">
					<use xlink:href="#SVGID_7_"  style="overflow:visible;"/>
				</clipPath>
				<path class="st10" d="M314.9,231.3V204c0-8.8-7.1-16-16-16H183.1c-8.8,0-16,7.1-16,16v27.3h-0.2c-17.1,0-30.9,13.8-30.9,30.9v18
					c0,17.1,13.8,30.9,30.9,30.9h0.2v37.5c0,8.8,7.1,16,16,16h115.8c8.8,0,16-7.1,16-16v-37.5c16.3-0.9,29.2-14.3,29.2-30.8v-18
					C344,245.7,331.1,232.2,314.9,231.3 M191.4,194.8c6.4,0,11.7,5.2,11.7,11.7c0,6.4-5.2,11.7-11.7,11.7s-11.7-5.2-11.7-11.7
					C179.7,200,185,194.8,191.4,194.8 M291.5,356.7c-6.4,0-11.7-5.2-11.7-11.7c0-6.4,5.2-11.7,11.7-11.7s11.7,5.2,11.7,11.7
					C303.2,351.5,298,356.7,291.5,356.7"/>
			</g>
		</g>
		<path class="st3" d="M294.4,284L294.4,284c-5.5-3.8-5.5-12,0-15.8v0c7.9-5.4,3.9-17.7-5.7-17.4h0c-6.7,0.2-11.5-6.4-9.3-12.7
			c3.2-9-7.3-16.6-14.8-10.8c-5.3,4.1-13.1,1.6-15-4.9c-2.7-9.1-15.6-9.1-18.3,0c-1.9,6.4-9.7,9-15,4.9c-7.5-5.8-18,1.8-14.8,10.8
			c2.2,6.3-2.6,12.9-9.3,12.7h0c-9.5-0.3-13.5,12-5.7,17.4v0c5.5,3.8,5.5,12,0,15.8c-7.9,5.4-3.9,17.7,5.7,17.4h0
			c6.7-0.2,11.5,6.4,9.3,12.7c-3.2,9,7.3,16.6,14.8,10.8c5.3-4.1,13.1-1.6,15,4.9c2.7,9.1,15.6,9.1,18.3,0c1.9-6.4,9.7-9,15-4.9
			c7.5,5.8,18-1.8,14.8-10.8c-2.2-6.3,2.6-12.9,9.3-12.7h0C298.2,301.7,302.2,289.4,294.4,284 M214.4,299.3l-7-12.1l59.3-34.2
			l7,12.1L214.4,299.3z"/>
	</g>
</g>
</svg>
