<?xml version="1.0" encoding="utf-8"?>
<!-- Generator: Adobe Illustrator 22.0.0, SVG Export Plug-In . SVG Version: 6.00 Build 0)  -->
<svg version="1.1" id="图层_1" xmlns="http://www.w3.org/2000/svg" xmlns:xlink="http://www.w3.org/1999/xlink" x="0px" y="0px"
	 viewBox="0 0 480 400" style="enable-background:new 0 0 480 400;" xml:space="preserve">
<style type="text/css">
	.st0{fill:none;stroke:#FFFFFF;stroke-width:18.563;stroke-miterlimit:10;}
	.st1{fill:none;stroke:#FFFFFF;stroke-width:3.9903;stroke-miterlimit:10;}
	.st2{fill:none;stroke:#FFFFFF;stroke-width:3.3541;stroke-miterlimit:10;}
	.st3{opacity:0.1;}
	.st4{clip-path:url(#SVGID_2_);fill:#FFFFFF;}
	.st5{fill:none;stroke:#FFFFFF;stroke-width:11.7878;stroke-miterlimit:10;}
	.st6{fill:none;stroke:#FFFFFF;stroke-width:4.3933;stroke-miterlimit:10;}
	.st7{fill:none;stroke:#FFFFFF;stroke-width:2.6599;stroke-miterlimit:10;}
	.st8{opacity:0.8;}
	.st9{clip-path:url(#SVGID_4_);fill:none;stroke:#FFFFFF;stroke-width:2.6599;stroke-miterlimit:10;}
	.st10{clip-path:url(#SVGID_6_);fill:#FFFFFF;}
	.st11{clip-path:url(#SVGID_8_);fill:none;stroke:#FFFFFF;stroke-width:2.6599;stroke-miterlimit:10;}
	.st12{clip-path:url(#SVGID_10_);fill:#FFFFFF;}
	.st13{clip-path:url(#SVGID_12_);fill:#FFFFFF;}
	.st14{fill:#FFFFFF;}
	.st15{clip-path:url(#SVGID_14_);fill:#FFFFFF;}
	.st16{clip-path:url(#SVGID_16_);fill:#FFFFFF;}
</style>
<g>
	<path class="st0" d="M410.2,380.4H69.8c-27.7,0-50.2-22.5-50.2-50.2V76.7c0-27.7,22.5-50.2,50.2-50.2h340.5
		c27.7,0,50.2,22.5,50.2,50.2v253.5C460.4,358,437.9,380.4,410.2,380.4z"/>
	<g>
		<ellipse class="st1" cx="242.6" cy="266.4" rx="75.9" ry="75.9"/>
		<path class="st2" d="M306.3,266.4c0,35.2-28.6,63.8-63.8,63.8s-63.8-28.5-63.8-63.8s28.6-63.8,63.8-63.8S306.3,231.2,306.3,266.4z
			"/>
		<g class="st3">
			<g>
				<defs>
					<rect id="SVGID_1_" x="178.7" y="202.6" width="127.6" height="127.5"/>
				</defs>
				<clipPath id="SVGID_2_">
					<use xlink:href="#SVGID_1_"  style="overflow:visible;"/>
				</clipPath>
				<path class="st4" d="M306.3,266.4c0,35.2-28.6,63.8-63.8,63.8s-63.8-28.5-63.8-63.8s28.6-63.8,63.8-63.8
					S306.3,231.2,306.3,266.4"/>
			</g>
		</g>
		<path class="st5" d="M188.5,163.6l-0.2-16.3l-13.5,0.2c-3.9,0-7.1-2.8-7.1-6.4l-0.7-59.4c0-3.6,3.1-6.5,6.9-6.5l136.4-1.5
			c3.9,0,7.1,2.8,7.1,6.4l0.7,59.4c0,3.6-3.1,6.5-6.9,6.5l-13.5,0.2l0.2,16.3c0,3.6-3.1,6.5-6.9,6.5l-95.3,1.1
			C191.7,170.1,188.6,167.2,188.5,163.6z"/>
		<path class="st6" d="M202.4,116.3l-0.1-7.8c0-1.7-1.4-3.1-3.2-3.1l-9.1,0.1c-1.7,0-3.1,1.4-3.1,3.2l0.1,7.8c0,1.7,1.4,3.1,3.2,3.1
			l9.1-0.1C201,119.5,202.4,118,202.4,116.3z"/>
		<path class="st6" d="M234.4,115.9l-0.1-7.8c0-1.7-1.4-3.1-3.2-3.1l-9.1,0.1c-1.7,0-3.1,1.4-3.1,3.2l0.1,7.8c0,1.7,1.4,3.1,3.2,3.1
			l9.1-0.1C233,119.1,234.4,117.7,234.4,115.9z"/>
		<path class="st6" d="M266.4,115.6l-0.1-7.8c0-1.7-1.4-3.1-3.2-3.1l-9.1,0.1c-1.7,0-3.1,1.4-3.1,3.2l0.1,7.8c0,1.7,1.4,3.1,3.2,3.1
			l9.1-0.1C265,118.7,266.4,117.3,266.4,115.6z"/>
		<path class="st6" d="M298.4,115.2l-0.1-7.8c0-1.7-1.4-3.1-3.2-3.1l-9.1,0.1c-1.7,0-3.1,1.4-3.1,3.2l0.1,7.8c0,1.7,1.4,3.1,3.2,3.1
			l9.1-0.1C297,118.4,298.4,117,298.4,115.2z"/>
		<rect x="70" y="68.5" class="st7" width="53" height="31.3"/>
		<g class="st8">
			<g>
				<defs>
					<rect id="SVGID_3_" x="69.6" y="187.1" width="56.9" height="35.2"/>
				</defs>
				<clipPath id="SVGID_4_">
					<use xlink:href="#SVGID_3_"  style="overflow:visible;"/>
				</clipPath>
				<rect x="71.6" y="189.1" class="st9" width="53" height="31.3"/>
			</g>
		</g>
		<g class="st8">
			<g>
				<defs>
					<rect id="SVGID_5_" x="77.8" y="197.1" width="38.6" height="16.9"/>
				</defs>
				<clipPath id="SVGID_6_">
					<use xlink:href="#SVGID_5_"  style="overflow:visible;"/>
				</clipPath>
				<path class="st10" d="M109.4,214H84.7c-3.9,0-7-3.1-7-7v-2.9c0-3.9,3.1-7,7-7h24.6c3.9,0,7,3.1,7,7v2.9
					C116.3,210.8,113.2,214,109.4,214"/>
			</g>
		</g>
		<g class="st8">
			<g>
				<defs>
					<rect id="SVGID_7_" x="353.4" y="64.8" width="56.9" height="70.2"/>
				</defs>
				<clipPath id="SVGID_8_">
					<use xlink:href="#SVGID_7_"  style="overflow:visible;"/>
				</clipPath>
				<rect x="355.4" y="66.7" class="st11" width="53" height="31.3"/>
				<rect x="355.4" y="101.6" class="st11" width="53" height="31.3"/>
			</g>
		</g>
		<g class="st8">
			<g>
				<defs>
					<rect id="SVGID_9_" x="362.6" y="73.9" width="38.6" height="16.9"/>
				</defs>
				<clipPath id="SVGID_10_">
					<use xlink:href="#SVGID_9_"  style="overflow:visible;"/>
				</clipPath>
				<path class="st12" d="M394.2,90.8h-24.6c-3.9,0-7-3.1-7-7v-2.9c0-3.9,3.1-7,7-7h24.6c3.9,0,7,3.1,7,7v2.9
					C401.2,87.7,398.1,90.8,394.2,90.8"/>
			</g>
		</g>
		<g class="st8">
			<g>
				<defs>
					<rect id="SVGID_11_" x="365.2" y="108.9" width="38.6" height="16.9"/>
				</defs>
				<clipPath id="SVGID_12_">
					<use xlink:href="#SVGID_11_"  style="overflow:visible;"/>
				</clipPath>
				<path class="st13" d="M396.8,125.7h-24.6c-3.9,0-7-3.1-7-7v-2.9c0-3.9,3.1-7,7-7h24.6c3.9,0,7,3.1,7,7v2.9
					C403.8,122.6,400.6,125.7,396.8,125.7"/>
			</g>
		</g>
		<path class="st14" d="M112.7,160.1H82.5c-4.5,0-8.2-3.7-8.2-8.2v-7.7c0-4.5,3.7-8.2,8.2-8.2h30.2c4.5,0,8.2,3.7,8.2,8.2v7.7
			C120.9,156.5,117.3,160.1,112.7,160.1"/>
		<g class="st8">
			<g>
				<defs>
					<rect id="SVGID_13_" x="79.4" y="112.3" width="36.4" height="29.6"/>
				</defs>
				<clipPath id="SVGID_14_">
					<use xlink:href="#SVGID_13_"  style="overflow:visible;"/>
				</clipPath>
				<path class="st15" d="M108.8,141.2l0-10.3c0-0.4,0.3-0.7,0.6-0.7l0.7,0c0.4,0,0.6-0.3,0.6-0.7l-0.1-16.5c0-0.4,0.3-0.7,0.6-0.7
					l3.8,0c0.4,0,0.6,0.3,0.6,0.7l0.1,16.9c0,0.4-0.3,0.7-0.6,0.7c-0.3,0-0.6,0.3-0.6,0.7l0.1,9.9c0,0.4-0.3,0.7-0.6,0.7l-4.6,0
					C109.1,141.8,108.8,141.5,108.8,141.2"/>
				<path class="st15" d="M95,141.2l0-10.3c0-0.4,0.3-0.7,0.6-0.7l0.7,0c0.4,0,0.6-0.3,0.6-0.7L96.9,113c0-0.4,0.3-0.7,0.6-0.7
					l3.8,0c0.4,0,0.6,0.3,0.6,0.7l0.1,16.9c0,0.4-0.3,0.7-0.6,0.7c-0.3,0-0.6,0.3-0.6,0.7l0.1,9.9c0,0.4-0.3,0.7-0.6,0.7l-4.6,0
					C95.3,141.8,95,141.5,95,141.2"/>
				<path class="st15" d="M79.5,141.2l0-10.3c0-0.4,0.3-0.7,0.6-0.7l0.7,0c0.4,0,0.6-0.3,0.6-0.7L81.3,113c0-0.4,0.3-0.7,0.6-0.7
					l3.8,0c0.4,0,0.6,0.3,0.6,0.7l0.1,16.9c0,0.4-0.3,0.7-0.6,0.7c-0.3,0-0.6,0.3-0.6,0.7l0.1,9.9c0,0.4-0.3,0.7-0.6,0.7l-4.6,0
					C79.8,141.9,79.5,141.5,79.5,141.2"/>
			</g>
		</g>
		<g class="st8">
			<g>
				<defs>
					<rect id="SVGID_15_" x="79.4" y="154.3" width="36.5" height="29.8"/>
				</defs>
				<clipPath id="SVGID_16_">
					<use xlink:href="#SVGID_15_"  style="overflow:visible;"/>
				</clipPath>
				<path class="st16" d="M86.6,155l0,10.3c0,0.4-0.3,0.7-0.6,0.7l-0.7,0c-0.4,0-0.6,0.3-0.6,0.7l0,16.5c0,0.4-0.3,0.7-0.6,0.7
					l-3.8,0c-0.4,0-0.6-0.3-0.6-0.7l0-16.9c0-0.4,0.3-0.7,0.6-0.7c0.3,0,0.6-0.3,0.6-0.7l0-9.9c0-0.4,0.3-0.7,0.6-0.7l4.6,0
					C86.3,154.3,86.6,154.6,86.6,155"/>
				<path class="st16" d="M100.4,155.1l0,10.3c0,0.4-0.3,0.7-0.6,0.7l-0.7,0c-0.4,0-0.6,0.3-0.6,0.7l0,16.5c0,0.4-0.3,0.7-0.6,0.7
					l-3.8,0c-0.4,0-0.6-0.3-0.6-0.7l0-16.9c0-0.4,0.3-0.7,0.6-0.7c0.3,0,0.6-0.3,0.6-0.7l0-9.9c0-0.4,0.3-0.7,0.6-0.7l4.6,0
					C100.1,154.4,100.4,154.7,100.4,155.1"/>
				<path class="st16" d="M115.9,155.2l0,10.3c0,0.4-0.3,0.7-0.6,0.7l-0.7,0c-0.4,0-0.6,0.3-0.6,0.7l0,16.5c0,0.4-0.3,0.7-0.6,0.7
					l-3.8,0c-0.4,0-0.6-0.3-0.6-0.7l0-16.9c0-0.4,0.3-0.7,0.6-0.7s0.6-0.3,0.6-0.7l0-9.9c0-0.4,0.3-0.7,0.6-0.7l4.6,0
					C115.6,154.5,115.9,154.9,115.9,155.2"/>
			</g>
		</g>
	</g>
</g>
</svg>
