<?xml version="1.0" encoding="utf-8"?>
<!-- Generator: Adobe Illustrator 22.0.0, SVG Export Plug-In . SVG Version: 6.00 Build 0)  -->
<svg version="1.1" id="图层_1" xmlns="http://www.w3.org/2000/svg" xmlns:xlink="http://www.w3.org/1999/xlink" x="0px" y="0px"
	 viewBox="0 0 480 400" style="enable-background:new 0 0 480 400;" xml:space="preserve">
<style type="text/css">
	.st0{fill:none;stroke:#FFFFFF;stroke-width:12.6169;stroke-miterlimit:10;}
	.st1{fill:none;stroke:#FFFFFF;stroke-width:4.7024;stroke-miterlimit:10;}
	.st2{fill:none;stroke:#FFFFFF;stroke-width:6.3845;stroke-miterlimit:10;}
	.st3{fill:#FFFFFF;}
	.st4{fill:none;stroke:#FFFFFF;stroke-width:8.1214;stroke-miterlimit:10;}
	.st5{fill:none;stroke:#FFFFFF;stroke-width:5.801;stroke-miterlimit:10;}
	.st6{fill:none;stroke:#FFFFFF;stroke-width:3.4357;stroke-linecap:round;stroke-linejoin:round;stroke-miterlimit:10;}
	.st7{fill:none;stroke:#FFFFFF;stroke-width:3.7303;stroke-linecap:round;stroke-linejoin:round;stroke-miterlimit:10;}
	.st8{fill:none;stroke:#FFFFFF;stroke-width:3.4422;stroke-linecap:round;stroke-linejoin:round;stroke-miterlimit:10;}
	.st9{fill:none;stroke:#FFFFFF;stroke-width:18.563;stroke-miterlimit:10;}
</style>
<g>
	<g>
		<g>
			<path class="st0" d="M330,155.5l0.2-20.1l16.7,0.1c4.8,0,8.7-3.5,8.7-7.9l0.6-73.2c0-4.4-3.8-8-8.6-8l-168-1.4
				c-4.8,0-8.7,3.5-8.7,7.9l-0.6,73.2c0,4.4,3.8,8,8.6,8l16.7,0.1l-0.2,20.1c0,4.4,3.8,8,8.6,8l117.4,1
				C326,163.4,329.9,159.9,330,155.5z"/>
			<path class="st1" d="M312.8,97.2l0.1-9.6c0-2.2,1.8-3.9,3.9-3.9l11.1,0.1c2.2,0,3.9,1.8,3.9,3.9l-0.1,9.6c0,2.2-1.8,3.9-3.9,3.9
				l-11.1-0.1C314.5,101.1,312.8,99.4,312.8,97.2z"/>
			<path class="st1" d="M273.4,96.9l0.1-9.6c0-2.2,1.8-3.9,3.9-3.9l11.1,0.1c2.2,0,3.9,1.8,3.9,3.9l-0.1,9.6c0,2.2-1.8,3.9-3.9,3.9
				l-11.1-0.1C275.1,100.8,273.3,99,273.4,96.9z"/>
			<path class="st1" d="M234,96.5L234,87c0-2.2,1.8-3.9,3.9-3.9l11.1,0.1c2.2,0,3.9,1.8,3.9,3.9l-0.1,9.6c0,2.2-1.8,3.9-3.9,3.9
				l-11.1-0.1C235.7,100.5,233.9,98.7,234,96.5z"/>
			<path class="st1" d="M194.6,96.2l0.1-9.6c0-2.2,1.8-3.9,3.9-3.9l11.1,0.1c2.2,0,3.9,1.8,3.9,3.9l-0.1,9.6c0,2.2-1.8,3.9-3.9,3.9
				l-11.1-0.1C196.3,100.1,194.5,98.4,194.6,96.2z"/>
		</g>
		<path class="st2" d="M155.1,263.6h-68c-3.6,0-6.5-2.9-6.5-6.5v-68c0-3.6,2.9-6.5,6.5-6.5h68c3.6,0,6.5,2.9,6.5,6.5v68
			C161.6,260.7,158.7,263.6,155.1,263.6z"/>
		<circle class="st3" cx="121.1" cy="223.1" r="24.3"/>
		<g>
			<g>
				<circle class="st4" cx="308.1" cy="327.2" r="27.7"/>
				<circle class="st3" cx="309" cy="328.1" r="14.6"/>
			</g>
			<g>
				<line class="st5" x1="303.8" y1="227" x2="303.8" y2="331.8"/>
				<path class="st3" d="M316.6,227l-25.6-0.3c-2.2,0-3.6-2.5-2.5-4.4l13-22c1.1-1.9,3.9-1.9,5,0.1l12.6,22.3
					C320.3,224.6,318.8,227,316.6,227z"/>
			</g>
			<g>
				<line class="st5" x1="303.8" y1="331.8" x2="203.6" y2="331.8"/>
				<path class="st3" d="M205.8,347.1l-22.2-12.8c-1.9-1.1-1.9-3.9,0-5l22.2-12.8c1.9-1.1,4.4,0.3,4.4,2.5v25.6
					C210.2,346.8,207.8,348.2,205.8,347.1z"/>
			</g>
			<g>
				<line class="st6" x1="231.4" y1="210.7" x2="257.4" y2="233.9"/>
				<line class="st6" x1="231.6" y1="235.3" x2="257.2" y2="209.3"/>
			</g>
			<g>
				<line class="st7" x1="370.2" y1="310.1" x2="398" y2="309.2"/>
				<line class="st7" x1="398" y1="309.2" x2="371.5" y2="336.5"/>
				<line class="st7" x1="399.4" y1="337" x2="371.6" y2="337.9"/>
			</g>
			<g>
				<line class="st8" x1="161.3" y1="344" x2="162.1" y2="326.1"/>
				<g>
					<line class="st8" x1="145.2" y1="316.6" x2="162.1" y2="326.1"/>
					<line class="st8" x1="177.5" y1="314.9" x2="162.1" y2="326.1"/>
				</g>
			</g>
		</g>
	</g>
	<path class="st9" d="M410.2,376.9H69.8c-27.7,0-50.2-22.5-50.2-50.2V73.3c0-27.7,22.5-50.2,50.2-50.2h340.5
		c27.7,0,50.2,22.5,50.2,50.2v253.5C460.4,354.5,437.9,376.9,410.2,376.9z"/>
</g>
</svg>
