<?xml version="1.0" encoding="utf-8"?>
<!-- Generator: Adobe Illustrator 22.0.0, SVG Export Plug-In . SVG Version: 6.00 Build 0)  -->
<svg version="1.1" id="图层_1" xmlns="http://www.w3.org/2000/svg" xmlns:xlink="http://www.w3.org/1999/xlink" x="0px" y="0px"
	 viewBox="0 0 740 400" style="enable-background:new 0 0 740 400;" xml:space="preserve">
<style type="text/css">
	.st0{fill:none;stroke:#FFFFFF;stroke-width:12;stroke-miterlimit:10;}
	.st1{fill:#FFFFFF;}
	.st2{fill:none;stroke:#FFFFFF;stroke-width:16.788;stroke-miterlimit:10;}
	.st3{fill:none;stroke:#FFFFFF;stroke-width:8.394;stroke-miterlimit:10;}
	.st4{fill:none;stroke:#FFFFFF;stroke-width:18.563;stroke-miterlimit:10;}
	.st5{opacity:0.8;}
	.st6{opacity:0.4;fill:#FFFFFF;}
	.st7{opacity:0.8;fill:#FFFFFF;}
	.st8{fill:none;stroke:#FFFFFF;stroke-width:3.3882;stroke-miterlimit:10;}
	.st9{fill:none;stroke:#FFFFFF;stroke-width:5.0822;stroke-linecap:round;stroke-linejoin:round;stroke-miterlimit:10;}
</style>
<g>
	<path class="st0" d="M-1926.9-4685h-15.6c-4.1,0-7.4-3.3-7.4-7.4v-58.1c0-4.1,3.3-7.4,7.4-7.4h15.6c4.1,0,7.4,3.3,7.4,7.4v58.1
		C-1919.5-4688.3-1922.8-4685-1926.9-4685z"/>
	<path class="st1" d="M-2110.1-4814.7h-256.6c-3.4,0-6.1-2.7-6.1-6.1c0-3.4,2.7-6.1,6.1-6.1h256.6c3.4,0,6.1,2.7,6.1,6.1
		C-2104.1-4817.5-2106.8-4814.7-2110.1-4814.7"/>
	<path class="st1" d="M-2087.4-4820.8c0,4.6-3.7,8.3-8.3,8.3c-4.6,0-8.3-3.7-8.3-8.3s3.7-8.3,8.3-8.3
		C-2091.1-4829.2-2087.4-4825.4-2087.4-4820.8"/>
	<path class="st1" d="M-2110.1-4792h-256.6c-3.4,0-6.1-2.7-6.1-6.1s2.7-6.1,6.1-6.1h256.6c3.4,0,6.1,2.7,6.1,6.1
		S-2106.8-4792-2110.1-4792"/>
	<path class="st1" d="M-2087.4-4798c0,4.6-3.7,8.3-8.3,8.3c-4.6,0-8.3-3.7-8.3-8.3s3.7-8.3,8.3-8.3
		C-2091.1-4806.4-2087.4-4802.7-2087.4-4798"/>
	<path class="st1" d="M-2110.1-4769.2h-256.6c-3.4,0-6.1-2.7-6.1-6.1s2.7-6.1,6.1-6.1h256.6c3.4,0,6.1,2.7,6.1,6.1
		S-2106.8-4769.2-2110.1-4769.2"/>
	<path class="st1" d="M-2087.4-4775.3c0,4.6-3.7,8.3-8.3,8.3c-4.6,0-8.3-3.7-8.3-8.3c0-4.6,3.7-8.4,8.3-8.4
		C-2091.1-4783.6-2087.4-4779.9-2087.4-4775.3"/>
	<path class="st1" d="M-2110.1-4746.4h-256.6c-3.4,0-6.1-2.7-6.1-6.1s2.7-6.1,6.1-6.1h256.6c3.4,0,6.1,2.7,6.1,6.1
		S-2106.8-4746.4-2110.1-4746.4"/>
	<path class="st1" d="M-2087.4-4752.5c0,4.6-3.7,8.4-8.3,8.4c-4.6,0-8.3-3.7-8.3-8.4c0-4.6,3.7-8.3,8.3-8.3
		C-2091.1-4760.9-2087.4-4757.1-2087.4-4752.5"/>
	<path class="st1" d="M-2110.1-4723.7h-256.6c-3.4,0-6.1-2.7-6.1-6.1s2.7-6.1,6.1-6.1h256.6c3.4,0,6.1,2.7,6.1,6.1
		S-2106.8-4723.7-2110.1-4723.7"/>
	<path class="st1" d="M-2087.4-4729.7c0,4.6-3.7,8.3-8.3,8.3c-4.6,0-8.3-3.7-8.3-8.3c0-4.6,3.7-8.3,8.3-8.3
		C-2091.1-4738.1-2087.4-4734.3-2087.4-4729.7"/>
	<path class="st1" d="M-2110.1-4700.9h-256.6c-3.4,0-6.1-2.7-6.1-6.1c0-3.4,2.7-6.1,6.1-6.1h256.6c3.4,0,6.1,2.7,6.1,6.1
		C-2104.1-4703.6-2106.8-4700.9-2110.1-4700.9"/>
	<path class="st1" d="M-2087.4-4707c0,4.6-3.7,8.3-8.3,8.3c-4.6,0-8.3-3.7-8.3-8.3s3.7-8.3,8.3-8.3
		C-2091.1-4715.3-2087.4-4711.6-2087.4-4707"/>
	<path class="st1" d="M-2110.1-4678.1h-256.6c-3.4,0-6.1-2.7-6.1-6.1c0-3.4,2.7-6.1,6.1-6.1h256.6c3.4,0,6.1,2.7,6.1,6.1
		C-2104.1-4680.8-2106.8-4678.1-2110.1-4678.1"/>
	<path class="st1" d="M-2087.4-4684.2c0,4.6-3.7,8.3-8.3,8.3c-4.6,0-8.3-3.7-8.3-8.3c0-4.6,3.7-8.3,8.3-8.3
		C-2091.1-4692.5-2087.4-4688.8-2087.4-4684.2"/>
	<path class="st1" d="M-2110.1-4655.4h-256.6c-3.4,0-6.1-2.7-6.1-6.1s2.7-6.1,6.1-6.1h256.6c3.4,0,6.1,2.7,6.1,6.1
		S-2106.8-4655.4-2110.1-4655.4"/>
	<path class="st1" d="M-2087.4-4661.4c0,4.6-3.7,8.3-8.3,8.3c-4.6,0-8.3-3.7-8.3-8.3c0-4.6,3.7-8.3,8.3-8.3
		C-2091.1-4669.8-2087.4-4666-2087.4-4661.4"/>
	<path class="st1" d="M-2110.1-4632.6h-256.6c-3.4,0-6.1-2.7-6.1-6.1s2.7-6.1,6.1-6.1h256.6c3.4,0,6.1,2.7,6.1,6.1
		S-2106.8-4632.6-2110.1-4632.6"/>
	<path class="st1" d="M-2087.4-4638.7c0,4.6-3.7,8.3-8.3,8.3c-4.6,0-8.3-3.7-8.3-8.3c0-4.6,3.7-8.3,8.3-8.3
		C-2091.1-4647-2087.4-4643.3-2087.4-4638.7"/>
	<path class="st2" d="M-1855.3-4797.2h24.5v-18.8c0-5.4,4.4-9.7,9.7-9.7h89.6c5.4,0,9.7,4.4,9.7,9.7v189.1c0,5.4-4.4,9.7-9.7,9.7
		h-89.6c-5.4,0-9.7-4.4-9.7-9.7v-18.8h-24.5c-5.4,0-9.7-4.4-9.7-9.7v-132.1C-1865.1-4792.8-1860.7-4797.2-1855.3-4797.2z"/>
	<path class="st3" d="M-1785.4-4777.2h14.2c2,0,3.6-1.6,3.6-3.6v-14.2c0-2-1.6-3.6-3.6-3.6h-14.2c-2,0-3.6,1.6-3.6,3.6v14.2
		C-1789-4778.8-1787.4-4777.2-1785.4-4777.2z"/>
	<path class="st3" d="M-1785.4-4732.9h14.2c2,0,3.6-1.6,3.6-3.6v-14.2c0-2-1.6-3.6-3.6-3.6h-14.2c-2,0-3.6,1.6-3.6,3.6v14.2
		C-1789-4734.5-1787.4-4732.9-1785.4-4732.9z"/>
	<path class="st3" d="M-1785.4-4688.6h14.2c2,0,3.6-1.6,3.6-3.6v-14.2c0-2-1.6-3.6-3.6-3.6h-14.2c-2,0-3.6,1.6-3.6,3.6v14.2
		C-1789-4690.2-1787.4-4688.6-1785.4-4688.6z"/>
	<path class="st3" d="M-1785.4-4644.2h14.2c2,0,3.6-1.6,3.6-3.6v-14.2c0-2-1.6-3.6-3.6-3.6h-14.2c-2,0-3.6,1.6-3.6,3.6v14.2
		C-1789-4645.8-1787.4-4644.2-1785.4-4644.2z"/>
	<path class="st4" d="M-1731.8-4562.1h-625.5c-22.6,0-40.9-18.3-40.9-40.9v-261.7c0-22.6,18.3-40.9,40.9-40.9h625.5
		c22.6,0,40.9,18.3,40.9,40.9v261.7C-1690.9-4580.4-1709.2-4562.1-1731.8-4562.1z"/>
</g>
<g>
	<g>
		<path class="st1" d="M681.7,297.2H497.9c-4,0-7.3-3.3-7.3-7.3v0c0-4,3.3-7.3,7.3-7.3h183.8c4,0,7.3,3.3,7.3,7.3v0
			C689,293.9,685.7,297.2,681.7,297.2z"/>
		<g class="st5">
			<ellipse class="st1" cx="421.2" cy="281.9" rx="8.1" ry="7.9"/>
			<ellipse class="st1" cx="421.2" cy="329.2" rx="8.1" ry="7.9"/>
			<rect x="416.9" y="281.9" class="st1" width="8.6" height="45.4"/>
		</g>
		<path class="st6" d="M684.2,59.4H103.7c-9.5,0-17.3,7.5-17.3,16.8V240c0,9.3,7.7,16.8,17.3,16.8h580.5c9.5,0,17.3-7.5,17.3-16.8
			V76.3C701.4,67,693.7,59.4,684.2,59.4z M675.6,247.5H105.7c-2.3,0-4.2-1.8-4.2-4.1c0-2.3,1.9-4.1,4.2-4.1h569.9
			c2.3,0,4.2,1.8,4.2,4.1C679.8,245.7,677.9,247.5,675.6,247.5z M682,77.8H112.1c-2.3,0-4.2-1.8-4.2-4.1c0-2.3,1.9-4.1,4.2-4.1H682
			c2.3,0,4.2,1.8,4.2,4.1C686.2,76,684.3,77.8,682,77.8z"/>
		<path class="st7" d="M648.4,218.2h-509c-13.6,0-24.6-11-24.6-24.6v-70.9c0-13.6,11-24.6,24.6-24.6h509c13.6,0,24.6,11,24.6,24.6
			v70.9C673.1,207.2,662,218.2,648.4,218.2z"/>
		<g>
			<rect x="168.8" y="279.3" class="st6" width="84.5" height="58.1"/>
			<g>
				<path class="st1" d="M167.3,340.4L167.3,340.4c-1.6,0-2.9-1.3-2.9-2.9v-60c0-1.6,1.3-2.9,2.9-2.9h0c1.6,0,2.9,1.3,2.9,2.9v60
					C170.2,339.2,168.9,340.4,167.3,340.4z"/>
				<g>
					<path class="st1" d="M267.2,280.9h-84.5v-3.4c0-1.6,1.3-2.9,2.9-2.9h81.5c1.7,0,3.2,1.4,3.2,3.2l0,0
						C270.4,279.5,269,280.9,267.2,280.9z"/>
					<path class="st1" d="M267.2,340.6h-84.5v-6.3h84.5c1.7,0,3.2,1.4,3.2,3.2l0,0C270.4,339.2,269,340.6,267.2,340.6z"/>
					<path class="st1" d="M254.1,340.6h-67.5c-2.1,0-3.8-1.7-3.8-3.8v-59.2h71.3V340.6z"/>
				</g>
			</g>
			<g class="st5">
				<path class="st1" d="M237.1,284.7h10.3c0.4,0,0.7,0.2,0.7,0.4v0.5c0,0.2,0.3,0.4,0.7,0.4h16.5c0.4,0,0.7,0.2,0.7,0.4v2.6
					c0,0.2-0.3,0.4-0.7,0.4h-16.9c-0.4,0-0.7-0.2-0.7-0.4l0,0c0-0.2-0.3-0.4-0.7-0.4l-9.9,0c-0.4,0-0.7-0.2-0.7-0.4v-3.2
					C236.4,284.9,236.8,284.7,237.1,284.7z"/>
				<path class="st1" d="M237.1,296.9h10.3c0.4,0,0.7,0.2,0.7,0.4v0.5c0,0.2,0.3,0.4,0.7,0.4h16.5c0.4,0,0.7,0.2,0.7,0.4v2.6
					c0,0.2-0.3,0.4-0.7,0.4h-16.9c-0.4,0-0.7-0.2-0.7-0.4l0,0c0-0.2-0.3-0.4-0.7-0.4l-9.9,0c-0.4,0-0.7-0.2-0.7-0.4v-3.2
					C236.4,297.1,236.8,296.9,237.1,296.9z"/>
				<path class="st1" d="M237.1,309.1h10.3c0.4,0,0.7,0.2,0.7,0.4v0.5c0,0.2,0.3,0.4,0.7,0.4h16.5c0.4,0,0.7,0.2,0.7,0.4v2.6
					c0,0.2-0.3,0.4-0.7,0.4h-16.9c-0.4,0-0.7-0.2-0.7-0.4l0,0c0-0.2-0.3-0.4-0.7-0.4l-9.9,0c-0.4,0-0.7-0.2-0.7-0.4v-3.2
					C236.4,309.3,236.8,309.1,237.1,309.1z"/>
				<path class="st1" d="M237.1,321.2h10.3c0.4,0,0.7,0.2,0.7,0.4v0.5c0,0.2,0.3,0.4,0.7,0.4h16.5c0.4,0,0.7,0.2,0.7,0.4v2.6
					c0,0.2-0.3,0.4-0.7,0.4h-16.9c-0.4,0-0.7-0.2-0.7-0.4l0,0c0-0.2-0.3-0.4-0.7-0.4l-9.9,0c-0.4,0-0.7-0.2-0.7-0.4v-3.2
					C236.4,321.4,236.8,321.2,237.1,321.2z"/>
			</g>
			<line class="st8" x1="264.3" y1="280.9" x2="264.3" y2="334.3"/>
			<g>
				<path class="st9" d="M168.1,286.7c0,0-12.4-3.2-53.4,10.2c0,0-57.2,11.8-76.1,7.4"/>
				<path class="st9" d="M165.4,299.3c0,0-15.6-6-84.3,8.3l-42.6,3.9"/>
				<path class="st9" d="M165.4,313.9c-1.6,0.8-66.3-3.6-126.9,2.4"/>
				<path class="st9" d="M168.1,325.9c0,0-99.2-0.3-129.5-4.7"/>
			</g>
		</g>
	</g>
	<path class="st4" d="M682.7,371.7H57.3c-22.6,0-40.9-18.3-40.9-40.9V69.1c0-22.6,18.3-40.9,40.9-40.9h625.5
		c22.6,0,40.9,18.3,40.9,40.9v261.7C723.6,353.4,705.3,371.7,682.7,371.7z"/>
</g>
</svg>
