<?xml version="1.0" encoding="utf-8"?>
<!-- Generator: Adobe Illustrator 22.0.0, SVG Export Plug-In . SVG Version: 6.00 Build 0)  -->
<svg version="1.1" id="图层_1" xmlns="http://www.w3.org/2000/svg" xmlns:xlink="http://www.w3.org/1999/xlink" x="0px" y="0px"
	 viewBox="0 0 480 400" style="enable-background:new 0 0 480 400;" xml:space="preserve">
<style type="text/css">
	.st0{opacity:0.3;fill:#FFFFFF;}
	.st1{clip-path:url(#SVGID_2_);}
	.st2{opacity:0.5;fill:#FFFFFF;}
	.st3{opacity:0.8;fill:#FFFFFF;}
	.st4{fill:#FFFFFF;}
	.st5{opacity:0.4;fill:#FFFFFF;}
	.st6{fill:none;stroke:#FFFFFF;stroke-width:18.563;stroke-miterlimit:10;}
</style>
<g>
	<g>
		<path class="st0" d="M249.6,342l-65.9-0.5c-22.2-0.2-40-18.3-39.8-40.5l0.7-79.4c0.2-22.2,18.3-40,40.5-39.8l116.7,1
			c22.2,0.2,40,18.3,39.8,40.5l-0.2,28.6C341,302,299.9,342.4,249.6,342z"/>
		<g>
			<defs>
				<path id="SVGID_1_" d="M249.6,342l-65.9-0.5c-22.2-0.2-40-18.3-39.8-40.5l0.7-79.4c0.2-22.2,18.3-40,40.5-39.8l116.7,1
					c22.2,0.2,40,18.3,39.8,40.5l-0.2,28.6C341,302,299.9,342.4,249.6,342z"/>
			</defs>
			<clipPath id="SVGID_2_">
				<use xlink:href="#SVGID_1_"  style="overflow:visible;"/>
			</clipPath>
			<g class="st1">
				<path class="st2" d="M320.3,297.5L144,296.1l0.6-74.9l199.7,1.7l-0.4,45.8c0,5.3-1,10.6-3.1,15.5
					C336.7,294.1,330.4,297.6,320.3,297.5z"/>
				
					<rect x="144.6" y="222" transform="matrix(1 8.344216e-03 -8.344216e-03 1 1.9 -2.0304)" class="st3" width="199.4" height="9.4"/>
				<path class="st3" d="M328.3,297H144.8v-9.4l191.8-0.4l0,0C336.7,292.4,333.5,297,328.3,297z"/>
			</g>
		</g>
		<path class="st4" d="M337.7,211.6L141.9,210c-11.7-0.1-21.1-9.7-21-21.4v0c0.1-11.7,9.7-21.1,21.4-21l195.9,1.6
			c11.7,0.1,21.1,9.7,21,21.4v0C359,202.3,349.5,211.7,337.7,211.6z"/>
		<g>
			<path class="st5" d="M241.6,165.4L241.6,165.4c-7.6,1-14.6-4.4-15.6-12.1l-3-24c-1-7.6,4.4-14.6,12.1-15.6h0
				c7.6-1,14.6,4.4,15.6,12.1l3,24C254.7,157.5,249.3,164.4,241.6,165.4z"/>
			<g>
				<path class="st4" d="M189.7,164l107.6-49.6c7.9-3.6,11.4-13,7.7-20.9l0,0c-3.6-7.9-13-11.4-20.9-7.7l-107.6,49.6
					c-7.9,3.6-11.4,13-7.7,20.9l0,0C172.4,164.2,181.8,167.7,189.7,164z M289.1,94.9c2.7-1.3,5.9-0.1,7.2,2.7s0.1,5.9-2.7,7.2
					s-5.9,0.1-7.2-2.7S286.4,96.2,289.1,94.9z M271.6,102.9c2.7-1.3,5.9-0.1,7.2,2.7s0.1,5.9-2.7,7.2c-2.7,1.3-5.9,0.1-7.2-2.7
					C267.7,107.4,268.9,104.2,271.6,102.9z M230.8,111.7c6.8-3.1,14.9-0.2,18.1,6.7s0.2,14.9-6.7,18.1s-14.9,0.2-18.1-6.7
					C220.9,122.9,223.9,114.8,230.8,111.7z M199.8,136.2c2.7-1.3,5.9-0.1,7.2,2.7c1.3,2.7,0.1,5.9-2.7,7.2c-2.7,1.3-5.9,0.1-7.2-2.7
					C195.9,140.7,197.1,137.5,199.8,136.2z M182.2,144c2.7-1.3,5.9-0.1,7.2,2.7c1.3,2.7,0.1,5.9-2.7,7.2c-2.7,1.3-5.9,0.1-7.2-2.7
					C178.3,148.4,179.5,145.2,182.2,144z"/>
				<path class="st4" d="M198,77.5l49,107.9c3.6,7.9,13,11.4,20.9,7.8l0,0c7.9-3.6,11.4-13,7.8-20.9l-49-107.9
					c-3.6-7.9-13-11.4-20.9-7.8l0,0C197.9,60.2,194.4,69.6,198,77.5z M266.6,177.3c1.2,2.7,0,5.9-2.7,7.2c-2.7,1.2-5.9,0-7.2-2.7
					c-1.2-2.7,0-5.9,2.7-7.2C262.2,173.3,265.4,174.5,266.6,177.3z M258.7,159.8c1.2,2.7,0,5.9-2.7,7.2c-2.7,1.2-5.9,0-7.2-2.7
					c-1.2-2.7,0-5.9,2.7-7.2C254.2,155.8,257.4,157.1,258.7,159.8z M250.1,118.9c3.1,6.8,0.1,14.9-6.8,18c-6.8,3.1-14.9,0.1-18-6.8
					c-3.1-6.8-0.1-14.9,6.8-18S247,112,250.1,118.9z M225.8,87.8c1.2,2.7,0,5.9-2.7,7.2c-2.7,1.2-5.9,0-7.2-2.7s0-5.9,2.7-7.2
					C221.3,83.8,224.5,85,225.8,87.8z M218.1,70.1c1.2,2.7,0,5.9-2.7,7.2c-2.7,1.2-5.9,0-7.2-2.7c-1.2-2.7,0-5.9,2.7-7.2
					C213.6,66.2,216.9,67.4,218.1,70.1z"/>
			</g>
		</g>
	</g>
	<path class="st6" d="M410.2,375.5H69.8c-27.7,0-50.2-22.5-50.2-50.2V71.9c0-27.7,22.5-50.2,50.2-50.2h340.5
		c27.7,0,50.2,22.5,50.2,50.2v253.5C460.4,353.1,437.9,375.5,410.2,375.5z"/>
</g>
</svg>
