<?xml version="1.0" encoding="utf-8"?>
<!-- Generator: Adobe Illustrator 22.0.0, SVG Export Plug-In . SVG Version: 6.00 Build 0)  -->
<svg version="1.1" id="图层_1" xmlns="http://www.w3.org/2000/svg" xmlns:xlink="http://www.w3.org/1999/xlink" x="0px" y="0px"
	 viewBox="0 0 740 400" style="enable-background:new 0 0 740 400;" xml:space="preserve">
<style type="text/css">
	.st0{fill:none;stroke:#FFFFFF;stroke-width:18.563;stroke-miterlimit:10;}
	.st1{fill:#FFFFFF;}
	.st2{fill:none;stroke:#FFFFFF;stroke-width:0.6977;stroke-linecap:round;stroke-linejoin:round;stroke-miterlimit:10;}
	.st3{fill:none;stroke:#FFFFFF;stroke-width:0.4325;stroke-linecap:round;stroke-linejoin:round;stroke-miterlimit:10;}
	.st4{opacity:0.2;fill:#FFFFFF;stroke:#FFFFFF;stroke-width:1.0181;stroke-miterlimit:10;}
	.st5{fill:none;stroke:#FFFFFF;stroke-width:1.0181;stroke-miterlimit:10;}
	.st6{fill:none;stroke:#FFFFFF;stroke-width:6.1085;stroke-miterlimit:10;}
	.st7{fill:none;stroke:#FFFFFF;stroke-width:16.1239;stroke-miterlimit:10;}
	.st8{fill:none;stroke:#FFFFFF;stroke-width:2.0362;stroke-miterlimit:10;}
	.st9{opacity:0.4;fill:#FFFFFF;}
	.st10{fill:none;stroke:#FFFFFF;stroke-width:3.0543;stroke-miterlimit:10;}
	.st11{opacity:0.4;clip-path:url(#SVGID_2_);fill:#FFFFFF;}
	.st12{clip-path:url(#SVGID_2_);}
	.st13{opacity:0.4;clip-path:url(#SVGID_4_);fill:#FFFFFF;}
	.st14{clip-path:url(#SVGID_4_);}
	.st15{fill:none;stroke:#FFFFFF;stroke-width:0.5867;stroke-miterlimit:10;}
	.st16{opacity:0.8;}
	.st17{fill:none;stroke:#FFFFFF;stroke-width:0.3782;stroke-miterlimit:10;}
</style>
<g>
	<path class="st0" d="M682.2,371.8H56.7c-22.6,0-40.9-18.3-40.9-40.9V69.2c0-22.6,18.3-40.9,40.9-40.9h625.5
		c22.6,0,40.9,18.3,40.9,40.9V331C723.1,353.5,704.8,371.8,682.2,371.8z"/>
	<g>
		<g>
			<g>
				<path class="st1" d="M623.6,181.9l0,3.6l0,0.4l0,6l0,0.2l0,3.7c0,0.4,0.4,0.7,0.8,0.7c0.4,0,0.8-0.3,0.8-0.7l0-1.7
					c0.2,0.1,0.4,0.1,0.7,0.1l2.2,0c1.3,0,2.3-1,2.3-2.1l0-6.6c0-1.2-1-2.1-2.3-2.1l-2.2,0c-0.2,0-0.5,0-0.7,0.1l0-1.6
					c0-0.4-0.4-0.7-0.8-0.7C624,181.2,623.6,181.5,623.6,181.9z"/>
				<g>
					<g>
						<polygon class="st1" points="638,185.4 638,192.4 632.1,191.8 632,186 						"/>
						<polyline class="st2" points="650.1,193.6 632.1,191.8 632,186 650.1,184.3 						"/>
					</g>
					<g>
						<polygon class="st1" points="645,198.1 644.9,195.1 650.1,195.2 650.2,197.7 						"/>
						<polyline class="st3" points="634.3,194.8 650.1,195.2 650.2,197.7 634.4,198.8 						"/>
					</g>
					<g>
						<polygon class="st1" points="644.9,179.7 644.8,182.8 650,182.6 650.1,180 						"/>
						<polyline class="st3" points="634.2,183.2 650,182.6 650.1,180 634.3,179.1 						"/>
					</g>
				</g>
			</g>
			<path class="st4" d="M653,178.3l0.1,21.2c0,2.4-1.9,4.4-4.3,4.4l-21.4,0.1c-2.4,0-4.4-1.9-4.4-4.3l-0.1-21.2
				c0-2.4,1.9-4.4,4.3-4.4l21.4-0.1C651,173.9,653,175.9,653,178.3z"/>
			<path class="st5" d="M653,178.3l0.1,21.2c0,2.4-1.9,4.4-4.3,4.4l-21.4,0.1c-2.4,0-4.4-1.9-4.4-4.3l-0.1-21.2
				c0-2.4,1.9-4.4,4.3-4.4l21.4-0.1C651,173.9,653,175.9,653,178.3z"/>
		</g>
		<path class="st6" d="M426.9,350.8l110.7-0.6c7,0,13.1-4.6,14.8-11.1c6.4-24.4,27.2-84.5,85-128.6c2.9-2.2,4.6-5.6,4.6-9.1
			l-0.2-23.8c0-3.8-2-7.3-5.3-9.5c-17.4-11.4-73.6-51.7-90.8-108.7c-1.9-6.4-8-10.8-14.9-10.8l-106,0.6L426.9,350.8z"/>
		<path class="st7" d="M78.9,202.4L78.9,202.4c0.6,84.5,102.1,152.4,193.2,151.9l3.6,0l1,0l198-1.1c12.5-0.1,22.5-9.5,22.5-21.1
			l-1.7-264c-0.1-11.6-10.3-20.9-22.7-20.8l-198,1.1l-1,0l-3.6,0C178.9,48.9,78.3,117.9,78.9,202.4z"/>
		<path class="st1" d="M502.6,70.7l1.7,258.8c0.1,12.8-10.3,23.3-23.1,23.4l-10.9,0.1c-12.8,0.1-23.3-10.3-23.4-23.1L445.2,71
			c-0.1-12.8,10.3-23.3,23.1-23.4l10.9-0.1C492.1,47.5,502.5,57.8,502.6,70.7z"/>
		<path class="st8" d="M380.6,98.7l1.4,205.1c0,2.7-2.2,4.9-4.9,5l-156.6,0.9c-2.7,0-4.9-2.2-5-4.9l-1.4-205.1c0-2.7,2.2-4.9,4.9-5
			l156.6-0.9C378.3,93.8,380.6,96,380.6,98.7z"/>
		<g>
			<g>
				<g>
					<path class="st9" d="M215.5,310.6l0.1,12.2l0.1,9.5c0,0.5,0.4,0.9,1,0.9l5.2,0c0.5,0,1-0.4,1-0.9l-0.1-9.5l29.8-0.2l0.1,9.5
						c0,0.5,0.4,0.9,1,0.9l5.2,0c0.5,0,1-0.4,1-0.9l-0.1-21.7c0-0.5-0.4-0.9-1-0.9l-4,0l-1.1,0l-31.8,0.2l-5.2,0l-1,0L215.5,310.6z"
						/>
					<g>
						<path class="st1" d="M220.4,315.1l0.1,15.3c0,0.4-0.3,0.7-0.7,0.7l-4.4,0c-0.4,0-0.7-0.3-0.7-0.7l-0.1-15.3
							c0-0.4,0.3-0.7,0.7-0.7l4.4,0C220,314.4,220.3,314.7,220.4,315.1z"/>
						<path class="st1" d="M254.6,314.9l0.1,15.3c0,0.4,0.3,0.7,0.7,0.7l4.4,0c0.4,0,0.7-0.3,0.7-0.7l-0.1-15.3
							c0-0.4-0.3-0.7-0.7-0.7l-4.4,0C254.9,314.2,254.6,314.5,254.6,314.9z"/>
					</g>
					<path class="st1" d="M244.9,320.2l0,2.1c0,0.6-0.5,1.1-1.1,1.1l-12.3,0.1c-0.6,0-1.1-0.5-1.1-1.1l0-2.1c0-0.6,0.5-1.1,1.1-1.1
						l12.3-0.1C244.4,319.1,244.9,319.6,244.9,320.2z"/>
				</g>
				<g>
					<path class="st9" d="M214.1,93.9L214,81.7l-0.1-9.5c0-0.5,0.4-0.9,1-0.9l5.2,0c0.5,0,1,0.4,1,0.9l0.1,9.5l29.8-0.2l-0.1-9.5
						c0-0.5,0.4-0.9,1-0.9l5.2,0c0.5,0,1,0.4,1,0.9l0.1,21.7c0,0.5-0.4,0.9-1,0.9l-4,0l-1.1,0l-31.8,0.2l-5.2,0l-1,0L214.1,93.9z"/>
					<g>
						<path class="st1" d="M218.9,89.3L218.8,74c0-0.4-0.3-0.7-0.7-0.7l-4.4,0c-0.4,0-0.7,0.3-0.7,0.7l0.1,15.3
							c0,0.4,0.3,0.7,0.7,0.7l4.4,0C218.5,90,218.9,89.7,218.9,89.3z"/>
						<path class="st1" d="M253.1,89.1L253,73.8c0-0.4,0.3-0.7,0.7-0.7l4.4,0c0.4,0,0.7,0.3,0.7,0.7l0.1,15.3c0,0.4-0.3,0.7-0.7,0.7
							l-4.4,0C253.4,89.8,253.1,89.5,253.1,89.1z"/>
					</g>
					<path class="st1" d="M243.3,83.9l0-2.1c0-0.6-0.5-1.1-1.1-1.1l-12.3,0.1c-0.6,0-1.1,0.5-1.1,1.1l0,2.1c0,0.6,0.5,1.1,1.1,1.1
						l12.3-0.1C242.8,85.1,243.3,84.5,243.3,83.9z"/>
				</g>
			</g>
			<g>
				<g>
					<g>
						<path class="st9" d="M276.4,328.2l0.1,12.2l0.1,9.5c0,0.5,0.4,0.9,1,0.9l5.2,0c0.5,0,1-0.4,1-0.9l-0.1-9.5l29.8-0.2l0.1,9.5
							c0,0.5,0.4,0.9,1,0.9l5.2,0c0.5,0,1-0.4,1-0.9l-0.1-21.7c0-0.5-0.4-0.9-1-0.9l-4,0l-1.1,0l-31.8,0.2l-5.2,0l-1,0L276.4,328.2z
							"/>
						<g>
							<path class="st1" d="M281.3,332.7l0.1,15.3c0,0.4-0.3,0.7-0.7,0.7l-4.4,0c-0.4,0-0.7-0.3-0.7-0.7l-0.1-15.3
								c0-0.4,0.3-0.7,0.7-0.7l4.4,0C280.9,332,281.3,332.3,281.3,332.7z"/>
							<path class="st1" d="M315.5,332.5l0.1,15.3c0,0.4,0.3,0.7,0.7,0.7l4.4,0c0.4,0,0.7-0.3,0.7-0.7l-0.1-15.3
								c0-0.4-0.3-0.7-0.7-0.7l-4.4,0C315.8,331.8,315.5,332.1,315.5,332.5z"/>
						</g>
						<path class="st1" d="M305.8,337.8l0,2.1c0,0.6-0.5,1.1-1.1,1.1l-12.3,0.1c-0.6,0-1.1-0.5-1.1-1.1l0-2.1c0-0.6,0.5-1.1,1.1-1.1
							l12.3-0.1C305.3,336.7,305.8,337.2,305.8,337.8z"/>
					</g>
					<g>
						<path class="st9" d="M337.2,327.9l0.1,12.2l0.1,9.5c0,0.5,0.4,0.9,1,0.9l5.2,0c0.5,0,1-0.4,1-0.9l-0.1-9.5l29.8-0.2l0.1,9.5
							c0,0.5,0.4,0.9,1,0.9l5.2,0c0.5,0,1-0.4,1-0.9l-0.1-21.7c0-0.5-0.4-0.9-1-0.9l-4,0l-1.1,0l-31.8,0.2l-5.2,0l-1,0L337.2,327.9z
							"/>
						<g>
							<path class="st1" d="M342.1,332.3l0.1,15.3c0,0.4-0.3,0.7-0.7,0.7l-4.4,0c-0.4,0-0.7-0.3-0.7-0.7l-0.1-15.3
								c0-0.4,0.3-0.7,0.7-0.7l4.4,0C341.7,331.6,342.1,331.9,342.1,332.3z"/>
							<path class="st1" d="M376.3,332.1l0.1,15.3c0,0.4,0.3,0.7,0.7,0.7l4.4,0c0.4,0,0.7-0.3,0.7-0.7l-0.1-15.3
								c0-0.4-0.3-0.7-0.7-0.7l-4.4,0C376.6,331.4,376.3,331.7,376.3,332.1z"/>
						</g>
						<path class="st1" d="M366.6,337.5l0,2.1c0,0.6-0.5,1.1-1.1,1.1l-12.3,0.1c-0.6,0-1.1-0.5-1.1-1.1l0-2.1c0-0.6,0.5-1.1,1.1-1.1
							l12.3-0.1C366.1,336.3,366.6,336.8,366.6,337.5z"/>
					</g>
				</g>
				<g>
					<g>
						<path class="st9" d="M274.7,75.6l-0.1-12.2l-0.1-9.5c0-0.5,0.4-0.9,1-0.9l5.2,0c0.5,0,1,0.4,1,0.9l0.1,9.5l29.8-0.2l-0.1-9.5
							c0-0.5,0.4-0.9,1-0.9l5.2,0c0.5,0,1,0.4,1,0.9l0.1,21.7c0,0.5-0.4,0.9-1,0.9l-4,0l-1.1,0l-31.8,0.2l-5.2,0l-1,0L274.7,75.6z"
							/>
						<g>
							<path class="st1" d="M279.5,71l-0.1-15.3c0-0.4-0.3-0.7-0.7-0.7l-4.4,0c-0.4,0-0.7,0.3-0.7,0.7l0.1,15.3
								c0,0.4,0.3,0.7,0.7,0.7l4.4,0C279.2,71.8,279.5,71.4,279.5,71z"/>
							<path class="st1" d="M313.8,70.9l-0.1-15.3c0-0.4,0.3-0.7,0.7-0.7l4.4,0c0.4,0,0.7,0.3,0.7,0.7l0.1,15.3
								c0,0.4-0.3,0.7-0.7,0.7l-4.4,0C314.1,71.6,313.8,71.2,313.8,70.9z"/>
						</g>
						<path class="st1" d="M304,65.6l0-2.1c0-0.6-0.5-1.1-1.1-1.1l-12.3,0.1c-0.6,0-1.1,0.5-1.1,1.1l0,2.1c0,0.6,0.5,1.1,1.1,1.1
							l12.3-0.1C303.5,66.8,304,66.3,304,65.6z"/>
					</g>
					<g>
						<path class="st9" d="M335.5,75.2l-0.1-12.2l-0.1-9.5c0-0.5,0.4-0.9,1-0.9l5.2,0c0.5,0,1,0.4,1,0.9l0.1,9.5l29.8-0.2l-0.1-9.5
							c0-0.5,0.4-0.9,1-0.9l5.2,0c0.5,0,1,0.4,1,0.9l0.1,21.7c0,0.5-0.4,0.9-1,0.9l-4,0l-1.1,0l-31.8,0.2l-5.2,0l-1,0L335.5,75.2z"
							/>
						<g>
							<path class="st1" d="M340.3,70.7l-0.1-15.3c0-0.4-0.3-0.7-0.7-0.7l-4.4,0c-0.4,0-0.7,0.3-0.7,0.7l0.1,15.3
								c0,0.4,0.3,0.7,0.7,0.7l4.4,0C340,71.4,340.3,71.1,340.3,70.7z"/>
							<path class="st1" d="M374.6,70.5l-0.1-15.3c0-0.4,0.3-0.7,0.7-0.7l4.4,0c0.4,0,0.7,0.3,0.7,0.7l0.1,15.3
								c0,0.4-0.3,0.7-0.7,0.7l-4.4,0C374.9,71.2,374.6,70.9,374.6,70.5z"/>
						</g>
						<path class="st1" d="M364.8,65.3l0-2.1c0-0.6-0.5-1.1-1.1-1.1l-12.3,0.1c-0.6,0-1.1,0.5-1.1,1.1l0,2.1c0,0.6,0.5,1.1,1.1,1.1
							l12.3-0.1C364.3,66.4,364.8,65.9,364.8,65.3z"/>
					</g>
				</g>
			</g>
		</g>
		<g>
			<g>
				<path class="st9" d="M226.8,182.4l0.5,70.8c0,1.3-1,2.4-2.3,2.4l-3.8,0c-1.3,0-2.4-1-2.4-2.3l-0.5-70.8c0-1.3,1-2.4,2.3-2.4
					l3.8,0C225.7,180.1,226.8,181.1,226.8,182.4z"/>
				<g>
					<path class="st1" d="M225.8,248.5l0,4.1c0,0.4-0.3,0.8-0.8,0.8l-4.5,0c-0.4,0-0.8-0.3-0.8-0.8l0-4.1c0-0.4,0.3-0.8,0.8-0.8
						l4.5,0C225.5,247.8,225.8,248.1,225.8,248.5z"/>
					<path class="st1" d="M225.8,241.3l0,4.1c0,0.4-0.3,0.8-0.8,0.8l-4.5,0c-0.4,0-0.8-0.3-0.8-0.8l0-4.1c0-0.4,0.3-0.8,0.8-0.8
						l4.5,0C225.4,240.5,225.8,240.8,225.8,241.3z"/>
					<path class="st1" d="M226.1,234l0,4.1c0,0.4-0.3,0.8-0.8,0.8l-4.5,0c-0.4,0-0.8-0.3-0.8-0.8l0-4.1c0-0.4,0.3-0.8,0.8-0.8l4.5,0
						C225.8,233.2,226.1,233.6,226.1,234z"/>
					<path class="st1" d="M226.1,226.7l0,4.1c0,0.4-0.3,0.8-0.8,0.8l-4.5,0c-0.4,0-0.8-0.3-0.8-0.8l0-4.1c0-0.4,0.3-0.8,0.8-0.8
						l4.5,0C225.7,226,226.1,226.3,226.1,226.7z"/>
					<path class="st1" d="M226,219.4l0,4.1c0,0.4-0.3,0.8-0.8,0.8l-4.5,0c-0.4,0-0.8-0.3-0.8-0.8l0-4.1c0-0.4,0.3-0.8,0.8-0.8l4.5,0
						C225.7,218.7,226,219,226,219.4z"/>
					<path class="st1" d="M226,212.2l0,4.1c0,0.4-0.3,0.8-0.8,0.8l-4.5,0c-0.4,0-0.8-0.3-0.8-0.8l0-4.1c0-0.4,0.3-0.8,0.8-0.8l4.5,0
						C225.6,211.4,226,211.7,226,212.2z"/>
					<path class="st1" d="M225.9,204.9l0,4.1c0,0.4-0.3,0.8-0.8,0.8l-4.5,0c-0.4,0-0.8-0.3-0.8-0.8l0-4.1c0-0.4,0.3-0.8,0.8-0.8
						l4.5,0C225.6,204.1,225.9,204.5,225.9,204.9z"/>
					<path class="st1" d="M225.9,197.6l0,4.1c0,0.4-0.3,0.8-0.8,0.8l-4.5,0c-0.4,0-0.8-0.3-0.8-0.8l0-4.1c0-0.4,0.3-0.8,0.8-0.8
						l4.5,0C225.5,196.9,225.9,197.2,225.9,197.6z"/>
					<path class="st1" d="M225.8,190.4l0,4.1c0,0.4-0.3,0.8-0.8,0.8l-4.5,0c-0.4,0-0.8-0.3-0.8-0.8l0-4.1c0-0.4,0.3-0.8,0.8-0.8
						l4.5,0C225.5,189.6,225.8,189.9,225.8,190.4z"/>
					<path class="st1" d="M225.8,187.2l0-4.1c0-0.4-0.3-0.8-0.8-0.8l-4.5,0c-0.4,0-0.8,0.3-0.8,0.8l0,4.1c0,0.4,0.3,0.8,0.8,0.8
						l4.5,0C225.5,187.9,225.8,187.6,225.8,187.2z"/>
				</g>
			</g>
			<g>
				<path class="st9" d="M226.5,101.9l0.5,70.8c0,1.3-1,2.4-2.3,2.4l-3.8,0c-1.3,0-2.4-1-2.4-2.3l-0.5-70.8c0-1.3,1-2.4,2.3-2.4
					l3.8,0C225.4,99.6,226.5,100.6,226.5,101.9z"/>
				<g>
					<path class="st1" d="M225.5,168l0,4.1c0,0.4-0.3,0.8-0.8,0.8l-4.5,0c-0.4,0-0.8-0.3-0.8-0.8l0-4.1c0-0.4,0.3-0.8,0.8-0.8l4.5,0
						C225.1,167.3,225.5,167.6,225.5,168z"/>
					<path class="st1" d="M225.4,160.8l0,4.1c0,0.4-0.3,0.8-0.8,0.8l-4.5,0c-0.4,0-0.8-0.3-0.8-0.8l0-4.1c0-0.4,0.3-0.8,0.8-0.8
						l4.5,0C225.1,160,225.4,160.3,225.4,160.8z"/>
					<path class="st1" d="M225.8,153.5l0,4.1c0,0.4-0.3,0.8-0.8,0.8l-4.5,0c-0.4,0-0.8-0.3-0.8-0.8l0-4.1c0-0.4,0.3-0.8,0.8-0.8
						l4.5,0C225.4,152.7,225.8,153.1,225.8,153.5z"/>
					<path class="st1" d="M225.7,146.2l0,4.1c0,0.4-0.3,0.8-0.8,0.8l-4.5,0c-0.4,0-0.8-0.3-0.8-0.8l0-4.1c0-0.4,0.3-0.8,0.8-0.8
						l4.5,0C225.4,145.4,225.7,145.8,225.7,146.2z"/>
					<path class="st1" d="M225.7,138.9l0,4.1c0,0.4-0.3,0.8-0.8,0.8l-4.5,0c-0.4,0-0.8-0.3-0.8-0.8l0-4.1c0-0.4,0.3-0.8,0.8-0.8
						l4.5,0C225.3,138.2,225.7,138.5,225.7,138.9z"/>
					<path class="st1" d="M225.6,131.7l0,4.1c0,0.4-0.3,0.8-0.8,0.8l-4.5,0c-0.4,0-0.8-0.3-0.8-0.8l0-4.1c0-0.4,0.3-0.8,0.8-0.8
						l4.5,0C225.3,130.9,225.6,131.2,225.6,131.7z"/>
					<path class="st1" d="M225.6,124.4l0,4.1c0,0.4-0.3,0.8-0.8,0.8l-4.5,0c-0.4,0-0.8-0.3-0.8-0.8l0-4.1c0-0.4,0.3-0.8,0.8-0.8
						l4.5,0C225.2,123.6,225.6,124,225.6,124.4z"/>
					<path class="st1" d="M225.5,117.1l0,4.1c0,0.4-0.3,0.8-0.8,0.8l-4.5,0c-0.4,0-0.8-0.3-0.8-0.8l0-4.1c0-0.4,0.3-0.8,0.8-0.8
						l4.5,0C225.2,116.4,225.5,116.7,225.5,117.1z"/>
					<path class="st1" d="M225.5,109.9l0,4.1c0,0.4-0.3,0.8-0.8,0.8l-4.5,0c-0.4,0-0.8-0.3-0.8-0.8l0-4.1c0-0.4,0.3-0.8,0.8-0.8
						l4.5,0C225.1,109.1,225.5,109.4,225.5,109.9z"/>
					<path class="st1" d="M225.5,106.7l0-4.1c0-0.4-0.3-0.8-0.8-0.8l-4.5,0c-0.4,0-0.8,0.3-0.8,0.8l0,4.1c0,0.4,0.3,0.8,0.8,0.8
						l4.5,0C225.1,107.4,225.5,107.1,225.5,106.7z"/>
				</g>
			</g>
		</g>
		<ellipse class="st10" cx="190.6" cy="317.9" rx="5.6" ry="5.1"/>
		<g>
			<ellipse class="st10" cx="190.6" cy="317.9" rx="5.6" ry="5.1"/>
			<ellipse class="st10" cx="189.1" cy="83.2" rx="5.6" ry="5.1"/>
		</g>
		<g>
			<path class="st1" d="M281.2,120.8l0-0.6c0-1.1-1-2-2.2-2l-9.2,0.1c-1.2,0-2.2,0.9-2.1,2l0.5,70.2c0,1.1,1,2,2.2,2l9.2-0.1
				c1.2,0,2.2-0.9,2.1-2l0-0.6c0-2.9,2.5-5.3,5.7-5.3l5.6,0c3.2,0,5.7,2.3,5.7,5.3l0,0.6c0,1.1,1,2,2.2,2l9.2-0.1
				c1.2,0,2.2-0.9,2.1-2l-0.5-70.2c0-1.1-1-2-2.2-2l-9.2,0.1c-1.2,0-2.2,0.9-2.1,2l0,0.6c0,2.9-2.5,5.3-5.7,5.3l-5.6,0
				C283.8,126,281.3,123.7,281.2,120.8z"/>
			<g>
				<g>
					<g>
						<g>
							<g>
								<path class="st1" d="M311.1,185.7l2.3,0c0.1,0,0.2-0.1,0.2-0.2l0-0.2c0-0.1,0.1-0.2,0.2-0.2l3.7-0.1c0.1,0,0.2-0.1,0.2-0.2
									l0-1c0-0.1-0.1-0.2-0.2-0.2l-3.7,0.1c-0.1,0-0.1,0.1-0.2,0.2l0,0c0,0.1-0.1,0.2-0.2,0.2l-2.2,0c-0.1,0-0.2,0.1-0.2,0.2
									l0,1.2C310.9,185.7,311,185.7,311.1,185.7z"/>
								<path class="st1" d="M311,180.3l2.3,0c0.1,0,0.2-0.1,0.2-0.2l0-0.2c0-0.1,0.1-0.2,0.2-0.2l3.7-0.1c0.1,0,0.2-0.1,0.2-0.2
									l0-1c0-0.1-0.1-0.2-0.2-0.2l-3.7,0.1c-0.1,0-0.1,0.1-0.2,0.2l0,0c0,0.1-0.1,0.2-0.2,0.2l-2.2,0c-0.1,0-0.2,0.1-0.2,0.2
									l0,1.2C310.8,180.2,310.9,180.3,311,180.3z"/>
								<path class="st1" d="M310.8,174.9l2.3,0c0.1,0,0.2-0.1,0.2-0.2l0-0.2c0-0.1,0.1-0.2,0.2-0.2l3.7-0.1c0.1,0,0.2-0.1,0.2-0.2
									l0-1c0-0.1-0.1-0.2-0.2-0.2l-3.7,0.1c-0.1,0-0.1,0.1-0.2,0.2l0,0c0,0.1-0.1,0.2-0.2,0.2l-2.2,0c-0.1,0-0.2,0.1-0.2,0.2
									l0,1.2C310.7,174.8,310.8,174.9,310.8,174.9z"/>
								<path class="st1" d="M310.7,169.4l2.3,0c0.1,0,0.2-0.1,0.2-0.2l0-0.2c0-0.1,0.1-0.2,0.2-0.2l3.7-0.1c0.1,0,0.2-0.1,0.2-0.2
									l0-1c0-0.1-0.1-0.2-0.2-0.2l-3.7,0.1c-0.1,0-0.1,0.1-0.2,0.2l0,0c0,0.1-0.1,0.2-0.2,0.2l-2.2,0c-0.1,0-0.2,0.1-0.2,0.2
									l0,1.2C310.6,169.4,310.6,169.4,310.7,169.4z"/>
							</g>
							<path class="st1" d="M310.6,164.6l2.3,0c0.1,0,0.2-0.1,0.2-0.2l0-0.2c0-0.1,0.1-0.2,0.2-0.2l3.7-0.1c0.1,0,0.2-0.1,0.2-0.2
								l0-1c0-0.1-0.1-0.2-0.2-0.2l-3.7,0.1c-0.1,0-0.1,0.1-0.2,0.2l0,0c0,0.1-0.1,0.2-0.2,0.2l-2.2,0c-0.1,0-0.2,0.1-0.2,0.2l0,1.2
								C310.5,164.5,310.5,164.6,310.6,164.6z"/>
							<path class="st1" d="M310.5,159.1l2.3,0c0.1,0,0.2-0.1,0.2-0.2l0-0.2c0-0.1,0.1-0.2,0.2-0.2l3.7-0.1c0.1,0,0.2-0.1,0.2-0.2
								l0-1c0-0.1-0.1-0.2-0.2-0.2l-3.7,0.1c-0.1,0-0.1,0.1-0.2,0.2l0,0c0,0.1-0.1,0.2-0.2,0.2l-2.2,0c-0.1,0-0.2,0.1-0.2,0.2l0,1.2
								C310.4,159.1,310.4,159.1,310.5,159.1z"/>
							<path class="st1" d="M310.7,169.8l2.3,0c0.1,0,0.2-0.1,0.2-0.2l0-0.2c0-0.1,0.1-0.2,0.2-0.2l3.7-0.1c0.1,0,0.2-0.1,0.2-0.2
								l0-1c0-0.1-0.1-0.2-0.2-0.2l-3.7,0.1c-0.1,0-0.1,0.1-0.2,0.2l0,0c0,0.1-0.1,0.2-0.2,0.2l-2.2,0c-0.1,0-0.2,0.1-0.2,0.2l0,1.2
								C310.6,169.8,310.6,169.8,310.7,169.8z"/>
						</g>
						<g>
							
								<ellipse transform="matrix(0.9893 -0.1457 0.1457 0.9893 -23.4942 48.2191)" class="st1" cx="317.5" cy="184.5" rx="1.1" ry="1.1"/>
							
								<ellipse transform="matrix(0.9893 -0.1457 0.1457 0.9893 -22.7039 48.1432)" class="st1" cx="317.3" cy="179.1" rx="1.1" ry="1.1"/>
							
								<ellipse transform="matrix(0.9893 -0.1457 0.1457 0.9893 -21.8924 48.0707)" class="st1" cx="317.3" cy="173.5" rx="1.1" ry="1.1"/>
							
								<ellipse transform="matrix(0.9893 -0.1457 0.1457 0.9893 -21.1129 47.9905)" class="st1" cx="317.1" cy="168.1" rx="1.1" ry="1.1"/>
							
								<ellipse transform="matrix(0.9893 -0.1457 0.1457 0.9893 -20.3937 47.9346)" class="st1" cx="317.1" cy="163.2" rx="1.1" ry="1.1"/>
							
								<ellipse transform="matrix(0.9893 -0.1457 0.1457 0.9893 -19.6003 47.854)" class="st1" cx="316.9" cy="157.7" rx="1.1" ry="1.1"/>
							
								<ellipse transform="matrix(0.9893 -0.1457 0.1457 0.9893 -18.7965 47.7893)" class="st1" cx="316.9" cy="152.2" rx="1.1" ry="1.1"/>
						</g>
						<path class="st1" d="M310.5,153.6l2.3,0c0.1,0,0.2-0.1,0.2-0.2l0-0.2c0-0.1,0.1-0.2,0.2-0.2l3.7-0.1c0.1,0,0.2-0.1,0.2-0.2
							l0-1c0-0.1-0.1-0.2-0.2-0.2l-3.7,0.1c-0.1,0-0.1,0.1-0.2,0.2l0,0c0,0.1-0.1,0.2-0.2,0.2l-2.2,0c-0.1,0-0.2,0.1-0.2,0.2l0,1.2
							C310.3,153.5,310.4,153.6,310.5,153.6z"/>
					</g>
					<g>
						<g>
							<g>
								<path class="st1" d="M310.5,147.9l2.3,0c0.1,0,0.2-0.1,0.2-0.2l0-0.2c0-0.1,0.1-0.2,0.2-0.2l3.7-0.1c0.1,0,0.2-0.1,0.2-0.2
									l0-1c0-0.1-0.1-0.2-0.2-0.2L313,146c-0.1,0-0.1,0.1-0.2,0.2l0,0c0,0.1-0.1,0.2-0.2,0.2l-2.2,0c-0.1,0-0.2,0.1-0.2,0.2l0,1.2
									C310.3,147.9,310.4,147.9,310.5,147.9z"/>
								<path class="st1" d="M310.4,142.5l2.3,0c0.1,0,0.2-0.1,0.2-0.2l0-0.2c0-0.1,0.1-0.2,0.2-0.2l3.7-0.1c0.1,0,0.2-0.1,0.2-0.2
									l0-1c0-0.1-0.1-0.2-0.2-0.2l-3.7,0.1c-0.1,0-0.1,0.1-0.2,0.2l0,0c0,0.1-0.1,0.2-0.2,0.2l-2.2,0c-0.1,0-0.2,0.1-0.2,0.2
									l0,1.2C310.2,142.4,310.3,142.5,310.4,142.5z"/>
								<path class="st1" d="M310.3,137.1l2.3,0c0.1,0,0.2-0.1,0.2-0.2l0-0.2c0-0.1,0.1-0.2,0.2-0.2l3.7-0.1c0.1,0,0.2-0.1,0.2-0.2
									l0-1c0-0.1-0.1-0.2-0.2-0.2l-3.7,0.1c-0.1,0-0.1,0.1-0.2,0.2l0,0c0,0.1-0.1,0.2-0.2,0.2l-2.2,0c-0.1,0-0.2,0.1-0.2,0.2
									l0,1.2C310.1,137,310.2,137.1,310.3,137.1z"/>
								<path class="st1" d="M310.1,131.6l2.3,0c0.1,0,0.2-0.1,0.2-0.2l0-0.2c0-0.1,0.1-0.2,0.2-0.2l3.7-0.1c0.1,0,0.2-0.1,0.2-0.2
									l0-1c0-0.1-0.1-0.2-0.2-0.2l-3.7,0.1c-0.1,0-0.1,0.1-0.2,0.2l0,0c0,0.1-0.1,0.2-0.2,0.2l-2.2,0c-0.1,0-0.2,0.1-0.2,0.2
									l0,1.2C310,131.6,310,131.6,310.1,131.6z"/>
							</g>
							<path class="st1" d="M310,126.8l2.3,0c0.1,0,0.2-0.1,0.2-0.2l0-0.2c0-0.1,0.1-0.2,0.2-0.2l3.7-0.1c0.1,0,0.2-0.1,0.2-0.2l0-1
								c0-0.1-0.1-0.2-0.2-0.2l-3.7,0.1c-0.1,0-0.1,0.1-0.2,0.2l0,0c0,0.1-0.1,0.2-0.2,0.2l-2.2,0c-0.1,0-0.2,0.1-0.2,0.2l0,1.2
								C309.9,126.7,310,126.8,310,126.8z"/>
							<path class="st1" d="M310.1,132l2.3,0c0.1,0,0.2-0.1,0.2-0.2l0-0.2c0-0.1,0.1-0.2,0.2-0.2l3.7-0.1c0.1,0,0.2-0.1,0.2-0.2l0-1
								c0-0.1-0.1-0.2-0.2-0.2l-3.7,0.1c-0.1,0-0.1,0.1-0.2,0.2l0,0c0,0.1-0.1,0.2-0.2,0.2l-2.2,0c-0.1,0-0.2,0.1-0.2,0.2l0,1.2
								C310,132,310.1,132,310.1,132z"/>
						</g>
						<g>
							
								<ellipse transform="matrix(0.9893 -0.1457 0.1457 0.9893 -17.9947 47.7305)" class="st1" cx="316.9" cy="146.7" rx="1.1" ry="1.1"/>
							
								<ellipse transform="matrix(0.9893 -0.1457 0.1457 0.9893 -17.2044 47.6546)" class="st1" cx="316.8" cy="141.3" rx="1.1" ry="1.1"/>
							
								<ellipse transform="matrix(0.9893 -0.1457 0.1457 0.9893 -16.3929 47.5821)" class="st1" cx="316.7" cy="135.7" rx="1.1" ry="1.1"/>
							
								<ellipse transform="matrix(0.9893 -0.1457 0.1457 0.9893 -15.6135 47.5018)" class="st1" cx="316.5" cy="130.4" rx="1.1" ry="1.1"/>
							
								<ellipse transform="matrix(0.9893 -0.1457 0.1457 0.9893 -14.8943 47.4459)" class="st1" cx="316.5" cy="125.4" rx="1.1" ry="1.1"/>
						</g>
					</g>
				</g>
				<g>
					<g>
						<g>
							<g>
								<path class="st1" d="M269.3,186l-2.3,0c-0.1,0-0.2-0.1-0.2-0.2l0-0.2c0-0.1-0.1-0.2-0.2-0.2l-3.7,0c-0.1,0-0.2-0.1-0.2-0.2
									l0-1c0-0.1,0.1-0.2,0.2-0.2l3.7,0c0.1,0,0.1,0.1,0.2,0.2l0,0c0,0.1,0.1,0.2,0.2,0.2l2.2,0c0.1,0,0.2,0.1,0.2,0.2l0,1.2
									C269.5,185.9,269.4,186,269.3,186z"/>
								<path class="st1" d="M269.4,180.5l-2.3,0c-0.1,0-0.2-0.1-0.2-0.2l0-0.2c0-0.1-0.1-0.2-0.2-0.2l-3.7,0
									c-0.1,0-0.2-0.1-0.2-0.2l0-1c0-0.1,0.1-0.2,0.2-0.2l3.7,0c0.1,0,0.1,0.1,0.2,0.2l0,0c0,0.1,0.1,0.2,0.2,0.2l2.2,0
									c0.1,0,0.2,0.1,0.2,0.2l0,1.2C269.5,180.5,269.5,180.5,269.4,180.5z"/>
								<path class="st1" d="M269.4,175.1l-2.3,0c-0.1,0-0.2-0.1-0.2-0.2l0-0.2c0-0.1-0.1-0.2-0.2-0.2l-3.7,0
									c-0.1,0-0.2-0.1-0.2-0.2l0-1c0-0.1,0.1-0.2,0.2-0.2l3.7,0c0.1,0,0.1,0.1,0.2,0.2l0,0c0,0.1,0.1,0.2,0.2,0.2l2.2,0
									c0.1,0,0.2,0.1,0.2,0.2l0,1.2C269.6,175,269.5,175.1,269.4,175.1z"/>
								<path class="st1" d="M269.5,169.7l-2.3,0c-0.1,0-0.2-0.1-0.2-0.2l0-0.2c0-0.1-0.1-0.2-0.2-0.2l-3.7,0
									c-0.1,0-0.2-0.1-0.2-0.2l0-1c0-0.1,0.1-0.2,0.2-0.2l3.7,0c0.1,0,0.1,0.1,0.2,0.2l0,0c0,0.1,0.1,0.2,0.2,0.2l2.2,0
									c0.1,0,0.2,0.1,0.2,0.2l0,1.2C269.6,169.6,269.6,169.7,269.5,169.7z"/>
							</g>
							<path class="st1" d="M269.5,164.8l-2.3,0c-0.1,0-0.2-0.1-0.2-0.2l0-0.2c0-0.1-0.1-0.2-0.2-0.2l-3.7,0c-0.1,0-0.2-0.1-0.2-0.2
								l0-1c0-0.1,0.1-0.2,0.2-0.2l3.7,0c0.1,0,0.1,0.1,0.2,0.2l0,0c0,0.1,0.1,0.2,0.2,0.2l2.2,0c0.1,0,0.2,0.1,0.2,0.2l0,1.2
								C269.7,164.7,269.6,164.8,269.5,164.8z"/>
							<path class="st1" d="M269.6,159.4l-2.3,0c-0.1,0-0.2-0.1-0.2-0.2l0-0.2c0-0.1-0.1-0.2-0.2-0.2l-3.7,0c-0.1,0-0.2-0.1-0.2-0.2
								l0-1c0-0.1,0.1-0.2,0.2-0.2l3.7,0c0.1,0,0.1,0.1,0.2,0.2l0,0c0,0.1,0.1,0.2,0.2,0.2l2.2,0c0.1,0,0.2,0.1,0.2,0.2l0,1.2
								C269.7,159.3,269.6,159.4,269.6,159.4z"/>
							<path class="st1" d="M269.5,170.1l-2.3,0c-0.1,0-0.2-0.1-0.2-0.2l0-0.2c0-0.1-0.1-0.2-0.2-0.2l-3.7,0c-0.1,0-0.2-0.1-0.2-0.2
								l0-1c0-0.1,0.1-0.2,0.2-0.2l3.7,0c0.1,0,0.1,0.1,0.2,0.2l0,0c0,0.1,0.1,0.2,0.2,0.2l2.2,0c0.1,0,0.2,0.1,0.2,0.2l0,1.2
								C269.6,170,269.6,170.1,269.5,170.1z"/>
						</g>
						<g>
							
								<ellipse transform="matrix(8.287812e-02 -0.9966 0.9966 8.287812e-02 56.9416 431.5293)" class="st1" cx="262.9" cy="184.8" rx="1.1" ry="1.1"/>
							
								<ellipse transform="matrix(8.287812e-02 -0.9966 0.9966 8.287812e-02 62.4045 426.5959)" class="st1" cx="263" cy="179.4" rx="1.1" ry="1.1"/>
							
								<ellipse transform="matrix(8.287812e-02 -0.9966 0.9966 8.287812e-02 67.9768 421.4963)" class="st1" cx="263" cy="173.8" rx="1.1" ry="1.1"/>
							
								<ellipse transform="matrix(8.287812e-02 -0.9966 0.9966 8.287812e-02 73.4016 416.6644)" class="st1" cx="263.1" cy="168.5" rx="1.1" ry="1.1"/>
							
								<ellipse transform="matrix(8.287812e-02 -0.9966 0.9966 8.287812e-02 78.2832 412.0923)" class="st1" cx="263" cy="163.5" rx="1.1" ry="1.1"/>
							
								<ellipse transform="matrix(8.287812e-02 -0.9966 0.9966 8.287812e-02 83.7974 407.1668)" class="st1" cx="263.1" cy="158.1" rx="1.1" ry="1.1"/>
							
								<ellipse transform="matrix(8.287812e-02 -0.9966 0.9966 8.287812e-02 89.2685 402.0711)" class="st1" cx="263.1" cy="152.5" rx="1.1" ry="1.1"/>
						</g>
						<path class="st1" d="M269.5,153.8l-2.3,0c-0.1,0-0.2-0.1-0.2-0.2l0-0.2c0-0.1-0.1-0.2-0.2-0.2l-3.7,0c-0.1,0-0.2-0.1-0.2-0.2
							l0-1c0-0.1,0.1-0.2,0.2-0.2l3.7,0c0.1,0,0.1,0.1,0.2,0.2l0,0c0,0.1,0.1,0.2,0.2,0.2l2.2,0c0.1,0,0.2,0.1,0.2,0.2l0,1.2
							C269.7,153.7,269.6,153.8,269.5,153.8z"/>
					</g>
					<g>
						<g>
							<g>
								<path class="st1" d="M269.4,148.2l-2.3,0c-0.1,0-0.2-0.1-0.2-0.2l0-0.2c0-0.1-0.1-0.2-0.2-0.2l-3.7,0
									c-0.1,0-0.2-0.1-0.2-0.2l0-1c0-0.1,0.1-0.2,0.2-0.2l3.7,0c0.1,0,0.1,0.1,0.2,0.2l0,0c0,0.1,0.1,0.2,0.2,0.2l2.2,0
									c0.1,0,0.2,0.1,0.2,0.2l0,1.2C269.6,148.1,269.5,148.2,269.4,148.2z"/>
								<path class="st1" d="M269.5,142.7l-2.3,0c-0.1,0-0.2-0.1-0.2-0.2l0-0.2c0-0.1-0.1-0.2-0.2-0.2l-3.7,0
									c-0.1,0-0.2-0.1-0.2-0.2l0-1c0-0.1,0.1-0.2,0.2-0.2l3.7,0c0.1,0,0.1,0.1,0.2,0.2l0,0c0,0.1,0.1,0.2,0.2,0.2l2.2,0
									c0.1,0,0.2,0.1,0.2,0.2l0,1.2C269.6,142.7,269.5,142.7,269.5,142.7z"/>
								<path class="st1" d="M269.5,137.3l-2.3,0c-0.1,0-0.2-0.1-0.2-0.2l0-0.2c0-0.1-0.1-0.2-0.2-0.2l-3.7,0
									c-0.1,0-0.2-0.1-0.2-0.2l0-1c0-0.1,0.1-0.2,0.2-0.2l3.7,0c0.1,0,0.1,0.1,0.2,0.2l0,0c0,0.1,0.1,0.2,0.2,0.2l2.2,0
									c0.1,0,0.2,0.1,0.2,0.2l0,1.2C269.7,137.2,269.6,137.3,269.5,137.3z"/>
								<path class="st1" d="M269.6,131.9l-2.3,0c-0.1,0-0.2-0.1-0.2-0.2l0-0.2c0-0.1-0.1-0.2-0.2-0.2l-3.7,0
									c-0.1,0-0.2-0.1-0.2-0.2l0-1c0-0.1,0.1-0.2,0.2-0.2l3.7,0c0.1,0,0.1,0.1,0.2,0.2l0,0c0,0.1,0.1,0.2,0.2,0.2l2.2,0
									c0.1,0,0.2,0.1,0.2,0.2l0,1.2C269.7,131.8,269.7,131.9,269.6,131.9z"/>
							</g>
							<path class="st1" d="M269.6,127l-2.3,0c-0.1,0-0.2-0.1-0.2-0.2l0-0.2c0-0.1-0.1-0.2-0.2-0.2l-3.7,0c-0.1,0-0.2-0.1-0.2-0.2
								l0-1c0-0.1,0.1-0.2,0.2-0.2l3.7,0c0.1,0,0.1,0.1,0.2,0.2l0,0c0,0.1,0.1,0.2,0.2,0.2l2.2,0c0.1,0,0.2,0.1,0.2,0.2l0,1.2
								C269.7,126.9,269.7,127,269.6,127z"/>
							<path class="st1" d="M269.6,132.3l-2.3,0c-0.1,0-0.2-0.1-0.2-0.2l0-0.2c0-0.1-0.1-0.2-0.2-0.2l-3.7,0c-0.1,0-0.2-0.1-0.2-0.2
								l0-1c0-0.1,0.1-0.2,0.2-0.2l3.7,0c0.1,0,0.1,0.1,0.2,0.2l0,0c0,0.1,0.1,0.2,0.2,0.2l2.2,0c0.1,0,0.2,0.1,0.2,0.2l0,1.2
								C269.7,132.2,269.6,132.3,269.6,132.3z"/>
						</g>
						<g>
							
								<ellipse transform="matrix(8.287812e-02 -0.9966 0.9966 8.287812e-02 94.6871 396.9519)" class="st1" cx="263" cy="147" rx="1.1" ry="1.1"/>
							
								<ellipse transform="matrix(8.287812e-02 -0.9966 0.9966 8.287812e-02 100.1499 392.0186)" class="st1" cx="263.1" cy="141.6" rx="1.1" ry="1.1"/>
							
								<ellipse transform="matrix(8.287812e-02 -0.9966 0.9966 8.287812e-02 105.7222 386.9189)" class="st1" cx="263.1" cy="136" rx="1.1" ry="1.1"/>
							
								<ellipse transform="matrix(8.287812e-02 -0.9966 0.9966 8.287812e-02 111.147 382.087)" class="st1" cx="263.2" cy="130.7" rx="1.1" ry="1.1"/>
							
								<ellipse transform="matrix(8.287812e-02 -0.9966 0.9966 8.287812e-02 116.0286 377.5149)" class="st1" cx="263.1" cy="125.7" rx="1.1" ry="1.1"/>
						</g>
					</g>
				</g>
			</g>
		</g>
		<g>
			<g>
				<g>
					<defs>
						<path id="SVGID_1_" d="M659.9,315.2l0.1,19.8c0.1,8.3-6.7,15.1-15,15.2L511.3,351c-8.3,0-15.1-6.7-15.2-15l-0.1-19.8
							c-0.1-8.3,6.7-15.1,15-15.2l133.7-0.8C653.1,300.2,659.8,306.9,659.9,315.2z"/>
					</defs>
					<clipPath id="SVGID_2_">
						<use xlink:href="#SVGID_1_"  style="overflow:visible;"/>
					</clipPath>
					<path class="st11" d="M659.9,315.2l0.1,19.8c0.1,8.3-6.7,15.1-15,15.2L511.3,351c-8.3,0-15.1-6.7-15.2-15l-0.1-19.8
						c-0.1-8.3,6.7-15.1,15-15.2l133.7-0.8C653.1,300.2,659.8,306.9,659.9,315.2z"/>
					<g class="st12">
						<path class="st1" d="M528.3,300.9l-22.5,24.2c-0.3,0.3-0.3,0.7,0,1l22.5,23.7c0.3,0.3,0,0.7-0.4,0.7l-8.4,0
							c-0.1,0-0.3-0.1-0.4-0.1l-23.3-24c-0.4-0.4-0.4-1,0-1.4l22.8-24.1c0.2-0.2,0.6-0.4,0.9-0.4l8.4,0
							C528.4,300.5,528.5,300.7,528.3,300.9z"/>
						<path class="st1" d="M561.2,300.7l-22.5,24.2c-0.3,0.3-0.3,0.7,0,1l22.5,23.7c0.3,0.3,0,0.7-0.4,0.7l-8.4,0
							c-0.1,0-0.3-0.1-0.4-0.1l-23.3-24c-0.4-0.4-0.4-1,0-1.4l22.8-24.1c0.2-0.2,0.6-0.4,0.9-0.4l8.4,0
							C561.2,300.3,561.4,300.6,561.2,300.7z"/>
						<path class="st1" d="M594.1,300.5l-22.5,24.2c-0.3,0.3-0.3,0.7,0,1l22.5,23.7c0.3,0.3,0,0.7-0.4,0.7l-8.4,0
							c-0.1,0-0.3-0.1-0.4-0.1l-23.3-24c-0.4-0.4-0.4-1,0-1.4l22.8-24.1c0.2-0.2,0.6-0.4,0.9-0.4l8.4,0
							C594.1,300.1,594.2,300.4,594.1,300.5z"/>
						<path class="st1" d="M626.9,300.3l-22.5,24.2c-0.3,0.3-0.3,0.7,0,1l22.5,23.7c0.3,0.3,0,0.7-0.4,0.7l-8.4,0
							c-0.1,0-0.3-0.1-0.4-0.1l-23.3-24c-0.4-0.4-0.4-1,0-1.4l22.8-24.1c0.2-0.2,0.6-0.4,0.9-0.4l8.4,0
							C626.9,299.9,627.1,300.2,626.9,300.3z"/>
						<path class="st1" d="M659.8,300.2l-22.5,24.2c-0.3,0.3-0.3,0.7,0,1l22.5,23.7c0.3,0.3,0,0.7-0.4,0.7l-8.4,0
							c-0.1,0-0.3-0.1-0.4-0.1l-23.3-24c-0.4-0.4-0.4-1,0-1.4l22.8-24.1c0.2-0.2,0.6-0.4,0.9-0.4l8.4,0
							C659.8,299.8,659.9,300,659.8,300.2z"/>
					</g>
				</g>
			</g>
			<g>
				<g>
					<defs>
						<path id="SVGID_3_" d="M658.4,82.9l-0.1-19.8c-0.1-8.3-6.8-15-15.2-15l-133.7,0.8c-8.3,0-15.1,6.8-15,15.2l0.1,19.8
							c0.1,8.3,6.8,15,15.2,15l133.7-0.8C651.7,98.1,658.4,91.3,658.4,82.9z"/>
					</defs>
					<clipPath id="SVGID_4_">
						<use xlink:href="#SVGID_3_"  style="overflow:visible;"/>
					</clipPath>
					<path class="st13" d="M658.4,82.9l-0.1-19.8c-0.1-8.3-6.8-15-15.2-15l-133.7,0.8c-8.3,0-15.1,6.8-15,15.2l0.1,19.8
						c0.1,8.3,6.8,15,15.2,15l133.7-0.8C651.7,98.1,658.4,91.3,658.4,82.9z"/>
					<g class="st14">
						<path class="st1" d="M527,98.8l-22.8-24c-0.3-0.3-0.3-0.7,0-1l22.2-24c0.3-0.3,0-0.7-0.4-0.7l-8.4,0c-0.1,0-0.3,0.1-0.4,0.2
							l-23,24.3c-0.4,0.4-0.4,1,0,1.4l23.1,23.8c0.2,0.2,0.6,0.4,0.9,0.4l8.4,0C527,99.2,527.2,98.9,527,98.8z"/>
						<path class="st1" d="M559.9,98.6l-22.8-24c-0.3-0.3-0.3-0.7,0-1l22.2-24c0.3-0.3,0-0.7-0.4-0.7l-8.4,0c-0.1,0-0.3,0.1-0.4,0.2
							l-23,24.3c-0.4,0.4-0.4,1,0,1.4l23.1,23.8c0.2,0.2,0.6,0.4,0.9,0.4l8.4,0C559.9,99,560,98.7,559.9,98.6z"/>
						<path class="st1" d="M592.7,98.4l-22.8-24c-0.3-0.3-0.3-0.7,0-1l22.2-24c0.3-0.3,0-0.7-0.4-0.7l-8.4,0c-0.1,0-0.3,0.1-0.4,0.2
							l-23,24.3c-0.4,0.4-0.4,1,0,1.4l23.1,23.8c0.2,0.2,0.6,0.4,0.9,0.4l8.4,0C592.7,98.8,592.9,98.6,592.7,98.4z"/>
						<path class="st1" d="M625.6,98.2l-22.8-24c-0.3-0.3-0.3-0.7,0-1l22.2-24c0.3-0.3,0-0.7-0.4-0.7l-8.4,0c-0.1,0-0.3,0.1-0.4,0.2
							l-23,24.3c-0.4,0.4-0.4,1,0,1.4L616,98.3c0.2,0.2,0.6,0.4,0.9,0.4l8.4,0C625.6,98.6,625.8,98.4,625.6,98.2z"/>
						<path class="st1" d="M658.5,98l-22.8-24c-0.3-0.3-0.3-0.7,0-1l22.2-24c0.3-0.3,0-0.7-0.4-0.7l-8.4,0c-0.1,0-0.3,0.1-0.4,0.2
							l-23,24.3c-0.4,0.4-0.4,1,0,1.4l23.1,23.8c0.2,0.2,0.6,0.4,0.9,0.4l8.4,0C658.5,98.4,658.6,98.2,658.5,98z"/>
					</g>
				</g>
			</g>
		</g>
		<path class="st1" d="M267,268.4l0.1,11.6c0,1.3-1,2.4-2.3,2.4l-17.8,0.1c-1.3,0-2.4-1-2.4-2.3l-0.1-11.6c0-1.3,1-2.4,2.3-2.4
			l17.8-0.1C266,266.1,267,267.1,267,268.4z"/>
		<g>
			<path class="st9" d="M271.1,285.2l0,6.4c0,1.5-1.2,2.8-2.8,2.8l-26.5,0.2c-1.5,0-2.8-1.2-2.8-2.8l0-6.4c0-1.5,1.2-2.8,2.8-2.8
				l26.5-0.2C269.8,282.4,271.1,283.6,271.1,285.2z"/>
			<path class="st1" d="M265.8,285.8l0,5.2c0,1.8-1.5,3.4-3.3,3.4l-14.8,0.1c-1.8,0-3.4-1.5-3.4-3.3l0-5.2c0-1.8,1.5-3.4,3.3-3.4
				l14.8-0.1C264.3,282.4,265.8,283.9,265.8,285.8z"/>
		</g>
		<g>
			<path class="st9" d="M270.9,256.9l0,6.4c0,1.5-1.2,2.8-2.8,2.8l-26.5,0.2c-1.5,0-2.8-1.2-2.8-2.8l0-6.4c0-1.5,1.2-2.8,2.8-2.8
				l26.5-0.2C269.6,254.1,270.9,255.3,270.9,256.9z"/>
			<path class="st1" d="M265.6,257.5l0,5.2c0,1.8-1.5,3.4-3.3,3.4l-14.8,0.1c-1.8,0-3.4-1.5-3.4-3.3l0-5.2c0-1.8,1.5-3.4,3.3-3.4
				l14.8-0.1C264.1,254.1,265.6,255.6,265.6,257.5z"/>
		</g>
		<g>
			<g>
				<g>
					
						<rect x="332.9" y="179" transform="matrix(-1 5.683606e-03 -5.683606e-03 -1 682.1193 362.6056)" class="st15" width="15.3" height="6.6"/>
					<g class="st16">
						<path class="st17" d="M334,183.5l0-1.7c0-0.5,0.4-0.9,0.9-0.9l11.3-0.1c0.5,0,0.9,0.4,0.9,0.9l0,1.7c0,0.5-0.4,0.9-0.9,0.9
							l-11.3,0.1C334.4,184.4,334,184,334,183.5z"/>
						<path class="st1" d="M335.9,183.5l0-1.7c0-0.5,0.4-0.9,0.9-0.9l7.5,0c0.5,0,0.9,0.4,0.9,0.9l0,1.7c0,0.5-0.4,0.9-0.9,0.9
							l-7.5,0C336.3,184.4,335.9,184,335.9,183.5z"/>
						<g class="st16">
							<path class="st1" d="M335.4,183.3c0.4,0,0.6-0.3,0.6-0.6c0-0.3-0.3-0.6-0.6-0.6c-0.2,0-0.4,0.1-0.6,0.3l-0.8-0.2l0,1.1
								l0.8-0.3C334.9,183.2,335.1,183.3,335.4,183.3z"/>
							<path class="st1" d="M345.7,183.2c-0.4,0-0.6-0.3-0.7-0.6s0.3-0.6,0.6-0.6c0.2,0,0.4,0.1,0.6,0.3l0.8-0.3l0,1.1l-0.8-0.3
								C346.2,183,346,183.2,345.7,183.2z"/>
						</g>
					</g>
				</g>
				<g>
					
						<rect x="332.9" y="171.8" transform="matrix(-1 5.683606e-03 -5.683606e-03 -1 681.9839 348.2918)" class="st15" width="15.3" height="6.6"/>
					<g class="st16">
						<path class="st17" d="M333.9,176.4l0-1.7c0-0.5,0.4-0.9,0.9-0.9l11.3-0.1c0.5,0,0.9,0.4,0.9,0.9l0,1.7c0,0.5-0.4,0.9-0.9,0.9
							l-11.3,0.1C334.3,177.2,333.9,176.8,333.9,176.4z"/>
						<path class="st1" d="M335.8,176.4l0-1.7c0-0.5,0.4-0.9,0.9-0.9l7.5,0c0.5,0,0.9,0.4,0.9,0.9l0,1.7c0,0.5-0.4,0.9-0.9,0.9
							l-7.5,0C336.2,177.2,335.8,176.8,335.8,176.4z"/>
						<g class="st16">
							<path class="st1" d="M335.3,176.2c0.4,0,0.6-0.3,0.6-0.6s-0.3-0.6-0.6-0.6c-0.2,0-0.4,0.1-0.6,0.3l-0.8-0.2l0,1.1l0.8-0.3
								C334.8,176,335,176.2,335.3,176.2z"/>
							<path class="st1" d="M345.7,176c-0.4,0-0.6-0.3-0.7-0.6s0.3-0.6,0.6-0.6c0.2,0,0.4,0.1,0.6,0.3l0.8-0.3l0,1.1l-0.8-0.3
								C346.2,175.8,346,176,345.7,176z"/>
						</g>
					</g>
				</g>
			</g>
			<g>
				<g>
					
						<rect x="332.6" y="139.6" transform="matrix(-1 5.683606e-03 -5.683606e-03 -1 681.2028 283.9357)" class="st15" width="15.3" height="6.6"/>
					<g class="st16">
						<path class="st17" d="M333.6,144.2l0-1.7c0-0.5,0.4-0.9,0.9-0.9l11.3-0.1c0.5,0,0.9,0.4,0.9,0.9l0,1.7c0,0.5-0.4,0.9-0.9,0.9
							l-11.3,0.1C334,145,333.6,144.7,333.6,144.2z"/>
						<path class="st1" d="M335.5,144.2l0-1.7c0-0.5,0.4-0.9,0.9-0.9l7.5,0c0.5,0,0.9,0.4,0.9,0.9l0,1.7c0,0.5-0.4,0.9-0.9,0.9
							l-7.5,0C335.9,145,335.5,144.6,335.5,144.2z"/>
						<g class="st16">
							<path class="st1" d="M335,144c0.4,0,0.6-0.3,0.6-0.6c0-0.3-0.3-0.6-0.6-0.6c-0.2,0-0.4,0.1-0.6,0.3l-0.8-0.2l0,1.1l0.8-0.3
								C334.5,143.8,334.7,144,335,144z"/>
							<path class="st1" d="M345.4,143.8c-0.4,0-0.6-0.3-0.7-0.6c0-0.3,0.3-0.6,0.6-0.6c0.2,0,0.4,0.1,0.6,0.3l0.8-0.3l0,1.1
								l-0.8-0.3C345.9,143.7,345.7,143.8,345.4,143.8z"/>
						</g>
					</g>
				</g>
				<g>
					
						<rect x="332.5" y="132.5" transform="matrix(-1 5.683606e-03 -5.683606e-03 -1 681.0674 269.6219)" class="st15" width="15.3" height="6.6"/>
					<g class="st16">
						<path class="st17" d="M333.6,137l0-1.7c0-0.5,0.4-0.9,0.9-0.9l11.3-0.1c0.5,0,0.9,0.4,0.9,0.9l0,1.7c0,0.5-0.4,0.9-0.9,0.9
							l-11.3,0.1C334,137.9,333.6,137.5,333.6,137z"/>
						<path class="st1" d="M335.5,137l0-1.7c0-0.5,0.4-0.9,0.9-0.9l7.5,0c0.5,0,0.9,0.4,0.9,0.9l0,1.7c0,0.5-0.4,0.9-0.9,0.9l-7.5,0
							C335.9,137.9,335.5,137.5,335.5,137z"/>
						<g class="st16">
							<path class="st1" d="M335,136.8c0.4,0,0.6-0.3,0.6-0.6c0-0.3-0.3-0.6-0.6-0.6c-0.2,0-0.4,0.1-0.6,0.3l-0.8-0.2l0,1.1l0.8-0.3
								C334.5,136.7,334.7,136.8,335,136.8z"/>
							<path class="st1" d="M345.4,136.7c-0.4,0-0.6-0.3-0.7-0.6c0-0.3,0.3-0.6,0.6-0.6c0.2,0,0.4,0.1,0.6,0.3l0.8-0.3l0,1.1
								l-0.8-0.3C345.9,136.5,345.6,136.7,345.4,136.7z"/>
						</g>
					</g>
				</g>
			</g>
		</g>
		<g>
			<g>
				<g>
					
						<rect x="236.1" y="188.1" transform="matrix(-1 5.683606e-03 -5.683606e-03 -1 488.5068 381.4454)" class="st15" width="15.3" height="6.6"/>
					<g class="st16">
						<path class="st17" d="M237.1,192.7l0-1.7c0-0.5,0.4-0.9,0.9-0.9l11.3-0.1c0.5,0,0.9,0.4,0.9,0.9l0,1.7c0,0.5-0.4,0.9-0.9,0.9
							l-11.3,0.1C237.5,193.5,237.1,193.1,237.1,192.7z"/>
						<path class="st1" d="M239,192.7l0-1.7c0-0.5,0.4-0.9,0.9-0.9l7.5,0c0.5,0,0.9,0.4,0.9,0.9l0,1.7c0,0.5-0.4,0.9-0.9,0.9l-7.5,0
							C239.5,193.5,239,193.1,239,192.7z"/>
						<g class="st16">
							<path class="st1" d="M238.5,192.5c0.4,0,0.6-0.3,0.6-0.6c0-0.3-0.3-0.6-0.6-0.6c-0.2,0-0.4,0.1-0.6,0.3l-0.8-0.2l0,1.1
								l0.8-0.3C238,192.3,238.3,192.5,238.5,192.5z"/>
							<path class="st1" d="M248.9,192.3c-0.4,0-0.6-0.3-0.7-0.6c0-0.3,0.3-0.6,0.6-0.6c0.2,0,0.4,0.1,0.6,0.3l0.8-0.3l0,1.1
								l-0.8-0.3C249.4,192.1,249.2,192.3,248.9,192.3z"/>
						</g>
					</g>
				</g>
				<g>
					
						<rect x="236" y="181" transform="matrix(-1 5.683606e-03 -5.683606e-03 -1 488.3715 367.1316)" class="st15" width="15.3" height="6.6"/>
					<g class="st16">
						<path class="st17" d="M237.1,185.5l0-1.7c0-0.5,0.4-0.9,0.9-0.9l11.3-0.1c0.5,0,0.9,0.4,0.9,0.9l0,1.7c0,0.5-0.4,0.9-0.9,0.9
							l-11.3,0.1C237.5,186.4,237.1,186,237.1,185.5z"/>
						<path class="st1" d="M239,185.5l0-1.7c0-0.5,0.4-0.9,0.9-0.9l7.5,0c0.5,0,0.9,0.4,0.9,0.9l0,1.7c0,0.5-0.4,0.9-0.9,0.9l-7.5,0
							C239.4,186.4,239,186,239,185.5z"/>
						<g class="st16">
							<path class="st1" d="M238.5,185.3c0.4,0,0.6-0.3,0.6-0.6c0-0.3-0.3-0.6-0.6-0.6c-0.2,0-0.4,0.1-0.6,0.3l-0.8-0.2l0,1.1
								l0.8-0.3C238,185.2,238.2,185.3,238.5,185.3z"/>
							<path class="st1" d="M248.9,185.1c-0.4,0-0.6-0.3-0.7-0.6s0.3-0.6,0.6-0.6c0.2,0,0.4,0.1,0.6,0.3l0.8-0.3l0,1.1l-0.8-0.3
								C249.4,185,249.1,185.1,248.9,185.1z"/>
						</g>
					</g>
				</g>
			</g>
			<g>
				<g>
					
						<rect x="235.9" y="169.1" transform="matrix(-1 5.683606e-03 -5.683606e-03 -1 487.9746 343.4158)" class="st15" width="15.3" height="6.6"/>
					<g class="st16">
						<path class="st17" d="M236.9,173.6l0-1.7c0-0.5,0.4-0.9,0.9-0.9l11.3-0.1c0.5,0,0.9,0.4,0.9,0.9l0,1.7c0,0.5-0.4,0.9-0.9,0.9
							l-11.3,0.1C237.3,174.5,236.9,174.1,236.9,173.6z"/>
						<path class="st1" d="M238.8,173.6l0-1.7c0-0.5,0.4-0.9,0.9-0.9l7.5,0c0.5,0,0.9,0.4,0.9,0.9l0,1.7c0,0.5-0.4,0.9-0.9,0.9
							l-7.5,0C239.3,174.5,238.8,174.1,238.8,173.6z"/>
						<g class="st16">
							<path class="st1" d="M238.3,173.5c0.4,0,0.6-0.3,0.6-0.6s-0.3-0.6-0.6-0.6c-0.2,0-0.4,0.1-0.6,0.3l-0.8-0.2l0,1.1l0.8-0.3
								C237.8,173.3,238,173.5,238.3,173.5z"/>
							<path class="st1" d="M248.7,173.3c-0.4,0-0.6-0.3-0.7-0.6s0.3-0.6,0.6-0.6c0.2,0,0.4,0.1,0.6,0.3l0.8-0.3l0,1.1l-0.8-0.3
								C249.2,173.1,249,173.3,248.7,173.3z"/>
						</g>
					</g>
				</g>
				<g>
					
						<rect x="235.8" y="161.9" transform="matrix(-1 5.683606e-03 -5.683606e-03 -1 487.8392 329.102)" class="st15" width="15.3" height="6.6"/>
					<g class="st16">
						<path class="st17" d="M236.9,166.5l0-1.7c0-0.5,0.4-0.9,0.9-0.9l11.3-0.1c0.5,0,0.9,0.4,0.9,0.9l0,1.7c0,0.5-0.4,0.9-0.9,0.9
							l-11.3,0.1C237.3,167.4,236.9,167,236.9,166.5z"/>
						<path class="st1" d="M238.8,166.5l0-1.7c0-0.5,0.4-0.9,0.9-0.9l7.5,0c0.5,0,0.9,0.4,0.9,0.9l0,1.7c0,0.5-0.4,0.9-0.9,0.9
							l-7.5,0C239.2,167.3,238.8,167,238.8,166.5z"/>
						<g class="st16">
							<path class="st1" d="M238.3,166.3c0.4,0,0.6-0.3,0.6-0.6s-0.3-0.6-0.6-0.6c-0.2,0-0.4,0.1-0.6,0.3l-0.8-0.2l0,1.1l0.8-0.3
								C237.8,166.2,238,166.3,238.3,166.3z"/>
							<path class="st1" d="M248.7,166.1c-0.4,0-0.6-0.3-0.7-0.6s0.3-0.6,0.6-0.6c0.2,0,0.4,0.1,0.6,0.3l0.8-0.3l0,1.1l-0.8-0.3
								C249.2,166,248.9,166.1,248.7,166.1z"/>
						</g>
					</g>
				</g>
			</g>
		</g>
		<g>
			<g>
				<path class="st9" d="M376.2,150.3l0.3,42.9c0,1-0.8,1.9-1.8,1.9l-4.8,0c-1,0-1.9-0.8-1.9-1.8l-0.3-42.9c0-1,0.8-1.9,1.8-1.9
					l4.8,0C375.4,148.4,376.2,149.3,376.2,150.3z"/>
				<path class="st1" d="M375,188l0,4.1c0,0.4-0.3,0.8-0.8,0.8l-4.5,0c-0.4,0-0.8-0.3-0.8-0.8l0-4.1c0-0.4,0.3-0.8,0.8-0.8l4.5,0
					C374.7,187.2,375,187.6,375,188z"/>
				<path class="st1" d="M375,180.7l0,4.1c0,0.4-0.3,0.8-0.8,0.8l-4.5,0c-0.4,0-0.8-0.3-0.8-0.8l0-4.1c0-0.4,0.3-0.8,0.8-0.8l4.5,0
					C374.6,179.9,375,180.3,375,180.7z"/>
				<path class="st1" d="M375.3,173.4l0,4.1c0,0.4-0.3,0.8-0.8,0.8l-4.5,0c-0.4,0-0.8-0.3-0.8-0.8l0-4.1c0-0.4,0.3-0.8,0.8-0.8
					l4.5,0C375,172.7,375.3,173,375.3,173.4z"/>
				<path class="st1" d="M375.3,166.2l0,4.1c0,0.4-0.3,0.8-0.8,0.8l-4.5,0c-0.4,0-0.8-0.3-0.8-0.8l0-4.1c0-0.4,0.3-0.8,0.8-0.8
					l4.5,0C374.9,165.4,375.3,165.7,375.3,166.2z"/>
				<path class="st1" d="M375.2,158.9l0,4.1c0,0.4-0.3,0.8-0.8,0.8l-4.5,0c-0.4,0-0.8-0.3-0.8-0.8l0-4.1c0-0.4,0.3-0.8,0.8-0.8
					l4.5,0C374.9,158.1,375.2,158.5,375.2,158.9z"/>
				<path class="st1" d="M375.2,151.6l0,4.1c0,0.4-0.3,0.8-0.8,0.8l-4.5,0c-0.4,0-0.8-0.3-0.8-0.8l0-4.1c0-0.4,0.3-0.8,0.8-0.8
					l4.5,0C374.8,150.9,375.2,151.2,375.2,151.6z"/>
			</g>
			<g>
				<path class="st9" d="M375.9,101.9l0.3,42.9c0,1-0.8,1.9-1.8,1.9l-4.8,0c-1,0-1.9-0.8-1.9-1.8l-0.3-42.9c0-1,0.8-1.9,1.8-1.9
					l4.8,0C375,100.1,375.9,100.9,375.9,101.9z"/>
				<path class="st1" d="M374.7,139.6l0,4.1c0,0.4-0.3,0.8-0.8,0.8l-4.5,0c-0.4,0-0.8-0.3-0.8-0.8l0-4.1c0-0.4,0.3-0.8,0.8-0.8
					l4.5,0C374.4,138.9,374.7,139.2,374.7,139.6z"/>
				<path class="st1" d="M374.7,132.4l0,4.1c0,0.4-0.3,0.8-0.8,0.8l-4.5,0c-0.4,0-0.8-0.3-0.8-0.8l0-4.1c0-0.4,0.3-0.8,0.8-0.8
					l4.5,0C374.3,131.6,374.7,131.9,374.7,132.4z"/>
				<path class="st1" d="M375,125.1l0,4.1c0,0.4-0.3,0.8-0.8,0.8l-4.5,0c-0.4,0-0.8-0.3-0.8-0.8l0-4.1c0-0.4,0.3-0.8,0.8-0.8l4.5,0
					C374.6,124.3,375,124.7,375,125.1z"/>
				<path class="st1" d="M374.9,117.8l0,4.1c0,0.4-0.3,0.8-0.8,0.8l-4.5,0c-0.4,0-0.8-0.3-0.8-0.8l0-4.1c0-0.4,0.3-0.8,0.8-0.8
					l4.5,0C374.6,117,374.9,117.4,374.9,117.8z"/>
				<path class="st1" d="M374.9,110.5l0,4.1c0,0.4-0.3,0.8-0.8,0.8l-4.5,0c-0.4,0-0.8-0.3-0.8-0.8l0-4.1c0-0.4,0.3-0.8,0.8-0.8
					l4.5,0C374.5,109.8,374.9,110.1,374.9,110.5z"/>
				<path class="st1" d="M374.8,103.3l0,4.1c0,0.4-0.3,0.8-0.8,0.8l-4.5,0c-0.4,0-0.8-0.3-0.8-0.8l0-4.1c0-0.4,0.3-0.8,0.8-0.8
					l4.5,0C374.5,102.5,374.8,102.8,374.8,103.3z"/>
			</g>
		</g>
		<path class="st1" d="M392.4,330.1c0,6.2,5.5,11.1,12.1,11.1c6.7,0,12-5.1,12-11.2s-5.5-11.1-12.1-11.1
			C397.7,318.9,392.3,323.9,392.4,330.1z M410.3,330c0,3-2.6,5.4-5.8,5.5c-3.2,0-5.9-2.4-5.9-5.4c0-3,2.6-5.4,5.8-5.5
			C407.6,324.6,410.3,327,410.3,330z"/>
		<path class="st1" d="M390.7,69.5c0,6.2,5.5,11.1,12.1,11.1c6.7,0,12-5.1,12-11.2s-5.5-11.1-12.1-11.1
			C396,58.3,390.6,63.4,390.7,69.5z M408.6,69.4c0,3-2.6,5.4-5.8,5.5c-3.2,0-5.9-2.4-5.9-5.4c0-3,2.6-5.4,5.8-5.5
			C405.9,64,408.5,66.4,408.6,69.4z"/>
		<g>
			<g>
				<path class="st1" d="M586.5,242.4l6.1,4.7c0.2,0.1,0.4,0.1,0.6-0.1l19.7-22.1c0.2-0.2,0.2-0.5,0-0.6l-6.1-4.7
					c-0.2-0.1-0.4-0.1-0.6,0.1l-19.7,22.1C586.3,242,586.3,242.3,586.5,242.4z M606.1,228.3l-10.5,11.9c-0.2,0.2-0.5,0.3-0.6,0.1
					l-1.6-1.3c-0.2-0.1-0.2-0.4,0-0.6l10.5-11.9c0.2-0.2,0.5-0.3,0.6-0.1l1.6,1.3C606.2,227.8,606.2,228.1,606.1,228.3z"/>
				<path class="st1" d="M613.5,222.9l-1.3,1.5c-0.1,0.2-0.4,0.2-0.6,0l-4.7-3.6c-0.2-0.1-0.2-0.4-0.1-0.5l1.3-1.5
					c0.1-0.2,0.4-0.2,0.6,0l4.7,3.6C613.6,222.5,613.6,222.7,613.5,222.9z"/>
				<path class="st1" d="M591.2,247.9l1.3-1.5c0.1-0.2,0.1-0.4-0.1-0.5l-4.7-3.6c-0.2-0.1-0.4-0.1-0.6,0l-1.3,1.5
					c-0.1,0.2-0.1,0.4,0.1,0.5l4.7,3.6C590.8,248.1,591.1,248.1,591.2,247.9z"/>
				<g>
					<polygon class="st1" points="594.3,237.5 596.3,239 596.5,238.8 594.5,237.3 					"/>
					<polygon class="st1" points="594.6,237.1 596.7,238.6 596.8,238.5 594.8,236.9 					"/>
					<polygon class="st1" points="594,237.8 596,239.4 596.2,239.2 594.1,237.6 					"/>
					<path class="st1" d="M594,239.2l0.6,0.4c0.3,0.2,0.6,0.3,0.9,0.3l-1.9-1.4C593.6,238.7,593.7,239,594,239.2z"/>
					<path class="st1" d="M593.7,238.2C593.7,238.2,593.7,238.2,593.7,238.2l2,1.6c0,0,0,0,0,0l0.1-0.2l-2-1.6L593.7,238.2z"/>
					<path class="st1" d="M595.4,236.4l1.9,1.4c0-0.2-0.2-0.5-0.4-0.7l-0.6-0.4C596,236.5,595.6,236.4,595.4,236.4z"/>
					<path class="st1" d="M595.1,236.6l-0.1,0.2l2,1.6l0.1-0.2c0,0,0,0,0,0L595.1,236.6C595.1,236.6,595.1,236.6,595.1,236.6z"/>
				</g>
			</g>
			<g>
				<path class="st1" d="M611.8,157.5l-22.2-19.9c-0.2-0.2-0.5-0.2-0.6-0.1l-5.5,5.3c-0.2,0.1-0.1,0.4,0.1,0.6l22.2,19.9
					c0.2,0.2,0.5,0.2,0.6,0.1l5.5-5.3C612.1,157.9,612,157.6,611.8,157.5z M590.6,145.5l1.5-1.4c0.2-0.1,0.4-0.1,0.6,0.1l11.9,10.7
					c0.2,0.2,0.2,0.4,0.1,0.6l-1.5,1.4c-0.2,0.1-0.4,0.1-0.6-0.1L590.7,146C590.5,145.9,590.5,145.6,590.6,145.5z"/>
				<path class="st1" d="M582.7,141.5l1.5,1.3c0.2,0.1,0.4,0.1,0.6,0l4.3-4.1c0.2-0.1,0.1-0.4,0-0.5l-1.5-1.3
					c-0.2-0.1-0.4-0.1-0.6,0l-4.3,4.1C582.5,141.1,582.5,141.3,582.7,141.5z"/>
				<path class="st1" d="M607.8,164l-1.5-1.3c-0.2-0.1-0.2-0.4,0-0.5l4.3-4.1c0.2-0.1,0.4-0.1,0.6,0l1.5,1.3c0.2,0.1,0.2,0.4,0,0.5
					l-4.3,4.1C608.2,164.2,608,164.2,607.8,164z"/>
				<g>
					<polygon class="st1" points="603.5,153.9 601.7,155.7 601.5,155.5 603.3,153.8 					"/>
					<polygon class="st1" points="603.1,153.6 601.3,155.4 601.1,155.2 603,153.4 					"/>
					<polygon class="st1" points="603.9,154.3 602,156 601.9,155.9 603.7,154.1 					"/>
					<path class="st1" d="M604,155.6l-0.5,0.5c-0.3,0.2-0.6,0.4-0.8,0.3l1.7-1.6C604.4,155.1,604.3,155.4,604,155.6z"/>
					<path class="st1" d="M604.2,154.6C604.2,154.6,604.2,154.6,604.2,154.6l-1.8,1.8c0,0,0,0,0,0l-0.2-0.1l1.8-1.8L604.2,154.6z"/>
					<path class="st1" d="M602.3,153l-1.7,1.6c0-0.2,0.1-0.5,0.3-0.8l0.5-0.5C601.7,153.1,602.1,153,602.3,153z"/>
					<path class="st1" d="M602.6,153.1l0.2,0.1l-1.8,1.8l-0.2-0.1c0,0,0,0,0,0L602.6,153.1C602.6,153.1,602.6,153.1,602.6,153.1z"/>
				</g>
			</g>
		</g>
		<g>
			<ellipse class="st9" cx="523.1" cy="120.3" rx="10.1" ry="9.4"/>
			<g>
				<path class="st1" d="M525,113.8l0.1,12.9c0,0.8-0.6,1.4-1.4,1.4l-1.1,0c-0.8,0-1.4-0.6-1.4-1.4l-0.1-12.9c0-0.8,0.6-1.4,1.4-1.4
					l1.1,0C524.3,112.4,525,113.1,525,113.8z"/>
				<path class="st1" d="M516,118.5l14.1-0.1c0.8,0,1.4,0.6,1.4,1.4l0,0.8c0,0.8-0.6,1.4-1.4,1.4l-14.1,0.1c-0.8,0-1.4-0.6-1.4-1.4
					l0-0.8C514.6,119.2,515.2,118.5,516,118.5z"/>
			</g>
		</g>
		<g>
			<ellipse class="st9" cx="544.6" cy="279.8" rx="10.1" ry="9.4"/>
			<g>
				<path class="st1" d="M546.5,273.3l0.1,12.9c0,0.8-0.6,1.4-1.4,1.4l-1.1,0c-0.8,0-1.4-0.6-1.4-1.4l-0.1-12.9
					c0-0.8,0.6-1.4,1.4-1.4l1.1,0C545.8,271.9,546.5,272.6,546.5,273.3z"/>
				<path class="st1" d="M537.5,278l14.1-0.1c0.8,0,1.4,0.6,1.4,1.4l0,0.8c0,0.8-0.6,1.4-1.4,1.4l-14.1,0.1c-0.8,0-1.4-0.6-1.4-1.4
					l0-0.8C536.1,278.7,536.7,278,537.5,278z"/>
			</g>
		</g>
		<path class="st7" d="M422.2,357.5l115.3-0.7c7.3,0,13.7-4.8,15.5-11.6c6.7-25.5,28.4-88.1,88.6-134c3-2.3,4.8-5.8,4.8-9.5
			l-0.2-24.8c0-3.9-2.1-7.6-5.5-9.9c-18.2-11.9-76.7-53.8-94.6-113.3c-2-6.6-8.3-11.2-15.6-11.2l-110.5,0.6L422.2,357.5z
			 M577.1,192.2c0,5.4-4.7,9.8-10.5,9.9c-5.8,0-10.6-4.3-10.6-9.7s4.7-9.8,10.5-9.9C572.3,182.4,577.1,186.8,577.1,192.2z"/>
		<g>
			<line class="st7" x1="170.4" y1="328.1" x2="164.4" y2="78.2"/>
			<g>
				<g>
					<path class="st1" d="M155.8,265l0,6c0,2.1-1.7,3.9-3.8,3.9l-21.9,0.1c-2.1,0-3.9-1.7-3.9-3.8l0-6c0-2.1,1.7-3.9,3.8-3.9
						l21.9-0.1C154,261.1,155.8,262.9,155.8,265z"/>
					<path class="st1" d="M145.3,233.5l0,6c0,2.1-1.7,3.9-3.8,3.9l-21.9,0.1c-2.1,0-3.9-1.7-3.9-3.8l0-6c0-2.1,1.7-3.9,3.8-3.9
						l21.9-0.1C143.5,229.6,145.3,231.4,145.3,233.5z"/>
				</g>
				<g>
					<path class="st1" d="M155,141.4l0-6c0-2.1-1.8-3.9-3.9-3.8l-21.9,0.1c-2.1,0-3.9,1.8-3.8,3.9l0,6c0,2.1,1.8,3.9,3.9,3.8
						l21.9-0.1C153.3,145.3,155,143.6,155,141.4z"/>
					<path class="st1" d="M144.9,173l0-6c0-2.1-1.8-3.9-3.9-3.8l-21.9,0.1c-2.1,0-3.9,1.8-3.8,3.9l0,6c0,2.1,1.8,3.9,3.9,3.8
						l21.9-0.1C143.2,176.9,144.9,175.2,144.9,173z"/>
				</g>
				<path class="st1" d="M131.8,200.4l0,6c0,2.1-1.7,3.9-3.8,3.9l-21.9,0.1c-2.1,0-3.9-1.7-3.9-3.8l0-6c0-2.1,1.7-3.9,3.8-3.9
					l21.9-0.1C130.1,196.5,131.8,198.2,131.8,200.4z"/>
			</g>
		</g>
	</g>
</g>
</svg>
