<?xml version="1.0" encoding="utf-8"?>
<!-- Generator: Adobe Illustrator 22.0.0, SVG Export Plug-In . SVG Version: 6.00 Build 0)  -->
<svg version="1.1" id="图层_1" xmlns="http://www.w3.org/2000/svg" xmlns:xlink="http://www.w3.org/1999/xlink" x="0px" y="0px"
	 viewBox="0 0 740 400" style="enable-background:new 0 0 740 400;" xml:space="preserve">
<style type="text/css">
	.st0{fill:none;stroke:#FFFFFF;stroke-width:12;stroke-miterlimit:10;}
	.st1{fill:#FFFFFF;}
	.st2{fill:none;stroke:#FFFFFF;stroke-width:16.788;stroke-miterlimit:10;}
	.st3{fill:none;stroke:#FFFFFF;stroke-width:8.394;stroke-miterlimit:10;}
	.st4{fill:none;stroke:#FFFFFF;stroke-width:18.563;stroke-miterlimit:10;}
	.st5{fill:none;stroke:#FFFFFF;stroke-width:13.435;stroke-miterlimit:10;}
	.st6{fill:none;stroke:#FFFFFF;stroke-width:5.007;stroke-miterlimit:10;}
	.st7{fill:none;stroke:#FFFFFF;stroke-width:5;stroke-linecap:round;stroke-linejoin:round;stroke-miterlimit:10;}
	.st8{opacity:0.6;}
	.st9{clip-path:url(#SVGID_2_);fill:#FFFFFF;}
	.st10{fill:none;stroke:#FFFFFF;stroke-width:6;stroke-linecap:round;stroke-linejoin:round;stroke-miterlimit:10;}
	.st11{fill:none;stroke:#FFFFFF;stroke-width:5.547;stroke-linecap:round;stroke-linejoin:round;stroke-miterlimit:10;}
	
		.st12{clip-path:url(#SVGID_4_);fill:none;stroke:#FFFFFF;stroke-width:5.547;stroke-linecap:round;stroke-linejoin:round;stroke-miterlimit:10;}
</style>
<g>
	<path class="st0" d="M-1926.9-4685h-15.6c-4.1,0-7.4-3.3-7.4-7.4v-58.1c0-4.1,3.3-7.4,7.4-7.4h15.6c4.1,0,7.4,3.3,7.4,7.4v58.1
		C-1919.5-4688.3-1922.8-4685-1926.9-4685z"/>
	<path class="st1" d="M-2110.1-4814.7h-256.6c-3.4,0-6.1-2.7-6.1-6.1c0-3.4,2.7-6.1,6.1-6.1h256.6c3.4,0,6.1,2.7,6.1,6.1
		C-2104.1-4817.5-2106.8-4814.7-2110.1-4814.7"/>
	<path class="st1" d="M-2087.4-4820.8c0,4.6-3.7,8.3-8.3,8.3c-4.6,0-8.3-3.7-8.3-8.3s3.7-8.3,8.3-8.3
		C-2091.1-4829.2-2087.4-4825.4-2087.4-4820.8"/>
	<path class="st1" d="M-2110.1-4792h-256.6c-3.4,0-6.1-2.7-6.1-6.1s2.7-6.1,6.1-6.1h256.6c3.4,0,6.1,2.7,6.1,6.1
		S-2106.8-4792-2110.1-4792"/>
	<path class="st1" d="M-2087.4-4798c0,4.6-3.7,8.3-8.3,8.3c-4.6,0-8.3-3.7-8.3-8.3s3.7-8.3,8.3-8.3
		C-2091.1-4806.4-2087.4-4802.7-2087.4-4798"/>
	<path class="st1" d="M-2110.1-4769.2h-256.6c-3.4,0-6.1-2.7-6.1-6.1s2.7-6.1,6.1-6.1h256.6c3.4,0,6.1,2.7,6.1,6.1
		S-2106.8-4769.2-2110.1-4769.2"/>
	<path class="st1" d="M-2087.4-4775.3c0,4.6-3.7,8.3-8.3,8.3c-4.6,0-8.3-3.7-8.3-8.3c0-4.6,3.7-8.4,8.3-8.4
		C-2091.1-4783.6-2087.4-4779.9-2087.4-4775.3"/>
	<path class="st1" d="M-2110.1-4746.4h-256.6c-3.4,0-6.1-2.7-6.1-6.1s2.7-6.1,6.1-6.1h256.6c3.4,0,6.1,2.7,6.1,6.1
		S-2106.8-4746.4-2110.1-4746.4"/>
	<path class="st1" d="M-2087.4-4752.5c0,4.6-3.7,8.4-8.3,8.4c-4.6,0-8.3-3.7-8.3-8.4c0-4.6,3.7-8.3,8.3-8.3
		C-2091.1-4760.9-2087.4-4757.1-2087.4-4752.5"/>
	<path class="st1" d="M-2110.1-4723.7h-256.6c-3.4,0-6.1-2.7-6.1-6.1s2.7-6.1,6.1-6.1h256.6c3.4,0,6.1,2.7,6.1,6.1
		S-2106.8-4723.7-2110.1-4723.7"/>
	<path class="st1" d="M-2087.4-4729.7c0,4.6-3.7,8.3-8.3,8.3c-4.6,0-8.3-3.7-8.3-8.3c0-4.6,3.7-8.3,8.3-8.3
		C-2091.1-4738.1-2087.4-4734.3-2087.4-4729.7"/>
	<path class="st1" d="M-2110.1-4700.9h-256.6c-3.4,0-6.1-2.7-6.1-6.1c0-3.4,2.7-6.1,6.1-6.1h256.6c3.4,0,6.1,2.7,6.1,6.1
		C-2104.1-4703.6-2106.8-4700.9-2110.1-4700.9"/>
	<path class="st1" d="M-2087.4-4707c0,4.6-3.7,8.3-8.3,8.3c-4.6,0-8.3-3.7-8.3-8.3s3.7-8.3,8.3-8.3
		C-2091.1-4715.3-2087.4-4711.6-2087.4-4707"/>
	<path class="st1" d="M-2110.1-4678.1h-256.6c-3.4,0-6.1-2.7-6.1-6.1c0-3.4,2.7-6.1,6.1-6.1h256.6c3.4,0,6.1,2.7,6.1,6.1
		C-2104.1-4680.8-2106.8-4678.1-2110.1-4678.1"/>
	<path class="st1" d="M-2087.4-4684.2c0,4.6-3.7,8.3-8.3,8.3c-4.6,0-8.3-3.7-8.3-8.3c0-4.6,3.7-8.3,8.3-8.3
		C-2091.1-4692.5-2087.4-4688.8-2087.4-4684.2"/>
	<path class="st1" d="M-2110.1-4655.4h-256.6c-3.4,0-6.1-2.7-6.1-6.1s2.7-6.1,6.1-6.1h256.6c3.4,0,6.1,2.7,6.1,6.1
		S-2106.8-4655.4-2110.1-4655.4"/>
	<path class="st1" d="M-2087.4-4661.4c0,4.6-3.7,8.3-8.3,8.3c-4.6,0-8.3-3.7-8.3-8.3c0-4.6,3.7-8.3,8.3-8.3
		C-2091.1-4669.8-2087.4-4666-2087.4-4661.4"/>
	<path class="st1" d="M-2110.1-4632.6h-256.6c-3.4,0-6.1-2.7-6.1-6.1s2.7-6.1,6.1-6.1h256.6c3.4,0,6.1,2.7,6.1,6.1
		S-2106.8-4632.6-2110.1-4632.6"/>
	<path class="st1" d="M-2087.4-4638.7c0,4.6-3.7,8.3-8.3,8.3c-4.6,0-8.3-3.7-8.3-8.3c0-4.6,3.7-8.3,8.3-8.3
		C-2091.1-4647-2087.4-4643.3-2087.4-4638.7"/>
	<path class="st2" d="M-1855.3-4797.2h24.5v-18.8c0-5.4,4.4-9.7,9.7-9.7h89.6c5.4,0,9.7,4.4,9.7,9.7v189.1c0,5.4-4.4,9.7-9.7,9.7
		h-89.6c-5.4,0-9.7-4.4-9.7-9.7v-18.8h-24.5c-5.4,0-9.7-4.4-9.7-9.7v-132.1C-1865.1-4792.8-1860.7-4797.2-1855.3-4797.2z"/>
	<path class="st3" d="M-1785.4-4777.2h14.2c2,0,3.6-1.6,3.6-3.6v-14.2c0-2-1.6-3.6-3.6-3.6h-14.2c-2,0-3.6,1.6-3.6,3.6v14.2
		C-1789-4778.8-1787.4-4777.2-1785.4-4777.2z"/>
	<path class="st3" d="M-1785.4-4732.9h14.2c2,0,3.6-1.6,3.6-3.6v-14.2c0-2-1.6-3.6-3.6-3.6h-14.2c-2,0-3.6,1.6-3.6,3.6v14.2
		C-1789-4734.5-1787.4-4732.9-1785.4-4732.9z"/>
	<path class="st3" d="M-1785.4-4688.6h14.2c2,0,3.6-1.6,3.6-3.6v-14.2c0-2-1.6-3.6-3.6-3.6h-14.2c-2,0-3.6,1.6-3.6,3.6v14.2
		C-1789-4690.2-1787.4-4688.6-1785.4-4688.6z"/>
	<path class="st3" d="M-1785.4-4644.2h14.2c2,0,3.6-1.6,3.6-3.6v-14.2c0-2-1.6-3.6-3.6-3.6h-14.2c-2,0-3.6,1.6-3.6,3.6v14.2
		C-1789-4645.8-1787.4-4644.2-1785.4-4644.2z"/>
	<path class="st4" d="M-1731.8-4562.1h-625.5c-22.6,0-40.9-18.3-40.9-40.9v-261.7c0-22.6,18.3-40.9,40.9-40.9h625.5
		c22.6,0,40.9,18.3,40.9,40.9v261.7C-1690.9-4580.4-1709.2-4562.1-1731.8-4562.1z"/>
</g>
<g>
	<g>
		<path class="st5" d="M22.4,232.8l15.4-0.1l0.1,12.8c0,3.7,2.8,6.6,6.1,6.6l56.1-0.4c3.4,0,6.1-3,6-6.7l-0.9-128.7
			c0-3.7-2.8-6.6-6.1-6.6l-56.1,0.4c-3.4,0-6.1,3-6,6.7l0.1,12.8l-15.4,0.1c-3.4,0-6.1,3-6,6.7l0.6,89.9
			C16.3,229.9,19.1,232.8,22.4,232.8z"/>
		<path class="st6" d="M67.8,218.9l5.5,0c2.2,0,3.9,1.7,3.9,3.9l0,6.7c0,2.2-1.7,3.9-3.9,3.9l-5.5,0c-2.2,0-3.9-1.7-3.9-3.9l0-6.7
			C63.9,220.7,65.7,219,67.8,218.9z"/>
		<path class="st6" d="M67.6,188.8l5.5,0c2.2,0,3.9,1.7,3.9,3.9l0,6.7c0,2.2-1.7,3.9-3.9,3.9l-5.5,0c-2.2,0-3.9-1.7-3.9-3.9l0-6.7
			C63.7,190.5,65.5,188.8,67.6,188.8z"/>
		<path class="st6" d="M67.4,158.6l5.5,0c2.2,0,3.9,1.7,3.9,3.9l0,6.7c0,2.2-1.7,3.9-3.9,3.9l-5.5,0c-2.2,0-3.9-1.7-3.9-3.9l0-6.7
			C63.5,160.4,65.3,158.6,67.4,158.6z"/>
		<path class="st6" d="M67.2,128.4l5.5,0c2.2,0,3.9,1.7,3.9,3.9l0,6.7c0,2.2-1.7,3.9-3.9,3.9l-5.5,0c-2.2,0-3.9-1.7-3.9-3.9l0-6.7
			C63.3,130.2,65.1,128.4,67.2,128.4z"/>
		<path class="st7" d="M645.3,124.4H163c-7.6,0-13.8,6.2-13.8,13.8v85.4c0,7.6,6.2,13.8,13.8,13.8h482.4c7.6,0,13.8-6.2,13.8-13.8
			v-85.4C659.1,130.6,653,124.4,645.3,124.4z M614.6,189c0,6.4-5.2,11.6-11.6,11.6H205.3c-6.4,0-11.6-5.2-11.6-11.6v-16.2
			c0-6.4,5.2-11.6,11.6-11.6H603c6.4,0,11.6,5.2,11.6,11.6V189z"/>
		<g class="st8">
			<g>
				<defs>
					<rect id="SVGID_1_" x="149.1" y="124.4" width="510" height="113"/>
				</defs>
				<clipPath id="SVGID_2_">
					<use xlink:href="#SVGID_1_"  style="overflow:visible;"/>
				</clipPath>
				<path class="st9" d="M645.3,124.4H163c-7.6,0-13.8,6.2-13.8,13.8v85.4c0,7.6,6.2,13.8,13.8,13.8h482.4c7.6,0,13.8-6.2,13.8-13.8
					v-85.4C659.1,130.6,653,124.4,645.3,124.4 M174.1,191.9c-6.4,0-11.5-5.1-11.5-11.5c0-6.4,5.1-11.5,11.5-11.5
					c6.4,0,11.5,5.1,11.5,11.5C185.6,186.8,180.4,191.9,174.1,191.9 M614.6,189c0,6.4-5.2,11.6-11.6,11.6H205.3
					c-6.4,0-11.6-5.2-11.6-11.6v-16.2c0-6.4,5.2-11.6,11.6-11.6H603c6.4,0,11.6,5.2,11.6,11.6V189z M640.3,191.9
					c-6.4,0-11.5-5.1-11.5-11.5c0-6.4,5.1-11.5,11.5-11.5c6.4,0,11.5,5.1,11.5,11.5C651.8,186.8,646.7,191.9,640.3,191.9"/>
			</g>
		</g>
		<path class="st1" d="M375.4,192.4h-44.9c-3.4,0-6.2-2.8-6.2-6.2v-12.2c0-3.4,2.8-6.2,6.2-6.2h44.9c3.4,0,6.2,2.8,6.2,6.2v12.2
			C381.6,189.6,378.9,192.4,375.4,192.4"/>
		<path class="st1" d="M364.1,200.6h-22.3c-6.6,0-11.9-5.3-11.9-11.9v-17.4c0-6.6,5.3-11.9,11.9-11.9h22.3c6.6,0,11.9,5.3,11.9,11.9
			v17.4C376,195.3,370.7,200.6,364.1,200.6"/>
		<line class="st10" x1="292.5" y1="97.8" x2="560.3" y2="97.8"/>
		<polyline class="st11" points="548.6,82.9 566.3,97.8 550.3,113.5 		"/>
		<g class="st8">
			<g>
				<defs>
					<rect id="SVGID_3_" x="115.7" y="34.5" width="608.6" height="331.1"/>
				</defs>
				<clipPath id="SVGID_4_">
					<use xlink:href="#SVGID_3_"  style="overflow:visible;"/>
				</clipPath>
				<rect x="651.8" y="304.1" class="st12" width="30.7" height="58.6"/>
				<rect x="690.8" y="304.1" class="st12" width="30.7" height="58.6"/>
				<rect x="118.4" y="274.8" class="st12" width="30.7" height="58.6"/>
				<rect x="118.4" y="37.2" class="st12" width="30.7" height="58.6"/>
			</g>
		</g>
	</g>
	<path class="st4" d="M682.7,371.7H57.3c-22.6,0-40.9-18.3-40.9-40.9V69.1c0-22.6,18.3-40.9,40.9-40.9h625.5
		c22.6,0,40.9,18.3,40.9,40.9v261.7C723.6,353.4,705.3,371.7,682.7,371.7z"/>
</g>
</svg>
