<?xml version="1.0" encoding="utf-8"?>
<!-- Generator: Adobe Illustrator 22.0.0, SVG Export Plug-In . SVG Version: 6.00 Build 0)  -->
<svg version="1.1" id="图层_1" xmlns="http://www.w3.org/2000/svg" xmlns:xlink="http://www.w3.org/1999/xlink" x="0px" y="0px"
	 viewBox="0 0 480 400" style="enable-background:new 0 0 480 400;" xml:space="preserve">
<style type="text/css">
	.st0{fill:none;stroke:#FFFFFF;stroke-width:18.563;stroke-miterlimit:10;}
	.st1{opacity:0.8;}
	.st2{clip-path:url(#SVGID_2_);fill:#FFFFFF;}
	.st3{fill:none;stroke:#FFFFFF;stroke-width:10.8818;stroke-miterlimit:10;}
	.st4{fill:none;stroke:#FFFFFF;stroke-width:4.0556;stroke-miterlimit:10;}
</style>
<g>
	<path class="st0" d="M410.2,376.9H69.8c-27.7,0-50.2-22.5-50.2-50.2V73.3c0-27.7,22.5-50.2,50.2-50.2h340.5
		c27.7,0,50.2,22.5,50.2,50.2v253.5C460.4,354.5,437.9,376.9,410.2,376.9z"/>
	<g>
		<g class="st1">
			<g>
				<defs>
					<rect id="SVGID_1_" x="100.9" y="64.3" width="170" height="170"/>
				</defs>
				<clipPath id="SVGID_2_">
					<use xlink:href="#SVGID_1_"  style="overflow:visible;"/>
				</clipPath>
				<path class="st2" d="M270.9,149.3c0,46.9-38.1,85-85,85s-85-38.1-85-85s38.1-85,85-85S270.9,102.4,270.9,149.3"/>
			</g>
		</g>
		<path class="st3" d="M366.8,189.5h-59.2c-6.8,0-12.3-5.5-12.3-12.3v-36.7c0-6.8,5.5-12.3,12.3-12.3h59.2c6.8,0,12.3,5.5,12.3,12.3
			v36.7C379.1,184,373.6,189.5,366.8,189.5z"/>
		<path class="st3" d="M214.3,247.5l-0.1,16.1l-12.3,0c-3.5,0-6.4,2.8-6.4,6.4l-0.2,58.9c0,3.5,2.8,6.4,6.4,6.4l124.3,0.5
			c3.5,0,6.4-2.8,6.4-6.4l0.2-58.9c0-3.5-2.8-6.4-6.4-6.4l-12.3,0l0.1-16.1c0-3.5-2.8-6.4-6.4-6.4l-86.8-0.3
			C217.1,241.1,214.3,244,214.3,247.5z"/>
		<path class="st4" d="M227.2,294l0,8.3c0,1.6-1.3,2.8-2.8,2.8l-8.3,0c-1.6,0-2.8-1.3-2.8-2.8l0-8.3c0-1.6,1.3-2.8,2.8-2.8l8.3,0
			C225.9,291.2,227.2,292.4,227.2,294z"/>
		<path class="st4" d="M256.3,294.1l0,8.3c0,1.6-1.3,2.8-2.8,2.8l-8.3,0c-1.6,0-2.8-1.3-2.8-2.8l0-8.3c0-1.6,1.3-2.8,2.8-2.8l8.3,0
			C255.1,291.3,256.3,292.5,256.3,294.1z"/>
		<path class="st4" d="M285.5,294.2l0,8.3c0,1.6-1.3,2.8-2.8,2.8l-8.3,0c-1.6,0-2.8-1.3-2.8-2.8l0-8.3c0-1.6,1.3-2.8,2.8-2.8l8.3,0
			C284.2,291.4,285.5,292.6,285.5,294.2z"/>
		<path class="st4" d="M314.6,294.3l0,8.3c0,1.6-1.3,2.8-2.8,2.8l-8.3,0c-1.6,0-2.8-1.3-2.8-2.8l0-8.3c0-1.6,1.3-2.8,2.8-2.8l8.3,0
			C313.3,291.5,314.6,292.8,314.6,294.3z"/>
	</g>
</g>
</svg>
