<?xml version="1.0" encoding="utf-8"?>
<!-- Generator: Adobe Illustrator 22.0.0, SVG Export Plug-In . SVG Version: 6.00 Build 0)  -->
<svg version="1.1" id="图层_1" xmlns="http://www.w3.org/2000/svg" xmlns:xlink="http://www.w3.org/1999/xlink" x="0px" y="0px"
	 viewBox="0 0 740 400" style="enable-background:new 0 0 740 400;" xml:space="preserve">
<style type="text/css">
	.st0{fill:none;stroke:#FFFFFF;stroke-width:12;stroke-miterlimit:10;}
	.st1{fill:#FFFFFF;}
	.st2{fill:none;stroke:#FFFFFF;stroke-width:16.788;stroke-miterlimit:10;}
	.st3{fill:none;stroke:#FFFFFF;stroke-width:8.394;stroke-miterlimit:10;}
	.st4{fill:none;stroke:#FFFFFF;stroke-width:18.563;stroke-miterlimit:10;}
	.st5{fill:none;stroke:#FFFFFF;stroke-width:19.762;stroke-miterlimit:10;}
	.st6{fill:none;stroke:#FFFFFF;stroke-width:7.365;stroke-miterlimit:10;}
	.st7{opacity:0.3;}
	.st8{clip-path:url(#SVGID_2_);fill:#FFFFFF;}
	.st9{fill:none;stroke:#FFFFFF;stroke-width:20;stroke-miterlimit:10;}
	.st10{clip-path:url(#SVGID_4_);fill:#FFFFFF;}
	.st11{opacity:0.8;}
	.st12{clip-path:url(#SVGID_6_);fill:#FFFFFF;}
	.st13{fill:none;stroke:#FFFFFF;stroke-width:18;stroke-miterlimit:10;}
	.st14{fill:none;stroke:#FFFFFF;stroke-width:3;stroke-miterlimit:10;}
	.st15{fill:none;stroke:#FFFFFF;stroke-miterlimit:10;}
	.st16{fill:none;stroke:#FFFFFF;stroke-width:6;stroke-miterlimit:10;}
	.st17{fill:none;stroke:#FFFFFF;stroke-width:7.425;stroke-linecap:round;stroke-linejoin:round;stroke-miterlimit:10;}
	.st18{fill:none;stroke:#FFFFFF;stroke-width:5.478;stroke-linecap:round;stroke-linejoin:round;stroke-miterlimit:10;}
</style>
<g>
	<path class="st0" d="M-1926.9-4685h-15.6c-4.1,0-7.4-3.3-7.4-7.4v-58.1c0-4.1,3.3-7.4,7.4-7.4h15.6c4.1,0,7.4,3.3,7.4,7.4v58.1
		C-1919.5-4688.3-1922.8-4685-1926.9-4685z"/>
	<path class="st1" d="M-2110.1-4814.7h-256.6c-3.4,0-6.1-2.7-6.1-6.1c0-3.4,2.7-6.1,6.1-6.1h256.6c3.4,0,6.1,2.7,6.1,6.1
		C-2104.1-4817.5-2106.8-4814.7-2110.1-4814.7"/>
	<path class="st1" d="M-2087.4-4820.8c0,4.6-3.7,8.3-8.3,8.3c-4.6,0-8.3-3.7-8.3-8.3s3.7-8.3,8.3-8.3
		C-2091.1-4829.2-2087.4-4825.4-2087.4-4820.8"/>
	<path class="st1" d="M-2110.1-4792h-256.6c-3.4,0-6.1-2.7-6.1-6.1s2.7-6.1,6.1-6.1h256.6c3.4,0,6.1,2.7,6.1,6.1
		S-2106.8-4792-2110.1-4792"/>
	<path class="st1" d="M-2087.4-4798c0,4.6-3.7,8.3-8.3,8.3c-4.6,0-8.3-3.7-8.3-8.3s3.7-8.3,8.3-8.3
		C-2091.1-4806.4-2087.4-4802.7-2087.4-4798"/>
	<path class="st1" d="M-2110.1-4769.2h-256.6c-3.4,0-6.1-2.7-6.1-6.1s2.7-6.1,6.1-6.1h256.6c3.4,0,6.1,2.7,6.1,6.1
		S-2106.8-4769.2-2110.1-4769.2"/>
	<path class="st1" d="M-2087.4-4775.3c0,4.6-3.7,8.3-8.3,8.3c-4.6,0-8.3-3.7-8.3-8.3c0-4.6,3.7-8.4,8.3-8.4
		C-2091.1-4783.6-2087.4-4779.9-2087.4-4775.3"/>
	<path class="st1" d="M-2110.1-4746.4h-256.6c-3.4,0-6.1-2.7-6.1-6.1s2.7-6.1,6.1-6.1h256.6c3.4,0,6.1,2.7,6.1,6.1
		S-2106.8-4746.4-2110.1-4746.4"/>
	<path class="st1" d="M-2087.4-4752.5c0,4.6-3.7,8.4-8.3,8.4c-4.6,0-8.3-3.7-8.3-8.4c0-4.6,3.7-8.3,8.3-8.3
		C-2091.1-4760.9-2087.4-4757.1-2087.4-4752.5"/>
	<path class="st1" d="M-2110.1-4723.7h-256.6c-3.4,0-6.1-2.7-6.1-6.1s2.7-6.1,6.1-6.1h256.6c3.4,0,6.1,2.7,6.1,6.1
		S-2106.8-4723.7-2110.1-4723.7"/>
	<path class="st1" d="M-2087.4-4729.7c0,4.6-3.7,8.3-8.3,8.3c-4.6,0-8.3-3.7-8.3-8.3c0-4.6,3.7-8.3,8.3-8.3
		C-2091.1-4738.1-2087.4-4734.3-2087.4-4729.7"/>
	<path class="st1" d="M-2110.1-4700.9h-256.6c-3.4,0-6.1-2.7-6.1-6.1c0-3.4,2.7-6.1,6.1-6.1h256.6c3.4,0,6.1,2.7,6.1,6.1
		C-2104.1-4703.6-2106.8-4700.9-2110.1-4700.9"/>
	<path class="st1" d="M-2087.4-4707c0,4.6-3.7,8.3-8.3,8.3c-4.6,0-8.3-3.7-8.3-8.3s3.7-8.3,8.3-8.3
		C-2091.1-4715.3-2087.4-4711.6-2087.4-4707"/>
	<path class="st1" d="M-2110.1-4678.1h-256.6c-3.4,0-6.1-2.7-6.1-6.1c0-3.4,2.7-6.1,6.1-6.1h256.6c3.4,0,6.1,2.7,6.1,6.1
		C-2104.1-4680.8-2106.8-4678.1-2110.1-4678.1"/>
	<path class="st1" d="M-2087.4-4684.2c0,4.6-3.7,8.3-8.3,8.3c-4.6,0-8.3-3.7-8.3-8.3c0-4.6,3.7-8.3,8.3-8.3
		C-2091.1-4692.5-2087.4-4688.8-2087.4-4684.2"/>
	<path class="st1" d="M-2110.1-4655.4h-256.6c-3.4,0-6.1-2.7-6.1-6.1s2.7-6.1,6.1-6.1h256.6c3.4,0,6.1,2.7,6.1,6.1
		S-2106.8-4655.4-2110.1-4655.4"/>
	<path class="st1" d="M-2087.4-4661.4c0,4.6-3.7,8.3-8.3,8.3c-4.6,0-8.3-3.7-8.3-8.3c0-4.6,3.7-8.3,8.3-8.3
		C-2091.1-4669.8-2087.4-4666-2087.4-4661.4"/>
	<path class="st1" d="M-2110.1-4632.6h-256.6c-3.4,0-6.1-2.7-6.1-6.1s2.7-6.1,6.1-6.1h256.6c3.4,0,6.1,2.7,6.1,6.1
		S-2106.8-4632.6-2110.1-4632.6"/>
	<path class="st1" d="M-2087.4-4638.7c0,4.6-3.7,8.3-8.3,8.3c-4.6,0-8.3-3.7-8.3-8.3c0-4.6,3.7-8.3,8.3-8.3
		C-2091.1-4647-2087.4-4643.3-2087.4-4638.7"/>
	<path class="st2" d="M-1855.3-4797.2h24.5v-18.8c0-5.4,4.4-9.7,9.7-9.7h89.6c5.4,0,9.7,4.4,9.7,9.7v189.1c0,5.4-4.4,9.7-9.7,9.7
		h-89.6c-5.4,0-9.7-4.4-9.7-9.7v-18.8h-24.5c-5.4,0-9.7-4.4-9.7-9.7v-132.1C-1865.1-4792.8-1860.7-4797.2-1855.3-4797.2z"/>
	<path class="st3" d="M-1785.4-4777.2h14.2c2,0,3.6-1.6,3.6-3.6v-14.2c0-2-1.6-3.6-3.6-3.6h-14.2c-2,0-3.6,1.6-3.6,3.6v14.2
		C-1789-4778.8-1787.4-4777.2-1785.4-4777.2z"/>
	<path class="st3" d="M-1785.4-4732.9h14.2c2,0,3.6-1.6,3.6-3.6v-14.2c0-2-1.6-3.6-3.6-3.6h-14.2c-2,0-3.6,1.6-3.6,3.6v14.2
		C-1789-4734.5-1787.4-4732.9-1785.4-4732.9z"/>
	<path class="st3" d="M-1785.4-4688.6h14.2c2,0,3.6-1.6,3.6-3.6v-14.2c0-2-1.6-3.6-3.6-3.6h-14.2c-2,0-3.6,1.6-3.6,3.6v14.2
		C-1789-4690.2-1787.4-4688.6-1785.4-4688.6z"/>
	<path class="st3" d="M-1785.4-4644.2h14.2c2,0,3.6-1.6,3.6-3.6v-14.2c0-2-1.6-3.6-3.6-3.6h-14.2c-2,0-3.6,1.6-3.6,3.6v14.2
		C-1789-4645.8-1787.4-4644.2-1785.4-4644.2z"/>
	<path class="st4" d="M-1731.8-4562.1h-625.5c-22.6,0-40.9-18.3-40.9-40.9v-261.7c0-22.6,18.3-40.9,40.9-40.9h625.5
		c22.6,0,40.9,18.3,40.9,40.9v261.7C-1690.9-4580.4-1709.2-4562.1-1731.8-4562.1z"/>
</g>
<g>
	<g>
		<path class="st5" d="M575.7,247.6l16.2-0.1l0.1,13.5c0,3.9,2.9,7,6.5,6.9l59.1-0.3c3.5,0,6.4-3.2,6.4-7l-0.8-135.6
			c0-3.9-2.9-7-6.5-6.9l-59.1,0.3c-3.5,0-6.4,3.2-6.4,7l0.1,13.5l-16.2,0.1c-3.5,0-6.4,3.2-6.4,7l0.5,94.8
			C569.2,244.5,572.1,247.6,575.7,247.6z"/>
		<path class="st6" d="M622.2,233l8.5,0c1.5,0,2.8,1.2,2.8,2.8l0.1,9.7c0,1.5-1.2,2.8-2.8,2.8l-8.5,0c-1.5,0-2.8-1.2-2.8-2.8
			l-0.1-9.7C619.4,234.3,620.6,233,622.2,233z"/>
		<path class="st6" d="M622,201.2l8.5,0c1.5,0,2.8,1.2,2.8,2.8l0.1,9.7c0,1.5-1.2,2.8-2.8,2.8l-8.5,0c-1.5,0-2.8-1.2-2.8-2.8
			l-0.1-9.7C619.2,202.5,620.5,201.2,622,201.2z"/>
		<path class="st6" d="M621.8,169.4l8.5,0c1.5,0,2.8,1.2,2.8,2.8l0.1,9.7c0,1.5-1.2,2.8-2.8,2.8l-8.5,0c-1.5,0-2.8-1.2-2.8-2.8
			l-0.1-9.7C619,170.7,620.3,169.4,621.8,169.4z"/>
		<path class="st6" d="M621.6,137.6l8.5,0c1.5,0,2.8,1.2,2.8,2.8l0.1,9.7c0,1.5-1.2,2.8-2.8,2.8l-8.5,0c-1.5,0-2.8-1.2-2.8-2.8
			l-0.1-9.7C618.9,138.8,620.1,137.6,621.6,137.6z"/>
		<g>
			<g class="st7">
				<g>
					<defs>
						<rect id="SVGID_1_" x="73.6" y="60.2" width="266.8" height="266.8"/>
					</defs>
					<clipPath id="SVGID_2_">
						<use xlink:href="#SVGID_1_"  style="overflow:visible;"/>
					</clipPath>
					<path class="st8" d="M340.4,193.6c0,73.7-59.7,133.4-133.4,133.4S73.6,267.3,73.6,193.6S133.3,60.2,207,60.2
						S340.4,120,340.4,193.6"/>
				</g>
			</g>
			<circle class="st9" cx="207" cy="192.9" r="133.4"/>
			<g class="st7">
				<g>
					<defs>
						<rect id="SVGID_3_" x="73.6" y="60.2" width="266.8" height="266.8"/>
					</defs>
					<clipPath id="SVGID_4_">
						<use xlink:href="#SVGID_3_"  style="overflow:visible;"/>
					</clipPath>
					<path class="st10" d="M207,60.2c-73.7,0-133.4,59.7-133.4,133.4C73.6,267.3,133.3,327,207,327c73.7,0,133.4-59.7,133.4-133.4
						C340.4,120,280.7,60.2,207,60.2 M173.5,96.2c10,0,18.1,8.1,18.1,18.1c0,10-8.1,18.1-18.1,18.1c-10,0-18.1-8.1-18.1-18.1
						C155.4,104.3,163.5,96.2,173.5,96.2 M119.2,202.3c-10,0-18.1-8.1-18.1-18.1c0-10,8.1-18.1,18.1-18.1c10,0,18.1,8.1,18.1,18.1
						C137.3,194.2,129.2,202.3,119.2,202.3 M155.4,281.9c-10,0-18.1-8.1-18.1-18.1c0-10,8.1-18.1,18.1-18.1c10,0,18.1,8.1,18.1,18.1
						C173.5,273.8,165.4,281.9,155.4,281.9 M204.4,239.8c-25.9,0-46.9-21-46.9-46.9c0-25.9,21-46.9,46.9-46.9
						c25.9,0,46.9,21,46.9,46.9C251.3,218.8,230.3,239.8,204.4,239.8 M240.5,291.1c-10,0-18.1-8.1-18.1-18.1
						c0-10,8.1-18.1,18.1-18.1c10,0,18.1,8.1,18.1,18.1C258.6,283,250.5,291.1,240.5,291.1 M258.6,141.1c-10,0-18.1-8.1-18.1-18.1
						c0-10,8.1-18.1,18.1-18.1c10,0,18.1,8.1,18.1,18.1C276.7,133,268.6,141.1,258.6,141.1 M294.8,220.4c-10,0-18.1-8.1-18.1-18.1
						c0-10,8.1-18.1,18.1-18.1c10,0,18.1,8.1,18.1,18.1C312.9,212.3,304.8,220.4,294.8,220.4"/>
				</g>
			</g>
		</g>
		<g class="st11">
			<g>
				<defs>
					<rect id="SVGID_5_" x="359.1" y="59.7" width="114.6" height="89.6"/>
				</defs>
				<clipPath id="SVGID_6_">
					<use xlink:href="#SVGID_5_"  style="overflow:visible;"/>
				</clipPath>
				<path class="st12" d="M473.6,104.5c0,24.7-20,44.8-44.8,44.8c-24.7,0-44.8-20-44.8-44.8c0-24.7,20-44.8,44.8-44.8
					C453.6,59.7,473.6,79.8,473.6,104.5"/>
				<rect x="359.1" y="90.3" class="st12" width="28.7" height="28.7"/>
			</g>
		</g>
		<path class="st13" d="M486.5,340.5H399c-6.7,0-12.2-5.4-12.2-12.2v-87.4c0-6.7,5.4-12.2,12.2-12.2h87.4c6.7,0,12.2,5.4,12.2,12.2
			v87.4C498.6,335,493.2,340.5,486.5,340.5z"/>
		<path class="st1" d="M476.1,313.7l-9.9-11c-0.4-0.5-1-0.7-1.6-0.7c4-4.9,6.5-11.1,6.5-17.9c0-6.9-2.5-13.2-6.6-18.1l5.2-4.7
			c0.9-0.8,0.9-2.1,0.2-3l-1-1.1c-0.8-0.9-2.1-0.9-3-0.2l-5.5,4.9c-1.5-1.2-3.1-2.2-4.9-3.1c0.1-0.2,0.2-0.5,0.2-0.8l0.5-7.7
			c0.1-1.2-0.8-2.2-2-2.2l-1.5-0.1c-1.2-0.1-2.2,0.8-2.2,2l-0.4,6.8c-2.3-0.6-4.7-0.9-7.2-0.9c-0.7,0-1.5,0-2.2,0.1v-6.4
			c0-1.2-0.9-2.1-2.1-2.1h-1.5c-1.2,0-2.1,0.9-2.1,2.1v7.4c-2,0.6-3.9,1.4-5.6,2.3l-3.8-5.5c-0.7-1-2-1.2-2.9-0.5l-1.2,0.8
			c-1,0.7-1.2,2-0.5,2.9l3.8,5.5c-1.6,1.4-3,2.9-4.3,4.5c-0.1,0-0.1,0-0.2-0.1l-7.5-1.7c-1.1-0.3-2.3,0.4-2.5,1.6l-0.3,1.4
			c-0.3,1.1,0.4,2.3,1.6,2.5l5.9,1.4c-1.3,2.9-2.2,6.1-2.5,9.4h-14.1c-1.2,0-2.1,0.9-2.1,2.1v1.5c0,1.2,0.9,2.1,2.1,2.1h14.2
			c0.3,2.6,1,5.2,2,7.5c-0.2,0.1-0.3,0.1-0.5,0.2l-6.4,4.4c-1,0.7-1.2,2-0.5,2.9l0.8,1.2c0.7,1,2,1.2,2.9,0.5l6.3-4.3
			c1.4,2.1,3.1,4,5.1,5.6c-0.1,0.1-0.2,0.2-0.3,0.3l-4.8,6.1c-0.7,0.9-0.6,2.2,0.4,3l1.2,0.9c0.9,0.7,2.2,0.6,3-0.4l4.8-6.1
			c0.2-0.2,0.3-0.5,0.4-0.7c2,1.1,4.2,2,6.5,2.6c0,0.1-0.1,0.3-0.1,0.4l-0.5,7.7c-0.1,1.2,0.8,2.2,2,2.2l1.5,0.1
			c1.2,0.1,2.2-0.8,2.2-2l0.5-7.6c0.5,0,1.1,0,1.6,0c2.4,0,4.7-0.3,6.9-0.9l1,7.5c0.2,1.2,1.2,2,2.4,1.8l1.5-0.2
			c1.2-0.2,2-1.2,1.8-2.4l-1-7.6c-0.1-0.4-0.2-0.7-0.4-1c2.3-1.1,4.5-2.5,6.4-4.2c0,0.4,0.2,0.9,0.5,1.2l9.9,11
			c0.8,0.9,2.1,0.9,3,0.2l1.1-1C476.8,315.9,476.9,314.5,476.1,313.7 M454.2,303.6l-11.8-12.8l-11.5,10.6c-1.4,1.3-3.5,1.2-4.8-0.2
			l-2.4-2.7c-1.3-1.4-1.2-3.5,0.2-4.8l11.5-10.6l-9.4-10.2c-1.3-1.4-1.2-3.5,0.2-4.8l2.7-2.4c1.4-1.3,3.5-1.2,4.8,0.2l9.4,10.2
			l11.5-10.6c1.4-1.3,3.5-1.2,4.8,0.2l2.4,2.7c1.3,1.4,1.2,3.5-0.2,4.8L450,283.7l11.8,12.8c1.3,1.4,1.2,3.5-0.2,4.8l-2.7,2.4
			C457.7,305,455.5,304.9,454.2,303.6"/>
		<circle class="st14" cx="469.9" cy="244.8" r="5.9"/>
		<circle class="st15" cx="651.9" cy="75.9" r="10.6"/>
		<path class="st15" d="M627.6,86.4H611c-1.3,0-2.3-1-2.3-2.3V67.6c0-1.3,1-2.3,2.3-2.3h16.6c1.3,0,2.3,1,2.3,2.3v16.6
			C629.8,85.4,628.8,86.4,627.6,86.4z"/>
		<path class="st16" d="M661.6,93.6h-57.3c-2.7,0-4.8-2.2-4.8-4.8V64.6c0-2.7,2.2-4.8,4.8-4.8h57.3c2.7,0,4.8,2.2,4.8,4.8v24.2
			C666.4,91.4,664.2,93.6,661.6,93.6z"/>
		<path class="st17" d="M348.4,192.1c0,0,79,34.7,151.9-4.7c0,0,135.2-84.1,114.8-117.6"/>
		<path class="st18" d="M328.6,137.1c0,0,37,41.4,142.7,24.6c0,0,211.4-43.6,176.7-80.1"/>
	</g>
	<path class="st4" d="M682.7,371.7H57.3c-22.6,0-40.9-18.3-40.9-40.9V69.1c0-22.6,18.3-40.9,40.9-40.9h625.5
		c22.6,0,40.9,18.3,40.9,40.9v261.7C723.6,353.4,705.3,371.7,682.7,371.7z"/>
</g>
</svg>
