<?xml version="1.0" encoding="utf-8"?>
<!-- Generator: Adobe Illustrator 22.0.0, SVG Export Plug-In . SVG Version: 6.00 Build 0)  -->
<svg version="1.1" id="图层_1" xmlns="http://www.w3.org/2000/svg" xmlns:xlink="http://www.w3.org/1999/xlink" x="0px" y="0px"
	 viewBox="0 0 740 400" style="enable-background:new 0 0 740 400;" xml:space="preserve">
<style type="text/css">
	.st0{fill:none;stroke:#FFFFFF;stroke-width:14.7337;stroke-miterlimit:10;}
	.st1{fill:none;stroke:#FFFFFF;stroke-width:5.4914;stroke-miterlimit:10;}
	.st2{opacity:0.6;fill:#FFFFFF;enable-background:new    ;}
	.st3{fill:none;stroke:#FFFFFF;stroke-width:7.4093;stroke-miterlimit:10;}
	.st4{fill:none;stroke:#FFFFFF;stroke-width:3.7046;stroke-miterlimit:10;}
	.st5{fill:none;stroke:#FFFFFF;stroke-width:4.4734;stroke-miterlimit:10;}
	.st6{fill:#FFFFFF;}
	.st7{opacity:0.6;}
	.st8{fill:none;stroke:#FFFFFF;stroke-width:3.1474;stroke-miterlimit:10;}
	.st9{fill:none;stroke:#FFFFFF;stroke-width:2.8463;stroke-miterlimit:10;}
	.st10{opacity:0.8;}
	.st11{fill:none;stroke:#FFFFFF;stroke-width:1.8346;stroke-miterlimit:10;}
	.st12{fill:none;stroke:#FFFFFF;stroke-width:3.2715;stroke-miterlimit:10;}
	.st13{fill:none;stroke:#FFFFFF;stroke-width:0.9712;stroke-miterlimit:10;}
	.st14{fill:none;stroke:#FFFFFF;stroke-width:18.563;stroke-miterlimit:10;}
</style>
<g>
	<g>
		<g>
			<path class="st0" d="M563.8,253.5l17.2-0.1l0.1,13.7c0,3.9,3.1,7.1,6.9,7.1l62.9-0.4c3.8,0,6.8-3.2,6.8-7.1l-1-138
				c0-3.9-3.1-7.1-6.9-7.1l-62.9,0.4c-3.8,0-6.8,3.2-6.8,7.1l0.1,13.7l-17.2,0.1c-3.8,0-6.8,3.2-6.8,7.1l0.7,96.4
				C556.9,250.3,560,253.5,563.8,253.5z"/>
			<path class="st1" d="M613.2,238.6l9-0.1c1.6,0,3,1.3,3,2.8l0.1,9.8c0,1.6-1.3,2.9-3,2.9l-9,0.1c-1.6,0-3-1.3-3-2.8l-0.1-9.8
				C610.2,239.9,611.5,238.6,613.2,238.6z"/>
			<path class="st1" d="M613,206.2l9-0.1c1.6,0,3,1.3,3,2.8l0.1,9.8c0,1.6-1.3,2.9-3,2.9l-9,0.1c-1.6,0-3-1.3-3-2.8l-0.1-9.8
				C610,207.5,611.4,206.3,613,206.2z"/>
			<path class="st1" d="M612.8,173.9l9-0.1c1.6,0,3,1.3,3,2.8l0.1,9.8c0,1.6-1.3,2.9-3,2.9l-9,0.1c-1.6,0-3-1.3-3-2.8l-0.1-9.8
				C609.8,175.2,611.2,173.9,612.8,173.9z"/>
			<path class="st1" d="M612.5,141.5l9-0.1c1.6,0,3,1.3,3,2.8l0.1,9.8c0,1.6-1.3,2.9-3,2.9l-9,0.1c-1.6,0-3-1.3-3-2.8l-0.1-9.8
				C609.5,142.8,610.9,141.5,612.5,141.5z"/>
		</g>
		<ellipse class="st2" cx="172.8" cy="242.7" rx="69.3" ry="66.3"/>
		<g>
			<path class="st3" d="M133.4,84.5h-6.3l-0.1-8.9l-38.6,0.3c-3.4,0-6.1,2.4-6.1,5.4l0.3,48.7c0,3,2.8,5.4,6.1,5.4l38.6-0.2
				l-0.1-8.9h6.3c3.6,0,6.4-2.6,6.4-5.7l-0.2-30.3C139.9,87.1,137.1,84.5,133.4,84.5z"/>
			<g>
				<path class="st4" d="M99.8,101.2h7c0.6,0,1.1-0.4,1.1-0.9v-6.4c0-0.5-0.5-0.9-1.1-0.9h-7c-0.6,0-1.1,0.4-1.1,0.9v6.4
					C98.8,100.8,99.3,101.2,99.8,101.2z"/>
				<path class="st4" d="M99.9,118.1h7c0.6,0,1.1-0.4,1.1-0.9v-6.4c0-0.5-0.5-0.9-1.1-0.9h-7c-0.6,0-1.1,0.4-1.1,0.9v6.4
					C98.9,117.7,99.4,118.1,99.9,118.1z"/>
			</g>
		</g>
		<ellipse class="st5" cx="172.8" cy="242.7" rx="69.3" ry="66.3"/>
		<g>
			<path class="st6" d="M431.2,191.1h-68.9c-11.2,0-20.3-9.1-20.3-20.3v-64.1c0-11.2,9.1-20.3,20.3-20.3h68.9
				c11.2,0,20.3,9.1,20.3,20.3v64.1C451.5,182,442.4,191.1,431.2,191.1z"/>
			<g class="st7">
				<path class="st6" d="M353.2,99.4v-6.6c0-0.2,0.4-0.4,0.9-0.4h1c0.5,0,0.9-0.2,0.9-0.4l-0.1-10.5c0-0.2,0.4-0.4,0.9-0.4h5.5
					c0.5,0,0.9,0.2,0.9,0.4l0.1,10.8c0,0.2-0.4,0.4-0.9,0.4l0,0c-0.5,0-0.9,0.2-0.9,0.4l0.1,6.3c0,0.2-0.4,0.4-0.9,0.4H354
					C353.6,99.9,353.2,99.7,353.2,99.4z"/>
				<path class="st6" d="M363.6,99.2v-6.6c0-0.2,0.4-0.4,0.9-0.4h1c0.5,0,0.9-0.2,0.9-0.4V81.2c0-0.2,0.4-0.4,0.9-0.4h5.5
					c0.5,0,0.9,0.2,0.9,0.4l0.1,10.8c0,0.2-0.4,0.4-0.9,0.4l0,0c-0.5,0-0.9,0.2-0.9,0.4l0.1,6.3c0,0.2-0.4,0.4-0.9,0.4h-6.7
					C364,99.7,363.6,99.5,363.6,99.2z"/>
				<path class="st6" d="M374,99.1v-6.6c0-0.2,0.4-0.4,0.9-0.4h1c0.5,0,0.9-0.2,0.9-0.4l-0.1-10.5c0-0.2,0.4-0.4,0.9-0.4h5.5
					c0.5,0,0.9,0.2,0.9,0.4l0.1,10.8c0,0.2-0.4,0.4-0.9,0.4l0,0c-0.5,0-0.9,0.2-0.9,0.4l0.1,6.3c0,0.2-0.4,0.4-0.9,0.4h-6.7
					C374.4,99.5,374,99.3,374,99.1z"/>
				<path class="st6" d="M384.4,98.9v-6.6c0-0.2,0.4-0.4,0.9-0.4h1c0.5,0,0.9-0.2,0.9-0.4l-0.1-10.6c0-0.2,0.4-0.4,0.9-0.4h5.5
					c0.5,0,0.9,0.2,0.9,0.4l0.1,10.8c0,0.2-0.4,0.4-0.9,0.4l0,0c-0.5,0-0.9,0.2-0.9,0.4l0.1,6.3c0,0.2-0.4,0.4-0.9,0.4h-6.7
					C384.8,99.3,384.4,99.1,384.4,98.9z"/>
				<path class="st6" d="M394.8,98.7v-6.6c0-0.2,0.4-0.4,0.9-0.4h1c0.5,0,0.9-0.2,0.9-0.4l-0.1-10.5c0-0.2,0.4-0.4,0.9-0.4h5.5
					c0.5,0,0.9,0.2,0.9,0.4l0.1,10.8c0,0.2-0.4,0.4-0.9,0.4l0,0c-0.5,0-0.9,0.2-0.9,0.4l0.1,6.3c0,0.2-0.4,0.4-0.9,0.4h-6.7
					C395.2,99.1,394.8,98.9,394.8,98.7z"/>
				<path class="st6" d="M405.1,98.5v-6.6c0-0.2,0.4-0.4,0.9-0.4h1c0.5,0,0.9-0.2,0.9-0.4l-0.1-10.5c0-0.2,0.4-0.4,0.9-0.4h5.5
					c0.5,0,0.9,0.2,0.9,0.4l0.1,10.8c0,0.2-0.4,0.4-0.9,0.4l0,0c-0.5,0-0.9,0.2-0.9,0.4l0.1,6.3c0,0.2-0.4,0.4-0.9,0.4h-6.7
					C405.6,99,405.1,98.8,405.1,98.5z"/>
				<path class="st6" d="M415.5,98.3v-6.6c0-0.2,0.4-0.4,0.9-0.4h1c0.5,0,0.9-0.2,0.9-0.4l-0.1-10.5c0-0.2,0.4-0.4,0.9-0.4h5.5
					c0.5,0,0.9,0.2,0.9,0.4l0.1,10.8c0,0.2-0.4,0.4-0.9,0.4l0,0c-0.5,0-0.9,0.2-0.9,0.4l0.1,6.3c0,0.2-0.4,0.4-0.9,0.4h-6.7
					C415.9,98.8,415.5,98.6,415.5,98.3z"/>
				<path class="st6" d="M425.9,98.2v-6.6c0-0.2,0.4-0.4,0.9-0.4h1c0.5,0,0.9-0.2,0.9-0.4l-0.1-10.5c0-0.2,0.4-0.4,0.9-0.4h5.5
					c0.5,0,0.9,0.2,0.9,0.4l0.1,10.8c0,0.2-0.4,0.4-0.9,0.4l0,0c-0.5,0-0.9,0.2-0.9,0.4l0.1,6.3c0,0.2-0.4,0.4-0.9,0.4h-6.7
					C426.3,98.6,425.9,98.4,425.9,98.2z"/>
			</g>
			<g class="st7">
				<path class="st6" d="M439.1,199v-6.6c0-0.2-0.4-0.4-0.9-0.4h-1c-0.5,0-0.9-0.2-0.9-0.4l0.1-10.5c0-0.2-0.4-0.4-0.9-0.4h-5.5
					c-0.5,0-0.9,0.2-0.9,0.4l-0.1,10.8c0,0.2,0.4,0.4,0.9,0.4l0,0c0.5,0,0.9,0.2,0.9,0.4l-0.1,6.3c0,0.2,0.4,0.4,0.9,0.4h6.7
					C438.7,199.5,439.1,199.3,439.1,199z"/>
				<path class="st6" d="M428.7,198.9v-6.6c0-0.2-0.4-0.4-0.9-0.4h-1c-0.5,0-0.9-0.2-0.9-0.4L426,181c0-0.2-0.4-0.4-0.9-0.4h-5.5
					c-0.5,0-0.9,0.2-0.9,0.4l-0.1,10.8c0,0.2,0.4,0.4,0.9,0.4l0,0c0.5,0,0.9,0.2,0.9,0.4l-0.1,6.3c0,0.2,0.4,0.4,0.9,0.4h6.7
					C428.3,199.3,428.7,199.1,428.7,198.9z"/>
				<path class="st6" d="M418.3,198.7v-6.6c0-0.2-0.4-0.4-0.9-0.4h-1c-0.5,0-0.9-0.2-0.9-0.4l0.1-10.5c0-0.2-0.4-0.4-0.9-0.4h-5.5
					c-0.5,0-0.9,0.2-0.9,0.4l-0.1,10.8c0,0.2,0.4,0.4,0.9,0.4l0,0c0.5,0,0.9,0.2,0.9,0.4l-0.1,6.3c0,0.2,0.4,0.4,0.9,0.4h6.7
					C417.9,199.1,418.3,198.9,418.3,198.7z"/>
				<path class="st6" d="M407.9,198.5v-6.6c0-0.2-0.4-0.4-0.9-0.4h-1c-0.5,0-0.9-0.2-0.9-0.4l0.1-10.5c0-0.2-0.4-0.4-0.9-0.4h-5.5
					c-0.5,0-0.9,0.2-0.9,0.4l-0.1,10.8c0,0.2,0.4,0.4,0.9,0.4l0,0c0.5,0,0.9,0.2,0.9,0.4l-0.1,6.3c0,0.2,0.4,0.4,0.9,0.4h6.7
					C407.5,198.9,407.9,198.7,407.9,198.5z"/>
				<path class="st6" d="M397.5,198.3v-6.6c0-0.2-0.4-0.4-0.9-0.4h-1c-0.5,0-0.9-0.2-0.9-0.4l0.1-10.5c0-0.2-0.4-0.4-0.9-0.4h-5.5
					c-0.5,0-0.9,0.2-0.9,0.4l-0.1,10.8c0,0.2,0.4,0.4,0.9,0.4l0,0c0.5,0,0.9,0.2,0.9,0.4l-0.1,6.3c0,0.2,0.4,0.4,0.9,0.4h6.7
					C397.1,198.8,397.5,198.6,397.5,198.3z"/>
				<path class="st6" d="M387.1,198.1v-6.6c0-0.2-0.4-0.4-0.9-0.4h-1c-0.5,0-0.9-0.2-0.9-0.4l0.1-10.5c0-0.2-0.4-0.4-0.9-0.4h-5.5
					c-0.5,0-0.9,0.2-0.9,0.4l-0.1,10.8c0,0.2,0.4,0.4,0.9,0.4l0,0c0.5,0,0.9,0.2,0.9,0.4l-0.1,6.3c0,0.2,0.4,0.4,0.9,0.4h6.7
					C386.7,198.6,387.1,198.4,387.1,198.1z"/>
				<path class="st6" d="M376.8,198v-6.6c0-0.2-0.4-0.4-0.9-0.4h-1c-0.5,0-0.9-0.2-0.9-0.4l0.1-10.5c0-0.2-0.4-0.4-0.9-0.4h-5.5
					c-0.5,0-0.9,0.2-0.9,0.4l-0.1,10.8c0,0.2,0.4,0.4,0.9,0.4l0,0c0.5,0,0.9,0.2,0.9,0.4l-0.1,6.3c0,0.2,0.4,0.4,0.9,0.4h6.7
					C376.3,198.4,376.8,198.2,376.8,198z"/>
				<path class="st6" d="M366.4,197.8v-6.6c0-0.2-0.4-0.4-0.9-0.4h-1c-0.5,0-0.9-0.2-0.9-0.4l0.1-10.5c0-0.2-0.4-0.4-0.9-0.4h-5.5
					c-0.5,0-0.9,0.2-0.9,0.4l-0.1,10.8c0,0.2,0.4,0.4,0.9,0.4l0,0c0.5,0,0.9,0.2,0.9,0.4l-0.1,6.3c0,0.2,0.4,0.4,0.9,0.4h6.7
					C366,198.2,366.4,198,366.4,197.8z"/>
			</g>
			<g class="st7">
				<path class="st6" d="M437.6,179.6h6.9c0.3,0,0.5-0.4,0.5-0.9v-1c0-0.5,0.2-0.9,0.5-0.9h11c0.3,0,0.5-0.4,0.5-0.9v-5.2
					c0-0.5-0.2-0.9-0.5-0.9h-11.3c-0.2,0-0.4,0.4-0.5,0.8l0,0c0,0.5-0.2,0.8-0.5,0.8h-6.6c-0.3,0-0.5,0.4-0.5,0.9v6.4
					C437.1,179.2,437.3,179.6,437.6,179.6z"/>
				<path class="st6" d="M437.7,169.7h6.9c0.3,0,0.5-0.4,0.5-0.9v-1c0-0.5,0.2-0.9,0.5-0.9h11c0.3,0,0.5-0.4,0.5-0.9v-5.2
					c0-0.5-0.2-0.9-0.5-0.9h-11.3c-0.2,0-0.4,0.4-0.5,0.8l0,0c0,0.5-0.2,0.8-0.5,0.8h-6.6c-0.3,0-0.5,0.4-0.5,0.9v6.4
					C437.3,169.3,437.5,169.7,437.7,169.7z"/>
				<path class="st6" d="M437.9,159.8h6.9c0.3,0,0.5-0.4,0.5-0.9v-1c0-0.5,0.2-0.9,0.5-0.9h11c0.3,0,0.5-0.4,0.5-0.9v-5.2
					c0-0.5-0.2-0.9-0.5-0.9h-11.3c-0.2,0-0.4,0.4-0.5,0.8l0,0c0,0.5-0.2,0.8-0.5,0.8h-6.6c-0.3,0-0.5,0.4-0.5,0.9v6.4
					C437.4,159.4,437.6,159.8,437.9,159.8z"/>
				<path class="st6" d="M438,149.8h6.9c0.3,0,0.5-0.4,0.5-0.9v-1c0-0.5,0.2-0.9,0.5-0.9h11c0.3,0,0.5-0.4,0.5-0.9v-5.2
					c0-0.5-0.2-0.9-0.5-0.9h-11.3c-0.2,0-0.4,0.4-0.5,0.8l0,0c0,0.5-0.2,0.8-0.5,0.8H438c-0.3,0-0.5,0.4-0.5,0.9v6.4
					C437.6,149.4,437.8,149.8,438,149.8z"/>
				<path class="st6" d="M438.2,139.9h6.9c0.3,0,0.5-0.4,0.5-0.9v-1c0-0.5,0.2-0.9,0.5-0.9h11c0.3,0,0.5-0.4,0.5-0.9V131
					c0-0.5-0.2-0.9-0.5-0.9h-11.3c-0.2,0-0.4,0.4-0.5,0.8l0,0c0,0.5-0.2,0.8-0.5,0.8h-6.6c-0.3,0-0.5,0.4-0.5,0.9v6.4
					C437.7,139.5,437.9,139.9,438.2,139.9z"/>
				<path class="st6" d="M438.3,130h6.9c0.3,0,0.5-0.4,0.5-0.9v-1c0-0.5,0.2-0.9,0.5-0.9h11c0.3,0,0.5-0.4,0.5-0.9v-5.2
					c0-0.5-0.2-0.9-0.5-0.9h-11.3c-0.2,0-0.4,0.4-0.5,0.8l0,0c0,0.5-0.2,0.8-0.5,0.8h-6.6c-0.3,0-0.5,0.4-0.5,0.9v6.4
					C437.8,129.6,438,130,438.3,130z"/>
				<path class="st6" d="M438.4,120h6.9c0.3,0,0.5-0.4,0.5-0.9v-1c0-0.5,0.2-0.9,0.5-0.9h11c0.3,0,0.5-0.4,0.5-0.9v-5.2
					c0-0.5-0.2-0.9-0.5-0.9H446c-0.2,0-0.4,0.4-0.5,0.8l0,0c0,0.5-0.2,0.8-0.5,0.8h-6.6c-0.3,0-0.5,0.4-0.5,0.9v6.4
					C438,119.6,438.2,120,438.4,120z"/>
				<path class="st6" d="M438.6,110.1h6.9c0.3,0,0.5-0.4,0.5-0.9v-1c0-0.5,0.2-0.9,0.5-0.9h11c0.3,0,0.5-0.4,0.5-0.9v-5.2
					c0-0.5-0.2-0.9-0.5-0.9h-11.3c-0.2,0-0.4,0.4-0.5,0.8l0,0c0,0.5-0.2,0.8-0.5,0.8h-6.6c-0.3,0-0.5,0.4-0.5,0.9v6.4
					C438.1,109.7,438.3,110.1,438.6,110.1z"/>
			</g>
			<g class="st7">
				<path class="st6" d="M356.7,180.6h-6.9c-0.3,0-0.5-0.4-0.5-0.9v-1c0-0.5-0.2-0.9-0.5-0.9h-11c-0.3,0-0.5-0.4-0.5-0.9v-5.2
					c0-0.5,0.2-0.9,0.5-0.9h11.3c0.2,0,0.4,0.4,0.5,0.8l0,0c0,0.5,0.2,0.8,0.5,0.8h6.6c0.3,0,0.5,0.4,0.5,0.9v6.4
					C357.1,180.3,356.9,180.6,356.7,180.6z"/>
				<path class="st6" d="M356.5,170.7h-6.9c-0.3,0-0.5-0.4-0.5-0.9v-1c0-0.5-0.2-0.9-0.5-0.9h-11c-0.3,0-0.5-0.4-0.5-0.9v-5.2
					c0-0.5,0.2-0.9,0.5-0.9h11.3c0.2,0,0.4,0.4,0.5,0.8l0,0c0,0.5,0.2,0.8,0.5,0.8h6.6c0.3,0,0.5,0.4,0.5,0.9v6.4
					C357,170.3,356.8,170.7,356.5,170.7z"/>
				<path class="st6" d="M356.4,160.8h-6.9c-0.3,0-0.5-0.4-0.5-0.9v-1c0-0.5-0.2-0.9-0.5-0.9h-11c-0.3,0-0.5-0.4-0.5-0.9v-5.2
					c0-0.5,0.2-0.9,0.5-0.9h11.3c0.2,0,0.4,0.4,0.5,0.8l0,0c0,0.5,0.2,0.8,0.5,0.8h6.6c0.3,0,0.5,0.4,0.5,0.9v6.4
					C356.9,160.4,356.7,160.8,356.4,160.8z"/>
				<path class="st6" d="M356.3,150.9h-6.9c-0.3,0-0.5-0.4-0.5-0.9v-1c0-0.5-0.2-0.9-0.5-0.9h-11c-0.3,0-0.5-0.4-0.5-0.9V142
					c0-0.5,0.2-0.9,0.5-0.9h11.3c0.2,0,0.4,0.4,0.5,0.8l0,0c0,0.5,0.2,0.8,0.5,0.8h6.6c0.3,0,0.5,0.4,0.5,0.9v6.4
					C356.7,150.5,356.5,150.9,356.3,150.9z"/>
				<path class="st6" d="M356.1,140.9h-6.9c-0.3,0-0.5-0.4-0.5-0.9v-1c0-0.5-0.2-0.9-0.5-0.9h-11c-0.3,0-0.5-0.4-0.5-0.9V132
					c0-0.5,0.2-0.9,0.5-0.9h11.3c0.2,0,0.4,0.4,0.5,0.8l0,0c0,0.5,0.2,0.8,0.5,0.8h6.6c0.3,0,0.5,0.4,0.5,0.9v6.4
					C356.6,140.5,356.4,140.9,356.1,140.9z"/>
				<path class="st6" d="M356,131h-6.9c-0.3,0-0.5-0.4-0.5-0.9v-1c0-0.5-0.2-0.9-0.5-0.9h-11c-0.3,0-0.5-0.4-0.5-0.9v-5.2
					c0-0.5,0.2-0.9,0.5-0.9h11.3c0.2,0,0.4,0.4,0.5,0.8l0,0c0,0.5,0.2,0.8,0.5,0.8h6.6c0.3,0,0.5,0.4,0.5,0.9v6.4
					C356.4,130.6,356.2,131,356,131z"/>
				<path class="st6" d="M355.8,121.1h-6.9c-0.3,0-0.5-0.4-0.5-0.9v-1c0-0.5-0.2-0.9-0.5-0.9h-11c-0.3,0-0.5-0.4-0.5-0.9v-5.2
					c0-0.5,0.2-0.9,0.5-0.9h11.3c0.2,0,0.4,0.4,0.5,0.8l0,0c0,0.5,0.2,0.8,0.5,0.8h6.6c0.3,0,0.5,0.4,0.5,0.9v6.4
					C356.3,120.7,356.1,121.1,355.8,121.1z"/>
				<path class="st6" d="M355.7,111.1h-6.9c-0.3,0-0.5-0.4-0.5-0.9v-1c0-0.5-0.2-0.9-0.5-0.9h-11c-0.3,0-0.5-0.4-0.5-0.9v-5.2
					c0-0.5,0.2-0.9,0.5-0.9h11.3c0.2,0,0.4,0.4,0.5,0.8l0,0c0,0.5,0.2,0.8,0.5,0.8h6.6c0.3,0,0.5,0.4,0.5,0.9v6.4
					C356.2,110.7,356,111.1,355.7,111.1z"/>
			</g>
		</g>
		<g>
			<path class="st2" d="M485.8,333.9H455c-8.7,0-15.7-7-15.7-15.7V276c0-8.7,7-15.7,15.7-15.7h30.8c8.7,0,15.7,7,15.7,15.7v42.2
				C501.5,326.9,494.4,333.9,485.8,333.9z"/>
			<path class="st8" d="M485.8,333.9H455c-8.7,0-15.7-7-15.7-15.7V276c0-8.7,7-15.7,15.7-15.7h30.8c8.7,0,15.7,7,15.7,15.7v42.2
				C501.5,326.9,494.4,333.9,485.8,333.9z"/>
			<g>
				<g>
					<path class="st6" d="M502.1,271.1h8.9c0.3,0,0.6,0.2,0.6,0.5v0.6c0,0.3,0.3,0.5,0.6,0.5h14.2c0.3,0,0.6,0.2,0.6,0.5v3
						c0,0.3-0.3,0.5-0.6,0.5h-14.6c-0.3,0-0.6-0.2-0.6-0.5l0,0c0-0.3-0.3-0.5-0.6-0.5h-8.6c-0.3,0-0.6-0.2-0.6-0.5v-3.6
						C501.5,271.4,501.7,271.1,502.1,271.1z"/>
					<path class="st6" d="M502.1,287.2h8.9c0.3,0,0.6,0.2,0.6,0.5v0.6c0,0.3,0.3,0.5,0.6,0.5h14.2c0.3,0,0.6,0.2,0.6,0.5v3
						c0,0.3-0.3,0.5-0.6,0.5h-14.6c-0.3,0-0.6-0.2-0.6-0.5l0,0c0-0.3-0.3-0.5-0.6-0.5h-8.6c-0.3,0-0.6-0.2-0.6-0.5v-3.6
						C501.5,287.4,501.7,287.2,502.1,287.2z"/>
					<path class="st6" d="M502.1,303.2h8.9c0.3,0,0.6,0.2,0.6,0.5v0.6c0,0.3,0.3,0.5,0.6,0.5h14.2c0.3,0,0.6,0.2,0.6,0.5v3
						c0,0.3-0.3,0.5-0.6,0.5h-14.6c-0.3,0-0.6-0.2-0.6-0.5l0,0c0-0.3-0.3-0.5-0.6-0.5h-8.6c-0.3,0-0.6-0.2-0.6-0.5v-3.6
						C501.5,303.5,501.7,303.2,502.1,303.2z"/>
					<path class="st6" d="M502.1,319.3h8.9c0.3,0,0.6,0.2,0.6,0.5v0.6c0,0.3,0.3,0.5,0.6,0.5h14.2c0.3,0,0.6,0.2,0.6,0.5v3
						c0,0.3-0.3,0.5-0.6,0.5h-14.6c-0.3,0-0.6-0.2-0.6-0.5l0,0c0-0.3-0.3-0.5-0.6-0.5h-8.6c-0.3,0-0.6-0.2-0.6-0.5v-3.6
						C501.5,319.5,501.7,319.3,502.1,319.3z"/>
				</g>
				<g>
					<path class="st6" d="M438.6,271.1h-8.9c-0.3,0-0.6,0.2-0.6,0.5v0.6c0,0.3-0.3,0.5-0.6,0.5h-14.3c-0.3,0-0.6,0.2-0.6,0.5v3
						c0,0.3,0.3,0.5,0.6,0.5h14.6c0.3,0,0.6-0.2,0.6-0.5l0,0c0-0.3,0.3-0.5,0.6-0.5h8.6c0.3,0,0.6-0.2,0.6-0.5v-3.6
						C439.2,271.4,439,271.1,438.6,271.1z"/>
					<path class="st6" d="M438.6,287.2h-8.9c-0.3,0-0.6,0.2-0.6,0.5v0.6c0,0.3-0.3,0.5-0.6,0.5h-14.3c-0.3,0-0.6,0.2-0.6,0.5v3
						c0,0.3,0.3,0.5,0.6,0.5h14.6c0.3,0,0.6-0.2,0.6-0.5l0,0c0-0.3,0.3-0.5,0.6-0.5h8.6c0.3,0,0.6-0.2,0.6-0.5v-3.6
						C439.2,287.4,439,287.2,438.6,287.2z"/>
					<path class="st6" d="M438.6,303.2h-8.9c-0.3,0-0.6,0.2-0.6,0.5v0.6c0,0.3-0.3,0.5-0.6,0.5h-14.3c-0.3,0-0.6,0.2-0.6,0.5v3
						c0,0.3,0.3,0.5,0.6,0.5h14.6c0.3,0,0.6-0.2,0.6-0.5l0,0c0-0.3,0.3-0.5,0.6-0.5h8.6c0.3,0,0.6-0.2,0.6-0.5v-3.6
						C439.2,303.5,439,303.2,438.6,303.2z"/>
					<path class="st6" d="M438.6,319.3h-8.9c-0.3,0-0.6,0.2-0.6,0.5v0.6c0,0.3-0.3,0.5-0.6,0.5h-14.3c-0.3,0-0.6,0.2-0.6,0.5v3
						c0,0.3,0.3,0.5,0.6,0.5h14.6c0.3,0,0.6-0.2,0.6-0.5l0,0c0-0.3,0.3-0.5,0.6-0.5h8.6c0.3,0,0.6-0.2,0.6-0.5v-3.6
						C439.2,319.5,439,319.3,438.6,319.3z"/>
				</g>
			</g>
		</g>
		<g>
			<g>
				<rect x="242.2" y="66.1" class="st9" width="33.9" height="70.1"/>
				<g class="st10">
					<path class="st11" d="M252.9,71h8.5c2.4,0,4.4,1.9,4.4,4.3v51.8c0,2.4-2,4.3-4.4,4.3h-8.5c-2.4,0-4.4-1.9-4.4-4.3V75.3
						C248.4,72.9,250.4,71,252.9,71z"/>
					<path class="st6" d="M252.9,79.7h8.5c2.4,0,4.4,1.9,4.4,4.3v34.2c0,2.4-2,4.3-4.4,4.3h-8.5c-2.4,0-4.4-1.9-4.4-4.3V84
						C248.4,81.7,250.4,79.7,252.9,79.7z"/>
					<g class="st10">
						<path class="st6" d="M253.8,77.4c0,1.6,1.4,2.9,3,3c1.6,0.1,3-1.3,3-2.9c0-1.1-0.6-2-1.5-2.5l1.3-3.9l-5.7,0.2l1.7,3.5
							C254.7,75.1,253.8,76.2,253.8,77.4z"/>
						<path class="st6" d="M254.4,125c0-1.6,1.3-3,3-3c1.7,0,3,1.3,3,2.9c0,1.1-0.6,2-1.4,2.5l1.3,3.9l-5.7-0.1l1.7-3.5
							C255.2,127.3,254.4,126.3,254.4,125z"/>
					</g>
				</g>
			</g>
			<g>
				<rect x="208.3" y="91.6" class="st9" width="33.9" height="44.6"/>
				<g class="st10">
					<path class="st11" d="M219.1,94.7h8.5c2.4,0,4.4,1.2,4.4,2.8v32.9c0,1.5-2,2.7-4.4,2.7h-8.5c-2.4,0-4.4-1.2-4.4-2.8V97.4
						C214.6,96,216.6,94.7,219.1,94.7z"/>
					<path class="st6" d="M219.1,100.3h8.5c2.4,0,4.4,1.2,4.4,2.8v21.8c0,1.5-2,2.7-4.4,2.7h-8.5c-2.4,0-4.4-1.2-4.4-2.8V103
						C214.6,101.5,216.6,100.3,219.1,100.3z"/>
					<g class="st10">
						<path class="st6" d="M219.9,98.8c0,1,1.4,1.9,3,1.9c1.7,0,3-0.8,3-1.9c0-0.7-0.6-1.3-1.5-1.6l1.3-2.5l-5.7,0.1l1.7,2.2
							C220.8,97.3,219.9,98,219.9,98.8z"/>
						<path class="st6" d="M220.6,129.1c0-1,1.3-1.9,3-1.9s3,0.8,3,1.9c0,0.7-0.6,1.3-1.4,1.6l1.3,2.5l-5.7-0.1l1.7-2.2
							C221.3,130.6,220.6,129.9,220.6,129.1z"/>
					</g>
				</g>
			</g>
		</g>
		<g>
			<rect x="510.2" y="66.1" class="st9" width="33.9" height="70.1"/>
			<g class="st10">
				<path class="st11" d="M520.9,71h8.5c2.4,0,4.4,1.9,4.4,4.3v51.8c0,2.4-2,4.3-4.4,4.3h-8.5c-2.4,0-4.4-1.9-4.4-4.3V75.3
					C516.5,72.9,518.5,71,520.9,71z"/>
				<path class="st6" d="M520.9,79.7h8.5c2.4,0,4.4,1.9,4.4,4.3v34.2c0,2.4-2,4.3-4.4,4.3h-8.5c-2.4,0-4.4-1.9-4.4-4.3V84
					C516.5,81.7,518.5,79.7,520.9,79.7z"/>
				<g class="st10">
					<path class="st6" d="M521.9,77.4c0,1.6,1.4,2.9,3,3c1.7,0,3-1.3,3-2.9c0-1.1-0.6-2-1.5-2.5l1.3-3.9l-5.7,0.2l1.7,3.5
						C522.7,75.1,521.9,76.2,521.9,77.4z"/>
					<path class="st6" d="M522.5,125c0-1.6,1.3-3,3-3s3,1.3,3,2.9c0,1.1-0.6,2-1.4,2.5l1.3,3.9l-5.7-0.1l1.7-3.5
						C523.2,127.3,522.5,126.3,522.5,125z"/>
				</g>
			</g>
		</g>
		<g>
			<g>
				<rect x="244.8" y="284.7" class="st12" width="20.8" height="37"/>
				<g class="st10">
					<path class="st13" d="M251.2,288.5l4.8-0.1c1.4,0,2.5,0.9,2.6,2.1l0.5,25.4c0,1.2-1.1,2.1-2.5,2.2l-4.8,0.1
						c-1.4,0-2.5-0.9-2.6-2.1l-0.5-25.4C248.7,289.4,249.7,288.5,251.2,288.5z"/>
					<path class="st6" d="M251.2,292.8l4.8-0.1c1.4,0,2.5,0.9,2.6,2.1l0.3,16.8c0,1.2-1.1,2.1-2.5,2.2l-4.8,0.1
						c-1.4,0-2.5-0.9-2.6-2.1l-0.3-16.8C248.7,293.8,249.8,292.8,251.2,292.8z"/>
					<g class="st10">
						<path class="st6" d="M251.7,291.6c0,0.8,0.8,1.4,1.7,1.4c1,0,1.7-0.7,1.7-1.5c0-0.5-0.4-1-0.9-1.2l0.7-1.9l-3.2,0.1l1,1.7
							C252.2,290.5,251.7,291,251.7,291.6z"/>
						<path class="st6" d="M252.6,315c0-0.8,0.7-1.5,1.7-1.5s1.7,0.6,1.8,1.4c0,0.5-0.3,1-0.8,1.3l0.8,1.9h-3.2l0.9-1.7
							C253.1,316.1,252.6,315.6,252.6,315z"/>
					</g>
				</g>
			</g>
			<g>
				<rect x="267.1" y="284.8" class="st12" width="20.8" height="37"/>
				<g class="st10">
					<path class="st13" d="M273.5,288.5l4.8-0.1c1.4,0,2.5,0.9,2.6,2.1l0.5,25.4c0,1.2-1.1,2.1-2.5,2.2l-4.8,0.1
						c-1.4,0-2.5-0.9-2.6-2.1l-0.5-25.4C271,289.4,272.1,288.5,273.5,288.5z"/>
					<path class="st6" d="M273.5,292.8l4.8-0.1c1.4,0,2.5,0.9,2.6,2.1l0.3,16.8c0,1.2-1.1,2.1-2.5,2.2l-4.8,0.1
						c-1.4,0-2.5-0.9-2.6-2.1L271,295C271,293.7,272.2,292.8,273.5,292.8z"/>
					<g class="st10">
						<path class="st6" d="M274.1,291.6c0,0.8,0.8,1.4,1.7,1.4c1,0,1.7-0.7,1.7-1.5c0-0.5-0.4-1-0.9-1.2l0.7-1.9l-3.2,0.1l1,1.7
							C274.5,290.5,274,291,274.1,291.6z"/>
						<path class="st6" d="M274.8,315c0-0.8,0.7-1.5,1.7-1.5s1.7,0.6,1.8,1.4c0,0.5-0.3,1-0.8,1.3l0.8,1.9h-3.2l0.9-1.7
							C275.3,316.1,274.9,315.6,274.8,315z"/>
					</g>
				</g>
			</g>
			<g>
				<rect x="289.5" y="284.7" class="st12" width="20.8" height="37"/>
				<g class="st10">
					<path class="st13" d="M295.8,288.4l4.8-0.1c1.4,0,2.5,0.9,2.6,2.1l0.5,25.4c0,1.2-1.1,2.1-2.5,2.2l-4.8,0.1
						c-1.4,0-2.5-0.9-2.6-2.1l-0.5-25.4C293.3,289.4,294.4,288.5,295.8,288.4z"/>
					<path class="st6" d="M295.9,292.7l4.8-0.1c1.4,0,2.5,0.9,2.6,2.1l0.3,16.8c0,1.2-1.1,2.1-2.5,2.2l-4.8,0.1
						c-1.4,0-2.5-0.9-2.6-2.1l-0.3-16.8C293.4,293.7,294.5,292.8,295.9,292.7z"/>
					<g class="st10">
						<path class="st6" d="M296.4,291.6c0,0.8,0.8,1.4,1.7,1.4c1,0,1.7-0.7,1.7-1.5c0-0.5-0.4-1-0.9-1.2l0.7-1.9l-3.2,0.1l1,1.7
							C296.8,290.4,296.4,291,296.4,291.6z"/>
						<path class="st6" d="M297.2,315c0-0.8,0.7-1.5,1.7-1.5s1.7,0.6,1.8,1.4c0,0.5-0.3,1-0.8,1.3l0.8,1.9h-3.2l0.9-1.7
							C297.7,316.1,297.2,315.6,297.2,315z"/>
					</g>
				</g>
			</g>
			<g>
				<rect x="311.8" y="284.7" class="st12" width="20.8" height="37"/>
				<g class="st10">
					<path class="st13" d="M318.2,288.4l4.8-0.1c1.4,0,2.5,0.9,2.6,2.1l0.5,25.4c0,1.2-1.1,2.1-2.5,2.2l-4.8,0.1
						c-1.4,0-2.5-0.9-2.6-2.1l-0.5-25.4C315.7,289.4,316.8,288.4,318.2,288.4z"/>
					<path class="st6" d="M318.2,292.7l4.8-0.1c1.4,0,2.5,0.9,2.6,2.1l0.3,16.8c0,1.2-1.1,2.1-2.5,2.2l-4.8,0.1
						c-1.4,0-2.5-0.9-2.6-2.1l-0.3-16.8C315.7,293.7,316.9,292.8,318.2,292.7z"/>
					<g class="st10">
						<path class="st6" d="M318.8,291.6c0,0.8,0.8,1.4,1.7,1.4c1,0,1.7-0.7,1.7-1.5c0-0.5-0.4-1-0.9-1.2l0.7-1.9l-3.2,0.1l1,1.7
							C319.2,290.4,318.7,291,318.8,291.6z"/>
						<path class="st6" d="M319.5,314.9c0-0.8,0.7-1.5,1.7-1.5s1.7,0.6,1.8,1.4c0,0.5-0.3,1-0.8,1.3l0.8,1.9h-3.2l0.9-1.7
							C320,316.1,319.6,315.6,319.5,314.9z"/>
					</g>
				</g>
			</g>
			<g>
				<rect x="334.1" y="284.7" class="st12" width="20.8" height="37"/>
				<g class="st10">
					<path class="st13" d="M340.5,288.4l4.8-0.1c1.4,0,2.5,0.9,2.6,2.1l0.5,25.5c0,1.2-1.1,2.1-2.5,2.2l-4.8,0.1
						c-1.4,0-2.5-0.9-2.6-2.1l-0.5-25.4C338,289.4,339.1,288.4,340.5,288.4z"/>
					<path class="st6" d="M340.6,292.7l4.8-0.1c1.4,0,2.5,0.9,2.6,2.1l0.3,16.8c0,1.2-1.1,2.1-2.5,2.2l-4.8,0.1
						c-1.4,0-2.5-0.9-2.6-2.1l-0.3-16.8C338.1,293.7,339.2,292.7,340.6,292.7z"/>
					<g class="st10">
						<path class="st6" d="M341.1,291.6c0,0.8,0.8,1.4,1.7,1.4c1,0,1.7-0.7,1.7-1.5c0-0.5-0.4-1-0.9-1.2l0.7-1.9l-3.2,0.1l1,1.7
							C341.5,290.4,341.1,291,341.1,291.6z"/>
						<path class="st6" d="M341.9,314.9c0-0.8,0.7-1.5,1.7-1.5s1.7,0.6,1.8,1.4c0,0.5-0.3,1-0.8,1.3l0.8,1.9h-3.2l0.9-1.7
							C342.4,316.1,341.9,315.5,341.9,314.9z"/>
					</g>
				</g>
			</g>
			<g>
				<rect x="357" y="284.6" class="st12" width="20.8" height="37"/>
				<g class="st10">
					<path class="st13" d="M363.4,288.4l4.8-0.1c1.4,0,2.5,0.9,2.6,2.1l0.5,25.4c0,1.2-1.1,2.1-2.5,2.2l-4.8,0.1
						c-1.4,0-2.5-0.9-2.6-2.1l-0.5-25.4C360.9,289.4,362,288.4,363.4,288.4z"/>
					<path class="st6" d="M363.5,292.7l4.8-0.1c1.4,0,2.5,0.9,2.6,2.1l0.3,16.8c0,1.2-1.1,2.1-2.5,2.2l-4.8,0.1
						c-1.4,0-2.5-0.9-2.6-2.1l-0.3-16.8C361,293.7,362.1,292.7,363.5,292.7z"/>
					<g class="st10">
						<path class="st6" d="M364,291.6c0,0.8,0.8,1.4,1.7,1.4c1,0,1.7-0.7,1.7-1.5c0-0.5-0.4-1-0.9-1.2l0.7-1.9l-3.2,0.1l1,1.7
							C364.4,290.4,364,290.9,364,291.6z"/>
						<path class="st6" d="M364.8,314.9c0-0.8,0.7-1.5,1.7-1.5s1.7,0.6,1.8,1.4c0,0.5-0.3,1-0.8,1.3l0.8,1.9h-3.2l0.9-1.7
							C365.2,316,364.8,315.5,364.8,314.9z"/>
					</g>
				</g>
			</g>
			<g>
				<rect x="379.1" y="284.8" class="st12" width="20.8" height="37"/>
				<g class="st10">
					<path class="st13" d="M385.5,288.5l4.8-0.1c1.4,0,2.5,0.9,2.6,2.1l0.5,25.4c0,1.2-1.1,2.1-2.5,2.2l-4.8,0.1
						c-1.4,0-2.5-0.9-2.6-2.1l-0.5-25.4C383,289.4,384.1,288.5,385.5,288.5z"/>
					<path class="st6" d="M385.5,292.8l4.8-0.1c1.4,0,2.5,0.9,2.6,2.1l0.3,16.8c0,1.2-1.1,2.1-2.5,2.2l-4.8,0.1
						c-1.4,0-2.5-0.9-2.6-2.1L383,295C383,293.8,384.2,292.8,385.5,292.8z"/>
					<g class="st10">
						<path class="st6" d="M386.1,291.6c0,0.8,0.8,1.4,1.7,1.4c1,0,1.7-0.7,1.7-1.5c0-0.5-0.4-1-0.9-1.2l0.7-1.9l-3.2,0.1l1,1.7
							C386.5,290.5,386,291,386.1,291.6z"/>
						<path class="st6" d="M386.8,315c0-0.8,0.7-1.5,1.7-1.5s1.7,0.6,1.8,1.4c0,0.5-0.3,1-0.8,1.3l0.8,1.9h-3.2l0.9-1.7
							C387.3,316.1,386.9,315.6,386.8,315z"/>
					</g>
				</g>
			</g>
		</g>
		<g>
			<rect x="276.9" y="254.1" class="st12" width="13" height="23.2"/>
			<g class="st10">
				<path class="st13" d="M281,256.4h3c0.9,0,1.6,0.6,1.6,1.3l0.3,16c0,0.7-0.7,1.3-1.6,1.4h-3c-0.9,0-1.6-0.6-1.6-1.3l-0.3-16
					C279.4,257,280.1,256.4,281,256.4z"/>
				<path class="st6" d="M281,259.1h3c0.9,0,1.6,0.6,1.6,1.3l0.2,10.6c0,0.7-0.7,1.3-1.6,1.4h-3c-0.9,0-1.6-0.6-1.6-1.3l-0.2-10.6
					C279.4,259.7,280.1,259.1,281,259.1z"/>
				<g class="st10">
					<path class="st6" d="M281.3,258.3c0,0.5,0.5,0.9,1.1,0.9s1.1-0.4,1.1-0.9c0-0.3-0.2-0.6-0.5-0.8l0.4-1.2l-2,0.1l0.6,1.1
						C281.6,257.6,281.3,258,281.3,258.3z"/>
					<path class="st6" d="M281.8,273c0-0.5,0.5-0.9,1.1-0.9s1.1,0.4,1.1,0.9c0,0.3-0.2,0.6-0.5,0.8l0.5,1.2h-2l0.6-1.1
						C282.1,273.7,281.8,273.4,281.8,273z"/>
				</g>
			</g>
		</g>
		<g>
			<rect x="291" y="254" class="st12" width="13" height="23.2"/>
			<g class="st10">
				<path class="st13" d="M295,256.4h3c0.9,0,1.6,0.6,1.6,1.3l0.3,16c0,0.7-0.7,1.3-1.6,1.4h-3c-0.9,0-1.6-0.6-1.6-1.3l-0.3-16
					C293.4,257,294.1,256.4,295,256.4z"/>
				<path class="st6" d="M295,259.1h3c0.9,0,1.6,0.6,1.6,1.3l0.2,10.6c0,0.7-0.7,1.3-1.6,1.4h-3c-0.9,0-1.6-0.6-1.6-1.3l-0.2-10.6
					C293.5,259.7,294.2,259.1,295,259.1z"/>
				<g class="st10">
					<path class="st6" d="M295.4,258.3c0,0.5,0.5,0.9,1.1,0.9s1.1-0.4,1.1-0.9c0-0.3-0.2-0.6-0.5-0.8l0.4-1.2l-2,0.1l0.6,1.1
						C295.6,257.6,295.3,258,295.4,258.3z"/>
					<path class="st6" d="M295.8,273c0-0.5,0.5-0.9,1.1-0.9s1.1,0.4,1.1,0.9c0,0.3-0.2,0.6-0.5,0.8l0.5,1.2h-2l0.6-1.1
						C296.1,273.7,295.9,273.4,295.8,273z"/>
				</g>
			</g>
		</g>
		<g>
			<rect x="305" y="254" class="st12" width="13" height="23.2"/>
			<g class="st10">
				<path class="st13" d="M309,256.4h3c0.9,0,1.6,0.6,1.6,1.3l0.3,16c0,0.7-0.7,1.3-1.6,1.4h-3c-0.9,0-1.6-0.6-1.6-1.3l-0.3-16
					C307.4,257,308.1,256.4,309,256.4z"/>
				<path class="st6" d="M309.1,259.1h3c0.9,0,1.6,0.6,1.6,1.3L314,271c0,0.7-0.7,1.3-1.6,1.4h-3c-0.9,0-1.6-0.6-1.6-1.3l-0.2-10.6
					C307.5,259.7,308.2,259.1,309.1,259.1z"/>
				<g class="st10">
					<path class="st6" d="M309.4,258.3c0,0.5,0.5,0.9,1.1,0.9s1.1-0.4,1.1-0.9c0-0.3-0.2-0.6-0.5-0.8l0.4-1.2l-2,0.1l0.6,1.1
						C309.7,257.6,309.4,257.9,309.4,258.3z"/>
					<path class="st6" d="M309.9,273c0-0.5,0.5-0.9,1.1-0.9s1.1,0.4,1.1,0.9c0,0.3-0.2,0.6-0.5,0.8l0.5,1.2h-2l0.6-1.1
						C310.2,273.7,309.9,273.4,309.9,273z"/>
				</g>
			</g>
		</g>
		<g>
			<rect x="319.1" y="254.1" class="st12" width="13" height="23.2"/>
			<g class="st10">
				<path class="st13" d="M323,256.3h3c0.9,0,1.6,0.6,1.6,1.3l0.3,16c0,0.7-0.7,1.3-1.6,1.4h-3c-0.9,0-1.6-0.6-1.6-1.3l-0.3-16
					C321.5,257,322.2,256.4,323,256.3z"/>
				<path class="st6" d="M323.1,259.1h3c0.9,0,1.6,0.6,1.6,1.3L328,271c0,0.7-0.7,1.3-1.6,1.4h-3c-0.9,0-1.6-0.6-1.6-1.3l-0.2-10.6
					C321.5,259.7,322.2,259.1,323.1,259.1z"/>
				<g class="st10">
					<path class="st6" d="M323.4,258.3c0,0.5,0.5,0.9,1.1,0.9s1.1-0.4,1.1-0.9c0-0.3-0.2-0.6-0.5-0.8l0.4-1.2l-2,0.1l0.6,1.1
						C323.7,257.6,323.4,257.9,323.4,258.3z"/>
					<path class="st6" d="M323.9,273c0-0.5,0.5-0.9,1.1-0.9s1.1,0.4,1.1,0.9c0,0.3-0.2,0.6-0.5,0.8l0.5,1.2h-2l0.6-1.1
						C324.2,273.7,323.9,273.4,323.9,273z"/>
				</g>
			</g>
		</g>
	</g>
	<path class="st14" d="M682.7,371.7H57.3c-22.6,0-40.9-18.3-40.9-40.9V69.1c0-22.6,18.3-40.9,40.9-40.9h625.5
		c22.6,0,40.9,18.3,40.9,40.9v261.7C723.6,353.4,705.3,371.7,682.7,371.7z"/>
</g>
</svg>
