<?xml version="1.0" encoding="utf-8"?>
<!-- Generator: Adobe Illustrator 22.0.0, SVG Export Plug-In . SVG Version: 6.00 Build 0)  -->
<svg version="1.1" id="图层_1" xmlns="http://www.w3.org/2000/svg" xmlns:xlink="http://www.w3.org/1999/xlink" x="0px" y="0px"
	 viewBox="0 0 480 400" style="enable-background:new 0 0 480 400;" xml:space="preserve">
<style type="text/css">
	.st0{fill:none;stroke:#FFFFFF;stroke-width:18.563;stroke-miterlimit:10;}
	.st1{fill:none;stroke:#FFFFFF;stroke-width:2.3142;stroke-miterlimit:10;}
	.st2{fill:none;stroke:#FFFFFF;stroke-width:10.8349;stroke-miterlimit:10;}
	.st3{fill:none;stroke:#FFFFFF;stroke-width:4.038;stroke-miterlimit:10;}
	.st4{opacity:0.6;}
	.st5{clip-path:url(#SVGID_2_);fill:#FFFFFF;}
	.st6{fill:#FFFFFF;}
</style>
<g>
	<path class="st0" d="M410.2,379.7H69.8c-27.7,0-50.2-22.5-50.2-50.2V76c0-27.7,22.5-50.2,50.2-50.2h340.5
		c27.7,0,50.2,22.5,50.2,50.2v253.5C460.4,357.2,437.9,379.7,410.2,379.7z"/>
	<g>
		<path class="st1" d="M163.7,291.1h-10.1c-3.1,0-5.7-2.5-5.7-5.7v-37.4c0-3.1,2.5-5.7,5.7-5.7h10.1c3.1,0,5.7,2.5,5.7,5.7v37.4
			C169.3,288.6,166.8,291.1,163.7,291.1z"/>
		<path class="st1" d="M163.7,339.9h-10.1c-3.1,0-5.7-2.5-5.7-5.7v-37.4c0-3.1,2.5-5.7,5.7-5.7h10.1c3.1,0,5.7,2.5,5.7,5.7v37.4
			C169.3,337.3,166.8,339.9,163.7,339.9z"/>
		<path class="st2" d="M311.7,151.8l0.1-15.6l13,0.1c3.7,0,6.8-2.7,6.8-6.1l0.5-57.1c0-3.4-3-6.2-6.7-6.3l-131.1-1.1
			c-3.7,0-6.8,2.7-6.8,6.1l-0.5,57.1c0,3.4,3,6.2,6.7,6.3l13,0.1l-0.1,15.6c0,3.4,3,6.2,6.7,6.3l91.6,0.8
			C308.6,157.9,311.6,155.2,311.7,151.8z"/>
		<path class="st3" d="M298.2,106.6l0.1-8.2c0-1.5,1.2-2.7,2.7-2.7l9.4,0.1c1.5,0,2.7,1.2,2.7,2.7l-0.1,8.2c0,1.5-1.2,2.7-2.7,2.7
			l-9.4-0.1C299.4,109.3,298.2,108.1,298.2,106.6z"/>
		<path class="st3" d="M267.5,106.4l0.1-8.2c0-1.5,1.2-2.7,2.7-2.7l9.4,0.1c1.5,0,2.7,1.2,2.7,2.7l-0.1,8.2c0,1.5-1.2,2.7-2.7,2.7
			l-9.4-0.1C268.7,109.1,267.5,107.9,267.5,106.4z"/>
		<path class="st3" d="M236.8,106.1l0.1-8.2c0-1.5,1.2-2.7,2.7-2.7l9.4,0.1c1.5,0,2.7,1.2,2.7,2.7l-0.1,8.2c0,1.5-1.2,2.7-2.7,2.7
			l-9.4-0.1C238,108.8,236.8,107.6,236.8,106.1z"/>
		<path class="st3" d="M206,105.8l0.1-8.2c0-1.5,1.2-2.7,2.7-2.7l9.4,0.1c1.5,0,2.7,1.2,2.7,2.7l-0.1,8.2c0,1.5-1.2,2.7-2.7,2.7
			l-9.4-0.1C207.2,108.6,206,107.3,206,105.8z"/>
		<path class="st1" d="M283.9,190.3v10.1c0,3.1-2.5,5.7-5.7,5.7h-37.4c-3.1,0-5.7-2.5-5.7-5.7v-10.1c0-3.1,2.5-5.7,5.7-5.7h37.4
			C281.4,184.6,283.9,187.1,283.9,190.3z"/>
		<g class="st4">
			<g>
				<defs>
					<rect id="SVGID_1_" x="227" y="227.4" width="65.2" height="80.8"/>
				</defs>
				<clipPath id="SVGID_2_">
					<use xlink:href="#SVGID_1_"  style="overflow:visible;"/>
				</clipPath>
				<path class="st5" d="M281.3,308.2h-43.5c-6,0-10.9-4.9-10.9-10.9v-59c0-6,4.9-10.9,10.9-10.9h43.5c6,0,10.9,4.9,10.9,10.9v59
					C292.2,303.3,287.3,308.2,281.3,308.2"/>
			</g>
		</g>
		<path class="st1" d="M281.3,308.2h-43.5c-6,0-10.9-4.9-10.9-10.9v-59c0-6,4.9-10.9,10.9-10.9h43.5c6,0,10.9,4.9,10.9,10.9v59
			C292.2,303.3,287.3,308.2,281.3,308.2z"/>
		<path class="st6" d="M292.8,239.3h9.3c0.3,0,0.6,0.2,0.6,0.6v0.6c0,0.3,0.3,0.6,0.6,0.6h15c0.3,0,0.6,0.2,0.6,0.6v3.3
			c0,0.3-0.3,0.6-0.6,0.6h-15.3c-0.3,0-0.6-0.2-0.6-0.5c0-0.3-0.3-0.5-0.6-0.5l-9,0c-0.3,0-0.6-0.2-0.6-0.6v-4
			C292.2,239.6,292.5,239.3,292.8,239.3"/>
		<path class="st6" d="M292.8,256.9h9.3c0.3,0,0.6,0.2,0.6,0.6v0.6c0,0.3,0.3,0.6,0.6,0.6h15c0.3,0,0.6,0.2,0.6,0.6v3.3
			c0,0.3-0.3,0.6-0.6,0.6h-15.3c-0.3,0-0.6-0.2-0.6-0.5c0-0.3-0.3-0.5-0.6-0.5l-9,0c-0.3,0-0.6-0.2-0.6-0.6v-4
			C292.2,257.2,292.5,256.9,292.8,256.9"/>
		<path class="st6" d="M292.8,274.5h9.3c0.3,0,0.6,0.2,0.6,0.6v0.6c0,0.3,0.3,0.6,0.6,0.6h15c0.3,0,0.6,0.2,0.6,0.6v3.3
			c0,0.3-0.3,0.6-0.6,0.6h-15.3c-0.3,0-0.6-0.2-0.6-0.5c0-0.3-0.3-0.5-0.6-0.5l-9,0c-0.3,0-0.6-0.2-0.6-0.6v-4
			C292.2,274.8,292.5,274.5,292.8,274.5"/>
		<path class="st6" d="M292.8,292.1h9.3c0.3,0,0.6,0.2,0.6,0.6v0.6c0,0.3,0.3,0.6,0.6,0.6h15c0.3,0,0.6,0.2,0.6,0.6v3.3
			c0,0.3-0.3,0.6-0.6,0.6h-15.3c-0.3,0-0.6-0.2-0.6-0.5c0-0.3-0.3-0.5-0.6-0.5l-9,0c-0.3,0-0.6-0.2-0.6-0.6v-4
			C292.2,292.4,292.5,292.1,292.8,292.1"/>
		<path class="st6" d="M226.3,239.3H217c-0.3,0-0.6,0.2-0.6,0.6v0.6c0,0.3-0.3,0.6-0.6,0.6h-15c-0.3,0-0.6,0.2-0.6,0.6v3.3
			c0,0.3,0.3,0.6,0.6,0.6h15.3c0.3,0,0.6-0.2,0.6-0.5c0-0.3,0.3-0.5,0.6-0.5l9,0c0.3,0,0.6-0.2,0.6-0.6v-4
			C226.9,239.6,226.7,239.3,226.3,239.3"/>
		<path class="st6" d="M226.3,256.9H217c-0.3,0-0.6,0.2-0.6,0.6v0.6c0,0.3-0.3,0.6-0.6,0.6h-15c-0.3,0-0.6,0.2-0.6,0.6v3.3
			c0,0.3,0.3,0.6,0.6,0.6h15.3c0.3,0,0.6-0.2,0.6-0.5c0-0.3,0.3-0.5,0.6-0.5l9,0c0.3,0,0.6-0.2,0.6-0.6v-4
			C226.9,257.2,226.7,256.9,226.3,256.9"/>
		<path class="st6" d="M226.3,274.5H217c-0.3,0-0.6,0.2-0.6,0.6v0.6c0,0.3-0.3,0.6-0.6,0.6h-15c-0.3,0-0.6,0.2-0.6,0.6v3.3
			c0,0.3,0.3,0.6,0.6,0.6h15.3c0.3,0,0.6-0.2,0.6-0.5c0-0.3,0.3-0.5,0.6-0.5l9,0c0.3,0,0.6-0.2,0.6-0.6v-4
			C226.9,274.8,226.7,274.5,226.3,274.5"/>
		<path class="st6" d="M226.3,292.1H217c-0.3,0-0.6,0.2-0.6,0.6v0.6c0,0.3-0.3,0.6-0.6,0.6h-15c-0.3,0-0.6,0.2-0.6,0.6v3.3
			c0,0.3,0.3,0.6,0.6,0.6h15.3c0.3,0,0.6-0.2,0.6-0.5c0-0.3,0.3-0.5,0.6-0.5l9,0c0.3,0,0.6-0.2,0.6-0.6v-4
			C226.9,292.4,226.7,292.1,226.3,292.1"/>
		<path class="st6" d="M205.5,232.4c0,3.8-3.1,6.9-6.9,6.9c-3.8,0-6.9-3.1-6.9-6.9c0-3.8,3.1-6.9,6.9-6.9
			C202.4,225.4,205.5,228.5,205.5,232.4"/>
	</g>
</g>
</svg>
