<?xml version="1.0" encoding="utf-8"?>
<!-- Generator: Adobe Illustrator 22.0.0, SVG Export Plug-In . SVG Version: 6.00 Build 0)  -->
<svg version="1.1" id="图层_1" xmlns="http://www.w3.org/2000/svg" xmlns:xlink="http://www.w3.org/1999/xlink" x="0px" y="0px"
	 viewBox="0 0 740 400" style="enable-background:new 0 0 740 400;" xml:space="preserve">
<style type="text/css">
	.st0{fill:none;stroke:#FFFFFF;stroke-width:12;stroke-miterlimit:10;}
	.st1{fill:#FFFFFF;}
	.st2{fill:none;stroke:#FFFFFF;stroke-width:16.788;stroke-miterlimit:10;}
	.st3{fill:none;stroke:#FFFFFF;stroke-width:8.394;stroke-miterlimit:10;}
	.st4{fill:none;stroke:#FFFFFF;stroke-width:18.563;stroke-miterlimit:10;}
</style>
<g>
	<path class="st0" d="M-1926.9-4685h-15.6c-4.1,0-7.4-3.3-7.4-7.4v-58.1c0-4.1,3.3-7.4,7.4-7.4h15.6c4.1,0,7.4,3.3,7.4,7.4v58.1
		C-1919.5-4688.3-1922.8-4685-1926.9-4685z"/>
	<path class="st1" d="M-2110.1-4814.7h-256.6c-3.4,0-6.1-2.7-6.1-6.1c0-3.4,2.7-6.1,6.1-6.1h256.6c3.4,0,6.1,2.7,6.1,6.1
		C-2104.1-4817.5-2106.8-4814.7-2110.1-4814.7"/>
	<path class="st1" d="M-2087.4-4820.8c0,4.6-3.7,8.3-8.3,8.3c-4.6,0-8.3-3.7-8.3-8.3s3.7-8.3,8.3-8.3
		C-2091.1-4829.2-2087.4-4825.4-2087.4-4820.8"/>
	<path class="st1" d="M-2110.1-4792h-256.6c-3.4,0-6.1-2.7-6.1-6.1s2.7-6.1,6.1-6.1h256.6c3.4,0,6.1,2.7,6.1,6.1
		S-2106.8-4792-2110.1-4792"/>
	<path class="st1" d="M-2087.4-4798c0,4.6-3.7,8.3-8.3,8.3c-4.6,0-8.3-3.7-8.3-8.3s3.7-8.3,8.3-8.3
		C-2091.1-4806.4-2087.4-4802.7-2087.4-4798"/>
	<path class="st1" d="M-2110.1-4769.2h-256.6c-3.4,0-6.1-2.7-6.1-6.1s2.7-6.1,6.1-6.1h256.6c3.4,0,6.1,2.7,6.1,6.1
		S-2106.8-4769.2-2110.1-4769.2"/>
	<path class="st1" d="M-2087.4-4775.3c0,4.6-3.7,8.3-8.3,8.3c-4.6,0-8.3-3.7-8.3-8.3c0-4.6,3.7-8.4,8.3-8.4
		C-2091.1-4783.6-2087.4-4779.9-2087.4-4775.3"/>
	<path class="st1" d="M-2110.1-4746.4h-256.6c-3.4,0-6.1-2.7-6.1-6.1s2.7-6.1,6.1-6.1h256.6c3.4,0,6.1,2.7,6.1,6.1
		S-2106.8-4746.4-2110.1-4746.4"/>
	<path class="st1" d="M-2087.4-4752.5c0,4.6-3.7,8.4-8.3,8.4c-4.6,0-8.3-3.7-8.3-8.4c0-4.6,3.7-8.3,8.3-8.3
		C-2091.1-4760.9-2087.4-4757.1-2087.4-4752.5"/>
	<path class="st1" d="M-2110.1-4723.7h-256.6c-3.4,0-6.1-2.7-6.1-6.1s2.7-6.1,6.1-6.1h256.6c3.4,0,6.1,2.7,6.1,6.1
		S-2106.8-4723.7-2110.1-4723.7"/>
	<path class="st1" d="M-2087.4-4729.7c0,4.6-3.7,8.3-8.3,8.3c-4.6,0-8.3-3.7-8.3-8.3c0-4.6,3.7-8.3,8.3-8.3
		C-2091.1-4738.1-2087.4-4734.3-2087.4-4729.7"/>
	<path class="st1" d="M-2110.1-4700.9h-256.6c-3.4,0-6.1-2.7-6.1-6.1c0-3.4,2.7-6.1,6.1-6.1h256.6c3.4,0,6.1,2.7,6.1,6.1
		C-2104.1-4703.6-2106.8-4700.9-2110.1-4700.9"/>
	<path class="st1" d="M-2087.4-4707c0,4.6-3.7,8.3-8.3,8.3c-4.6,0-8.3-3.7-8.3-8.3s3.7-8.3,8.3-8.3
		C-2091.1-4715.3-2087.4-4711.6-2087.4-4707"/>
	<path class="st1" d="M-2110.1-4678.1h-256.6c-3.4,0-6.1-2.7-6.1-6.1c0-3.4,2.7-6.1,6.1-6.1h256.6c3.4,0,6.1,2.7,6.1,6.1
		C-2104.1-4680.8-2106.8-4678.1-2110.1-4678.1"/>
	<path class="st1" d="M-2087.4-4684.2c0,4.6-3.7,8.3-8.3,8.3c-4.6,0-8.3-3.7-8.3-8.3c0-4.6,3.7-8.3,8.3-8.3
		C-2091.1-4692.5-2087.4-4688.8-2087.4-4684.2"/>
	<path class="st1" d="M-2110.1-4655.4h-256.6c-3.4,0-6.1-2.7-6.1-6.1s2.7-6.1,6.1-6.1h256.6c3.4,0,6.1,2.7,6.1,6.1
		S-2106.8-4655.4-2110.1-4655.4"/>
	<path class="st1" d="M-2087.4-4661.4c0,4.6-3.7,8.3-8.3,8.3c-4.6,0-8.3-3.7-8.3-8.3c0-4.6,3.7-8.3,8.3-8.3
		C-2091.1-4669.8-2087.4-4666-2087.4-4661.4"/>
	<path class="st1" d="M-2110.1-4632.6h-256.6c-3.4,0-6.1-2.7-6.1-6.1s2.7-6.1,6.1-6.1h256.6c3.4,0,6.1,2.7,6.1,6.1
		S-2106.8-4632.6-2110.1-4632.6"/>
	<path class="st1" d="M-2087.4-4638.7c0,4.6-3.7,8.3-8.3,8.3c-4.6,0-8.3-3.7-8.3-8.3c0-4.6,3.7-8.3,8.3-8.3
		C-2091.1-4647-2087.4-4643.3-2087.4-4638.7"/>
	<path class="st2" d="M-1855.3-4797.2h24.5v-18.8c0-5.4,4.4-9.7,9.7-9.7h89.6c5.4,0,9.7,4.4,9.7,9.7v189.1c0,5.4-4.4,9.7-9.7,9.7
		h-89.6c-5.4,0-9.7-4.4-9.7-9.7v-18.8h-24.5c-5.4,0-9.7-4.4-9.7-9.7v-132.1C-1865.1-4792.8-1860.7-4797.2-1855.3-4797.2z"/>
	<path class="st3" d="M-1785.4-4777.2h14.2c2,0,3.6-1.6,3.6-3.6v-14.2c0-2-1.6-3.6-3.6-3.6h-14.2c-2,0-3.6,1.6-3.6,3.6v14.2
		C-1789-4778.8-1787.4-4777.2-1785.4-4777.2z"/>
	<path class="st3" d="M-1785.4-4732.9h14.2c2,0,3.6-1.6,3.6-3.6v-14.2c0-2-1.6-3.6-3.6-3.6h-14.2c-2,0-3.6,1.6-3.6,3.6v14.2
		C-1789-4734.5-1787.4-4732.9-1785.4-4732.9z"/>
	<path class="st3" d="M-1785.4-4688.6h14.2c2,0,3.6-1.6,3.6-3.6v-14.2c0-2-1.6-3.6-3.6-3.6h-14.2c-2,0-3.6,1.6-3.6,3.6v14.2
		C-1789-4690.2-1787.4-4688.6-1785.4-4688.6z"/>
	<path class="st3" d="M-1785.4-4644.2h14.2c2,0,3.6-1.6,3.6-3.6v-14.2c0-2-1.6-3.6-3.6-3.6h-14.2c-2,0-3.6,1.6-3.6,3.6v14.2
		C-1789-4645.8-1787.4-4644.2-1785.4-4644.2z"/>
	<path class="st4" d="M-1731.8-4562.1h-625.5c-22.6,0-40.9-18.3-40.9-40.9v-261.7c0-22.6,18.3-40.9,40.9-40.9h625.5
		c22.6,0,40.9,18.3,40.9,40.9v261.7C-1690.9-4580.4-1709.2-4562.1-1731.8-4562.1z"/>
</g>
<g>
	<g>
		<path class="st2" d="M170.2,126.5h-23.8v-18.2c0-5.2-4.2-9.4-9.4-9.4H50.2c-5.2,0-9.4,4.2-9.4,9.4v183.3c0,5.2,4.2,9.4,9.4,9.4
			H137c5.2,0,9.4-4.2,9.4-9.4v-18.2h23.8c5.2,0,9.4-4.2,9.4-9.4V136C179.6,130.8,175.4,126.5,170.2,126.5z"/>
		<path class="st3" d="M102.4,145.8H88.7c-1.9,0-3.5-1.6-3.5-3.5v-13.7c0-1.9,1.6-3.5,3.5-3.5h13.7c1.9,0,3.5,1.6,3.5,3.5v13.7
			C105.9,144.3,104.3,145.8,102.4,145.8z"/>
		<path class="st3" d="M102.4,188.8H88.7c-1.9,0-3.5-1.6-3.5-3.5v-13.7c0-1.9,1.6-3.5,3.5-3.5h13.7c1.9,0,3.5,1.6,3.5,3.5v13.7
			C105.9,187.3,104.3,188.8,102.4,188.8z"/>
		<path class="st3" d="M102.4,231.8H88.7c-1.9,0-3.5-1.6-3.5-3.5v-13.7c0-1.9,1.6-3.5,3.5-3.5h13.7c1.9,0,3.5,1.6,3.5,3.5v13.7
			C105.9,230.3,104.3,231.8,102.4,231.8z"/>
		<path class="st3" d="M102.4,274.8H88.7c-1.9,0-3.5-1.6-3.5-3.5v-13.7c0-1.9,1.6-3.5,3.5-3.5h13.7c1.9,0,3.5,1.6,3.5,3.5v13.7
			C105.9,273.3,104.3,274.8,102.4,274.8z"/>
		<path class="st1" d="M672,164.5v-21.2h25.9v-38.2c0-10.3-10.7-18.6-23.9-18.6H376.9c-13.2,0-23.9,8.3-23.9,18.6v189.8
			c0,10.3,10.7,18.6,23.9,18.6h297.2c13.2,0,23.9-8.3,23.9-18.6v-46.3H672v-21.2h25.9v-20.8H672v-21.2h25.9v-20.8H672z M563.1,143.3
			h27.2v21.2h-27.2V143.3z M563.1,185.3h27.2v21.2h-27.2V185.3z M508.6,143.3h27.2v21.2h-27.2V143.3z M508.6,185.3h27.2v21.2h-27.2
			V185.3z M426.8,290.6h-27.2v-21.2h27.2V290.6z M426.8,248.6h-27.2v-21.2h27.2V248.6z M426.8,206.6h-27.2v-21.2h27.2V206.6z
			 M426.8,164.5h-27.2v-21.2h27.2V164.5z M426.8,122.5h-27.2v-21.2h27.2V122.5z M481.3,248.6h-27.2v-21.2h27.2V248.6z M481.3,206.6
			h-27.2v-21.2h27.2V206.6z M481.3,164.5h-27.2v-21.2h27.2V164.5z M508.6,227.3h27.2v21.2h-27.2V227.3z M539.1,290.6h-27.2v-21.2
			h27.2V290.6z M539.1,122.5h-27.2v-21.2h27.2V122.5z M563.1,227.3h27.2v21.2h-27.2V227.3z M596.2,290.6H569v-21.2h27.2V290.6z
			 M596.2,122.5H569v-21.2h27.2V122.5z M644.8,248.6h-27.2v-21.2h27.2V248.6z M644.8,206.6h-27.2v-21.2h27.2V206.6z M644.8,164.5
			h-27.2v-21.2h27.2V164.5z"/>
		<rect x="697.9" y="227.3" class="st1" width="1.3" height="21.2"/>
		<rect x="697.9" y="185.3" class="st1" width="1.3" height="21.2"/>
		<rect x="697.9" y="143.3" class="st1" width="1.3" height="21.2"/>
	</g>
	<path class="st4" d="M682.7,371.7H57.3c-22.6,0-40.9-18.3-40.9-40.9V69.1c0-22.6,18.3-40.9,40.9-40.9h625.5
		c22.6,0,40.9,18.3,40.9,40.9v261.7C723.6,353.4,705.3,371.7,682.7,371.7z"/>
</g>
</svg>
