<?xml version="1.0" encoding="utf-8"?>
<!-- Generator: Adobe Illustrator 22.0.0, SVG Export Plug-In . SVG Version: 6.00 Build 0)  -->
<svg version="1.1" id="图层_1" xmlns="http://www.w3.org/2000/svg" xmlns:xlink="http://www.w3.org/1999/xlink" x="0px" y="0px"
	 viewBox="0 0 740 400" style="enable-background:new 0 0 740 400;" xml:space="preserve">
<style type="text/css">
	.st0{fill:none;stroke:#FFFFFF;stroke-width:12;stroke-miterlimit:10;}
	.st1{fill:#FFFFFF;}
	.st2{fill:none;stroke:#FFFFFF;stroke-width:16.788;stroke-miterlimit:10;}
	.st3{fill:none;stroke:#FFFFFF;stroke-width:8.394;stroke-miterlimit:10;}
	.st4{fill:none;stroke:#FFFFFF;stroke-width:18.563;stroke-miterlimit:10;}
	.st5{fill:none;stroke:#FFFFFF;stroke-width:17.7244;stroke-miterlimit:10;}
	.st6{fill:none;stroke:#FFFFFF;stroke-width:6.606;stroke-miterlimit:10;}
	.st7{fill:#F4F4F2;}
	.st8{opacity:0.8;fill:#F4F4F2;}
	.st9{opacity:0.4;fill:#FFFFFF;}
	.st10{opacity:0.2;fill:#FFFFFF;}
	.st11{opacity:0.2;}
	.st12{fill:none;stroke:#FFFFFF;stroke-width:12;stroke-linecap:round;stroke-linejoin:round;stroke-miterlimit:10;}
	.st13{fill:none;stroke:#FFFFFF;stroke-width:8;stroke-linecap:round;stroke-linejoin:round;stroke-miterlimit:10;}
</style>
<g>
	<path class="st0" d="M-1926.9-4685h-15.6c-4.1,0-7.4-3.3-7.4-7.4v-58.1c0-4.1,3.3-7.4,7.4-7.4h15.6c4.1,0,7.4,3.3,7.4,7.4v58.1
		C-1919.5-4688.3-1922.8-4685-1926.9-4685z"/>
	<path class="st1" d="M-2110.1-4814.7h-256.6c-3.4,0-6.1-2.7-6.1-6.1c0-3.4,2.7-6.1,6.1-6.1h256.6c3.4,0,6.1,2.7,6.1,6.1
		C-2104.1-4817.5-2106.8-4814.7-2110.1-4814.7"/>
	<path class="st1" d="M-2087.4-4820.8c0,4.6-3.7,8.3-8.3,8.3c-4.6,0-8.3-3.7-8.3-8.3s3.7-8.3,8.3-8.3
		C-2091.1-4829.2-2087.4-4825.4-2087.4-4820.8"/>
	<path class="st1" d="M-2110.1-4792h-256.6c-3.4,0-6.1-2.7-6.1-6.1s2.7-6.1,6.1-6.1h256.6c3.4,0,6.1,2.7,6.1,6.1
		S-2106.8-4792-2110.1-4792"/>
	<path class="st1" d="M-2087.4-4798c0,4.6-3.7,8.3-8.3,8.3c-4.6,0-8.3-3.7-8.3-8.3s3.7-8.3,8.3-8.3
		C-2091.1-4806.4-2087.4-4802.7-2087.4-4798"/>
	<path class="st1" d="M-2110.1-4769.2h-256.6c-3.4,0-6.1-2.7-6.1-6.1s2.7-6.1,6.1-6.1h256.6c3.4,0,6.1,2.7,6.1,6.1
		S-2106.8-4769.2-2110.1-4769.2"/>
	<path class="st1" d="M-2087.4-4775.3c0,4.6-3.7,8.3-8.3,8.3c-4.6,0-8.3-3.7-8.3-8.3c0-4.6,3.7-8.4,8.3-8.4
		C-2091.1-4783.6-2087.4-4779.9-2087.4-4775.3"/>
	<path class="st1" d="M-2110.1-4746.4h-256.6c-3.4,0-6.1-2.7-6.1-6.1s2.7-6.1,6.1-6.1h256.6c3.4,0,6.1,2.7,6.1,6.1
		S-2106.8-4746.4-2110.1-4746.4"/>
	<path class="st1" d="M-2087.4-4752.5c0,4.6-3.7,8.4-8.3,8.4c-4.6,0-8.3-3.7-8.3-8.4c0-4.6,3.7-8.3,8.3-8.3
		C-2091.1-4760.9-2087.4-4757.1-2087.4-4752.5"/>
	<path class="st1" d="M-2110.1-4723.7h-256.6c-3.4,0-6.1-2.7-6.1-6.1s2.7-6.1,6.1-6.1h256.6c3.4,0,6.1,2.7,6.1,6.1
		S-2106.8-4723.7-2110.1-4723.7"/>
	<path class="st1" d="M-2087.4-4729.7c0,4.6-3.7,8.3-8.3,8.3c-4.6,0-8.3-3.7-8.3-8.3c0-4.6,3.7-8.3,8.3-8.3
		C-2091.1-4738.1-2087.4-4734.3-2087.4-4729.7"/>
	<path class="st1" d="M-2110.1-4700.9h-256.6c-3.4,0-6.1-2.7-6.1-6.1c0-3.4,2.7-6.1,6.1-6.1h256.6c3.4,0,6.1,2.7,6.1,6.1
		C-2104.1-4703.6-2106.8-4700.9-2110.1-4700.9"/>
	<path class="st1" d="M-2087.4-4707c0,4.6-3.7,8.3-8.3,8.3c-4.6,0-8.3-3.7-8.3-8.3s3.7-8.3,8.3-8.3
		C-2091.1-4715.3-2087.4-4711.6-2087.4-4707"/>
	<path class="st1" d="M-2110.1-4678.1h-256.6c-3.4,0-6.1-2.7-6.1-6.1c0-3.4,2.7-6.1,6.1-6.1h256.6c3.4,0,6.1,2.7,6.1,6.1
		C-2104.1-4680.8-2106.8-4678.1-2110.1-4678.1"/>
	<path class="st1" d="M-2087.4-4684.2c0,4.6-3.7,8.3-8.3,8.3c-4.6,0-8.3-3.7-8.3-8.3c0-4.6,3.7-8.3,8.3-8.3
		C-2091.1-4692.5-2087.4-4688.8-2087.4-4684.2"/>
	<path class="st1" d="M-2110.1-4655.4h-256.6c-3.4,0-6.1-2.7-6.1-6.1s2.7-6.1,6.1-6.1h256.6c3.4,0,6.1,2.7,6.1,6.1
		S-2106.8-4655.4-2110.1-4655.4"/>
	<path class="st1" d="M-2087.4-4661.4c0,4.6-3.7,8.3-8.3,8.3c-4.6,0-8.3-3.7-8.3-8.3c0-4.6,3.7-8.3,8.3-8.3
		C-2091.1-4669.8-2087.4-4666-2087.4-4661.4"/>
	<path class="st1" d="M-2110.1-4632.6h-256.6c-3.4,0-6.1-2.7-6.1-6.1s2.7-6.1,6.1-6.1h256.6c3.4,0,6.1,2.7,6.1,6.1
		S-2106.8-4632.6-2110.1-4632.6"/>
	<path class="st1" d="M-2087.4-4638.7c0,4.6-3.7,8.3-8.3,8.3c-4.6,0-8.3-3.7-8.3-8.3c0-4.6,3.7-8.3,8.3-8.3
		C-2091.1-4647-2087.4-4643.3-2087.4-4638.7"/>
	<path class="st2" d="M-1855.3-4797.2h24.5v-18.8c0-5.4,4.4-9.7,9.7-9.7h89.6c5.4,0,9.7,4.4,9.7,9.7v189.1c0,5.4-4.4,9.7-9.7,9.7
		h-89.6c-5.4,0-9.7-4.4-9.7-9.7v-18.8h-24.5c-5.4,0-9.7-4.4-9.7-9.7v-132.1C-1865.1-4792.8-1860.7-4797.2-1855.3-4797.2z"/>
	<path class="st3" d="M-1785.4-4777.2h14.2c2,0,3.6-1.6,3.6-3.6v-14.2c0-2-1.6-3.6-3.6-3.6h-14.2c-2,0-3.6,1.6-3.6,3.6v14.2
		C-1789-4778.8-1787.4-4777.2-1785.4-4777.2z"/>
	<path class="st3" d="M-1785.4-4732.9h14.2c2,0,3.6-1.6,3.6-3.6v-14.2c0-2-1.6-3.6-3.6-3.6h-14.2c-2,0-3.6,1.6-3.6,3.6v14.2
		C-1789-4734.5-1787.4-4732.9-1785.4-4732.9z"/>
	<path class="st3" d="M-1785.4-4688.6h14.2c2,0,3.6-1.6,3.6-3.6v-14.2c0-2-1.6-3.6-3.6-3.6h-14.2c-2,0-3.6,1.6-3.6,3.6v14.2
		C-1789-4690.2-1787.4-4688.6-1785.4-4688.6z"/>
	<path class="st3" d="M-1785.4-4644.2h14.2c2,0,3.6-1.6,3.6-3.6v-14.2c0-2-1.6-3.6-3.6-3.6h-14.2c-2,0-3.6,1.6-3.6,3.6v14.2
		C-1789-4645.8-1787.4-4644.2-1785.4-4644.2z"/>
	<path class="st4" d="M-1731.8-4562.1h-625.5c-22.6,0-40.9-18.3-40.9-40.9v-261.7c0-22.6,18.3-40.9,40.9-40.9h625.5
		c22.6,0,40.9,18.3,40.9,40.9v261.7C-1690.9-4580.4-1709.2-4562.1-1731.8-4562.1z"/>
</g>
<g>
	<g>
		<g>
			<path class="st5" d="M617.9,211.6l-13.9-0.1l-0.1,11.6c0,3.3-2.5,6-5.6,6l-50.9-0.3c-3.1,0-5.5-2.7-5.5-6l0.6-116.8
				c0-3.3,2.5-6,5.6-6l50.9,0.3c3.1,0,5.5,2.7,5.5,6l-0.1,11.6l13.9,0.1c3.1,0,5.5,2.7,5.5,6l-0.4,81.6
				C623.5,209,621,211.7,617.9,211.6z"/>
			<path class="st6" d="M576.4,199.1l-4.3,0c-2.2,0-3.9,1.7-3.9,3.9l0,5.3c0,2.2,1.7,3.9,3.9,3.9l4.3,0c2.2,0,3.9-1.7,3.9-3.9l0-5.3
				C580.3,200.9,578.5,199.1,576.4,199.1z"/>
			<path class="st6" d="M576.5,171.7l-4.3,0c-2.2,0-3.9,1.7-3.9,3.9l0,5.3c0,2.2,1.7,3.9,3.9,3.9l4.3,0c2.2,0,3.9-1.7,3.9-3.9l0-5.3
				C580.4,173.5,578.7,171.7,576.5,171.7z"/>
			<path class="st6" d="M576.6,144.3l-4.3,0c-2.2,0-3.9,1.7-3.9,3.9l0,5.3c0,2.2,1.7,3.9,3.9,3.9l4.3,0c2.2,0,3.9-1.7,3.9-3.9l0-5.3
				C580.6,146.1,578.8,144.3,576.6,144.3z"/>
			<path class="st6" d="M576.8,116.9l-4.3,0c-2.2,0-3.9,1.7-3.9,3.9l0,5.3c0,2.2,1.7,3.9,3.9,3.9l4.3,0c2.2,0,3.9-1.7,3.9-3.9l0-5.3
				C580.7,118.7,579,117,576.8,116.9z"/>
		</g>
		<g>
			<g>
				<ellipse class="st7" cx="355.5" cy="72" rx="94.5" ry="43.7"/>
				<path class="st7" d="M408.8,150.5H302.2c-6.6,0-12-5.4-12-12V106c0-6.6,5.4-12,12-12h106.6c6.6,0,12,5.4,12,12v32.5
					C420.8,145.1,415.4,150.5,408.8,150.5z"/>
				<path class="st8" d="M355.5,122.2c-72.1,0-132,42.7-144,98.8c-2.3,10.8,7.9,20.6,21.2,20.6h245.5c13.4,0,23.5-9.8,21.2-20.6
					C487.5,164.9,427.6,122.2,355.5,122.2z"/>
			</g>
			<g>
				<path class="st9" d="M389.9,322l-68.7,0c-23.5,0-42.5-19-42.5-42.5l0-68.7c0-23.5,19-42.5,42.5-42.5l68.7,0
					c23.5,0,42.5,19,42.5,42.5l0,68.7C432.4,303,413.4,322,389.9,322z"/>
				<polygon class="st10" points="393.8,311.5 317.3,311.5 279,245.2 317.3,178.9 393.8,178.9 432,245.2 				"/>
				<g class="st11">
					<circle class="st1" cx="355.9" cy="245.2" r="34.2"/>
					<path class="st1" d="M403.5,236.8h-34.7c-2.7,0-5-2.2-5-5v-34.7c0-2.7-2.2-5-5-5h-6.8c-2.7,0-5,2.2-5,5v34.7c0,2.7-2.2,5-5,5
						h-34.7c-2.7,0-5,2.2-5,5v6.8c0,2.7,2.2,5,5,5h34.7c2.7,0,5,2.2,5,5v34.7c0,2.7,2.2,5,5,5h6.8c2.7,0,5-2.2,5-5v-34.7
						c0-2.7,2.2-5,5-5h34.7c2.7,0,5-2.2,5-5v-6.8C408.5,239,406.3,236.8,403.5,236.8z"/>
				</g>
			</g>
		</g>
		<line class="st12" x1="116.1" y1="89.7" x2="211.2" y2="89.7"/>
		<line class="st12" x1="163.7" y1="48.9" x2="163.7" y2="130.5"/>
		<polyline class="st13" points="157,54.4 163.5,47.2 170.3,54.1 		"/>
		<polyline class="st13" points="123.2,96.4 116.1,89.9 122.9,83 		"/>
		<polyline class="st13" points="170.3,125 163.8,132.2 157,125.3 		"/>
		<polyline class="st13" points="204.1,83 211.2,89.5 204.4,96.4 		"/>
	</g>
	<path class="st4" d="M682.7,371.7H57.3c-22.6,0-40.9-18.3-40.9-40.9V69.1c0-22.6,18.3-40.9,40.9-40.9h625.5
		c22.6,0,40.9,18.3,40.9,40.9v261.7C723.6,353.4,705.3,371.7,682.7,371.7z"/>
</g>
</svg>
