<?xml version="1.0" encoding="utf-8"?>
<!-- Generator: Adobe Illustrator 22.0.0, SVG Export Plug-In . SVG Version: 6.00 Build 0)  -->
<svg version="1.1" id="图层_1" xmlns="http://www.w3.org/2000/svg" xmlns:xlink="http://www.w3.org/1999/xlink" x="0px" y="0px"
	 viewBox="0 0 480 400" style="enable-background:new 0 0 480 400;" xml:space="preserve">
<style type="text/css">
	.st0{fill:none;stroke:#FFFFFF;stroke-width:18.563;stroke-miterlimit:10;}
	.st1{fill:#FFFFFF;}
	.st2{opacity:0.8;fill:#FFFFFF;}
	.st3{fill:none;stroke:#FFFFFF;stroke-width:7.0159;stroke-miterlimit:10;}
	.st4{fill:none;stroke:#FFFFFF;stroke-width:13.9299;stroke-miterlimit:10;}
	.st5{fill:none;stroke:#FFFFFF;stroke-width:5.1918;stroke-miterlimit:10;}
</style>
<g>
	<path class="st0" d="M410.2,375.6H69.8c-27.7,0-50.2-22.5-50.2-50.2V72c0-27.7,22.5-50.2,50.2-50.2h340.5
		c27.7,0,50.2,22.5,50.2,50.2v253.5C460.4,353.2,437.9,375.6,410.2,375.6z"/>
	<g>
		<path class="st1" d="M359.7,248.8c-1.1,0-2.1,0.1-3.2,0.2c-0.7-0.1-1.3-0.2-2-0.2H144.7c-1,0-1.9,0.1-2.8,0.4
			c-1.5-0.2-3-0.4-4.5-0.4c-8.8,0-16.8,4.2-23.1,11.1c-1.3,1.4-2,3.4-2,5.6v63.9c0,2.2,0.7,4.2,2,5.6c6.3,7,14.3,11.1,23.1,11.1
			c1.5,0,3-0.1,4.5-0.4c0.9,0.3,1.9,0.4,2.8,0.4h209.8c0.7,0,1.4-0.1,2-0.2c1,0.1,2.1,0.2,3.2,0.2c9.2,0,17.5-4.6,23.9-12.1
			c1.3-1.5,2-3.6,2-5.9v-61.4c0-2.3-0.7-4.4-2-5.9C377.2,253.4,368.8,248.8,359.7,248.8z"/>
		<ellipse class="st2" cx="99.9" cy="297" rx="21.3" ry="24.6"/>
		<path class="st2" d="M393.9,321.5h-16.8c-4.1,0-7.4-3.3-7.4-7.4v-33c0-4.1,3.3-7.4,7.4-7.4h16.8c4.1,0,7.4,3.3,7.4,7.4v33
			C401.4,318.1,398,321.5,393.9,321.5z"/>
		<path class="st3" d="M408.8,335.9H71.2c-7.6,0-13.8-6.2-13.8-13.8V273c0-7.6,6.2-13.8,13.8-13.8h337.6c7.6,0,13.8,6.2,13.8,13.8
			v49.1C422.6,329.7,416.4,335.9,408.8,335.9z"/>
		<g>
			<path class="st4" d="M309.6,154.5l0.2-18.8l15.6,0.1c4.5,0,8.1-3.3,8.2-7.4l0.6-68.5c0-4.1-3.6-7.5-8-7.5l-157.3-1.3
				c-4.5,0-8.1,3.3-8.2,7.4l-0.6,68.5c0,4.1,3.6,7.5,8,7.5l15.6,0.1l-0.2,18.8c0,4.1,3.6,7.5,8,7.5l109.9,0.9
				C305.9,162,309.5,158.7,309.6,154.5z"/>
			<path class="st5" d="M293.5,99.7l0.1-8.5c0-2.2,1.8-3.9,3.9-3.9l9.9,0.1c2.2,0,3.9,1.8,3.9,3.9l-0.1,8.5c0,2.2-1.8,3.9-3.9,3.9
				l-9.9-0.1C295.2,103.6,293.4,101.9,293.5,99.7z"/>
			<path class="st5" d="M256.6,99.4l0.1-8.5c0-2.2,1.8-3.9,3.9-3.9l9.9,0.1c2.2,0,3.9,1.8,3.9,3.9l-0.1,8.5c0,2.2-1.8,3.9-3.9,3.9
				l-9.9-0.1C258.3,103.3,256.6,101.5,256.6,99.4z"/>
			<path class="st5" d="M219.7,99.1l0.1-8.5c0-2.2,1.8-3.9,3.9-3.9l9.9,0.1c2.2,0,3.9,1.8,3.9,3.9l-0.1,8.5c0,2.2-1.8,3.9-3.9,3.9
				l-9.9-0.1C221.4,103,219.7,101.2,219.7,99.1z"/>
			<path class="st5" d="M182.8,98.8l0.1-8.5c0-2.2,1.8-3.9,3.9-3.9l9.9,0.1c2.2,0,3.9,1.8,3.9,3.9l-0.1,8.5c0,2.2-1.8,3.9-3.9,3.9
				l-9.9-0.1C184.5,102.7,182.8,100.9,182.8,98.8z"/>
		</g>
		<path class="st3" d="M281.4,225.1h-65c-8.2,0-14.9-6.6-14.9-14.9v-13.9c0-8.2,6.6-14.9,14.9-14.9h65c8.2,0,14.9,6.6,14.9,14.9
			v13.9C296.3,218.5,289.6,225.1,281.4,225.1z"/>
	</g>
</g>
</svg>
