<?xml version="1.0" encoding="utf-8"?>
<!-- Generator: Adobe Illustrator 22.0.0, SVG Export Plug-In . SVG Version: 6.00 Build 0)  -->
<svg version="1.1" id="图层_1" xmlns="http://www.w3.org/2000/svg" xmlns:xlink="http://www.w3.org/1999/xlink" x="0px" y="0px"
	 viewBox="0 0 480 400" style="enable-background:new 0 0 480 400;" xml:space="preserve">
<style type="text/css">
	.st0{fill:none;stroke:#FFFFFF;stroke-width:18.563;stroke-miterlimit:10;}
	.st1{fill:none;stroke:#FFFFFF;stroke-width:4.8935;stroke-miterlimit:10;}
	.st2{fill:none;stroke:#FFFFFF;stroke-width:6.2265;stroke-miterlimit:10;}
	.st3{clip-path:url(#SVGID_2_);fill:#FFFFFF;}
	.st4{fill:#FFFFFF;}
</style>
<g>
	<path class="st0" d="M410.2,376.9H69.8c-27.7,0-50.2-22.5-50.2-50.2V73.3c0-27.7,22.5-50.2,50.2-50.2h340.5
		c27.7,0,50.2,22.5,50.2,50.2v253.5C460.4,354.5,437.9,376.9,410.2,376.9z"/>
	<g>
		<g>
			<path class="st1" d="M371.5,206.6l-0.3-25.1c-0.1-8.3,6.6-15.1,14.9-15.2l25.1-0.3c8.3-0.1,15.1,6.6,15.2,14.9l0.3,25.1
				c0.1,8.3-6.6,15.1-14.9,15.2l-25.1,0.3C378.4,221.6,371.5,214.9,371.5,206.6z"/>
			<line class="st2" x1="350.2" y1="75.8" x2="352.9" y2="322.9"/>
			<line class="st2" x1="355.1" y1="80.1" x2="317.4" y2="80.5"/>
			<line class="st2" x1="357.7" y1="318.3" x2="320" y2="318.8"/>
			<line class="st2" x1="370.7" y1="199.7" x2="318.7" y2="199.7"/>
			<path class="st1" d="M262.3,93.7l-0.3-25.1c-0.1-8.3,6.6-15.1,14.9-15.2l25.1-0.3c8.3-0.1,15.1,6.6,15.2,14.9l0.3,25.1
				c0.1,8.3-6.6,15.1-14.9,15.2l-25.1,0.3C269.2,108.6,262.4,102,262.3,93.7z"/>
			<path class="st1" d="M265.3,212.9l-0.3-25.1c-0.1-8.3,6.6-15.1,14.9-15.2l25.1-0.3c8.3-0.1,15.1,6.6,15.2,14.9l0.3,25.1
				c0.1,8.3-6.6,15.1-14.9,15.2l-25.1,0.3C272.1,227.8,265.3,221.2,265.3,212.9z"/>
			<path class="st1" d="M268.2,332.1l-0.3-25.1c-0.1-8.3,6.6-15.1,14.9-15.2l25.1-0.3c8.3-0.1,15.1,6.6,15.2,14.9l0.3,25.1
				c0.1,8.3-6.6,15.1-14.9,15.2l-25.1,0.3C275.1,347.1,268.3,340.4,268.2,332.1z"/>
		</g>
		<g>
			<defs>
				
					<rect id="SVGID_1_" x="72" y="189.7" transform="matrix(0.866 -0.5 0.5 0.866 -103.8904 104.8034)" width="143.3" height="113.1"/>
			</defs>
			<clipPath id="SVGID_2_">
				<use xlink:href="#SVGID_1_"  style="overflow:visible;"/>
			</clipPath>
			<path class="st3" d="M99.5,309.8l-1.3,0.7l-23.7-41.1c-3.3-5.6-2.5-10.5,1.1-17.4c0.2-0.5,0.4-0.8,0.9-1.7
				c0.2-0.3,0.3-0.6,0.4-0.9l0.3-0.7c0.1-0.2,0.2-0.4,0.3-0.6l17.4-35.6c1.9-4,5.4-7,9.6-8.5c4.2-1.4,8.8-1.2,12.8,0.8
				c3,1.5,5.5,3.8,7.1,6.7c1.5,2.5,2.2,5.3,2.3,8.2l48.7-28.1c8-4.6,18.1-2.2,22.5,5.5c4.4,7.7,1.5,17.6-6.5,22.2l-16.1,9.3
				c1.3,1,2.4,2.3,3.2,3.7c2.2,3.8,2.4,8.4,0.6,12.6c2.6,1.2,4.7,3.1,6,5.5c2.7,4.7,2.3,10.7-0.9,15.5c1.2,1,2.2,2.2,2.9,3.5
				c4.1,7.1,0.9,16.6-7.1,21.2l-40,23.1c-14.4,8.4-36.3,6.4-41.8-3.1L99.5,309.8z M100.7,309c4.6,7.9,24.7,9.7,37.8,2.1l40-23.1
				c6.7-3.8,9.3-11.6,6-17.3c-0.8-1.4-1.9-2.5-3.3-3.5l-1.3-0.9l1-1.2c3.3-4.1,3.9-9.4,1.6-13.4c-1.3-2.2-3.4-3.8-6-4.8l-1.6-0.6
				l0.8-1.5c2-3.7,2-7.9,0.1-11.2c-1-1.7-2.4-3-4.2-4l-2.3-1.2l20.4-11.8c6.6-3.8,9-12,5.4-18.3c-3.6-6.2-11.9-8.3-18.5-4.4
				l-53.7,31l0.5-3c0.5-3.1-0.1-6.4-1.7-9.1c-1.4-2.4-3.4-4.3-5.9-5.5c-3.3-1.6-7.1-1.9-10.6-0.7c-3.5,1.2-6.3,3.7-7.9,7l-17.4,35.5
				c-0.1,0.2-0.2,0.4-0.3,0.7l-0.3,0.6c-0.2,0.6-0.4,0.9-0.5,1.2c-0.5,0.9-0.6,1.2-0.9,1.7c-3.2,6.2-3.8,10.1-1.1,14.7L100.7,309
				l-1.3,0.7L100.7,309z M82.5,251.7c0-0.1,0.4-0.9,0.5-1.1l17.4-35.6c1.2-2.5,3.4-4.5,6.1-5.4c2.7-0.9,5.6-0.7,8.1,0.5
				c1.9,0.9,3.4,2.4,4.5,4.2l-1.3,0.7l1.3-0.7c1.8,3.1,1.9,6.8,0.4,10l-4.3,8.7l63-36.4c5.1-2.9,11.4-1.5,14.1,3.3
				c2.7,4.7,0.8,10.9-4.3,13.9l-32.5,18.7l8.2-1.2c3.9-0.5,7.5,0.9,9.2,3.8c2,3.4,0.7,8.2-2.8,11.3l-3.5,3.1l4.7-0.3
				c3.5-0.2,6.7,1.3,8.2,3.9c2.3,3.9,0.4,9.3-4,12.4l-3.2,2.2l3.8,0.8c2.4,0.5,4.4,1.8,5.4,3.7c2.4,4.2,0.1,10-4.8,12.9l-40,23.1
				c-11.5,6.6-29.8,5.3-33.4-1l-23.7-41.1c-2.1-3.7-1.5-6.5,2.1-13.4C82.2,252.4,82.3,252,82.5,251.7 M116.7,215.8
				c-0.8-1.3-1.9-2.4-3.3-3.1c-1.8-0.9-4-1-5.9-0.4c-1.9,0.7-3.5,2.1-4.4,3.9l-17.5,35.7c-0.1,0.1-0.4,0.9-0.5,1
				c-0.3,0.6-0.4,0.8-0.5,1c-3.3,6.3-3.8,8.2-2.3,10.7l23.7,41.1c2.7,4.6,19.2,5.8,29.4-0.1l40-23.1c3.6-2.1,5.3-6.3,3.8-8.9
				c-0.7-1.2-1.9-2-3.6-2.4l-10.5-2.1l2.8-1.9l6-4.1c3.3-2.3,4.6-6,3.1-8.5c-0.9-1.6-3-2.6-5.5-2.5l-12.9,0.8l3.1-2.8l6.6-5.9
				c2.6-2.3,3.4-5.6,2.2-7.8c-1-1.8-3.5-2.8-6.3-2.4l-23.1,3.3l45.5-26.2c3.7-2.1,5.1-6.6,3.2-9.9c-1.9-3.3-6.5-4.3-10.2-2.2
				l-71.3,41.1l2.1-4.3l6.4-12.9C118.1,220.8,118,218,116.7,215.8l1.2-0.7L116.7,215.8L116.7,215.8z"/>
		</g>
		<path class="st4" d="M145.3,238.7l1.6,2.8l16-9.2l-1.6-2.8L145.3,238.7z M166.9,233.3l-21,12.1l-4.5-7.8l21-12.1L166.9,233.3z
			 M152,257.6l1.6,2.8l16-9.2l-1.6-2.8L152,257.6z M173.6,252.2l-21,12.1l-4.5-7.8l21-12.1L173.6,252.2z M156.5,277.1l1.6,2.8
			l16-9.2l-1.6-2.8L156.5,277.1L156.5,277.1z M178,271.7l-21,12.1l-4.5-7.8l21-12.1L178,271.7z"/>
		<path class="st4" d="M99.5,309.8l-23.7-41.1c-3.9-6.7-0.8-12.6,2-17.7c0.2-0.3,0.3-0.7,0.5-1c0.2-0.5,0.4-0.9,0.6-1.2l17.4-35.6
			c1.8-3.6,4.9-6.4,8.8-7.7c3.8-1.3,8-1,11.7,0.7c2.7,1.3,5,3.4,6.5,6.1c1.8,3.1,2.4,6.7,1.9,10.1l51-29.4c7.3-4.2,16.5-2,20.5,5
			c4,6.9,1.3,16-6,20.3l-18.2,10.5c2,1,3.6,2.6,4.7,4.5c2.2,3.9,2.1,8.5-0.1,12.6c2.9,1,5.3,2.9,6.7,5.4c2.7,4.6,1.9,10.6-1.7,15
			c1.5,1,2.8,2.4,3.7,3.9c3.7,6.4,0.8,15-6.5,19.2l-40,23.1C124.8,320.8,104.2,318,99.5,309.8 M117.9,215.1
			c-0.9-1.6-2.3-2.9-3.9-3.6c-2.2-1.1-4.7-1.2-7-0.5c-2.3,0.8-4.2,2.5-5.3,4.6l-17.4,35.6c-0.2,0.3-0.3,0.7-0.5,1.1
			c-0.2,0.4-0.4,0.8-0.5,1.2l-0.1,0.1c-3,5.6-4.1,8.4-2.1,11.9l23.7,41.1c2.6,4.5,19.1,7.5,31.4,0.5l40-23.1
			c4.3-2.5,6.3-7.5,4.3-10.9c-0.9-1.5-2.5-2.6-4.5-3l-7.1-1.5l6-4.1c3.8-2.6,5.4-7.2,3.6-10.5c-1.2-2.1-3.8-3.4-6.9-3.2l-8.8,0.6
			l6.6-5.9c3-2.7,4.1-6.7,2.5-9.5c-1.3-2.3-4.4-3.5-7.7-3.1l-15.7,2.3l39-22.5c4.4-2.5,6.1-7.9,3.7-11.9c-2.3-4-7.8-5.3-12.2-2.7
			l-67.2,38.8l6.4-13C119.6,221,119.4,217.7,117.9,215.1"/>
		<path class="st4" d="M161.8,227.5l3.1,5.3l-18.5,10.7l-3.1-5.3L161.8,227.5z M168.5,246.4l3.1,5.3l-18.5,10.7l-3.1-5.3
			L168.5,246.4L168.5,246.4z M173,265.9l3.1,5.3l-18.5,10.7l-3.1-5.3L173,265.9L173,265.9z"/>
		<path class="st4" d="M135.8,162c-0.6-1.2-0.6-2.6,0.2-3.7c5.1-7.8,13.9-12.3,23.1-11.8c2,0.1,3.6,1.8,3.5,3.9
			c-0.1,2-1.8,3.6-3.9,3.5c-6.6-0.3-12.9,2.9-16.5,8.5c-0.5,0.8-1.4,1.4-2.3,1.6c-1,0.2-2,0-2.8-0.5
			C136.5,163,136.1,162.6,135.8,162"/>
		<path class="st4" d="M117.7,151.8c-0.6-1.1-0.6-2.5,0.1-3.6c9.1-14.9,25.8-23.6,43.2-22.3c2,0.1,3.6,1.9,3.4,3.9
			c-0.1,2-1.9,3.6-3.9,3.4c-14.7-1-28.7,6.3-36.4,18.8c-1.1,1.7-3.3,2.3-5.1,1.2C118.5,152.9,118,152.4,117.7,151.8L117.7,151.8z"/>
		<path class="st4" d="M196.4,283.9c-0.4-0.5-0.8-1-1-1.6c-0.5-2,0.6-4,2.6-4.5c6.3-1.7,11.2-6.6,13-12.8c0.6-1.9,2.6-3,4.6-2.5
			c1.9,0.6,3.1,2.6,2.5,4.5c-2.5,8.7-9.4,15.5-18.1,17.9C198.7,285.2,197.3,284.8,196.4,283.9L196.4,283.9z"/>
		<path class="st4" d="M200.7,304.2c-0.5-0.5-0.8-1.1-1-1.7c-0.5-2,0.7-4,2.7-4.5c14.2-3.5,25.3-14.5,28.9-28.6
			c0.6-1.9,2.5-3,4.5-2.5c1.9,0.5,3.1,2.4,2.7,4.3c-4.2,16.8-17.4,29.9-34.3,34C202.9,305.5,201.6,305.1,200.7,304.2"/>
	</g>
</g>
</svg>
