<?xml version="1.0" encoding="utf-8"?>
<!-- Generator: Adobe Illustrator 22.0.0, SVG Export Plug-In . SVG Version: 6.00 Build 0)  -->
<svg version="1.1" id="图层_1" xmlns="http://www.w3.org/2000/svg" xmlns:xlink="http://www.w3.org/1999/xlink" x="0px" y="0px"
	 viewBox="0 0 740 400" style="enable-background:new 0 0 740 400;" xml:space="preserve">
<style type="text/css">
	.st0{fill:none;stroke:#FFFFFF;stroke-width:12;stroke-miterlimit:10;}
	.st1{fill:#FFFFFF;}
	.st2{fill:none;stroke:#FFFFFF;stroke-width:16.788;stroke-miterlimit:10;}
	.st3{fill:none;stroke:#FFFFFF;stroke-width:8.394;stroke-miterlimit:10;}
	.st4{fill:none;stroke:#FFFFFF;stroke-width:18.563;stroke-miterlimit:10;}
	.st5{fill:none;stroke:#FFFFFF;stroke-width:14.335;stroke-miterlimit:10;}
	.st6{fill:none;stroke:#FFFFFF;stroke-width:7.168;stroke-miterlimit:10;}
	.st7{fill:none;stroke:#FFFFFF;stroke-width:6.831;stroke-miterlimit:10;}
	.st8{fill:none;stroke:#FFFFFF;stroke-width:4.452;stroke-miterlimit:10;}
	.st9{fill:none;stroke:#FFFFFF;stroke-width:14.948;stroke-miterlimit:10;}
	.st10{clip-path:url(#SVGID_2_);fill:none;stroke:#FFFFFF;stroke-width:3.838;stroke-miterlimit:10;}
	.st11{clip-path:url(#SVGID_4_);fill:none;stroke:#FFFFFF;stroke-width:3.838;stroke-miterlimit:10;}
	.st12{fill:none;stroke:#FFFFFF;stroke-width:5.831;stroke-miterlimit:10;}
</style>
<g>
	<path class="st0" d="M-1926.9-4685h-15.6c-4.1,0-7.4-3.3-7.4-7.4v-58.1c0-4.1,3.3-7.4,7.4-7.4h15.6c4.1,0,7.4,3.3,7.4,7.4v58.1
		C-1919.5-4688.3-1922.8-4685-1926.9-4685z"/>
	<path class="st1" d="M-2110.1-4814.7h-256.6c-3.4,0-6.1-2.7-6.1-6.1c0-3.4,2.7-6.1,6.1-6.1h256.6c3.4,0,6.1,2.7,6.1,6.1
		C-2104.1-4817.5-2106.8-4814.7-2110.1-4814.7"/>
	<path class="st1" d="M-2087.4-4820.8c0,4.6-3.7,8.3-8.3,8.3c-4.6,0-8.3-3.7-8.3-8.3s3.7-8.3,8.3-8.3
		C-2091.1-4829.2-2087.4-4825.4-2087.4-4820.8"/>
	<path class="st1" d="M-2110.1-4792h-256.6c-3.4,0-6.1-2.7-6.1-6.1s2.7-6.1,6.1-6.1h256.6c3.4,0,6.1,2.7,6.1,6.1
		S-2106.8-4792-2110.1-4792"/>
	<path class="st1" d="M-2087.4-4798c0,4.6-3.7,8.3-8.3,8.3c-4.6,0-8.3-3.7-8.3-8.3s3.7-8.3,8.3-8.3
		C-2091.1-4806.4-2087.4-4802.7-2087.4-4798"/>
	<path class="st1" d="M-2110.1-4769.2h-256.6c-3.4,0-6.1-2.7-6.1-6.1s2.7-6.1,6.1-6.1h256.6c3.4,0,6.1,2.7,6.1,6.1
		S-2106.8-4769.2-2110.1-4769.2"/>
	<path class="st1" d="M-2087.4-4775.3c0,4.6-3.7,8.3-8.3,8.3c-4.6,0-8.3-3.7-8.3-8.3c0-4.6,3.7-8.4,8.3-8.4
		C-2091.1-4783.6-2087.4-4779.9-2087.4-4775.3"/>
	<path class="st1" d="M-2110.1-4746.4h-256.6c-3.4,0-6.1-2.7-6.1-6.1s2.7-6.1,6.1-6.1h256.6c3.4,0,6.1,2.7,6.1,6.1
		S-2106.8-4746.4-2110.1-4746.4"/>
	<path class="st1" d="M-2087.4-4752.5c0,4.6-3.7,8.4-8.3,8.4c-4.6,0-8.3-3.7-8.3-8.4c0-4.6,3.7-8.3,8.3-8.3
		C-2091.1-4760.9-2087.4-4757.1-2087.4-4752.5"/>
	<path class="st1" d="M-2110.1-4723.7h-256.6c-3.4,0-6.1-2.7-6.1-6.1s2.7-6.1,6.1-6.1h256.6c3.4,0,6.1,2.7,6.1,6.1
		S-2106.8-4723.7-2110.1-4723.7"/>
	<path class="st1" d="M-2087.4-4729.7c0,4.6-3.7,8.3-8.3,8.3c-4.6,0-8.3-3.7-8.3-8.3c0-4.6,3.7-8.3,8.3-8.3
		C-2091.1-4738.1-2087.4-4734.3-2087.4-4729.7"/>
	<path class="st1" d="M-2110.1-4700.9h-256.6c-3.4,0-6.1-2.7-6.1-6.1c0-3.4,2.7-6.1,6.1-6.1h256.6c3.4,0,6.1,2.7,6.1,6.1
		C-2104.1-4703.6-2106.8-4700.9-2110.1-4700.9"/>
	<path class="st1" d="M-2087.4-4707c0,4.6-3.7,8.3-8.3,8.3c-4.6,0-8.3-3.7-8.3-8.3s3.7-8.3,8.3-8.3
		C-2091.1-4715.3-2087.4-4711.6-2087.4-4707"/>
	<path class="st1" d="M-2110.1-4678.1h-256.6c-3.4,0-6.1-2.7-6.1-6.1c0-3.4,2.7-6.1,6.1-6.1h256.6c3.4,0,6.1,2.7,6.1,6.1
		C-2104.1-4680.8-2106.8-4678.1-2110.1-4678.1"/>
	<path class="st1" d="M-2087.4-4684.2c0,4.6-3.7,8.3-8.3,8.3c-4.6,0-8.3-3.7-8.3-8.3c0-4.6,3.7-8.3,8.3-8.3
		C-2091.1-4692.5-2087.4-4688.8-2087.4-4684.2"/>
	<path class="st1" d="M-2110.1-4655.4h-256.6c-3.4,0-6.1-2.7-6.1-6.1s2.7-6.1,6.1-6.1h256.6c3.4,0,6.1,2.7,6.1,6.1
		S-2106.8-4655.4-2110.1-4655.4"/>
	<path class="st1" d="M-2087.4-4661.4c0,4.6-3.7,8.3-8.3,8.3c-4.6,0-8.3-3.7-8.3-8.3c0-4.6,3.7-8.3,8.3-8.3
		C-2091.1-4669.8-2087.4-4666-2087.4-4661.4"/>
	<path class="st1" d="M-2110.1-4632.6h-256.6c-3.4,0-6.1-2.7-6.1-6.1s2.7-6.1,6.1-6.1h256.6c3.4,0,6.1,2.7,6.1,6.1
		S-2106.8-4632.6-2110.1-4632.6"/>
	<path class="st1" d="M-2087.4-4638.7c0,4.6-3.7,8.3-8.3,8.3c-4.6,0-8.3-3.7-8.3-8.3c0-4.6,3.7-8.3,8.3-8.3
		C-2091.1-4647-2087.4-4643.3-2087.4-4638.7"/>
	<path class="st2" d="M-1855.3-4797.2h24.5v-18.8c0-5.4,4.4-9.7,9.7-9.7h89.6c5.4,0,9.7,4.4,9.7,9.7v189.1c0,5.4-4.4,9.7-9.7,9.7
		h-89.6c-5.4,0-9.7-4.4-9.7-9.7v-18.8h-24.5c-5.4,0-9.7-4.4-9.7-9.7v-132.1C-1865.1-4792.8-1860.7-4797.2-1855.3-4797.2z"/>
	<path class="st3" d="M-1785.4-4777.2h14.2c2,0,3.6-1.6,3.6-3.6v-14.2c0-2-1.6-3.6-3.6-3.6h-14.2c-2,0-3.6,1.6-3.6,3.6v14.2
		C-1789-4778.8-1787.4-4777.2-1785.4-4777.2z"/>
	<path class="st3" d="M-1785.4-4732.9h14.2c2,0,3.6-1.6,3.6-3.6v-14.2c0-2-1.6-3.6-3.6-3.6h-14.2c-2,0-3.6,1.6-3.6,3.6v14.2
		C-1789-4734.5-1787.4-4732.9-1785.4-4732.9z"/>
	<path class="st3" d="M-1785.4-4688.6h14.2c2,0,3.6-1.6,3.6-3.6v-14.2c0-2-1.6-3.6-3.6-3.6h-14.2c-2,0-3.6,1.6-3.6,3.6v14.2
		C-1789-4690.2-1787.4-4688.6-1785.4-4688.6z"/>
	<path class="st3" d="M-1785.4-4644.2h14.2c2,0,3.6-1.6,3.6-3.6v-14.2c0-2-1.6-3.6-3.6-3.6h-14.2c-2,0-3.6,1.6-3.6,3.6v14.2
		C-1789-4645.8-1787.4-4644.2-1785.4-4644.2z"/>
	<path class="st4" d="M-1731.8-4562.1h-625.5c-22.6,0-40.9-18.3-40.9-40.9v-261.7c0-22.6,18.3-40.9,40.9-40.9h625.5
		c22.6,0,40.9,18.3,40.9,40.9v261.7C-1690.9-4580.4-1709.2-4562.1-1731.8-4562.1z"/>
</g>
<g>
	<path class="st5" d="M404,357.6l-0.1-9.5l2.3,0c8.1,0,14.6-6.6,14.5-14.7l-0.3-43.7c0-5.1-4.7-9.2-10.4-9.2l-93,0.5
		c-5.7,0-10.3,4.2-10.2,9.3l0.3,43.8c0.1,8.1,6.6,14.6,14.7,14.5l2.4,0l0.1,9.5c0,5.4,4.9,9.7,10.9,9.7l57.9-0.3
		C399.2,367.4,404,363,404,357.6z"/>
	<path class="st6" d="M372.2,306.9l0.1,10.6c0,0.9,0.8,1.6,1.7,1.6l12.2-0.1c0.9,0,1.7-0.7,1.6-1.6l-0.1-10.6c0-0.9-0.8-1.6-1.7-1.6
		l-12.2,0.1C373,305.3,372.2,306,372.2,306.9z"/>
	<path class="st6" d="M340,307.1l0.1,10.6c0,0.9,0.8,1.6,1.7,1.6l12.2-0.1c0.9,0,1.7-0.7,1.6-1.6l-0.1-10.6c0-0.9-0.8-1.6-1.7-1.6
		l-12.2,0.1C340.7,305.5,340,306.2,340,307.1z"/>
	<path class="st7" d="M447.6,100.6c0,14.5-11.9,26.2-26.7,26.2c-14.7,0-26.7-11.7-26.7-26.2c0-14.5,11.9-26.2,26.7-26.2
		C435.7,74.5,447.6,86.2,447.6,100.6z"/>
	<path class="st8" d="M500.7,319.3c0,9.4-7.8,17.1-17.4,17.1c-9.6,0-17.4-7.6-17.4-17.1c0-9.4,7.8-17.1,17.4-17.1
		C493,302.3,500.7,309.9,500.7,319.3z"/>
	<g>
		<path class="st9" d="M314.5,200c0,49-40.5,88.7-90.4,88.7c-49.9,0-90.4-39.7-90.4-88.7s40.5-88.7,90.4-88.7
			C274,111.3,314.5,151,314.5,200z"/>
		<g>
			<defs>
				<path id="SVGID_1_" d="M132.9,200c0,49,40.5,88.7,90.4,88.7c49.9,0,90.4-39.7,90.4-88.7s-40.5-88.7-90.4-88.7
					C173.4,111.3,132.9,151,132.9,200"/>
			</defs>
			<clipPath id="SVGID_2_">
				<use xlink:href="#SVGID_1_"  style="overflow:visible;"/>
			</clipPath>
			<line class="st10" x1="10.2" y1="124.4" x2="422.8" y2="124.4"/>
			<line class="st10" x1="9" y1="143.3" x2="421.6" y2="143.3"/>
			<line class="st10" x1="7.9" y1="162.2" x2="420.5" y2="162.2"/>
			<line class="st10" x1="6.8" y1="181.1" x2="419.4" y2="181.1"/>
			<line class="st10" x1="5.6" y1="200" x2="418.2" y2="200"/>
			<line class="st10" x1="4.5" y1="218.9" x2="417.1" y2="218.9"/>
			<line class="st10" x1="3.4" y1="237.8" x2="416" y2="237.8"/>
			<line class="st10" x1="2.2" y1="256.7" x2="414.8" y2="256.7"/>
			<line class="st10" x1="1.1" y1="275.6" x2="413.7" y2="275.6"/>
			<line class="st10" x1="39.6" y1="86.5" x2="39.6" y2="327.9"/>
			<line class="st10" x1="58.9" y1="87.6" x2="58.9" y2="329"/>
			<line class="st10" x1="78.2" y1="88.8" x2="78.2" y2="330.2"/>
			<line class="st10" x1="97.4" y1="89.9" x2="97.4" y2="331.3"/>
			<line class="st10" x1="116.7" y1="91" x2="116.7" y2="332.4"/>
			<line class="st10" x1="136" y1="92.1" x2="136" y2="333.5"/>
			<line class="st10" x1="155.2" y1="93.2" x2="155.2" y2="334.6"/>
			<line class="st10" x1="174.5" y1="94.3" x2="174.5" y2="335.7"/>
			<line class="st10" x1="193.8" y1="95.4" x2="193.8" y2="336.8"/>
			<line class="st10" x1="213.1" y1="96.5" x2="213.1" y2="337.9"/>
			<line class="st10" x1="232.3" y1="97.7" x2="232.3" y2="339.1"/>
			<line class="st10" x1="251.6" y1="98.8" x2="251.6" y2="340.2"/>
			<line class="st10" x1="270.9" y1="99.9" x2="270.9" y2="341.3"/>
			<line class="st10" x1="290.1" y1="101" x2="290.1" y2="342.4"/>
			<line class="st10" x1="309.4" y1="102.1" x2="309.4" y2="343.5"/>
			<line class="st10" x1="328.7" y1="103.2" x2="328.7" y2="344.6"/>
			<line class="st10" x1="347.9" y1="104.3" x2="347.9" y2="345.7"/>
			<line class="st10" x1="367.2" y1="105.4" x2="367.2" y2="346.8"/>
			<line class="st10" x1="386.5" y1="106.6" x2="386.5" y2="348"/>
			<line class="st10" x1="405.8" y1="107.7" x2="405.8" y2="349.1"/>
		</g>
		<path class="st9" d="M621.4,200c0,49-40.5,88.7-90.4,88.7c-49.9,0-90.4-39.7-90.4-88.7s40.5-88.7,90.4-88.7
			C580.9,111.3,621.4,151,621.4,200z"/>
		<g>
			<defs>
				<path id="SVGID_3_" d="M439.9,200c0,49,40.5,88.7,90.4,88.7c49.9,0,90.4-39.7,90.4-88.7s-40.5-88.7-90.4-88.7
					C480.4,111.3,439.9,151,439.9,200"/>
			</defs>
			<clipPath id="SVGID_4_">
				<use xlink:href="#SVGID_3_"  style="overflow:visible;"/>
			</clipPath>
			<line class="st11" x1="317.1" y1="124.4" x2="729.7" y2="124.4"/>
			<line class="st11" x1="316" y1="143.3" x2="728.6" y2="143.3"/>
			<line class="st11" x1="314.8" y1="162.2" x2="727.4" y2="162.2"/>
			<line class="st11" x1="313.7" y1="181.1" x2="726.3" y2="181.1"/>
			<line class="st11" x1="312.6" y1="200" x2="725.2" y2="200"/>
			<line class="st11" x1="311.4" y1="218.9" x2="724" y2="218.9"/>
			<line class="st11" x1="310.3" y1="237.8" x2="722.9" y2="237.8"/>
			<line class="st11" x1="309.2" y1="256.7" x2="721.8" y2="256.7"/>
			<line class="st11" x1="308" y1="275.6" x2="720.6" y2="275.6"/>
			<line class="st11" x1="346.6" y1="86.5" x2="346.6" y2="327.9"/>
			<line class="st11" x1="365.8" y1="87.6" x2="365.8" y2="329"/>
			<line class="st11" x1="385.1" y1="88.8" x2="385.1" y2="330.2"/>
			<line class="st11" x1="404.4" y1="89.9" x2="404.4" y2="331.3"/>
			<line class="st11" x1="423.6" y1="91" x2="423.6" y2="332.4"/>
			<line class="st11" x1="442.9" y1="92.1" x2="442.9" y2="333.5"/>
			<line class="st11" x1="462.2" y1="93.2" x2="462.2" y2="334.6"/>
			<line class="st11" x1="481.5" y1="94.3" x2="481.5" y2="335.7"/>
			<line class="st11" x1="500.7" y1="95.4" x2="500.7" y2="336.8"/>
			<line class="st11" x1="520" y1="96.5" x2="520" y2="337.9"/>
			<line class="st11" x1="539.3" y1="97.7" x2="539.3" y2="339.1"/>
			<line class="st11" x1="558.5" y1="98.8" x2="558.5" y2="340.2"/>
			<line class="st11" x1="577.8" y1="99.9" x2="577.8" y2="341.3"/>
			<line class="st11" x1="597.1" y1="101" x2="597.1" y2="342.4"/>
			<line class="st11" x1="616.3" y1="102.1" x2="616.3" y2="343.5"/>
			<line class="st11" x1="635.6" y1="103.2" x2="635.6" y2="344.6"/>
			<line class="st11" x1="654.9" y1="104.3" x2="654.9" y2="345.7"/>
			<line class="st11" x1="674.2" y1="105.4" x2="674.2" y2="346.8"/>
			<line class="st11" x1="693.4" y1="106.6" x2="693.4" y2="348"/>
		</g>
	</g>
	<path class="st12" d="M109.8,200c0,12.3-10.2,22.3-22.8,22.3c-12.6,0-22.8-10-22.8-22.3c0-12.3,10.2-22.3,22.8-22.3
		C99.6,177.7,109.8,187.7,109.8,200z"/>
	<path class="st4" d="M682.7,371.7H57.3c-22.6,0-40.9-18.3-40.9-40.9V69.1c0-22.6,18.3-40.9,40.9-40.9h625.5
		c22.6,0,40.9,18.3,40.9,40.9v261.7C723.6,353.4,705.3,371.7,682.7,371.7z"/>
</g>
</svg>
