<?xml version="1.0" encoding="utf-8"?>
<!-- Generator: Adobe Illustrator 22.0.0, SVG Export Plug-In . SVG Version: 6.00 Build 0)  -->
<svg version="1.1" id="图层_1" xmlns="http://www.w3.org/2000/svg" xmlns:xlink="http://www.w3.org/1999/xlink" x="0px" y="0px"
	 viewBox="0 0 480 400" style="enable-background:new 0 0 480 400;" xml:space="preserve">
<style type="text/css">
	.st0{fill:none;stroke:#FFFFFF;stroke-width:18.563;stroke-miterlimit:10;}
	.st1{fill:#FFFFFF;}
	.st2{fill:none;stroke:#FFFFFF;stroke-width:16.5988;stroke-miterlimit:10;}
	.st3{fill:none;stroke:#FFFFFF;stroke-width:12.9288;stroke-miterlimit:10;}
	.st4{fill:none;stroke:#FFFFFF;stroke-width:4.8186;stroke-miterlimit:10;}
	.st5{fill:none;stroke:#FFFFFF;stroke-width:2.0746;stroke-miterlimit:10;}
	.st6{fill:none;stroke:#FFFFFF;stroke-width:2.0697;stroke-miterlimit:10;}
</style>
<g>
	<path class="st0" d="M412.3,376.9H71.8c-27.7,0-50.2-22.5-50.2-50.2V73.3c0-27.7,22.5-50.2,50.2-50.2h340.5
		c27.7,0,50.2,22.5,50.2,50.2v253.5C462.5,354.5,440,376.9,412.3,376.9z"/>
	<g>
		<path class="st1" d="M239.9,143.8c0,40.1-32.5,72.6-72.6,72.6s-72.6-32.5-72.6-72.6s32.5-72.6,72.6-72.6S239.9,103.7,239.9,143.8"
			/>
		
			<ellipse transform="matrix(1 -5.075983e-03 5.075983e-03 1 -0.7279 0.8511)" class="st2" cx="167.3" cy="143.8" rx="94.2" ry="94.2"/>
		<path class="st3" d="M198.7,252.6l-0.1,17.9l-13.7-0.1c-3.9,0-7.1,3.1-7.1,7.1l-0.2,65.2c0,3.9,3.1,7.1,7.1,7.1l137.7,0.5
			c3.9,0,7.1-3.1,7.1-7.1l0.2-65.2c0-3.9-3.1-7.1-7.1-7.1l-13.7-0.1l0.1-17.9c0-3.9-3.1-7.1-7.1-7.1l-96.2-0.4
			C201.9,245.6,198.8,248.7,198.7,252.6z"/>
		<path class="st4" d="M213.1,304.2l0,9.2c0,1.7-1.4,3.1-3.2,3.1l-9.2,0c-1.7,0-3.1-1.4-3.1-3.2l0-9.2c0-1.7,1.4-3.1,3.2-3.1l9.2,0
			C211.7,301,213.1,302.4,213.1,304.2z"/>
		<path class="st4" d="M245.4,304.3l0,9.2c0,1.7-1.4,3.1-3.2,3.1l-9.2,0c-1.7,0-3.1-1.4-3.1-3.2l0-9.2c0-1.7,1.4-3.1,3.2-3.1l9.2,0
			C244,301.1,245.4,302.6,245.4,304.3z"/>
		<path class="st4" d="M277.7,304.4l0,9.2c0,1.7-1.4,3.1-3.2,3.1l-9.2,0c-1.7,0-3.1-1.4-3.1-3.2l0-9.2c0-1.7,1.4-3.1,3.2-3.1l9.2,0
			C276.3,301.3,277.7,302.7,277.7,304.4z"/>
		<path class="st4" d="M309.9,304.5l0,9.2c0,1.7-1.4,3.1-3.2,3.1l-9.2,0c-1.7,0-3.1-1.4-3.1-3.2l0-9.2c0-1.7,1.4-3.1,3.2-3.1l9.2,0
			C308.6,301.4,310,302.8,309.9,304.5z"/>
		<path class="st1" d="M290.8,164.2h-28.4c-4.8,0-8.6-3.9-8.6-8.6c0-4.8,3.9-8.6,8.6-8.6h28.4c4.8,0,8.6,3.9,8.6,8.6
			C299.5,160.3,295.6,164.2,290.8,164.2"/>
		<path class="st1" d="M284.6,185.6h-28.4c-4.8,0-8.6-3.9-8.6-8.6s3.9-8.6,8.6-8.6h28.4c4.8,0,8.6,3.9,8.6,8.6
			S289.4,185.6,284.6,185.6"/>
		<path class="st1" d="M409.6,93.5h-20.2c-0.8,0-1.5-0.7-1.5-1.5v-5.8c0-0.8,0.7-1.5,1.5-1.5h20.2c0.8,0,1.5,0.7,1.5,1.5v5.8
			C411.1,92.8,410.4,93.5,409.6,93.5"/>
		<path class="st1" d="M409.6,120.7h-20.2c-0.8,0-1.5-0.7-1.5-1.5v-5.8c0-0.8,0.7-1.5,1.5-1.5h20.2c0.8,0,1.5,0.7,1.5,1.5v5.8
			C411.1,120,410.4,120.7,409.6,120.7"/>
		<path class="st5" d="M295.8,155.6c0,0,28.3,18.9,54.4-2.6c0,0,48.4-45.7,41.1-63.9"/>
		<path class="st6" d="M276.6,171.5c0,0,13.9,39.3,53.5,23.4c0,0,79.2-41.4,66.2-76.1"/>
	</g>
</g>
</svg>
