<?xml version="1.0" encoding="utf-8"?>
<!-- Generator: Adobe Illustrator 22.0.0, SVG Export Plug-In . SVG Version: 6.00 Build 0)  -->
<svg version="1.1" id="图层_1" xmlns="http://www.w3.org/2000/svg" xmlns:xlink="http://www.w3.org/1999/xlink" x="0px" y="0px"
	 viewBox="0 0 740 400" style="enable-background:new 0 0 740 400;" xml:space="preserve">
<style type="text/css">
	.st0{fill:none;stroke:#FFFFFF;stroke-width:18.563;stroke-miterlimit:10;}
	.st1{fill:none;stroke:#FFFFFF;stroke-width:14.3229;stroke-miterlimit:10;}
	.st2{fill:none;stroke:#FFFFFF;stroke-width:5.3383;stroke-miterlimit:10;}
	.st3{fill:#FFFFFF;}
	.st4{fill:none;stroke:#FFFFFF;stroke-width:3.5721;stroke-linecap:round;stroke-linejoin:round;stroke-miterlimit:10;}
	.st5{fill:none;stroke:#FFFFFF;stroke-width:1.9736;stroke-miterlimit:10;}
	.st6{opacity:0.4;fill:#FFFFFF;}
	.st7{fill:none;}
	.st8{fill:none;stroke:#FFFFFF;stroke-width:15.3531;stroke-miterlimit:10;}
	.st9{fill:none;stroke:#FFFFFF;stroke-width:5.7219;stroke-miterlimit:10;}
	.st10{opacity:0.6;}
	.st11{clip-path:url(#SVGID_2_);fill:none;stroke:#FFFFFF;stroke-width:1.4132;stroke-miterlimit:10;}
	.st12{opacity:0.8;clip-path:url(#SVGID_2_);}
	.st13{clip-path:url(#SVGID_4_);fill:none;stroke:#FFFFFF;stroke-width:0.9109;stroke-miterlimit:10;}
	.st14{clip-path:url(#SVGID_4_);fill:#FFFFFF;}
	.st15{opacity:0.8;clip-path:url(#SVGID_4_);}
	.st16{clip-path:url(#SVGID_6_);fill:#FFFFFF;}
	.st17{clip-path:url(#SVGID_8_);fill:none;stroke:#FFFFFF;stroke-width:0.9109;stroke-miterlimit:10;}
	.st18{clip-path:url(#SVGID_8_);fill:#FFFFFF;}
	.st19{opacity:0.8;clip-path:url(#SVGID_8_);}
	.st20{clip-path:url(#SVGID_10_);fill:#FFFFFF;}
	.st21{fill:none;stroke:#FFFFFF;stroke-width:9.8998;stroke-miterlimit:10;}
	.st22{fill:none;stroke:#FFFFFF;stroke-width:4.9499;stroke-miterlimit:10;}
	.st23{fill:none;stroke:#FFFFFF;stroke-width:1.6489;stroke-miterlimit:10;}
	.st24{opacity:0.8;}
	.st25{clip-path:url(#SVGID_12_);fill:none;stroke:#FFFFFF;stroke-width:1.0628;stroke-miterlimit:10;}
	.st26{clip-path:url(#SVGID_12_);fill:#FFFFFF;}
	.st27{opacity:0.8;clip-path:url(#SVGID_12_);}
	.st28{clip-path:url(#SVGID_14_);fill:#FFFFFF;}
	.st29{clip-path:url(#SVGID_16_);fill:none;stroke:#FFFFFF;stroke-width:1.0628;stroke-miterlimit:10;}
	.st30{clip-path:url(#SVGID_16_);fill:#FFFFFF;}
	.st31{opacity:0.8;clip-path:url(#SVGID_16_);}
	.st32{clip-path:url(#SVGID_18_);fill:#FFFFFF;}
	.st33{fill:none;stroke:#FFFFFF;stroke-width:0.925;stroke-miterlimit:10;}
	.st34{clip-path:url(#SVGID_20_);fill:#FFFFFF;}
	.st35{fill:none;stroke:#FFFFFF;stroke-width:2.7602;stroke-miterlimit:10;}
	.st36{fill:none;stroke:#FFFFFF;stroke-width:1.2141;stroke-miterlimit:10;}
	.st37{fill:none;stroke:#FFFFFF;stroke-width:0.7825;stroke-miterlimit:10;}
	.st38{clip-path:url(#SVGID_22_);fill:#FFFFFF;}
	.st39{fill:none;stroke:#FFFFFF;stroke-width:1.361;stroke-miterlimit:10;}
	.st40{fill:none;stroke:#FFFFFF;stroke-width:1.1384;stroke-miterlimit:10;}
	.st41{clip-path:url(#SVGID_24_);fill:none;stroke:#FFFFFF;stroke-width:0.7338;stroke-miterlimit:10;}
	.st42{clip-path:url(#SVGID_24_);fill:#FFFFFF;}
	.st43{opacity:0.8;clip-path:url(#SVGID_24_);}
	.st44{clip-path:url(#SVGID_26_);fill:#FFFFFF;}
	.st45{clip-path:url(#SVGID_28_);fill:none;stroke:#FFFFFF;stroke-width:0.7338;stroke-miterlimit:10;}
	.st46{clip-path:url(#SVGID_28_);fill:#FFFFFF;}
	.st47{opacity:0.8;clip-path:url(#SVGID_28_);}
	.st48{clip-path:url(#SVGID_30_);fill:#FFFFFF;}
	.st49{fill:none;stroke:#FFFFFF;stroke-width:1.1391;stroke-miterlimit:10;}
	.st50{clip-path:url(#SVGID_32_);fill:none;stroke:#FFFFFF;stroke-width:0.7342;stroke-miterlimit:10;}
	.st51{clip-path:url(#SVGID_32_);fill:#FFFFFF;}
	.st52{opacity:0.8;clip-path:url(#SVGID_32_);}
	.st53{clip-path:url(#SVGID_34_);fill:#FFFFFF;}
	.st54{clip-path:url(#SVGID_36_);fill:none;stroke:#FFFFFF;stroke-width:0.7342;stroke-miterlimit:10;}
	.st55{clip-path:url(#SVGID_36_);fill:#FFFFFF;}
	.st56{opacity:0.8;clip-path:url(#SVGID_36_);}
	.st57{clip-path:url(#SVGID_38_);fill:#FFFFFF;}
	.st58{clip-path:url(#SVGID_40_);fill:none;stroke:#FFFFFF;stroke-width:0.7342;stroke-miterlimit:10;}
	.st59{clip-path:url(#SVGID_40_);fill:#FFFFFF;}
	.st60{opacity:0.8;clip-path:url(#SVGID_40_);}
	.st61{clip-path:url(#SVGID_42_);fill:#FFFFFF;}
	.st62{fill:none;stroke:#FFFFFF;stroke-width:3.2796;stroke-miterlimit:10;}
	.st63{fill:none;stroke:#FFFFFF;stroke-width:2.4451;stroke-miterlimit:10;}
	.st64{clip-path:url(#SVGID_44_);fill:none;stroke:#FFFFFF;stroke-width:1.5761;stroke-miterlimit:10;}
	.st65{clip-path:url(#SVGID_44_);fill:#FFFFFF;}
	.st66{opacity:0.8;clip-path:url(#SVGID_44_);}
	.st67{clip-path:url(#SVGID_46_);fill:#FFFFFF;}
	.st68{clip-path:url(#SVGID_48_);fill:none;stroke:#FFFFFF;stroke-width:1.5761;stroke-miterlimit:10;}
	.st69{clip-path:url(#SVGID_48_);fill:#FFFFFF;}
	.st70{opacity:0.8;clip-path:url(#SVGID_48_);}
	.st71{clip-path:url(#SVGID_50_);fill:#FFFFFF;}
	.st72{clip-path:url(#SVGID_52_);fill:none;stroke:#FFFFFF;stroke-width:1.5761;stroke-miterlimit:10;}
	.st73{clip-path:url(#SVGID_52_);fill:#FFFFFF;}
	.st74{opacity:0.8;clip-path:url(#SVGID_52_);}
	.st75{clip-path:url(#SVGID_54_);fill:#FFFFFF;}
	.st76{fill:none;stroke:#FFFFFF;stroke-width:2.8965;stroke-miterlimit:10;}
	.st77{clip-path:url(#SVGID_56_);fill:none;stroke:#FFFFFF;stroke-width:1.8671;stroke-miterlimit:10;}
	.st78{clip-path:url(#SVGID_56_);fill:#FFFFFF;}
	.st79{opacity:0.8;clip-path:url(#SVGID_56_);}
	.st80{clip-path:url(#SVGID_58_);fill:#FFFFFF;}
	.st81{clip-path:url(#SVGID_60_);fill:none;stroke:#FFFFFF;stroke-width:1.8671;stroke-miterlimit:10;}
	.st82{clip-path:url(#SVGID_60_);fill:#FFFFFF;}
	.st83{opacity:0.8;clip-path:url(#SVGID_60_);}
	.st84{clip-path:url(#SVGID_62_);fill:#FFFFFF;}
	.st85{clip-path:url(#SVGID_64_);fill:none;stroke:#FFFFFF;stroke-width:1.8671;stroke-miterlimit:10;}
	.st86{clip-path:url(#SVGID_64_);fill:#FFFFFF;}
	.st87{opacity:0.8;clip-path:url(#SVGID_64_);}
	.st88{clip-path:url(#SVGID_66_);fill:#FFFFFF;}
	.st89{clip-path:url(#SVGID_68_);fill:none;stroke:#FFFFFF;stroke-width:1.8671;stroke-miterlimit:10;}
	.st90{clip-path:url(#SVGID_68_);fill:#FFFFFF;}
	.st91{opacity:0.8;clip-path:url(#SVGID_68_);}
	.st92{clip-path:url(#SVGID_70_);fill:#FFFFFF;}
	.st93{clip-path:url(#SVGID_72_);fill:none;stroke:#FFFFFF;stroke-width:1.8671;stroke-miterlimit:10;}
	.st94{clip-path:url(#SVGID_72_);fill:#FFFFFF;}
	.st95{opacity:0.8;clip-path:url(#SVGID_72_);}
	.st96{clip-path:url(#SVGID_74_);fill:#FFFFFF;}
	.st97{clip-path:url(#SVGID_76_);fill:#FFFFFF;}
	.st98{fill:none;stroke:#FFFFFF;stroke-width:3.1881;stroke-miterlimit:10;}
	.st99{fill:none;stroke:#FFFFFF;stroke-width:2.8469;stroke-miterlimit:10;}
	.st100{clip-path:url(#SVGID_78_);fill:none;stroke:#FFFFFF;stroke-width:1.8351;stroke-miterlimit:10;}
	.st101{clip-path:url(#SVGID_78_);fill:#FFFFFF;}
	.st102{opacity:0.8;clip-path:url(#SVGID_78_);}
	.st103{clip-path:url(#SVGID_80_);fill:#FFFFFF;}
	.st104{clip-path:url(#SVGID_82_);fill:#FFFFFF;}
	.st105{fill:none;stroke:#FFFFFF;stroke-width:2.1193;stroke-miterlimit:10;}
	.st106{clip-path:url(#SVGID_84_);fill:none;stroke:#FFFFFF;stroke-width:1.3661;stroke-miterlimit:10;}
	.st107{clip-path:url(#SVGID_84_);fill:#FFFFFF;}
	.st108{opacity:0.8;clip-path:url(#SVGID_84_);}
	.st109{clip-path:url(#SVGID_86_);fill:#FFFFFF;}
	.st110{fill:none;stroke:#FFFFFF;stroke-width:1.353;stroke-miterlimit:10;}
	.st111{fill:none;stroke:#FFFFFF;stroke-width:1.4847;stroke-miterlimit:10;}
	.st112{clip-path:url(#SVGID_88_);fill:none;stroke:#FFFFFF;stroke-width:0.957;stroke-miterlimit:10;}
	.st113{clip-path:url(#SVGID_88_);fill:#FFFFFF;}
	.st114{opacity:0.8;clip-path:url(#SVGID_88_);}
	.st115{clip-path:url(#SVGID_90_);fill:#FFFFFF;}
	.st116{fill:none;stroke:#FFFFFF;stroke-width:14.268;stroke-miterlimit:10;}
	.st117{fill:none;stroke:#FFFFFF;stroke-width:5.3178;stroke-miterlimit:10;}
	.st118{fill:none;stroke:#FFFFFF;stroke-width:1.9923;stroke-linecap:round;stroke-linejoin:round;stroke-miterlimit:10;}
</style>
<g>
	<path class="st0" d="M228.1-721.6h-625.5c-22.6,0-40.9-18.3-40.9-40.9v-261.7c0-22.6,18.3-40.9,40.9-40.9h625.5
		c22.6,0,40.9,18.3,40.9,40.9v261.7C269-739.9,250.7-721.6,228.1-721.6z"/>
	<g>
		<path class="st1" d="M-350.6-841.1l-16.4-0.1l-0.1,13.6c0,3.9-2.9,7-6.5,7l-59.8-0.3c-3.6,0-6.5-3.2-6.5-7.1l0.7-137.2
			c0-3.9,2.9-7,6.5-7l59.8,0.3c3.6,0,6.5,3.2,6.5,7.1l-0.1,13.6l16.4,0.1c3.6,0,6.5,3.2,6.5,7.1l-0.5,95.9
			C-344.1-844.3-347-841.1-350.6-841.1z"/>
		<path class="st2" d="M-398-855.8l-7.9,0c-1.7,0-3.2,1.4-3.2,3.1l0,9.1c0,1.7,1.4,3.2,3.1,3.2l7.9,0c1.7,0,3.2-1.4,3.2-3.1l0-9.1
			C-394.9-854.4-396.3-855.8-398-855.8z"/>
		<path class="st2" d="M-397.8-888l-7.9,0c-1.7,0-3.2,1.4-3.2,3.1l0,9.1c0,1.7,1.4,3.2,3.1,3.2l7.9,0c1.7,0,3.2-1.4,3.2-3.1l0-9.1
			C-394.7-886.6-396.1-888-397.8-888z"/>
		<path class="st2" d="M-397.7-920.2l-7.9,0c-1.7,0-3.2,1.4-3.2,3.1l0,9.1c0,1.7,1.4,3.2,3.1,3.2l7.9,0c1.7,0,3.2-1.4,3.2-3.1l0-9.1
			C-394.5-918.8-395.9-920.2-397.7-920.2z"/>
		<path class="st2" d="M-397.5-952.4l-7.9,0c-1.7,0-3.2,1.4-3.2,3.1l0,9.1c0,1.7,1.4,3.2,3.1,3.2l7.9,0c1.7,0,3.2-1.4,3.2-3.1l0-9.1
			C-394.3-950.9-395.7-952.4-397.5-952.4z"/>
	</g>
	<path class="st3" d="M-157.4-777.7v29.7c0,0.8,0.8,1.5,1.9,1.5h115.7c1,0,1.9-0.7,1.9-1.5v-29.7c0-0.8-0.8-1.5-1.9-1.5h-115.7
		C-156.6-779.1-157.4-778.5-157.4-777.7z M-66.7-757.4h-62c-1,0-1.9-0.7-1.9-1.5v-8c0-0.8,0.8-1.5,1.9-1.5h62c1,0,1.9,0.7,1.9,1.5v8
		C-64.8-758-65.7-757.4-66.7-757.4z"/>
	<path class="st3" d="M-32.2-749.7h-7.7c-0.8,0-1.5-0.7-1.5-1.5v-23c0-0.8,0.7-1.5,1.5-1.5h7.7c0.8,0,1.5,0.7,1.5,1.5v23
		C-30.8-750.4-31.4-749.7-32.2-749.7z"/>
	<path class="st3" d="M-163.2-749.7h7.7c0.8,0,1.5-0.7,1.5-1.5v-23c0-0.8-0.7-1.5-1.5-1.5h-7.7c-0.8,0-1.5,0.7-1.5,1.5v23
		C-164.7-750.4-164-749.7-163.2-749.7z"/>
	<g>
		<rect x="-123.2" y="-767.8" class="st3" width="0.9" height="9.9"/>
		<rect x="-121.3" y="-767.8" class="st3" width="0.9" height="9.9"/>
		<rect x="-125.2" y="-767.8" class="st3" width="0.9" height="9.9"/>
		<path class="st3" d="M-129.3-764.2v2.8c0,1.4,0.5,2.5,1.2,3.1v-9C-128.8-766.7-129.3-765.6-129.3-764.2z"/>
		<path class="st3" d="M-127-767.8c0,0-0.1,0-0.1,0v9.9c0,0,0.1,0,0.1,0h0.8v-9.9H-127z"/>
		<path class="st3" d="M-117.5-767.3v9c0.7-0.6,1.2-1.8,1.2-3.1v-2.8C-116.2-765.6-116.7-766.7-117.5-767.3z"/>
		<path class="st3" d="M-118.6-767.8h-0.8v9.9h0.8c0,0,0.1,0,0.1,0v-9.9C-118.5-767.8-118.5-767.8-118.6-767.8z"/>
	</g>
	<g>
		<g>
			<g>
				<rect x="-263.4" y="-969.7" class="st4" width="17.2" height="43.7"/>
				<path class="st3" d="M-264.2-940.6h-6.1c-0.4,0-0.8-0.3-0.8-0.8v-15.2c0-0.4,0.3-0.8,0.8-0.8h6.1c0.4,0,0.8,0.3,0.8,0.8v15.2
					C-263.4-940.9-263.8-940.6-264.2-940.6z"/>
				<path class="st3" d="M-238-953.3h-7.5c-0.4,0-0.8-0.3-0.8-0.8v-10.7c0-0.4,0.3-0.8,0.8-0.8h7.5c0.4,0,0.8,0.3,0.8,0.8v10.7
					C-237.2-953.7-237.5-953.3-238-953.3z"/>
				<path class="st3" d="M-238-928.1h-7.5c-0.4,0-0.8-0.3-0.8-0.8v-10.7c0-0.4,0.3-0.8,0.8-0.8h7.5c0.4,0,0.8,0.3,0.8,0.8v10.7
					C-237.2-928.4-237.5-928.1-238-928.1z"/>
				<rect x="-262" y="-961.8" class="st3" width="14.5" height="29.2"/>
			</g>
			<g>
				<rect x="-263.4" y="-913.8" class="st4" width="17.2" height="43.7"/>
				<path class="st3" d="M-264.2-884.6h-6.1c-0.4,0-0.8-0.3-0.8-0.8v-15.2c0-0.4,0.3-0.8,0.8-0.8h6.1c0.4,0,0.8,0.3,0.8,0.8v15.2
					C-263.4-884.9-263.8-884.6-264.2-884.6z"/>
				<path class="st3" d="M-238-897.3h-7.5c-0.4,0-0.8-0.3-0.8-0.8v-10.7c0-0.4,0.3-0.8,0.8-0.8h7.5c0.4,0,0.8,0.3,0.8,0.8v10.7
					C-237.2-897.7-237.5-897.3-238-897.3z"/>
				<path class="st3" d="M-238-872.1h-7.5c-0.4,0-0.8-0.3-0.8-0.8v-10.7c0-0.4,0.3-0.8,0.8-0.8h7.5c0.4,0,0.8,0.3,0.8,0.8v10.7
					C-237.2-872.4-237.5-872.1-238-872.1z"/>
				<rect x="-262" y="-905.9" class="st3" width="14.5" height="29.2"/>
			</g>
			<g>
				<rect x="-263.4" y="-857.8" class="st4" width="17.2" height="43.7"/>
				<path class="st3" d="M-264.2-828.6h-6.1c-0.4,0-0.8-0.3-0.8-0.8v-15.2c0-0.4,0.3-0.8,0.8-0.8h6.1c0.4,0,0.8,0.3,0.8,0.8v15.2
					C-263.4-828.9-263.8-828.6-264.2-828.6z"/>
				<path class="st3" d="M-238-841.3h-7.5c-0.4,0-0.8-0.3-0.8-0.8v-10.7c0-0.4,0.3-0.8,0.8-0.8h7.5c0.4,0,0.8,0.3,0.8,0.8v10.7
					C-237.2-841.7-237.5-841.3-238-841.3z"/>
				<path class="st3" d="M-238-816.1h-7.5c-0.4,0-0.8-0.3-0.8-0.8v-10.7c0-0.4,0.3-0.8,0.8-0.8h7.5c0.4,0,0.8,0.3,0.8,0.8v10.7
					C-237.2-816.4-237.5-816.1-238-816.1z"/>
				<rect x="-262" y="-849.9" class="st3" width="14.5" height="29.2"/>
			</g>
		</g>
		<g>
			<g>
				<path class="st5" d="M-291.8-925.4h-13c-2.9,0-5.3-2.4-5.3-5.3v-36.7c0-2.9,2.4-5.3,5.3-5.3h13c2.9,0,5.3,2.4,5.3,5.3v36.7
					C-286.5-927.8-288.9-925.4-291.8-925.4z"/>
				<g>
					<path class="st6" d="M-298.3-931.3L-298.3-931.3c-4.5,0-8.1-3.6-8.1-8.1v-19.2c0-4.5,3.6-8.1,8.1-8.1h0c4.5,0,8.1,3.6,8.1,8.1
						v19.2C-290.2-935-293.8-931.3-298.3-931.3z"/>
					<rect x="-306.5" y="-958" class="st3" width="16.3" height="17.8"/>
				</g>
			</g>
			<g>
				<path class="st5" d="M-291.8-868.2h-13c-2.9,0-5.3-2.4-5.3-5.3v-36.7c0-2.9,2.4-5.3,5.3-5.3h13c2.9,0,5.3,2.4,5.3,5.3v36.7
					C-286.5-870.6-288.9-868.2-291.8-868.2z"/>
				<g>
					<path class="st6" d="M-298.3-874.1L-298.3-874.1c-4.5,0-8.1-3.6-8.1-8.1v-19.2c0-4.5,3.6-8.1,8.1-8.1h0c4.5,0,8.1,3.6,8.1,8.1
						v19.2C-290.2-877.8-293.8-874.1-298.3-874.1z"/>
					<rect x="-306.5" y="-900.8" class="st3" width="16.3" height="17.8"/>
				</g>
			</g>
			<g>
				<path class="st5" d="M-291.8-811h-13c-2.9,0-5.3-2.4-5.3-5.3V-853c0-2.9,2.4-5.3,5.3-5.3h13c2.9,0,5.3,2.4,5.3,5.3v36.7
					C-286.5-813.3-288.9-811-291.8-811z"/>
				<g>
					<path class="st6" d="M-298.3-816.9L-298.3-816.9c-4.5,0-8.1-3.6-8.1-8.1v-19.2c0-4.5,3.6-8.1,8.1-8.1h0c4.5,0,8.1,3.6,8.1,8.1
						v19.2C-290.2-820.5-293.8-816.9-298.3-816.9z"/>
					<rect x="-306.5" y="-843.5" class="st3" width="16.3" height="17.8"/>
				</g>
			</g>
		</g>
	</g>
	<g>
		<path class="st6" d="M150.1-752.7H-25c-31,0-56.2-25.1-56.2-56.2v-175.1c0-31,25.1-56.2,56.2-56.2h175.1c31,0,56.2,25.1,56.2,56.2
			v175.1C206.2-777.8,181.1-752.7,150.1-752.7z"/>
		<g>
			<circle class="st7" cx="238" cy="-896.4" r="12.7"/>
			<path class="st7" d="M62.5-780c51.2,0,94.7-33.1,110.3-79.1H-47.7C-32.2-813.1,11.3-780,62.5-780z"/>
			<circle class="st7" cx="-113" cy="-896.4" r="12.7"/>
			<path class="st7" d="M62.5-1012.8c-51.2,0-94.7,33.1-110.3,79.1h220.5C157.2-979.7,113.7-1012.8,62.5-1012.8z"/>
			<path class="st3" d="M-68.1-882.4c-14-2.3-14.2-22.4-0.3-25.1l0,0c11.5-2.2,14.1-17.5,4.1-23.4c-1.4-0.8-2.5-1.8-3.4-2.9h-40.5
				c-20.6,0-37.4,16.7-37.4,37.4v0c0,20.6,16.7,37.4,37.4,37.4h44.8C-53.6-865.3-56.6-880.4-68.1-882.4z M-113-883.7
				c-7,0-12.7-5.7-12.7-12.7c0-7,5.7-12.7,12.7-12.7c7,0,12.7,5.7,12.7,12.7C-100.3-889.4-106-883.7-113-883.7z"/>
			<path class="st3" d="M233.3-933.8h-37.9c9.8,3.9,11.2,19.2-0.2,23.7c-10.9,4.3-10.7,19.8,0.3,23.8c13.3,4.9,9.9,24.6-4.3,24.7
				c-3,0-5.6,1-7.6,2.6h49.8c20.6,0,37.4-16.7,37.4-37.4v0C270.6-917,253.9-933.8,233.3-933.8z M238-883.7c-7,0-12.7-5.7-12.7-12.7
				c0-7,5.7-12.7,12.7-12.7c7,0,12.7,5.7,12.7,12.7C250.8-889.4,245.1-883.7,238-883.7z"/>
			<path class="st3" d="M62.5-1012.8c51.2,0,94.7,33.1,110.3,79.1h22.6c-1.5-0.6-3.2-0.9-5.1-0.9c-11.7,0.2-17.5-14.1-8.9-22.1
				c10.4-9.6-0.3-26.5-13.5-21.1c-10.8,4.4-21.4-6.9-16.3-17.4c6.2-12.7-9.9-24.6-20.2-14.8v0c-8.5,8-22.4,1.3-21.4-10.3
				c1.2-14.1-18.1-19.4-24.2-6.6c-5,10.6-20.4,9.3-23.7-1.9c-4-13.6-23.9-11.5-24.9,2.6c-0.9,11.7-15.7,16.1-22.8,6.8
				c-8.6-11.3-26.4-2.1-22.3,11.4v0c3.4,11.2-8.8,20.7-18.8,14.6c-12.1-7.4-25.4,7.6-16.6,18.7v0c7.2,9.2-0.8,22.5-12.3,20.4
				c-12.4-2.2-19.2,12.2-12.2,20.6h20C-32.2-979.7,11.3-1012.8,62.5-1012.8z"/>
			<path class="st3" d="M62.5-780c-51.2,0-94.7-33.1-110.3-79.1h-15.7c0,0,0,0,0,0v0c-12,7.5-4.5,26.1,9.3,23.2v0
				c11.5-2.4,19.8,10.7,12.8,20.1c-8.5,11.4,5.2,26,17.1,18.3v0c9.8-6.3,22.3,2.8,19.2,14.1v0c-3.8,13.7,14.2,22.4,22.6,10.9
				c6.9-9.5,21.8-5.4,23,6.2c1.4,14.1,21.3,15.7,25,2c3-11.3,18.4-12.9,23.7-2.5v0c6.4,12.7,25.6,6.9,24-7.2
				c-1.3-11.6,12.5-18.7,21.2-10.9h0c10.5,9.5,26.4-2.8,19.8-15.3c-5.4-10.4,4.9-21.9,15.8-17.8c13.3,5,23.6-12.1,12.9-21.5v0
				c-6.5-5.7-5.2-15.2,0.7-19.7h-10.7C157.2-813.1,113.7-780,62.5-780z"/>
			<path class="st3" d="M195.4-886.3c-11-4-11.2-19.5-0.3-23.8c11.4-4.5,10-19.8,0.2-23.7h-22.6c4,11.7,6.2,24.3,6.2,37.4
				s-2.2,25.6-6.2,37.4h10.7c2-1.6,4.6-2.6,7.6-2.6C205.3-861.7,208.7-881.4,195.4-886.3z"/>
			<path class="st3" d="M-53.9-896.4c0-13.1,2.2-25.6,6.2-37.4h-20c0.9,1.1,2,2.1,3.4,2.9c10.1,6,7.4,21.2-4.1,23.4l0,0
				c-13.9,2.7-13.7,22.7,0.3,25.1c11.5,1.9,14.6,17.1,4.7,23.3h15.7C-51.7-870.8-53.9-883.3-53.9-896.4z"/>
		</g>
	</g>
</g>
<g>
	<path class="st0" d="M-1024.1,1907h-625.5c-22.6,0-40.9-18.3-40.9-40.9v-261.7c0-22.6,18.3-40.9,40.9-40.9h625.5
		c22.6,0,40.9,18.3,40.9,40.9v261.7C-983.2,1888.7-1001.5,1907-1024.1,1907z"/>
	<g>
		<path class="st8" d="M-1585.9,1676.1l-17.6,0.1l-0.1-14.6c0-4.2-3.1-7.6-7-7.5l-64.1,0.3c-3.8,0-6.9,3.4-6.9,7.6l0.6,147.1
			c0,4.2,3.1,7.6,7,7.5l64.1-0.3c3.8,0,6.9-3.4,6.9-7.6l-0.1-14.6l17.6-0.1c3.8,0,6.9-3.4,6.9-7.6l-0.4-102.8
			C-1579,1679.4-1582.1,1676.1-1585.9,1676.1z"/>
		<path class="st9" d="M-1636.4,1691.8l-9.2,0c-1.7,0-3-1.3-3.1-3l0-10.5c0-1.7,1.4-3,3-3.1l9.2,0c1.7,0,3,1.3,3.1,3l0,10.5
			C-1633.4,1690.4-1634.7,1691.8-1636.4,1691.8z"/>
		<path class="st9" d="M-1636.3,1726.3l-9.2,0c-1.7,0-3-1.4-3.1-3l0-10.5c0-1.7,1.4-3,3-3.1l9.2,0c1.7,0,3,1.4,3.1,3l0,10.5
			C-1633.2,1724.9-1634.6,1726.3-1636.3,1726.3z"/>
		<path class="st9" d="M-1636.1,1760.8l-9.2,0c-1.7,0-3-1.3-3.1-3l0-10.5c0-1.7,1.3-3,3-3.1l9.2,0c1.7,0,3,1.3,3.1,3l0,10.5
			C-1633.1,1759.4-1634.5,1760.8-1636.1,1760.8z"/>
		<path class="st9" d="M-1636,1795.3l-9.2,0c-1.7,0-3-1.4-3.1-3l0-10.5c0-1.7,1.3-3,3-3.1l9.2,0c1.7,0,3,1.4,3.1,3l0,10.5
			C-1633,1793.9-1634.3,1795.3-1636,1795.3z"/>
	</g>
	<g class="st10">
		<g>
			<defs>
				<rect id="SVGID_1_" x="-1064.2" y="1614.3" width="39.3" height="39.7"/>
			</defs>
			<clipPath id="SVGID_2_">
				<use xlink:href="#SVGID_1_"  style="overflow:visible;"/>
			</clipPath>
			<polygon class="st11" points="-1063.5,1615.9 -1025.9,1615 -1025.6,1630.6 -1063.2,1631.5 			"/>
			<g class="st12">
				<g>
					<defs>
						<rect id="SVGID_3_" x="-1061.2" y="1619.4" width="33.4" height="9.6"/>
					</defs>
					<clipPath id="SVGID_4_">
						<use xlink:href="#SVGID_3_"  style="overflow:visible;"/>
					</clipPath>
					<path class="st13" d="M-1060.7,1626.5l-0.1-3.9c0-1.1,1-2.1,2.3-2.1l27.8-0.7c1.3,0,2.3,0.9,2.3,2l0.1,3.9c0,1.1-1,2.1-2.3,2.1
						l-27.8,0.7C-1059.7,1628.5-1060.7,1627.6-1060.7,1626.5z"/>
					<path class="st14" d="M-1056,1626.4l-0.1-3.9c0-1.1,1-2.1,2.3-2.1l18.4-0.5c1.3,0,2.3,0.9,2.3,2l0.1,3.9c0,1.1-1,2.1-2.3,2.1
						l-18.4,0.5C-1055,1628.4-1056,1627.5-1056,1626.4"/>
					<g class="st15">
						<g>
							<defs>
								<rect id="SVGID_5_" x="-1060.8" y="1622.3" width="32.4" height="3.7"/>
							</defs>
							<clipPath id="SVGID_6_">
								<use xlink:href="#SVGID_5_"  style="overflow:visible;"/>
							</clipPath>
							<path class="st16" d="M-1057.3,1626c0.9,0,1.6-0.7,1.6-1.4c0-0.8-0.7-1.4-1.6-1.3c-0.6,0-1.1,0.3-1.3,0.7l-2.1-0.5l0.1,2.6
								l1.9-0.8C-1058.5,1625.7-1058,1626-1057.3,1626"/>
							<path class="st16" d="M-1031.8,1625.1c-0.9,0-1.6-0.6-1.6-1.3c0-0.8,0.7-1.4,1.5-1.4c0.6,0,1.1,0.2,1.4,0.6l2.1-0.7l0,2.6
								l-1.9-0.7C-1030.5,1624.7-1031.1,1625.1-1031.8,1625.1"/>
						</g>
					</g>
				</g>
			</g>
			<polygon class="st11" points="-1063.5,1637.7 -1025.9,1636.8 -1025.6,1652.4 -1063.2,1653.3 			"/>
			<g class="st12">
				<g>
					<defs>
						<rect id="SVGID_7_" x="-1061.2" y="1641.2" width="33.4" height="9.6"/>
					</defs>
					<clipPath id="SVGID_8_">
						<use xlink:href="#SVGID_7_"  style="overflow:visible;"/>
					</clipPath>
					<path class="st17" d="M-1060.7,1648.3l-0.1-3.9c0-1.1,1-2.1,2.3-2.1l27.8-0.7c1.3,0,2.3,0.9,2.3,2l0.1,3.9c0,1.1-1,2.1-2.3,2.1
						l-27.8,0.7C-1059.7,1650.3-1060.7,1649.4-1060.7,1648.3z"/>
					<path class="st18" d="M-1056,1648.2l-0.1-3.9c0-1.1,1-2.1,2.3-2.1l18.4-0.5c1.3,0,2.3,0.9,2.3,2l0.1,3.9c0,1.1-1,2.1-2.3,2.1
						l-18.4,0.5C-1055,1650.2-1056,1649.3-1056,1648.2"/>
					<g class="st19">
						<g>
							<defs>
								<rect id="SVGID_9_" x="-1060.8" y="1644.1" width="32.4" height="3.7"/>
							</defs>
							<clipPath id="SVGID_10_">
								<use xlink:href="#SVGID_9_"  style="overflow:visible;"/>
							</clipPath>
							<path class="st20" d="M-1057.3,1647.8c0.9,0,1.6-0.7,1.6-1.4c0-0.8-0.7-1.4-1.6-1.3c-0.6,0-1.1,0.3-1.3,0.7l-2.1-0.5l0.1,2.6
								l1.9-0.8C-1058.5,1647.5-1058,1647.8-1057.3,1647.8"/>
							<path class="st20" d="M-1031.8,1646.9c-0.9,0-1.6-0.6-1.6-1.3c0-0.8,0.7-1.4,1.5-1.4c0.6,0,1.1,0.2,1.4,0.6l2.1-0.7l0,2.6
								l-1.9-0.7C-1030.5,1646.5-1031.1,1646.9-1031.8,1646.9"/>
						</g>
					</g>
				</g>
			</g>
		</g>
	</g>
	<g>
		<path class="st21" d="M-1045.6,1704.6l7.7,0l0.1-13l47.2,0.3c4.1,0,7.4,3.6,7.4,7.9l-0.4,71.2c0,4.4-3.4,7.9-7.5,7.8l-47.2-0.3
			l0.1-13l-7.7,0c-4.4,0-7.9-3.8-7.8-8.4l0.2-44.3C-1053.5,1708.3-1049.9,1704.6-1045.6,1704.6z"/>
		<g>
			<path class="st22" d="M-1004.6,1728.9l-8.6,0c-0.7,0-1.3-0.6-1.3-1.3l0-9.3c0-0.7,0.6-1.3,1.3-1.3l8.6,0c0.7,0,1.3,0.6,1.3,1.3
				l0,9.3C-1003.3,1728.3-1003.9,1728.9-1004.6,1728.9z"/>
			<path class="st22" d="M-1004.7,1753.6l-8.6,0c-0.7,0-1.3-0.6-1.3-1.3l0-9.3c0-0.7,0.6-1.3,1.3-1.3l8.6,0c0.7,0,1.3,0.6,1.3,1.3
				l0,9.3C-1003.4,1753-1004,1753.6-1004.7,1753.6z"/>
		</g>
	</g>
	<g>
		<path class="st6" d="M-1481.5,1686.3h-57.2c-4.1,0-7.4-3.3-7.4-7.4v-57.2c0-4.1,3.3-7.4,7.4-7.4h57.2c4.1,0,7.4,3.3,7.4,7.4v57.2
			C-1474.1,1683-1477.4,1686.3-1481.5,1686.3z"/>
		<path class="st3" d="M-1477.4,1686.3h-7.5c-1.8,0-3.3-1.5-3.3-3.3v-65.4c0-1.8,1.5-3.3,3.3-3.3h7.5c1.8,0,3.3,1.5,3.3,3.3v65.4
			C-1474.1,1684.8-1475.6,1686.3-1477.4,1686.3z"/>
	</g>
	<g>
		<path class="st6" d="M-1087.6,1847.2h-19.4c-4.1,0-7.4-3.3-7.4-7.4v-65c0-4.1,3.3-7.4,7.4-7.4h19.4c4.1,0,7.4,3.3,7.4,7.4v65
			C-1080.2,1843.9-1083.5,1847.2-1087.6,1847.2z"/>
		<path class="st3" d="M-1089.2,1834.1h-16.3c-4.9,0-9-4-9-9v-35.6c0-4.9,4-9,9-9h16.3c4.9,0,9,4,9,9v35.6
			C-1080.2,1830-1084.2,1834.1-1089.2,1834.1z"/>
	</g>
	<g>
		<path class="st6" d="M-1139.7,1845.1h-19.4c-3.2,0-5.8-2.6-5.8-5.8v-42.1c0-3.2,2.6-5.8,5.8-5.8h19.4c3.2,0,5.8,2.6,5.8,5.8v42.1
			C-1134,1842.5-1136.6,1845.1-1139.7,1845.1z"/>
		<path class="st3" d="M-1141,1836.3h-16.9c-3.8,0-7-3.1-7-7v-22c0-3.8,3.1-7,7-7h16.9c3.8,0,7,3.1,7,7v22
			C-1134,1833.2-1137.1,1836.3-1141,1836.3z"/>
	</g>
	<g>
		<polygon class="st23" points="-1205.3,1836.9 -1206.2,1799.3 -1185,1799.2 -1184.1,1836.8 		"/>
		<g class="st24">
			<g>
				<defs>
					
						<rect id="SVGID_11_" x="-1210.6" y="1811.5" transform="matrix(9.019782e-03 -1 1 9.019782e-03 -3001.1201 607.7914)" width="33.4" height="13"/>
				</defs>
				<clipPath id="SVGID_12_">
					<use xlink:href="#SVGID_11_"  style="overflow:visible;"/>
				</clipPath>
				<path class="st25" d="M-1190.9,1834.3l-5.3,0c-1.5,0-2.8-1-2.8-2.3l-0.7-27.8c0-1.3,1.2-2.3,2.7-2.3l5.3,0c1.5,0,2.8,1,2.8,2.3
					l0.7,27.8C-1188.1,1833.2-1189.3,1834.3-1190.9,1834.3z"/>
				<path class="st26" d="M-1191,1829.6l-5.3,0c-1.5,0-2.8-1-2.8-2.3l-0.4-18.4c0-1.3,1.2-2.3,2.7-2.3l5.3,0c1.5,0,2.8,1,2.8,2.3
					l0.4,18.4C-1188.2,1828.5-1189.4,1829.5-1191,1829.6"/>
				<g class="st27">
					<g>
						<defs>
							
								<rect id="SVGID_13_" x="-1210.1" y="1815.6" transform="matrix(9.019782e-03 -1 1 9.019782e-03 -3001.1653 607.7926)" width="32.4" height="5"/>
						</defs>
						<clipPath id="SVGID_14_">
							<use xlink:href="#SVGID_13_"  style="overflow:visible;"/>
						</clipPath>
						<path class="st28" d="M-1191.5,1830.8c0-0.9-0.9-1.6-1.9-1.6c-1,0-1.9,0.7-1.8,1.6c0,0.6,0.4,1.1,1,1.4l-0.8,2.1l3.6-0.1
							l-1.1-1.9C-1192,1832.1-1191.5,1831.5-1191.5,1830.8"/>
						<path class="st28" d="M-1192.5,1805.3c0,0.9-0.8,1.6-1.8,1.6c-1,0-1.9-0.7-1.9-1.6c0-0.6,0.3-1.1,0.9-1.4l-0.9-2.1l3.6,0.1
							l-1,1.9C-1193.1,1804-1192.5,1804.6-1192.5,1805.3"/>
					</g>
				</g>
			</g>
		</g>
	</g>
	<g>
		<polygon class="st23" points="-1241.2,1836.9 -1242.1,1799.3 -1221,1799.2 -1220.1,1836.8 		"/>
		<g class="st24">
			<g>
				<defs>
					
						<rect id="SVGID_15_" x="-1246.6" y="1811.5" transform="matrix(9.019782e-03 -1 1 9.019782e-03 -3036.7529 571.8355)" width="33.4" height="13"/>
				</defs>
				<clipPath id="SVGID_16_">
					<use xlink:href="#SVGID_15_"  style="overflow:visible;"/>
				</clipPath>
				<path class="st29" d="M-1226.8,1834.3l-5.3,0c-1.5,0-2.8-1-2.8-2.3l-0.7-27.8c0-1.3,1.2-2.3,2.7-2.3l5.3,0c1.5,0,2.8,1,2.8,2.3
					l0.7,27.8C-1224.1,1833.2-1225.3,1834.3-1226.8,1834.3z"/>
				<path class="st30" d="M-1226.9,1829.6l-5.3,0c-1.5,0-2.8-1-2.8-2.3l-0.4-18.4c0-1.3,1.2-2.3,2.7-2.3l5.3,0c1.5,0,2.8,1,2.8,2.3
					l0.4,18.4C-1224.2,1828.5-1225.4,1829.5-1226.9,1829.6"/>
				<g class="st31">
					<g>
						<defs>
							
								<rect id="SVGID_17_" x="-1246.1" y="1815.6" transform="matrix(9.019782e-03 -1 1 9.019782e-03 -3036.7983 571.8367)" width="32.4" height="5"/>
						</defs>
						<clipPath id="SVGID_18_">
							<use xlink:href="#SVGID_17_"  style="overflow:visible;"/>
						</clipPath>
						<path class="st32" d="M-1227.5,1830.8c0-0.9-0.9-1.6-1.9-1.6c-1,0-1.9,0.7-1.8,1.6c0,0.6,0.4,1.1,1,1.4l-0.8,2.1l3.6-0.1
							l-1.1-1.9C-1227.9,1832.1-1227.5,1831.5-1227.5,1830.8"/>
						<path class="st32" d="M-1228.5,1805.3c0,0.9-0.8,1.6-1.8,1.6c-1,0-1.9-0.7-1.9-1.6c0-0.6,0.3-1.1,0.9-1.4l-0.9-2.1l3.6,0.1
							l-1,1.9C-1229,1804-1228.5,1804.6-1228.5,1805.3"/>
					</g>
				</g>
			</g>
		</g>
	</g>
	<path class="st3" d="M-1175.6,1783.6h-23.4c-0.9,0-1.7-0.8-1.7-1.8v-56.5c0-1,0.8-1.8,1.7-1.8h20.2c0.4,0,0.8,0.1,1.1,0.4l1.9,1.6
		c0.1,0,0.1,0.1,0.1,0.1l1.3,1.3c0.3,0.3,0.5,0.8,0.5,1.2v53.6C-1173.9,1782.8-1174.6,1783.6-1175.6,1783.6z"/>
	<path class="st3" d="M-1511.4,1742.3h-16.9c-0.7,0-1.2-0.6-1.2-1.3v-40.9c0-0.7,0.6-1.3,1.2-1.3h14.6c0.3,0,0.6,0.1,0.8,0.3
		l1.4,1.1c0,0,0.1,0.1,0.1,0.1l0.9,1c0.2,0.2,0.4,0.6,0.4,0.9v38.8C-1510.1,1741.8-1510.7,1742.3-1511.4,1742.3z"/>
	<g>
		<path class="st6" d="M-1418.6,1781.2l0.5,95.8c0,6.6-5.3,12-11.9,12l-88.6,0.5c-6.6,0-12-5.3-12-11.9l-0.5-95.8
			c0-6.6,5.3-12,11.9-12l88.6-0.5C-1424.1,1769.3-1418.7,1774.6-1418.6,1781.2z"/>
		<path class="st3" d="M-1418.7,1774.6l0.1,12.8c0,2.9-2.3,5.3-5.3,5.3l-101.9,0.5c-2.9,0-5.3-2.3-5.3-5.3l-0.1-12.8
			c0-2.9,2.3-5.3,5.3-5.3l101.9-0.5C-1421.1,1769.3-1418.7,1771.6-1418.7,1774.6z"/>
	</g>
	<g>
		<path class="st6" d="M-1413.8,1718.8l-0.1,10c0,2.5-2.1,4.5-4.6,4.5l-44.5-0.4c-2.5,0-4.5-2.1-4.5-4.6l0.1-10
			c0-2.5,2.1-4.5,4.6-4.5l44.5,0.4C-1415.8,1714.3-1413.8,1716.3-1413.8,1718.8z"/>
		<path class="st3" d="M-1422.7,1719.7l-0.1,8.1c0,3-2.5,5.5-5.5,5.4l-25-0.2c-3,0-5.5-2.5-5.4-5.5l0.1-8.1c0-3,2.5-5.5,5.5-5.4
			l25,0.2C-1425.1,1714.2-1422.7,1716.7-1422.7,1719.7z"/>
	</g>
	<g>
		<path class="st6" d="M-1324.7,1757.7l-0.1,12.7c0,3.1-2.6,5.6-5.7,5.6l-54.5-0.5c-3.1,0-5.6-2.6-5.6-5.7l0.1-12.7
			c0-3.1,2.6-5.6,5.7-5.6l54.5,0.5C-1327.2,1752-1324.7,1754.5-1324.7,1757.7z"/>
		<path class="st3" d="M-1335.6,1758.7l-0.1,10.3c0,3.7-3.1,6.8-6.9,6.8l-30.5-0.3c-3.7,0-6.8-3.1-6.8-6.9l0.1-10.3
			c0-3.7,3.1-6.8,6.9-6.8l30.5,0.3C-1338.6,1751.9-1335.5,1755-1335.6,1758.7z"/>
	</g>
	<g>
		<g>
			<g>
				<ellipse class="st33" cx="-1383.3" cy="1630.6" rx="35.1" ry="35.6"/>
				<ellipse class="st6" cx="-1383.3" cy="1630.6" rx="29.9" ry="30.3"/>
			</g>
			<g>
				<path class="st3" d="M-1380.9,1637.8l-0.9,1.8l3.2,1.6l-1.4,2.7l-3.2-1.6l-3.1,6.3l-1.7-0.8l-4.7-9.3l1.7-3.5l7.2,3.7l0.9-1.8
					L-1380.9,1637.8z M-1385,1641.4l-2.5-1.3c-0.7-0.4-1.8-1-2.5-1.4l0,0.1c0.5,0.7,0.9,1.4,1.4,2.2l1.9,3.8L-1385,1641.4z"/>
				<path class="st3" d="M-1383.8,1626.1l-3.3,6.6l-2-1l4.9-9.8l1.5,0.8c1.8,5.2,4,6.9,8.7,9.6l-1.5,3
					C-1379.7,1632.8-1382,1630.5-1383.8,1626.1z"/>
				<path class="st3" d="M-1377.3,1623.1c-4.2-2.2-5.3-5.2-3.8-8.2c1.5-3,4.6-3.9,8.8-1.8c4.2,2.1,5.4,5.3,3.9,8.2
					C-1369.9,1624.4-1373.1,1625.3-1377.3,1623.1z M-1373.7,1615.9c-3.4-1.7-4.9-1.3-5.5,0c-0.6,1.3-0.1,2.7,3.3,4.5
					c3.4,1.8,5,1.3,5.6,0.1C-1369.7,1619.2-1370.3,1617.7-1373.7,1615.9z"/>
			</g>
		</g>
		<path class="st6" d="M-1350.6,1674.3h-64.4c-1.9,0-3.4-1.5-3.4-3.4v-77.3c0-1.9,1.5-3.4,3.4-3.4h64.4c1.9,0,3.4,1.5,3.4,3.4v77.3
			C-1347.2,1672.8-1348.7,1674.3-1350.6,1674.3z"/>
	</g>
	<g>
		<g class="st10">
			<g>
				<defs>
					<rect id="SVGID_19_" x="-1158.6" y="1612.6" width="55.6" height="84.6"/>
				</defs>
				<clipPath id="SVGID_20_">
					<use xlink:href="#SVGID_19_"  style="overflow:visible;"/>
				</clipPath>
				<path class="st34" d="M-1112.3,1697.1h-37c-5.1,0-9.3-5.1-9.3-11.4V1624c0-6.3,4.2-11.4,9.3-11.4h37c5.1,0,9.3,5.1,9.3,11.4
					v61.8C-1103,1692-1107.2,1697.1-1112.3,1697.1"/>
			</g>
		</g>
		<path class="st35" d="M-1112.3,1697.1h-37c-5.1,0-9.3-5.1-9.3-11.4V1624c0-6.3,4.2-11.4,9.3-11.4h37c5.1,0,9.3,5.1,9.3,11.4v61.8
			C-1103,1692-1107.2,1697.1-1112.3,1697.1z"/>
		<path class="st3" d="M-1102.5,1625h8c0.3,0,0.5,0.3,0.5,0.6v0.6c0,0.3,0.2,0.6,0.5,0.6h12.7c0.3,0,0.5,0.3,0.5,0.6v3.4
			c0,0.3-0.2,0.6-0.5,0.6h-13.1c-0.3,0-0.5-0.2-0.5-0.5c0-0.3-0.3-0.5-0.5-0.5l-7.7,0c-0.3,0-0.5-0.3-0.5-0.6v-4.2
			C-1103,1625.3-1102.8,1625-1102.5,1625"/>
		<path class="st3" d="M-1102.5,1643.4h8c0.3,0,0.5,0.3,0.5,0.6v0.6c0,0.3,0.2,0.6,0.5,0.6h12.7c0.3,0,0.5,0.3,0.5,0.6v3.4
			c0,0.3-0.2,0.6-0.5,0.6h-13.1c-0.3,0-0.5-0.2-0.5-0.5c0-0.3-0.3-0.5-0.5-0.5l-7.7,0c-0.3,0-0.5-0.3-0.5-0.6v-4.2
			C-1103,1643.7-1102.8,1643.4-1102.5,1643.4"/>
		<path class="st3" d="M-1102.5,1661.9h8c0.3,0,0.5,0.3,0.5,0.6v0.6c0,0.3,0.2,0.6,0.5,0.6h12.7c0.3,0,0.5,0.3,0.5,0.6v3.4
			c0,0.3-0.2,0.6-0.5,0.6h-13.1c-0.3,0-0.5-0.2-0.5-0.5c0-0.3-0.3-0.5-0.5-0.5l-7.7,0c-0.3,0-0.5-0.3-0.5-0.6v-4.2
			C-1103,1662.1-1102.8,1661.9-1102.5,1661.9"/>
		<path class="st3" d="M-1102.5,1680.3h8c0.3,0,0.5,0.3,0.5,0.6v0.6c0,0.3,0.2,0.6,0.5,0.6h12.7c0.3,0,0.5,0.3,0.5,0.6v3.4
			c0,0.3-0.2,0.6-0.5,0.6h-13.1c-0.3,0-0.5-0.2-0.5-0.5c0-0.3-0.3-0.5-0.5-0.5l-7.7,0c-0.3,0-0.5-0.3-0.5-0.6v-4.2
			C-1103,1680.6-1102.8,1680.3-1102.5,1680.3"/>
		<path class="st3" d="M-1159.2,1625h-8c-0.3,0-0.5,0.3-0.5,0.6v0.6c0,0.3-0.2,0.6-0.5,0.6h-12.7c-0.3,0-0.5,0.3-0.5,0.6v3.4
			c0,0.3,0.2,0.6,0.5,0.6h13.1c0.3,0,0.5-0.2,0.5-0.5c0-0.3,0.3-0.5,0.5-0.5l7.7,0c0.3,0,0.5-0.3,0.5-0.6v-4.2
			C-1158.7,1625.3-1158.9,1625-1159.2,1625"/>
		<path class="st3" d="M-1159.2,1643.4h-8c-0.3,0-0.5,0.3-0.5,0.6v0.6c0,0.3-0.2,0.6-0.5,0.6h-12.7c-0.3,0-0.5,0.3-0.5,0.6v3.4
			c0,0.3,0.2,0.6,0.5,0.6h13.1c0.3,0,0.5-0.2,0.5-0.5c0-0.3,0.3-0.5,0.5-0.5l7.7,0c0.3,0,0.5-0.3,0.5-0.6v-4.2
			C-1158.7,1643.7-1158.9,1643.4-1159.2,1643.4"/>
		<path class="st3" d="M-1159.2,1661.9h-8c-0.3,0-0.5,0.3-0.5,0.6v0.6c0,0.3-0.2,0.6-0.5,0.6h-12.7c-0.3,0-0.5,0.3-0.5,0.6v3.4
			c0,0.3,0.2,0.6,0.5,0.6h13.1c0.3,0,0.5-0.2,0.5-0.5c0-0.3,0.3-0.5,0.5-0.5l7.7,0c0.3,0,0.5-0.3,0.5-0.6v-4.2
			C-1158.7,1662.1-1158.9,1661.9-1159.2,1661.9"/>
		<path class="st3" d="M-1159.2,1680.3h-8c-0.3,0-0.5,0.3-0.5,0.6v0.6c0,0.3-0.2,0.6-0.5,0.6h-12.7c-0.3,0-0.5,0.3-0.5,0.6v3.4
			c0,0.3,0.2,0.6,0.5,0.6h13.1c0.3,0,0.5-0.2,0.5-0.5c0-0.3,0.3-0.5,0.5-0.5l7.7,0c0.3,0,0.5-0.3,0.5-0.6v-4.2
			C-1158.7,1680.6-1158.9,1680.3-1159.2,1680.3"/>
	</g>
	<g>
		
			<rect x="-1309.3" y="1587.6" transform="matrix(-1 4.785862e-03 -4.785862e-03 -1 -2581.7651 3196.2014)" class="st36" width="29.1" height="14.8"/>
		<g class="st24">
			<path class="st37" d="M-1307.3,1597.8l0-3.7c0-1.1,0.8-1.9,1.8-1.9l21.5-0.1c1,0,1.8,0.9,1.8,1.9l0,3.7c0,1.1-0.8,1.9-1.8,1.9
				l-21.5,0.1C-1306.5,1599.7-1307.3,1598.9-1307.3,1597.8z"/>
			<path class="st3" d="M-1303.6,1597.8l0-3.7c0-1.1,0.8-1.9,1.8-1.9l14.2-0.1c1,0,1.8,0.9,1.8,1.9l0,3.7c0,1.1-0.8,1.9-1.8,1.9
				l-14.2,0.1C-1302.8,1599.7-1303.6,1598.8-1303.6,1597.8z"/>
			<g class="st24">
				<path class="st3" d="M-1304.6,1597.4c0.7,0,1.2-0.6,1.2-1.3c0-0.7-0.6-1.3-1.2-1.3c-0.4,0-0.8,0.3-1.1,0.7l-1.6-0.6l0.1,2.5
					l1.5-0.8C-1305.6,1597-1305.1,1597.4-1304.6,1597.4z"/>
				<path class="st3" d="M-1284.8,1597c-0.7,0-1.2-0.6-1.2-1.3c0-0.7,0.5-1.3,1.2-1.3c0.4,0,0.8,0.2,1.1,0.6l1.6-0.6l0,2.5l-1.5-0.7
					C-1283.8,1596.7-1284.3,1597-1284.8,1597z"/>
			</g>
		</g>
	</g>
	<g>
		<g class="st10">
			<g>
				<defs>
					
						<rect id="SVGID_21_" x="-1324.6" y="1612.9" transform="matrix(1.148577e-02 -0.9999 0.9999 1.148577e-02 -2931.5266 304.7119)" width="25.8" height="44.3"/>
				</defs>
				<clipPath id="SVGID_22_">
					<use xlink:href="#SVGID_21_"  style="overflow:visible;"/>
				</clipPath>
				<path class="st38" d="M-1289.4,1626.7l-0.2,17.2c0,2.4-2.7,4.3-6,4.2l-32.3-0.4c-3.3,0-5.9-2-5.9-4.4l0.2-17.2
					c0-2.4,2.7-4.3,6-4.2l32.3,0.4C-1292,1622.4-1289.4,1624.3-1289.4,1626.7"/>
			</g>
		</g>
		<path class="st39" d="M-1289.4,1626.7l-0.2,17.2c0,2.4-2.7,4.3-6,4.2l-32.3-0.4c-3.3,0-5.9-2-5.9-4.4l0.2-17.2
			c0-2.4,2.7-4.3,6-4.2l32.3,0.4C-1292,1622.4-1289.4,1624.3-1289.4,1626.7z"/>
		<path class="st3" d="M-1327.1,1621.7l0-3.7c0-0.1,0.1-0.2,0.3-0.2l0.3,0c0.2,0,0.3-0.1,0.3-0.2l0.1-5.9c0-0.1,0.1-0.2,0.3-0.2
			l1.8,0c0.2,0,0.3,0.1,0.3,0.3l-0.1,6.1c0,0.1-0.1,0.2-0.3,0.2c-0.2,0-0.3,0.1-0.3,0.2l0,3.6c0,0.1-0.1,0.2-0.3,0.2l-2.2,0
			C-1327,1622-1327.1,1621.8-1327.1,1621.7"/>
		<path class="st3" d="M-1317.5,1621.8l0-3.7c0-0.1,0.1-0.2,0.3-0.2l0.3,0c0.2,0,0.3-0.1,0.3-0.2l0.1-5.9c0-0.1,0.1-0.2,0.3-0.2
			l1.8,0c0.2,0,0.3,0.1,0.3,0.3l-0.1,6.1c0,0.1-0.1,0.2-0.3,0.2c-0.2,0-0.3,0.1-0.3,0.2l0,3.6c0,0.1-0.1,0.2-0.3,0.2l-2.2,0
			C-1317.3,1622.1-1317.5,1622-1317.5,1621.8"/>
		<path class="st3" d="M-1307.8,1621.9l0-3.7c0-0.1,0.1-0.2,0.3-0.2l0.3,0c0.2,0,0.3-0.1,0.3-0.2l0.1-5.9c0-0.1,0.1-0.2,0.3-0.2
			l1.8,0c0.2,0,0.3,0.1,0.3,0.3l-0.1,6.1c0,0.1-0.1,0.2-0.3,0.2c-0.2,0-0.3,0.1-0.3,0.2l0,3.6c0,0.1-0.1,0.2-0.3,0.2l-2.2,0
			C-1307.7,1622.2-1307.8,1622.1-1307.8,1621.9"/>
		<path class="st3" d="M-1298.2,1622l0-3.7c0-0.1,0.1-0.2,0.3-0.2l0.3,0c0.2,0,0.3-0.1,0.3-0.2l0.1-5.9c0-0.1,0.1-0.2,0.3-0.2l1.8,0
			c0.2,0,0.3,0.1,0.3,0.3l-0.1,6.1c0,0.1-0.1,0.2-0.3,0.2c-0.2,0-0.3,0.1-0.3,0.2l0,3.6c0,0.1-0.1,0.2-0.3,0.2l-2.2,0
			C-1298,1622.3-1298.2,1622.2-1298.2,1622"/>
		<path class="st3" d="M-1327.4,1648.1l0,3.7c0,0.1,0.1,0.3,0.3,0.3l0.3,0c0.2,0,0.3,0.1,0.3,0.3l-0.1,5.9c0,0.1,0.1,0.3,0.3,0.3
			l1.8,0c0.2,0,0.3-0.1,0.3-0.2l0.1-6.1c0-0.1-0.1-0.2-0.3-0.3c-0.2,0-0.3-0.1-0.3-0.3l0-3.6c0-0.1-0.1-0.3-0.3-0.3l-2.2,0
			C-1327.3,1647.8-1327.4,1647.9-1327.4,1648.1"/>
		<path class="st3" d="M-1317.8,1648.2l0,3.7c0,0.1,0.1,0.3,0.3,0.3l0.3,0c0.2,0,0.3,0.1,0.3,0.3l-0.1,5.9c0,0.1,0.1,0.3,0.3,0.3
			l1.8,0c0.2,0,0.3-0.1,0.3-0.2l0.1-6.1c0-0.1-0.1-0.2-0.3-0.3c-0.2,0-0.3-0.1-0.3-0.3l0-3.6c0-0.1-0.1-0.3-0.3-0.3l-2.2,0
			C-1317.6,1647.9-1317.8,1648-1317.8,1648.2"/>
		<path class="st3" d="M-1308.1,1648.3l0,3.7c0,0.1,0.1,0.3,0.3,0.3l0.3,0c0.2,0,0.3,0.1,0.3,0.3l-0.1,5.9c0,0.1,0.1,0.3,0.3,0.3
			l1.8,0c0.2,0,0.3-0.1,0.3-0.2l0.1-6.1c0-0.1-0.1-0.2-0.3-0.3c-0.2,0-0.3-0.1-0.3-0.3l0-3.6c0-0.1-0.1-0.3-0.3-0.3l-2.2,0
			C-1308,1648-1308.1,1648.1-1308.1,1648.3"/>
		<path class="st3" d="M-1298.5,1648.4l0,3.7c0,0.1,0.1,0.3,0.3,0.3l0.3,0c0.2,0,0.3,0.1,0.3,0.3l-0.1,5.9c0,0.1,0.1,0.3,0.3,0.3
			l1.8,0c0.2,0,0.3-0.1,0.3-0.2l0.1-6.1c0-0.1-0.1-0.2-0.3-0.3c-0.2,0-0.3-0.1-0.3-0.3l0-3.6c0-0.1-0.1-0.3-0.3-0.3l-2.2,0
			C-1298.3,1648.1-1298.5,1648.2-1298.5,1648.4"/>
	</g>
	<g>
		<g>
			<polygon class="st40" points="-1334.5,1716.8 -1335.1,1690.9 -1320.5,1690.8 -1319.9,1716.8 			"/>
			<g class="st24">
				<g>
					<defs>
						
							<rect id="SVGID_23_" x="-1338.2" y="1699.3" transform="matrix(9.019782e-03 -1 1 9.019782e-03 -3018.4353 361.82)" width="23" height="9"/>
					</defs>
					<clipPath id="SVGID_24_">
						<use xlink:href="#SVGID_23_"  style="overflow:visible;"/>
					</clipPath>
					<path class="st41" d="M-1324.6,1715l-3.7,0c-1.1,0-1.9-0.7-1.9-1.6l-0.5-19.2c0-0.9,0.8-1.6,1.9-1.6l3.7,0
						c1.1,0,1.9,0.7,1.9,1.6l0.5,19.2C-1322.7,1714.3-1323.5,1715-1324.6,1715z"/>
					<path class="st42" d="M-1324.6,1711.7l-3.7,0c-1.1,0-1.9-0.7-1.9-1.6l-0.3-12.7c0-0.9,0.8-1.6,1.9-1.6l3.7,0
						c1.1,0,1.9,0.7,1.9,1.6l0.3,12.7C-1322.8,1711-1323.6,1711.7-1324.6,1711.7"/>
					<g class="st43">
						<g>
							<defs>
								
									<rect id="SVGID_25_" x="-1337.9" y="1702.1" transform="matrix(9.019782e-03 -1 1 9.019782e-03 -3018.4666 361.8209)" width="22.4" height="3.5"/>
							</defs>
							<clipPath id="SVGID_26_">
								<use xlink:href="#SVGID_25_"  style="overflow:visible;"/>
							</clipPath>
							<path class="st44" d="M-1325,1712.6c0-0.6-0.6-1.1-1.3-1.1c-0.7,0-1.3,0.5-1.3,1.1c0,0.4,0.3,0.7,0.7,0.9l-0.5,1.4l2.5-0.1
								l-0.8-1.3C-1325.3,1713.5-1325,1713.1-1325,1712.6"/>
							<path class="st44" d="M-1325.7,1695c0,0.6-0.5,1.1-1.3,1.1c-0.7,0-1.3-0.5-1.3-1.1c0-0.4,0.2-0.7,0.6-0.9l-0.6-1.4l2.5,0
								l-0.7,1.3C-1326.1,1694.1-1325.7,1694.5-1325.7,1695"/>
						</g>
					</g>
				</g>
			</g>
		</g>
		<g>
			<polygon class="st40" points="-1313.5,1716.8 -1314.1,1690.9 -1299.5,1690.8 -1298.9,1716.8 			"/>
			<g class="st24">
				<g>
					<defs>
						
							<rect id="SVGID_27_" x="-1317.2" y="1699.3" transform="matrix(9.019782e-03 -1 1 9.019782e-03 -2997.594 382.8502)" width="23" height="9"/>
					</defs>
					<clipPath id="SVGID_28_">
						<use xlink:href="#SVGID_27_"  style="overflow:visible;"/>
					</clipPath>
					<path class="st45" d="M-1303.5,1715l-3.7,0c-1.1,0-1.9-0.7-1.9-1.6l-0.5-19.2c0-0.9,0.8-1.6,1.9-1.6l3.7,0
						c1.1,0,1.9,0.7,1.9,1.6l0.5,19.2C-1301.6,1714.3-1302.5,1715-1303.5,1715z"/>
					<path class="st46" d="M-1303.6,1711.7l-3.7,0c-1.1,0-1.9-0.7-1.9-1.6l-0.3-12.7c0-0.9,0.8-1.6,1.9-1.6l3.7,0
						c1.1,0,1.9,0.7,1.9,1.6l0.3,12.7C-1301.7,1711-1302.6,1711.7-1303.6,1711.7"/>
					<g class="st47">
						<g>
							<defs>
								
									<rect id="SVGID_29_" x="-1316.8" y="1702.1" transform="matrix(9.019782e-03 -1 1 9.019782e-03 -2997.6252 382.851)" width="22.4" height="3.5"/>
							</defs>
							<clipPath id="SVGID_30_">
								<use xlink:href="#SVGID_29_"  style="overflow:visible;"/>
							</clipPath>
							<path class="st48" d="M-1304,1712.6c0-0.6-0.6-1.1-1.3-1.1c-0.7,0-1.3,0.5-1.3,1.1c0,0.4,0.3,0.7,0.7,0.9l-0.5,1.4l2.5-0.1
								l-0.8-1.3C-1304.3,1713.5-1304,1713.1-1304,1712.6"/>
							<path class="st48" d="M-1304.7,1695c0,0.6-0.5,1.1-1.3,1.1c-0.7,0-1.3-0.5-1.3-1.1c0-0.4,0.2-0.7,0.6-0.9l-0.6-1.4l2.5,0
								l-0.7,1.3C-1305.1,1694.1-1304.7,1694.5-1304.7,1695"/>
						</g>
					</g>
				</g>
			</g>
		</g>
	</g>
	<g>
		<g>
			<polygon class="st49" points="-1232.6,1654.9 -1233.1,1624.7 -1220.5,1624.6 -1220,1654.8 			"/>
			<g class="st24">
				<g>
					<defs>
						
							<rect id="SVGID_31_" x="-1239.2" y="1635.9" transform="matrix(9.019891e-03 -1 1 9.019891e-03 -2854.4067 399.2048)" width="26.8" height="7.7"/>
					</defs>
					<clipPath id="SVGID_32_">
						<use xlink:href="#SVGID_31_"  style="overflow:visible;"/>
					</clipPath>
					<path class="st50" d="M-1224,1652.7l-3.2,0c-0.9,0-1.7-0.8-1.7-1.9l-0.4-22.3c0-1,0.7-1.9,1.6-1.9l3.2,0c0.9,0,1.7,0.8,1.7,1.8
						l0.4,22.3C-1222.4,1651.9-1223.1,1652.7-1224,1652.7z"/>
					<path class="st51" d="M-1224.1,1649l-3.2,0c-0.9,0-1.7-0.8-1.7-1.9l-0.2-14.7c0-1,0.7-1.9,1.6-1.9l3.2,0c0.9,0,1.7,0.8,1.7,1.9
						l0.2,14.7C-1222.4,1648.1-1223.2,1649-1224.1,1649"/>
					<g class="st52">
						<g>
							<defs>
								
									<rect id="SVGID_33_" x="-1238.8" y="1638.3" transform="matrix(9.019891e-03 -1 1 9.019891e-03 -2854.4385 399.2103)" width="26" height="3"/>
							</defs>
							<clipPath id="SVGID_34_">
								<use xlink:href="#SVGID_33_"  style="overflow:visible;"/>
							</clipPath>
							<path class="st53" d="M-1224.4,1650c0-0.7-0.5-1.3-1.1-1.3c-0.6,0-1.1,0.6-1.1,1.3c0,0.5,0.2,0.9,0.6,1.1l-0.5,1.7l2.1-0.1
								l-0.7-1.5C-1224.7,1651-1224.4,1650.5-1224.4,1650"/>
							<path class="st53" d="M-1224.9,1629.5c0,0.7-0.5,1.3-1.1,1.3c-0.6,0-1.1-0.5-1.2-1.2c0-0.5,0.2-0.9,0.5-1.1l-0.5-1.7l2.1,0
								l-0.6,1.5C-1225.3,1628.5-1225,1628.9-1224.9,1629.5"/>
						</g>
					</g>
				</g>
			</g>
		</g>
		<g>
			<polygon class="st49" points="-1232.6,1698.6 -1233.1,1668.5 -1220.5,1668.4 -1220,1698.5 			"/>
			<g class="st24">
				<g>
					<defs>
						
							<rect id="SVGID_35_" x="-1239.2" y="1679.6" transform="matrix(9.019891e-03 -1 1 9.019891e-03 -2898.1582 442.5635)" width="26.8" height="7.7"/>
					</defs>
					<clipPath id="SVGID_36_">
						<use xlink:href="#SVGID_35_"  style="overflow:visible;"/>
					</clipPath>
					<path class="st54" d="M-1224,1696.5l-3.2,0c-0.9,0-1.7-0.8-1.7-1.9l-0.4-22.3c0-1,0.7-1.9,1.6-1.9l3.2,0c0.9,0,1.7,0.8,1.7,1.8
						l0.4,22.3C-1222.4,1695.6-1223.1,1696.5-1224,1696.5z"/>
					<path class="st55" d="M-1224.1,1692.7l-3.2,0c-0.9,0-1.7-0.8-1.7-1.9l-0.2-14.7c0-1,0.7-1.9,1.6-1.9l3.2,0
						c0.9,0,1.7,0.8,1.7,1.9l0.2,14.7C-1222.4,1691.9-1223.2,1692.7-1224.1,1692.7"/>
					<g class="st56">
						<g>
							<defs>
								
									<rect id="SVGID_37_" x="-1238.8" y="1682" transform="matrix(9.019891e-03 -1 1 9.019891e-03 -2898.1902 442.5691)" width="26" height="3"/>
							</defs>
							<clipPath id="SVGID_38_">
								<use xlink:href="#SVGID_37_"  style="overflow:visible;"/>
							</clipPath>
							<path class="st57" d="M-1224.4,1693.7c0-0.7-0.5-1.3-1.1-1.3c-0.6,0-1.1,0.6-1.1,1.3c0,0.5,0.2,0.9,0.6,1.1l-0.5,1.7l2.1-0.1
								l-0.7-1.5C-1224.7,1694.7-1224.4,1694.3-1224.4,1693.7"/>
							<path class="st57" d="M-1224.9,1673.2c0,0.7-0.5,1.3-1.1,1.3c-0.6,0-1.1-0.5-1.2-1.2c0-0.5,0.2-0.9,0.5-1.1l-0.5-1.7l2.1,0
								l-0.6,1.5C-1225.3,1672.2-1225,1672.7-1224.9,1673.2"/>
						</g>
					</g>
				</g>
			</g>
		</g>
		<g>
			<polygon class="st49" points="-1232.6,1750.4 -1233.1,1720.2 -1220.5,1720.1 -1220,1750.3 			"/>
			<g class="st24">
				<g>
					<defs>
						
							<rect id="SVGID_39_" x="-1239.2" y="1731.4" transform="matrix(9.019891e-03 -1 1 9.019891e-03 -2949.9172 493.8578)" width="26.8" height="7.7"/>
					</defs>
					<clipPath id="SVGID_40_">
						<use xlink:href="#SVGID_39_"  style="overflow:visible;"/>
					</clipPath>
					<path class="st58" d="M-1224,1748.2l-3.2,0c-0.9,0-1.7-0.8-1.7-1.9l-0.4-22.3c0-1,0.7-1.9,1.6-1.9l3.2,0c0.9,0,1.7,0.8,1.7,1.8
						l0.4,22.3C-1222.4,1747.4-1223.1,1748.2-1224,1748.2z"/>
					<path class="st59" d="M-1224.1,1744.5l-3.2,0c-0.9,0-1.7-0.8-1.7-1.9l-0.2-14.7c0-1,0.7-1.9,1.6-1.9l3.2,0
						c0.9,0,1.7,0.8,1.7,1.9l0.2,14.7C-1222.4,1743.6-1223.2,1744.5-1224.1,1744.5"/>
					<g class="st60">
						<g>
							<defs>
								
									<rect id="SVGID_41_" x="-1238.8" y="1733.8" transform="matrix(9.019891e-03 -1 1 9.019891e-03 -2949.9492 493.8633)" width="26" height="3"/>
							</defs>
							<clipPath id="SVGID_42_">
								<use xlink:href="#SVGID_41_"  style="overflow:visible;"/>
							</clipPath>
							<path class="st61" d="M-1224.4,1745.5c0-0.7-0.5-1.3-1.1-1.3c-0.6,0-1.1,0.6-1.1,1.3c0,0.5,0.2,0.9,0.6,1.1l-0.5,1.7l2.1-0.1
								l-0.7-1.5C-1224.7,1746.5-1224.4,1746-1224.4,1745.5"/>
							<path class="st61" d="M-1224.9,1725c0,0.7-0.5,1.3-1.1,1.3c-0.6,0-1.1-0.5-1.2-1.2c0-0.5,0.2-0.9,0.5-1.1l-0.5-1.7l2.1,0
								l-0.6,1.5C-1225.3,1724-1225,1724.5-1224.9,1725"/>
						</g>
					</g>
				</g>
			</g>
		</g>
	</g>
	<g>
		<path class="st6" d="M-1299.1,1889.3h-64.4c-1.9,0-3.4-1.5-3.4-3.4v-77.3c0-1.9,1.5-3.4,3.4-3.4h64.4c1.9,0,3.4,1.5,3.4,3.4v77.3
			C-1295.6,1887.7-1297.2,1889.3-1299.1,1889.3z"/>
		<g>
			<g>
				<ellipse class="st33" cx="-1331.7" cy="1845.6" rx="35.1" ry="35.6"/>
				<ellipse class="st6" cx="-1331.7" cy="1845.6" rx="29.9" ry="30.3"/>
			</g>
		</g>
		<g>
			<path class="st3" d="M-1340.8,1864.3l-0.3-2.9c1.6,0,3.2-0.3,4.4-1.4c1.4-1.3,1.7-2.9,0.6-4.1c-1.3-1.4-2.8-1.5-5.9,1.3l-1.8-2
				c2.6-2.3,2.6-4,1.4-5.2c-1-1.1-2.3-1.1-3.5,0c-1,0.9-1.4,2.1-1.5,3.7l-3-0.4c0.2-2.2,1-4,2.6-5.5c2.7-2.5,5.7-2.8,7.9-0.4
				c1.4,1.5,1.5,3.4,0.6,5.3l0.1,0.1c2-1,4.2-1,5.9,0.9c2.3,2.6,1.5,6.1-1.2,8.5C-1336.5,1864-1338.8,1864.5-1340.8,1864.3z"/>
			<path class="st3" d="M-1329.7,1854.1l-0.3-2.9c1.6,0,3.2-0.3,4.4-1.4c1.4-1.3,1.7-2.9,0.6-4.1c-1.3-1.4-2.8-1.5-5.9,1.3l-1.8-2
				c2.6-2.3,2.6-4,1.4-5.2c-1-1.1-2.3-1.1-3.5,0c-1,0.9-1.4,2.1-1.5,3.7l-3-0.4c0.2-2.2,1-4,2.6-5.5c2.7-2.5,5.7-2.8,7.9-0.4
				c1.4,1.5,1.5,3.4,0.6,5.3l0.1,0.1c2-1,4.2-1,5.9,0.9c2.3,2.6,1.5,6.1-1.2,8.5C-1325.5,1853.8-1327.7,1854.4-1329.7,1854.1z"/>
			<path class="st3" d="M-1318.1,1842.4l3-2.7l-8.1-8.8l-2.5,2.3l-1.6-1.7c1.1-1.5,1.8-2.8,2.2-4.1l2-1.9l10.7,11.6l2.6-2.4l2.1,2.2
				l-8.3,7.7L-1318.1,1842.4z"/>
		</g>
	</g>
	<g>
		<path class="st3" d="M-1015.5,1845.8l0.7,11.2c0.1,1.8-1.2,2.7-2.3,3.5c-0.1,0-0.1,0.1-0.2,0.2c-0.1,0.1-0.2,0.1-0.2,0.2l-7.5,5.7
			c-0.8,0.6-1.7,0.8-2.7,0.7c-1-0.1-1.8-0.6-2.4-1.4c-0.4-0.6-0.7-1.3-0.7-2c0-0.8,0.2-1.7,0.7-2.3l-13.9,0.8
			c-2,0.1-3.7-1.3-3.8-3.2c-0.1-1.9,1.4-3.5,3.4-3.7l5-0.3c-0.3-0.4-0.5-0.9-0.5-1.5c-0.1-1.1,0.5-2,1.4-2.7
			c-0.5-0.5-0.8-1.2-0.9-1.9c-0.1-1.3,0.7-2.4,2-3c-0.2-0.4-0.3-0.8-0.4-1.2c-0.1-1.8,1.4-3.3,3.4-3.4l10.9-0.6
			C-1019.7,1840.8-1015.6,1843.5-1015.5,1845.8 M-1029.4,1863.9c0,0.4,0.2,0.8,0.4,1.2c0.3,0.5,0.9,0.8,1.4,0.8
			c0.6,0.1,1.2-0.1,1.6-0.4l7.5-5.7c0.1,0,0.1-0.1,0.2-0.2c0.1-0.1,0.2-0.1,0.2-0.2l0,0c1.2-0.9,1.8-1.4,1.7-2.3l-0.7-11.2
			c-0.1-1.2-3.2-3.6-6.6-3.4l-10.9,0.6c-1.2,0.1-2.1,0.9-2.1,1.8c0,0.4,0.3,0.8,0.6,1.1l1.4,1.1l-1.7,0.2c-1.1,0.2-1.9,1-1.9,1.8
			c0,0.6,0.5,1.1,1.1,1.4l1.9,0.8l-2,0.6c-0.9,0.3-1.6,1-1.5,1.8c0,0.6,0.6,1.2,1.3,1.5l3.6,1.2l-10.7,0.6c-1.2,0.1-2.1,1-2.1,2.1
			c0.1,1.1,1.1,1.9,2.3,1.9l18.4-1.1l-2.7,2.1C-1029.2,1862.5-1029.5,1863.2-1029.4,1863.9"/>
		<g>
			<circle class="st62" cx="-1031.4" cy="1854.2" r="22.3"/>
			<line class="st62" x1="-1010" y1="1846.7" x2="-1051.3" y2="1861.7"/>
		</g>
	</g>
</g>
<g>
	<g>
		<g>
			<polygon class="st63" points="533.3,182.7 591.4,182.1 591.3,212.3 533.3,212.9 			"/>
			<g class="st24">
				<g>
					<defs>
						<polygon id="SVGID_43_" points="536.5,208 587.9,209 588.2,190.5 536.7,189.5 						"/>
					</defs>
					<clipPath id="SVGID_44_">
						<use xlink:href="#SVGID_43_"  style="overflow:visible;"/>
					</clipPath>
					<path class="st64" d="M537.3,203.3l0-7.6c0-2.2,1.6-4,3.6-4l42.9-0.5c2,0,3.6,1.7,3.6,3.9l0,7.6c0,2.2-1.6,4-3.6,4l-42.9,0.5
						C538.9,207.2,537.3,205.5,537.3,203.3z"/>
					<path class="st65" d="M544.6,203.2l0-7.6c0-2.2,1.6-4,3.6-4l28.3-0.3c2,0,3.6,1.7,3.6,3.9l0,7.6c0,2.2-1.6,4-3.6,4l-28.3,0.3
						C546.2,207.2,544.6,205.4,544.6,203.2"/>
					<g class="st66">
						<g>
							<defs>
								<polygon id="SVGID_45_" points="537.3,202.3 587.2,203.3 587.3,196.1 537.4,195.1 								"/>
							</defs>
							<clipPath id="SVGID_46_">
								<use xlink:href="#SVGID_45_"  style="overflow:visible;"/>
							</clipPath>
							<path class="st67" d="M542.6,202.4c1.3,0,2.4-1.2,2.5-2.7c0-1.5-1.1-2.7-2.4-2.7c-0.9,0-1.7,0.5-2.1,1.3l-3.2-1.1l0.1,5.1
								l2.9-1.6C540.7,201.7,541.6,202.4,542.6,202.4"/>
							<path class="st67" d="M582,201.5c-1.3,0-2.4-1.2-2.5-2.6c0-1.5,1.1-2.7,2.4-2.7c0.9,0,1.7,0.5,2.1,1.3l3.2-1.2l-0.1,5.1
								l-2.9-1.5C584,200.7,583.1,201.5,582,201.5"/>
						</g>
					</g>
				</g>
			</g>
		</g>
		<g>
			<polygon class="st63" points="534,141.4 592,141 591.9,171.2 533.9,171.6 			"/>
			<g class="st24">
				<g>
					<defs>
						<polygon id="SVGID_47_" points="537.1,166.7 588.5,167.9 588.9,149.4 537.4,148.2 						"/>
					</defs>
					<clipPath id="SVGID_48_">
						<use xlink:href="#SVGID_47_"  style="overflow:visible;"/>
					</clipPath>
					<path class="st68" d="M537.9,162l0-7.6c0-2.2,1.6-4,3.6-4l42.9-0.3c2,0,3.6,1.7,3.6,3.9l0,7.6c0,2.2-1.6,4-3.6,4l-42.9,0.3
						C539.5,166,537.9,164.2,537.9,162z"/>
					<path class="st69" d="M545.2,162l0-7.6c0-2.2,1.6-4,3.6-4l28.3-0.2c2,0,3.6,1.7,3.6,3.9l0,7.6c0,2.2-1.6,4-3.6,4l-28.3,0.2
						C546.8,165.9,545.2,164.2,545.2,162"/>
					<g class="st70">
						<g>
							<defs>
								<polygon id="SVGID_49_" points="537.9,161.1 587.9,162.2 588,155 538,153.9 								"/>
							</defs>
							<clipPath id="SVGID_50_">
								<use xlink:href="#SVGID_49_"  style="overflow:visible;"/>
							</clipPath>
							<path class="st71" d="M543.3,161.2c1.3,0,2.4-1.2,2.5-2.7c0-1.5-1.1-2.7-2.4-2.7c-0.9,0-1.7,0.5-2.1,1.3L538,156l0.1,5.1
								l2.9-1.6C541.3,160.5,542.2,161.2,543.3,161.2"/>
							<path class="st71" d="M582.7,160.3c-1.3,0-2.4-1.2-2.4-2.6c0-1.5,1.1-2.7,2.4-2.7c0.9,0,1.7,0.5,2.1,1.3l3.2-1.2l-0.1,5.1
								l-2.9-1.5C584.6,159.6,583.7,160.3,582.7,160.3"/>
						</g>
					</g>
				</g>
			</g>
		</g>
		<g>
			<polygon class="st63" points="532.7,223.9 590.7,223.3 590.7,253.5 532.7,254.1 			"/>
			<g class="st24">
				<g>
					<defs>
						<polygon id="SVGID_51_" points="535.8,249.2 587.3,250.3 587.6,231.7 536.1,230.7 						"/>
					</defs>
					<clipPath id="SVGID_52_">
						<use xlink:href="#SVGID_51_"  style="overflow:visible;"/>
					</clipPath>
					<path class="st72" d="M536.7,244.5l0-7.6c0-2.2,1.6-4,3.6-4l42.9-0.5c2,0,3.6,1.7,3.6,3.9l0,7.6c0,2.2-1.6,4-3.6,4l-42.9,0.5
						C538.3,248.4,536.7,246.7,536.7,244.5z"/>
					<path class="st73" d="M543.9,244.4l0-7.6c0-2.2,1.6-4,3.6-4l28.3-0.3c2,0,3.6,1.7,3.6,3.9l0,7.6c0,2.2-1.6,4-3.6,4l-28.3,0.3
						C545.5,248.4,543.9,246.6,543.9,244.4"/>
					<g class="st74">
						<g>
							<defs>
								<polygon id="SVGID_53_" points="536.6,243.5 586.6,244.5 586.7,237.3 536.7,236.3 								"/>
							</defs>
							<clipPath id="SVGID_54_">
								<use xlink:href="#SVGID_53_"  style="overflow:visible;"/>
							</clipPath>
							<path class="st75" d="M542,243.6c1.3,0,2.4-1.2,2.5-2.7c0-1.5-1.1-2.7-2.4-2.7c-0.9,0-1.7,0.5-2.1,1.3l-3.2-1.1l0.1,5.1
								l2.9-1.6C540.1,242.9,541,243.6,542,243.6"/>
							<path class="st75" d="M581.4,242.7c-1.3,0-2.4-1.2-2.5-2.6c0-1.5,1.1-2.7,2.4-2.7c0.9,0,1.7,0.5,2.1,1.3l3.2-1.2l-0.1,5.1
								l-2.9-1.5C583.3,241.9,582.4,242.7,581.4,242.7"/>
						</g>
					</g>
				</g>
			</g>
		</g>
	</g>
	<g>
		<polygon class="st76" points="286.2,140.7 354.9,139.8 354.9,175.6 286.2,176.5 		"/>
		<g class="st24">
			<g>
				<defs>
					<polygon id="SVGID_55_" points="289.9,170.7 350.9,171.8 351.2,149.8 290.2,148.7 					"/>
				</defs>
				<clipPath id="SVGID_56_">
					<use xlink:href="#SVGID_55_"  style="overflow:visible;"/>
				</clipPath>
				<path class="st77" d="M290.9,165.1l0-9c0-2.6,1.9-4.7,4.2-4.7l50.8-0.6c2.3,0,4.2,2,4.2,4.6l0,9c0,2.6-1.9,4.7-4.2,4.7
					l-50.8,0.6C292.8,169.8,290.9,167.7,290.9,165.1z"/>
				<path class="st78" d="M299.5,165l0-9c0-2.6,1.9-4.7,4.2-4.7l33.6-0.4c2.3,0,4.2,2,4.2,4.6l0,9c0,2.6-1.9,4.7-4.2,4.7l-33.6,0.4
					C301.4,169.6,299.5,167.6,299.5,165"/>
				<g class="st79">
					<g>
						<defs>
							<polygon id="SVGID_57_" points="290.9,163.9 350,165 350.1,156.5 291,155.4 							"/>
						</defs>
						<clipPath id="SVGID_58_">
							<use xlink:href="#SVGID_57_"  style="overflow:visible;"/>
						</clipPath>
						<path class="st80" d="M297.2,164c1.6,0,2.9-1.5,2.9-3.2c0-1.8-1.3-3.2-2.9-3.2c-1.1,0-2,0.7-2.5,1.6l-3.8-1.3l0.1,6l3.4-1.9
							C294.9,163.2,296,164.1,297.2,164"/>
						<path class="st80" d="M343.9,162.8c-1.6,0-2.9-1.4-2.9-3.1c0-1.8,1.3-3.2,2.9-3.3c1.1,0,2,0.6,2.5,1.5l3.8-1.5l-0.1,6
							l-3.5-1.8C346.1,161.9,345.1,162.8,343.9,162.8"/>
					</g>
				</g>
			</g>
		</g>
		<polygon class="st76" points="286.9,91.8 355.6,91.1 355.6,126.9 286.9,127.6 		"/>
		<g class="st24">
			<g>
				<defs>
					<polygon id="SVGID_59_" points="290.6,121.8 351.5,123 351.9,101.1 290.9,99.8 					"/>
				</defs>
				<clipPath id="SVGID_60_">
					<use xlink:href="#SVGID_59_"  style="overflow:visible;"/>
				</clipPath>
				<path class="st81" d="M291.6,116.2l0-9c0-2.6,1.9-4.7,4.3-4.7l50.8-0.5c2.3,0,4.2,2,4.2,4.6l0,9c0,2.6-1.9,4.7-4.3,4.7
					l-50.8,0.5C293.5,120.8,291.6,118.8,291.6,116.2z"/>
				<path class="st82" d="M300.2,116.1l0-9c0-2.6,1.9-4.7,4.3-4.7l33.6-0.3c2.3,0,4.2,2,4.2,4.6l0,9c0,2.6-1.9,4.7-4.3,4.7
					l-33.6,0.3C302.1,120.8,300.2,118.7,300.2,116.1"/>
				<g class="st83">
					<g>
						<defs>
							<polygon id="SVGID_61_" points="291.5,115 350.7,116.3 350.8,107.7 291.7,106.5 							"/>
						</defs>
						<clipPath id="SVGID_62_">
							<use xlink:href="#SVGID_61_"  style="overflow:visible;"/>
						</clipPath>
						<path class="st84" d="M297.9,115.2c1.6,0,2.9-1.5,2.9-3.2c0-1.8-1.3-3.2-2.9-3.2c-1.1,0-2,0.6-2.5,1.6l-3.8-1.3l0.1,6l3.4-1.9
							C295.6,114.3,296.7,115.2,297.9,115.2"/>
						<path class="st84" d="M344.6,114.1c-1.6,0-2.9-1.4-2.9-3.1c0-1.8,1.3-3.2,2.9-3.2c1.1,0,2,0.6,2.5,1.5l3.8-1.5l-0.1,6
							l-3.4-1.8C346.8,113.2,345.8,114,344.6,114.1"/>
					</g>
				</g>
			</g>
		</g>
		<polygon class="st76" points="285.5,189.5 354.2,188.7 354.2,224.4 285.6,225.3 		"/>
		<g class="st24">
			<g>
				<defs>
					<polygon id="SVGID_63_" points="289.2,219.5 350.2,220.6 350.5,198.6 289.5,197.5 					"/>
				</defs>
				<clipPath id="SVGID_64_">
					<use xlink:href="#SVGID_63_"  style="overflow:visible;"/>
				</clipPath>
				<path class="st85" d="M290.2,213.9l0-9c0-2.6,1.9-4.7,4.2-4.7l50.8-0.6c2.3,0,4.2,2,4.2,4.6l0,9c0,2.6-1.9,4.7-4.2,4.7
					l-50.8,0.6C292.1,218.6,290.2,216.5,290.2,213.9z"/>
				<path class="st86" d="M298.8,213.8l0-9c0-2.6,1.9-4.7,4.2-4.7l33.6-0.4c2.3,0,4.2,2,4.2,4.6l0,9c0,2.6-1.9,4.7-4.2,4.7
					l-33.6,0.4C300.7,218.5,298.8,216.4,298.8,213.8"/>
				<g class="st87">
					<g>
						<defs>
							<polygon id="SVGID_65_" points="290.2,212.8 349.3,213.8 349.5,205.3 290.3,204.2 							"/>
						</defs>
						<clipPath id="SVGID_66_">
							<use xlink:href="#SVGID_65_"  style="overflow:visible;"/>
						</clipPath>
						<path class="st88" d="M296.5,212.9c1.6,0,2.9-1.5,2.9-3.2c0-1.8-1.3-3.2-2.9-3.2c-1.1,0-2,0.7-2.5,1.6l-3.8-1.3l0.1,6l3.4-1.9
							C294.3,212.1,295.3,212.9,296.5,212.9"/>
						<path class="st88" d="M343.2,211.7c-1.6,0-2.9-1.4-2.9-3.1c0-1.8,1.3-3.2,2.9-3.3c1.1,0,2,0.6,2.5,1.5l3.8-1.5l-0.1,6
							l-3.5-1.8C345.5,210.8,344.4,211.6,343.2,211.7"/>
					</g>
				</g>
			</g>
		</g>
		<polygon class="st76" points="284.9,238.4 353.6,237.5 353.6,273.3 284.9,274.2 		"/>
		<g class="st24">
			<g>
				<defs>
					<polygon id="SVGID_67_" points="288.6,268.3 349.5,269.4 349.8,247.5 288.9,246.4 					"/>
				</defs>
				<clipPath id="SVGID_68_">
					<use xlink:href="#SVGID_67_"  style="overflow:visible;"/>
				</clipPath>
				<path class="st89" d="M289.6,262.8l0-9c0-2.6,1.9-4.7,4.2-4.7l50.8-0.6c2.3,0,4.2,2,4.2,4.6l0,9c0,2.6-1.9,4.7-4.2,4.7
					l-50.8,0.6C291.4,267.4,289.6,265.4,289.6,262.8z"/>
				<path class="st90" d="M298.2,262.7l0-9c0-2.6,1.9-4.7,4.2-4.7l33.6-0.4c2.3,0,4.2,2,4.2,4.6l0,9c0,2.6-1.9,4.7-4.2,4.7
					l-33.6,0.4C300,267.3,298.2,265.2,298.2,262.7"/>
				<g class="st91">
					<g>
						<defs>
							<polygon id="SVGID_69_" points="289.5,261.6 348.7,262.7 348.8,254.1 289.6,253.1 							"/>
						</defs>
						<clipPath id="SVGID_70_">
							<use xlink:href="#SVGID_69_"  style="overflow:visible;"/>
						</clipPath>
						<path class="st92" d="M295.9,261.7c1.6,0,2.9-1.5,2.9-3.2c0-1.8-1.3-3.2-2.9-3.2c-1.1,0-2,0.7-2.5,1.6l-3.8-1.3l0.1,6l3.4-1.9
							C293.6,260.9,294.6,261.7,295.9,261.7"/>
						<path class="st92" d="M342.5,260.5c-1.6,0-2.9-1.4-2.9-3.1c0-1.8,1.3-3.2,2.9-3.3c1.1,0,2,0.6,2.5,1.5l3.8-1.5l-0.1,6
							l-3.5-1.8C344.8,259.6,343.8,260.5,342.5,260.5"/>
					</g>
				</g>
			</g>
		</g>
		<polygon class="st76" points="284.2,287.2 352.9,286.3 352.9,322.1 284.2,323 		"/>
		<g class="st24">
			<g>
				<defs>
					<polygon id="SVGID_71_" points="287.9,317.2 348.8,318.3 349.1,296.3 288.2,295.2 					"/>
				</defs>
				<clipPath id="SVGID_72_">
					<use xlink:href="#SVGID_71_"  style="overflow:visible;"/>
				</clipPath>
				<path class="st93" d="M288.9,311.6l0-9c0-2.6,1.9-4.7,4.2-4.7l50.8-0.6c2.3,0,4.2,2,4.2,4.6l0,9c0,2.6-1.9,4.7-4.2,4.7
					l-50.8,0.6C290.8,316.3,288.9,314.2,288.9,311.6z"/>
				<path class="st94" d="M297.5,311.5l0-9c0-2.6,1.9-4.7,4.2-4.7l33.6-0.4c2.3,0,4.2,2,4.2,4.6l0,9c0,2.6-1.9,4.7-4.2,4.7
					l-33.6,0.4C299.4,316.1,297.5,314.1,297.5,311.5"/>
				<g class="st95">
					<g>
						<defs>
							<polygon id="SVGID_73_" points="288.8,310.4 348,311.5 348.1,303 288.9,301.9 							"/>
						</defs>
						<clipPath id="SVGID_74_">
							<use xlink:href="#SVGID_73_"  style="overflow:visible;"/>
						</clipPath>
						<path class="st96" d="M295.2,310.6c1.6,0,2.9-1.5,2.9-3.2c0-1.8-1.3-3.2-2.9-3.2c-1.1,0-2,0.7-2.5,1.6l-3.8-1.3l0.1,6l3.4-1.9
							C292.9,309.7,294,310.6,295.2,310.6"/>
						<path class="st96" d="M341.9,309.3c-1.6,0-2.9-1.4-2.9-3.1c0-1.8,1.3-3.2,2.9-3.3c1.1,0,2,0.6,2.5,1.5l3.8-1.5l-0.1,6
							l-3.5-1.8C344.1,308.4,343.1,309.3,341.9,309.3"/>
					</g>
				</g>
			</g>
		</g>
	</g>
	<g>
		<g class="st10">
			<g>
				<defs>
					<rect id="SVGID_75_" x="410.1" y="167.1" width="71.4" height="140.1"/>
				</defs>
				<clipPath id="SVGID_76_">
					<use xlink:href="#SVGID_75_"  style="overflow:visible;"/>
				</clipPath>
				<path class="st97" d="M469.5,307.2H422c-6.6,0-11.9-8.5-11.9-18.9V185.9c0-10.4,5.3-18.9,11.9-18.9h47.6
					c6.6,0,11.9,8.5,11.9,18.9v102.4C481.4,298.7,476.1,307.2,469.5,307.2"/>
			</g>
		</g>
		<path class="st98" d="M469.5,307.2H422c-6.6,0-11.9-8.5-11.9-18.9V185.9c0-10.4,5.3-18.9,11.9-18.9h47.6c6.6,0,11.9,8.5,11.9,18.9
			v102.4C481.4,298.7,476.1,307.2,469.5,307.2z"/>
		<path class="st3" d="M482.1,187.7h10.2c0.4,0,0.7,0.4,0.7,1v1c0,0.5,0.3,1,0.7,1h16.4c0.4,0,0.7,0.4,0.7,1v5.7c0,0.5-0.3,1-0.7,1
			h-16.8c-0.4,0-0.7-0.4-0.7-0.9c0-0.5-0.3-0.9-0.7-0.9l-9.8,0c-0.4,0-0.7-0.4-0.7-1v-6.9C481.4,188.1,481.8,187.7,482.1,187.7"/>
		<path class="st3" d="M482.1,218.2h10.2c0.4,0,0.7,0.4,0.7,1v1c0,0.5,0.3,1,0.7,1h16.4c0.4,0,0.7,0.4,0.7,1v5.7c0,0.5-0.3,1-0.7,1
			h-16.8c-0.4,0-0.7-0.4-0.7-0.9c0-0.5-0.3-0.9-0.7-0.9l-9.8,0c-0.4,0-0.7-0.4-0.7-1v-6.9C481.4,218.7,481.8,218.2,482.1,218.2"/>
		<path class="st3" d="M482.1,248.8h10.2c0.4,0,0.7,0.4,0.7,1v1c0,0.5,0.3,1,0.7,1h16.4c0.4,0,0.7,0.4,0.7,1v5.7c0,0.5-0.3,1-0.7,1
			h-16.8c-0.4,0-0.7-0.4-0.7-0.9c0-0.5-0.3-0.9-0.7-0.9l-9.8,0c-0.4,0-0.7-0.4-0.7-1v-6.9C481.4,249.2,481.8,248.8,482.1,248.8"/>
		<path class="st3" d="M482.1,279.3h10.2c0.4,0,0.7,0.4,0.7,1v1c0,0.5,0.3,1,0.7,1h16.4c0.4,0,0.7,0.4,0.7,1v5.7c0,0.5-0.3,1-0.7,1
			h-16.8c-0.4,0-0.7-0.4-0.7-0.9c0-0.5-0.3-0.9-0.7-0.9l-9.8,0c-0.4,0-0.7-0.4-0.7-1v-6.9C481.4,279.7,481.8,279.3,482.1,279.3"/>
		<path class="st3" d="M409.3,187.7h-10.2c-0.4,0-0.7,0.4-0.7,1v1c0,0.5-0.3,1-0.7,1h-16.4c-0.4,0-0.7,0.4-0.7,1v5.7
			c0,0.5,0.3,1,0.7,1h16.8c0.4,0,0.7-0.4,0.7-0.9c0-0.5,0.3-0.9,0.7-0.9l9.8,0c0.4,0,0.7-0.4,0.7-1v-6.9
			C410,188.1,409.7,187.7,409.3,187.7"/>
		<path class="st3" d="M409.3,218.2h-10.2c-0.4,0-0.7,0.4-0.7,1v1c0,0.5-0.3,1-0.7,1h-16.4c-0.4,0-0.7,0.4-0.7,1v5.7
			c0,0.5,0.3,1,0.7,1h16.8c0.4,0,0.7-0.4,0.7-0.9c0-0.5,0.3-0.9,0.7-0.9l9.8,0c0.4,0,0.7-0.4,0.7-1v-6.9
			C410,218.7,409.7,218.2,409.3,218.2"/>
		<path class="st3" d="M409.3,248.8h-10.2c-0.4,0-0.7,0.4-0.7,1v1c0,0.5-0.3,1-0.7,1h-16.4c-0.4,0-0.7,0.4-0.7,1v5.7
			c0,0.5,0.3,1,0.7,1h16.8c0.4,0,0.7-0.4,0.7-0.9c0-0.5,0.3-0.9,0.7-0.9l9.8,0c0.4,0,0.7-0.4,0.7-1v-6.9
			C410,249.2,409.7,248.8,409.3,248.8"/>
		<path class="st3" d="M409.3,279.3h-10.2c-0.4,0-0.7,0.4-0.7,1v1c0,0.5-0.3,1-0.7,1h-16.4c-0.4,0-0.7,0.4-0.7,1v5.7
			c0,0.5,0.3,1,0.7,1h16.8c0.4,0,0.7-0.4,0.7-0.9c0-0.5,0.3-0.9,0.7-0.9l9.8,0c0.4,0,0.7-0.4,0.7-1v-6.9
			C410,279.7,409.7,279.3,409.3,279.3"/>
	</g>
	<g>
		<polygon class="st99" points="412.4,119.8 482,119.6 481.8,153.7 412.2,153.9 		"/>
		<g class="st24">
			<g>
				<defs>
					<polygon id="SVGID_77_" points="416,148.4 477.7,150 478.2,129.1 416.4,127.5 					"/>
				</defs>
				<clipPath id="SVGID_78_">
					<use xlink:href="#SVGID_77_"  style="overflow:visible;"/>
				</clipPath>
				<path class="st100" d="M417,143.1l0.1-8.5c0-2.5,2-4.5,4.3-4.5l51.4-0.1c2.4,0,4.3,2,4.3,4.4l-0.1,8.5c0,2.5-2,4.5-4.3,4.5
					l-51.4,0.1C418.9,147.5,417,145.5,417,143.1z"/>
				<path class="st101" d="M425.7,143.1l0.1-8.5c0-2.5,2-4.5,4.3-4.5l34-0.1c2.4,0,4.3,2,4.3,4.4l-0.1,8.5c0,2.5-2,4.5-4.3,4.5
					l-34,0.1C427.6,147.5,425.7,145.5,425.7,143.1"/>
				<g class="st102">
					<g>
						<defs>
							<polygon id="SVGID_79_" points="417,142 476.9,143.6 477.1,135.4 417.1,133.8 							"/>
						</defs>
						<clipPath id="SVGID_80_">
							<use xlink:href="#SVGID_79_"  style="overflow:visible;"/>
						</clipPath>
						<path class="st103" d="M423.4,142.1c1.6,0,2.9-1.4,3-3c0-1.7-1.3-3-2.9-3c-1.1,0-2,0.6-2.5,1.5l-3.9-1.3l0.1,5.7l3.5-1.8
							C421.1,141.3,422.2,142.1,423.4,142.1"/>
						<path class="st103" d="M470.7,141.4c-1.6,0-2.9-1.3-2.9-3c0-1.7,1.3-3.1,2.9-3.1c1.1,0,2,0.6,2.5,1.5l3.9-1.4l-0.2,5.7
							l-3.5-1.7C473,140.6,472,141.4,470.7,141.4"/>
					</g>
				</g>
			</g>
		</g>
	</g>
	<g>
		<g>
			<g class="st10">
				<g>
					<defs>
						<rect id="SVGID_81_" x="160.7" y="169.6" width="71.4" height="140.1"/>
					</defs>
					<clipPath id="SVGID_82_">
						<use xlink:href="#SVGID_81_"  style="overflow:visible;"/>
					</clipPath>
					<path class="st104" d="M220.2,309.7h-47.6c-6.6,0-11.9-8.5-11.9-18.9V188.5c0-10.4,5.3-18.9,11.9-18.9h47.6
						c6.6,0,11.9,8.5,11.9,18.9v102.4C232.1,301.3,226.7,309.7,220.2,309.7"/>
				</g>
			</g>
			<path class="st98" d="M220.2,309.7h-47.6c-6.6,0-11.9-8.5-11.9-18.9V188.5c0-10.4,5.3-18.9,11.9-18.9h47.6
				c6.6,0,11.9,8.5,11.9,18.9v102.4C232.1,301.3,226.7,309.7,220.2,309.7z"/>
			<path class="st3" d="M232.8,190.2H243c0.4,0,0.7,0.4,0.7,1v1c0,0.5,0.3,1,0.7,1h16.4c0.4,0,0.7,0.4,0.7,1v5.7c0,0.5-0.3,1-0.7,1
				H244c-0.4,0-0.7-0.4-0.7-0.9c0-0.5-0.3-0.9-0.7-0.9l-9.8,0c-0.4,0-0.7-0.4-0.7-1v-6.9C232.1,190.7,232.4,190.2,232.8,190.2"/>
			<path class="st3" d="M232.8,220.8H243c0.4,0,0.7,0.4,0.7,1v1c0,0.5,0.3,1,0.7,1h16.4c0.4,0,0.7,0.4,0.7,1v5.7c0,0.5-0.3,1-0.7,1
				H244c-0.4,0-0.7-0.4-0.7-0.9c0-0.5-0.3-0.9-0.7-0.9l-9.8,0c-0.4,0-0.7-0.4-0.7-1v-6.9C232.1,221.2,232.4,220.8,232.8,220.8"/>
			<path class="st3" d="M232.8,251.3H243c0.4,0,0.7,0.4,0.7,1v1c0,0.5,0.3,1,0.7,1h16.4c0.4,0,0.7,0.4,0.7,1v5.7c0,0.5-0.3,1-0.7,1
				H244c-0.4,0-0.7-0.4-0.7-0.9c0-0.5-0.3-0.9-0.7-0.9l-9.8,0c-0.4,0-0.7-0.4-0.7-1v-6.9C232.1,251.7,232.4,251.3,232.8,251.3"/>
			<path class="st3" d="M232.8,281.8H243c0.4,0,0.7,0.4,0.7,1v1c0,0.5,0.3,1,0.7,1h16.4c0.4,0,0.7,0.4,0.7,1v5.7c0,0.5-0.3,1-0.7,1
				H244c-0.4,0-0.7-0.4-0.7-0.9c0-0.5-0.3-0.9-0.7-0.9l-9.8,0c-0.4,0-0.7-0.4-0.7-1v-6.9C232.1,282.3,232.4,281.8,232.8,281.8"/>
			<path class="st3" d="M160,190.2h-10.2c-0.4,0-0.7,0.4-0.7,1v1c0,0.5-0.3,1-0.7,1H132c-0.4,0-0.7,0.4-0.7,1v5.7c0,0.5,0.3,1,0.7,1
				h16.8c0.4,0,0.7-0.4,0.7-0.9c0-0.5,0.3-0.9,0.7-0.9l9.8,0c0.4,0,0.7-0.4,0.7-1v-6.9C160.7,190.7,160.3,190.2,160,190.2"/>
			<path class="st3" d="M160,220.8h-10.2c-0.4,0-0.7,0.4-0.7,1v1c0,0.5-0.3,1-0.7,1H132c-0.4,0-0.7,0.4-0.7,1v5.7c0,0.5,0.3,1,0.7,1
				h16.8c0.4,0,0.7-0.4,0.7-0.9c0-0.5,0.3-0.9,0.7-0.9l9.8,0c0.4,0,0.7-0.4,0.7-1v-6.9C160.7,221.2,160.3,220.8,160,220.8"/>
			<path class="st3" d="M160,251.3h-10.2c-0.4,0-0.7,0.4-0.7,1v1c0,0.5-0.3,1-0.7,1H132c-0.4,0-0.7,0.4-0.7,1v5.7c0,0.5,0.3,1,0.7,1
				h16.8c0.4,0,0.7-0.4,0.7-0.9c0-0.5,0.3-0.9,0.7-0.9l9.8,0c0.4,0,0.7-0.4,0.7-1v-6.9C160.7,251.7,160.3,251.3,160,251.3"/>
			<path class="st3" d="M160,281.8h-10.2c-0.4,0-0.7,0.4-0.7,1v1c0,0.5-0.3,1-0.7,1H132c-0.4,0-0.7,0.4-0.7,1v5.7c0,0.5,0.3,1,0.7,1
				h16.8c0.4,0,0.7-0.4,0.7-0.9c0-0.5,0.3-0.9,0.7-0.9l9.8,0c0.4,0,0.7-0.4,0.7-1v-6.9C160.7,282.3,160.3,281.8,160,281.8"/>
		</g>
		<g>
			<polygon class="st105" points="170.3,326.4 222.1,325.1 222.4,350.4 170.6,351.8 			"/>
			<g class="st24">
				<g>
					<defs>
						
							<rect id="SVGID_83_" x="188.6" y="316.9" transform="matrix(2.597383e-03 -1 1 2.597383e-03 -144.0291 535.3898)" width="15.6" height="46"/>
					</defs>
					<clipPath id="SVGID_84_">
						<use xlink:href="#SVGID_83_"  style="overflow:visible;"/>
					</clipPath>
					<path class="st106" d="M174.1,343.7l-0.1-6.4c0-1.8,1.4-3.4,3.2-3.4l38.3-1c1.8,0,3.2,1.4,3.2,3.2l0.1,6.4
						c0,1.8-1.4,3.4-3.2,3.4l-38.3,1C175.5,346.9,174.1,345.5,174.1,343.7z"/>
					<path class="st107" d="M180.6,343.5l-0.1-6.4c0-1.8,1.4-3.4,3.2-3.4l25.3-0.7c1.8,0,3.2,1.4,3.2,3.2l0.1,6.4
						c0,1.8-1.4,3.4-3.2,3.4l-25.3,0.7C182,346.8,180.6,345.3,180.6,343.5"/>
					<g class="st108">
						<g>
							<defs>
								
									<rect id="SVGID_85_" x="193.3" y="317.5" transform="matrix(2.597383e-03 -1 1 2.597383e-03 -144.0358 535.3314)" width="6.1" height="44.7"/>
							</defs>
							<clipPath id="SVGID_86_">
								<use xlink:href="#SVGID_85_"  style="overflow:visible;"/>
							</clipPath>
							<path class="st109" d="M178.8,342.8c1.2,0,2.2-1.1,2.2-2.3c0-1.2-1-2.2-2.2-2.2c-0.8,0-1.5,0.5-1.9,1.2l-2.9-0.9l0.2,4.3
								l2.6-1.4C177.1,342.3,177.9,342.9,178.8,342.8"/>
							<path class="st109" d="M214,341.5c-1.2,0-2.2-0.9-2.2-2.2c0-1.2,0.9-2.3,2.1-2.3c0.8,0,1.5,0.4,1.9,1l2.9-1.1l0,4.3L216,340
								C215.7,340.8,214.9,341.4,214,341.5"/>
						</g>
					</g>
				</g>
			</g>
		</g>
		<g>
			<g>
				<path class="st110" d="M208.9,126.7h-24.2c-2.7,0-4.9-2.2-4.9-4.9V67.2c0-2.7,2.2-4.9,4.9-4.9h24.2c2.7,0,4.9,2.2,4.9,4.9v54.6
					C213.9,124.5,211.7,126.7,208.9,126.7z"/>
				<g>
					<path class="st6" d="M211.1,105.6h-29.6c-1.5,0-2.8-1.2-2.8-2.8V79.7c0-1.5,1.2-2.8,2.8-2.8h29.6c1.5,0,2.8,1.2,2.8,2.8v23.1
						C213.9,104.4,212.6,105.6,211.1,105.6z"/>
					<path class="st3" d="M202.7,76.7H191c-6.2,0-11.2,5.9-11.2,13.2v2.5c0,7.3,5,13.2,11.2,13.2h11.7c6.2,0,11.2-5.9,11.2-13.2
						v-2.5C213.9,82.6,208.9,76.7,202.7,76.7z M204.6,94.2c1.4,1.7,1.4,4.4,0,6.1c-1.4,1.7-3.8,1.7-5.2,0l-2.6-3.1l-2.6,3.1
						c-1.4,1.7-3.8,1.7-5.2,0c-1.4-1.7-1.4-4.4,0-6.1l2.6-3.1l-2.6-3.1c-1.4-1.7-1.4-4.4,0-6.1c1.4-1.7,3.8-1.7,5.2,0l2.6,3.1
						l2.6-3.1c1.4-1.7,3.8-1.7,5.2,0c1.4,1.7,1.4,4.4,0,6.1l-2.6,3.1L204.6,94.2z"/>
				</g>
			</g>
			<g>
				<polygon class="st111" points="179.8,135.4 214,134.9 214,153.8 179.8,154.3 				"/>
				<g class="st24">
					<g>
						<defs>
							<polygon id="SVGID_87_" points="181.6,151.2 212,151.8 212.1,140.2 181.8,139.6 							"/>
						</defs>
						<clipPath id="SVGID_88_">
							<use xlink:href="#SVGID_87_"  style="overflow:visible;"/>
						</clipPath>
						<path class="st112" d="M182.1,148.3l0-4.7c0-1.4,1-2.5,2.1-2.5l25.2-0.3c1.2,0,2.1,1.1,2.1,2.4l0,4.7c0,1.4-1,2.5-2.1,2.5
							l-25.3,0.3C183.1,150.7,182.1,149.6,182.1,148.3z"/>
						<path class="st113" d="M186.4,148.2l0-4.7c0-1.4,1-2.5,2.1-2.5l16.7-0.2c1.2,0,2.1,1.1,2.1,2.4l0,4.7c0,1.4-1,2.5-2.1,2.5
							l-16.7,0.2C187.4,150.7,186.4,149.6,186.4,148.2"/>
						<g class="st114">
							<g>
								<defs>
									<polygon id="SVGID_89_" points="182.1,147.6 211.6,148.2 211.6,143.7 182.2,143.1 									"/>
								</defs>
								<clipPath id="SVGID_90_">
									<use xlink:href="#SVGID_89_"  style="overflow:visible;"/>
								</clipPath>
								<path class="st115" d="M185.3,147.7c0.8,0,1.4-0.8,1.4-1.7c0-0.9-0.6-1.7-1.4-1.7c-0.5,0-1,0.3-1.2,0.8l-1.9-0.7l0.1,3.2
									l1.7-1C184.2,147.3,184.7,147.7,185.3,147.7"/>
								<path class="st115" d="M208.5,147.1c-0.8,0-1.4-0.7-1.4-1.6c0-0.9,0.6-1.7,1.4-1.7c0.5,0,1,0.3,1.2,0.8l1.9-0.8l-0.1,3.2
									l-1.7-0.9C209.6,146.6,209.1,147.1,208.5,147.1"/>
							</g>
						</g>
					</g>
				</g>
			</g>
		</g>
	</g>
	<g>
		<g>
			<path class="st116" d="M102,259.5l-15.3-0.1L86.7,274c0,4.2-2.7,7.5-6.1,7.5l-55.7-0.3c-3.3,0-6-3.4-6-7.6l0.7-146.2
				c0-4.2,2.7-7.5,6.1-7.5l55.7,0.3c3.3,0,6,3.4,6,7.6l-0.1,14.5l15.3,0.1c3.3,0,6,3.4,6,7.6l-0.5,102.1
				C108.1,256.2,105.4,259.6,102,259.5z"/>
			<path class="st117" d="M57.8,243.9l-7.2,0c-1.7,0-3,1.4-3.1,3.3l0,9.9c0,1.8,1.3,3.3,3,3.3l7.2,0c1.7,0,3-1.4,3.1-3.3l0-9.9
				C60.8,245.4,59.5,243.9,57.8,243.9z"/>
			<path class="st117" d="M57.9,209.6l-7.2,0c-1.7,0-3,1.4-3.1,3.3l0,9.9c0,1.8,1.3,3.3,3,3.3l7.2,0c1.7,0,3-1.4,3.1-3.3l0-9.9
				C61,211.1,59.6,209.6,57.9,209.6z"/>
			<path class="st117" d="M58.1,175.3l-7.2,0c-1.7,0-3,1.4-3.1,3.3l0,9.9c0,1.8,1.3,3.3,3,3.3l7.2,0c1.7,0,3-1.4,3.1-3.3l0-9.9
				C61.1,176.8,59.8,175.3,58.1,175.3z"/>
			<path class="st117" d="M58.3,141l-7.2,0c-1.7,0-3,1.4-3.1,3.3l0,9.9c0,1.8,1.3,3.3,3,3.3l7.2,0c1.7,0,3-1.4,3.1-3.3l0-9.9
				C61.3,142.5,59.9,141.1,58.3,141z"/>
		</g>
	</g>
	<g>
		<path class="st21" d="M616.9,164.3l7.7,0l0.1-13l47.2,0.3c4.1,0,7.4,3.6,7.4,7.9l-0.4,71.2c0,4.4-3.4,7.9-7.5,7.8l-47.2-0.3
			l0.1-13l-7.7,0c-4.4,0-7.9-3.8-7.8-8.4l0.2-44.3C609,168,612.6,164.3,616.9,164.3z"/>
		<g>
			<path class="st22" d="M657.9,188.6l-8.6,0c-0.7,0-1.3-0.6-1.3-1.3l0-9.3c0-0.7,0.6-1.3,1.3-1.3l8.6,0c0.7,0,1.3,0.6,1.3,1.3
				l0,9.3C659.2,188,658.6,188.6,657.9,188.6z"/>
			<path class="st22" d="M657.8,213.3l-8.6,0c-0.7,0-1.3-0.6-1.3-1.3l0-9.3c0-0.7,0.6-1.3,1.3-1.3l8.6,0c0.7,0,1.3,0.6,1.3,1.3
				l0,9.3C659.1,212.7,658.5,213.3,657.8,213.3z"/>
		</g>
	</g>
	<path class="st118" d="M659.1,182.6c0,0,53.4,18.8,66.3-21.6c7.3-22.8-3.8-48-24-55.6c-13.4-5.1-32-8-55.8-7.6"/>
	<path class="st118" d="M657.4,209.8c0,0,53.4,18.8,66.3-21.6c7.3-22.8-3.8-48-24-55.6c-13.4-5.1-32-8-55.8-7.6"/>
	<path class="st3" d="M645.1,91.5h-63.9c-4.7,0-8.5,4.4-8.5,9.8v19.6c0,5.4,3.8,9.8,8.5,9.8h63.9c4.7,0,8.5-4.4,8.5-9.8v-19.6
		C653.6,95.9,649.8,91.5,645.1,91.5z M647.6,125.7c0,0.6-0.4,1-0.9,1h-67.2c-0.5,0-0.9-0.5-0.9-1v-1.8c0-0.6,0.4-1,0.9-1h67.2
		c0.5,0,0.9,0.5,0.9,1V125.7z M647.6,98.2c0,0.6-0.4,1-0.9,1h-67.2c-0.5,0-0.9-0.5-0.9-1v-1.8c0-0.6,0.4-1,0.9-1h67.2
		c0.5,0,0.9,0.5,0.9,1V98.2z"/>
	<path class="st0" d="M681,372.2H55.5c-22.6,0-40.9-18.3-40.9-40.9V69.6c0-22.6,18.3-40.9,40.9-40.9H681c22.6,0,40.9,18.3,40.9,40.9
		v261.7C721.8,353.9,703.5,372.2,681,372.2z"/>
</g>
</svg>
