<?xml version="1.0" encoding="utf-8"?>
<!-- Generator: Adobe Illustrator 22.0.0, SVG Export Plug-In . SVG Version: 6.00 Build 0)  -->
<svg version="1.1" id="图层_1" xmlns="http://www.w3.org/2000/svg" xmlns:xlink="http://www.w3.org/1999/xlink" x="0px" y="0px"
	 viewBox="0 0 480 400" style="enable-background:new 0 0 480 400;" xml:space="preserve">
<style type="text/css">
	.st0{opacity:0.4;fill:#FFFFFF;}
	.st1{fill:#FFFFFF;}
	.st2{font-family:'SourceHanSansCN-Bold-GBpc-EUC-H';}
	.st3{font-size:16.9154px;}
	.st4{fill:none;stroke:#FFFFFF;stroke-width:18.563;stroke-miterlimit:10;}
	.st5{opacity:0.6;fill:#FFFFFF;}
	.st6{fill:none;stroke:#FFFFFF;stroke-width:3.696;stroke-miterlimit:10;}
	.st7{fill:none;stroke:#FFFFFF;stroke-width:2.0531;stroke-miterlimit:10;}
	.st8{opacity:0.8;}
	.st9{fill:none;stroke:#FFFFFF;stroke-width:0.6095;stroke-miterlimit:10;}
</style>
<g>
	<g>
		<g>
			<path class="st0" d="M177.7,281.7h-29.3c-1.5,0-2.7,1.2-2.7,2.7v29.3c0,1.5,1.2,2.7,2.7,2.7h29.3c1.5,0,2.7-1.2,2.7-2.7v-29.3
				C180.4,282.9,179.2,281.7,177.7,281.7z M163,312.8c-7.6,0-13.8-6.2-13.8-13.8c0-7.6,6.2-13.8,13.8-13.8s13.8,6.2,13.8,13.8
				C176.9,306.6,170.7,312.8,163,312.8z"/>
			<path class="st1" d="M163,285.2c-7.6,0-13.8,6.2-13.8,13.8c0,7.6,6.2,13.8,13.8,13.8s13.8-6.2,13.8-13.8
				C176.9,291.4,170.7,285.2,163,285.2z M167.7,301.2H163v-10h4.7V301.2z"/>
		</g>
		<g>
			<path class="st0" d="M298,284.4v29.3c0,1.5,1.2,2.7,2.7,2.7H330c1.5,0,2.7-1.2,2.7-2.7v-29.3c0-1.5-1.2-2.7-2.7-2.7h-29.3
				C299.2,281.7,298,282.9,298,284.4z M301.5,299c0-7.6,6.2-13.8,13.8-13.8s13.8,6.2,13.8,13.8c0,7.6-6.2,13.8-13.8,13.8
				S301.5,306.6,301.5,299z"/>
			<path class="st1" d="M301.5,299c0,7.6,6.2,13.8,13.8,13.8s13.8-6.2,13.8-13.8c0-7.6-6.2-13.8-13.8-13.8S301.5,291.4,301.5,299z
				 M310.6,291.2h4.7v10h-4.7V291.2z"/>
		</g>
		<g>
			<path class="st0" d="M57.9,255.9H32c-3.9,0-7-3.1-7-7v-75.7c0-3.9,3.1-7,7-7h26c3.9,0,7,3.1,7,7v75.7
				C64.9,252.7,61.8,255.9,57.9,255.9z"/>
			<g>
				<path class="st1" d="M51.1,188.8H38.8c-2.8,0-5.1-2.3-5.1-5.1v-3c0-2.8,2.3-5.1,5.1-5.1h12.2c2.8,0,5.1,2.3,5.1,5.1v3
					C56.2,186.5,53.9,188.8,51.1,188.8z"/>
				<path class="st1" d="M48.6,231h-7.3c-3.6,0-6.6-2.9-6.6-6.6v-26.7c0-3.6,2.9-6.6,6.6-6.6h7.3c3.6,0,6.6,2.9,6.6,6.6v26.7
					C55.2,228,52.2,231,48.6,231z"/>
				<path class="st1" d="M51.1,246.6H38.8c-2.8,0-5.1-2.3-5.1-5.1v-3c0-2.8,2.3-5.1,5.1-5.1h12.2c2.8,0,5.1,2.3,5.1,5.1v3
					C56.2,244.3,53.9,246.6,51.1,246.6z"/>
			</g>
		</g>
		<g>
			<g>
				<path class="st0" d="M152.3,255.9h-70c-4.6,0-8.3-3.7-8.3-8.3v-70c0-4.6,3.7-8.3,8.3-8.3h70c4.6,0,8.3,3.7,8.3,8.3v70
					C160.6,252.2,156.9,255.9,152.3,255.9z"/>
				<g>
					<g>
						<path class="st0" d="M108.1,234H95c-0.9,0-1.6-0.7-1.6-1.6v-39.9c0-0.9,0.7-1.6,1.6-1.6h13.1c0.9,0,1.6,0.7,1.6,1.6v39.9
							C109.7,233.3,109,234,108.1,234z"/>
						<path class="st1" d="M107.1,208H96c-0.8,0-1.5-0.7-1.5-1.5v-11.2c0-0.8,0.7-1.5,1.5-1.5h11.2c0.8,0,1.5,0.7,1.5,1.5v11.2
							C108.6,207.3,107.9,208,107.1,208z"/>
						<path class="st1" d="M107.6,230.5H96.4c-0.8,0-1.5-0.7-1.5-1.5v-11.2c0-0.8,0.7-1.5,1.5-1.5h11.2c0.8,0,1.5,0.7,1.5,1.5V229
							C109,229.9,108.4,230.5,107.6,230.5z"/>
					</g>
					<g>
						<path class="st0" d="M139.5,234h-13.1c-0.9,0-1.6-0.7-1.6-1.6v-39.9c0-0.9,0.7-1.6,1.6-1.6h13.1c0.9,0,1.6,0.7,1.6,1.6v39.9
							C141,233.3,140.3,234,139.5,234z"/>
						<path class="st1" d="M138.5,208h-11.2c-0.8,0-1.5-0.7-1.5-1.5v-11.2c0-0.8,0.7-1.5,1.5-1.5h11.2c0.8,0,1.5,0.7,1.5,1.5v11.2
							C140,207.3,139.3,208,138.5,208z"/>
						<path class="st1" d="M138.9,230.5h-11.2c-0.8,0-1.5-0.7-1.5-1.5v-11.2c0-0.8,0.7-1.5,1.5-1.5h11.2c0.8,0,1.5,0.7,1.5,1.5V229
							C140.4,229.9,139.7,230.5,138.9,230.5z"/>
					</g>
				</g>
			</g>
			<text transform="matrix(1 0 0 1 128.8667 186.0554)" class="st1 st2 st3">1</text>
			<text transform="matrix(1 0 0 1 97.6201 186.5251)" class="st1 st2 st3">2</text>
			<text transform="matrix(1 0 0 1 104.022 252.5417)" class="st1 st2 st3">NO</text>
		</g>
		<g>
			<path class="st0" d="M420.4,255.9h26c3.9,0,7-3.1,7-7v-75.7c0-3.9-3.1-7-7-7h-26c-3.9,0-7,3.1-7,7v75.7
				C413.4,252.7,416.6,255.9,420.4,255.9z"/>
			<g>
				<path class="st1" d="M427.3,188.8h12.2c2.8,0,5.1-2.3,5.1-5.1v-3c0-2.8-2.3-5.1-5.1-5.1h-12.2c-2.8,0-5.1,2.3-5.1,5.1v3
					C422.2,186.5,424.5,188.8,427.3,188.8z"/>
				<path class="st1" d="M429.7,231h7.3c3.6,0,6.6-2.9,6.6-6.6v-26.7c0-3.6-2.9-6.6-6.6-6.6h-7.3c-3.6,0-6.6,2.9-6.6,6.6v26.7
					C423.2,228,426.1,231,429.7,231z"/>
				<path class="st1" d="M427.3,246.6h12.2c2.8,0,5.1-2.3,5.1-5.1v-3c0-2.8-2.3-5.1-5.1-5.1h-12.2c-2.8,0-5.1,2.3-5.1,5.1v3
					C422.2,244.3,424.5,246.6,427.3,246.6z"/>
			</g>
		</g>
		<g>
			<g>
				<path class="st0" d="M326.1,255.9h70c4.6,0,8.3-3.7,8.3-8.3v-70c0-4.6-3.7-8.3-8.3-8.3h-70c-4.6,0-8.3,3.7-8.3,8.3v70
					C317.8,252.2,321.5,255.9,326.1,255.9z"/>
				<g>
					<g>
						<path class="st0" d="M370.3,234h13.1c0.9,0,1.6-0.7,1.6-1.6v-39.9c0-0.9-0.7-1.6-1.6-1.6h-13.1c-0.9,0-1.6,0.7-1.6,1.6v39.9
							C368.7,233.3,369.4,234,370.3,234z"/>
						<path class="st1" d="M371.2,208h11.2c0.8,0,1.5-0.7,1.5-1.5v-11.2c0-0.8-0.7-1.5-1.5-1.5h-11.2c-0.8,0-1.5,0.7-1.5,1.5v11.2
							C369.8,207.3,370.4,208,371.2,208z"/>
						<path class="st1" d="M370.8,230.5H382c0.8,0,1.5-0.7,1.5-1.5v-11.2c0-0.8-0.7-1.5-1.5-1.5h-11.2c-0.8,0-1.5,0.7-1.5,1.5V229
							C369.3,229.9,370,230.5,370.8,230.5z"/>
					</g>
					<g>
						<path class="st0" d="M338.9,234H352c0.9,0,1.6-0.7,1.6-1.6v-39.9c0-0.9-0.7-1.6-1.6-1.6h-13.1c-0.9,0-1.6,0.7-1.6,1.6v39.9
							C337.3,233.3,338,234,338.9,234z"/>
						<path class="st1" d="M339.9,208H351c0.8,0,1.5-0.7,1.5-1.5v-11.2c0-0.8-0.7-1.5-1.5-1.5h-11.2c-0.8,0-1.5,0.7-1.5,1.5v11.2
							C338.4,207.3,339,208,339.9,208z"/>
						<path class="st1" d="M339.4,230.5h11.2c0.8,0,1.5-0.7,1.5-1.5v-11.2c0-0.8-0.7-1.5-1.5-1.5h-11.2c-0.8,0-1.5,0.7-1.5,1.5V229
							C338,229.9,338.6,230.5,339.4,230.5z"/>
					</g>
				</g>
			</g>
			<text transform="matrix(-1 0 0 1 349.4907 186.0554)" class="st1 st2 st3">1</text>
			<text transform="matrix(-1 0 0 1 380.7373 186.5251)" class="st1 st2 st3">2</text>
			<text transform="matrix(-1 0 0 1 374.3354 252.5417)" class="st1 st2 st3">NO</text>
		</g>
		<path class="st4" d="M409.4,391.7H68.9c-27.7,0-50.2-22.5-50.2-50.2V88c0-27.7,22.5-50.2,50.2-50.2h340.5
			c27.7,0,50.2,22.5,50.2,50.2v253.5C459.6,369.2,437.1,391.7,409.4,391.7z"/>
		<g>
			<path class="st1" d="M66.5,58.2c-14.5,0-26.2,11.7-26.2,26.2s11.7,26.2,26.2,26.2c14.5,0,26.2-11.7,26.2-26.2
				S80.9,58.2,66.5,58.2z M66.5,99.1c-8.2,0-14.8-6.6-14.8-14.8c0-8.2,6.6-14.8,14.8-14.8c8.2,0,14.8,6.6,14.8,14.8
				C81.3,92.5,74.6,99.1,66.5,99.1z"/>
			<path class="st1" d="M415.3,58.2c-14.5,0-26.2,11.7-26.2,26.2s11.7,26.2,26.2,26.2c14.5,0,26.2-11.7,26.2-26.2
				S429.7,58.2,415.3,58.2z M415.3,99.1c-8.2,0-14.8-6.6-14.8-14.8c0-8.2,6.6-14.8,14.8-14.8c8.2,0,14.8,6.6,14.8,14.8
				C430.1,92.5,423.4,99.1,415.3,99.1z"/>
		</g>
		<g>
			<path class="st1" d="M66.5,319.2c-14.5,0-26.2,11.7-26.2,26.2s11.7,26.2,26.2,26.2c14.5,0,26.2-11.7,26.2-26.2
				S80.9,319.2,66.5,319.2z M66.5,360.1c-8.2,0-14.8-6.6-14.8-14.8c0-8.2,6.6-14.8,14.8-14.8c8.2,0,14.8,6.6,14.8,14.8
				C81.3,353.5,74.6,360.1,66.5,360.1z"/>
			<path class="st1" d="M415.3,319.2c-14.5,0-26.2,11.7-26.2,26.2s11.7,26.2,26.2,26.2c14.5,0,26.2-11.7,26.2-26.2
				S429.7,319.2,415.3,319.2z M415.3,360.1c-8.2,0-14.8-6.6-14.8-14.8c0-8.2,6.6-14.8,14.8-14.8c8.2,0,14.8,6.6,14.8,14.8
				C430.1,353.5,423.4,360.1,415.3,360.1z"/>
		</g>
		<g>
			<path class="st0" d="M276.9,265.8h-75.5c-8.6,0-15.6-7-15.6-15.6v-75.5c0-8.6,7-15.6,15.6-15.6h75.5c8.6,0,15.6,7,15.6,15.6v75.5
				C292.5,258.9,285.5,265.8,276.9,265.8z"/>
			<circle class="st5" cx="239.2" cy="212.5" r="44.2"/>
			<circle class="st1" cx="239.2" cy="212.5" r="15.1"/>
		</g>
		<circle class="st1" cx="98.6" cy="105.1" r="6"/>
		<circle class="st1" cx="98.6" cy="129.1" r="6"/>
		<circle class="st1" cx="367.1" cy="58.2" r="6"/>
		<circle class="st1" cx="367.1" cy="84.3" r="6"/>
		<circle class="st1" cx="367.1" cy="110.5" r="6"/>
		<circle class="st1" cx="367.1" cy="136.7" r="6"/>
		<circle class="st1" cx="440.8" cy="142.7" r="6"/>
		<circle class="st1" cx="34.7" cy="287.5" r="6"/>
	</g>
	<g>
		<g>
			<path class="st1" d="M301.6,29.5H176.7c-5.9,0-10.7,4.8-10.7,10.7v41.6c0,5.9,4.8,10.7,10.7,10.7h1.4c0.8,0,1.4-0.6,1.4-1.4V51.9
				c0-0.8,0.6-1.4,1.4-1.4h3.2c0.8,0,1.4,0.6,1.4,1.4v39.2c0,0.8,0.6,1.4,1.4,1.4h105.9c0.8,0,1.4-0.6,1.4-1.4V51.9
				c0-0.8,0.6-1.4,1.4-1.4h3.2c0.8,0,1.4,0.6,1.4,1.4v39.2c0,0.8,0.6,1.4,1.4,1.4h0c5.9,0,10.7-4.8,10.7-10.7V40.2
				C312.3,34.3,307.5,29.5,301.6,29.5z"/>
			<path class="st6" d="M298.1,130.5H180.2c-7.8,0-14.2-6.3-14.2-14.2V59.7c0-7.8,6.3-14.2,14.2-14.2h117.9
				c7.8,0,14.2,6.3,14.2,14.2v56.6C312.3,124.2,305.9,130.5,298.1,130.5z"/>
			<g>
				<g>
					
						<rect x="243.8" y="103.8" transform="matrix(1.716694e-03 -1 1 1.716694e-03 144.8667 365.5739)" class="st7" width="23.4" height="12.9"/>
					<g class="st8">
						<path class="st9" d="M253.1,100.9l3,0c0.9,0,1.6,0.6,1.6,1.3l0.3,16.1c0,0.7-0.7,1.3-1.5,1.4l-3,0c-0.9,0-1.6-0.6-1.6-1.3
							l-0.3-16.1C251.5,101.5,252.2,100.9,253.1,100.9z"/>
						<path class="st1" d="M253.1,103.6l3,0c0.9,0,1.6,0.6,1.6,1.3l0.2,10.6c0,0.7-0.7,1.3-1.5,1.4l-3,0c-0.9,0-1.6-0.6-1.6-1.3
							l-0.2-10.6C251.6,104.2,252.3,103.6,253.1,103.6z"/>
						<g class="st8">
							<path class="st1" d="M253.4,102.9c0,0.5,0.5,0.9,1.1,0.9c0.6,0,1.1-0.4,1.1-0.9c0-0.3-0.2-0.6-0.5-0.8l0.4-1.2l-2,0.1
								l0.6,1.1C253.7,102.1,253.4,102.5,253.4,102.9z"/>
							<path class="st1" d="M253.9,117.6c0-0.5,0.5-0.9,1-0.9c0.6,0,1.1,0.4,1.1,0.9c0,0.3-0.2,0.6-0.5,0.8l0.5,1.2l-2,0l0.6-1.1
								C254.2,118.4,253.9,118,253.9,117.6z"/>
						</g>
					</g>
				</g>
				<g>
					
						<rect x="275.9" y="103.8" transform="matrix(1.716694e-03 -1 1 1.716694e-03 176.9284 397.6907)" class="st7" width="23.4" height="12.9"/>
					<g class="st8">
						<path class="st9" d="M285.2,100.9l3,0c0.9,0,1.6,0.6,1.6,1.3l0.3,16.1c0,0.7-0.7,1.3-1.5,1.4l-3,0c-0.9,0-1.6-0.6-1.6-1.3
							l-0.3-16.1C283.6,101.5,284.3,100.9,285.2,100.9z"/>
						<path class="st1" d="M285.2,103.6l3,0c0.9,0,1.6,0.6,1.6,1.3l0.2,10.6c0,0.7-0.7,1.3-1.5,1.4l-3,0c-0.9,0-1.6-0.6-1.6-1.3
							l-0.2-10.6C283.7,104.2,284.4,103.6,285.2,103.6z"/>
						<g class="st8">
							<path class="st1" d="M285.6,102.9c0,0.5,0.5,0.9,1.1,0.9c0.6,0,1.1-0.4,1.1-0.9c0-0.3-0.2-0.6-0.5-0.8l0.4-1.2l-2,0.1
								l0.6,1.1C285.8,102.1,285.6,102.5,285.6,102.9z"/>
							<path class="st1" d="M286,117.6c0-0.5,0.5-0.9,1-0.9c0.6,0,1.1,0.4,1.1,0.9c0,0.3-0.2,0.6-0.5,0.8l0.5,1.2l-2,0l0.6-1.1
								C286.3,118.4,286,118,286,117.6z"/>
						</g>
					</g>
				</g>
				<g>
					
						<rect x="179.6" y="103.8" transform="matrix(1.716694e-03 -1 1 1.716694e-03 80.7433 301.3404)" class="st7" width="23.4" height="12.9"/>
					<g class="st8">
						<path class="st9" d="M188.9,100.9l3,0c0.9,0,1.6,0.6,1.6,1.3l0.3,16.1c0,0.7-0.7,1.3-1.5,1.4l-3,0c-0.9,0-1.6-0.6-1.6-1.3
							l-0.3-16.1C187.3,101.5,188,100.9,188.9,100.9z"/>
						<path class="st1" d="M188.9,103.6l3,0c0.9,0,1.6,0.6,1.6,1.3l0.2,10.6c0,0.7-0.7,1.3-1.5,1.4l-3,0c-0.9,0-1.6-0.6-1.6-1.3
							l-0.2-10.6C187.3,104.2,188,103.6,188.9,103.6z"/>
						<g class="st8">
							<path class="st1" d="M189.2,102.9c0,0.5,0.5,0.9,1.1,0.9c0.6,0,1.1-0.4,1.1-0.9c0-0.3-0.2-0.6-0.5-0.8l0.4-1.2l-2,0.1
								l0.6,1.1C189.5,102.1,189.2,102.5,189.2,102.9z"/>
							<path class="st1" d="M189.7,117.6c0-0.5,0.5-0.9,1-0.9c0.6,0,1.1,0.4,1.1,0.9c0,0.3-0.2,0.6-0.5,0.8l0.5,1.2l-2,0l0.6-1.1
								C190,118.4,189.7,118,189.7,117.6z"/>
						</g>
					</g>
				</g>
				<g>
					
						<rect x="211.7" y="103.8" transform="matrix(1.716694e-03 -1 1 1.716694e-03 112.805 333.4572)" class="st7" width="23.4" height="12.9"/>
					<g class="st8">
						<path class="st9" d="M221,100.9l3,0c0.9,0,1.6,0.6,1.6,1.3l0.3,16.1c0,0.7-0.7,1.3-1.5,1.4l-3,0c-0.9,0-1.6-0.6-1.6-1.3
							l-0.3-16.1C219.4,101.5,220.1,100.9,221,100.9z"/>
						<path class="st1" d="M221,103.6l3,0c0.9,0,1.6,0.6,1.6,1.3l0.2,10.6c0,0.7-0.7,1.3-1.5,1.4l-3,0c-0.9,0-1.6-0.6-1.6-1.3
							l-0.2-10.6C219.5,104.2,220.1,103.6,221,103.6z"/>
						<g class="st8">
							<path class="st1" d="M221.3,102.9c0,0.5,0.5,0.9,1.1,0.9c0.6,0,1.1-0.4,1.1-0.9c0-0.3-0.2-0.6-0.5-0.8l0.4-1.2l-2,0.1
								l0.6,1.1C221.6,102.1,221.3,102.5,221.3,102.9z"/>
							<path class="st1" d="M221.8,117.6c0-0.5,0.5-0.9,1-0.9c0.6,0,1.1,0.4,1.1,0.9c0,0.3-0.2,0.6-0.5,0.8l0.5,1.2l-2,0l0.6-1.1
								C222.1,118.4,221.8,118,221.8,117.6z"/>
						</g>
					</g>
				</g>
			</g>
		</g>
		<path class="st1" d="M271.8,8.5h-8c-0.1,0-0.1,0-0.2,0h-49.3c-0.1,0-0.1,0-0.2,0h-7.6c-0.9,0-1.6,0.7-1.6,1.6v3.7
			c0,0.9,0.7,1.6,1.6,1.6h1.3v19.8c0,3.6,2.9,6.5,6.5,6.5h7.9V25.1h3.5v16.6h6.6V25.1h3.5v16.6h6.6V25.1h3.5v16.6h6.6V25.1h3.5v16.6
			h7.9c3.6,0,6.5-2.9,6.5-6.5V15.5h1.7c0.9,0,1.6-0.7,1.6-1.6v-3.7C273.4,9.3,272.6,8.5,271.8,8.5z"/>
	</g>
</g>
</svg>
