<?xml version="1.0" encoding="utf-8"?>
<!-- Generator: Adobe Illustrator 22.0.0, SVG Export Plug-In . SVG Version: 6.00 Build 0)  -->
<svg version="1.1" id="图层_1" xmlns="http://www.w3.org/2000/svg" xmlns:xlink="http://www.w3.org/1999/xlink" x="0px" y="0px"
	 viewBox="0 0 740 400" style="enable-background:new 0 0 740 400;" xml:space="preserve">
<style type="text/css">
	.st0{fill:none;stroke:#FFFFFF;stroke-width:18.563;stroke-miterlimit:10;}
	.st1{fill:none;stroke:#FFFFFF;stroke-width:14.3229;stroke-miterlimit:10;}
	.st2{fill:none;stroke:#FFFFFF;stroke-width:5.3383;stroke-miterlimit:10;}
	.st3{fill:#FFFFFF;}
	.st4{fill:none;stroke:#FFFFFF;stroke-width:3.5721;stroke-linecap:round;stroke-linejoin:round;stroke-miterlimit:10;}
	.st5{fill:none;stroke:#FFFFFF;stroke-width:1.9736;stroke-miterlimit:10;}
	.st6{opacity:0.4;fill:#FFFFFF;}
	.st7{fill:none;}
	.st8{fill:none;stroke:#FFFFFF;stroke-width:15.3531;stroke-miterlimit:10;}
	.st9{fill:none;stroke:#FFFFFF;stroke-width:5.7219;stroke-miterlimit:10;}
	.st10{opacity:0.6;}
	.st11{clip-path:url(#SVGID_2_);fill:none;stroke:#FFFFFF;stroke-width:1.4132;stroke-miterlimit:10;}
	.st12{opacity:0.8;clip-path:url(#SVGID_2_);}
	.st13{clip-path:url(#SVGID_4_);fill:none;stroke:#FFFFFF;stroke-width:0.9109;stroke-miterlimit:10;}
	.st14{clip-path:url(#SVGID_4_);fill:#FFFFFF;}
	.st15{opacity:0.8;clip-path:url(#SVGID_4_);}
	.st16{clip-path:url(#SVGID_6_);fill:#FFFFFF;}
	.st17{clip-path:url(#SVGID_8_);fill:none;stroke:#FFFFFF;stroke-width:0.9109;stroke-miterlimit:10;}
	.st18{clip-path:url(#SVGID_8_);fill:#FFFFFF;}
	.st19{opacity:0.8;clip-path:url(#SVGID_8_);}
	.st20{clip-path:url(#SVGID_10_);fill:#FFFFFF;}
	.st21{fill:none;stroke:#FFFFFF;stroke-width:9.8998;stroke-miterlimit:10;}
	.st22{fill:none;stroke:#FFFFFF;stroke-width:4.9499;stroke-miterlimit:10;}
	.st23{fill:none;stroke:#FFFFFF;stroke-width:1.6489;stroke-miterlimit:10;}
	.st24{opacity:0.8;}
	.st25{clip-path:url(#SVGID_12_);fill:none;stroke:#FFFFFF;stroke-width:1.0628;stroke-miterlimit:10;}
	.st26{clip-path:url(#SVGID_12_);fill:#FFFFFF;}
	.st27{opacity:0.8;clip-path:url(#SVGID_12_);}
	.st28{clip-path:url(#SVGID_14_);fill:#FFFFFF;}
	.st29{clip-path:url(#SVGID_16_);fill:none;stroke:#FFFFFF;stroke-width:1.0628;stroke-miterlimit:10;}
	.st30{clip-path:url(#SVGID_16_);fill:#FFFFFF;}
	.st31{opacity:0.8;clip-path:url(#SVGID_16_);}
	.st32{clip-path:url(#SVGID_18_);fill:#FFFFFF;}
	.st33{fill:none;stroke:#FFFFFF;stroke-width:0.925;stroke-miterlimit:10;}
	.st34{clip-path:url(#SVGID_20_);fill:#FFFFFF;}
	.st35{fill:none;stroke:#FFFFFF;stroke-width:2.7602;stroke-miterlimit:10;}
	.st36{fill:none;stroke:#FFFFFF;stroke-width:1.2141;stroke-miterlimit:10;}
	.st37{fill:none;stroke:#FFFFFF;stroke-width:0.7825;stroke-miterlimit:10;}
	.st38{clip-path:url(#SVGID_22_);fill:#FFFFFF;}
	.st39{fill:none;stroke:#FFFFFF;stroke-width:1.361;stroke-miterlimit:10;}
	.st40{fill:none;stroke:#FFFFFF;stroke-width:1.1384;stroke-miterlimit:10;}
	.st41{clip-path:url(#SVGID_24_);fill:none;stroke:#FFFFFF;stroke-width:0.7338;stroke-miterlimit:10;}
	.st42{clip-path:url(#SVGID_24_);fill:#FFFFFF;}
	.st43{opacity:0.8;clip-path:url(#SVGID_24_);}
	.st44{clip-path:url(#SVGID_26_);fill:#FFFFFF;}
	.st45{clip-path:url(#SVGID_28_);fill:none;stroke:#FFFFFF;stroke-width:0.7338;stroke-miterlimit:10;}
	.st46{clip-path:url(#SVGID_28_);fill:#FFFFFF;}
	.st47{opacity:0.8;clip-path:url(#SVGID_28_);}
	.st48{clip-path:url(#SVGID_30_);fill:#FFFFFF;}
	.st49{fill:none;stroke:#FFFFFF;stroke-width:1.1391;stroke-miterlimit:10;}
	.st50{clip-path:url(#SVGID_32_);fill:none;stroke:#FFFFFF;stroke-width:0.7342;stroke-miterlimit:10;}
	.st51{clip-path:url(#SVGID_32_);fill:#FFFFFF;}
	.st52{opacity:0.8;clip-path:url(#SVGID_32_);}
	.st53{clip-path:url(#SVGID_34_);fill:#FFFFFF;}
	.st54{clip-path:url(#SVGID_36_);fill:none;stroke:#FFFFFF;stroke-width:0.7342;stroke-miterlimit:10;}
	.st55{clip-path:url(#SVGID_36_);fill:#FFFFFF;}
	.st56{opacity:0.8;clip-path:url(#SVGID_36_);}
	.st57{clip-path:url(#SVGID_38_);fill:#FFFFFF;}
	.st58{clip-path:url(#SVGID_40_);fill:none;stroke:#FFFFFF;stroke-width:0.7342;stroke-miterlimit:10;}
	.st59{clip-path:url(#SVGID_40_);fill:#FFFFFF;}
	.st60{opacity:0.8;clip-path:url(#SVGID_40_);}
	.st61{clip-path:url(#SVGID_42_);fill:#FFFFFF;}
	.st62{fill:none;stroke:#FFFFFF;stroke-width:3.2796;stroke-miterlimit:10;}
	.st63{fill:none;stroke:#FFFFFF;stroke-width:16.523;stroke-miterlimit:10;}
	.st64{fill:none;stroke:#FFFFFF;stroke-width:6.1583;stroke-miterlimit:10;}
	.st65{clip-path:url(#SVGID_44_);fill:#FFFFFF;}
	.st66{fill:none;stroke:#FFFFFF;stroke-width:2.5619;stroke-miterlimit:10;}
	.st67{fill:none;stroke:#FFFFFF;stroke-width:1.5946;stroke-miterlimit:10;}
	.st68{fill:none;stroke:#FFFFFF;stroke-width:1.0278;stroke-miterlimit:10;}
	.st69{opacity:0.8;fill:#FFFFFF;}
	.st70{fill:none;stroke:#FFFFFF;stroke-width:1.0777;stroke-miterlimit:10;}
	.st71{fill:none;stroke:#FFFFFF;stroke-width:1.5463;stroke-miterlimit:10;}
	.st72{fill:none;stroke:#FFFFFF;stroke-width:0.9967;stroke-miterlimit:10;}
	.st73{opacity:0.4;clip-path:url(#SVGID_46_);fill:#FFFFFF;}
	.st74{clip-path:url(#SVGID_46_);fill:#FFFFFF;}
</style>
<g>
	<path class="st0" d="M228.1-721.6h-625.5c-22.6,0-40.9-18.3-40.9-40.9v-261.7c0-22.6,18.3-40.9,40.9-40.9h625.5
		c22.6,0,40.9,18.3,40.9,40.9v261.7C269-739.9,250.7-721.6,228.1-721.6z"/>
	<g>
		<path class="st1" d="M-350.6-841.1l-16.4-0.1l-0.1,13.6c0,3.9-2.9,7-6.5,7l-59.8-0.3c-3.6,0-6.5-3.2-6.5-7.1l0.7-137.2
			c0-3.9,2.9-7,6.5-7l59.8,0.3c3.6,0,6.5,3.2,6.5,7.1l-0.1,13.6l16.4,0.1c3.6,0,6.5,3.2,6.5,7.1l-0.5,95.9
			C-344.1-844.3-347-841.1-350.6-841.1z"/>
		<path class="st2" d="M-398-855.8l-7.9,0c-1.7,0-3.2,1.4-3.2,3.1l0,9.1c0,1.7,1.4,3.2,3.1,3.2l7.9,0c1.7,0,3.2-1.4,3.2-3.1l0-9.1
			C-394.9-854.4-396.3-855.8-398-855.8z"/>
		<path class="st2" d="M-397.8-888l-7.9,0c-1.7,0-3.2,1.4-3.2,3.1l0,9.1c0,1.7,1.4,3.2,3.1,3.2l7.9,0c1.7,0,3.2-1.4,3.2-3.1l0-9.1
			C-394.7-886.6-396.1-888-397.8-888z"/>
		<path class="st2" d="M-397.7-920.2l-7.9,0c-1.7,0-3.2,1.4-3.2,3.1l0,9.1c0,1.7,1.4,3.2,3.1,3.2l7.9,0c1.7,0,3.2-1.4,3.2-3.1l0-9.1
			C-394.5-918.8-395.9-920.2-397.7-920.2z"/>
		<path class="st2" d="M-397.5-952.4l-7.9,0c-1.7,0-3.2,1.4-3.2,3.1l0,9.1c0,1.7,1.4,3.2,3.1,3.2l7.9,0c1.7,0,3.2-1.4,3.2-3.1l0-9.1
			C-394.3-950.9-395.7-952.4-397.5-952.4z"/>
	</g>
	<path class="st3" d="M-157.4-777.7v29.7c0,0.8,0.8,1.5,1.9,1.5h115.7c1,0,1.9-0.7,1.9-1.5v-29.7c0-0.8-0.8-1.5-1.9-1.5h-115.7
		C-156.6-779.1-157.4-778.5-157.4-777.7z M-66.7-757.4h-62c-1,0-1.9-0.7-1.9-1.5v-8c0-0.8,0.8-1.5,1.9-1.5h62c1,0,1.9,0.7,1.9,1.5v8
		C-64.8-758-65.7-757.4-66.7-757.4z"/>
	<path class="st3" d="M-32.2-749.7h-7.7c-0.8,0-1.5-0.7-1.5-1.5v-23c0-0.8,0.7-1.5,1.5-1.5h7.7c0.8,0,1.5,0.7,1.5,1.5v23
		C-30.8-750.4-31.4-749.7-32.2-749.7z"/>
	<path class="st3" d="M-163.2-749.7h7.7c0.8,0,1.5-0.7,1.5-1.5v-23c0-0.8-0.7-1.5-1.5-1.5h-7.7c-0.8,0-1.5,0.7-1.5,1.5v23
		C-164.7-750.4-164-749.7-163.2-749.7z"/>
	<g>
		<rect x="-123.2" y="-767.8" class="st3" width="0.9" height="9.9"/>
		<rect x="-121.3" y="-767.8" class="st3" width="0.9" height="9.9"/>
		<rect x="-125.2" y="-767.8" class="st3" width="0.9" height="9.9"/>
		<path class="st3" d="M-129.3-764.2v2.8c0,1.4,0.5,2.5,1.2,3.1v-9C-128.8-766.7-129.3-765.6-129.3-764.2z"/>
		<path class="st3" d="M-127-767.8c0,0-0.1,0-0.1,0v9.9c0,0,0.1,0,0.1,0h0.8v-9.9H-127z"/>
		<path class="st3" d="M-117.5-767.3v9c0.7-0.6,1.2-1.8,1.2-3.1v-2.8C-116.2-765.6-116.7-766.7-117.5-767.3z"/>
		<path class="st3" d="M-118.6-767.8h-0.8v9.9h0.8c0,0,0.1,0,0.1,0v-9.9C-118.5-767.8-118.5-767.8-118.6-767.8z"/>
	</g>
	<g>
		<g>
			<g>
				<rect x="-263.4" y="-969.7" class="st4" width="17.2" height="43.7"/>
				<path class="st3" d="M-264.2-940.6h-6.1c-0.4,0-0.8-0.3-0.8-0.8v-15.2c0-0.4,0.3-0.8,0.8-0.8h6.1c0.4,0,0.8,0.3,0.8,0.8v15.2
					C-263.4-940.9-263.8-940.6-264.2-940.6z"/>
				<path class="st3" d="M-238-953.3h-7.5c-0.4,0-0.8-0.3-0.8-0.8v-10.7c0-0.4,0.3-0.8,0.8-0.8h7.5c0.4,0,0.8,0.3,0.8,0.8v10.7
					C-237.2-953.7-237.5-953.3-238-953.3z"/>
				<path class="st3" d="M-238-928.1h-7.5c-0.4,0-0.8-0.3-0.8-0.8v-10.7c0-0.4,0.3-0.8,0.8-0.8h7.5c0.4,0,0.8,0.3,0.8,0.8v10.7
					C-237.2-928.4-237.5-928.1-238-928.1z"/>
				<rect x="-262" y="-961.8" class="st3" width="14.5" height="29.2"/>
			</g>
			<g>
				<rect x="-263.4" y="-913.8" class="st4" width="17.2" height="43.7"/>
				<path class="st3" d="M-264.2-884.6h-6.1c-0.4,0-0.8-0.3-0.8-0.8v-15.2c0-0.4,0.3-0.8,0.8-0.8h6.1c0.4,0,0.8,0.3,0.8,0.8v15.2
					C-263.4-884.9-263.8-884.6-264.2-884.6z"/>
				<path class="st3" d="M-238-897.3h-7.5c-0.4,0-0.8-0.3-0.8-0.8v-10.7c0-0.4,0.3-0.8,0.8-0.8h7.5c0.4,0,0.8,0.3,0.8,0.8v10.7
					C-237.2-897.7-237.5-897.3-238-897.3z"/>
				<path class="st3" d="M-238-872.1h-7.5c-0.4,0-0.8-0.3-0.8-0.8v-10.7c0-0.4,0.3-0.8,0.8-0.8h7.5c0.4,0,0.8,0.3,0.8,0.8v10.7
					C-237.2-872.4-237.5-872.1-238-872.1z"/>
				<rect x="-262" y="-905.9" class="st3" width="14.5" height="29.2"/>
			</g>
			<g>
				<rect x="-263.4" y="-857.8" class="st4" width="17.2" height="43.7"/>
				<path class="st3" d="M-264.2-828.6h-6.1c-0.4,0-0.8-0.3-0.8-0.8v-15.2c0-0.4,0.3-0.8,0.8-0.8h6.1c0.4,0,0.8,0.3,0.8,0.8v15.2
					C-263.4-828.9-263.8-828.6-264.2-828.6z"/>
				<path class="st3" d="M-238-841.3h-7.5c-0.4,0-0.8-0.3-0.8-0.8v-10.7c0-0.4,0.3-0.8,0.8-0.8h7.5c0.4,0,0.8,0.3,0.8,0.8v10.7
					C-237.2-841.7-237.5-841.3-238-841.3z"/>
				<path class="st3" d="M-238-816.1h-7.5c-0.4,0-0.8-0.3-0.8-0.8v-10.7c0-0.4,0.3-0.8,0.8-0.8h7.5c0.4,0,0.8,0.3,0.8,0.8v10.7
					C-237.2-816.4-237.5-816.1-238-816.1z"/>
				<rect x="-262" y="-849.9" class="st3" width="14.5" height="29.2"/>
			</g>
		</g>
		<g>
			<g>
				<path class="st5" d="M-291.8-925.4h-13c-2.9,0-5.3-2.4-5.3-5.3v-36.7c0-2.9,2.4-5.3,5.3-5.3h13c2.9,0,5.3,2.4,5.3,5.3v36.7
					C-286.5-927.8-288.9-925.4-291.8-925.4z"/>
				<g>
					<path class="st6" d="M-298.3-931.3L-298.3-931.3c-4.5,0-8.1-3.6-8.1-8.1v-19.2c0-4.5,3.6-8.1,8.1-8.1h0c4.5,0,8.1,3.6,8.1,8.1
						v19.2C-290.2-935-293.8-931.3-298.3-931.3z"/>
					<rect x="-306.5" y="-958" class="st3" width="16.3" height="17.8"/>
				</g>
			</g>
			<g>
				<path class="st5" d="M-291.8-868.2h-13c-2.9,0-5.3-2.4-5.3-5.3v-36.7c0-2.9,2.4-5.3,5.3-5.3h13c2.9,0,5.3,2.4,5.3,5.3v36.7
					C-286.5-870.6-288.9-868.2-291.8-868.2z"/>
				<g>
					<path class="st6" d="M-298.3-874.1L-298.3-874.1c-4.5,0-8.1-3.6-8.1-8.1v-19.2c0-4.5,3.6-8.1,8.1-8.1h0c4.5,0,8.1,3.6,8.1,8.1
						v19.2C-290.2-877.8-293.8-874.1-298.3-874.1z"/>
					<rect x="-306.5" y="-900.8" class="st3" width="16.3" height="17.8"/>
				</g>
			</g>
			<g>
				<path class="st5" d="M-291.8-811h-13c-2.9,0-5.3-2.4-5.3-5.3V-853c0-2.9,2.4-5.3,5.3-5.3h13c2.9,0,5.3,2.4,5.3,5.3v36.7
					C-286.5-813.3-288.9-811-291.8-811z"/>
				<g>
					<path class="st6" d="M-298.3-816.9L-298.3-816.9c-4.5,0-8.1-3.6-8.1-8.1v-19.2c0-4.5,3.6-8.1,8.1-8.1h0c4.5,0,8.1,3.6,8.1,8.1
						v19.2C-290.2-820.5-293.8-816.9-298.3-816.9z"/>
					<rect x="-306.5" y="-843.5" class="st3" width="16.3" height="17.8"/>
				</g>
			</g>
		</g>
	</g>
	<g>
		<path class="st6" d="M150.1-752.7H-25c-31,0-56.2-25.1-56.2-56.2v-175.1c0-31,25.1-56.2,56.2-56.2h175.1c31,0,56.2,25.1,56.2,56.2
			v175.1C206.2-777.8,181.1-752.7,150.1-752.7z"/>
		<g>
			<circle class="st7" cx="238" cy="-896.4" r="12.7"/>
			<path class="st7" d="M62.5-780c51.2,0,94.7-33.1,110.3-79.1H-47.7C-32.2-813.1,11.3-780,62.5-780z"/>
			<circle class="st7" cx="-113" cy="-896.4" r="12.7"/>
			<path class="st7" d="M62.5-1012.8c-51.2,0-94.7,33.1-110.3,79.1h220.5C157.2-979.7,113.7-1012.8,62.5-1012.8z"/>
			<path class="st3" d="M-68.1-882.4c-14-2.3-14.2-22.4-0.3-25.1l0,0c11.5-2.2,14.1-17.5,4.1-23.4c-1.4-0.8-2.5-1.8-3.4-2.9h-40.5
				c-20.6,0-37.4,16.7-37.4,37.4v0c0,20.6,16.7,37.4,37.4,37.4h44.8C-53.6-865.3-56.6-880.4-68.1-882.4z M-113-883.7
				c-7,0-12.7-5.7-12.7-12.7c0-7,5.7-12.7,12.7-12.7c7,0,12.7,5.7,12.7,12.7C-100.3-889.4-106-883.7-113-883.7z"/>
			<path class="st3" d="M233.3-933.8h-37.9c9.8,3.9,11.2,19.2-0.2,23.7c-10.9,4.3-10.7,19.8,0.3,23.8c13.3,4.9,9.9,24.6-4.3,24.7
				c-3,0-5.6,1-7.6,2.6h49.8c20.6,0,37.4-16.7,37.4-37.4v0C270.6-917,253.9-933.8,233.3-933.8z M238-883.7c-7,0-12.7-5.7-12.7-12.7
				c0-7,5.7-12.7,12.7-12.7c7,0,12.7,5.7,12.7,12.7C250.8-889.4,245.1-883.7,238-883.7z"/>
			<path class="st3" d="M62.5-1012.8c51.2,0,94.7,33.1,110.3,79.1h22.6c-1.5-0.6-3.2-0.9-5.1-0.9c-11.7,0.2-17.5-14.1-8.9-22.1
				c10.4-9.6-0.3-26.5-13.5-21.1c-10.8,4.4-21.4-6.9-16.3-17.4c6.2-12.7-9.9-24.6-20.2-14.8v0c-8.5,8-22.4,1.3-21.4-10.3
				c1.2-14.1-18.1-19.4-24.2-6.6c-5,10.6-20.4,9.3-23.7-1.9c-4-13.6-23.9-11.5-24.9,2.6c-0.9,11.7-15.7,16.1-22.8,6.8
				c-8.6-11.3-26.4-2.1-22.3,11.4v0c3.4,11.2-8.8,20.7-18.8,14.6c-12.1-7.4-25.4,7.6-16.6,18.7v0c7.2,9.2-0.8,22.5-12.3,20.4
				c-12.4-2.2-19.2,12.2-12.2,20.6h20C-32.2-979.7,11.3-1012.8,62.5-1012.8z"/>
			<path class="st3" d="M62.5-780c-51.2,0-94.7-33.1-110.3-79.1h-15.7c0,0,0,0,0,0v0c-12,7.5-4.5,26.1,9.3,23.2v0
				c11.5-2.4,19.8,10.7,12.8,20.1c-8.5,11.4,5.2,26,17.1,18.3v0c9.8-6.3,22.3,2.8,19.2,14.1v0c-3.8,13.7,14.2,22.4,22.6,10.9
				c6.9-9.5,21.8-5.4,23,6.2c1.4,14.1,21.3,15.7,25,2c3-11.3,18.4-12.9,23.7-2.5v0c6.4,12.7,25.6,6.9,24-7.2
				c-1.3-11.6,12.5-18.7,21.2-10.9h0c10.5,9.5,26.4-2.8,19.8-15.3c-5.4-10.4,4.9-21.9,15.8-17.8c13.3,5,23.6-12.1,12.9-21.5v0
				c-6.5-5.7-5.2-15.2,0.7-19.7h-10.7C157.2-813.1,113.7-780,62.5-780z"/>
			<path class="st3" d="M195.4-886.3c-11-4-11.2-19.5-0.3-23.8c11.4-4.5,10-19.8,0.2-23.7h-22.6c4,11.7,6.2,24.3,6.2,37.4
				s-2.2,25.6-6.2,37.4h10.7c2-1.6,4.6-2.6,7.6-2.6C205.3-861.7,208.7-881.4,195.4-886.3z"/>
			<path class="st3" d="M-53.9-896.4c0-13.1,2.2-25.6,6.2-37.4h-20c0.9,1.1,2,2.1,3.4,2.9c10.1,6,7.4,21.2-4.1,23.4l0,0
				c-13.9,2.7-13.7,22.7,0.3,25.1c11.5,1.9,14.6,17.1,4.7,23.3h15.7C-51.7-870.8-53.9-883.3-53.9-896.4z"/>
		</g>
	</g>
</g>
<g>
	<path class="st0" d="M-1024.1,1907h-625.5c-22.6,0-40.9-18.3-40.9-40.9v-261.7c0-22.6,18.3-40.9,40.9-40.9h625.5
		c22.6,0,40.9,18.3,40.9,40.9v261.7C-983.2,1888.7-1001.5,1907-1024.1,1907z"/>
	<g>
		<path class="st8" d="M-1585.9,1676.1l-17.6,0.1l-0.1-14.6c0-4.2-3.1-7.6-7-7.5l-64.1,0.3c-3.8,0-6.9,3.4-6.9,7.6l0.6,147.1
			c0,4.2,3.1,7.6,7,7.5l64.1-0.3c3.8,0,6.9-3.4,6.9-7.6l-0.1-14.6l17.6-0.1c3.8,0,6.9-3.4,6.9-7.6l-0.4-102.8
			C-1579,1679.4-1582.1,1676.1-1585.9,1676.1z"/>
		<path class="st9" d="M-1636.4,1691.8l-9.2,0c-1.7,0-3-1.3-3.1-3l0-10.5c0-1.7,1.4-3,3-3.1l9.2,0c1.7,0,3,1.3,3.1,3l0,10.5
			C-1633.4,1690.4-1634.7,1691.8-1636.4,1691.8z"/>
		<path class="st9" d="M-1636.3,1726.3l-9.2,0c-1.7,0-3-1.4-3.1-3l0-10.5c0-1.7,1.4-3,3-3.1l9.2,0c1.7,0,3,1.4,3.1,3l0,10.5
			C-1633.2,1724.9-1634.6,1726.3-1636.3,1726.3z"/>
		<path class="st9" d="M-1636.1,1760.8l-9.2,0c-1.7,0-3-1.3-3.1-3l0-10.5c0-1.7,1.3-3,3-3.1l9.2,0c1.7,0,3,1.3,3.1,3l0,10.5
			C-1633.1,1759.4-1634.5,1760.8-1636.1,1760.8z"/>
		<path class="st9" d="M-1636,1795.3l-9.2,0c-1.7,0-3-1.4-3.1-3l0-10.5c0-1.7,1.3-3,3-3.1l9.2,0c1.7,0,3,1.4,3.1,3l0,10.5
			C-1633,1793.9-1634.3,1795.3-1636,1795.3z"/>
	</g>
	<g class="st10">
		<g>
			<defs>
				<rect id="SVGID_1_" x="-1064.2" y="1614.3" width="39.3" height="39.7"/>
			</defs>
			<clipPath id="SVGID_2_">
				<use xlink:href="#SVGID_1_"  style="overflow:visible;"/>
			</clipPath>
			<polygon class="st11" points="-1063.5,1615.9 -1025.9,1615 -1025.6,1630.6 -1063.2,1631.5 			"/>
			<g class="st12">
				<g>
					<defs>
						<rect id="SVGID_3_" x="-1061.2" y="1619.4" width="33.4" height="9.6"/>
					</defs>
					<clipPath id="SVGID_4_">
						<use xlink:href="#SVGID_3_"  style="overflow:visible;"/>
					</clipPath>
					<path class="st13" d="M-1060.7,1626.5l-0.1-3.9c0-1.1,1-2.1,2.3-2.1l27.8-0.7c1.3,0,2.3,0.9,2.3,2l0.1,3.9c0,1.1-1,2.1-2.3,2.1
						l-27.8,0.7C-1059.7,1628.5-1060.7,1627.6-1060.7,1626.5z"/>
					<path class="st14" d="M-1056,1626.4l-0.1-3.9c0-1.1,1-2.1,2.3-2.1l18.4-0.5c1.3,0,2.3,0.9,2.3,2l0.1,3.9c0,1.1-1,2.1-2.3,2.1
						l-18.4,0.5C-1055,1628.4-1056,1627.5-1056,1626.4"/>
					<g class="st15">
						<g>
							<defs>
								<rect id="SVGID_5_" x="-1060.8" y="1622.3" width="32.4" height="3.7"/>
							</defs>
							<clipPath id="SVGID_6_">
								<use xlink:href="#SVGID_5_"  style="overflow:visible;"/>
							</clipPath>
							<path class="st16" d="M-1057.3,1626c0.9,0,1.6-0.7,1.6-1.4c0-0.8-0.7-1.4-1.6-1.3c-0.6,0-1.1,0.3-1.3,0.7l-2.1-0.5l0.1,2.6
								l1.9-0.8C-1058.5,1625.7-1058,1626-1057.3,1626"/>
							<path class="st16" d="M-1031.8,1625.1c-0.9,0-1.6-0.6-1.6-1.3c0-0.8,0.7-1.4,1.5-1.4c0.6,0,1.1,0.2,1.4,0.6l2.1-0.7l0,2.6
								l-1.9-0.7C-1030.5,1624.7-1031.1,1625.1-1031.8,1625.1"/>
						</g>
					</g>
				</g>
			</g>
			<polygon class="st11" points="-1063.5,1637.7 -1025.9,1636.8 -1025.6,1652.4 -1063.2,1653.3 			"/>
			<g class="st12">
				<g>
					<defs>
						<rect id="SVGID_7_" x="-1061.2" y="1641.2" width="33.4" height="9.6"/>
					</defs>
					<clipPath id="SVGID_8_">
						<use xlink:href="#SVGID_7_"  style="overflow:visible;"/>
					</clipPath>
					<path class="st17" d="M-1060.7,1648.3l-0.1-3.9c0-1.1,1-2.1,2.3-2.1l27.8-0.7c1.3,0,2.3,0.9,2.3,2l0.1,3.9c0,1.1-1,2.1-2.3,2.1
						l-27.8,0.7C-1059.7,1650.3-1060.7,1649.4-1060.7,1648.3z"/>
					<path class="st18" d="M-1056,1648.2l-0.1-3.9c0-1.1,1-2.1,2.3-2.1l18.4-0.5c1.3,0,2.3,0.9,2.3,2l0.1,3.9c0,1.1-1,2.1-2.3,2.1
						l-18.4,0.5C-1055,1650.2-1056,1649.3-1056,1648.2"/>
					<g class="st19">
						<g>
							<defs>
								<rect id="SVGID_9_" x="-1060.8" y="1644.1" width="32.4" height="3.7"/>
							</defs>
							<clipPath id="SVGID_10_">
								<use xlink:href="#SVGID_9_"  style="overflow:visible;"/>
							</clipPath>
							<path class="st20" d="M-1057.3,1647.8c0.9,0,1.6-0.7,1.6-1.4c0-0.8-0.7-1.4-1.6-1.3c-0.6,0-1.1,0.3-1.3,0.7l-2.1-0.5l0.1,2.6
								l1.9-0.8C-1058.5,1647.5-1058,1647.8-1057.3,1647.8"/>
							<path class="st20" d="M-1031.8,1646.9c-0.9,0-1.6-0.6-1.6-1.3c0-0.8,0.7-1.4,1.5-1.4c0.6,0,1.1,0.2,1.4,0.6l2.1-0.7l0,2.6
								l-1.9-0.7C-1030.5,1646.5-1031.1,1646.9-1031.8,1646.9"/>
						</g>
					</g>
				</g>
			</g>
		</g>
	</g>
	<g>
		<path class="st21" d="M-1045.6,1704.6l7.7,0l0.1-13l47.2,0.3c4.1,0,7.4,3.6,7.4,7.9l-0.4,71.2c0,4.4-3.4,7.9-7.5,7.8l-47.2-0.3
			l0.1-13l-7.7,0c-4.4,0-7.9-3.8-7.8-8.4l0.2-44.3C-1053.5,1708.3-1049.9,1704.6-1045.6,1704.6z"/>
		<g>
			<path class="st22" d="M-1004.6,1728.9l-8.6,0c-0.7,0-1.3-0.6-1.3-1.3l0-9.3c0-0.7,0.6-1.3,1.3-1.3l8.6,0c0.7,0,1.3,0.6,1.3,1.3
				l0,9.3C-1003.3,1728.3-1003.9,1728.9-1004.6,1728.9z"/>
			<path class="st22" d="M-1004.7,1753.6l-8.6,0c-0.7,0-1.3-0.6-1.3-1.3l0-9.3c0-0.7,0.6-1.3,1.3-1.3l8.6,0c0.7,0,1.3,0.6,1.3,1.3
				l0,9.3C-1003.4,1753-1004,1753.6-1004.7,1753.6z"/>
		</g>
	</g>
	<g>
		<path class="st6" d="M-1481.5,1686.3h-57.2c-4.1,0-7.4-3.3-7.4-7.4v-57.2c0-4.1,3.3-7.4,7.4-7.4h57.2c4.1,0,7.4,3.3,7.4,7.4v57.2
			C-1474.1,1683-1477.4,1686.3-1481.5,1686.3z"/>
		<path class="st3" d="M-1477.4,1686.3h-7.5c-1.8,0-3.3-1.5-3.3-3.3v-65.4c0-1.8,1.5-3.3,3.3-3.3h7.5c1.8,0,3.3,1.5,3.3,3.3v65.4
			C-1474.1,1684.8-1475.6,1686.3-1477.4,1686.3z"/>
	</g>
	<g>
		<path class="st6" d="M-1087.6,1847.2h-19.4c-4.1,0-7.4-3.3-7.4-7.4v-65c0-4.1,3.3-7.4,7.4-7.4h19.4c4.1,0,7.4,3.3,7.4,7.4v65
			C-1080.2,1843.9-1083.5,1847.2-1087.6,1847.2z"/>
		<path class="st3" d="M-1089.2,1834.1h-16.3c-4.9,0-9-4-9-9v-35.6c0-4.9,4-9,9-9h16.3c4.9,0,9,4,9,9v35.6
			C-1080.2,1830-1084.2,1834.1-1089.2,1834.1z"/>
	</g>
	<g>
		<path class="st6" d="M-1139.7,1845.1h-19.4c-3.2,0-5.8-2.6-5.8-5.8v-42.1c0-3.2,2.6-5.8,5.8-5.8h19.4c3.2,0,5.8,2.6,5.8,5.8v42.1
			C-1134,1842.5-1136.6,1845.1-1139.7,1845.1z"/>
		<path class="st3" d="M-1141,1836.3h-16.9c-3.8,0-7-3.1-7-7v-22c0-3.8,3.1-7,7-7h16.9c3.8,0,7,3.1,7,7v22
			C-1134,1833.2-1137.1,1836.3-1141,1836.3z"/>
	</g>
	<g>
		<polygon class="st23" points="-1205.3,1836.9 -1206.2,1799.3 -1185,1799.2 -1184.1,1836.8 		"/>
		<g class="st24">
			<g>
				<defs>
					
						<rect id="SVGID_11_" x="-1210.6" y="1811.5" transform="matrix(9.019782e-03 -1 1 9.019782e-03 -3001.1201 607.7914)" width="33.4" height="13"/>
				</defs>
				<clipPath id="SVGID_12_">
					<use xlink:href="#SVGID_11_"  style="overflow:visible;"/>
				</clipPath>
				<path class="st25" d="M-1190.9,1834.3l-5.3,0c-1.5,0-2.8-1-2.8-2.3l-0.7-27.8c0-1.3,1.2-2.3,2.7-2.3l5.3,0c1.5,0,2.8,1,2.8,2.3
					l0.7,27.8C-1188.1,1833.2-1189.3,1834.3-1190.9,1834.3z"/>
				<path class="st26" d="M-1191,1829.6l-5.3,0c-1.5,0-2.8-1-2.8-2.3l-0.4-18.4c0-1.3,1.2-2.3,2.7-2.3l5.3,0c1.5,0,2.8,1,2.8,2.3
					l0.4,18.4C-1188.2,1828.5-1189.4,1829.5-1191,1829.6"/>
				<g class="st27">
					<g>
						<defs>
							
								<rect id="SVGID_13_" x="-1210.1" y="1815.6" transform="matrix(9.019782e-03 -1 1 9.019782e-03 -3001.1653 607.7926)" width="32.4" height="5"/>
						</defs>
						<clipPath id="SVGID_14_">
							<use xlink:href="#SVGID_13_"  style="overflow:visible;"/>
						</clipPath>
						<path class="st28" d="M-1191.5,1830.8c0-0.9-0.9-1.6-1.9-1.6c-1,0-1.9,0.7-1.8,1.6c0,0.6,0.4,1.1,1,1.4l-0.8,2.1l3.6-0.1
							l-1.1-1.9C-1192,1832.1-1191.5,1831.5-1191.5,1830.8"/>
						<path class="st28" d="M-1192.5,1805.3c0,0.9-0.8,1.6-1.8,1.6c-1,0-1.9-0.7-1.9-1.6c0-0.6,0.3-1.1,0.9-1.4l-0.9-2.1l3.6,0.1
							l-1,1.9C-1193.1,1804-1192.5,1804.6-1192.5,1805.3"/>
					</g>
				</g>
			</g>
		</g>
	</g>
	<g>
		<polygon class="st23" points="-1241.2,1836.9 -1242.1,1799.3 -1221,1799.2 -1220.1,1836.8 		"/>
		<g class="st24">
			<g>
				<defs>
					
						<rect id="SVGID_15_" x="-1246.6" y="1811.5" transform="matrix(9.019782e-03 -1 1 9.019782e-03 -3036.7529 571.8355)" width="33.4" height="13"/>
				</defs>
				<clipPath id="SVGID_16_">
					<use xlink:href="#SVGID_15_"  style="overflow:visible;"/>
				</clipPath>
				<path class="st29" d="M-1226.8,1834.3l-5.3,0c-1.5,0-2.8-1-2.8-2.3l-0.7-27.8c0-1.3,1.2-2.3,2.7-2.3l5.3,0c1.5,0,2.8,1,2.8,2.3
					l0.7,27.8C-1224.1,1833.2-1225.3,1834.3-1226.8,1834.3z"/>
				<path class="st30" d="M-1226.9,1829.6l-5.3,0c-1.5,0-2.8-1-2.8-2.3l-0.4-18.4c0-1.3,1.2-2.3,2.7-2.3l5.3,0c1.5,0,2.8,1,2.8,2.3
					l0.4,18.4C-1224.2,1828.5-1225.4,1829.5-1226.9,1829.6"/>
				<g class="st31">
					<g>
						<defs>
							
								<rect id="SVGID_17_" x="-1246.1" y="1815.6" transform="matrix(9.019782e-03 -1 1 9.019782e-03 -3036.7983 571.8367)" width="32.4" height="5"/>
						</defs>
						<clipPath id="SVGID_18_">
							<use xlink:href="#SVGID_17_"  style="overflow:visible;"/>
						</clipPath>
						<path class="st32" d="M-1227.5,1830.8c0-0.9-0.9-1.6-1.9-1.6c-1,0-1.9,0.7-1.8,1.6c0,0.6,0.4,1.1,1,1.4l-0.8,2.1l3.6-0.1
							l-1.1-1.9C-1227.9,1832.1-1227.5,1831.5-1227.5,1830.8"/>
						<path class="st32" d="M-1228.5,1805.3c0,0.9-0.8,1.6-1.8,1.6c-1,0-1.9-0.7-1.9-1.6c0-0.6,0.3-1.1,0.9-1.4l-0.9-2.1l3.6,0.1
							l-1,1.9C-1229,1804-1228.5,1804.6-1228.5,1805.3"/>
					</g>
				</g>
			</g>
		</g>
	</g>
	<path class="st3" d="M-1175.6,1783.6h-23.4c-0.9,0-1.7-0.8-1.7-1.8v-56.5c0-1,0.8-1.8,1.7-1.8h20.2c0.4,0,0.8,0.1,1.1,0.4l1.9,1.6
		c0.1,0,0.1,0.1,0.1,0.1l1.3,1.3c0.3,0.3,0.5,0.8,0.5,1.2v53.6C-1173.9,1782.8-1174.6,1783.6-1175.6,1783.6z"/>
	<path class="st3" d="M-1511.4,1742.3h-16.9c-0.7,0-1.2-0.6-1.2-1.3v-40.9c0-0.7,0.6-1.3,1.2-1.3h14.6c0.3,0,0.6,0.1,0.8,0.3
		l1.4,1.1c0,0,0.1,0.1,0.1,0.1l0.9,1c0.2,0.2,0.4,0.6,0.4,0.9v38.8C-1510.1,1741.8-1510.7,1742.3-1511.4,1742.3z"/>
	<g>
		<path class="st6" d="M-1418.6,1781.2l0.5,95.8c0,6.6-5.3,12-11.9,12l-88.6,0.5c-6.6,0-12-5.3-12-11.9l-0.5-95.8
			c0-6.6,5.3-12,11.9-12l88.6-0.5C-1424.1,1769.3-1418.7,1774.6-1418.6,1781.2z"/>
		<path class="st3" d="M-1418.7,1774.6l0.1,12.8c0,2.9-2.3,5.3-5.3,5.3l-101.9,0.5c-2.9,0-5.3-2.3-5.3-5.3l-0.1-12.8
			c0-2.9,2.3-5.3,5.3-5.3l101.9-0.5C-1421.1,1769.3-1418.7,1771.6-1418.7,1774.6z"/>
	</g>
	<g>
		<path class="st6" d="M-1413.8,1718.8l-0.1,10c0,2.5-2.1,4.5-4.6,4.5l-44.5-0.4c-2.5,0-4.5-2.1-4.5-4.6l0.1-10
			c0-2.5,2.1-4.5,4.6-4.5l44.5,0.4C-1415.8,1714.3-1413.8,1716.3-1413.8,1718.8z"/>
		<path class="st3" d="M-1422.7,1719.7l-0.1,8.1c0,3-2.5,5.5-5.5,5.4l-25-0.2c-3,0-5.5-2.5-5.4-5.5l0.1-8.1c0-3,2.5-5.5,5.5-5.4
			l25,0.2C-1425.1,1714.2-1422.7,1716.7-1422.7,1719.7z"/>
	</g>
	<g>
		<path class="st6" d="M-1324.7,1757.7l-0.1,12.7c0,3.1-2.6,5.6-5.7,5.6l-54.5-0.5c-3.1,0-5.6-2.6-5.6-5.7l0.1-12.7
			c0-3.1,2.6-5.6,5.7-5.6l54.5,0.5C-1327.2,1752-1324.7,1754.5-1324.7,1757.7z"/>
		<path class="st3" d="M-1335.6,1758.7l-0.1,10.3c0,3.7-3.1,6.8-6.9,6.8l-30.5-0.3c-3.7,0-6.8-3.1-6.8-6.9l0.1-10.3
			c0-3.7,3.1-6.8,6.9-6.8l30.5,0.3C-1338.6,1751.9-1335.5,1755-1335.6,1758.7z"/>
	</g>
	<g>
		<g>
			<g>
				<ellipse class="st33" cx="-1383.3" cy="1630.6" rx="35.1" ry="35.6"/>
				<ellipse class="st6" cx="-1383.3" cy="1630.6" rx="29.9" ry="30.3"/>
			</g>
			<g>
				<path class="st3" d="M-1380.9,1637.8l-0.9,1.8l3.2,1.6l-1.4,2.7l-3.2-1.6l-3.1,6.3l-1.7-0.8l-4.7-9.3l1.7-3.5l7.2,3.7l0.9-1.8
					L-1380.9,1637.8z M-1385,1641.4l-2.5-1.3c-0.7-0.4-1.8-1-2.5-1.4l0,0.1c0.5,0.7,0.9,1.4,1.4,2.2l1.9,3.8L-1385,1641.4z"/>
				<path class="st3" d="M-1383.8,1626.1l-3.3,6.6l-2-1l4.9-9.8l1.5,0.8c1.8,5.2,4,6.9,8.7,9.6l-1.5,3
					C-1379.7,1632.8-1382,1630.5-1383.8,1626.1z"/>
				<path class="st3" d="M-1377.3,1623.1c-4.2-2.2-5.3-5.2-3.8-8.2c1.5-3,4.6-3.9,8.8-1.8c4.2,2.1,5.4,5.3,3.9,8.2
					C-1369.9,1624.4-1373.1,1625.3-1377.3,1623.1z M-1373.7,1615.9c-3.4-1.7-4.9-1.3-5.5,0c-0.6,1.3-0.1,2.7,3.3,4.5
					c3.4,1.8,5,1.3,5.6,0.1C-1369.7,1619.2-1370.3,1617.7-1373.7,1615.9z"/>
			</g>
		</g>
		<path class="st6" d="M-1350.6,1674.3h-64.4c-1.9,0-3.4-1.5-3.4-3.4v-77.3c0-1.9,1.5-3.4,3.4-3.4h64.4c1.9,0,3.4,1.5,3.4,3.4v77.3
			C-1347.2,1672.8-1348.7,1674.3-1350.6,1674.3z"/>
	</g>
	<g>
		<g class="st10">
			<g>
				<defs>
					<rect id="SVGID_19_" x="-1158.6" y="1612.6" width="55.6" height="84.6"/>
				</defs>
				<clipPath id="SVGID_20_">
					<use xlink:href="#SVGID_19_"  style="overflow:visible;"/>
				</clipPath>
				<path class="st34" d="M-1112.3,1697.1h-37c-5.1,0-9.3-5.1-9.3-11.4V1624c0-6.3,4.2-11.4,9.3-11.4h37c5.1,0,9.3,5.1,9.3,11.4
					v61.8C-1103,1692-1107.2,1697.1-1112.3,1697.1"/>
			</g>
		</g>
		<path class="st35" d="M-1112.3,1697.1h-37c-5.1,0-9.3-5.1-9.3-11.4V1624c0-6.3,4.2-11.4,9.3-11.4h37c5.1,0,9.3,5.1,9.3,11.4v61.8
			C-1103,1692-1107.2,1697.1-1112.3,1697.1z"/>
		<path class="st3" d="M-1102.5,1625h8c0.3,0,0.5,0.3,0.5,0.6v0.6c0,0.3,0.2,0.6,0.5,0.6h12.7c0.3,0,0.5,0.3,0.5,0.6v3.4
			c0,0.3-0.2,0.6-0.5,0.6h-13.1c-0.3,0-0.5-0.2-0.5-0.5c0-0.3-0.3-0.5-0.5-0.5l-7.7,0c-0.3,0-0.5-0.3-0.5-0.6v-4.2
			C-1103,1625.3-1102.8,1625-1102.5,1625"/>
		<path class="st3" d="M-1102.5,1643.4h8c0.3,0,0.5,0.3,0.5,0.6v0.6c0,0.3,0.2,0.6,0.5,0.6h12.7c0.3,0,0.5,0.3,0.5,0.6v3.4
			c0,0.3-0.2,0.6-0.5,0.6h-13.1c-0.3,0-0.5-0.2-0.5-0.5c0-0.3-0.3-0.5-0.5-0.5l-7.7,0c-0.3,0-0.5-0.3-0.5-0.6v-4.2
			C-1103,1643.7-1102.8,1643.4-1102.5,1643.4"/>
		<path class="st3" d="M-1102.5,1661.9h8c0.3,0,0.5,0.3,0.5,0.6v0.6c0,0.3,0.2,0.6,0.5,0.6h12.7c0.3,0,0.5,0.3,0.5,0.6v3.4
			c0,0.3-0.2,0.6-0.5,0.6h-13.1c-0.3,0-0.5-0.2-0.5-0.5c0-0.3-0.3-0.5-0.5-0.5l-7.7,0c-0.3,0-0.5-0.3-0.5-0.6v-4.2
			C-1103,1662.1-1102.8,1661.9-1102.5,1661.9"/>
		<path class="st3" d="M-1102.5,1680.3h8c0.3,0,0.5,0.3,0.5,0.6v0.6c0,0.3,0.2,0.6,0.5,0.6h12.7c0.3,0,0.5,0.3,0.5,0.6v3.4
			c0,0.3-0.2,0.6-0.5,0.6h-13.1c-0.3,0-0.5-0.2-0.5-0.5c0-0.3-0.3-0.5-0.5-0.5l-7.7,0c-0.3,0-0.5-0.3-0.5-0.6v-4.2
			C-1103,1680.6-1102.8,1680.3-1102.5,1680.3"/>
		<path class="st3" d="M-1159.2,1625h-8c-0.3,0-0.5,0.3-0.5,0.6v0.6c0,0.3-0.2,0.6-0.5,0.6h-12.7c-0.3,0-0.5,0.3-0.5,0.6v3.4
			c0,0.3,0.2,0.6,0.5,0.6h13.1c0.3,0,0.5-0.2,0.5-0.5c0-0.3,0.3-0.5,0.5-0.5l7.7,0c0.3,0,0.5-0.3,0.5-0.6v-4.2
			C-1158.7,1625.3-1158.9,1625-1159.2,1625"/>
		<path class="st3" d="M-1159.2,1643.4h-8c-0.3,0-0.5,0.3-0.5,0.6v0.6c0,0.3-0.2,0.6-0.5,0.6h-12.7c-0.3,0-0.5,0.3-0.5,0.6v3.4
			c0,0.3,0.2,0.6,0.5,0.6h13.1c0.3,0,0.5-0.2,0.5-0.5c0-0.3,0.3-0.5,0.5-0.5l7.7,0c0.3,0,0.5-0.3,0.5-0.6v-4.2
			C-1158.7,1643.7-1158.9,1643.4-1159.2,1643.4"/>
		<path class="st3" d="M-1159.2,1661.9h-8c-0.3,0-0.5,0.3-0.5,0.6v0.6c0,0.3-0.2,0.6-0.5,0.6h-12.7c-0.3,0-0.5,0.3-0.5,0.6v3.4
			c0,0.3,0.2,0.6,0.5,0.6h13.1c0.3,0,0.5-0.2,0.5-0.5c0-0.3,0.3-0.5,0.5-0.5l7.7,0c0.3,0,0.5-0.3,0.5-0.6v-4.2
			C-1158.7,1662.1-1158.9,1661.9-1159.2,1661.9"/>
		<path class="st3" d="M-1159.2,1680.3h-8c-0.3,0-0.5,0.3-0.5,0.6v0.6c0,0.3-0.2,0.6-0.5,0.6h-12.7c-0.3,0-0.5,0.3-0.5,0.6v3.4
			c0,0.3,0.2,0.6,0.5,0.6h13.1c0.3,0,0.5-0.2,0.5-0.5c0-0.3,0.3-0.5,0.5-0.5l7.7,0c0.3,0,0.5-0.3,0.5-0.6v-4.2
			C-1158.7,1680.6-1158.9,1680.3-1159.2,1680.3"/>
	</g>
	<g>
		
			<rect x="-1309.3" y="1587.6" transform="matrix(-1 4.785862e-03 -4.785862e-03 -1 -2581.7651 3196.2014)" class="st36" width="29.1" height="14.8"/>
		<g class="st24">
			<path class="st37" d="M-1307.3,1597.8l0-3.7c0-1.1,0.8-1.9,1.8-1.9l21.5-0.1c1,0,1.8,0.9,1.8,1.9l0,3.7c0,1.1-0.8,1.9-1.8,1.9
				l-21.5,0.1C-1306.5,1599.7-1307.3,1598.9-1307.3,1597.8z"/>
			<path class="st3" d="M-1303.6,1597.8l0-3.7c0-1.1,0.8-1.9,1.8-1.9l14.2-0.1c1,0,1.8,0.9,1.8,1.9l0,3.7c0,1.1-0.8,1.9-1.8,1.9
				l-14.2,0.1C-1302.8,1599.7-1303.6,1598.8-1303.6,1597.8z"/>
			<g class="st24">
				<path class="st3" d="M-1304.6,1597.4c0.7,0,1.2-0.6,1.2-1.3c0-0.7-0.6-1.3-1.2-1.3c-0.4,0-0.8,0.3-1.1,0.7l-1.6-0.6l0.1,2.5
					l1.5-0.8C-1305.6,1597-1305.1,1597.4-1304.6,1597.4z"/>
				<path class="st3" d="M-1284.8,1597c-0.7,0-1.2-0.6-1.2-1.3c0-0.7,0.5-1.3,1.2-1.3c0.4,0,0.8,0.2,1.1,0.6l1.6-0.6l0,2.5l-1.5-0.7
					C-1283.8,1596.7-1284.3,1597-1284.8,1597z"/>
			</g>
		</g>
	</g>
	<g>
		<g class="st10">
			<g>
				<defs>
					
						<rect id="SVGID_21_" x="-1324.6" y="1612.9" transform="matrix(1.148577e-02 -0.9999 0.9999 1.148577e-02 -2931.5266 304.7119)" width="25.8" height="44.3"/>
				</defs>
				<clipPath id="SVGID_22_">
					<use xlink:href="#SVGID_21_"  style="overflow:visible;"/>
				</clipPath>
				<path class="st38" d="M-1289.4,1626.7l-0.2,17.2c0,2.4-2.7,4.3-6,4.2l-32.3-0.4c-3.3,0-5.9-2-5.9-4.4l0.2-17.2
					c0-2.4,2.7-4.3,6-4.2l32.3,0.4C-1292,1622.4-1289.4,1624.3-1289.4,1626.7"/>
			</g>
		</g>
		<path class="st39" d="M-1289.4,1626.7l-0.2,17.2c0,2.4-2.7,4.3-6,4.2l-32.3-0.4c-3.3,0-5.9-2-5.9-4.4l0.2-17.2
			c0-2.4,2.7-4.3,6-4.2l32.3,0.4C-1292,1622.4-1289.4,1624.3-1289.4,1626.7z"/>
		<path class="st3" d="M-1327.1,1621.7l0-3.7c0-0.1,0.1-0.2,0.3-0.2l0.3,0c0.2,0,0.3-0.1,0.3-0.2l0.1-5.9c0-0.1,0.1-0.2,0.3-0.2
			l1.8,0c0.2,0,0.3,0.1,0.3,0.3l-0.1,6.1c0,0.1-0.1,0.2-0.3,0.2c-0.2,0-0.3,0.1-0.3,0.2l0,3.6c0,0.1-0.1,0.2-0.3,0.2l-2.2,0
			C-1327,1622-1327.1,1621.8-1327.1,1621.7"/>
		<path class="st3" d="M-1317.5,1621.8l0-3.7c0-0.1,0.1-0.2,0.3-0.2l0.3,0c0.2,0,0.3-0.1,0.3-0.2l0.1-5.9c0-0.1,0.1-0.2,0.3-0.2
			l1.8,0c0.2,0,0.3,0.1,0.3,0.3l-0.1,6.1c0,0.1-0.1,0.2-0.3,0.2c-0.2,0-0.3,0.1-0.3,0.2l0,3.6c0,0.1-0.1,0.2-0.3,0.2l-2.2,0
			C-1317.3,1622.1-1317.5,1622-1317.5,1621.8"/>
		<path class="st3" d="M-1307.8,1621.9l0-3.7c0-0.1,0.1-0.2,0.3-0.2l0.3,0c0.2,0,0.3-0.1,0.3-0.2l0.1-5.9c0-0.1,0.1-0.2,0.3-0.2
			l1.8,0c0.2,0,0.3,0.1,0.3,0.3l-0.1,6.1c0,0.1-0.1,0.2-0.3,0.2c-0.2,0-0.3,0.1-0.3,0.2l0,3.6c0,0.1-0.1,0.2-0.3,0.2l-2.2,0
			C-1307.7,1622.2-1307.8,1622.1-1307.8,1621.9"/>
		<path class="st3" d="M-1298.2,1622l0-3.7c0-0.1,0.1-0.2,0.3-0.2l0.3,0c0.2,0,0.3-0.1,0.3-0.2l0.1-5.9c0-0.1,0.1-0.2,0.3-0.2l1.8,0
			c0.2,0,0.3,0.1,0.3,0.3l-0.1,6.1c0,0.1-0.1,0.2-0.3,0.2c-0.2,0-0.3,0.1-0.3,0.2l0,3.6c0,0.1-0.1,0.2-0.3,0.2l-2.2,0
			C-1298,1622.3-1298.2,1622.2-1298.2,1622"/>
		<path class="st3" d="M-1327.4,1648.1l0,3.7c0,0.1,0.1,0.3,0.3,0.3l0.3,0c0.2,0,0.3,0.1,0.3,0.3l-0.1,5.9c0,0.1,0.1,0.3,0.3,0.3
			l1.8,0c0.2,0,0.3-0.1,0.3-0.2l0.1-6.1c0-0.1-0.1-0.2-0.3-0.3c-0.2,0-0.3-0.1-0.3-0.3l0-3.6c0-0.1-0.1-0.3-0.3-0.3l-2.2,0
			C-1327.3,1647.8-1327.4,1647.9-1327.4,1648.1"/>
		<path class="st3" d="M-1317.8,1648.2l0,3.7c0,0.1,0.1,0.3,0.3,0.3l0.3,0c0.2,0,0.3,0.1,0.3,0.3l-0.1,5.9c0,0.1,0.1,0.3,0.3,0.3
			l1.8,0c0.2,0,0.3-0.1,0.3-0.2l0.1-6.1c0-0.1-0.1-0.2-0.3-0.3c-0.2,0-0.3-0.1-0.3-0.3l0-3.6c0-0.1-0.1-0.3-0.3-0.3l-2.2,0
			C-1317.6,1647.9-1317.8,1648-1317.8,1648.2"/>
		<path class="st3" d="M-1308.1,1648.3l0,3.7c0,0.1,0.1,0.3,0.3,0.3l0.3,0c0.2,0,0.3,0.1,0.3,0.3l-0.1,5.9c0,0.1,0.1,0.3,0.3,0.3
			l1.8,0c0.2,0,0.3-0.1,0.3-0.2l0.1-6.1c0-0.1-0.1-0.2-0.3-0.3c-0.2,0-0.3-0.1-0.3-0.3l0-3.6c0-0.1-0.1-0.3-0.3-0.3l-2.2,0
			C-1308,1648-1308.1,1648.1-1308.1,1648.3"/>
		<path class="st3" d="M-1298.5,1648.4l0,3.7c0,0.1,0.1,0.3,0.3,0.3l0.3,0c0.2,0,0.3,0.1,0.3,0.3l-0.1,5.9c0,0.1,0.1,0.3,0.3,0.3
			l1.8,0c0.2,0,0.3-0.1,0.3-0.2l0.1-6.1c0-0.1-0.1-0.2-0.3-0.3c-0.2,0-0.3-0.1-0.3-0.3l0-3.6c0-0.1-0.1-0.3-0.3-0.3l-2.2,0
			C-1298.3,1648.1-1298.5,1648.2-1298.5,1648.4"/>
	</g>
	<g>
		<g>
			<polygon class="st40" points="-1334.5,1716.8 -1335.1,1690.9 -1320.5,1690.8 -1319.9,1716.8 			"/>
			<g class="st24">
				<g>
					<defs>
						
							<rect id="SVGID_23_" x="-1338.2" y="1699.3" transform="matrix(9.019782e-03 -1 1 9.019782e-03 -3018.4353 361.82)" width="23" height="9"/>
					</defs>
					<clipPath id="SVGID_24_">
						<use xlink:href="#SVGID_23_"  style="overflow:visible;"/>
					</clipPath>
					<path class="st41" d="M-1324.6,1715l-3.7,0c-1.1,0-1.9-0.7-1.9-1.6l-0.5-19.2c0-0.9,0.8-1.6,1.9-1.6l3.7,0
						c1.1,0,1.9,0.7,1.9,1.6l0.5,19.2C-1322.7,1714.3-1323.5,1715-1324.6,1715z"/>
					<path class="st42" d="M-1324.6,1711.7l-3.7,0c-1.1,0-1.9-0.7-1.9-1.6l-0.3-12.7c0-0.9,0.8-1.6,1.9-1.6l3.7,0
						c1.1,0,1.9,0.7,1.9,1.6l0.3,12.7C-1322.8,1711-1323.6,1711.7-1324.6,1711.7"/>
					<g class="st43">
						<g>
							<defs>
								
									<rect id="SVGID_25_" x="-1337.9" y="1702.1" transform="matrix(9.019782e-03 -1 1 9.019782e-03 -3018.4666 361.8209)" width="22.4" height="3.5"/>
							</defs>
							<clipPath id="SVGID_26_">
								<use xlink:href="#SVGID_25_"  style="overflow:visible;"/>
							</clipPath>
							<path class="st44" d="M-1325,1712.6c0-0.6-0.6-1.1-1.3-1.1c-0.7,0-1.3,0.5-1.3,1.1c0,0.4,0.3,0.7,0.7,0.9l-0.5,1.4l2.5-0.1
								l-0.8-1.3C-1325.3,1713.5-1325,1713.1-1325,1712.6"/>
							<path class="st44" d="M-1325.7,1695c0,0.6-0.5,1.1-1.3,1.1c-0.7,0-1.3-0.5-1.3-1.1c0-0.4,0.2-0.7,0.6-0.9l-0.6-1.4l2.5,0
								l-0.7,1.3C-1326.1,1694.1-1325.7,1694.5-1325.7,1695"/>
						</g>
					</g>
				</g>
			</g>
		</g>
		<g>
			<polygon class="st40" points="-1313.5,1716.8 -1314.1,1690.9 -1299.5,1690.8 -1298.9,1716.8 			"/>
			<g class="st24">
				<g>
					<defs>
						
							<rect id="SVGID_27_" x="-1317.2" y="1699.3" transform="matrix(9.019782e-03 -1 1 9.019782e-03 -2997.594 382.8502)" width="23" height="9"/>
					</defs>
					<clipPath id="SVGID_28_">
						<use xlink:href="#SVGID_27_"  style="overflow:visible;"/>
					</clipPath>
					<path class="st45" d="M-1303.5,1715l-3.7,0c-1.1,0-1.9-0.7-1.9-1.6l-0.5-19.2c0-0.9,0.8-1.6,1.9-1.6l3.7,0
						c1.1,0,1.9,0.7,1.9,1.6l0.5,19.2C-1301.6,1714.3-1302.5,1715-1303.5,1715z"/>
					<path class="st46" d="M-1303.6,1711.7l-3.7,0c-1.1,0-1.9-0.7-1.9-1.6l-0.3-12.7c0-0.9,0.8-1.6,1.9-1.6l3.7,0
						c1.1,0,1.9,0.7,1.9,1.6l0.3,12.7C-1301.7,1711-1302.6,1711.7-1303.6,1711.7"/>
					<g class="st47">
						<g>
							<defs>
								
									<rect id="SVGID_29_" x="-1316.8" y="1702.1" transform="matrix(9.019782e-03 -1 1 9.019782e-03 -2997.6252 382.851)" width="22.4" height="3.5"/>
							</defs>
							<clipPath id="SVGID_30_">
								<use xlink:href="#SVGID_29_"  style="overflow:visible;"/>
							</clipPath>
							<path class="st48" d="M-1304,1712.6c0-0.6-0.6-1.1-1.3-1.1c-0.7,0-1.3,0.5-1.3,1.1c0,0.4,0.3,0.7,0.7,0.9l-0.5,1.4l2.5-0.1
								l-0.8-1.3C-1304.3,1713.5-1304,1713.1-1304,1712.6"/>
							<path class="st48" d="M-1304.7,1695c0,0.6-0.5,1.1-1.3,1.1c-0.7,0-1.3-0.5-1.3-1.1c0-0.4,0.2-0.7,0.6-0.9l-0.6-1.4l2.5,0
								l-0.7,1.3C-1305.1,1694.1-1304.7,1694.5-1304.7,1695"/>
						</g>
					</g>
				</g>
			</g>
		</g>
	</g>
	<g>
		<g>
			<polygon class="st49" points="-1232.6,1654.9 -1233.1,1624.7 -1220.5,1624.6 -1220,1654.8 			"/>
			<g class="st24">
				<g>
					<defs>
						
							<rect id="SVGID_31_" x="-1239.2" y="1635.9" transform="matrix(9.019891e-03 -1 1 9.019891e-03 -2854.4067 399.2048)" width="26.8" height="7.7"/>
					</defs>
					<clipPath id="SVGID_32_">
						<use xlink:href="#SVGID_31_"  style="overflow:visible;"/>
					</clipPath>
					<path class="st50" d="M-1224,1652.7l-3.2,0c-0.9,0-1.7-0.8-1.7-1.9l-0.4-22.3c0-1,0.7-1.9,1.6-1.9l3.2,0c0.9,0,1.7,0.8,1.7,1.8
						l0.4,22.3C-1222.4,1651.9-1223.1,1652.7-1224,1652.7z"/>
					<path class="st51" d="M-1224.1,1649l-3.2,0c-0.9,0-1.7-0.8-1.7-1.9l-0.2-14.7c0-1,0.7-1.9,1.6-1.9l3.2,0c0.9,0,1.7,0.8,1.7,1.9
						l0.2,14.7C-1222.4,1648.1-1223.2,1649-1224.1,1649"/>
					<g class="st52">
						<g>
							<defs>
								
									<rect id="SVGID_33_" x="-1238.8" y="1638.3" transform="matrix(9.019891e-03 -1 1 9.019891e-03 -2854.4385 399.2103)" width="26" height="3"/>
							</defs>
							<clipPath id="SVGID_34_">
								<use xlink:href="#SVGID_33_"  style="overflow:visible;"/>
							</clipPath>
							<path class="st53" d="M-1224.4,1650c0-0.7-0.5-1.3-1.1-1.3c-0.6,0-1.1,0.6-1.1,1.3c0,0.5,0.2,0.9,0.6,1.1l-0.5,1.7l2.1-0.1
								l-0.7-1.5C-1224.7,1651-1224.4,1650.5-1224.4,1650"/>
							<path class="st53" d="M-1224.9,1629.5c0,0.7-0.5,1.3-1.1,1.3c-0.6,0-1.1-0.5-1.2-1.2c0-0.5,0.2-0.9,0.5-1.1l-0.5-1.7l2.1,0
								l-0.6,1.5C-1225.3,1628.5-1225,1628.9-1224.9,1629.5"/>
						</g>
					</g>
				</g>
			</g>
		</g>
		<g>
			<polygon class="st49" points="-1232.6,1698.6 -1233.1,1668.5 -1220.5,1668.4 -1220,1698.5 			"/>
			<g class="st24">
				<g>
					<defs>
						
							<rect id="SVGID_35_" x="-1239.2" y="1679.6" transform="matrix(9.019891e-03 -1 1 9.019891e-03 -2898.1582 442.5635)" width="26.8" height="7.7"/>
					</defs>
					<clipPath id="SVGID_36_">
						<use xlink:href="#SVGID_35_"  style="overflow:visible;"/>
					</clipPath>
					<path class="st54" d="M-1224,1696.5l-3.2,0c-0.9,0-1.7-0.8-1.7-1.9l-0.4-22.3c0-1,0.7-1.9,1.6-1.9l3.2,0c0.9,0,1.7,0.8,1.7,1.8
						l0.4,22.3C-1222.4,1695.6-1223.1,1696.5-1224,1696.5z"/>
					<path class="st55" d="M-1224.1,1692.7l-3.2,0c-0.9,0-1.7-0.8-1.7-1.9l-0.2-14.7c0-1,0.7-1.9,1.6-1.9l3.2,0
						c0.9,0,1.7,0.8,1.7,1.9l0.2,14.7C-1222.4,1691.9-1223.2,1692.7-1224.1,1692.7"/>
					<g class="st56">
						<g>
							<defs>
								
									<rect id="SVGID_37_" x="-1238.8" y="1682" transform="matrix(9.019891e-03 -1 1 9.019891e-03 -2898.1902 442.5691)" width="26" height="3"/>
							</defs>
							<clipPath id="SVGID_38_">
								<use xlink:href="#SVGID_37_"  style="overflow:visible;"/>
							</clipPath>
							<path class="st57" d="M-1224.4,1693.7c0-0.7-0.5-1.3-1.1-1.3c-0.6,0-1.1,0.6-1.1,1.3c0,0.5,0.2,0.9,0.6,1.1l-0.5,1.7l2.1-0.1
								l-0.7-1.5C-1224.7,1694.7-1224.4,1694.3-1224.4,1693.7"/>
							<path class="st57" d="M-1224.9,1673.2c0,0.7-0.5,1.3-1.1,1.3c-0.6,0-1.1-0.5-1.2-1.2c0-0.5,0.2-0.9,0.5-1.1l-0.5-1.7l2.1,0
								l-0.6,1.5C-1225.3,1672.2-1225,1672.7-1224.9,1673.2"/>
						</g>
					</g>
				</g>
			</g>
		</g>
		<g>
			<polygon class="st49" points="-1232.6,1750.4 -1233.1,1720.2 -1220.5,1720.1 -1220,1750.3 			"/>
			<g class="st24">
				<g>
					<defs>
						
							<rect id="SVGID_39_" x="-1239.2" y="1731.4" transform="matrix(9.019891e-03 -1 1 9.019891e-03 -2949.9172 493.8578)" width="26.8" height="7.7"/>
					</defs>
					<clipPath id="SVGID_40_">
						<use xlink:href="#SVGID_39_"  style="overflow:visible;"/>
					</clipPath>
					<path class="st58" d="M-1224,1748.2l-3.2,0c-0.9,0-1.7-0.8-1.7-1.9l-0.4-22.3c0-1,0.7-1.9,1.6-1.9l3.2,0c0.9,0,1.7,0.8,1.7,1.8
						l0.4,22.3C-1222.4,1747.4-1223.1,1748.2-1224,1748.2z"/>
					<path class="st59" d="M-1224.1,1744.5l-3.2,0c-0.9,0-1.7-0.8-1.7-1.9l-0.2-14.7c0-1,0.7-1.9,1.6-1.9l3.2,0
						c0.9,0,1.7,0.8,1.7,1.9l0.2,14.7C-1222.4,1743.6-1223.2,1744.5-1224.1,1744.5"/>
					<g class="st60">
						<g>
							<defs>
								
									<rect id="SVGID_41_" x="-1238.8" y="1733.8" transform="matrix(9.019891e-03 -1 1 9.019891e-03 -2949.9492 493.8633)" width="26" height="3"/>
							</defs>
							<clipPath id="SVGID_42_">
								<use xlink:href="#SVGID_41_"  style="overflow:visible;"/>
							</clipPath>
							<path class="st61" d="M-1224.4,1745.5c0-0.7-0.5-1.3-1.1-1.3c-0.6,0-1.1,0.6-1.1,1.3c0,0.5,0.2,0.9,0.6,1.1l-0.5,1.7l2.1-0.1
								l-0.7-1.5C-1224.7,1746.5-1224.4,1746-1224.4,1745.5"/>
							<path class="st61" d="M-1224.9,1725c0,0.7-0.5,1.3-1.1,1.3c-0.6,0-1.1-0.5-1.2-1.2c0-0.5,0.2-0.9,0.5-1.1l-0.5-1.7l2.1,0
								l-0.6,1.5C-1225.3,1724-1225,1724.5-1224.9,1725"/>
						</g>
					</g>
				</g>
			</g>
		</g>
	</g>
	<g>
		<path class="st6" d="M-1299.1,1889.3h-64.4c-1.9,0-3.4-1.5-3.4-3.4v-77.3c0-1.9,1.5-3.4,3.4-3.4h64.4c1.9,0,3.4,1.5,3.4,3.4v77.3
			C-1295.6,1887.7-1297.2,1889.3-1299.1,1889.3z"/>
		<g>
			<g>
				<ellipse class="st33" cx="-1331.7" cy="1845.6" rx="35.1" ry="35.6"/>
				<ellipse class="st6" cx="-1331.7" cy="1845.6" rx="29.9" ry="30.3"/>
			</g>
		</g>
		<g>
			<path class="st3" d="M-1340.8,1864.3l-0.3-2.9c1.6,0,3.2-0.3,4.4-1.4c1.4-1.3,1.7-2.9,0.6-4.1c-1.3-1.4-2.8-1.5-5.9,1.3l-1.8-2
				c2.6-2.3,2.6-4,1.4-5.2c-1-1.1-2.3-1.1-3.5,0c-1,0.9-1.4,2.1-1.5,3.7l-3-0.4c0.2-2.2,1-4,2.6-5.5c2.7-2.5,5.7-2.8,7.9-0.4
				c1.4,1.5,1.5,3.4,0.6,5.3l0.1,0.1c2-1,4.2-1,5.9,0.9c2.3,2.6,1.5,6.1-1.2,8.5C-1336.5,1864-1338.8,1864.5-1340.8,1864.3z"/>
			<path class="st3" d="M-1329.7,1854.1l-0.3-2.9c1.6,0,3.2-0.3,4.4-1.4c1.4-1.3,1.7-2.9,0.6-4.1c-1.3-1.4-2.8-1.5-5.9,1.3l-1.8-2
				c2.6-2.3,2.6-4,1.4-5.2c-1-1.1-2.3-1.1-3.5,0c-1,0.9-1.4,2.1-1.5,3.7l-3-0.4c0.2-2.2,1-4,2.6-5.5c2.7-2.5,5.7-2.8,7.9-0.4
				c1.4,1.5,1.5,3.4,0.6,5.3l0.1,0.1c2-1,4.2-1,5.9,0.9c2.3,2.6,1.5,6.1-1.2,8.5C-1325.5,1853.8-1327.7,1854.4-1329.7,1854.1z"/>
			<path class="st3" d="M-1318.1,1842.4l3-2.7l-8.1-8.8l-2.5,2.3l-1.6-1.7c1.1-1.5,1.8-2.8,2.2-4.1l2-1.9l10.7,11.6l2.6-2.4l2.1,2.2
				l-8.3,7.7L-1318.1,1842.4z"/>
		</g>
	</g>
	<g>
		<path class="st3" d="M-1015.5,1845.8l0.7,11.2c0.1,1.8-1.2,2.7-2.3,3.5c-0.1,0-0.1,0.1-0.2,0.2c-0.1,0.1-0.2,0.1-0.2,0.2l-7.5,5.7
			c-0.8,0.6-1.7,0.8-2.7,0.7c-1-0.1-1.8-0.6-2.4-1.4c-0.4-0.6-0.7-1.3-0.7-2c0-0.8,0.2-1.7,0.7-2.3l-13.9,0.8
			c-2,0.1-3.7-1.3-3.8-3.2c-0.1-1.9,1.4-3.5,3.4-3.7l5-0.3c-0.3-0.4-0.5-0.9-0.5-1.5c-0.1-1.1,0.5-2,1.4-2.7
			c-0.5-0.5-0.8-1.2-0.9-1.9c-0.1-1.3,0.7-2.4,2-3c-0.2-0.4-0.3-0.8-0.4-1.2c-0.1-1.8,1.4-3.3,3.4-3.4l10.9-0.6
			C-1019.7,1840.8-1015.6,1843.5-1015.5,1845.8 M-1029.4,1863.9c0,0.4,0.2,0.8,0.4,1.2c0.3,0.5,0.9,0.8,1.4,0.8
			c0.6,0.1,1.2-0.1,1.6-0.4l7.5-5.7c0.1,0,0.1-0.1,0.2-0.2c0.1-0.1,0.2-0.1,0.2-0.2l0,0c1.2-0.9,1.8-1.4,1.7-2.3l-0.7-11.2
			c-0.1-1.2-3.2-3.6-6.6-3.4l-10.9,0.6c-1.2,0.1-2.1,0.9-2.1,1.8c0,0.4,0.3,0.8,0.6,1.1l1.4,1.1l-1.7,0.2c-1.1,0.2-1.9,1-1.9,1.8
			c0,0.6,0.5,1.1,1.1,1.4l1.9,0.8l-2,0.6c-0.9,0.3-1.6,1-1.5,1.8c0,0.6,0.6,1.2,1.3,1.5l3.6,1.2l-10.7,0.6c-1.2,0.1-2.1,1-2.1,2.1
			c0.1,1.1,1.1,1.9,2.3,1.9l18.4-1.1l-2.7,2.1C-1029.2,1862.5-1029.5,1863.2-1029.4,1863.9"/>
		<g>
			<circle class="st62" cx="-1031.4" cy="1854.2" r="22.3"/>
			<line class="st62" x1="-1010" y1="1846.7" x2="-1051.3" y2="1861.7"/>
		</g>
	</g>
</g>
<g>
	<g>
		<g>
			<path class="st63" d="M150.3,143.7l-18.9,0l0-15.7c0-4.5-3.4-8.1-7.5-8.1l-69,0.1c-4.1,0-7.5,3.7-7.5,8.2l0.2,158.3
				c0,4.5,3.4,8.1,7.5,8.1l69-0.1c4.1,0,7.5-3.7,7.5-8.2l0-15.7l18.9,0c4.1,0,7.5-3.7,7.5-8.2l-0.1-110.6
				C157.8,147.3,154.4,143.7,150.3,143.7z"/>
			<path class="st64" d="M95.9,160.4l-9.9,0c-1.8,0-3.3-1.5-3.3-3.3l0-11.3c0-1.8,1.5-3.3,3.3-3.3l9.9,0c1.8,0,3.3,1.5,3.3,3.3
				l0,11.3C99.2,158.9,97.8,160.4,95.9,160.4z"/>
			<path class="st64" d="M96,197.5l-9.9,0c-1.8,0-3.3-1.5-3.3-3.3l0-11.3c0-1.8,1.5-3.3,3.3-3.3l9.9,0c1.8,0,3.3,1.5,3.3,3.3l0,11.3
				C99.3,196.1,97.8,197.5,96,197.5z"/>
			<path class="st64" d="M96,234.6l-9.9,0c-1.8,0-3.3-1.5-3.3-3.3l0-11.3c0-1.8,1.5-3.3,3.3-3.3l9.9,0c1.8,0,3.3,1.5,3.3,3.3l0,11.3
				C99.3,233.2,97.8,234.6,96,234.6z"/>
			<path class="st64" d="M96.1,271.8l-9.9,0c-1.8,0-3.3-1.5-3.3-3.3l0-11.3c0-1.8,1.5-3.3,3.3-3.3l9.9,0c1.8,0,3.3,1.5,3.3,3.3
				l0,11.3C99.4,270.3,97.9,271.8,96.1,271.8z"/>
		</g>
		<g>
			<g>
				<g class="st10">
					<g>
						<defs>
							<rect id="SVGID_43_" x="291.4" y="155.6" width="73.2" height="55.3"/>
						</defs>
						<clipPath id="SVGID_44_">
							<use xlink:href="#SVGID_43_"  style="overflow:visible;"/>
						</clipPath>
						<path class="st65" d="M364.5,164.9l0,36.9c0,5.1-4.4,9.2-9.9,9.2l-53.5,0c-5.4,0-9.9-4.1-9.9-9.2l0-36.9
							c0-5.1,4.4-9.2,9.9-9.2l53.5,0C360.1,155.6,364.5,159.8,364.5,164.9"/>
					</g>
				</g>
				<path class="st66" d="M364.5,164.9l0,36.9c0,5.1-4.4,9.2-9.9,9.2l-53.5,0c-5.4,0-9.9-4.1-9.9-9.2l0-36.9c0-5.1,4.4-9.2,9.9-9.2
					l53.5,0C360.1,155.6,364.5,159.8,364.5,164.9z"/>
				<path class="st3" d="M302.1,155.1l0-7.9c0-0.3,0.2-0.5,0.5-0.5l0.5,0c0.3,0,0.5-0.2,0.5-0.5l0-12.7c0-0.3,0.2-0.5,0.5-0.5l3,0
					c0.3,0,0.5,0.2,0.5,0.5l0,13c0,0.3-0.2,0.5-0.5,0.5c-0.3,0-0.5,0.3-0.5,0.5l0,7.6c0,0.3-0.2,0.5-0.5,0.5l-3.6,0
					C302.4,155.7,302.1,155.4,302.1,155.1"/>
				<path class="st3" d="M318.1,155.1l0-7.9c0-0.3,0.2-0.5,0.5-0.5l0.5,0c0.3,0,0.5-0.2,0.5-0.5l0-12.7c0-0.3,0.2-0.5,0.5-0.5l3,0
					c0.3,0,0.5,0.2,0.5,0.5l0,13c0,0.3-0.2,0.5-0.5,0.5c-0.3,0-0.5,0.3-0.5,0.5l0,7.6c0,0.3-0.2,0.5-0.5,0.5l-3.6,0
					C318.3,155.6,318.1,155.4,318.1,155.1"/>
				<path class="st3" d="M334,155.1l0-7.9c0-0.3,0.2-0.5,0.5-0.5l0.5,0c0.3,0,0.5-0.2,0.5-0.5l0-12.7c0-0.3,0.2-0.5,0.5-0.5l3,0
					c0.3,0,0.5,0.2,0.5,0.5l0,13c0,0.3-0.2,0.5-0.5,0.5c-0.3,0-0.5,0.3-0.5,0.5l0,7.6c0,0.3-0.2,0.5-0.5,0.5l-3.6,0
					C334.2,155.6,334,155.4,334,155.1"/>
				<path class="st3" d="M350,155.1l0-7.9c0-0.3,0.2-0.5,0.5-0.5l0.5,0c0.3,0,0.5-0.2,0.5-0.5l0-12.7c0-0.3,0.2-0.5,0.5-0.5l3,0
					c0.3,0,0.5,0.2,0.5,0.5l0,13c0,0.3-0.2,0.5-0.5,0.5c-0.3,0-0.5,0.3-0.5,0.5l0,7.6c0,0.3-0.2,0.5-0.5,0.5l-3.6,0
					C350.2,155.6,350,155.4,350,155.1"/>
				<path class="st3" d="M302.1,211.6l0,7.9c0,0.3,0.2,0.5,0.5,0.5l0.5,0c0.3,0,0.5,0.2,0.5,0.5l0,12.7c0,0.3,0.2,0.5,0.5,0.5l3,0
					c0.3,0,0.5-0.2,0.5-0.5l0-13c0-0.3-0.2-0.5-0.5-0.5c-0.3,0-0.5-0.3-0.5-0.5l0-7.6c0-0.3-0.2-0.5-0.5-0.5l-3.6,0
					C302.4,211,302.1,211.3,302.1,211.6"/>
				<path class="st3" d="M318.1,211.6l0,7.9c0,0.3,0.2,0.5,0.5,0.5l0.5,0c0.3,0,0.5,0.2,0.5,0.5l0,12.7c0,0.3,0.2,0.5,0.5,0.5l3,0
					c0.3,0,0.5-0.2,0.5-0.5l0-13c0-0.3-0.2-0.5-0.5-0.5c-0.3,0-0.5-0.3-0.5-0.5l0-7.6c0-0.3-0.2-0.5-0.5-0.5l-3.6,0
					C318.3,211,318.1,211.3,318.1,211.6"/>
				<path class="st3" d="M334,211.6l0,7.9c0,0.3,0.2,0.5,0.5,0.5l0.5,0c0.3,0,0.5,0.2,0.5,0.5l0,12.7c0,0.3,0.2,0.5,0.5,0.5l3,0
					c0.3,0,0.5-0.2,0.5-0.5l0-13c0-0.3-0.2-0.5-0.5-0.5c-0.3,0-0.5-0.3-0.5-0.5l0-7.6c0-0.3-0.2-0.5-0.5-0.5l-3.6,0
					C334.2,211,334,211.3,334,211.6"/>
				<path class="st3" d="M350,211.6l0,7.9c0,0.3,0.2,0.5,0.5,0.5l0.5,0c0.3,0,0.5,0.2,0.5,0.5l0,12.7c0,0.3,0.2,0.5,0.5,0.5l3,0
					c0.3,0,0.5-0.2,0.5-0.5l0-13c0-0.3-0.2-0.5-0.5-0.5c-0.3,0-0.5-0.3-0.5-0.5l0-7.6c0-0.3-0.2-0.5-0.5-0.5l-3.6,0
					C350.2,211,350,211.3,350,211.6"/>
			</g>
			<g>
				<g>
					
						<rect x="288.2" y="97.8" transform="matrix(4.481932e-11 -1 1 4.481932e-11 199.842 414.883)" class="st67" width="38.3" height="19.5"/>
					<g class="st24">
						<path class="st68" d="M303.8,91l4.9,0c1.4,0,2.5,1.1,2.5,2.4l0,28.3c0,1.3-1.1,2.4-2.5,2.3l-4.9,0c-1.4,0-2.5-1.1-2.5-2.4
							l0-28.3C301.2,92.1,302.4,91,303.8,91z"/>
						<path class="st3" d="M303.8,95.8l4.9,0c1.4,0,2.5,1.1,2.5,2.4l0,18.7c0,1.3-1.1,2.4-2.5,2.3l-4.9,0c-1.4,0-2.5-1.1-2.5-2.4
							l0-18.7C301.2,96.9,302.4,95.8,303.8,95.8z"/>
						<g class="st24">
							<path class="st3" d="M304.3,94.5c0,0.9,0.8,1.6,1.7,1.6c1,0,1.7-0.7,1.7-1.6c0-0.6-0.3-1.1-0.8-1.4l0.7-2.1l-3.3,0.1l1,1.9
								C304.8,93.3,304.3,93.8,304.3,94.5z"/>
							<path class="st3" d="M304.7,120.5c0-0.9,0.8-1.6,1.7-1.6c1,0,1.7,0.7,1.8,1.6c0,0.6-0.3,1.1-0.8,1.4l0.8,2.1l-3.3-0.1l1-1.9
								C305.1,121.8,304.7,121.2,304.7,120.5z"/>
						</g>
					</g>
				</g>
				<g>
					
						<rect x="331.9" y="97.8" transform="matrix(4.486728e-11 -1 1 4.486728e-11 243.5172 458.5582)" class="st67" width="38.3" height="19.5"/>
					<g class="st24">
						<path class="st68" d="M347.5,91l4.9,0c1.4,0,2.5,1.1,2.5,2.4l0,28.3c0,1.3-1.1,2.4-2.5,2.3l-4.9,0c-1.4,0-2.5-1.1-2.5-2.4
							l0-28.3C344.9,92.1,346.1,91,347.5,91z"/>
						<path class="st3" d="M347.5,95.8l4.9,0c1.4,0,2.5,1.1,2.5,2.4l0,18.7c0,1.3-1.1,2.4-2.5,2.3l-4.9,0c-1.4,0-2.5-1.1-2.5-2.4
							l0-18.7C344.9,96.9,346.1,95.8,347.5,95.8z"/>
						<g class="st24">
							<path class="st3" d="M348,94.5c0,0.9,0.8,1.6,1.7,1.6c1,0,1.7-0.7,1.7-1.6c0-0.6-0.3-1.1-0.8-1.4l0.7-2.1l-3.3,0.1l1,1.9
								C348.5,93.3,348,93.8,348,94.5z"/>
							<path class="st3" d="M348.3,120.5c0-0.9,0.8-1.6,1.7-1.6c1,0,1.7,0.7,1.8,1.6c0,0.6-0.3,1.1-0.8,1.4l0.8,2.1l-3.3-0.1l1-1.9
								C348.8,121.8,348.4,121.2,348.3,120.5z"/>
						</g>
					</g>
				</g>
			</g>
			<g>
				<g>
					
						<rect x="312" y="257.9" transform="matrix(4.477225e-11 -1 1 4.477225e-11 63.4611 598.8158)" class="st67" width="38.3" height="19.5"/>
					<g class="st24">
						<path class="st68" d="M327.6,251.2l4.9,0c1.4,0,2.5,1.1,2.5,2.4l0,28.3c0,1.3-1.1,2.4-2.5,2.3l-4.9,0c-1.4,0-2.5-1.1-2.5-2.4
							l0-28.3C325,252.2,326.2,251.2,327.6,251.2z"/>
						<path class="st3" d="M327.6,256l4.9,0c1.4,0,2.5,1.1,2.5,2.4l0,18.7c0,1.3-1.1,2.4-2.5,2.3l-4.9,0c-1.4,0-2.5-1.1-2.5-2.4
							l0-18.7C325,257,326.2,256,327.6,256z"/>
						<g class="st24">
							<path class="st3" d="M328.1,254.7c0,0.9,0.8,1.6,1.7,1.6c1,0,1.7-0.7,1.7-1.6c0-0.6-0.3-1.1-0.8-1.4l0.7-2.1l-3.3,0.1l1,1.9
								C328.6,253.4,328.1,254,328.1,254.7z"/>
							<path class="st3" d="M328.4,280.7c0-0.9,0.8-1.6,1.7-1.6s1.7,0.7,1.8,1.6c0,0.6-0.3,1.1-0.8,1.4l0.8,2.1l-3.3-0.1l1-1.9
								C328.9,281.9,328.5,281.4,328.4,280.7z"/>
						</g>
					</g>
				</g>
				<g>
					
						<rect x="347" y="257.9" transform="matrix(4.481932e-11 -1 1 4.481932e-11 98.4197 633.7744)" class="st67" width="38.3" height="19.5"/>
					<g class="st24">
						<path class="st68" d="M362.5,251.2l4.9,0c1.4,0,2.5,1.1,2.5,2.4l0,28.3c0,1.3-1.1,2.4-2.5,2.3l-4.9,0c-1.4,0-2.5-1.1-2.5-2.4
							l0-28.3C360,252.2,361.1,251.2,362.5,251.2z"/>
						<path class="st3" d="M362.5,256l4.9,0c1.4,0,2.5,1.1,2.5,2.4l0,18.7c0,1.3-1.1,2.4-2.5,2.3l-4.9,0c-1.4,0-2.5-1.1-2.5-2.4
							l0-18.7C360,257,361.1,256,362.5,256z"/>
						<g class="st24">
							<path class="st3" d="M363.1,254.7c0,0.9,0.8,1.6,1.7,1.6c1,0,1.7-0.7,1.7-1.6c0-0.6-0.3-1.1-0.8-1.4l0.7-2.1l-3.3,0.1l1,1.9
								C363.5,253.4,363.1,254,363.1,254.7z"/>
							<path class="st3" d="M363.4,280.7c0-0.9,0.8-1.6,1.7-1.6c1,0,1.7,0.7,1.8,1.6c0,0.6-0.3,1.1-0.8,1.4l0.8,2.1l-3.3-0.1l1-1.9
								C363.9,281.9,363.4,281.4,363.4,280.7z"/>
						</g>
					</g>
				</g>
				<g>
					<path class="st3" d="M286.1,254.1c0,0.1,0,0.2,0,0.4c0,0.1,0,0.2,0,0.2l-0.2,23.7c0,0.1,0,0.2,0.1,0.3
						c-0.1,0.2-0.1,0.3-0.1,0.5c0,1,0.9,1.9,2.3,2.6c0.3,0.1,0.7,0.2,1.2,0.2l13.4,0.1c0.5,0,0.9-0.1,1.2-0.2
						c1.5-0.7,2.3-1.6,2.3-2.6c0-0.2,0-0.3-0.1-0.5c0.1-0.1,0.1-0.2,0.1-0.3l0.2-23.7c0-0.1,0-0.2,0-0.2c0-0.1,0-0.2,0-0.4
						c0-1-0.9-2-2.5-2.7c-0.3-0.1-0.8-0.2-1.2-0.2l-12.9-0.1c-0.5,0-0.9,0.1-1.2,0.2C287,252.2,286.1,253.1,286.1,254.1z"/>
					
						<ellipse transform="matrix(6.446336e-03 -1 1 6.446336e-03 10.5925 577.5987)" class="st69" cx="296" cy="283.5" rx="2.4" ry="5.2"/>
					<path class="st70" d="M304.3,249.3l-0.2,36.9c0,1.2-1,2.1-2.1,2.1l-11.8-0.1c-1.2,0-2.1-1-2.1-2.1l0.2-36.9
						c0-1.2,1-2.1,2.1-2.1l11.8,0.1C303.4,247.1,304.3,248.1,304.3,249.3z"/>
				</g>
			</g>
			<g>
				<g>
					
						<rect x="223.2" y="127.6" transform="matrix(4.481932e-11 -1 1 4.481932e-11 105.0531 379.6203)" class="st67" width="38.3" height="19.5"/>
					<g class="st24">
						<path class="st68" d="M238.8,120.8l4.9,0c1.4,0,2.5,1.1,2.5,2.4l0,28.3c0,1.3-1.1,2.4-2.5,2.3l-4.9,0c-1.4,0-2.5-1.1-2.5-2.4
							l0-28.3C236.2,121.8,237.4,120.8,238.8,120.8z"/>
						<path class="st3" d="M238.8,125.6l4.9,0c1.4,0,2.5,1.1,2.5,2.4l0,18.7c0,1.3-1.1,2.4-2.5,2.3l-4.9,0c-1.4,0-2.5-1.1-2.5-2.4
							l0-18.7C236.2,126.6,237.4,125.6,238.8,125.6z"/>
						<g class="st24">
							<path class="st3" d="M239.3,124.3c0,0.9,0.8,1.6,1.7,1.6s1.7-0.7,1.7-1.6c0-0.6-0.3-1.1-0.8-1.4l0.7-2.1l-3.3,0.1l1,1.9
								C239.8,123,239.3,123.6,239.3,124.3z"/>
							<path class="st3" d="M239.6,150.3c0-0.9,0.8-1.6,1.7-1.6c1,0,1.7,0.7,1.8,1.6c0,0.6-0.3,1.1-0.8,1.4l0.8,2.1l-3.3-0.1l1-1.9
								C240.1,151.6,239.6,151,239.6,150.3z"/>
						</g>
					</g>
				</g>
				<g>
					
						<rect x="223.2" y="181.4" transform="matrix(4.481932e-11 -1 1 4.481932e-11 51.2507 433.4227)" class="st67" width="38.3" height="19.5"/>
					<g class="st24">
						<path class="st68" d="M238.8,174.6l4.9,0c1.4,0,2.5,1.1,2.5,2.4l0,28.3c0,1.3-1.1,2.4-2.5,2.3l-4.9,0c-1.4,0-2.5-1.1-2.5-2.4
							l0-28.3C236.2,175.6,237.4,174.6,238.8,174.6z"/>
						<path class="st3" d="M238.8,179.4l4.9,0c1.4,0,2.5,1.1,2.5,2.4l0,18.7c0,1.3-1.1,2.4-2.5,2.3l-4.9,0c-1.4,0-2.5-1.1-2.5-2.4
							l0-18.7C236.2,180.4,237.4,179.4,238.8,179.4z"/>
						<g class="st24">
							<path class="st3" d="M239.3,178.1c0,0.9,0.8,1.6,1.7,1.6s1.7-0.7,1.7-1.6c0-0.6-0.3-1.1-0.8-1.4l0.7-2.1l-3.3,0.1l1,1.9
								C239.8,176.8,239.3,177.4,239.3,178.1z"/>
							<path class="st3" d="M239.6,204.1c0-0.9,0.8-1.6,1.7-1.6c1,0,1.7,0.7,1.8,1.6c0,0.6-0.3,1.1-0.8,1.4l0.8,2.1l-3.3-0.1l1-1.9
								C240.1,205.4,239.6,204.8,239.6,204.1z"/>
						</g>
					</g>
				</g>
				<g>
					
						<rect x="223.2" y="235.2" transform="matrix(4.481932e-11 -1 1 4.481932e-11 -2.5517 487.2251)" class="st67" width="38.3" height="19.5"/>
					<g class="st24">
						<path class="st68" d="M238.8,228.4l4.9,0c1.4,0,2.5,1.1,2.5,2.4l0,28.3c0,1.3-1.1,2.4-2.5,2.3l-4.9,0c-1.4,0-2.5-1.1-2.5-2.4
							l0-28.3C236.2,229.4,237.4,228.4,238.8,228.4z"/>
						<path class="st3" d="M238.8,233.2l4.9,0c1.4,0,2.5,1.1,2.5,2.4l0,18.7c0,1.3-1.1,2.4-2.5,2.3l-4.9,0c-1.4,0-2.5-1.1-2.5-2.4
							l0-18.7C236.2,234.2,237.4,233.2,238.8,233.2z"/>
						<g class="st24">
							<path class="st3" d="M239.3,231.9c0,0.9,0.8,1.6,1.7,1.6c1,0,1.7-0.7,1.7-1.6c0-0.6-0.3-1.1-0.8-1.4l0.7-2.1l-3.3,0.1l1,1.9
								C239.8,230.6,239.3,231.2,239.3,231.9z"/>
							<path class="st3" d="M239.6,257.9c0-0.9,0.8-1.6,1.7-1.6c1,0,1.7,0.7,1.8,1.6c0,0.6-0.3,1.1-0.8,1.4l0.8,2.1l-3.3-0.1l1-1.9
								C240.1,259.2,239.6,258.6,239.6,257.9z"/>
						</g>
					</g>
				</g>
			</g>
		</g>
		<g>
			<g>
				<polygon class="st3" points="544.5,119 563.1,119 563.1,118.2 544.6,118.2 				"/>
				<polygon class="st3" points="544.6,117.3 563.1,117.4 563.1,116.6 544.6,116.5 				"/>
				<polygon class="st3" points="544.5,120.6 563,120.7 563,119.9 544.5,119.8 				"/>
				<path class="st3" d="M551.1,124.3l5.2,0c2.5,0,4.7-0.4,5.9-1.1l-16.9-0.1C546.4,123.8,548.5,124.3,551.1,124.3z"/>
				<path class="st3" d="M544.5,122.2C544.5,122.2,544.5,122.3,544.5,122.2l18.5,0.2c0,0,0-0.1,0-0.1l0-0.7l-18.5-0.1L544.5,122.2z"
					/>
				<path class="st3" d="M545.5,114l16.9,0.1c-1.1-0.6-3.3-1.1-5.8-1.1l-5.2,0C548.8,112.9,546.6,113.3,545.5,114z"/>
				<path class="st3" d="M544.6,114.9l0,0.7l18.5,0.1l0-0.7c0,0,0-0.1,0-0.1L544.6,114.9C544.7,114.8,544.6,114.9,544.6,114.9z"/>
			</g>
			<path class="st3" d="M599.9,69.8H442.5c-0.7,0-1.2-0.5-1.2-1.2l0,0c0-0.7,0.5-1.2,1.2-1.2h157.4c0.7,0,1.2,0.5,1.2,1.2l0,0
				C601.1,69.3,600.6,69.8,599.9,69.8z"/>
			<path class="st3" d="M599.9,147.9H442.5c-0.7,0-1.2,0.5-1.2,1.2v0c0,0.7,0.5,1.2,1.2,1.2h157.4c0.7,0,1.2-0.5,1.2-1.2v0
				C601.1,148.4,600.6,147.9,599.9,147.9z"/>
			<path class="st7" d="M558.9,92.4h-10.2c-2,0-3.6,0.7-3.6,1.7v14.6h17.3V94C562.5,93.1,560.9,92.4,558.9,92.4z"/>
			<path class="st7" d="M527.7,78.2c0-1.9-3.4-3.5-7.6-3.4c-4,0.1-7,1.8-7,3.6v24c0,0.6-1.1,1.1-2.4,1.1h-10.9
				c-1.3,0-2.4-0.5-2.4-1.1V78.2c0-1.9-3.4-3.5-7.6-3.4c-4,0.1-7,1.8-7,3.6v30.3h45V78.2z"/>
			<path class="st7" d="M482.8,140.2c0,1.9,3.4,3.5,7.6,3.4c4-0.1,7-1.8,7-3.6v-24c0-0.6,1.1-1.1,2.4-1.1h10.9
				c1.3,0,2.4,0.5,2.4,1.1v24c0,1.9,3,3.5,7,3.6c4.2,0.1,7.6-1.5,7.6-3.4V111h-45V140.2z"/>
			<path class="st7" d="M545.2,125.6c0,0.9,1.6,1.7,3.6,1.7h10.2c2,0,3.6-0.7,3.6-1.7V111h-17.3V125.6z"/>
			<path class="st3" d="M562.5,125.6c0,0.9-1.6,1.7-3.6,1.7h-10.2c-2,0-3.6-0.7-3.6-1.7V111h-17.4v29.2c0,1.9-3.4,3.5-7.6,3.4
				c-4-0.1-7-1.8-7-3.6v-24c0-0.6-1.1-1.1-2.4-1.1h-10.9c-1.3,0-2.4,0.5-2.4,1.1v24c0,1.9-3,3.5-7,3.6c-4.2,0.1-7.6-1.5-7.6-3.4V111
				h-29.3v40.9c0,0.7,1.3,1.4,2.9,1.4h26c1.6,0,2.9,0.6,2.9,1.4v4.5c0,0.7,1.3,1.4,2.9,1.4h34.1c1.6,0,2.9-0.6,2.9-1.4v-4.5
				c0-0.7,1.3-1.4,2.9-1.4h26c1.6,0,2.9-0.6,2.9-1.4v-21.3h16.2V111h-10.8V125.6z"/>
			<path class="st3" d="M482.8,78.4c0-1.9,3-3.5,7-3.6c4.2-0.1,7.6,1.5,7.6,3.4v24.3c0,0.6,1.1,1.1,2.4,1.1h10.9
				c1.3,0,2.4-0.5,2.4-1.1v-24c0-1.9,3-3.5,7-3.6c4.2-0.1,7.6,1.5,7.6,3.4v30.5h17.4V94c0-0.9,1.6-1.7,3.6-1.7h10.2
				c2,0,3.6,0.7,3.6,1.7v14.6h10.8V87.7H557V66.1c0-0.7-1.3-1.4-2.9-1.4h-26c-1.6,0-2.9-0.6-2.9-1.4v-4.2c0-0.7-1.3-1.4-2.9-1.4
				h-34.1c-1.6,0-2.9,0.6-2.9,1.4v4.2c0,0.7-1.3,1.4-2.9,1.4h-26c-1.6,0-2.9,0.6-2.9,1.4v42.5h29.3V78.4z"/>
			<path class="st3" d="M406.1,108.6c-1.4,0-2.6,0.5-2.6,1.2c0,0.7,1.2,1.2,2.6,1.2h47.4v-2.4H406.1z"/>
			<path class="st3" d="M598.5,108.6h-25.3v2.4h25.3c1.4,0,2.6-0.5,2.6-1.2C601.1,109.2,600,108.6,598.5,108.6z"/>
			<rect x="527.7" y="108.6" class="st3" width="17.4" height="2.4"/>
			<rect x="453.5" y="108.6" class="st3" width="29.3" height="2.4"/>
			<rect x="562.5" y="108.6" class="st3" width="10.8" height="2.4"/>
			<g>
				<g>
					<polygon class="st71" points="611.2,72.2 665.7,72.3 665.6,85.1 611.1,85 					"/>
					<g class="st24">
						<path class="st72" d="M614.8,81l0-3.2c0-0.9,1.5-1.7,3.4-1.7l40.3,0.1c1.9,0,3.3,0.8,3.3,1.7l0,3.2c0,0.9-1.5,1.7-3.4,1.7
							l-40.3-0.1C616.3,82.7,614.8,81.9,614.8,81z"/>
						<path class="st3" d="M621.7,81l0-3.2c0-0.9,1.5-1.7,3.4-1.7l26.6,0c1.9,0,3.3,0.8,3.3,1.7l0,3.2c0,0.9-1.5,1.7-3.4,1.7
							l-26.6,0C623.1,82.7,621.6,81.9,621.7,81z"/>
						<g class="st24">
							<path class="st3" d="M619.8,80.6c1.3,0,2.3-0.5,2.3-1.1s-1-1.1-2.3-1.1c-0.8,0-1.6,0.2-2,0.6l-3-0.5l0.1,2.2l2.7-0.7
								C618,80.3,618.9,80.6,619.8,80.6z"/>
							<path class="st3" d="M656.9,80.5c-1.3,0-2.3-0.5-2.3-1.1c0-0.6,1-1.1,2.3-1.2c0.8,0,1.6,0.2,2,0.6l3-0.5l-0.1,2.2l-2.7-0.7
								C658.7,80.2,657.8,80.5,656.9,80.5z"/>
						</g>
					</g>
				</g>
				<g>
					<polygon class="st71" points="611.2,87.1 665.7,87.2 665.6,100 611.1,99.9 					"/>
					<g class="st24">
						<path class="st72" d="M614.8,95.9l0-3.2c0-0.9,1.5-1.7,3.4-1.7l40.3,0.1c1.9,0,3.3,0.8,3.3,1.7l0,3.2c0,0.9-1.5,1.7-3.4,1.7
							l-40.3-0.1C616.3,97.5,614.8,96.8,614.8,95.9z"/>
						<path class="st3" d="M621.7,95.9l0-3.2c0-0.9,1.5-1.7,3.4-1.7l26.6,0c1.9,0,3.3,0.8,3.3,1.7l0,3.2c0,0.9-1.5,1.7-3.4,1.7
							l-26.6,0C623.1,97.6,621.6,96.8,621.7,95.9z"/>
						<g class="st24">
							<path class="st3" d="M619.8,95.5c1.3,0,2.3-0.5,2.3-1.1s-1-1.1-2.3-1.1c-0.8,0-1.6,0.2-2,0.6l-3-0.5l0.1,2.2l2.7-0.7
								C618,95.2,618.9,95.5,619.8,95.5z"/>
							<path class="st3" d="M656.9,95.3c-1.3,0-2.3-0.5-2.3-1.1c0-0.6,1-1.1,2.3-1.2c0.8,0,1.6,0.2,2,0.6l3-0.5l-0.1,2.2l-2.7-0.7
								C658.7,95,657.8,95.3,656.9,95.3z"/>
						</g>
					</g>
				</g>
				<g>
					<polygon class="st71" points="611.2,102 665.7,102 665.6,114.9 611.1,114.8 					"/>
					<g class="st24">
						<path class="st72" d="M614.8,110.7l0-3.2c0-0.9,1.5-1.7,3.4-1.7l40.3,0.1c1.9,0,3.3,0.8,3.3,1.7l0,3.2c0,0.9-1.5,1.7-3.4,1.7
							l-40.3-0.1C616.3,112.4,614.8,111.7,614.8,110.7z"/>
						<path class="st3" d="M621.7,110.8l0-3.2c0-0.9,1.5-1.7,3.4-1.7l26.6,0c1.9,0,3.3,0.8,3.3,1.7l0,3.2c0,0.9-1.5,1.7-3.4,1.7
							l-26.6,0C623.1,112.4,621.6,111.7,621.7,110.8z"/>
						<g class="st24">
							<path class="st3" d="M619.8,110.4c1.3,0,2.3-0.5,2.3-1.1s-1-1.1-2.3-1.1c-0.8,0-1.6,0.2-2,0.6l-3-0.5l0.1,2.2l2.7-0.7
								C618,110.1,618.9,110.4,619.8,110.4z"/>
							<path class="st3" d="M656.9,110.2c-1.3,0-2.3-0.5-2.3-1.1c0-0.6,1-1.1,2.3-1.2c0.8,0,1.6,0.2,2,0.6l3-0.5l-0.1,2.2l-2.7-0.7
								C658.7,109.9,657.8,110.2,656.9,110.2z"/>
						</g>
					</g>
				</g>
				<g>
					<polygon class="st71" points="611.2,116.8 665.7,116.9 665.6,129.8 611.1,129.7 					"/>
					<g class="st24">
						<path class="st72" d="M614.8,125.6l0-3.2c0-0.9,1.5-1.7,3.4-1.7l40.3,0.1c1.9,0,3.3,0.8,3.3,1.7l0,3.2c0,0.9-1.5,1.7-3.4,1.7
							l-40.3-0.1C616.3,127.3,614.8,126.6,614.8,125.6z"/>
						<path class="st3" d="M621.7,125.6l0-3.2c0-0.9,1.5-1.7,3.4-1.7l26.6,0c1.9,0,3.3,0.8,3.3,1.7l0,3.2c0,0.9-1.5,1.7-3.4,1.7
							l-26.6,0C623.1,127.3,621.6,126.6,621.7,125.6z"/>
						<g class="st24">
							<path class="st3" d="M619.8,125.3c1.3,0,2.3-0.5,2.3-1.1s-1-1.1-2.3-1.1c-0.8,0-1.6,0.2-2,0.6l-3-0.5l0.1,2.2l2.7-0.7
								C618,125,618.9,125.3,619.8,125.3z"/>
							<path class="st3" d="M656.9,125.1c-1.3,0-2.3-0.5-2.3-1.1c0-0.6,1-1.1,2.3-1.2c0.8,0,1.6,0.2,2,0.6l3-0.5l-0.1,2.2l-2.7-0.7
								C658.7,124.8,657.8,125.1,656.9,125.1z"/>
						</g>
					</g>
				</g>
				<g>
					<polygon class="st71" points="611.2,131.7 665.7,131.8 665.6,144.7 611.1,144.6 					"/>
					<g class="st24">
						<path class="st72" d="M614.8,140.5l0-3.2c0-0.9,1.5-1.7,3.4-1.7l40.3,0.1c1.9,0,3.3,0.8,3.3,1.7l0,3.2c0,0.9-1.5,1.7-3.4,1.7
							l-40.3-0.1C616.3,142.2,614.8,141.4,614.8,140.5z"/>
						<path class="st3" d="M621.7,140.5l0-3.2c0-0.9,1.5-1.7,3.4-1.7l26.6,0c1.9,0,3.3,0.8,3.3,1.7l0,3.2c0,0.9-1.5,1.7-3.4,1.7
							l-26.6,0C623.1,142.2,621.6,141.4,621.7,140.5z"/>
						<g class="st24">
							<path class="st3" d="M619.8,140.2c1.3,0,2.3-0.5,2.3-1.1c0-0.6-1-1.1-2.3-1.1c-0.8,0-1.6,0.2-2,0.6l-3-0.5l0.1,2.2l2.7-0.7
								C618,139.9,618.9,140.2,619.8,140.2z"/>
							<path class="st3" d="M656.9,140c-1.3,0-2.3-0.5-2.3-1.1c0-0.6,1-1.1,2.3-1.2c0.8,0,1.6,0.2,2,0.6l3-0.5l-0.1,2.2l-2.7-0.7
								C658.7,139.7,657.8,140,656.9,140z"/>
						</g>
					</g>
				</g>
			</g>
		</g>
		<g>
			<g>
				<defs>
					<path id="SVGID_45_" d="M681.8,330.9H461.7c-5,0-9.1-4.1-9.1-9.1V194.3c0-5,4.1-9.1,9.1-9.1h202.2c2.3,0,4.6,0.9,6.3,2.5l8.5,8
						c0.2,0.2,0.4,0.3,0.6,0.5l8.3,6.7c2.2,1.7,3.4,4.4,3.4,7.1v111.8C690.9,326.8,686.8,330.9,681.8,330.9z"/>
				</defs>
				<clipPath id="SVGID_46_">
					<use xlink:href="#SVGID_45_"  style="overflow:visible;"/>
				</clipPath>
				<path class="st73" d="M681.8,330.9H461.7c-5,0-9.1-4.1-9.1-9.1V194.3c0-5,4.1-9.1,9.1-9.1h202.2c2.3,0,4.6,0.9,6.3,2.5l8.5,8
					c0.2,0.2,0.4,0.3,0.6,0.5l8.3,6.7c2.2,1.7,3.4,4.4,3.4,7.1v111.8C690.9,326.8,686.8,330.9,681.8,330.9z"/>
				<rect x="452.5" y="315.5" class="st74" width="238.4" height="15.4"/>
			</g>
			<g>
				<g>
					<path class="st3" d="M515.3,288.2c16.7,0,30.2-13.5,30.2-30.2c0-2.1-0.2-4.2-0.6-6.2l-53.2,25.1
						C497.2,283.8,505.7,288.2,515.3,288.2z"/>
					<path class="st3" d="M515.3,227.8c-16.7,0-30.2,13.5-30.2,30.2c0,2.1,0.2,4.2,0.6,6.2l53.2-25.1
						C533.3,232.3,524.8,227.8,515.3,227.8z"/>
				</g>
				<g>
					<path class="st3" d="M628.2,288.2c16.7,0,30.2-13.5,30.2-30.2c0-2.1-0.2-4.2-0.6-6.2l-53.2,25.1
						C610.1,283.8,618.6,288.2,628.2,288.2z"/>
					<path class="st3" d="M628.2,227.8c-16.7,0-30.2,13.5-30.2,30.2c0,2.1,0.2,4.2,0.6,6.2l53.2-25.1
						C646.2,232.3,637.7,227.8,628.2,227.8z"/>
				</g>
			</g>
		</g>
		<g>
			<circle class="st3" cx="210.7" cy="76.1" r="29.4"/>
			<circle class="st3" cx="210.7" cy="323.2" r="29.4"/>
		</g>
	</g>
	<path class="st0" d="M681.9,371.4H56.4c-22.6,0-40.9-18.3-40.9-40.9V68.8c0-22.6,18.3-40.9,40.9-40.9h625.5
		c22.6,0,40.9,18.3,40.9,40.9v261.7C722.8,353.1,704.5,371.4,681.9,371.4z"/>
</g>
</svg>
