<?xml version="1.0" encoding="utf-8"?>
<!-- Generator: Adobe Illustrator 21.0.0, SVG Export Plug-In . SVG Version: 6.00 Build 0)  -->
<svg version="1.1" id="图层_1" xmlns="http://www.w3.org/2000/svg" xmlns:xlink="http://www.w3.org/1999/xlink" x="0px" y="0px"
	 viewBox="0 0 480 400" style="enable-background:new 0 0 480 400;" xml:space="preserve">
<style type="text/css">
	.st0{fill:#FFFFFF;}
</style>
<g>
	<circle class="st0" cx="245.8" cy="228.5" r="92"/>
	<path class="st0" d="M266.1,260.6L266.1,260.6c-19,19-50.2,19-69.2,0L41.5,105.2c-19-19-19-50.2,0-69.2l0,0c19-19,50.2-19,69.2,0
		l155.4,155.4C285.1,210.5,285.1,241.6,266.1,260.6z"/>
	<path class="st0" d="M245.8,78.8c-11.8,0-23.6,1.4-35,4.1c-4.7,1.1-9.4,2.6-13.9,4.2l23.1,23.1c8.4-1.8,17.1-2.8,25.8-2.8
		c66.8,0,121.2,54.3,121.2,121.2s-54.3,121.2-121.2,121.2c-66.8,0-121.2-54.3-121.2-121.2c0-1.6,0.1-3.2,0.2-4.8L99.2,198
		c-0.6,2.8-1.1,5.5-1.5,8.3c-1.1,7.3-1.6,14.7-1.6,22.1c0,82.6,67.2,149.8,149.8,149.8c82.6,0,149.8-67.2,149.8-149.8
		S328.3,78.8,245.8,78.8z"/>
	<path class="st0" d="M299.5,105.9l69.2,69.2l69.8-69.8c19-19,19-50.2,0-69.2l0,0c-19-19-50.2-19-69.2,0L299.5,105.9z"/>
</g>
</svg>
