<?xml version="1.0" encoding="utf-8"?>
<!-- Generator: Adobe Illustrator 21.0.0, SVG Export Plug-In . SVG Version: 6.00 Build 0)  -->
<svg version="1.1" id="cat" xmlns="http://www.w3.org/2000/svg" xmlns:xlink="http://www.w3.org/1999/xlink" x="0px" y="0px"
	 width="95px" height="111px" viewBox="0 0 95 111" style="enable-background:new 0 0 95 111;" xml:space="preserve">
<style type="text/css">
	.st0{fill:#008FFF;}
	.st1{clip-path:url(#SVGID_2_);}
	.st2{fill:#00A4FF;}
	.st3{clip-path:url(#SVGID_4_);}
	.st4{fill:#007ED2;}
	.st5{fill:#DD6100;}
	.st6{fill:#FF7000;}
	.st7{fill:#FFD600;}
	.st8{clip-path:url(#SVGID_6_);}
	.st9{fill:#FFBA00;}
	.st10{fill:#FF4085;}
	.st11{fill:#D52171;}
	.st12{clip-path:url(#SVGID_8_);}
	.st13{fill:#DEE4EE;}
	.st14{clip-path:url(#SVGID_12_);}
	.st15{fill:#FFFFFF;}
	.st16{fill:#20386F;}
	.st17{clip-path:url(#SVGID_16_);}
	.st18{clip-path:url(#SVGID_18_);fill:#FF0080;}
	.st19{clip-path:url(#SVGID_18_);fill:#FF007F;}
	.st20{clip-path:url(#SVGID_18_);fill:#FF007E;}
	.st21{clip-path:url(#SVGID_18_);fill:#FF007C;}
	.st22{clip-path:url(#SVGID_18_);fill:#FF007B;}
	.st23{clip-path:url(#SVGID_18_);fill:#FF007A;}
	.st24{clip-path:url(#SVGID_18_);fill:#FF0079;}
	.st25{clip-path:url(#SVGID_18_);fill:#FF0078;}
	.st26{clip-path:url(#SVGID_18_);fill:#FF0077;}
	.st27{clip-path:url(#SVGID_18_);fill:#FF0076;}
	.st28{clip-path:url(#SVGID_18_);fill:#FF0075;}
	.st29{clip-path:url(#SVGID_18_);fill:#FF0073;}
	.st30{clip-path:url(#SVGID_18_);fill:#FF0072;}
	.st31{clip-path:url(#SVGID_18_);fill:#FF0071;}
	.st32{clip-path:url(#SVGID_18_);fill:#FF0070;}
	.st33{clip-path:url(#SVGID_18_);fill:#FF006F;}
	.st34{clip-path:url(#SVGID_18_);fill:#FF006E;}
	.st35{clip-path:url(#SVGID_18_);fill:#FF006D;}
	.st36{clip-path:url(#SVGID_18_);fill:#FF006C;}
	.st37{clip-path:url(#SVGID_18_);fill:#FF006A;}
	.st38{clip-path:url(#SVGID_18_);fill:#FF0069;}
	.st39{fill:#F30081;}
	.st40{fill:none;stroke:#FF0065;stroke-width:0.3545;stroke-linecap:round;stroke-miterlimit:10;}
	.st41{opacity:0.5;enable-background:new    ;}
	.st42{fill:#FF8AA0;}
	.st43{clip-path:url(#SVGID_21_);}
	.st44{clip-path:url(#SVGID_25_);}
</style>
<g>
	<g>
		<path class="st0" d="M41.3,80.4c-5.3,4.1-14.9,2.8-18.5,0.6c-3.6-2.2-1.1-4.7-1.1-4.7c-3.8-3.7-0.1-6.8-0.1-6.8
			c-1.7-2.1-2.5-5.4-1.7-7.4c0.8-2.2,4.6,2,10.6,4.4c5.9,2.3,15,3.5,15,3.5C50.7,70.3,46.6,76.3,41.3,80.4z"/>
	</g>
	<g>
		<g>
			<g>
				<g>
					<defs>
						<path id="SVGID_1_" d="M41.3,80.4c-5.3,4.1-14.9,2.8-18.5,0.6c-3.6-2.2-1.1-4.7-1.1-4.7c-3.8-3.7-0.1-6.8-0.1-6.8
							c-1.7-2.1-2.5-5.4-1.7-7.4c0.8-2.2,4.6,2,10.6,4.4c5.9,2.3,15,3.5,15,3.5C50.7,70.3,46.6,76.3,41.3,80.4z"/>
					</defs>
					<clipPath id="SVGID_2_">
						<use xlink:href="#SVGID_1_"  style="overflow:visible;"/>
					</clipPath>
					<g class="st1">
						<path class="st2" d="M19.2,59.3l-7.8,19L24,82.2c-3.1-2.5,0.7-4.8,0.7-4.8c-4.6-2.9-0.7-6.3-0.7-6.3c-2.1-5.9,4.2-6.7,4.2-6.7
							L19.2,59.3z"/>
					</g>
				</g>
			</g>
		</g>
		<g>
			<g>
				<g>
					<defs>
						<path id="SVGID_3_" d="M41.3,80.4c-5.3,4.1-14.9,2.8-18.5,0.6c-3.6-2.2-1.1-4.7-1.1-4.7c-3.8-3.7-0.1-6.8-0.1-6.8
							c-1.7-2.1-2.5-5.4-1.7-7.4c0.8-2.2,4.6,2,10.6,4.4c5.9,2.3,15,3.5,15,3.5C50.7,70.3,46.6,76.3,41.3,80.4z"/>
					</defs>
					<clipPath id="SVGID_4_">
						<use xlink:href="#SVGID_3_"  style="overflow:visible;"/>
					</clipPath>
					<g class="st3">
						<path class="st4" d="M48.9,68.8l4.1,3.7L32,91.9c0,0-20.9-13.1-10.5-11.2s20.3-3.5,23.5-6.7s-1.5-5.1-1.5-5.1L48.9,68.8z"/>
					</g>
				</g>
			</g>
		</g>
	</g>
</g>
<g>
	<path class="st5" d="M64.2,80c0,0,0.5,1.8,1.7,2.6c1.3,0.7,2.7-0.6,3.8,0.3c1,0.9,2.6,4.9,0.5,6s-2.8-2.7-2.8-2.7s-1.3,0.3-3-0.7
		c-1-0.5-1.8-2.4-1.8-2.4"/>
</g>
<g>
	<path class="st6" d="M70.3,76.4c0,0,1.6,1.6,3.2,1.7c1.7,0.1,2.7-2.2,4.2-1.7c1.6,0.4,5.5,3.9,3.8,6.2c-1.6,2.3-4.6-1.4-4.6-1.4
		s-1.2,0.9-3.7,0.8c-1.4-0.1-4.8-2.2-4.8-2.2"/>
</g>
<g>
	<path class="st7" d="M37.3,64.9C35,77.5,43.8,87.3,55,87.3c14.2-0.2,21-10.2,21-17.6c0-9.7-9.6-19.1-20.7-19.1S39.1,55.4,37.3,64.9
		z"/>
</g>
<g>
	<g>
		<g>
			<g>
				<defs>
					<path id="SVGID_5_" d="M37.3,64.9C35,77.5,43.8,87.3,55,87.3c14.2-0.2,21-10.2,21-17.6c0-9.7-9.6-19.1-20.7-19.1
						S39.1,55.4,37.3,64.9z"/>
				</defs>
				<clipPath id="SVGID_6_">
					<use xlink:href="#SVGID_5_"  style="overflow:visible;"/>
				</clipPath>
				<g class="st8">
					<path class="st9" d="M79.2,62.5L67.2,69c4.8-5.3,6.9-10.7,6-15.4c-1.1-5.6-32.9,8.3-32.9,8.3l-6.1,13.9c0,0,6.2-1,9.8-2.8
						c2.7-1.5,11.5,3.6,19.2-1c0,0,1.6-1.6,2.7-1.1c0.5,0.3,2.3,1.1,3.4,1.1c4.5,0,1.6,3.4-0.5,6.7c-2.2,3.4-10.1,7.8-25.7,6.7
						c-2.5-0.2,41.8,9.5,41.8,9.5L79.2,62.5z"/>
				</g>
			</g>
		</g>
	</g>
</g>
<g>
	<path class="st10" d="M65.8,82.8C65.8,82.8,65.8,82.8,65.8,82.8c-16.4-0.1-24.5-4.8-28.3-8.7c-4.2-4.3-4.5-8.5-4.5-8.7
		c0-0.3,0.2-0.5,0.4-0.5c0.2,0,0.5,0.2,0.5,0.4c0,0.2,1.2,16.4,31.8,16.6c0.3,0,0.5,0.2,0.5,0.5C66.3,82.6,66.1,82.8,65.8,82.8z"/>
</g>
<g>
	<path class="st10" d="M72,79.6c-0.1,0-0.3-0.1-0.4-0.2c-0.2-0.2-0.1-0.5,0.1-0.6l0,0c0,0,4-3.5,1.9-14.5c-0.3-1.5-1-2.9-1.9-4.6
		c-0.7-1.3-1.4-2.7-2.1-4.4c-0.1-0.2,0-0.5,0.3-0.6c0.2-0.1,0.5,0,0.6,0.3c0.6,1.7,1.4,3.1,2,4.3c0.9,1.7,1.7,3.1,2,4.8
		c2.2,11.6-2,15.2-2.2,15.3C72.3,79.6,72.2,79.6,72,79.6z"/>
</g>
<g>
	<g>
		<ellipse transform="matrix(0.907 -0.4212 0.4212 0.907 -28.1539 36.6843)" class="st10" cx="69" cy="82.1" rx="5.8" ry="4.2"/>
	</g>
	<g>
		<ellipse transform="matrix(0.9927 -0.121 0.121 0.9927 -9.3446 8.2739)" class="st10" cx="63.5" cy="81.1" rx="1.8" ry="1.8"/>
	</g>
	<g>
		<ellipse transform="matrix(0.9927 -0.121 0.121 0.9927 -8.8233 9.2611)" class="st10" cx="71.8" cy="77.3" rx="1.8" ry="1.8"/>
	</g>
	<g>
		<ellipse transform="matrix(0.9927 -0.121 0.121 0.9927 -9.4648 8.6941)" class="st11" cx="66.9" cy="82.3" rx="0.4" ry="0.5"/>
	</g>
	<g>
		<ellipse transform="matrix(0.9927 -0.121 0.121 0.9927 -9.2307 9.1522)" class="st11" cx="70.7" cy="80.6" rx="0.4" ry="0.5"/>
	</g>
	<g>
		<ellipse transform="matrix(0.907 -0.4212 0.4212 0.907 -28.198 36.8988)" class="st11" cx="69.4" cy="82.3" rx="1" ry="0.5"/>
	</g>
	<g>
		<g>
			<path class="st11" d="M69.3,84c-0.1,0-0.1,0-0.2-0.1c0-0.1,0-0.2,0.1-0.2c0.2-0.1,0.3-0.2,0.4-0.3c0.2-0.5-0.3-1.1-0.3-1.1
				c0-0.1,0-0.2,0-0.2c0.1,0,0.2,0,0.2,0s0.5,0.7,0.3,1.3C69.8,83.8,69.7,83.9,69.3,84L69.3,84z"/>
		</g>
	</g>
	<g>
		<g>
			<path class="st11" d="M70.4,83.3c-0.1,0-0.2,0-0.3,0c-0.5-0.2-0.7-0.7-0.7-0.8c0-0.1,0-0.2,0.1-0.2s0.2,0,0.2,0.1
				c0,0,0.2,0.5,0.5,0.6c0.2,0.1,0.4,0,0.5-0.1c0.1,0,0.2,0,0.2,0c0,0.1,0,0.2,0,0.2C70.8,83.2,70.7,83.3,70.4,83.3z"/>
		</g>
	</g>
</g>
<g>
	<g>
		<ellipse transform="matrix(0.9672 -0.2541 0.2541 0.9672 -11.0179 10.8625)" class="st7" cx="36.5" cy="48.1" rx="18.9" ry="16"/>
	</g>
	<g>
		<path class="st7" d="M70.8,50.6C68.5,42,58.6,37.2,48.5,39.9c-6,1.6-10.6,5.4-13,10.1c-0.2,0.5-0.7,0.7-1.2,0.6
			c-1.8-0.4-3.8-0.3-5.9,0.3c-7.1,1.8-11.5,8.9-9.6,15.8c1.8,6.8,9,10.8,16.1,9c1.7-0.5,3.2-1.2,4.6-2.1c2.4-1.7,5.3-2.5,8.2-2
			c2.8,0.5,5.9,0.4,8.9-0.5C66.7,68.3,73.1,59.2,70.8,50.6z"/>
	</g>
	<g>
		<path class="st0" d="M71.6,21.6c0,0-0.3,3-5.7,2.7c-9.5-0.5-12.1-5.5-20.6-2.9c-13,3.9-11.2,17.4-11.2,17.4s-4-9.6-13-9.8
			c-6.7-0.2-9.9,4-12.4,6.6C5.4,39.1,4,36.8,4,36.8s4.2,8.3,6.9,11.6c9.6,12.2,16.6-4.4,20.4,2.3s2.2,12.2,2.2,12.2l21.7-5.7
			c0,0-5.1-7.6-5.1-11.5s2.3-6.3,10.1-4.6C67.8,43.1,75.3,36,71.6,21.6z"/>
	</g>
	<g>
		<g>
			<g>
				<g>
					<defs>
						<path id="SVGID_7_" d="M71.6,21.6c0,0-0.3,3-5.7,2.7c-9.5-0.5-12.1-5.5-20.6-2.9c-13,3.9-11.2,17.4-11.2,17.4s-4-9.6-13-9.8
							c-6.7-0.2-9.9,4-12.4,6.6C5.4,39.1,4,36.8,4,36.8s4.2,8.3,6.9,11.6c9.6,12.2,16.6-4.4,20.4,2.3s2.2,12.2,2.2,12.2l21.7-5.7
							c0,0-5.1-7.6-5.1-11.5s2.3-6.3,10.1-4.6C67.8,43.1,75.3,36,71.6,21.6z"/>
					</defs>
					<clipPath id="SVGID_8_">
						<use xlink:href="#SVGID_7_"  style="overflow:visible;"/>
					</clipPath>
					<g class="st12">
						<path class="st4" d="M70.9,19c0,0,3.4,9.5-3.4,13.9s-21.8,8.9-21.8,8.9L38,54.2l-20-6.4c0,0-21.9-9.8-15.2-21.4L-7.8,37.5
							l10,25.6l54.2-11.2l30.7-19L70.9,19z"/>
					</g>
				</g>
			</g>
		</g>
	</g>
	<g>
		<g>
			<g>
				<g>
					<defs>
						
							<ellipse id="SVGID_9_" transform="matrix(0.5169 -0.8561 0.8561 0.5169 -32.8803 49.1317)" cx="27.1" cy="53.7" rx="12.2" ry="15.5"/>
					</defs>
					<clipPath id="SVGID_10_">
						<use xlink:href="#SVGID_9_"  style="overflow:visible;"/>
					</clipPath>
				</g>
			</g>
		</g>
	</g>
</g>
<g>
	<g>
		<g>
			
				<ellipse transform="matrix(0.9672 -0.2541 0.2541 0.9672 -11.1432 14.8065)" class="st13" cx="51.7" cy="50.5" rx="15.5" ry="15.3"/>
		</g>
		<g>
			<defs>
				
					<ellipse id="SVGID_11_" transform="matrix(0.9672 -0.2541 0.2541 0.9672 -11.1432 14.8065)" cx="51.7" cy="50.5" rx="15.5" ry="15.3"/>
			</defs>
			<clipPath id="SVGID_12_">
				<use xlink:href="#SVGID_11_"  style="overflow:visible;"/>
			</clipPath>
			<g class="st14">
				
					<ellipse transform="matrix(0.9672 -0.2541 0.2541 0.9672 -10.5547 14.0434)" class="st15" cx="49.1" cy="47.9" rx="15.5" ry="15.3"/>
			</g>
		</g>
		<g>
			<ellipse transform="matrix(0.9672 -0.2541 0.2541 0.9672 -11.2343 15.3912)" class="st16" cx="54" cy="51.2" rx="6.2" ry="7.2"/>
		</g>
	</g>
	<g>
		<circle class="st15" cx="55.2" cy="48.8" r="2.4"/>
	</g>
</g>
<g>
	<g>
		
			<ellipse transform="matrix(0.9672 -0.2541 0.2541 0.9672 -13.6139 8.3151)" class="st13" cx="25.4" cy="56.8" rx="11.6" ry="14.7"/>
	</g>
	<g>
		<defs>
			
				<ellipse id="SVGID_14_" transform="matrix(0.9672 -0.2541 0.2541 0.9672 -13.6139 8.3151)" cx="25.4" cy="56.8" rx="11.6" ry="14.7"/>
		</defs>
		<clipPath id="SVGID_16_">
			<use xlink:href="#SVGID_14_"  style="overflow:visible;"/>
		</clipPath>
		<g class="st17">
			
				<ellipse transform="matrix(0.9672 -0.2541 0.2541 0.9672 -12.8728 7.6698)" class="st15" cx="23.2" cy="53.7" rx="11.6" ry="14.7"/>
		</g>
	</g>
	<g>
		<ellipse transform="matrix(0.9672 -0.2541 0.2541 0.9672 -13.5359 8.9327)" class="st16" cx="27.8" cy="56.9" rx="5" ry="6.4"/>
	</g>
	<g>
		<ellipse transform="matrix(0.9888 -0.1493 0.1493 0.9888 -7.7912 4.951)" class="st15" cx="29.1" cy="54.4" rx="1.9" ry="2.1"/>
	</g>
</g>
<g>
	<g>
		<g>
			<defs>
				<path id="SVGID_17_" d="M42.9,62c0.5,3.3-0.9,5.4-3.2,5.8c-1,0.1-2.5-0.7-3-2.5c-0.5-1.4-1.7,1-2.1-1.6
					c-0.7-4.6,0.9-8.2,3.1-8.4C40,54.9,42.2,57.5,42.9,62z"/>
			</defs>
			<clipPath id="SVGID_18_">
				<use xlink:href="#SVGID_17_"  style="overflow:visible;"/>
			</clipPath>
			<polygon class="st18" points="33.9,61.3 35.6,67.9 33.9,67.9 			"/>
			<polygon class="st18" points="33.9,58.5 36.3,67.9 35.6,67.9 33.9,61.3 			"/>
			<polygon class="st19" points="33.9,55.7 37.1,67.9 36.3,67.9 33.9,58.5 			"/>
			<polygon class="st20" points="34.4,54.9 37.8,67.9 37.1,67.9 33.9,55.7 33.9,54.9 			"/>
			<polygon class="st21" points="35.1,54.9 38.5,67.9 37.8,67.9 34.4,54.9 			"/>
			<polygon class="st22" points="35.9,54.9 39.3,67.9 38.5,67.9 35.1,54.9 			"/>
			<polygon class="st22" points="36.2,54.9 39.6,67.9 39.3,67.9 35.9,54.9 			"/>
			<polygon class="st23" points="36.5,54.9 39.9,67.9 39.6,67.9 36.2,54.9 			"/>
			<polygon class="st24" points="36.8,54.9 40.2,67.9 39.9,67.9 36.5,54.9 			"/>
			<polygon class="st25" points="37.1,54.9 40.5,67.9 40.2,67.9 36.8,54.9 			"/>
			<polygon class="st26" points="37.4,54.9 40.8,67.9 40.5,67.9 37.1,54.9 			"/>
			<polygon class="st27" points="37.7,54.9 41.1,67.9 40.8,67.9 37.4,54.9 			"/>
			<polygon class="st28" points="38,54.9 41.4,67.9 41.1,67.9 37.7,54.9 			"/>
			<polygon class="st29" points="38.3,54.9 41.7,67.9 41.4,67.9 38,54.9 			"/>
			<polygon class="st30" points="38.6,54.9 42,67.9 41.7,67.9 38.3,54.9 			"/>
			<polygon class="st31" points="38.9,54.9 42.3,67.9 42,67.9 38.6,54.9 			"/>
			<polygon class="st32" points="39.2,54.9 42.6,67.9 42.3,67.9 38.9,54.9 			"/>
			<polygon class="st33" points="39.5,54.9 42.9,67.9 42.6,67.9 39.2,54.9 			"/>
			<polygon class="st34" points="39.8,54.9 43.2,67.9 42.9,67.9 39.5,54.9 			"/>
			<polygon class="st35" points="40.1,54.9 43.4,67.1 43.4,67.9 43.2,67.9 39.8,54.9 			"/>
			<polygon class="st35" points="40.4,54.9 43.4,66.2 43.4,67.1 40.1,54.9 			"/>
			<polygon class="st36" points="40.6,54.9 43.4,65.3 43.4,66.2 40.4,54.9 			"/>
			<polygon class="st37" points="40.8,54.9 43.4,64.4 43.4,65.3 40.6,54.9 			"/>
			<polygon class="st38" points="41.1,54.9 43.4,63.5 43.4,64.4 40.8,54.9 			"/>
			<polygon class="st38" points="43.4,63.5 41.1,54.9 43.4,54.9 			"/>
		</g>
	</g>
	<g>
		<path class="st39" d="M40.8,63.5l-2.6,0.8L37,64.4c0,0,0.4,2.1,2.2,1.9C41,66.2,40.8,63.5,40.8,63.5z"/>
	</g>
	<g>
		<path class="st40" d="M37.1,64.5"/>
	</g>
</g>
<g class="st41">
	<path class="st15" d="M36.6,56.5c0,0,0.4-0.6,1.3-0.6s1.5,0.5,1.5,0.8c0,0.5-1.1,0.2-1.5,0.2C37.6,56.8,36.2,57,36.6,56.5z"/>
</g>
<g>
	<ellipse transform="matrix(0.9672 -0.2541 0.2541 0.9672 -17.2997 8.4247)" class="st42" cx="24" cy="71.2" rx="6" ry="3.4"/>
</g>
<g>
	<ellipse transform="matrix(0.9513 -0.3083 0.3083 0.9513 -15.6604 22.8371)" class="st42" cx="64.4" cy="61" rx="6.5" ry="3.7"/>
</g>
<g>
	<g>
		<path class="st0" d="M67,66.6c0,0,3.7-9.8,4.3-16.8c0.7-7.3-1.5-13.1,1.1-12.9c2.5,0.2,5.3,2.7,6.5,5.6c0,0,5.1-2.1,6.9,3.7
			c0,0,3.6-1.1,4.1,3.6s-3.4,15-10.3,18.2C72.7,71.1,64.6,72,67,66.6z"/>
	</g>
	<g>
		<g>
			<g>
				<defs>
					<path id="SVGID_19_" d="M67,66.6c0,0,3.7-9.8,4.3-16.8c0.7-7.3-1.5-13.1,1.1-12.9c2.5,0.2,5.3,2.7,6.5,5.6c0,0,5.1-2.1,6.9,3.7
						c0,0,3.6-1.1,4.1,3.6s-3.4,15-10.3,18.2C72.7,71.1,64.6,72,67,66.6z"/>
				</defs>
				<clipPath id="SVGID_21_">
					<use xlink:href="#SVGID_19_"  style="overflow:visible;"/>
				</clipPath>
				<g class="st43">
					<path class="st2" d="M70.5,46.5c0,0,4.1-5.9,8.9-0.8c0,0,5.4-2.1,5.9,4.1c0,0,4.3-2.5,5.2,1.8l2.8-14.8l-23.2-2.1L70.5,46.5z"
						/>
				</g>
			</g>
		</g>
		<g>
			<g>
				<defs>
					<path id="SVGID_23_" d="M67,66.6c0,0,3.7-9.8,4.3-16.8c0.7-7.3-1.5-13.1,1.1-12.9c2.5,0.2,5.3,2.7,6.5,5.6c0,0,5.1-2.1,6.9,3.7
						c0,0,3.6-1.1,4.1,3.6s-3.4,15-10.3,18.2C72.7,71.1,64.6,72,67,66.6z"/>
				</defs>
				<clipPath id="SVGID_25_">
					<use xlink:href="#SVGID_23_"  style="overflow:visible;"/>
				</clipPath>
				<g class="st44">
					<path class="st4" d="M66.9,64.1c0,0-0.7,5.7,4.3,4.2c5-1.5,15.6-8.5,19.1-20C93.8,36.9,96,64.7,96,64.7L65.6,75.5l-1.6-6
						L66.9,64.1z"/>
				</g>
			</g>
		</g>
	</g>
</g>
</svg>
