<?xml version="1.0" encoding="utf-8"?>
<!-- Generator: Adobe Illustrator 21.0.0, SVG Export Plug-In . SVG Version: 6.00 Build 0)  -->
<svg version="1.1" id="图层_1" xmlns="http://www.w3.org/2000/svg" xmlns:xlink="http://www.w3.org/1999/xlink" x="0px" y="0px"
	 viewBox="0 0 480 400" style="enable-background:new 0 0 480 400;" xml:space="preserve">
<style type="text/css">
	.st0{fill:#FFFFFF;}
</style>
<g>
	<path class="st0" d="M185.6,400c-38.1,0-73.9-14.8-100.9-41.8c-27-27-41.8-62.8-41.8-100.9c0-38.1,14.8-74,41.8-100.9l96.8-96.8
		c4.3-4.3,11.2-4.3,15.5,0c4.3,4.3,4.3,11.2,0,15.5l-96.8,96.8c-22.8,22.8-35.4,53.2-35.4,85.4c0,32.3,12.6,62.6,35.4,85.4
		c22.8,22.8,53.2,35.4,85.4,35.4s62.6-12.6,85.4-35.4l144.4-144.4c4.3-4.3,11.2-4.3,15.5,0s4.3,11.2,0,15.5L286.5,358.2
		C259.5,385.2,223.7,400,185.6,400z"/>
</g>
<g>
	<path class="st0" d="M294.1,346c-3.2,0-6.3-1.4-8.5-4c-3.8-4.7-3.1-11.6,1.5-15.4c5.9-4.8,8.8-9.6,9-14.7
		c0.6-15.7-22.1-37.6-42.2-57c-16.4-15.8-33.4-32.2-41.9-48.4c-21.1-40.1-3.7-74.5,8.4-87L331.9,4.7c4.2-4.3,11.1-4.4,15.5-0.2
		c4.3,4.2,4.4,11.1,0.2,15.5L236.1,134.7c-0.9,1-23.6,25.8-4.7,61.7c6.9,13.1,22.6,28.2,37.7,42.8c24.6,23.7,49.9,48.1,48.9,73.6
		c-0.5,11.5-6.2,21.9-17,30.8C299,345.2,296.5,346,294.1,346z"/>
</g>
<g>
	<path class="st0" d="M276.3,184.6c-2.7,0-5.4-1-7.6-3c-4.4-4.2-4.5-11.1-0.3-15.5L402.9,25.5c4.2-4.4,11.1-4.5,15.5-0.3
		c4.4,4.2,4.5,11.1,0.3,15.5L284.2,181.3C282.1,183.5,279.2,184.6,276.3,184.6z"/>
</g>
<g>
	<path class="st0" d="M321.1,230.3c-2.7,0-5.4-1-7.6-3c-4.4-4.2-4.5-11.1-0.3-15.5l110.9-116c4.2-4.4,11.1-4.5,15.5-0.3
		c4.4,4.2,4.5,11.1,0.3,15.5L329,226.9C326.8,229.2,323.9,230.3,321.1,230.3z"/>
</g>
<g>
	<path class="st0" d="M171.4,239.1h-70c-6,0-10.9-4.9-10.9-10.9c0-6,4.9-10.9,10.9-10.9h70c6,0,10.9,4.9,10.9,10.9
		C182.3,234.2,177.4,239.1,171.4,239.1z"/>
</g>
<g>
	<path class="st0" d="M136.4,274.1c-6,0-10.9-4.9-10.9-10.9v-70c0-6,4.9-10.9,10.9-10.9c6,0,10.9,4.9,10.9,10.9v70
		C147.3,269.2,142.4,274.1,136.4,274.1z"/>
</g>
<g>
	<path class="st0" d="M197,342.9c-20.3,0-40.5-5.1-58.2-14.6c-5.3-2.9-7.3-9.5-4.4-14.8c2.9-5.3,9.5-7.3,14.8-4.4
		c30.2,16.2,68.8,15.7,98.5-1.5c5.2-3,11.9-1.2,14.9,4c3,5.2,1.2,11.9-4,14.9C239.9,337.2,218.6,342.9,197,342.9z"/>
</g>
</svg>
