<?xml version="1.0" encoding="utf-8"?>
<!-- Generator: Adobe Illustrator 21.0.0, SVG Export Plug-In . SVG Version: 6.00 Build 0)  -->
<svg version="1.1" id="图层_1" xmlns="http://www.w3.org/2000/svg" xmlns:xlink="http://www.w3.org/1999/xlink" x="0px" y="0px"
	 viewBox="0 0 46 46" style="enable-background:new 0 0 46 46;" xml:space="preserve">
<style type="text/css">
	.st0{fill:#FFFFFF;}
</style>
<g>
	<g>
		<g>
			<path class="st0" d="M35,29.7H11.1v-18C11.1,5.2,16.3,0,22.8,0h0.5C29.7,0,35,5.2,35,11.7V29.7z M13.6,27.1h18.8V11.7
				c0-5-4.1-9.1-9.1-9.1h-0.5c-5,0-9.1,4.1-9.1,9.1V27.1z"/>
		</g>
	</g>
	<g>
		<path class="st0" d="M36,36.8H10.1c-1.2,0-2.3-1-2.3-2.3v-5.2c0-1.2,1-2.3,2.3-2.3H36c1.2,0,2.3,1,2.3,2.3v5.2
			C38.2,35.8,37.2,36.8,36,36.8z M10.4,34.2h25.3v-4.5H10.4V34.2z"/>
	</g>
	<g>
		<g>
			<rect x="17.9" y="34.9" class="st0" width="2.6" height="11.1"/>
		</g>
		<g>
			<rect x="25.6" y="34.9" class="st0" width="2.6" height="7.9"/>
		</g>
	</g>
	<g>
		<polygon class="st0" points="27.9,27.6 25.3,27.6 25.3,23.1 20.7,23.1 20.7,27.6 18.2,27.6 18.2,20.5 27.9,20.5 		"/>
	</g>
</g>
</svg>
