<?xml version="1.0" encoding="utf-8"?>
<!-- Generator: Adobe Illustrator 22.0.0, SVG Export Plug-In . SVG Version: 6.00 Build 0)  -->
<svg version="1.1" id="图层_1" xmlns="http://www.w3.org/2000/svg" xmlns:xlink="http://www.w3.org/1999/xlink" x="0px" y="0px"
	 viewBox="0 0 29 20" style="enable-background:new 0 0 29 20;" xml:space="preserve">
<style type="text/css">
	.st0{fill:none;stroke:#FFFFFF;stroke-miterlimit:10;}
	.st1{fill:#FDDD07;}
	.st2{fill:#2097F7;}
	.st3{fill:#FFFFFF;}
	.st4{fill:#304073;}
	.st5{fill:#FF438F;}
	.st6{clip-path:url(#SVGID_2_);fill:#FFAB00;}
	.st7{clip-path:url(#SVGID_2_);fill:#FFAA00;}
	.st8{clip-path:url(#SVGID_2_);fill:#FFA900;}
	.st9{clip-path:url(#SVGID_2_);fill:#FFA800;}
	.st10{clip-path:url(#SVGID_2_);fill:#FFA700;}
	.st11{clip-path:url(#SVGID_2_);fill:#FFA600;}
	.st12{clip-path:url(#SVGID_2_);fill:#FFA500;}
	.st13{clip-path:url(#SVGID_2_);fill:#FFA400;}
	.st14{clip-path:url(#SVGID_2_);fill:#FFA300;}
	.st15{clip-path:url(#SVGID_2_);fill:#FFA200;}
	.st16{clip-path:url(#SVGID_2_);fill:#FFA100;}
	.st17{clip-path:url(#SVGID_2_);fill:#FFA000;}
	.st18{clip-path:url(#SVGID_2_);fill:#FF9F00;}
	.st19{clip-path:url(#SVGID_2_);fill:#FF9E00;}
	.st20{clip-path:url(#SVGID_2_);fill:#FF9D00;}
	.st21{clip-path:url(#SVGID_2_);fill:#FF9C00;}
	.st22{clip-path:url(#SVGID_2_);fill:#FF9B00;}
	.st23{clip-path:url(#SVGID_2_);fill:#FF9A00;}
	.st24{clip-path:url(#SVGID_2_);fill:#FF9900;}
	.st25{clip-path:url(#SVGID_2_);fill:#FF9800;}
	.st26{fill:#E4428E;}
	.st27{clip-path:url(#SVGID_4_);fill:#FF9800;}
	.st28{clip-path:url(#SVGID_4_);fill:#FF9600;}
	.st29{clip-path:url(#SVGID_4_);fill:#FF9500;}
	.st30{clip-path:url(#SVGID_4_);fill:#FF9400;}
	.st31{clip-path:url(#SVGID_4_);fill:#FF9300;}
	.st32{clip-path:url(#SVGID_4_);fill:#FF9200;}
	.st33{clip-path:url(#SVGID_4_);fill:#FF9100;}
	.st34{clip-path:url(#SVGID_4_);fill:#FF9000;}
	.st35{clip-path:url(#SVGID_4_);fill:#FF8F00;}
	.st36{clip-path:url(#SVGID_4_);fill:#FF8E00;}
	.st37{clip-path:url(#SVGID_4_);fill:#FF8D00;}
	.st38{clip-path:url(#SVGID_4_);fill:#FF8C00;}
	.st39{clip-path:url(#SVGID_4_);fill:#FF8B00;}
	.st40{clip-path:url(#SVGID_4_);fill:#FF8A00;}
	.st41{clip-path:url(#SVGID_4_);fill:#FF8900;}
	.st42{clip-path:url(#SVGID_4_);fill:#FF8800;}
	.st43{clip-path:url(#SVGID_4_);fill:#FF8700;}
	.st44{clip-path:url(#SVGID_4_);fill:#FF8600;}
	.st45{clip-path:url(#SVGID_4_);fill:#FF8500;}
	.st46{clip-path:url(#SVGID_4_);fill:#FF8400;}
	.st47{clip-path:url(#SVGID_4_);fill:#FF8300;}
</style>
<g>
	<path class="st0" d="M28,0.9V0.6h-5.3c-1.4,0-2.6,0.3-3.8,0.9c-1.3-0.4-2.8-0.7-4.4-0.7c-1.6,0-3.1,0.2-4.4,0.7
		C8.9,0.9,7.7,0.6,6.3,0.6H1v0.4c0,2.4,1,4.5,2.6,6c-0.5,1.1-0.8,2.4-0.8,3.7c0,5.4,4.8,8.5,11.7,8.5s11.6-3.1,11.6-8.5
		c0-1.3-0.3-2.5-0.7-3.6C27,5.5,28,3.3,28,0.9z"/>
	<g>
		<path class="st1" d="M25.9,10.6c0,5.3-4.6,8.4-11.4,8.4S3,16,3,10.6s4.7-9.7,11.5-9.7S25.9,5.3,25.9,10.6z"/>
		<path class="st2" d="M22.6,0.7c-4.5,0-8.1,3.6-8.1,8.1c0-4.5-3.6-8.1-8.1-8.1H1.2v0.4c0,4.5,3.6,8.1,8.1,8.1h5.2h5.2
			c4.5,0,8.1-3.6,8.1-8.1V0.7H22.6z"/>
		<circle class="st3" cx="8.6" cy="9" r="5.2"/>
		<circle class="st3" cx="20.3" cy="9" r="5.2"/>
		<ellipse class="st4" cx="9.2" cy="8.9" rx="2.8" ry="3.5"/>
		<ellipse class="st4" cx="19.5" cy="8.9" rx="2.8" ry="3.5"/>
		<g>
			<g>
				<path class="st5" d="M16.6,13.9c0-0.3,0-0.6,0-0.9c0-2.3-1-4.2-2.2-4.2s-2.2,1.9-2.2,4.2c0,0.3,0,0.6,0,0.9
					c1.3,0.5,2.2,1.8,2.2,3.3C14.4,15.7,15.4,14.4,16.6,13.9z"/>
			</g>
			<g>
				<g>
					<defs>
						<path id="SVGID_1_" d="M12.2,13.9c0.2,1.9,1.1,3.3,2.2,3.3C14.4,15.7,13.5,14.4,12.2,13.9z"/>
					</defs>
					<clipPath id="SVGID_2_">
						<use xlink:href="#SVGID_1_"  style="overflow:visible;"/>
					</clipPath>
					<rect x="12.2" y="13.9" class="st6" width="0.1" height="3.3"/>
					<rect x="12.3" y="13.9" class="st7" width="0.1" height="3.3"/>
					<rect x="12.4" y="13.9" class="st8" width="0.1" height="3.3"/>
					<rect x="12.5" y="13.9" class="st9" width="0.1" height="3.3"/>
					<rect x="12.6" y="13.9" class="st10" width="0.1" height="3.3"/>
					<rect x="12.7" y="13.9" class="st11" width="0.1" height="3.3"/>
					<rect x="12.8" y="13.9" class="st12" width="0.1" height="3.3"/>
					<rect x="12.9" y="13.9" class="st13" width="0.1" height="3.3"/>
					<rect x="13.1" y="13.9" class="st14" width="0.1" height="3.3"/>
					<rect x="13.2" y="13.9" class="st14" width="0.1" height="3.3"/>
					<rect x="13.3" y="13.9" class="st15" width="0.1" height="3.3"/>
					<rect x="13.4" y="13.9" class="st16" width="0.1" height="3.3"/>
					<rect x="13.5" y="13.9" class="st17" width="0.1" height="3.3"/>
					<rect x="13.6" y="13.9" class="st18" width="0.1" height="3.3"/>
					<rect x="13.7" y="13.9" class="st19" width="0.1" height="3.3"/>
					<rect x="13.8" y="13.9" class="st20" width="0.1" height="3.3"/>
					<rect x="13.9" y="13.9" class="st21" width="0.1" height="3.3"/>
					<rect x="14" y="13.9" class="st22" width="0.1" height="3.3"/>
					<rect x="14.1" y="13.9" class="st23" width="0.1" height="3.3"/>
					<rect x="14.2" y="13.9" class="st24" width="0.1" height="3.3"/>
					<rect x="14.3" y="13.9" class="st25" width="0.1" height="3.3"/>
				</g>
			</g>
			<g>
				<path class="st26" d="M12.2,13.9c0.2,1.9,1.1,3.3,2.2,3.3C14.4,15.7,13.5,14.4,12.2,13.9z"/>
			</g>
			<g>
				<g>
					<defs>
						<path id="SVGID_3_" d="M16.6,13.9c-1.3,0.5-2.2,1.8-2.2,3.3C15.5,17.2,16.4,15.8,16.6,13.9z"/>
					</defs>
					<clipPath id="SVGID_4_">
						<use xlink:href="#SVGID_3_"  style="overflow:visible;"/>
					</clipPath>
					<rect x="14.4" y="13.9" class="st27" width="0" height="3.3"/>
					<rect x="14.4" y="13.9" class="st28" width="0.1" height="3.3"/>
					<rect x="14.6" y="13.9" class="st29" width="0.1" height="3.3"/>
					<rect x="14.7" y="13.9" class="st30" width="0.1" height="3.3"/>
					<rect x="14.8" y="13.9" class="st31" width="0.1" height="3.3"/>
					<rect x="14.9" y="13.9" class="st32" width="0.1" height="3.3"/>
					<rect x="15" y="13.9" class="st33" width="0.1" height="3.3"/>
					<rect x="15.1" y="13.9" class="st34" width="0.1" height="3.3"/>
					<rect x="15.2" y="13.9" class="st35" width="0.1" height="3.3"/>
					<rect x="15.3" y="13.9" class="st36" width="0.1" height="3.3"/>
					<rect x="15.4" y="13.9" class="st37" width="0.1" height="3.3"/>
					<rect x="15.5" y="13.9" class="st38" width="0.1" height="3.3"/>
					<rect x="15.6" y="13.9" class="st39" width="0.1" height="3.3"/>
					<rect x="15.7" y="13.9" class="st40" width="0.1" height="3.3"/>
					<rect x="15.8" y="13.9" class="st40" width="0.1" height="3.3"/>
					<rect x="15.9" y="13.9" class="st41" width="0.1" height="3.3"/>
					<rect x="16.1" y="13.9" class="st42" width="0.1" height="3.3"/>
					<rect x="16.2" y="13.9" class="st43" width="0.1" height="3.3"/>
					<rect x="16.3" y="13.9" class="st44" width="0.1" height="3.3"/>
					<rect x="16.4" y="13.9" class="st45" width="0.1" height="3.3"/>
					<rect x="16.5" y="13.9" class="st46" width="0.1" height="3.3"/>
					<rect x="16.6" y="13.9" class="st47" width="0.1" height="3.3"/>
				</g>
			</g>
			<g>
				<path class="st26" d="M16.6,13.9c-1.3,0.5-2.2,1.8-2.2,3.3C15.5,17.2,16.4,15.8,16.6,13.9z"/>
			</g>
		</g>
	</g>
</g>
</svg>
