<?xml version="1.0" encoding="utf-8"?>
<!-- Generator: Adobe Illustrator 21.0.0, SVG Export Plug-In . SVG Version: 6.00 Build 0)  -->
<svg version="1.1" id="图层_1" xmlns="http://www.w3.org/2000/svg" xmlns:xlink="http://www.w3.org/1999/xlink" x="0px" y="0px"
	 viewBox="0 0 20 20" style="enable-background:new 0 0 20 20;" xml:space="preserve">
<style type="text/css">
	.st0{fill:#FFFFFF;}
</style>
<title>earth.svg [转换]</title>
<g>
	<path class="st0" d="M7.8,4C7.9,4,8,4.1,8,4.2V5v2h2h5.8C15.9,7,16,7,16,7.1v8.8c0,0.1-0.1,0.2-0.2,0.2h-8H6.2h-4
		C2.1,16.1,2,16,2,15.9V4.2C2,4.1,2.1,4,2.2,4H7.8 M7.8,2H2.2C1,2,0,3,0,4.2v11.7c0,1.2,1,2.2,2.2,2.2h4h1.7h8c1.2,0,2.2-1,2.2-2.2
		V7.1C18,5.9,17,5,15.8,5H10V4.2C10,3,9,2,7.8,2L7.8,2z"/>
	<path class="st0" d="M1.2,16.4l3.1-6.6c0.3-0.6,0.9-0.9,1.5-0.9h12.6c1.1,0,1.9,1.1,1.5,2.2l-2,5.4L1.2,16.4z"/>
</g>
</svg>
