<?xml version="1.0" encoding="utf-8"?>
<!-- Generator: Adobe Illustrator 21.0.0, SVG Export Plug-In . SVG Version: 6.00 Build 0)  -->
<svg version="1.1" id="图层_1" xmlns="http://www.w3.org/2000/svg" xmlns:xlink="http://www.w3.org/1999/xlink" x="0px" y="0px"
	 viewBox="0 0 20 20" style="enable-background:new 0 0 20 20;" xml:space="preserve">
<style type="text/css">
	.st0{fill:#FFFFFF;}
</style>
<title>earth.svg [转换]</title>
<path class="st0" d="M17.8,3L5.3,2.9c0.6,0.3,1.1,0.9,1.1,1.7c0,1-0.8,1.8-1.8,1.8S2.8,5.6,2.8,4.6c0-0.7,0.4-1.3,1-1.6
	C2.8,3.1,2,3.9,2,5v2.9C2,9.1,2.9,10,4.1,10l13.8,0.1C19,10.1,20,9.2,20,8V5.1C19.9,4,19,3,17.8,3z"/>
<path class="st0" d="M4.6,0C2.1,0,0,2.1,0,4.6s2.1,4.6,4.6,4.6s4.6-2.1,4.6-4.6S7.1,0,4.6,0z M4.6,6.2C3.7,6.2,3,5.5,3,4.6
	S3.7,3,4.6,3s1.6,0.7,1.6,1.6S5.5,6.2,4.6,6.2z"/>
<path class="st0" d="M10.3,11H6.6c-0.4,0-0.8-0.3-0.9-0.6L4.9,8.1H12l-0.8,2.3C11.1,10.7,10.7,11,10.3,11z"/>
<g>
	<path class="st0" d="M17.8,14.1v3c0,0,0,0.1-0.1,0.1l-6.4-0.1H9.9L9.6,18H7.3L7,17.1H5.6H4.1C4,17.1,4,17,4,17v-3h1
		c0.4,1,1.3,1.6,2.4,1.6h2.3c1,0,2-0.6,2.4-1.6L17.8,14.1z M17.7,12.1L11.5,12c-0.6,0-1.1,0.4-1.3,0.9l-0.1,0.2
		c-0.1,0.2-0.3,0.4-0.5,0.4H7.3c-0.2,0-0.5-0.2-0.5-0.4l-0.1-0.2C6.5,12.4,6,12,5.4,12H2.1C2,12,2,12,2,12.1V17
		c0,1.1,0.9,2.1,2.1,2.1h1.5l0.1,0.2c0.1,0.4,0.5,0.7,1,0.7h3.6c0.5,0,0.9-0.3,1.1-0.8l0.1-0.2l6.4,0.1c1.1,0,2.1-0.9,2.1-2.1v-2.9
		C19.8,13,18.9,12.1,17.7,12.1L17.7,12.1z"/>
</g>
</svg>
