<?xml version="1.0" encoding="utf-8"?>
<!-- Generator: Adobe Illustrator 23.0.4, SVG Export Plug-In . SVG Version: 6.00 Build 0)  -->
<svg version="1.1" id="图层_1" xmlns="http://www.w3.org/2000/svg" xmlns:xlink="http://www.w3.org/1999/xlink" x="0px" y="0px"
	 viewBox="0 0 26 26" style="enable-background:new 0 0 26 26;" xml:space="preserve">
<style type="text/css">
	.st0{fill:#ADB4D0;}
</style>
<circle class="st0" cx="13" cy="13" r="5"/>
<path class="st0" d="M13,6L13,6c-0.55,0-1-0.45-1-1V1c0-0.55,0.45-1,1-1h0c0.55,0,1,0.45,1,1v4C14,5.55,13.55,6,13,6z"/>
<path class="st0" d="M13,26L13,26c-0.55,0-1-0.45-1-1v-4c0-0.55,0.45-1,1-1h0c0.55,0,1,0.45,1,1v4C14,25.55,13.55,26,13,26z"/>
<path class="st0" d="M20,13L20,13c0-0.55,0.45-1,1-1h4c0.55,0,1,0.45,1,1v0c0,0.55-0.45,1-1,1h-4C20.45,14,20,13.55,20,13z"/>
<path class="st0" d="M0,13L0,13c0-0.55,0.45-1,1-1h4c0.55,0,1,0.45,1,1v0c0,0.55-0.45,1-1,1H1C0.45,14,0,13.55,0,13z"/>
<path class="st0" d="M17.95,8.05L17.95,8.05c-0.39-0.39-0.39-1.02,0-1.41l2.83-2.83c0.39-0.39,1.02-0.39,1.41,0l0,0
	c0.39,0.39,0.39,1.02,0,1.41l-2.83,2.83C18.97,8.44,18.34,8.44,17.95,8.05z"/>
<path class="st0" d="M3.81,22.19L3.81,22.19c-0.39-0.39-0.39-1.02,0-1.41l2.83-2.83c0.39-0.39,1.02-0.39,1.41,0l0,0
	c0.39,0.39,0.39,1.02,0,1.41l-2.83,2.83C4.83,22.58,4.2,22.58,3.81,22.19z"/>
<path class="st0" d="M8.05,8.05L8.05,8.05c-0.39,0.39-1.02,0.39-1.41,0L3.81,5.22c-0.39-0.39-0.39-1.02,0-1.41l0,0
	c0.39-0.39,1.02-0.39,1.41,0l2.83,2.83C8.44,7.03,8.44,7.66,8.05,8.05z"/>
<path class="st0" d="M22.19,22.19L22.19,22.19c-0.39,0.39-1.02,0.39-1.41,0l-2.83-2.83c-0.39-0.39-0.39-1.02,0-1.41l0,0
	c0.39-0.39,1.02-0.39,1.41,0l2.83,2.83C22.58,21.17,22.58,21.8,22.19,22.19z"/>
</svg>
