<?xml version="1.0" encoding="utf-8"?>
<!-- Generator: Adobe Illustrator 21.0.0, SVG Export Plug-In . SVG Version: 6.00 Build 0)  -->
<svg version="1.1" id="图层_1" xmlns="http://www.w3.org/2000/svg" xmlns:xlink="http://www.w3.org/1999/xlink" x="0px" y="0px"
	 viewBox="0 0 60 9" style="enable-background:new 0 0 60 9;" xml:space="preserve">
<style type="text/css">
	.st0{fill:#00AAFF;}
	.st1{fill:#D5DEE6;}
</style>
<rect x="27" y="0.3" class="st0" width="6" height="6"/>
<rect x="35.2" y="0.5" transform="matrix(0.999 4.541195e-02 -4.541195e-02 0.999 0.1983 -1.732)" class="st0" width="6" height="6"/>
<rect x="9.6" y="1.2" transform="matrix(-0.9954 9.614260e-02 -9.614260e-02 -0.9954 25.5371 7.0715)" class="st0" width="6" height="6"/>
<polygon class="st0" points="49.7,7.4 43.7,6.5 44.2,0.5 50.2,1.4 "/>
<rect x="53.6" y="2.3" transform="matrix(0.9892 0.1468 -0.1468 0.9892 1.3869 -8.2468)" class="st1" width="6" height="6"/>
<rect x="0.4" y="2.3" transform="matrix(-0.9892 0.1468 -0.1468 -0.9892 7.5981 9.9857)" class="st0" width="6" height="6"/>
<rect x="18.8" y="0.5" transform="matrix(-0.999 4.541195e-02 -4.541195e-02 -0.999 43.6973 6.0058)" class="st0" width="6" height="6"/>
</svg>
