<?xml version="1.0" encoding="utf-8"?>
<!-- Generator: Adobe Illustrator 21.0.0, SVG Export Plug-In . SVG Version: 6.00 Build 0)  -->
<svg version="1.1" id="图层_1" xmlns="http://www.w3.org/2000/svg" xmlns:xlink="http://www.w3.org/1999/xlink" x="0px" y="0px"
	 viewBox="0 0 100 100" style="enable-background:new 0 0 100 100;" xml:space="preserve">
<style type="text/css">
	.st0{fill:#FFFFFF;}
	.st1{fill:#008CCE;}
	.st2{fill:#FDD61F;}
	.st3{fill:#E03F7C;}
	.st4{fill:#040000;}
</style>
<path class="st0" d="M94.1,100H5.9C2.7,100,0,97.3,0,94.1V5.9C0,2.7,2.7,0,5.9,0h88.2c3.3,0,5.9,2.6,5.9,5.9v88.2
	C100,97.3,97.3,100,94.1,100"/>
<path class="st0" d="M61.8,58.9c0,1.6-1.3,2.9-2.9,2.9H41.1c-1.6,0-2.9-1.3-2.9-2.9V41.1c0-1.6,1.3-2.9,2.9-2.9h17.9
	c1.6,0,2.9,1.3,2.9,2.9V58.9z"/>
<path class="st1" d="M44.3,45.5l3.4-2.9v-0.2c0-0.5-0.6-0.7-0.9-0.4l-3.5,2.9c-0.7,0.6-1.1,1.4-1.1,2.3v4.1c0,1.5,1,2.8,2.5,3.2
	l8.4,2.2v-5.5c0-1.5-1-2.8-2.5-3.2l-6.1-1.6C44,46.4,43.9,45.8,44.3,45.5"/>
<path class="st2" d="M56.5,54l-3.4,2.9V57c0,0.5,0.6,0.7,0.9,0.4l3.5-2.9c0.7-0.6,1.1-1.4,1.1-2.3v-4.1c0-1.5-1-2.8-2.5-3.2
	l-8.4-2.2v5.5c0,1.5,1,2.8,2.5,3.2l6.1,1.6C56.7,53.1,56.8,53.7,56.5,54"/>
<path class="st3" d="M44.5,46.5l3.2,0.8v-4.7l-3.4,2.9C43.9,45.8,44,46.4,44.5,46.5"/>
<path class="st3" d="M56.5,54c0.3-0.3,0.2-0.8-0.2-1l-3.2-0.9v4.7L56.5,54z"/>
<path class="st0" d="M50.1,51.3l3,0.8v-0.8c0-1.5-1-2.8-2.5-3.2l-3-0.8v0.8C47.6,49.6,48.7,51,50.1,51.3"/>
<path class="st4" d="M55.7,21.5C55.7,21.5,55.7,21.5,55.7,21.5L55.7,21.5C55.7,21.5,55.7,21.5,55.7,21.5 M71.6,28.4
	C71.5,28.4,71.5,28.4,71.6,28.4C71.6,28.4,71.6,28.4,71.6,28.4C71.6,28.4,71.6,28.4,71.6,28.4L71.6,28.4z M60.3,14.8
	C60.3,14.8,60.3,14.8,60.3,14.8L60.3,14.8L60.3,14.8L60.3,14.8z M83,39.7C83,39.7,83,39.7,83,39.7L83,39.7C83,39.7,83,39.7,83,39.7
	L83,39.7z M89.7,71.5L89.7,71.5C89.7,71.5,89.7,71.5,89.7,71.5L89.7,71.5C89.7,71.5,89.7,71.5,89.7,71.5
	C89.7,71.5,89.7,71.5,89.7,71.5 M92.1,70.8c0-1.5,0-3,0-4.5c0-1.8,0.3-1.5-1.6-1.5c-0.6,0-0.7,0.2-0.7,0.8c0,1.6,0,1.6-1.6,1.5
	c0,0-0.1,0-0.1,0c-0.4,0-0.6-0.2-0.5-0.6c0-1.1,0-2.1,0-3.2c0-0.6-0.2-0.8-0.7-0.8c-2.5,0-5.1,0-7.6,0c-0.6,0-0.8-0.1-0.8-0.7
	c0-1.4,0-2.9,0-4.3c0-1.7,0-1.7,1.7-1.8c0,0,0,0,0.1,0c0.4,0,0.5-0.1,0.5-0.5c0-0.6,0-1.2,0-1.8c-2.2,0.1-2.2,0.1-2.2-2.1
	c0-1.3,0-2.6,0-4c0-0.6,0.1-0.8,0.7-0.8c1.5,0,1.5,0,1.5-1.5c0-0.6,0.1-0.8,0.7-0.8c0.5,0,1.1,0,1.6-0.1c0-1.5,0-3,0-4.5
	c-0.6,0-1.2,0-1.7,0c-0.5,0-0.6,0.2-0.6,0.6c0,0.5,0.1,1.3-0.2,1.6c-0.3,0.3-1.1,0.1-1.6,0.1c-0.1,0-0.3,0-0.4,0
	c0,0.6-0.1,1.1,0,1.7c0,0.5-0.2,0.6-0.6,0.6c-1.1,0-2.2,0-3.3,0c-0.5,0-0.7-0.2-0.6-0.7c0-1,0-2.1,0-3.2c0-0.5-0.1-0.8-0.7-0.7
	c-1.9,0.1-1.6-0.3-1.6,1.6c0,3.7,0,7.4,0,11.1c0,0.7-0.1,1-0.9,1c-1.5,0-1.3-0.2-1.4,1.3c0,0.7,0.1,1,0.9,1c1-0.1,2,0,3,0
	c0.5,0,0.7,0.1,0.7,0.6c0,1.1,0,2.2,0,3.4c0,0.5-0.2,0.6-0.6,0.6c-1.7,0.1-1.7,0.1-1.7,1.8c0,0.1,0,0.3,0,0.4c0.6,0,1.2,0.1,1.7,0.1
	c0.4,0,0.6,0.2,0.6,0.6c0,1.1,0,2.2,0,3.3c0,0.5,0.1,0.7,0.6,0.6c0.7,0,1.5,0,2.2,0c1.6,0,1.7,0,1.7-1.7c0-0.4,0.1-0.6,0.6-0.6
	c1.1,0,2.2,0,3.4,0c0.5,0,0.6,0.2,0.6,0.7c0,1.1,0,2.2,0,3.2c0,0.5,0.2,0.7,0.7,0.7c1.4,0,2.8,0,4.2,0c2.1,0,2.1,0,1.9,2.2
	c0.5,0,1.1,0,1.6,0.1C91.9,71.6,92.1,71.4,92.1,70.8 M76.1,48.1c0,0.6,0,1.2,0,1.8h0c0,1,0,1.9,0,2.9c0,0.4-0.1,0.5-0.5,0.6
	c-1.7,0.1-1.7,0.1-1.7-1.6c0-1.5,0-3,0-4.5c0-0.5,0.1-0.7,0.7-0.7C76.5,46.6,76.1,46.3,76.1,48.1 M80.6,53.4
	C80.7,53.4,80.7,53.4,80.6,53.4L80.6,53.4C80.7,53.3,80.7,53.3,80.6,53.4C80.6,53.3,80.6,53.4,80.6,53.4 M28.4,37.5
	C28.4,37.5,28.4,37.5,28.4,37.5L28.4,37.5C28.4,37.5,28.4,37.5,28.4,37.5L28.4,37.5z M14.8,28.4C14.8,28.4,14.8,28.4,14.8,28.4
	C14.8,28.4,14.8,28.4,14.8,28.4L14.8,28.4z M69.4,78.5L69.4,78.5C69.4,78.4,69.4,78.4,69.4,78.5C69.4,78.4,69.4,78.4,69.4,78.5
	L69.4,78.5L69.4,78.5z M71.6,80.5c0,0.6,0,1.3,0,1.9c0,0.4-0.2,0.6-0.6,0.6c-0.6,0-1.1,0-1.7,0c0,1.2-0.1,2.4,0,3.6
	c0,0.6-0.1,0.9-0.8,0.9c-1-0.1-2.1,0-3.2,0c-0.4,0-0.6,0.1-0.6,0.6c0,0.5,0.1,1.3-0.1,1.5c-0.3,0.3-1.1,0.1-1.6,0.2
	c-0.2,0-0.5,0.3-0.5,0.4c0.1,0.6-0.4,1.3,0.3,1.8c0.1,0.1,0.3,0,0.4,0c0.7,0,1.4,0,2.1,0c1.6,0,1.6,0,1.7-1.6c0-0.5,0.2-0.7,0.7-0.6
	c0.7,0,1.5,0,2.2,0c1.6,0,1.6,0,1.6,1.6c0,0.6,0.2,0.7,0.7,0.7c1.5,0,3,0,4.5,0c1.9,0,1.6,0.4,1.6-1.7c0-0.4-0.1-0.6-0.6-0.6
	c-0.5,0-1.3,0.1-1.5-0.1c-0.3-0.3-0.2-1-0.1-1.5c0-0.5-0.2-0.6-0.6-0.6c-0.8,0-1.6,0-2.3,0c-1.8,0-1.6,0.4-1.6-1.6
	c0-0.5,0.1-0.7,0.6-0.6c0.8,0,1.6,0,2.4,0c1.5,0,1.5,0,1.5-1.5c0-0.1,0-0.2,0-0.3c0.1-0.2,0.3-0.4,0.4-0.4c0.6-0.1,1.2,0,1.8,0
	c0,0.3,0,0.5,0,0.8c0,0.9,0,1.9,0,2.8c0,1,0,1,0.9,1c1.2,0,2.4,0,3.6,0c0-0.1,0-0.1,0-0.2c0-0.6,0.2-1.4-0.1-1.8
	c-0.3-0.3-1.1-0.2-1.7-0.3c0,0-0.1,0-0.1,0c-0.1-0.1-0.3-0.2-0.3-0.4c0-0.6,0-1.2,0-1.8h4.4c0-0.2,0.1-0.4,0.1-0.6
	c0.1-1.7,0-1.7-1.6-1.7c-0.5,0-0.6-0.2-0.6-0.6c0-1.8,0-3.7,0-5.5c0-0.6,0.2-0.7,0.7-0.7c1.6,0,1.6,0,1.6-1.7c0-0.5-0.2-0.6-0.7-0.6
	c-0.7,0-1.4,0-2.1,0c-1.7,0-1.7,0-1.8-1.7c0,0,0,0,0-0.1c0-0.4-0.1-0.5-0.5-0.5c-1.9,0-3.9,0-5.8,0c-0.2,0-0.4,0.3-0.5,0.5
	c-0.1,0.5,0.1,1.3-0.2,1.5c-0.3,0.3-1,0.2-1.6,0.2c-0.4,0-0.6,0.2-0.6,0.6c0,0.9,0,1.8,0,2.6c0,1.5,0.2,1.3-1.3,1.3
	c-0.1,0-0.3,0-0.4,0c-0.4,0-0.5,0.1-0.5,0.5c0,0.6,0,1.2,0.1,1.8C71.6,78.3,71.6,78.3,71.6,80.5 M73.9,74.5c0-0.4,0.1-0.6,0.6-0.6
	c1.9,0,3.8,0,5.6,0c0.4,0,0.6,0.1,0.6,0.5c0,1.9,0,3.8,0,5.7c0,0.4-0.1,0.6-0.6,0.6c-1,0-1.9,0-2.9,0c-0.9,0-1.8,0-2.7,0
	c-0.5,0-0.7-0.1-0.7-0.6C73.9,78.2,73.9,76.3,73.9,74.5 M25.6,55.7c-0.6,0-1.2,0-1.7,0c0-0.6,0-1.1,0-1.7c0-0.5-0.2-0.7-0.7-0.7
	c-1.1,0-2.2,0-3.3,0c-0.2,0-0.5-0.2-0.5-0.3c0-1.4,0-2.8,0-4.2c0.6,0,1.1,0,1.6,0c0.5,0,0.7-0.2,0.7-0.7c0-1.6,0-1.6,1.7-1.6
	c0.5,0,0.6,0.2,0.6,0.7c0,0.5,0,1,0,1.5c0.5,0,1.1,0.1,1.6,0.1c0.5,0,0.7-0.1,0.6-0.6c0-1,0-2.1,0-3.1c0-0.6-0.2-0.8-0.8-0.8
	c-3.3,0-6.5,0-9.8,0c-0.2,0-0.5,0-0.8,0.1v2.2c-1.3,0-2.5,0-3.8,0c-0.6,0-0.8,0.2-0.8,0.8c0,0.6,0,1.3,0,1.9c0,1.7,0,1.7,1.7,1.8
	c0.1,0,0.2,0,0.2,0c0.1,0.1,0.3,0.2,0.3,0.4c0.3,1.6,0.1,1.9-1.5,1.9c-0.1,0-0.1,0-0.2,0c-0.4,0-0.6,0.1-0.6,0.6
	c0,0.6,0.1,1.3-0.2,1.6c-0.3,0.3-1.1,0.1-1.6,0.2c-0.2,0-0.5,0.2-0.5,0.4c-0.1,0.6,0,1.2,0,1.9c0.7,0,1.2,0,1.8,0
	c0.2,0,0.4,0.2,0.5,0.4c0.3,1.6,0.1,1.9-1.5,1.9c0,0-0.1,0-0.1,0c-0.5-0.1-0.6,0.2-0.6,0.6c0,0.8,0,1.6,0,2.3c0,1.9-0.4,1.5,1.6,1.6
	c0.5,0,0.7-0.2,0.6-0.7c0-0.5,0-1,0-1.6h0.9h6.5c1.7,0,1.7,0,1.7-1.6c0,0,0-0.1,0-0.1c0.2-0.2,0.3-0.5,0.5-0.5c2.1,0,4.1,0,6.2,0
	c0-1.4,0.1-2.9,0.1-4.3C26.1,55.9,25.8,55.7,25.6,55.7 M16.4,46.6c0.5,0,0.6,0.2,0.6,0.6c0,1.1,0,2.2,0,3.4c0,0.4-0.2,0.6-0.6,0.6
	c-0.5,0-1.1,0-1.7,0c0-1.6,0-3,0-4.5C15.3,46.6,15.9,46.6,16.4,46.6 M17.8,57.9c-0.8,0-1.6,0-2.3,0c-0.5,0-0.7,0.1-0.6,0.6
	c0,0,0,0.1,0,0.1c0,1.7-0.1,1.8-1.8,1.5c-0.2,0-0.4-0.2-0.4-0.4c0-1.4,0-2.7,0-4.2c1.3,0,2.5,0,3.7,0c0.8,0,1.6,0,2.4,0
	c0.5,0,0.7,0.2,0.7,0.7C19.3,57.9,19.4,57.9,17.8,57.9 M23.9,56.4c0,1.5-0.4,1.9-1.9,1.5c-0.1,0-0.3-0.2-0.3-0.3c0-0.5,0-1.1,0-1.6
	c0-0.1,0.3-0.3,0.5-0.3c0.6,0,1.2,0,1.8,0C23.9,56,23.9,56.2,23.9,56.4 M28.4,64.8L28.4,64.8L28.4,64.8L28.4,64.8z M30.6,78.4
	C30.6,78.4,30.6,78.4,30.6,78.4L30.6,78.4L30.6,78.4L30.6,78.4z M26,73.9C26,73.9,26,73.9,26,73.9L26,73.9L26,73.9z M39.7,71.6
	C39.7,71.6,39.7,71.6,39.7,71.6L39.7,71.6C39.7,71.5,39.7,71.5,39.7,71.6C39.7,71.5,39.7,71.5,39.7,71.6 M42.1,73.9L42.1,73.9
	C42.1,73.9,42.1,73.9,42.1,73.9C42.1,73.9,42.1,73.9,42.1,73.9L42.1,73.9z M19.3,67L19.3,67L19.3,67C19.3,67,19.3,67,19.3,67
	L19.3,67z M23.1,76.1c-2.4,0-4.8,0-7.2,0c-2.4,0-4.8,0-7.3,0c-0.5,0-0.8,0.1-0.8,0.7c0,4.8,0,9.7,0,14.5c0,0.5,0.2,0.7,0.7,0.7
	c4.8,0,9.7,0,14.5,0c0.6,0,0.7-0.2,0.7-0.8c0-4.8,0-9.6,0-14.4C23.9,76.3,23.7,76.1,23.1,76.1 M21.6,89.1c0,0.6-0.2,0.7-0.7,0.7
	c-1.7,0-3.3,0-5,0c-1.7,0-3.3,0-5,0c-0.5,0-0.7-0.1-0.7-0.7c0-3.3,0-6.7,0-10c0-0.5,0.2-0.7,0.7-0.7c3.3,0,6.7,0,10,0
	c0.5,0,0.7,0.2,0.7,0.7C21.6,82.4,21.6,85.7,21.6,89.1 M8.7,23.9c4.8,0,9.5,0,14.3,0c0.6,0,0.8-0.1,0.8-0.8c0-4.8,0-9.6,0-14.4
	c0-0.6-0.2-0.8-0.8-0.8c-4.8,0-9.6,0-14.4,0C8,7.9,7.9,8.1,7.9,8.8c0,2.4,0,4.7,0,7.1c0,2.4,0,4.8,0,7.2C7.9,23.7,8.1,23.9,8.7,23.9
	 M10.2,10.9c0-0.5,0.1-0.7,0.7-0.7c3.3,0,6.7,0,10,0c0.5,0,0.7,0.1,0.7,0.7c0,3.3,0,6.7,0,10c0,0.6-0.2,0.7-0.7,0.7
	c-1.7,0-3.4,0-5.1,0c-1.6,0-3.3,0-4.9,0c-0.5,0-0.7-0.1-0.7-0.7C10.2,17.6,10.2,14.2,10.2,10.9 M76.9,23.9c4.8,0,9.6,0,14.4,0
	c0.6,0,0.8-0.2,0.8-0.8c0-4.8,0-9.6,0-14.4c0-0.6-0.2-0.8-0.8-0.8c-2.4,0-4.8,0-7.2,0c-2.4,0-4.8,0-7.2,0c-0.6,0-0.8,0.1-0.8,0.8
	c0,4.8,0,9.6,0,14.4C76.1,23.7,76.3,23.9,76.9,23.9 M78.4,10.9c0-0.5,0.1-0.7,0.7-0.7c3.3,0,6.7,0,10,0c0.5,0,0.7,0.2,0.7,0.7
	c0,3.3,0,6.6,0,10c0,0.6-0.2,0.7-0.8,0.7c-1.7,0-3.3,0-5,0c-1.6,0-3.2,0-4.8,0c-0.5,0-0.8-0.1-0.8-0.7
	C78.4,17.5,78.4,14.2,78.4,10.9 M78.5,33L78.5,33L78.5,33L78.5,33C78.5,33,78.5,33,78.5,33 M78.5,42L78.5,42L78.5,42
	C78.5,42.1,78.5,42.1,78.5,42L78.5,42z M48.8,64.8C48.8,64.8,48.8,64.8,48.8,64.8L48.8,64.8L48.8,64.8L48.8,64.8z M39.7,69.4
	L39.7,69.4C39.7,69.3,39.7,69.3,39.7,69.4C39.7,69.3,39.7,69.3,39.7,69.4C39.7,69.4,39.7,69.4,39.7,69.4 M64.8,64.1
	c0-0.5,0-1.1,0-1.6c0.5,0,1.1,0,1.6,0.1c0.5,0,0.7-0.2,0.7-0.7c0-1.8,0-3.7,0-5.5c0-0.5-0.2-0.7-0.7-0.7c-1.3,0-2.6,0-3.9,0
	c0-0.5,0.1-1.1,0-1.6c0-0.5,0.1-0.8,0.7-0.7c0.6,0,1.2,0,1.8,0c2.2,0,2.2,0,2.1-2.2c0.2,0,0.5,0,0.7,0c1.7,0,1.7,0,1.6-1.8
	c0-0.4-0.1-0.5-0.5-0.5c-0.6,0-1.2,0-1.8-0.1c0-1.3,0-2.6,0-3.9c0-0.5,0.2-0.7,0.6-0.6c0.5,0,1,0,1.6,0c0-0.7,0-1.3,0-1.8
	c0-0.2-0.3-0.4-0.5-0.4c-0.5-0.1-1.3,0.1-1.6-0.2c-0.3-0.3-0.2-1-0.2-1.6c0-0.4-0.2-0.6-0.6-0.5c-0.6,0-1.1,0-1.7,0
	c0-0.1,0-0.2,0-0.3c0-0.6-0.2-1.3,0.1-1.7c0.3-0.3,1.1-0.2,1.6-0.2c0.4,0,0.6-0.1,0.5-0.5c0-0.1,0-0.1,0-0.2c0-1.6,0-1.6,1.7-1.6
	c0.5,0,0.6,0.2,0.6,0.6c0,0.1,0,0.1,0,0.2c0,0.5,0,1.2,0.1,1.3c0.5,0.2,1.2,0.1,1.8,0.1c0.1,0,0.3-0.3,0.3-0.5c0-1.2,0-2.3,0-3.5
	c0-0.4-0.2-0.5-0.6-0.5c-1.1,0-2.2,0-3.3,0c-0.5,0-0.7-0.1-0.7-0.7c0-1.1,0-2.2,0-3.3c0-0.4-0.1-0.6-0.6-0.6c-2.1,0-1.6-0.2-1.7,1.6
	c0,0.8,0,1.6,0,2.3c0,0.5-0.2,0.7-0.7,0.7c-0.5,0-1,0-1.6,0c0,0.6,0,1.2,0,1.7c0,0.4-0.1,0.5-0.6,0.6c-1.7,0.1-1.7,0.1-1.7-1.6
	c0-0.8,0-1.6,0-2.3c0-0.4,0.1-0.6,0.6-0.6c1.7-0.1,1.7-0.1,1.7-1.8c0-0.8,0-1.5,0-2.3c0-0.2,0.3-0.5,0.4-0.5c2.1,0,4.1,0,6.3,0
	c0,0.6,0,1.1,0,1.6c0,0.5,0.2,0.7,0.6,0.6c0.5,0,1.1,0,1.6,0c0-0.8,0-1.6,0-2.4c0.8,0,1.5,0,2.3,0c0-1.6,0-3.2,0-4.8
	c0-0.6,0.1-1.3-0.2-1.8c-0.2-0.3-1-0.1-1.6-0.1c-0.4,0-0.5-0.1-0.5-0.5c-0.1-1.8-0.2-1.8,1.5-1.8c0,0,0,0,0.1,0
	c0.5,0.1,0.7-0.1,0.7-0.7c0-1.8,0-3.7,0-5.5c0-0.5-0.2-0.7-0.7-0.7c-1.6,0-1.6,0-1.6-1.6c0-0.6-0.2-0.7-0.7-0.7c-1.8,0-3.6,0-5.3,0
	c-0.2,0-0.4,0-0.7,0.1c0,0.6,0,1.1,0,1.6c0,0.4-0.2,0.6-0.6,0.6c-1.1,0-2.2,0-3.3,0c-0.5,0-0.7,0.1-0.6,0.6c0,1.3,0,2.6,0,3.9
	c0.6,0,1.1,0,1.7,0c0.5,0,0.6-0.2,0.6-0.6c0.1-1.7,0.1-1.7,1.8-1.7c0.7,0,1.4,0,2,0c0.5,0,0.8-0.1,0.7-0.7c0-0.5,0-1,0-1.5h2.2v4.5
	c-1.2,0-2.3,0-3.4,0c-1,0-1,0-1.1,1c0,1.4,0.2,1.3-1.2,1.3c-1.1,0-2.2,0-3.3,0c0,0.6,0,1.1,0,1.7c0,0.5-0.2,0.6-0.6,0.6
	c-0.6,0-1.3,0-1.9,0c-2.1,0-2.1,0-2,2.2c0.7,0,1.4,0.1,2.2,0.1V24c0,1.3,0,2.5,0,3.8c0,0.4-0.1,0.6-0.6,0.6c0,0,0,0-0.1,0
	c-1.6,0-1.6,0-1.6-1.5c0-0.6-0.2-0.8-0.8-0.7c-0.5,0-1.1,0-1.6,0c0,0.5,0,1.1,0,1.6c0,0.6-0.1,0.8-0.7,0.8c-0.5,0-1,0-1.5,0
	c0,0.6,0,1.2-0.1,1.7c0,0.2-0.3,0.5-0.4,0.5c-1.4,0-2.7,0-4.1,0c0-0.5,0-1.1,0-1.6c0-0.5-0.2-0.6-0.6-0.6c-1.1,0-2.2,0-3.3,0
	c-0.4,0-0.6,0.1-0.6,0.6c0,1.9,0,3.8,0,5.6c0,0.4,0.1,0.6,0.6,0.6c1.1,0,2.2,0,3.4,0c0.4,0,0.6-0.1,0.6-0.6c0-0.6,0-1.1,0-1.7
	c0.5,0,1.1,0,1.6,0c0.5,0,0.7,0.2,0.7,0.7c0,1.5,0,3,0,4.5c0,0.5,0.1,0.7,0.6,0.6c0.5,0,1,0,1.6,0c0-0.4,0-0.7,0-1.1
	c0-1.4,0-2.7,0-4.1c0-0.4,0.1-0.6,0.6-0.6c2.1,0,1.7-0.3,1.7,1.6c0,0.8,0,1.6,0,2.3c0,0.5,0.2,0.6,0.6,0.6c1.7,0.1,1.7,0.1,1.7-1.6
	v-4.3v-0.8H58v8h2.2c0-0.1,0.1-0.1,0.1-0.1c0.1-0.3,0.1-1,0.2-1c0.6-0.1,1.3-0.1,1.9,0c0.1,0,0.2,0.2,0.2,0.3c0,0.6,0,1.2-0.1,1.8
	c-0.3,0-0.6,0.1-0.9,0.1V42c0.3,0,0.6,0,0.9,0.1c0,0.3,0.1,0.6,0.1,0.9c0,1.2,0,1.2-1,1.4v4.4H67c0,0.8,0,1.6,0,2.3h-5.5v4.5
	c0.3,0,0.6,0,0.9,0.1c0,1.5,0,3,0,4.5c-0.6-0.1-1,0.1-1.4,0.6c-0.2,0.3-0.8,0.5-1.2,0.6c-0.6,0.1-1.2,0-1.9,0c0,0.9,0,1.7,0,2.6
	c0,0.6-0.2,0.8-0.7,0.7c-1.6,0-1.6,0-1.5,1.7c0,0.4,0.1,0.6,0.5,0.6c0.6,0,1.3-0.1,1.6,0.2c0.3,0.3,0.1,1,0.1,1.5
	c0,0.4,0.2,0.5,0.6,0.5c1.1,0,2.2,0,3.3,0c0.6,0,0.7,0.2,0.7,0.7c0,0.5,0,1-0.1,1.5c0.6,0,1.1,0.1,1.7,0c0.4,0,0.6,0.1,0.6,0.6
	c0,0.6,0,1.1,0,1.7c0.6,0,1.1,0,1.7,0c0.4,0,0.6-0.1,0.6-0.5c0-0.5-0.2-1.3,0.1-1.5c0.3-0.3,1-0.1,1.6-0.2c0.2,0,0.5-0.2,0.5-0.3
	c0.1-0.5,0.1-1.1,0-1.6c0-0.1-0.3-0.3-0.5-0.3c-0.6,0-1.2,0-1.8,0c-0.7,0-1.4,0-2.1,0v-2.2c0.3,0,0.6,0,0.8,0c1,0,1.9,0,2.9,0
	c0.7,0,0.9-0.2,0.8-0.9c0-0.5,0-0.9,0-1.4c-1.3,0-2.6,0-3.9,0C64.9,64.8,64.7,64.6,64.8,64.1 M46.6,33h-2.3c0-0.7,0-1.2,0-1.7
	c0-0.4,0.1-0.6,0.6-0.6c0.6,0,1.2,0,1.7,0V33z M70.9,21.6c0.5,0,0.7,0.1,0.7,0.7c0,1.3,0,2.5,0,3.8c-0.6,0-1.2,0.1-1.9,0.1
	c-0.1,0-0.4-0.2-0.4-0.3c0-1.5,0.1-2.9,0.1-4.4C69.9,21.5,70.4,21.6,70.9,21.6 M67,18c0-0.7,0.1-1,0.9-1c1.6,0.1,1.3-0.2,1.4,1.4
	c0,1,0.1,2,0.1,3c-0.8,0-1.7,0-2.5,0C67,20.3,67.1,19.1,67,18 M66.9,21.5c0,0.7,0.2,1.4,0.1,2c-0.2,0.8-1,0.3-1.6,0.4
	c-0.3,0.1-0.7,0.1-0.7-0.4c0-0.6,0.1-1.3,0.1-1.9C65.6,21.5,66.3,21.5,66.9,21.5 M62.6,19.3c0.6,0,1.2,0,1.8,0
	c0.1,0,0.3,0.3,0.3,0.5c0.1,0.5,0.1,1,0.1,1.6c-0.8,0-1.6,0-2.5,0C62.5,20.8,62.5,20.1,62.6,19.3 M60.3,22.3
	c-0.1-0.3-0.1-0.7,0.5-0.7c0.5,0,1.1-0.1,1.6-0.1c0,0.7,0.1,1.4,0.1,2.1c0,0.1-0.2,0.3-0.4,0.3c-0.5,0-0.9,0.1-1.4,0
	C59.8,23.6,60.4,22.8,60.3,22.3 M64.8,41.4c0,0.4-0.1,0.6-0.6,0.6c-0.6,0-1.2,0-1.7,0c0-0.8,0-1.6,0-2.3h2.3
	C64.8,40.3,64.8,40.9,64.8,41.4 M63,62.5c-0.4,0-0.5-0.2-0.5-0.5c0-0.6,0-1.1-0.1-1.7c0.6,0,1.1,0,1.7,0c0.5,0,0.7,0.2,0.7,0.7
	c0,0.5,0,1,0,1.5C64.2,62.5,63.6,62.5,63,62.5 M69.4,64.8L69.4,64.8C69.4,64.8,69.4,64.8,69.4,64.8C69.4,64.8,69.4,64.8,69.4,64.8
	C69.4,64.8,69.4,64.8,69.4,64.8 M64.8,73.9C64.8,73.9,64.8,73.9,64.8,73.9C64.8,73.9,64.8,73.9,64.8,73.9L64.8,73.9L64.8,73.9z
	 M63.4,73.9c-0.7,0.1-0.9-0.2-0.9-0.9c0-0.5,0-0.9-0.1-1.4c-0.5,0-1.1,0-1.6,0c-0.4,0-0.7,0.1-0.6,0.6c0,0,0,0,0,0.1
	c-0.1,1.6-0.1,1.6-1.7,1.6c-0.7,0-1.5,0-2.2,0c-0.5,0-0.7-0.1-0.7-0.6c0-1.6,0-1.6-1.7-1.6c-0.5,0-0.6-0.2-0.6-0.6
	c0-1.8,0-3.6,0-5.3c0-0.6-0.1-0.9-0.8-0.8c-1.3,0.1-2.5,0-3.8,0.1c0,2.2,0,4.5,0,6.7c-0.7,0-1.5,0-2.2,0c0-0.6,0-1.1,0-1.7
	c0-0.4-0.1-0.6-0.6-0.6c-0.1,0-0.2,0-0.4,0c-0.4-0.1-1.2,0-1.3-0.2c-0.2-0.6-0.1-1.2-0.1-1.8c0-0.1,0.1-0.2,0.2-0.2
	c0.1,0,0.1,0,0.2,0c0.6-0.1,1.4,0.1,1.7-0.3c0.3-0.3,0.1-1.1,0.1-1.7c0-0.1,0-0.2,0-0.3c0.7,0,1.5,0,2.2,0c0-0.6,0.1-1.1,0.1-1.7
	c0-0.5,0.2-0.7,0.6-0.6c0.3,0,0.5,0,0.8,0c0.9,0,0.9-0.1,0.7-1.1h-0.8c-3.2,0-6.5,0-9.7,0c-1.3,0-1.8-0.5-1.8-1.8c0-0.5,0-1.1,0-1.6
	c-0.5,0-0.8-0.1-1.3-0.1v-4.5c-1.5,0-3,0-4.5,0c0,1.5,0,3,0,4.5c-0.3,0-0.4,0.1-0.5,0.1c-0.6,0-1.2,0-1.9,0c0,0.6,0.1,1.2,0.1,1.7
	c0,0.4,0.1,0.6,0.6,0.6c0.5,0,1.2-0.1,1.5,0.1c0.3,0.3,0.2,1,0.1,1.5c0,0.5,0.2,0.6,0.7,0.6c1.6,0,3.2,0,4.8,0h1.3
	c0,0.2,0.1,0.4,0.1,0.5c0,0.5-0.2,1.3,0.1,1.5c0.3,0.3,1,0.2,1.6,0.2c0.4,0,0.6,0.2,0.6,0.6c0,1.1,0,2.2,0,3.4
	c0,0.5-0.2,0.6-0.6,0.6c-0.6,0-1.2,0-1.7,0v2.2c0.5,0,1.1,0.1,1.6,0c0.6,0,0.8,0.1,0.8,0.7c0,0.5,0,1.1,0,1.6c0.6,0,1.1,0,1.7,0
	c0.4,0,0.6-0.1,0.6-0.6c0.1-1.7,0.1-1.7,1.8-1.7c0.2,0,0.3,0,0.5,0c0,1,0,2,0,3c0,1.8-0.4,1.6,1.6,1.6c0,0,0.1,0,0.1,0
	c0.2-0.2,0.5-0.3,0.5-0.5c0-1.4,0-2.7,0-4.1c0.6,0,1.2,0,1.7,0c0.4,0,0.6,0.1,0.6,0.5c0,0.6-0.1,1.3,0.2,1.6c0.2,0.3,1,0.1,1.5,0.1
	c0.4,0,0.6,0.1,0.6,0.6c0,0.6,0,1.1,0,1.7h-2.2V77c0,0.3,0.1,0.6,0,0.9c-0.1,0.2-0.3,0.5-0.5,0.5c-0.5,0.1-1.3-0.1-1.6,0.2
	c-0.3,0.3-0.1,1-0.2,1.6c0,0.4-0.2,0.5-0.5,0.5c-1.4,0-2.7,0-4.1,0c0-1.3,0-2.7,0-4c0-0.4-0.1-0.5-0.5-0.5c-0.6,0-1.2,0-1.7,0
	c0-0.7,0-1.5,0-2.2c-0.6,0-1.2,0-1.8-0.1c-0.2,0-0.5-0.3-0.5-0.5c-0.1-0.6-0.1-1.2-0.1-1.8c-0.2,0-0.4,0-0.6,0
	c-1.7,0-1.9-0.2-1.6-1.9c0-0.2,0.3-0.4,0.5-0.4c0.6,0,1.2,0,1.7,0c0-0.6,0-1.2,0.1-1.8c0-0.4-0.2-0.5-0.5-0.5
	c-0.6,0-1.3,0.1-1.6-0.2c-0.3-0.3-0.1-1.1-0.2-1.6c0-0.2-0.3-0.5-0.4-0.5c-2.9,0-5.7,0-8.6,0c0,1.3,0,2.5,0,3.8
	c0,0.6-0.2,0.7-0.7,0.7c-1.3,0-2.5,0-3.8,0c0-0.5-0.1-1.1,0-1.6c0-0.6-0.2-0.8-0.8-0.8c-1.3,0-2.5,0-3.8,0v2.4h-4.5
	c0,0.6,0,1.1,0,1.7c0,0.4,0.2,0.6,0.6,0.6c0.8,0,1.6,0,2.4,0c1.6,0,1.6,0,1.6,1.6c0,0,0,0,0,0.1c-0.1,0.5,0.1,0.7,0.6,0.6
	c1.2,0,2.5,0,3.7,0c0.8,0,1.5,0.1,2.3,0.1c0.1-0.6,0.1-1.2,0.1-1.8c0-0.4,0.2-0.6,0.6-0.6c1,0,2,0,3,0c0.7,0,1-0.1,1-0.9
	c-0.1-1,0-2,0-3.1c0-0.2,0.2-0.5,0.3-0.5c0.6-0.1,1.2,0,2,0v2.3c0.6,0,1.2,0,1.7,0c0.2,0,0.5,0.2,0.5,0.3c0,0.6,0,1.2,0,1.7
	c0,0.1-0.3,0.2-0.5,0.2c-0.6,0.1-1.3-0.1-1.6,0.2c-0.3,0.3-0.2,1-0.2,1.6c0,0.4-0.2,0.5-0.6,0.5c-0.5,0-1.1,0-1.8,0v4.6
	c0.8,0,1.6,0,2.4,0.1c0,0.7,0,1.4,0,2.1c1.3,0,2.6,0,3.8,0c0.5,0,0.7,0.1,0.7,0.7c0,0.5,0,1.1,0,1.7c1.3,0,2.6,0,3.9,0
	c0.4,0,0.6-0.1,0.6-0.6c0-0.6,0-1.2,0-1.7c0.7,0,1.5,0,2.2,0c0,0.6,0.1,1.2,0.1,1.7c0,0.5,0.2,0.6,0.6,0.6c0.5,0,1.3-0.1,1.5,0.1
	c0.3,0.3,0.2,1,0.1,1.5c0,0.5,0.2,0.6,0.6,0.6c2,0,4.1,0,6.1,0c0,0.8,0,1.6,0,2.3c1.3,0,2.7,0,4,0c0.4,0,0.6,0.2,0.6,0.6
	c0,0.8,0,1.6,0,2.4c0,1.8-0.3,1.5,1.5,1.6c0.6,0,0.8-0.2,0.8-0.8c0-2,0-4,0-6c-0.6,0-1.1,0-1.7,0c-0.5,0-0.6-0.2-0.6-0.6
	c-0.1-1.7-0.1-1.7-1.7-1.7c-0.2,0-0.3,0-0.5,0c0-0.8,0-1.6,0-2.3c-0.5,0-1.1,0-1.6,0c-0.5,0-0.7-0.2-0.7-0.7c0-1.3,0-2.6,0-3.9
	c2.8,0,5.5,0,8.3,0c0.7,0,0.9,0.2,0.9,0.9c0,1.4,0,1.4,1.4,1.4c0.3,0,0.6,0,0.9,0c0-1.5,0-3,0-4.5C64.3,73.9,63.8,73.8,63.4,73.9
	 M46.6,62.6v2.2c-0.6,0-1.2,0-1.7,0c-0.4,0-0.5-0.2-0.6-0.6C44.2,62.4,44.5,62.2,46.6,62.6 M23.8,71c0,0.2-0.3,0.4-0.5,0.5
	c0,0-0.1,0-0.2,0c-1.6,0-1.9-0.3-1.5-1.9c0-0.1,0.3-0.4,0.4-0.4c0.6,0,1.2,0,1.9,0.1C23.9,69.9,23.9,70.5,23.8,71 M37.5,77.9
	c0.1,0.4-0.2,0.5-0.5,0.5c-1,0-2.1,0-3.1,0c-0.3,0-0.5,0.1-0.8,0.1c0-0.7-0.1-1.5-0.1-2.4c1.5,0,2.9-0.2,4.2,0.1
	C37.9,76.3,37.3,77.3,37.5,77.9 M42.1,80.6c-0.6,0-1.2,0-1.8,0c-0.4,0-0.5-0.2-0.5-0.5c0-1.2,0-2.3,0-3.5c0-0.4,0.2-0.5,0.6-0.5
	c0.6,0,1.2,0,1.7,0C42.1,77.6,42.1,79.1,42.1,80.6 M53.4,83.5c0-0.4,0.2-0.6,0.6-0.6c0.6,0,1.1,0,1.7,0c0,0.5,0,1,0,1.5
	c0.1,0.6-0.2,0.8-0.8,0.7c-0.5,0-1,0-1.6-0.1C53.4,84.6,53.4,84.1,53.4,83.5 M62.5,71.6C62.5,71.6,62.5,71.6,62.5,71.6L62.5,71.6
	C62.5,71.5,62.5,71.5,62.5,71.6C62.5,71.5,62.5,71.5,62.5,71.6 M39.7,89.7C39.7,89.7,39.7,89.7,39.7,89.7L39.7,89.7L39.7,89.7
	C39.7,89.7,39.7,89.7,39.7,89.7 M28.4,87.6C28.4,87.6,28.4,87.6,28.4,87.6L28.4,87.6L28.4,87.6z M37.6,89.6
	c-0.2-0.5-0.1-1.2-0.1-1.8c0-0.1,0.3-0.3,0.4-0.3c0.6,0,1.2,0,1.7,0c0-0.6,0.1-1.2,0-1.8c0-0.2-0.3-0.4-0.4-0.5
	c-0.6-0.1-1.5,0.1-1.6-0.2c-0.3-0.5-0.1-1.2-0.1-1.8c0-0.1,0-0.1,0-0.2h-2.3c0,0.6,0,1.1,0,1.6c0,0.4-0.1,0.6-0.6,0.6
	c-0.6,0-1.1,0-1.7,0c0,0.6-0.1,1.1,0,1.7c0,0.5-0.2,0.7-0.7,0.7c-1.3,0-2.6,0-3.9,0c0,1.3,0,2.6,0,3.9c0,0.4,0.2,0.6,0.6,0.6
	c0.8,0,1.5,0,2.3,0c1.7,0,1.7,0,1.7-1.6c0-0.1,0-0.2,0-0.2c0.1-0.1,0.2-0.4,0.4-0.4c1.6-0.3,1.9-0.1,1.9,1.5c0,0.1,0,0.1,0,0.2
	c0,0.4,0.1,0.6,0.6,0.6c1.1,0,2.3,0,3.4,0c0.2,0,0.5-0.3,0.5-0.5c0-0.6,0-1.2,0-1.8c-0.2,0-0.5,0-0.7,0
	C38.5,89.7,37.7,89.8,37.6,89.6 M37.5,83L37.5,83C37.5,83,37.5,83,37.5,83L37.5,83C37.5,83,37.5,83,37.5,83 M39.7,21.5
	c0-0.3,0-0.6,0-0.9c0-1.5-0.2-1.2,1.3-1.3c0.3,0,0.7,0,1,0c0-2,0-4,0-6c0-0.7-0.2-0.9-0.9-0.9c-0.5,0-1,0-1.4,0c0,1.3,0,2.7,0,4
	c0,0.4-0.1,0.6-0.5,0.6c-0.6,0-1.1-0.1-1.7-0.1c0-1.5,0-3,0-4.5c-0.6,0-1.2,0.1-1.7,0.1c-0.4,0-0.6,0.2-0.6,0.6c0,0.8,0,1.6,0,2.3
	c0,1.6,0,1.6-1.6,1.6c-0.6,0-0.7,0.2-0.7,0.7c0,1.2,0,2.5,0,3.7c0.2,0,0.4,0.1,0.5,0.1c0.5,0,1.3-0.1,1.5,0.1c0.3,0.3,0.2,1,0.2,1.6
	c0,0.5,0.2,0.6,0.6,0.6c0.6,0,1.1,0,1.7,0v-2.2C38.3,21.6,39,21.6,39.7,21.5 M35.3,19.2v-2.1c0.7-0.1,1.5-0.1,2.2-0.2
	c0,0.2,0,0.4,0,0.6C37.5,19.6,37.5,19.6,35.3,19.2 M37.5,23.9L37.5,23.9L37.5,23.9L37.5,23.9L37.5,23.9L37.5,23.9z M39.7,12.4
	L39.7,12.4L39.7,12.4L39.7,12.4C39.7,12.4,39.7,12.4,39.7,12.4 M39.7,21.5C39.7,21.5,39.7,21.5,39.7,21.5L39.7,21.5L39.7,21.5
	C39.7,21.5,39.7,21.5,39.7,21.5 M89.1,51.1c0.6,0,0.7,0.2,0.7,0.8c0,1.5,0,1.5,1.6,1.5c0.5,0,0.7-0.2,0.7-0.7c0-1.8,0-3.5,0-5.3
	c0-0.7-0.2-0.9-0.9-0.8c-1.7,0-3.3,0-5,0c-1,0-1,0-1-1c0-0.4,0-0.8,0-1.2c-0.8,0-1.5-0.1-2.2-0.1c0,2.3,0,4.6,0,6.9
	C85,51.1,87.1,51.1,89.1,51.1 M83,44.3L83,44.3C83,44.2,83,44.2,83,44.3L83,44.3C83,44.3,83,44.3,83,44.3 M30.6,35.2
	C30.6,35.2,30.6,35.2,30.6,35.2L30.6,35.2C30.6,35.2,30.6,35.2,30.6,35.2C30.6,35.2,30.6,35.2,30.6,35.2 M37.5,40.4
	c0-0.5-0.1-0.7-0.6-0.6c-0.5,0-1,0-1.6,0c0-0.8-0.1-1.5-0.1-2.2l4.5,0c0-0.7,0.1-1.5,0.1-2.4h-4.6c0-0.7,0-1.5,0-2.2
	c-0.7,0-1.4,0-2.2,0c0-1.5,0-3,0-4.5h-2.3c0,0.5,0,0.9,0,1.3c0.1,0.7-0.1,0.9-0.9,0.9c-3.3,0-6.5,0-9.8,0c-0.3,0-0.5-0.1-0.8-0.1
	c0-0.5,0-1,0-1.5c0-0.5,0.1-0.7,0.6-0.6c0.7,0,1.4,0,2.1,0c1.9,0,1.9,0,1.8-1.9c0-0.1,0-0.1-0.1-0.3c-0.2,0-0.5,0-0.8,0
	c-1.5,0-2.9,0-4.4,0c-1.5,0-1.5,0-1.6,1.5c0,0,0,0.1,0,0.1c0,0.4-0.1,0.6-0.6,0.6c-0.6,0-1.1,0-1.7,0c0,0.2,0,0.5,0,0.7
	c0,1.5,0,1.6-1.5,1.5c-0.7,0-0.8,0.2-0.8,0.8c0,1.5,0,1.4-1.5,1.5c-0.7,0-0.8-0.2-0.8-0.8c0-1.5,0-1.4-1.5-1.5
	c-0.6,0-0.8,0.2-0.8,0.8c0,3.7,0,7.5,0,11.2c0,1.9-0.4,1.6,1.7,1.6c0.5,0,0.6-0.2,0.6-0.6c0-1.1,0-2.2,0-3.4c0-0.4,0.1-0.6,0.6-0.6
	c0.5,0,1.1-0.1,1.6-0.1c0,0.6,0.1,1.2,0.1,1.8c0,0.5,0.2,0.6,0.6,0.6c0.8,0,1.7,0,2.5,0c1.6,0,1.4,0.2,1.4-1.4c0-0.7,0.2-1,0.9-0.9
	c1.2,0,2.3,0,3.5-0.1c0,0.6,0.1,1.2,0.1,1.8c0,0.5,0.2,0.6,0.6,0.6c1,0,2-0.1,3,0c0.8,0.1,1-0.2,0.9-0.9c-0.1-1.2,0-2.4,0-3.6h2.3
	c0-0.8,0-1.6,0.1-2.4c0.7,0,1.4,0,2.1,0c0-0.7,0.1-1.4,0.1-2.2H33l0,2.2c-0.8,0-1.6,0-2.3,0c0,0.6,0,1.2,0,1.8
	c0,0.4-0.1,0.5-0.5,0.5c-0.6,0-1.2,0-1.7,0c0,0.5,0,1.1,0,1.6c0,0.5,0.1,0.6,0.6,0.6c1.6,0,1.6,0.1,1.6,1.6c0,0.5,0.2,0.7,0.7,0.7
	c1.1,0,2.2,0,3.3,0c0.4,0,0.6,0.1,0.6,0.5c0,0.6-0.1,1.4,0.2,1.6c0.4,0.3,1.2,0.1,1.8,0.1c0.1,0,0.2,0,0.3-0.1
	C37.5,43,37.5,41.7,37.5,40.4 M18.7,30.7c0.2,0,0.4-0.1,0.6-0.1c0,0.6,0,1.2,0,1.9c0,0.1,0,0.2,0,0.2c-0.5,0.6-1.2,0.2-1.8,0.3
	c-0.1,0-0.4-0.3-0.4-0.5C16.9,30.7,16.9,30.7,18.7,30.7 M14.8,39.2c0,0.4-0.2,0.6-0.6,0.5c-0.6,0-1.2-0.1-1.9-0.1
	c0.1-0.7,0.1-1.3,0.2-2.1c0.7,0,1.5,0,2.2,0C14.8,38.1,14.8,38.7,14.8,39.2 M17.7,37.5c-1,0-1.9,0-2.9,0.1c-0.3-2.3-0.3-2.3,2-2.3
	c0.6,0,1.3,0,1.9,0c0.4,0,0.6,0.1,0.6,0.6C19.4,37.5,19.4,37.5,17.7,37.5 M23.8,39c0.1,0.3,0.2,0.8-0.4,0.8c-0.7,0-1.3-0.1-2-0.1
	c0.1-0.7,0.2-1.4,0.2-2.1c0.6,0,1.2-0.1,1.8,0C24.3,37.7,23.7,38.5,23.8,39 M23.9,34.8c0,0,0,0.1,0,0.1c-0.5,0.6-1.2,0.2-1.8,0.3
	c-0.1,0-0.4-0.3-0.4-0.5c-0.1-0.5,0-1.1,0-1.7c0.3,0,0.5-0.1,0.7-0.1C24,32.9,24.1,33.1,23.9,34.8 M26.5,35.2
	c-0.1,0-0.4-0.3-0.4-0.4c0-0.6,0-1.2,0-1.8c0.7,0,1.3,0,1.9,0c0.1,0,0.3,0.3,0.4,0.5c0.1,0.5,0.1,1.1,0.1,1.6
	C27.8,35.1,27.2,35.2,26.5,35.2 M34.8,37.5c-1.9,0-1.9,0-1.9-1.9c0-0.1,0-0.3,0-0.4c0.7,0,1.5,0,2.2,0v2.3
	C35,37.5,34.9,37.5,34.8,37.5 M37.5,44.2L37.5,44.2C37.5,44.3,37.5,44.3,37.5,44.2L37.5,44.2C37.5,44.2,37.5,44.2,37.5,44.2
	 M61.7,80.7c-1.4,0-1.4,0-1.4,1.4c0,1,0,2,0,3.1c0.6,0,1.2,0.1,1.7,0c0.2,0,0.5-0.3,0.5-0.5c0.1-0.5,0-1.1,0-1.7c0.6,0,1.1,0,1.6,0
	c0.5,0,0.6,0.2,0.7,0.7c0,1.7,0,1.7,1.7,1.6c0.4,0,0.6-0.2,0.6-0.6c0-0.5-0.1-1.4,0.2-1.6c0.4-0.3,1.1-0.1,1.7-0.1
	c0.1,0,0.3,0,0.4,0c0-1.5,0-3,0-4.5c-1.5,0-3,0-4.5,0v2.2C63.7,80.7,62.7,80.7,61.7,80.7 M64.8,78.4L64.8,78.4L64.8,78.4L64.8,78.4
	L64.8,78.4z M69.4,83L69.4,83C69.4,83,69.4,83,69.4,83C69.4,83,69.4,83,69.4,83C69.4,83,69.4,83,69.4,83 M51.2,28.4L51.2,28.4
	C51.2,28.4,51.2,28.4,51.2,28.4C51.2,28.4,51.2,28.4,51.2,28.4C51.2,28.4,51.2,28.4,51.2,28.4 M46.6,25.6c0,0.2,0.3,0.5,0.5,0.5
	c0.5,0.1,1.1,0,1.7,0c0,0.6,0,1.2,0,1.7c0,0.4,0.1,0.6,0.6,0.6c0.6,0,1.2,0,1.7,0c0-0.6,0-1.1,0-1.7c0-0.5,0.2-0.6,0.6-0.6
	c0.5,0,1.1,0,1.6-0.1c0-0.7,0-1.5,0-2.2c-0.5,0-1.1,0-1.6,0c-0.5,0-0.7-0.2-0.7-0.7c0-0.5,0-1,0-1.5c0.8-0.1,1.5-0.1,2.2-0.1
	c0-0.6,0.1-1.1,0-1.7c0-0.2-0.3-0.5-0.5-0.5c-1.4,0-2.7,0-4.1,0c0,1.3,0.1,2.7,0.1,4c0,0.2-0.3,0.4-0.5,0.4c-0.6,0.1-1.2,0-1.7,0
	C46.6,24.5,46.6,25,46.6,25.6 M46.6,23.9C46.6,23.9,46.6,23.9,46.6,23.9L46.6,23.9L46.6,23.9L46.6,23.9z M53.4,26.1L53.4,26.1
	C53.4,26.1,53.4,26.1,53.4,26.1C53.4,26.1,53.4,26.1,53.4,26.1C53.4,26.1,53.4,26.1,53.4,26.1 M60.3,85.2
	C60.3,85.2,60.3,85.2,60.3,85.2L60.3,85.2C60.3,85.2,60.3,85.2,60.3,85.2L60.3,85.2z M49.4,12.5c-0.2,0-0.4-0.3-0.5-0.5
	c-0.1-0.6-0.1-1.1-0.1-1.7c-0.5,0-1,0-1.5,0c-0.6,0-0.8-0.1-0.8-0.7c0-1.6,0-1.6-1.7-1.6c-0.5,0-0.6,0.2-0.6,0.7c0,1.9,0,3.8,0,5.6
	c0,0.2,0.1,0.3,0.1,0.5c0.1,0,0.2,0.1,0.3,0.1c2.2,0,4.3,0,6.5,0c0-0.8,0-1.6,0-2.3C50.6,12.4,50,12.5,49.4,12.5 M51.2,14.8
	L51.2,14.8L51.2,14.8L51.2,14.8L51.2,14.8z M51.2,12.4C51.2,12.4,51.2,12.4,51.2,12.4L51.2,12.4L51.2,12.4L51.2,12.4z M33,53.3
	C33,53.3,33,53.3,33,53.3L33,53.3L33,53.3L33,53.3L33,53.3z M33,46.6L33,46.6C33,46.6,33,46.6,33,46.6L33,46.6z M33.1,51.3
	c0.2-0.3,1-0.2,1.6-0.2c0.4,0,0.6-0.2,0.6-0.6c0-1.1,0-2.2,0-3.4c0-0.4-0.1-0.6-0.6-0.6c-0.6,0-1.1,0-1.7,0c0,0.5-0.1,1.1,0,1.6
	c0,0.5-0.2,0.7-0.7,0.7c-1.1,0-2.2,0-3.3,0c-0.4,0-0.6,0.1-0.6,0.5c0,1.2,0,2.3,0,3.5c0,0.2,0.3,0.5,0.4,0.5c1.4,0,2.8,0,4.1,0
	c0-0.1,0-0.2,0-0.3C33,52.4,32.8,51.7,33.1,51.3 M26.7,10.2c0.5,0,1.3-0.1,1.5,0.2c0.3,0.3,0.2,1,0.1,1.5c0,0.5,0.2,0.6,0.6,0.6
	c1.1,0,2.2,0,3.4,0c0.5,0,0.6-0.2,0.6-0.6c0-1.1,0-2.2,0-3.4c0-0.5-0.2-0.6-0.6-0.6c-0.9,0-1.9,0-2.8,0c-0.6,0-1.2,0-1.8,0
	c-1.7,0-1.7,0-1.6,1.7C26.1,10.1,26.3,10.2,26.7,10.2 M73.9,26.1C73.9,26.1,73.9,26.1,73.9,26.1L73.9,26.1L73.9,26.1
	C73.9,26.1,73.9,26.1,73.9,26.1 M73.3,28.4c-0.6,0-1.2,0-1.7,0c0,0.5,0,1.1,0,1.7c0,0.4,0.2,0.6,0.6,0.6c1.1,0,2.1,0,3.2,0
	c0.6,0,0.8,0.2,0.8,0.8c0,0.5,0,1-0.1,1.5c-0.6,0-1.2,0-1.7,0c-0.2,0-0.4,0.2-0.5,0.4c-0.3,1.7-0.1,1.9,1.6,1.9c0.2,0,0.4,0,0.6-0.1
	c0,2,0,3.9,0,5.9c0,1,0,1,0.9,1c0.5,0,0.9,0,1.4,0c0-1.3,0-2.7,0-4c0-0.2,0.2-0.5,0.4-0.5c1.3,0,2.7,0,4.2,0v2.2
	c0.5,0,0.9,0.1,1.4,0c0.7-0.1,0.9,0.2,0.9,0.9c0,1.4,0,1.5,1.5,1.4c0.6,0,0.8,0.1,0.8,0.8c0,1.5,0,1.5,1.6,1.5
	c0.6,0,0.7-0.2,0.7-0.7c0-1.5,0-1.6,1.5-1.5c0.6,0,0.8-0.2,0.8-0.7c0-4.8,0-9.6,0-14.4c0-0.6-0.2-0.8-0.8-0.7c-1.5,0-1.6,0-1.5,1.5
	c0,0.7-0.2,0.8-0.8,0.8c-1.6,0-1.4-0.3-1.4,1.5c0,0.6,0.2,0.8,0.8,0.8c1.5,0,1.5,0,1.5,1.5c0,0.6-0.1,0.8-0.7,0.8
	c-1.6,0-1.6,0-1.5,1.6c0,0.5,0.2,0.7,0.7,0.7c1.7,0,1.7,0,1.6,1.7c0,0.4-0.2,0.5-0.6,0.5c-0.8,0-1.5,0-2.3,0c-1.6,0-1.7,0-1.7-1.6
	c0-0.5-0.1-0.6-0.6-0.7c-1.7-0.1-1.7-0.1-1.7-1.8c0-0.1,0-0.3,0.1-0.4c-1.5,0-3,0-4.6,0c0,0.6,0,1.2-0.1,1.7c0,0.2-0.3,0.5-0.4,0.5
	c-0.6,0-1.2,0-1.9,0c0-0.7,0-1.4,0-2.2c0.8,0,1.6,0,2.3,0c0-1,0-1.9,0-2.9c0-1.6,0-1.6-1.6-1.6c0,0-0.1,0-0.1,0
	c-0.4,0-0.6-0.2-0.6-0.6c0-0.5,0-1.1,0-1.6c-0.8,0-1.5-0.1-2.2-0.1c0,0.6-0.1,1.2,0,1.7C73.9,28.2,73.7,28.4,73.3,28.4 M89.7,73.9
	C89.7,73.9,89.7,73.9,89.7,73.9C89.7,73.9,89.7,73.9,89.7,73.9C89.7,73.9,89.7,73.9,89.7,73.9L89.7,73.9L89.7,73.9z M89.3,76.1
	c-0.8,0-1.6,0-2.4,0c-1.9,0-1.6-0.4-1.6,1.7c0,0.4,0.2,0.6,0.6,0.6c1.9,0,3.8,0,5.6,0c0.5,0,0.6-0.2,0.6-0.6c0-0.7,0-1.3,0-2
	c0-2.2-0.2-2.3-2.3-1.9c0,0.6,0,1.1,0.1,1.7C89.8,76,89.6,76.1,89.3,76.1 M86,85.2c1-0.1,2,0,3.1,0c0.5,0,0.7,0.1,0.7,0.7
	c0,0.6,0,1.1,0,1.7c0.6,0,1.1,0,1.7,0c0.5,0,0.7-0.1,0.7-0.6c0-1.1,0-2.2,0-3.4c0-0.4-0.2-0.6-0.6-0.6c-1.4,0-2.8,0-4.2,0
	c-0.7,0-1.4,0.1-2.1,0.1c0,0.4,0.1,0.9,0.1,1.3C85.2,85,85.4,85.3,86,85.2 M85.2,83C85.2,83,85.2,83,85.2,83
	C85.2,83,85.2,83,85.2,83L85.2,83C85.1,83,85.1,83,85.2,83C85.1,83,85.2,83,85.2,83 M88,87.5c-0.2,0-0.5,0.3-0.5,0.4
	c0,1.2,0,2.4,0,3.6c0,0.2,0.3,0.5,0.4,0.5c1.2,0,2.4,0,3.6,0c0.2,0,0.4-0.2,0.5-0.3c0-0.6,0.1-1.2-0.1-1.8c-0.1-0.2-0.8-0.1-1.3-0.2
	c-0.1,0-0.2,0-0.3,0c-0.4,0-0.6-0.1-0.6-0.6c0-0.6,0-1.1,0-1.7C89.2,87.5,88.6,87.5,88,87.5 M89.7,87.5
	C89.8,87.5,89.8,87.5,89.7,87.5L89.7,87.5C89.8,87.5,89.8,87.5,89.7,87.5C89.7,87.5,89.7,87.5,89.7,87.5 M30.6,80.6L30.6,80.6
	L30.6,80.6L30.6,80.6C30.6,80.6,30.6,80.6,30.6,80.6 M26.2,78.4v4.4c2.1,0.3,2.2,0.3,2.2-1.6c0-0.5,0.1-0.7,0.6-0.6
	c0.5,0,1.1,0,1.6,0v-2.2H26.2z M53.4,87.5L53.4,87.5L53.4,87.5L53.4,87.5L53.4,87.5z M48.9,88c0,0.6,0,1.1,0,1.7c0.1,0,0.3,0,0.4,0
	c0.6,0,1.3-0.2,1.7,0.1c0.3,0.3,0.2,1.1,0.2,1.6c0,0.4,0.1,0.6,0.5,0.5c0.6-0.1,1.3,0.4,1.8-0.4c0,0,0-0.1,0-0.1c0-1.3,0-2.7,0-4
	c-1.3,0-2.6,0-4,0C49,87.5,48.9,87.6,48.9,88 M38.2,53.4c0.2-0.1,0.5-0.3,0.5-0.5c0-2.7,0-5.5,0-8.2c0-0.1,0-0.2-0.1-0.3
	c-0.4,0-0.8-0.1-1.1-0.1c0,3,0,6,0,9.1C37.8,53.4,38,53.4,38.2,53.4 M37.5,53.3C37.5,53.3,37.5,53.3,37.5,53.3L37.5,53.3L37.5,53.3
	L37.5,53.3z M53.4,12.4l0,2.3c1.5,0,3,0,4.5,0.1c0-0.7,0.1-1.5,0.2-2.4H53.4z M27.8,60.2c-0.6,0-1.2,0-1.8,0.1
	c0,0.3,0.1,0.5,0.1,0.8c0,1,0,2,0,3.1c0,0.5,0.1,0.7,0.6,0.6c0.6,0,1.1,0,1.7,0c0-1.3,0-2.6,0-3.9C28.4,60.4,28.3,60.2,27.8,60.2
	 M28.4,64.8C28.4,64.8,28.4,64.8,28.4,64.8C28.4,64.8,28.4,64.8,28.4,64.8L28.4,64.8z M26,60.3C26,60.3,26,60.3,26,60.3
	C26,60.3,26,60.3,26,60.3C26,60.3,26,60.3,26,60.3C26,60.3,26,60.3,26,60.3L26,60.3 M30.6,80.6c0,1.3,0,2.6,0,4
	c0,0.4,0.1,0.6,0.6,0.6c0.6,0,1.1,0,1.7-0.1c0-1.5,0-3,0-4.5C32.2,80.6,31.4,80.6,30.6,80.6 M33,85.2L33,85.2L33,85.2
	C33,85.2,33,85.2,33,85.2C33,85.2,33,85.2,33,85.2 M33,80.6L33,80.6L33,80.6L33,80.6L33,80.6z M81.3,58c-0.2,0-0.6,0.3-0.6,0.4
	c0,0.6,0.1,1.2,0.2,1.9c0,0,0.1,0,0.1,0c1.2,0,2.5,0,3.7,0c0.1,0,0.4-0.2,0.4-0.4c0-0.7,0-1.3-0.1-2c-0.3,0-0.5,0.1-0.8,0.1
	C83.3,57.9,82.3,57.9,81.3,58 M85.1,57.8C85.1,57.8,85.1,57.8,85.1,57.8C85.1,57.8,85.1,57.8,85.1,57.8L85.1,57.8z M33,46.6L33,46.6
	C33,46.6,33,46.6,33,46.6L33,46.6z M28.4,44.4c0,0.5,0,1,0,1.5c0,0.5,0.2,0.7,0.7,0.7c1.3,0,2.6,0,3.9,0c0-0.7,0-1.5,0-2.2H28.4z
	 M91.4,60.2c0.6,0,0.7-0.2,0.7-0.7c0-0.8,0-1.5,0-2.3c0-1.8,0.3-1.5-1.6-1.6c-0.5,0-0.7,0.1-0.7,0.7c0,0.5,0,1.1,0,1.6
	c0,0.2,0,0.5,0,0.7C89.8,60.5,89.5,60.2,91.4,60.2 M36.8,28.4c0.5,0,0.7-0.2,0.7-0.7c0-0.6,0-1.1,0-1.7H33v2.3
	C34.3,28.4,35.6,28.4,36.8,28.4 M33,28.4C33,28.4,33,28.4,33,28.4L33,28.4L33,28.4L33,28.4z M37.5,12.4L37.5,12.4L37.5,12.4
	C37.5,12.4,37.5,12.4,37.5,12.4L37.5,12.4z M39.7,8.4c0-0.2-0.2-0.4-0.3-0.5c-0.6,0-1.2,0-1.9,0v4.5c0.7,0,1.5,0,2.2,0
	C39.7,11.1,39.7,9.7,39.7,8.4 M19.3,65.2c0-0.2-0.3-0.4-0.5-0.5c-0.7-0.1-1.3,0-2,0c-2.2,0-2.2,0-2.1,2.2c1.5,0,3,0,4.5,0
	C19.3,66.4,19.4,65.8,19.3,65.2 M14.8,67L14.8,67L14.8,67C14.8,67,14.8,67,14.8,67C14.8,67,14.8,67,14.8,67 M28.4,21.5L28.4,21.5
	L28.4,21.5L28.4,21.5z M30.6,21.5C30.6,21.5,30.6,21.5,30.6,21.5L30.6,21.5C30.6,21.5,30.6,21.5,30.6,21.5 M30.6,17.5
	c0-0.2-0.3-0.4-0.5-0.5C29.6,17,29,17,28.5,16.9c0,1.5,0,3-0.1,4.5c0.7,0,1.5,0,2.2,0C30.6,20.2,30.7,18.8,30.6,17.5 M53.4,21.5
	L53.4,21.5C53.4,21.5,53.4,21.5,53.4,21.5C53.4,21.5,53.4,21.5,53.4,21.5L53.4,21.5z M55.1,23.9c0.5,0,0.6-0.2,0.6-0.6
	c0-0.6,0-1.2,0-1.7c-0.8,0-1.6,0-2.3,0c0,0.8,0,1.6,0,2.3C54,23.9,54.5,23.8,55.1,23.9 M53.4,23.9L53.4,23.9L53.4,23.9
	C53.4,23.9,53.4,23.9,53.4,23.9L53.4,23.9z M55.7,21.5C55.7,21.5,55.7,21.5,55.7,21.5L55.7,21.5L55.7,21.5z M42.1,21.5L42.1,21.5
	L42.1,21.5L42.1,21.5L42.1,21.5z M39.7,23.9h2.3c0-0.8,0-1.6,0-2.3c-0.8,0-1.6,0-2.3,0C39.7,22.3,39.7,23.1,39.7,23.9 M30.6,21.5
	C30.6,21.5,30.6,21.5,30.6,21.5L30.6,21.5L30.6,21.5z M32.9,21.5C32.9,21.5,32.9,21.5,32.9,21.5L32.9,21.5
	C32.9,21.5,32.9,21.5,32.9,21.5C32.9,21.5,32.9,21.5,32.9,21.5C32.9,21.5,32.9,21.5,32.9,21.5 M30.6,23.9c0.7,0,1.3,0,1.9,0
	c0.2,0,0.4-0.3,0.4-0.5c0-0.6,0-1.2,0-1.9c-0.8,0-1.5,0-2.3,0C30.6,22.3,30.6,23,30.6,23.9 M14.8,69.3L14.8,69.3L14.8,69.3
	C14.8,69.3,14.8,69.3,14.8,69.3L14.8,69.3z M13.1,67c-0.5,0-0.6,0.2-0.6,0.6c0,0.6,0,1.1-0.1,1.7c0.8,0,1.6,0,2.3,0V67
	C14.2,67,13.7,67.1,13.1,67 M44.3,23.9L44.3,23.9C44.3,23.9,44.3,23.9,44.3,23.9L44.3,23.9L44.3,23.9z M46.6,22.1
	c0-0.2-0.2-0.5-0.3-0.5c-0.6-0.1-1.2,0-2,0v2.3c0.8,0,1.6,0,2.3,0C46.6,23.3,46.6,22.7,46.6,22.1 M26.2,21.9c-0.1,0.6,0,1.2,0,1.8
	c2.3,0.3,2.3,0.3,2.3-1.8c0-0.2,0-0.3,0-0.5c-0.6,0-1.1,0-1.7,0.1C26.5,21.6,26.2,21.8,26.2,21.9 M28.4,21.5
	C28.4,21.5,28.4,21.5,28.4,21.5C28.4,21.5,28.4,21.5,28.4,21.5C28.4,21.5,28.4,21.5,28.4,21.5 M55.7,9.6C55.6,7.6,56,8,54,7.9
	c-0.5,0-0.7,0.2-0.7,0.7c0,0.5,0,1.1,0,1.6c0.6,0,1.1,0,1.7,0C55.5,10.2,55.7,10.1,55.7,9.6 M48.8,10.2L48.8,10.2
	C48.8,10.2,48.8,10.2,48.8,10.2C48.8,10.2,48.8,10.2,48.8,10.2C48.8,10.2,48.8,10.2,48.8,10.2 M51.1,9.5c0-1.7,0-1.7-1.7-1.6
	c-0.4,0-0.6,0.2-0.6,0.6c0,0.6,0,1.2,0,1.7h2.3C51.1,10,51.1,9.7,51.1,9.5 M10.2,67.5c0-0.2-0.3-0.5-0.4-0.5
	c-1.8-0.2-1.9-0.1-1.8,1.6c0,0.5,0.2,0.7,0.7,0.7c0.5,0,1.1,0,1.6,0C10.2,68.7,10.2,68.1,10.2,67.5 M10.2,71.5L10.2,71.5
	C10.2,71.5,10.2,71.5,10.2,71.5C10.2,71.5,10.2,71.5,10.2,71.5C10.2,71.5,10.2,71.5,10.2,71.5L10.2,71.5z M7.9,72.2
	c0.1,2-0.3,1.6,1.7,1.7c0.5,0,0.7-0.1,0.6-0.6c0-0.6,0-1.2,0-1.7c-0.5,0-1.1,0.1-1.6,0C8.1,71.5,7.9,71.7,7.9,72.2 M21.6,50.6
	c0,0.2,0.2,0.4,0.4,0.4c1.7,0.3,1.9,0.1,1.9-1.5c0-0.3,0-0.5,0-0.8c-0.7,0-1.5,0.1-2.2,0.1C21.6,49.5,21.6,50.1,21.6,50.6
	 M23.8,48.8C23.8,48.8,23.8,48.8,23.8,48.8L23.8,48.8L23.8,48.8C23.8,48.8,23.8,48.8,23.8,48.8C23.8,48.8,23.8,48.8,23.8,48.8
	 M12.5,27.8c0,0.5,0.2,0.6,0.6,0.6c0.6,0,1.1,0,1.7,0v-2.2C12.6,25.9,12.4,26,12.5,27.8 M14.8,28.4L14.8,28.4L14.8,28.4L14.8,28.4z
	 M28.4,85.7c0-0.2-0.3-0.5-0.4-0.5c-1.7-0.2-1.9-0.1-1.8,1.6c0,0,0,0.1,0,0.1c0,0.4,0.2,0.5,0.5,0.5c0.6,0,1.2,0,1.7,0
	C28.4,86.9,28.4,86.3,28.4,85.7 M28.4,87.6L28.4,87.6C28.4,87.5,28.4,87.5,28.4,87.6C28.4,87.5,28.4,87.5,28.4,87.6 M80.7,91.5
	c0,0.2,0.3,0.5,0.4,0.5c0.6-0.1,1.3,0.3,1.8-0.3c0.1-0.1,0-0.3,0-0.4c0-0.5,0-1.1,0-1.6c-0.2,0-0.5,0-0.7,0
	C80.6,89.8,80.5,89.8,80.7,91.5 M83,89.7L83,89.7L83,89.7C83,89.7,83,89.7,83,89.7C83,89.7,83,89.7,83,89.7L83,89.7
	C83,89.7,83,89.7,83,89.7 M22,64.8C22,64.8,22,64.8,22,64.8c1.8,0.2,1.9,0.1,1.9-1.6c0-0.2,0-0.3-0.1-0.6c-0.6,0-1.2,0-1.8,0
	c-0.6,0-0.5,0.5-0.4,0.7C21.7,63.8,21.2,64.4,22,64.8 M27.3,26.1c-1.3,0-1.1-0.1-1.1,1.1c0,1.2,0,1.2,1,1.2c1.4,0,1.3,0.2,1.3-1.1
	C28.4,26,28.6,26.1,27.3,26.1 M57.9,14.8c0,0.6,0,1.1,0.1,1.7c0,0.2,0.3,0.5,0.4,0.5c0.6,0,1.2,0,1.8-0.1c0-0.7,0-1.4,0-2.2
	L57.9,14.8z M57.9,14.8L57.9,14.8L57.9,14.8C57.9,14.8,57.9,14.8,57.9,14.8C57.9,14.8,57.9,14.8,57.9,14.8L57.9,14.8 M60.3,17
	L60.3,17C60.3,17,60.3,17,60.3,17C60.3,17,60.3,17,60.3,17C60.3,17,60.3,17,60.3,17 M87.5,73.4c0,0.2,0.3,0.4,0.5,0.5
	c0.5,0.1,1.1,0.1,1.6,0.1c0-0.8,0-1.6,0-2.4c-0.2,0-0.4,0-0.6,0C87.4,71.6,87.4,71.6,87.5,73.4 M83,51.2C83,51.2,83,51.2,83,51.2
	L83,51.2L83,51.2C83,51.1,83,51.2,83,51.2 M80.9,51.3c-0.4,0.3-0.2,1.3-0.2,2c0.6,0,1.2,0,1.8,0.1c0.4,0,0.5-0.2,0.5-0.6
	c0-0.5,0-1.1,0-1.6C82.3,51.2,81.3,50.9,80.9,51.3 M85.1,57.8C85.1,57.8,85.2,57.8,85.1,57.8C85.2,57.8,85.2,57.8,85.1,57.8
	C85.2,57.8,85.1,57.8,85.1,57.8 M87.5,56.1c-0.1-0.7-0.6-0.5-0.9-0.4c-0.5,0.1-1.2-0.4-1.4,0.4c-0.1,0.2,0,0.4,0,0.6
	c0,0.4-0.1,0.8-0.1,1.1c0.3,0,0.5,0.1,0.8,0.1C87.7,58,87.7,57.9,87.5,56.1 M42.1,89.7L42.1,89.7L42.1,89.7
	C42.1,89.7,42.1,89.7,42.1,89.7L42.1,89.7z M40.2,87.5c-0.2,0-0.3,0-0.5,0v2.2c0.8,0,1.6,0,2.3,0c0-0.1,0-0.3,0-0.4
	C42.1,87.5,42.1,87.5,40.2,87.5 M39.7,87.5L39.7,87.5L39.7,87.5C39.7,87.5,39.7,87.5,39.7,87.5L39.7,87.5z M69.3,63.1
	c0,0.6,0,1.1,0.1,1.7c0.7,0,1.7,0.2,2-0.2c0.4-0.4,0.1-1.4,0.1-2.1c-0.5,0-1.1,0.1-1.6,0C69.5,62.5,69.3,62.6,69.3,63.1 M71.5,62.5
	C71.6,62.5,71.6,62.5,71.5,62.5C71.6,62.4,71.6,62.4,71.5,62.5C71.6,62.4,71.6,62.4,71.5,62.5C71.5,62.4,71.5,62.4,71.5,62.5
	 M46.6,91.5c0,0.2,0.3,0.5,0.5,0.5c2.1,0,1.7,0.3,1.7-1.6c0-0.2,0-0.5-0.1-0.7c-0.7,0-1.4,0-2.2,0C46.6,90.3,46.6,90.9,46.6,91.5
	 M48.8,89.7L48.8,89.7C48.8,89.7,48.8,89.7,48.8,89.7C48.8,89.7,48.8,89.7,48.8,89.7C48.8,89.7,48.8,89.7,48.8,89.7 M44.3,89.7
	L44.3,89.7L44.3,89.7L44.3,89.7C44.3,89.7,44.3,89.7,44.3,89.7 M42.1,91.5c0,0.2,0.3,0.5,0.5,0.5c0.6-0.1,1.2,0.4,1.7-0.3
	c0,0,0-0.1,0-0.1c0-0.6,0-1.2-0.1-1.9c-0.7,0-1.4,0-2.2,0C42.1,90.3,42,90.9,42.1,91.5 M27.9,76.1c0.5,0,0.5-0.3,0.4-0.6
	c-0.1-0.5,0.4-1.3-0.4-1.6c-0.6-0.2-1.3,0-2,0.1c0.1,0.7,0.1,1.4,0.2,2.2C26.8,76.1,27.4,76.1,27.9,76.1 M26,73.9
	C26,73.9,26,74,26,73.9C26,74,26,74,26,73.9C26,74,26,74,26,73.9 M46.6,88.1c0-0.5-0.2-0.7-0.7-0.7c-0.5,0-1,0-1.7,0v2.2
	c0.8,0,1.6,0,2.3,0C46.6,89.2,46.6,88.7,46.6,88.1 M46.6,89.7C46.6,89.7,46.6,89.7,46.6,89.7L46.6,89.7
	C46.6,89.7,46.6,89.7,46.6,89.7L46.6,89.7z M83.1,33C83,33,83,33,83.1,33L83.1,33C83,33,83,33,83.1,33L83.1,33
	C83.1,33,83.1,33,83.1,33 M85.2,32.3c-0.2-0.5,0.5-1.4-0.4-1.6c-0.5-0.2-1.2,0-1.9,0c0,0.8,0.1,1.6,0.1,2.3c0.6,0,1.1,0,1.7,0
	C85.3,33,85.3,32.6,85.2,32.3 M84.8,26.2c-0.6-0.1-1.2,0-1.8,0c-0.4,2.1-0.2,2.4,1.6,2.3c0,0,0.1,0,0.1,0c0.6,0,0.5-0.5,0.4-0.8
	C85.1,27.1,85.6,26.4,84.8,26.2 M48.8,19.3C48.8,19.4,48.8,19.4,48.8,19.3L48.8,19.3L48.8,19.3C48.8,19.4,48.8,19.4,48.8,19.3
	C48.8,19.3,48.8,19.3,48.8,19.3 M48.4,17.1c-1.7-0.3-1.9-0.1-1.8,1.6c0,0,0,0,0,0.1c0,0.4,0.1,0.6,0.6,0.6c0.5,0,1.1,0,1.6,0
	c0-0.6,0.1-1.3,0.1-1.9C48.8,17.3,48.6,17.1,48.4,17.1 M28.5,16.9L28.5,16.9L28.5,16.9C28.5,16.9,28.5,16.9,28.5,16.9
	C28.5,16.9,28.5,16.9,28.5,16.9C28.5,16.9,28.5,16.9,28.5,16.9 M26.6,14.8c-0.2,0-0.5,0.3-0.5,0.4c0.1,0.6-0.4,1.3,0.3,1.8
	c0,0,0,0,0.1,0c0.6,0,1.3-0.1,1.9-0.1c0-0.2,0-0.4,0-0.6C28.4,14.6,28.4,14.6,26.6,14.8 M53.4,14.8L53.4,14.8L53.4,14.8L53.4,14.8
	C53.4,14.8,53.4,14.8,53.4,14.8 M51.1,15.4c0,1.8,0,1.8,1.7,1.6c0.2,0,0.5-0.3,0.5-0.5c0.1-0.6,0-1.2,0-1.7h-2.2
	C51.2,15,51.1,15.2,51.1,15.4 M53.4,10.2C53.4,10.2,53.4,10.2,53.4,10.2C53.4,10.2,53.3,10.2,53.4,10.2L53.4,10.2L53.4,10.2
	L53.4,10.2z M51.2,10.2L51.2,10.2L51.2,10.2C51.2,10.2,51.2,10.2,51.2,10.2L51.2,10.2z M53.4,12.4c0-0.7,0-1.5,0-2.2
	c-0.7,0-1.4,0-2.2,0c0,0.7,0,1.5,0,2.2H53.4z M53.4,12.4L53.4,12.4L53.4,12.4L53.4,12.4L53.4,12.4L53.4,12.4z M42.1,25.6
	c0,0.2,0.3,0.5,0.5,0.5c1.8,0.2,1.8,0.2,1.7-1.6c0-0.2,0-0.4-0.1-0.6c-0.7,0-1.5,0-2.2,0C42.1,24.5,42,25,42.1,25.6 M42.1,23.9
	C42.1,23.9,42.1,23.9,42.1,23.9L42.1,23.9L42.1,23.9L42.1,23.9z M39.7,25.7c0-0.6,0-1.2,0-1.8h-2.2c0,0.7,0,1.5,0,2.2
	c0.6,0,1.2,0.1,1.8,0C39.5,26.1,39.7,25.8,39.7,25.7 M37.5,26.1C37.5,26.1,37.5,26.1,37.5,26.1C37.5,26.1,37.5,26.1,37.5,26.1
	L37.5,26.1L37.5,26.1z M39.7,23.9L39.7,23.9L39.7,23.9L39.7,23.9C39.7,23.9,39.7,23.9,39.7,23.9 M42.7,21.6c1.9,0,1.6,0.4,1.6-1.7
	c0-0.4-0.1-0.5-0.5-0.5c-0.6,0-1.2,0-1.7,0v2.2C42.3,21.5,42.5,21.6,42.7,21.6 M42.1,19.3L42.1,19.3L42.1,19.3L42.1,19.3L42.1,19.3z
	 M30.6,57.9C30.6,57.9,30.6,57.9,30.6,57.9C30.6,57.9,30.6,57.9,30.6,57.9C30.6,57.9,30.6,57.9,30.6,57.9
	C30.6,57.9,30.6,57.9,30.6,57.9 M29.3,55.7c-0.7,0-1,0.1-1,0.9c0.1,1.6-0.2,1.3,1.4,1.4c0.3,0,0.6,0,0.9,0c0-0.3,0.1-0.6,0.1-0.8
	C30.7,55.5,30.9,55.7,29.3,55.7 M12.4,69.3C12.4,69.3,12.4,69.3,12.4,69.3C12.4,69.3,12.4,69.3,12.4,69.3L12.4,69.3
	C12.4,69.3,12.4,69.3,12.4,69.3 M10.2,71.5c0.6,0,1.2,0.1,1.8,0c0.2,0,0.4-0.3,0.4-0.4c0-0.6,0-1.2-0.1-1.8c-0.7,0-1.5,0-2.2,0
	C10.2,70.1,10.2,70.8,10.2,71.5 M10.2,69.4C10.2,69.4,10.2,69.4,10.2,69.4C10.2,69.4,10.2,69.4,10.2,69.4L10.2,69.4L10.2,69.4z
	 M83,87.5L83,87.5L83,87.5L83,87.5C83,87.5,83,87.5,83,87.5C83,87.5,83,87.5,83,87.5 M84.8,89.7c0.2,0,0.5-0.3,0.5-0.4
	c0.2-1.8,0.2-1.8-1.6-1.8c-0.2,0-0.4,0-0.6,0c0,0.7,0,1.5,0,2.2C83.6,89.7,84.2,89.8,84.8,89.7 M39.7,37.6L39.7,37.6
	C39.6,37.6,39.6,37.6,39.7,37.6L39.7,37.6z M39.7,30.9c0,0,0-0.1-0.1-0.2c-1.3,0-2.7,0-4,0c-0.1,0-0.3,0.3-0.3,0.5
	c-0.1,0.6-0.1,1.2-0.1,1.7c0.9,0,1.8,0,2.8,0C40,33,40,32.9,39.7,30.9 M39.7,37.6C39.7,37.6,39.6,37.6,39.7,37.6
	C39.7,37.6,39.7,37.6,39.7,37.6C39.7,37.6,39.7,37.6,39.7,37.6 M46.2,38.7c0.5,0,0.4-0.4,0.4-0.7c0-0.3,0-0.6-0.5-0.6
	c-0.9,0-1.8,0-2.7,0c-1.3,0-2.5,0.1-3.8,0.1c0,0.4,0.1,0.7,0.1,1.2C42,38.7,44.1,38.7,46.2,38.7 M35.2,33
	C35.2,32.9,35.2,32.9,35.2,33C35.1,32.9,35.1,32.9,35.2,33C35.1,32.9,35.1,32.9,35.2,33L35.2,33z M54,62.5c0.4,0,0.9,0,1.3,0
	c0.2,0,0.4-0.3,0.4-0.5c0-0.2-0.2-0.4-0.4-0.5c-0.2-0.1-0.5,0-0.7,0c-0.2,0-0.4,0-0.6,0c-0.3,0-0.6,0-0.6,0.5
	C53.4,62.4,53.6,62.5,54,62.5 M77.2,78.4c1.3,0,1.2,0.2,1.2-1.1c0-1.3,0.1-1.2-1.1-1.2c-1.2,0-1.2,0-1.2,0.8
	C76.2,78.5,75.9,78.4,77.2,78.4 M12.8,80.7c-0.1,0-0.3,0.3-0.3,0.4c0,2,0,4,0,5.9c0,0.2,0.3,0.4,0.4,0.4c2,0,4,0,5.9,0
	c0.2,0,0.4-0.3,0.4-0.4c0-2.1,0-4.2,0-6.4C17.1,80.7,15,80.7,12.8,80.7 M12.5,14.7v4.6c2.2,0,4.3,0,6.4,0c0.1,0,0.4-0.3,0.4-0.5
	c0-1.9,0-3.8,0-5.7c0-0.5-0.2-0.6-0.6-0.6c-1.9,0-3.8,0-5.6,0c-0.4,0-0.6,0.1-0.6,0.6C12.5,13.6,12.5,14.1,12.5,14.7 M81.2,19.3
	c1.9,0,3.8,0,5.7,0c0.5,0,0.6-0.2,0.6-0.6c0-1,0-1.9,0-2.9c0-0.9,0-1.9,0-2.8c0-0.4-0.1-0.6-0.5-0.6c-1.9,0-3.9,0-5.8,0
	c-0.4,0-0.5,0.2-0.5,0.6c0,1.9,0,3.8,0,5.7C80.7,19.2,80.8,19.3,81.2,19.3 M55.7,80.6C55.7,80.6,55.7,80.6,55.7,80.6L55.7,80.6
	C55.7,80.6,55.7,80.6,55.7,80.6L55.7,80.6z M57.9,80.5c0-0.6,0-1.2,0-1.8c0-0.1-0.2-0.2-0.3-0.2c-1.5-0.4-1.9,0-1.9,1.5
	c0,0.2,0,0.5,0,0.7c0.6,0,1.2,0,1.8,0C57.6,80.7,57.9,80.5,57.9,80.5"/>
</svg>
