<?xml version="1.0" encoding="utf-8"?>
<!-- Generator: Adobe Illustrator 21.0.0, SVG Export Plug-In . SVG Version: 6.00 Build 0)  -->
<svg version="1.1" id="图层_1" xmlns="http://www.w3.org/2000/svg" xmlns:xlink="http://www.w3.org/1999/xlink" x="0px" y="0px"
	 viewBox="0 0 20 20" style="enable-background:new 0 0 20 20;" xml:space="preserve">
<style type="text/css">
	.st0{fill:#FFFFFF;}
</style>
<title>earth.svg [转换]</title>
<path class="st0" d="M10,0C4.5,0,0,4.5,0,10c0,5.5,4.5,10,10,10s10-4.5,10-10C20,4.5,15.5,0,10,0z M10,18c-4.4,0-8-3.6-8-8
	s3.6-8,8-8s8,3.6,8,8S14.4,18,10,18z"/>
<path class="st0" d="M12,1c0,0-0.9,2.6-2,3S6.5,7,9,7s2.1,2.5,0,2s-4,0.9-3,2s2.9,0.7,4,2s1,4.1,2,5c0,0,2,0.6,2-2s-0.7-6.2,1-6
	s4.3,0.5,4,2c0,0-0.6-4.9-2-7C15.9,3.1,14.1,1.7,12,1z"/>
<path class="st0" d="M1,8c0,0,6.9,0.6,4-5C3.4,4.5,2.1,6.1,1,8z"/>
</svg>
