<?xml version="1.0" encoding="utf-8"?>
<!-- Generator: Adobe Illustrator 21.0.0, SVG Export Plug-In . SVG Version: 6.00 Build 0)  -->
<svg version="1.1" id="图层_1" xmlns="http://www.w3.org/2000/svg" xmlns:xlink="http://www.w3.org/1999/xlink" x="0px" y="0px"
	 viewBox="0 0 14 14" style="enable-background:new 0 0 14 14;" xml:space="preserve">
<style type="text/css">
	.st0{fill:#FFFFFF;}
</style>
<path class="st0" d="M4.6,0.1l2.1,1.4c0.2,0.1,0.4,0.1,0.6,0.1l2.3-1c0.5-0.2,1,0.2,0.8,0.7L9.8,3.7c-0.1,0.2,0,0.4,0.1,0.6l1.6,1.9
	c0.3,0.4,0.1,1-0.4,1l-0.5,0l-2,0.1c-0.2,0-0.4,0.1-0.5,0.3l-1,1.7L6.8,9.7c-0.3,0.4-0.9,0.4-1.1-0.1L4.8,7.3C4.7,7.1,4.6,7,4.4,6.9
	L2,6.4C1.5,6.2,1.3,5.6,1.7,5.3l1.9-1.6c0.2-0.1,0.2-0.3,0.2-0.5L3.7,0.7C3.6,0.2,4.2-0.2,4.6,0.1z"/>
<g>
	<path class="st0" d="M11.8,14c-0.3,0-0.5-0.1-0.6-0.4L6.5,5.8C6.3,5.4,6.4,5,6.8,4.7c0.4-0.2,0.8-0.1,1,0.3l4.6,7.8
		c0.2,0.4,0.1,0.8-0.3,1C12.1,14,11.9,14,11.8,14z"/>
</g>
</svg>
