<?xml version="1.0" encoding="utf-8"?>
<!-- Generator: Adobe Illustrator 21.0.0, SVG Export Plug-In . SVG Version: 6.00 Build 0)  -->
<svg version="1.1" id="图层_1" xmlns="http://www.w3.org/2000/svg" xmlns:xlink="http://www.w3.org/1999/xlink" x="0px" y="0px"
	 viewBox="0 0 14 14" style="enable-background:new 0 0 14 14;" xml:space="preserve">
<style type="text/css">
	.st0{fill:#FFFFFF;}
</style>
<g id="t4sHXB.tif">
	
		<image style="overflow:visible;" width="14" height="14" id="图层_1_1_" xlink:href="9AA87E2C1C3DAEF4.png"  transform="matrix(1 0 0 1 -38.6042 5.208333e-02)">
	</image>
</g>
<g>
	<path class="st0" d="M9,9.6C8.6,9.6,8.3,9.3,8.3,9V2.8c0-0.2,0.1-0.4,0.3-0.6l2.5-1.8c0.3-0.2,0.7-0.2,1,0.1c0.2,0.3,0.2,0.7-0.1,1
		L9.7,3.1V9C9.7,9.3,9.4,9.6,9,9.6z"/>
</g>
<g>
	<ellipse transform="matrix(0.9286 -0.371 0.371 0.9286 -2.9564 3.2538)" class="st0" cx="7" cy="9.3" rx="2.8" ry="2.5"/>
</g>
<g>
	<path class="st0" d="M2.4,8.9c0,0-0.1,0-0.1,0C2,8.8,1.9,8.6,2,8.3c0.4-1.2,1.3-2.3,2.5-2.9c0.2-0.1,0.5,0,0.6,0.2
		c0.1,0.2,0,0.5-0.2,0.6c-1,0.5-1.7,1.4-2.1,2.4C2.8,8.8,2.6,8.9,2.4,8.9z"/>
</g>
<g>
	<path class="st0" d="M0.5,8.7c0,0-0.1,0-0.1,0C0.1,8.6-0.1,8.4,0,8.1c0.5-1.5,1.4-2.8,2.8-3.8C3,4.2,3.3,4.2,3.5,4.5
		C3.6,4.7,3.6,5,3.4,5.1c-1.2,0.8-2.1,2-2.5,3.3C0.8,8.6,0.7,8.7,0.5,8.7z"/>
</g>
<g>
	<path class="st0" d="M9.7,13c-0.1,0-0.3-0.1-0.4-0.2c-0.1-0.2-0.1-0.5,0.1-0.6c0.9-0.6,1.5-1.6,1.7-2.6c0-0.2,0.3-0.4,0.5-0.4
		c0.2,0,0.4,0.3,0.4,0.5c-0.2,1.3-1,2.4-2.1,3.2C9.9,13,9.8,13,9.7,13z"/>
</g>
<g>
	<path class="st0" d="M11.4,13.9c-0.1,0-0.3-0.1-0.3-0.2c-0.2-0.2-0.2-0.5,0-0.7c1.1-1,1.8-2.2,2-3.6c0-0.3,0.3-0.4,0.5-0.4
		c0.3,0,0.4,0.3,0.4,0.5c-0.2,1.6-1.1,3-2.3,4.1C11.6,13.9,11.5,13.9,11.4,13.9z"/>
</g>
</svg>
