<?xml version="1.0" encoding="utf-8"?>
<!-- Generator: Adobe Illustrator 22.0.0, SVG Export Plug-In . SVG Version: 6.00 Build 0)  -->
<svg version="1.1" id="图层_1" xmlns="http://www.w3.org/2000/svg" xmlns:xlink="http://www.w3.org/1999/xlink" x="0px" y="0px"
	 viewBox="0 0 44 44" style="enable-background:new 0 0 44 44;" xml:space="preserve">
<style type="text/css">
	.st0{fill:#FB8F46;}
	.st1{fill:#FFFFFF;}
</style>
<path class="st0" d="M40.2,44h-36c-2.2,0-4-1.8-4-4V4c0-2.2,1.8-4,4-4h36c2.2,0,4,1.8,4,4v36C44.2,42.2,42.5,44,40.2,44z"/>
<path class="st1" d="M31.3,32h-18c-5.5,0-10-4.5-10-10v0c0-5.5,4.5-10,10-10h18c5.5,0,10,4.5,10,10v0C41.2,27.5,36.8,32,31.3,32z"/>
</svg>
