<?xml version="1.0" encoding="utf-8"?>
<!-- Generator: Adobe Illustrator 21.0.0, SVG Export Plug-In . SVG Version: 6.00 Build 0)  -->
<svg version="1.1" id="图层_1" xmlns="http://www.w3.org/2000/svg" xmlns:xlink="http://www.w3.org/1999/xlink" x="0px" y="0px"
	 viewBox="0 0 31 24" style="enable-background:new 0 0 31 24;" xml:space="preserve">
<style type="text/css">
	.st0{fill:#ADB9C3;}
	.st1{fill:none;stroke:#ADB9C3;stroke-width:2;}
	.st2{fill:#FFFFFF;}
</style>
<path class="st0" d="M15,7c5,0,9,4,9,9v6H6v-6C6,11,10,7,15,7z"/>
<path class="st1" d="M3.9,22V11c0-5,3.7-9,8.3-9h5.5c4.6,0,8.3,4,8.3,9v11"/>
<path class="st2" d="M15.2,19c-1.5,0-2.8-1.4-2.8-3.1h5.5C17.9,17.6,16.7,19,15.2,19z"/>
<path class="st2" d="M11,12c0.6,0,1,0.4,1,1c0,0.6-0.4,1-1,1s-1-0.4-1-1C10,12.4,10.4,12,11,12z"/>
<path class="st2" d="M19,12c0.6,0,1,0.4,1,1c0,0.6-0.4,1-1,1s-1-0.4-1-1C18,12.4,18.4,12,19,12z"/>
<g>
	<path class="st0" d="M13,8c0,0,2.9,0.1,5-2c2.1-2.1,0.3,2.7,0,3"/>
	<path class="st0" d="M18.7,9.7l-1.4-1.4L18,9l-0.8-0.6c0.1-0.1,0.2-0.4,0.3-0.7C15.4,9.1,13.1,9,13,9L13,7.5L13,8l0-0.7
		c0,0,2.6-0.2,4.3-2c0.5-0.5,1.1-1,1.8-0.8C19.5,4.6,19.9,5,20,5.4C20.2,6.5,19.1,9.3,18.7,9.7z"/>
</g>
<g>
	<path class="st0" d="M16,10c0,0,2.9,0.1,5-2c2.1-2.1,0.3,2.7,0,3"/>
	<path class="st0" d="M21.7,11.7L21,11l-0.8-0.6c0.1-0.1,0.2-0.4,0.3-0.7C18.4,11.1,16.1,11,16,11L16,9l0,1l0-1c0,0,2.5,0.1,4.3-1.7
		c0.5-0.5,1.1-1,1.8-0.8C22.5,6.6,22.9,7,23,7.4C23.2,8.5,22.1,11.3,21.7,11.7z"/>
</g>
<path class="st0" d="M4,22c-2.2,0-4-1.8-4-4s1.8-4,4-4V22z"/>
<path class="st0" d="M26,22v-8c2.2,0,4,1.8,4,4S28.2,22,26,22z"/>
</svg>
