<?xml version="1.0" encoding="utf-8"?>
<!-- Generator: Adobe Illustrator 21.0.0, SVG Export Plug-In . SVG Version: 6.00 Build 0)  -->
<svg version="1.1" id="图层_1" xmlns="http://www.w3.org/2000/svg" xmlns:xlink="http://www.w3.org/1999/xlink" x="0px" y="0px"
	 viewBox="0 0 112 24" style="enable-background:new 0 0 112 24;" xml:space="preserve">
<style type="text/css">
	.st0{fill:#E4428E;}
	.st1{fill:#FFFFFF;}
	.st2{fill:#FDDD07;}
	.st3{fill:#2097F7;}
	.st4{fill:#304073;}
	.st5{fill:#FF438F;}
	.st6{clip-path:url(#SVGID_2_);fill:#FF9800;}
	.st7{clip-path:url(#SVGID_4_);fill:#FF9600;}
	.st8{clip-path:url(#SVGID_6_);fill:#FF9500;}
	.st9{clip-path:url(#SVGID_8_);fill:#FF9400;}
	.st10{clip-path:url(#SVGID_10_);fill:#FF9300;}
	.st11{clip-path:url(#SVGID_12_);fill:#FF9200;}
	.st12{clip-path:url(#SVGID_14_);fill:#FF9100;}
	.st13{clip-path:url(#SVGID_16_);fill:#FF9000;}
	.st14{clip-path:url(#SVGID_18_);fill:#FF8F00;}
	.st15{clip-path:url(#SVGID_20_);fill:#FF8E00;}
	.st16{clip-path:url(#SVGID_22_);fill:#FF8D00;}
	.st17{clip-path:url(#SVGID_24_);fill:#FF8C00;}
	.st18{clip-path:url(#SVGID_26_);fill:#FF8B00;}
	.st19{clip-path:url(#SVGID_28_);fill:#FF8A00;}
	.st20{clip-path:url(#SVGID_30_);fill:#FF8A00;}
	.st21{clip-path:url(#SVGID_32_);fill:#FF8900;}
	.st22{clip-path:url(#SVGID_34_);fill:#FF8800;}
	.st23{clip-path:url(#SVGID_36_);fill:#FF8700;}
	.st24{clip-path:url(#SVGID_38_);fill:#FF8600;}
	.st25{clip-path:url(#SVGID_40_);fill:#FF8500;}
	.st26{clip-path:url(#SVGID_42_);fill:#FF8400;}
	.st27{clip-path:url(#SVGID_44_);fill:#FF8300;}
</style>
<g>
	<g>
		<path class="st0" d="M16.8,23C8.6,23,3.4,19,3.4,12.9c0-1.2,0.2-2.4,0.6-3.6V9.2C2.3,7.4,1.4,5.1,1.4,2.6V1.2h6.7
			c1.4,0,2.8,0.3,4.1,0.9c1.5-0.4,3-0.7,4.6-0.7s3.2,0.2,4.6,0.7c1.3-0.6,2.7-0.9,4.1-0.9h6.7v1.4c0,2.5-1,4.9-2.7,6.7
			c0,0.1,0,0.1,0,0.2c0.4,1.1,0.6,2.3,0.6,3.5C30.2,19.1,25.1,23,16.8,23z"/>
		<path class="st1" d="M31.3,2.2v0.4c0,2.5-1.1,4.8-2.8,6.4c0.1,0.2,0.2,0.5,0.2,0.7c0.4,1,0.5,2.1,0.5,3.2c0,5.8-5,9.1-12.4,9.1
			S4.3,18.7,4.3,12.9c0-1.1,0.2-2.2,0.6-3.2C5,9.4,5.1,9.2,5.2,8.9C3.5,7.3,2.4,5.1,2.4,2.6V2.2h5.7c1.5,0,2.8,0.4,4,1
			c1.4-0.5,3-0.7,4.7-0.7c1.7,0,3.3,0.3,4.7,0.7c1.2-0.6,2.6-1,4-1H31.3 M33.3,0.2h-2h-5.7c-1.4,0-2.9,0.3-4.2,0.9
			c-1.5-0.4-3-0.6-4.6-0.6s-3.1,0.2-4.6,0.6C10.9,0.5,9.5,0.2,8,0.2H2.4h-2v2v0.4c0,2.5,0.9,4.9,2.5,6.9c-0.4,1.1-0.5,2.3-0.5,3.5
			c0,6.6,5.6,11,14.4,11c8.7,0,14.4-4.4,14.4-11.1c0-1.2-0.2-2.3-0.5-3.4c1.6-1.9,2.6-4.4,2.6-7V2.2V0.2L33.3,0.2z"/>
	</g>
	<g>
		<path class="st2" d="M29.2,12.9c0,5.8-5,9.1-12.5,9.1S4.3,18.7,4.3,12.9s5-10.5,12.5-10.5S29.2,7.1,29.2,12.9z"/>
		<path class="st3" d="M25.6,2.2c-4.8,0-8.8,3.9-8.8,8.8c0-4.8-3.9-8.8-8.8-8.8H2.3v0.4c0,4.8,3.9,8.8,8.8,8.8h5.7h5.7
			c4.8,0,8.8-3.9,8.8-8.8V2.2H25.6z"/>
		<ellipse class="st1" cx="10.3" cy="11.1" rx="5.7" ry="5.7"/>
		<ellipse class="st1" cx="23.2" cy="11.1" rx="5.7" ry="5.7"/>
		<ellipse class="st4" cx="10.9" cy="11" rx="3" ry="3.8"/>
		<ellipse class="st4" cx="22.3" cy="11" rx="3" ry="3.8"/>
		<g>
			<g>
				<path class="st5" d="M19.2,16.5c0-0.3,0.1-0.6,0.1-0.9c0-2.5-1.1-4.5-2.4-4.5s-2.4,2-2.4,4.5c0,0.3,0,0.6,0.1,0.9
					C16,17,17,18.4,17,20.1C16.8,18.4,17.8,17,19.2,16.5z"/>
			</g>
			<g>
				<path class="st0" d="M14.6,16.5c0.2,2.1,1.2,3.6,2.4,3.6C17.1,18.4,16,17,14.6,16.5z"/>
			</g>
			<g>
				<g>
					<g>
						<g>
							<defs>
								<path id="SVGID_1_" d="M19.2,16.5c-1.4,0.5-2.4,1.9-2.4,3.6C17.9,20.1,18.9,18.5,19.2,16.5z"/>
							</defs>
							<clipPath id="SVGID_2_">
								<use xlink:href="#SVGID_1_"  style="overflow:visible;"/>
							</clipPath>
							<rect x="16.8" y="16.5" class="st6" width="0" height="3.6"/>
						</g>
					</g>
					<g>
						<g>
							<defs>
								<path id="SVGID_3_" d="M19.2,16.5c-1.4,0.5-2.4,1.9-2.4,3.6C17.9,20.1,18.9,18.5,19.2,16.5z"/>
							</defs>
							<clipPath id="SVGID_4_">
								<use xlink:href="#SVGID_3_"  style="overflow:visible;"/>
							</clipPath>
							<rect x="16.8" y="16.5" class="st7" width="0.1" height="3.6"/>
						</g>
					</g>
					<g>
						<g>
							<defs>
								<path id="SVGID_5_" d="M19.2,16.5c-1.4,0.5-2.4,1.9-2.4,3.6C17.9,20.1,18.9,18.5,19.2,16.5z"/>
							</defs>
							<clipPath id="SVGID_6_">
								<use xlink:href="#SVGID_5_"  style="overflow:visible;"/>
							</clipPath>
							<rect x="16.9" y="16.5" class="st8" width="0.1" height="3.6"/>
						</g>
					</g>
					<g>
						<g>
							<defs>
								<path id="SVGID_7_" d="M19.2,16.5c-1.4,0.5-2.4,1.9-2.4,3.6C17.9,20.1,18.9,18.5,19.2,16.5z"/>
							</defs>
							<clipPath id="SVGID_8_">
								<use xlink:href="#SVGID_7_"  style="overflow:visible;"/>
							</clipPath>
							<rect x="17" y="16.5" class="st9" width="0.1" height="3.6"/>
						</g>
					</g>
					<g>
						<g>
							<defs>
								<path id="SVGID_9_" d="M19.2,16.5c-1.4,0.5-2.4,1.9-2.4,3.6C17.9,20.1,18.9,18.5,19.2,16.5z"/>
							</defs>
							<clipPath id="SVGID_10_">
								<use xlink:href="#SVGID_9_"  style="overflow:visible;"/>
							</clipPath>
							<rect x="17.1" y="16.5" class="st10" width="0.1" height="3.6"/>
						</g>
					</g>
					<g>
						<g>
							<defs>
								<path id="SVGID_11_" d="M19.2,16.5c-1.4,0.5-2.4,1.9-2.4,3.6C17.9,20.1,18.9,18.5,19.2,16.5z"/>
							</defs>
							<clipPath id="SVGID_12_">
								<use xlink:href="#SVGID_11_"  style="overflow:visible;"/>
							</clipPath>
							<rect x="17.2" y="16.5" class="st11" width="0.1" height="3.6"/>
						</g>
					</g>
					<g>
						<g>
							<defs>
								<path id="SVGID_13_" d="M19.2,16.5c-1.4,0.5-2.4,1.9-2.4,3.6C17.9,20.1,18.9,18.5,19.2,16.5z"/>
							</defs>
							<clipPath id="SVGID_14_">
								<use xlink:href="#SVGID_13_"  style="overflow:visible;"/>
							</clipPath>
							<rect x="17.4" y="16.5" class="st12" width="0.1" height="3.6"/>
						</g>
					</g>
					<g>
						<g>
							<defs>
								<path id="SVGID_15_" d="M19.2,16.5c-1.4,0.5-2.4,1.9-2.4,3.6C17.9,20.1,18.9,18.5,19.2,16.5z"/>
							</defs>
							<clipPath id="SVGID_16_">
								<use xlink:href="#SVGID_15_"  style="overflow:visible;"/>
							</clipPath>
							<rect x="17.5" y="16.5" class="st13" width="0.1" height="3.6"/>
						</g>
					</g>
					<g>
						<g>
							<defs>
								<path id="SVGID_17_" d="M19.2,16.5c-1.4,0.5-2.4,1.9-2.4,3.6C17.9,20.1,18.9,18.5,19.2,16.5z"/>
							</defs>
							<clipPath id="SVGID_18_">
								<use xlink:href="#SVGID_17_"  style="overflow:visible;"/>
							</clipPath>
							<rect x="17.6" y="16.5" class="st14" width="0.1" height="3.6"/>
						</g>
					</g>
					<g>
						<g>
							<defs>
								<path id="SVGID_19_" d="M19.2,16.5c-1.4,0.5-2.4,1.9-2.4,3.6C17.9,20.1,18.9,18.5,19.2,16.5z"/>
							</defs>
							<clipPath id="SVGID_20_">
								<use xlink:href="#SVGID_19_"  style="overflow:visible;"/>
							</clipPath>
							<rect x="17.7" y="16.5" class="st15" width="0.1" height="3.6"/>
						</g>
					</g>
					<g>
						<g>
							<defs>
								<path id="SVGID_21_" d="M19.2,16.5c-1.4,0.5-2.4,1.9-2.4,3.6C17.9,20.1,18.9,18.5,19.2,16.5z"/>
							</defs>
							<clipPath id="SVGID_22_">
								<use xlink:href="#SVGID_21_"  style="overflow:visible;"/>
							</clipPath>
							<rect x="17.8" y="16.5" class="st16" width="0.1" height="3.6"/>
						</g>
					</g>
					<g>
						<g>
							<defs>
								<path id="SVGID_23_" d="M19.2,16.5c-1.4,0.5-2.4,1.9-2.4,3.6C17.9,20.1,18.9,18.5,19.2,16.5z"/>
							</defs>
							<clipPath id="SVGID_24_">
								<use xlink:href="#SVGID_23_"  style="overflow:visible;"/>
							</clipPath>
							<rect x="17.9" y="16.5" class="st17" width="0.1" height="3.6"/>
						</g>
					</g>
					<g>
						<g>
							<defs>
								<path id="SVGID_25_" d="M19.2,16.5c-1.4,0.5-2.4,1.9-2.4,3.6C17.9,20.1,18.9,18.5,19.2,16.5z"/>
							</defs>
							<clipPath id="SVGID_26_">
								<use xlink:href="#SVGID_25_"  style="overflow:visible;"/>
							</clipPath>
							<rect x="18" y="16.5" class="st18" width="0.1" height="3.6"/>
						</g>
					</g>
					<g>
						<g>
							<defs>
								<path id="SVGID_27_" d="M19.2,16.5c-1.4,0.5-2.4,1.9-2.4,3.6C17.9,20.1,18.9,18.5,19.2,16.5z"/>
							</defs>
							<clipPath id="SVGID_28_">
								<use xlink:href="#SVGID_27_"  style="overflow:visible;"/>
							</clipPath>
							<rect x="18.2" y="16.5" class="st19" width="0.1" height="3.6"/>
						</g>
					</g>
					<g>
						<g>
							<defs>
								<path id="SVGID_29_" d="M19.2,16.5c-1.4,0.5-2.4,1.9-2.4,3.6C17.9,20.1,18.9,18.5,19.2,16.5z"/>
							</defs>
							<clipPath id="SVGID_30_">
								<use xlink:href="#SVGID_29_"  style="overflow:visible;"/>
							</clipPath>
							<rect x="18.3" y="16.5" class="st20" width="0.1" height="3.6"/>
						</g>
					</g>
					<g>
						<g>
							<defs>
								<path id="SVGID_31_" d="M19.2,16.5c-1.4,0.5-2.4,1.9-2.4,3.6C17.9,20.1,18.9,18.5,19.2,16.5z"/>
							</defs>
							<clipPath id="SVGID_32_">
								<use xlink:href="#SVGID_31_"  style="overflow:visible;"/>
							</clipPath>
							<rect x="18.4" y="16.5" class="st21" width="0.1" height="3.6"/>
						</g>
					</g>
					<g>
						<g>
							<defs>
								<path id="SVGID_33_" d="M19.2,16.5c-1.4,0.5-2.4,1.9-2.4,3.6C17.9,20.1,18.9,18.5,19.2,16.5z"/>
							</defs>
							<clipPath id="SVGID_34_">
								<use xlink:href="#SVGID_33_"  style="overflow:visible;"/>
							</clipPath>
							<rect x="18.5" y="16.5" class="st22" width="0.1" height="3.6"/>
						</g>
					</g>
					<g>
						<g>
							<defs>
								<path id="SVGID_35_" d="M19.2,16.5c-1.4,0.5-2.4,1.9-2.4,3.6C17.9,20.1,18.9,18.5,19.2,16.5z"/>
							</defs>
							<clipPath id="SVGID_36_">
								<use xlink:href="#SVGID_35_"  style="overflow:visible;"/>
							</clipPath>
							<rect x="18.6" y="16.5" class="st23" width="0.1" height="3.6"/>
						</g>
					</g>
					<g>
						<g>
							<defs>
								<path id="SVGID_37_" d="M19.2,16.5c-1.4,0.5-2.4,1.9-2.4,3.6C17.9,20.1,18.9,18.5,19.2,16.5z"/>
							</defs>
							<clipPath id="SVGID_38_">
								<use xlink:href="#SVGID_37_"  style="overflow:visible;"/>
							</clipPath>
							<rect x="18.7" y="16.5" class="st24" width="0.1" height="3.6"/>
						</g>
					</g>
					<g>
						<g>
							<defs>
								<path id="SVGID_39_" d="M19.2,16.5c-1.4,0.5-2.4,1.9-2.4,3.6C17.9,20.1,18.9,18.5,19.2,16.5z"/>
							</defs>
							<clipPath id="SVGID_40_">
								<use xlink:href="#SVGID_39_"  style="overflow:visible;"/>
							</clipPath>
							<rect x="18.9" y="16.5" class="st25" width="0.1" height="3.6"/>
						</g>
					</g>
					<g>
						<g>
							<defs>
								<path id="SVGID_41_" d="M19.2,16.5c-1.4,0.5-2.4,1.9-2.4,3.6C17.9,20.1,18.9,18.5,19.2,16.5z"/>
							</defs>
							<clipPath id="SVGID_42_">
								<use xlink:href="#SVGID_41_"  style="overflow:visible;"/>
							</clipPath>
							<rect x="19" y="16.5" class="st26" width="0.1" height="3.6"/>
						</g>
					</g>
					<g>
						<g>
							<defs>
								<path id="SVGID_43_" d="M19.2,16.5c-1.4,0.5-2.4,1.9-2.4,3.6C17.9,20.1,18.9,18.5,19.2,16.5z"/>
							</defs>
							<clipPath id="SVGID_44_">
								<use xlink:href="#SVGID_43_"  style="overflow:visible;"/>
							</clipPath>
							<rect x="19.1" y="16.5" class="st27" width="0.1" height="3.6"/>
						</g>
					</g>
				</g>
			</g>
			<g>
				<path class="st0" d="M19.2,16.5c-1.4,0.5-2.4,1.9-2.4,3.6C17.9,20.1,18.9,18.5,19.2,16.5z"/>
			</g>
		</g>
	</g>
</g>
<g>
	<path class="st1" d="M39.4,10.6v4.5c0,3.4,2.3,6.1,5.1,6.1h0.8c0.4,0,0.7-0.3,0.7-0.7v-1c0-0.4-0.3-0.7-0.7-0.7h-0.8
		c-1.5,0-2.7-1.7-2.7-3.7v-4.5c0-2,1.2-3.7,2.7-3.7h0.8c0.4,0,0.7-0.3,0.7-0.7v-1c0-0.4-0.3-0.7-0.7-0.7h-0.8
		C41.7,4.5,39.4,7.3,39.4,10.6z"/>
	<path class="st1" d="M76.7,12.5v3.6c0,2.8,2.3,5.1,5.1,5.1h0.8c0.4,0,0.7-0.3,0.7-0.7v-1c0-0.4-0.3-0.7-0.7-0.7h-0.8
		c-1.5,0-2.7-1.2-2.7-2.7v-3.6c0-1.5,1.2-2.7,2.7-2.7h0.8c0.4,0,0.7-0.3,0.7-0.7v-1c0-0.4-0.3-0.7-0.7-0.7h-0.8
		C79,7.4,76.7,9.7,76.7,12.5z"/>
	<path class="st1" d="M50.5,7.4c-2.1,0.1-3.7,1.9-3.7,4v5.7c0,2.1,1.6,3.9,3.7,4c2.3,0.1,4.1-1.7,4.1-3.9v-5.9
		C54.6,9.1,52.8,7.3,50.5,7.4z M52.2,17.3c0,0.9-0.8,1.6-1.7,1.5c-0.8-0.1-1.3-0.8-1.3-1.6v-5.8c0-0.8,0.6-1.5,1.3-1.6
		c0.9-0.1,1.7,0.6,1.7,1.5V17.3z"/>
	<path class="st1" d="M70.2,7.4c-2.1,0.1-3.7,1.9-3.7,4v5.7c0,2.1,1.6,3.9,3.7,4c1.9,0.1,3.6-1.2,4-3c0.1-0.5-0.2-0.9-0.7-0.9h-1
		c-0.3,0-0.6,0.2-0.7,0.5c-0.2,0.7-0.9,1.1-1.6,1c-0.8-0.1-1.3-0.8-1.3-1.6v-2l0,0h4.7c0.4,0,0.7-0.3,0.7-0.7v-3.1
		C74.3,9.1,72.5,7.3,70.2,7.4z M71.9,12.8h-3l0,0v-1.4c0-0.8,0.6-1.5,1.3-1.6c0.9-0.1,1.7,0.6,1.7,1.5V12.8L71.9,12.8z"/>
	<path class="st1" d="M64.2,17.3v-5.9V4.7c0-0.4-0.3-0.7-0.7-0.7h-1c-0.4,0-0.7,0.3-0.7,0.7v3l0,0c-0.3-0.1-0.6-0.2-1-0.3
		c-2.4-0.3-4.5,1.6-4.5,4v5.7c0,2.1,1.5,3.9,3.6,4c1.2,0.1,2.2-0.3,3-1.1l0,0c0.4,0.4,0.8,0.7,1.3,0.9c0.5,0.2,1-0.2,1-0.7v-1.1
		c0-0.2-0.1-0.4-0.3-0.6C64.6,18.4,64.2,17.9,64.2,17.3z M60.1,18.8c-0.8-0.1-1.3-0.8-1.3-1.6v-5.8c0-0.8,0.6-1.5,1.3-1.6
		c0.9-0.1,1.7,0.6,1.7,1.5v5.9C61.8,18.2,61,18.9,60.1,18.8z"/>
	<path class="st1" d="M84.9,11.8v8.5c0,0.4,0.3,0.7,0.7,0.7h1c0.4,0,0.7-0.3,0.7-0.7v-8.5c0-1,0.5-1.7,1.1-1.9
		c0.3-0.1,0.4-0.4,0.4-0.7v-1c0-0.5-0.5-0.8-0.9-0.7C86,8,84.9,10,84.9,11.8z"/>
	<path class="st1" d="M100.6,9.5v10.9c0,0.4,0.3,0.7,0.7,0.7h1c0.4,0,0.7-0.3,0.7-0.7V12l0,0h2.5c0.4,0,0.7-0.3,0.7-0.7v-1
		c0-0.4-0.3-0.7-0.7-0.7H103V9.5c0-0.4,0.1-2.6,2.8-2.8c0.4,0,0.7-0.4,0.7-0.7V5c0-0.4-0.4-0.8-0.8-0.7
		C102.6,4.5,100.6,6.6,100.6,9.5z"/>
	<path class="st1" d="M97.9,17.9v-0.7v-5.9V8.1c0-0.4-0.3-0.7-0.7-0.7h-1.3c-0.3,0-0.4,0.3-0.4,0.3c-0.3-0.1-0.6-0.2-1-0.3
		C92,7.1,90,9,90,11.5v5.7c0,2.1,1.6,3.9,3.7,4c1,0.1,2-0.3,2.7-0.9l0,0c0.3,0.3,0.7,0.6,1.1,0.7c0.5,0.2,1-0.2,1-0.7v-1.1
		c0-0.2-0.1-0.5-0.3-0.6C98.1,18.5,97.9,18.3,97.9,17.9z M93.8,18.8c-0.8-0.1-1.3-0.8-1.3-1.6v-5.8c0-0.8,0.6-1.5,1.3-1.6
		c0.9-0.1,1.7,0.6,1.7,1.5v5.9C95.5,18.2,94.7,18.9,93.8,18.8z"/>
	<path class="st1" d="M112,10.9v-1c0-0.4-0.3-0.7-0.7-0.7h-0.8l0,0V8.1c0-0.4-0.3-0.7-0.7-0.7h-1c-0.4,0-0.7,0.3-0.7,0.7v9.2
		c0,2.2,1.6,3.4,3.1,3.8c0.5,0.1,0.9-0.2,0.9-0.7v-1c0-0.3-0.2-0.6-0.5-0.7c-0.5-0.2-1.1-0.5-1.1-1.4v-5.6l0,0h0.8
		C111.7,11.6,112,11.3,112,10.9z"/>
</g>
</svg>
