<?xml version="1.0" encoding="utf-8"?>
<!-- Generator: Adobe Illustrator 21.0.0, SVG Export Plug-In . SVG Version: 6.00 Build 0)  -->
<svg version="1.1" id="图层_1" xmlns="http://www.w3.org/2000/svg" xmlns:xlink="http://www.w3.org/1999/xlink" x="0px" y="0px"
	 viewBox="0 0 295.3 251.7" style="enable-background:new 0 0 295.3 251.7;" xml:space="preserve">
<style type="text/css">
	.st0{fill:#FDDD07;}
	.st1{fill:#2097F7;}
	.st2{fill:#FFFFFF;}
	.st3{fill:#304073;}
	.st4{fill:#FF438F;}
	.st5{clip-path:url(#SVGID_2_);fill:#FFAB00;}
	.st6{clip-path:url(#SVGID_2_);fill:#FFAA00;}
	.st7{clip-path:url(#SVGID_2_);fill:#FFA900;}
	.st8{clip-path:url(#SVGID_2_);fill:#FFA800;}
	.st9{clip-path:url(#SVGID_2_);fill:#FFA700;}
	.st10{clip-path:url(#SVGID_2_);fill:#FFA600;}
	.st11{clip-path:url(#SVGID_2_);fill:#FFA500;}
	.st12{clip-path:url(#SVGID_2_);fill:#FFA400;}
	.st13{clip-path:url(#SVGID_2_);fill:#FFA300;}
	.st14{clip-path:url(#SVGID_2_);fill:#FFA200;}
	.st15{clip-path:url(#SVGID_2_);fill:#FFA000;}
	.st16{clip-path:url(#SVGID_2_);fill:#FF9F00;}
	.st17{clip-path:url(#SVGID_2_);fill:#FF9E00;}
	.st18{clip-path:url(#SVGID_2_);fill:#FF9D00;}
	.st19{clip-path:url(#SVGID_2_);fill:#FF9C00;}
	.st20{clip-path:url(#SVGID_2_);fill:#FF9B00;}
	.st21{clip-path:url(#SVGID_2_);fill:#FF9A00;}
	.st22{clip-path:url(#SVGID_2_);fill:#FF9900;}
	.st23{clip-path:url(#SVGID_2_);fill:#FF9800;}
	.st24{fill:#E4428E;}
	.st25{clip-path:url(#SVGID_4_);fill:#FF9800;}
	.st26{clip-path:url(#SVGID_4_);fill:#FF9600;}
	.st27{clip-path:url(#SVGID_4_);fill:#FF9500;}
	.st28{clip-path:url(#SVGID_4_);fill:#FF9400;}
	.st29{clip-path:url(#SVGID_4_);fill:#FF9300;}
	.st30{clip-path:url(#SVGID_4_);fill:#FF9200;}
	.st31{clip-path:url(#SVGID_4_);fill:#FF9100;}
	.st32{clip-path:url(#SVGID_4_);fill:#FF9000;}
	.st33{clip-path:url(#SVGID_4_);fill:#FF8F00;}
	.st34{clip-path:url(#SVGID_4_);fill:#FF8E00;}
	.st35{clip-path:url(#SVGID_4_);fill:#FF8D00;}
	.st36{clip-path:url(#SVGID_4_);fill:#FF8C00;}
	.st37{clip-path:url(#SVGID_4_);fill:#FF8B00;}
	.st38{clip-path:url(#SVGID_4_);fill:#FF8A00;}
	.st39{clip-path:url(#SVGID_4_);fill:#FF8900;}
	.st40{clip-path:url(#SVGID_4_);fill:#FF8800;}
	.st41{clip-path:url(#SVGID_4_);fill:#FF8700;}
	.st42{clip-path:url(#SVGID_4_);fill:#FF8600;}
	.st43{clip-path:url(#SVGID_4_);fill:#FF8500;}
	.st44{clip-path:url(#SVGID_4_);fill:#FF8400;}
	.st45{clip-path:url(#SVGID_4_);fill:#FF8300;}
</style>
<g>
	<path class="st0" d="M249.6,132.2c0,47.3-40.5,74.3-100.9,74.3s-101.9-27-101.9-74.3s41.5-85.7,101.9-85.7S249.6,84.8,249.6,132.2z
		"/>
	<path class="st0" d="M150,46.5L150,46.5v160l0,0c60.4,0,100.9-27,100.9-74.3C250.9,84.8,210.4,46.5,150,46.5z"/>
	<path class="st1" d="M148.7,119.3h46.2c39.5,0,71.6-32,71.6-71.6v-3.4h-46.2c-39.5,0-71.6,32-71.6,71.6"/>
	<path class="st1" d="M148.7,115.9c0-39.5-32-71.6-71.6-71.6H30.9v3.4c0,39.5,32,71.6,71.6,71.6h46.2"/>
	<circle class="st2" cx="96.1" cy="117.7" r="46.3"/>
	<ellipse class="st3" cx="101.3" cy="116.9" rx="24.9" ry="31.4"/>
	<circle class="st2" cx="200.4" cy="117.7" r="46.3"/>
	<ellipse class="st3" cx="195.2" cy="116.9" rx="24.9" ry="31.4"/>
	<g>
		<g>
			<path class="st4" d="M148.2,190.8c0-13.7,8.2-25.3,19.5-29.5c0.3-2.4,0.4-4.9,0.4-7.5c0-20.4-8.9-37-19.9-37"/>
			<path class="st4" d="M148.2,190.8v-74c-11,0-19.9,16.6-19.9,37c0,2.6,0.1,5.1,0.4,7.5C140,165.5,148.2,177.1,148.2,190.8"/>
		</g>
		<g>
			<g>
				<defs>
					<path id="SVGID_1_" d="M128.7,161.4c1.9,16.8,9.9,29.5,19.5,29.5C148.2,177.1,140,165.5,128.7,161.4z"/>
				</defs>
				<clipPath id="SVGID_2_">
					<use xlink:href="#SVGID_1_"  style="overflow:visible;"/>
				</clipPath>
				<rect x="128.7" y="161.4" class="st5" width="0.5" height="29.5"/>
				<rect x="129.3" y="161.4" class="st6" width="0.9" height="29.5"/>
				<rect x="130.2" y="161.4" class="st7" width="0.9" height="29.5"/>
				<rect x="131.1" y="161.4" class="st8" width="0.9" height="29.5"/>
				<rect x="132.1" y="161.4" class="st9" width="0.9" height="29.5"/>
				<rect x="133" y="161.4" class="st10" width="0.9" height="29.5"/>
				<rect x="134" y="161.4" class="st11" width="0.9" height="29.5"/>
				<rect x="134.9" y="161.4" class="st12" width="0.9" height="29.5"/>
				<rect x="135.9" y="161.4" class="st13" width="0.9" height="29.5"/>
				<rect x="136.8" y="161.4" class="st13" width="0.9" height="29.5"/>
				<rect x="137.8" y="161.4" class="st14" width="0.9" height="29.5"/>
				<rect x="139.7" y="161.4" class="st15" width="0.9" height="29.5"/>
				<rect x="140.6" y="161.4" class="st16" width="0.9" height="29.5"/>
				<rect x="141.6" y="161.4" class="st17" width="0.9" height="29.5"/>
				<rect x="142.5" y="161.4" class="st18" width="0.9" height="29.5"/>
				<rect x="143.5" y="161.4" class="st19" width="0.9" height="29.5"/>
				<rect x="144.4" y="161.4" class="st20" width="0.9" height="29.5"/>
				<rect x="145.4" y="161.4" class="st21" width="0.9" height="29.5"/>
				<rect x="146.3" y="161.4" class="st22" width="0.9" height="29.5"/>
				<rect x="147.3" y="161.4" class="st23" width="0.9" height="29.5"/>
			</g>
		</g>
		<g>
			<path class="st24" d="M128.7,161.4c1.9,16.8,9.9,29.5,19.5,29.5C148.2,177.1,140,165.5,128.7,161.4z"/>
		</g>
		<g>
			<g>
				<defs>
					<path id="SVGID_3_" d="M167.7,161.4c-11.3,4.2-19.5,15.8-19.5,29.5C157.8,190.8,165.8,178.2,167.7,161.4z"/>
				</defs>
				<clipPath id="SVGID_4_">
					<use xlink:href="#SVGID_3_"  style="overflow:visible;"/>
				</clipPath>
				<rect x="148.2" y="161.4" class="st25" width="0" height="29.5"/>
				<rect x="148.2" y="161.4" class="st26" width="0.9" height="29.5"/>
				<rect x="149.1" y="161.4" class="st27" width="0.9" height="29.5"/>
				<rect x="150.1" y="161.4" class="st28" width="0.9" height="29.5"/>
				<rect x="151" y="161.4" class="st29" width="0.9" height="29.5"/>
				<rect x="152" y="161.4" class="st30" width="0.9" height="29.5"/>
				<rect x="152.9" y="161.4" class="st31" width="0.9" height="29.5"/>
				<rect x="153.9" y="161.4" class="st32" width="0.9" height="29.5"/>
				<rect x="154.8" y="161.4" class="st33" width="0.9" height="29.5"/>
				<rect x="155.8" y="161.4" class="st34" width="0.9" height="29.5"/>
				<rect x="156.7" y="161.4" class="st35" width="0.9" height="29.5"/>
				<rect x="157.7" y="161.4" class="st36" width="0.9" height="29.5"/>
				<rect x="158.6" y="161.4" class="st37" width="0.9" height="29.5"/>
				<rect x="159.6" y="161.4" class="st38" width="0.9" height="29.5"/>
				<rect x="160.5" y="161.4" class="st38" width="0.9" height="29.5"/>
				<rect x="161.5" y="161.4" class="st39" width="0.9" height="29.5"/>
				<rect x="162.4" y="161.4" class="st40" width="0.9" height="29.5"/>
				<rect x="163.4" y="161.4" class="st41" width="0.9" height="29.5"/>
				<rect x="164.3" y="161.4" class="st42" width="0.9" height="29.5"/>
				<rect x="165.2" y="161.4" class="st43" width="0.9" height="29.5"/>
				<rect x="166.2" y="161.4" class="st44" width="0.9" height="29.5"/>
				<rect x="167.1" y="161.4" class="st45" width="0.5" height="29.5"/>
			</g>
		</g>
		<g>
			<path class="st24" d="M167.7,161.4c-11.3,4.2-19.5,15.8-19.5,29.5C157.8,190.8,165.8,178.2,167.7,161.4z"/>
		</g>
	</g>
</g>
</svg>
