<?xml version="1.0" encoding="utf-8"?>
<!-- Generator: Adobe Illustrator 21.0.0, SVG Export Plug-In . SVG Version: 6.00 Build 0)  -->
<svg version="1.1" id="图层_1" xmlns="http://www.w3.org/2000/svg" xmlns:xlink="http://www.w3.org/1999/xlink" x="0px" y="0px"
	 viewBox="0 0 46 46" style="enable-background:new 0 0 46 46;" xml:space="preserve">
<style type="text/css">
	.st0{fill:#FFFFFF;}
</style>
<g>
	<g>
		<g>
			<path class="st0" d="M40.9,8.9c1.4,0,2.6,1.1,2.6,2.6v23.2c0,1.4-1.1,2.6-2.6,2.6H5.1c-1.4,0-2.6-1.1-2.6-2.6V11.4
				c0-1.4,1.1-2.6,2.6-2.6h35.8 M40.9,6.3H5.1C2.3,6.3,0,8.6,0,11.4v23.2c0,2.8,2.3,5.1,5.1,5.1h35.8c2.8,0,5.1-2.3,5.1-5.1V11.4
				C46,8.6,43.7,6.3,40.9,6.3L40.9,6.3z"/>
		</g>
	</g>
	<g>
		<path class="st0" d="M20.4,23.2c0,0.7,0,1.2,0.2,1.5c0.4,0.6,1.2,0.9,2.4,0.9c0.7,0,1.4-0.1,1.9-0.2c1-0.3,1.5-0.9,1.7-1.8
			c0.1-0.5,0-0.9-0.4-1.2c-0.4-0.3-1-0.5-1.9-0.7l-1.5-0.4c-1.5-0.4-2.5-0.7-3-1.2c-0.9-0.7-1.1-1.8-0.8-3.3c0.3-1.4,1-2.5,2.2-3.4
			s2.7-1.3,4.6-1.3c1.6,0,2.9,0.4,3.8,1.3c0.9,0.8,1.3,2.1,1,3.7h-3c0.1-0.9-0.1-1.6-0.8-1.9c-0.4-0.3-1-0.4-1.8-0.4
			s-1.5,0.2-2.1,0.5s-0.9,0.8-1,1.4c-0.1,0.5,0,0.9,0.5,1.2c0.3,0.2,0.9,0.4,1.8,0.6l2.5,0.6c1.1,0.3,1.9,0.6,2.3,1.1
			c0.8,0.7,1,1.7,0.7,3.1s-1.1,2.5-2.3,3.4c-1.3,0.9-2.8,1.4-4.8,1.4s-3.4-0.4-4.4-1.3c-0.9-0.9-1.2-2.1-0.9-3.7L20.4,23.2
			L20.4,23.2z"/>
	</g>
	<g>
		<rect x="2.5" y="30.2" class="st0" width="43.5" height="2.6"/>
	</g>
</g>
</svg>
