<?xml version="1.0" encoding="utf-8"?>
<!-- Generator: Adobe Illustrator 21.0.0, SVG Export Plug-In . SVG Version: 6.00 Build 0)  -->
<svg version="1.1" id="图层_1" xmlns="http://www.w3.org/2000/svg" xmlns:xlink="http://www.w3.org/1999/xlink" x="0px" y="0px"
	 viewBox="0 0 46 46" style="enable-background:new 0 0 46 46;" xml:space="preserve">
<style type="text/css">
	.st0{fill:#FFFFFF;}
</style>
<g>
	<g>
		<g>
			<path class="st0" d="M40.9,8.9c1.4,0,2.6,1.1,2.6,2.6v23.2c0,1.4-1.1,2.6-2.6,2.6H5.1c-1.4,0-2.6-1.1-2.6-2.6V11.4
				c0-1.4,1.1-2.6,2.6-2.6H40.9 M40.9,6.3H5.1C2.3,6.3,0,8.6,0,11.4v23.2c0,2.8,2.3,5.1,5.1,5.1h35.8c2.8,0,5.1-2.3,5.1-5.1V11.4
				C46,8.6,43.7,6.3,40.9,6.3L40.9,6.3z"/>
		</g>
	</g>
</g>
<g>
	<rect x="2.5" y="30.2" class="st0" width="43.5" height="2.6"/>
</g>
<g>
	<path class="st0" d="M7.1,20.8c0,0.3,0,0.5,0.1,0.7c0.2,0.2,0.5,0.4,1.1,0.4c0.4,0,0.6-0.1,0.9-0.2s0.4-0.3,0.4-0.5
		c0-0.2,0-0.4-0.2-0.5c-0.1-0.1-0.7-0.3-1.7-0.5C7,20,6.5,19.8,6.3,19.5C6,19.2,6,18.8,6.1,18.3c0.1-0.6,0.5-1.2,1.1-1.6
		S8.5,16,9.4,16c0.9,0,1.5,0.2,2,0.5c0.5,0.3,0.6,0.9,0.6,1.8h-1.8c0-0.2,0-0.4-0.1-0.5c-0.1-0.2-0.5-0.4-0.9-0.4
		c-0.4,0-0.7,0.1-0.9,0.2S8,17.8,7.9,18c0,0.2,0,0.4,0.2,0.4c0.2,0.1,0.7,0.3,1.8,0.5c0.7,0.2,1.1,0.4,1.4,0.8
		c0.3,0.3,0.4,0.8,0.3,1.3c-0.1,0.7-0.5,1.2-1.1,1.7C9.8,23,9,23.2,8,23.2c-1.1,0-1.8-0.2-2.2-0.7s-0.5-1-0.4-1.7H7.1z"/>
	<path class="st0" d="M19.7,19.5c-0.3,1.2-0.7,2.1-1.4,2.7c-0.7,0.6-1.4,0.9-2.3,0.9c-0.5,0-1-0.1-1.3-0.4c-0.2-0.2-0.3-0.4-0.4-0.7
		l-0.8,3.6h-1.8l2-9.5h1.7l-0.2,1c0.3-0.3,0.5-0.5,0.8-0.7c0.5-0.3,1-0.5,1.5-0.5c0.8,0,1.4,0.3,1.8,0.9
		C19.8,17.5,19.9,18.4,19.7,19.5z M16.7,17.6c-0.6,0-1.2,0.3-1.5,0.9c-0.2,0.3-0.3,0.7-0.5,1.2c-0.2,0.8-0.1,1.3,0.3,1.7
		c0.2,0.2,0.5,0.3,0.8,0.3c0.5,0,0.9-0.2,1.3-0.6c0.3-0.4,0.6-0.9,0.7-1.5c0.1-0.5,0.1-1-0.1-1.4C17.6,17.8,17.3,17.6,16.7,17.6z"/>
	<path class="st0" d="M23.8,18.9c0.3,0,0.6-0.1,0.7-0.2c0.3-0.1,0.4-0.3,0.5-0.5c0.1-0.3,0-0.5-0.2-0.6c-0.2-0.1-0.4-0.2-0.8-0.2
		c-0.4,0-0.7,0.1-1,0.3c-0.2,0.2-0.3,0.4-0.4,0.6H21c0.2-0.6,0.4-1.1,0.8-1.5c0.6-0.6,1.5-0.9,2.6-0.9c0.7,0,1.4,0.1,1.9,0.4
		c0.5,0.3,0.7,0.9,0.5,1.7l-0.7,3.1c0,0.2-0.1,0.5-0.2,0.8c0,0.2,0,0.4,0,0.5c0,0.1,0.1,0.2,0.2,0.2L26.2,23h-1.9c0-0.1,0-0.3,0-0.4
		c0-0.1,0-0.3,0-0.4c-0.3,0.3-0.6,0.5-1,0.7c-0.4,0.2-0.9,0.3-1.4,0.3c-0.6,0-1.1-0.2-1.4-0.5c-0.3-0.4-0.4-0.9-0.3-1.5
		c0.2-0.8,0.6-1.4,1.4-1.8c0.4-0.2,0.9-0.4,1.7-0.4L23.8,18.9z M24.7,19.7c-0.1,0.1-0.3,0.1-0.4,0.2c-0.1,0-0.3,0.1-0.5,0.1
		l-0.4,0.1c-0.4,0.1-0.7,0.1-0.9,0.2c-0.3,0.2-0.5,0.4-0.6,0.8c-0.1,0.3,0,0.5,0.1,0.7s0.3,0.2,0.6,0.2c0.4,0,0.8-0.1,1.1-0.3
		c0.4-0.2,0.6-0.6,0.8-1.2L24.7,19.7z"/>
	<path class="st0" d="M32.4,18.6c0-0.3,0-0.5-0.1-0.7c-0.1-0.3-0.4-0.4-0.8-0.4c-0.6,0-1.1,0.3-1.4,0.9c-0.2,0.3-0.3,0.7-0.4,1.3
		c-0.1,0.5-0.1,0.9-0.1,1.2c0.1,0.6,0.4,0.9,1,0.9c0.4,0,0.7-0.1,1-0.3c0.2-0.2,0.4-0.5,0.5-0.9h1.8c-0.2,0.5-0.5,1.1-0.9,1.5
		c-0.7,0.8-1.6,1.2-2.7,1.2c-1.1,0-1.8-0.3-2.2-1c-0.4-0.7-0.5-1.5-0.2-2.5c0.2-1.2,0.7-2.1,1.4-2.7c0.7-0.7,1.6-1,2.6-1
		c0.9,0,1.5,0.2,2,0.6c0.5,0.4,0.6,1.1,0.5,2H32.4z"/>
	<path class="st0" d="M41,17.3c0.2,0.4,0.3,0.9,0.2,1.4c0,0.3-0.1,0.8-0.2,1.4h-4.7c-0.1,0.7,0,1.2,0.3,1.4c0.2,0.2,0.5,0.3,0.8,0.3
		c0.4,0,0.7-0.1,1-0.3c0.1-0.1,0.3-0.3,0.4-0.5h1.8c-0.1,0.4-0.4,0.8-0.9,1.2c-0.7,0.7-1.6,1-2.7,1c-0.9,0-1.6-0.3-2.1-0.8
		c-0.5-0.6-0.7-1.5-0.4-2.7c0.3-1.2,0.7-2.1,1.5-2.7c0.7-0.6,1.6-0.9,2.5-0.9c0.6,0,1.1,0.1,1.5,0.3C40.5,16.5,40.8,16.9,41,17.3z
		 M36.7,18.9h2.8c0.1-0.5,0-0.8-0.2-1.1c-0.2-0.2-0.5-0.4-0.9-0.4c-0.4,0-0.8,0.1-1,0.4C37,18.1,36.8,18.5,36.7,18.9z"/>
</g>
</svg>
