<?xml version="1.0" encoding="utf-8"?>
<!-- Generator: Adobe Illustrator 21.0.0, SVG Export Plug-In . SVG Version: 6.00 Build 0)  -->
<svg version="1.1" id="图层_1" xmlns="http://www.w3.org/2000/svg" xmlns:xlink="http://www.w3.org/1999/xlink" x="0px" y="0px"
	 viewBox="0 0 46 46" style="enable-background:new 0 0 46 46;" xml:space="preserve">
<style type="text/css">
	.st0{fill:#FFFFFF;}
</style>
<g>
	<path class="st0" d="M13,17.2L28.8,33L4.7,41.3L13,17.2 M11.8,11.9L0,46l34.1-11.8L11.8,11.9L11.8,11.9z"/>
</g>
<g>
	
		<rect x="21.8" y="12.7" transform="matrix(0.7071 -0.7071 0.7071 0.7071 -0.6496 26.6772)" class="st0" width="20.1" height="2.9"/>
</g>
<g>
	<path class="st0" d="M31.2,27.7l-2.1-2.1c3.5-3.5,9.3-3.5,12.8,0l-2.1,2.1C37.5,25.3,33.6,25.3,31.2,27.7z"/>
</g>
<g>
	<g>
		<path class="st0" d="M20.4,16.9l-2.1-2.1c1.1-1.1,1.7-2.6,1.7-4.2s-0.6-3.1-1.7-4.2l2.1-2.1C22.1,6,23,8.2,23,10.6
			S22.1,15.2,20.4,16.9z"/>
	</g>
</g>
<g>
	
		<rect x="0.8" y="27.1" transform="matrix(7.516152e-02 -0.9972 0.9972 7.516152e-02 -17.2387 38.5489)" class="st0" width="22.7" height="2.9"/>
</g>
<g>
	
		<rect x="11.1" y="27.9" transform="matrix(7.473686e-02 -0.9972 0.9972 7.473686e-02 -11.4551 46.4149)" class="st0" width="16.3" height="2.9"/>
</g>
<g>
	<circle class="st0" cx="17.1" cy="2.1" r="2.1"/>
</g>
<g>
	<circle class="st0" cx="43.7" cy="2.1" r="2.1"/>
</g>
<g>
	<circle class="st0" cx="43.7" cy="29.4" r="2.1"/>
</g>
</svg>
