<?xml version="1.0" encoding="utf-8"?>
<!-- Generator: Adobe Illustrator 21.0.0, SVG Export Plug-In . SVG Version: 6.00 Build 0)  -->
<svg version="1.1" id="图层_1" xmlns="http://www.w3.org/2000/svg" xmlns:xlink="http://www.w3.org/1999/xlink" x="0px" y="0px"
	 viewBox="0 0 46 46" style="enable-background:new 0 0 46 46;" xml:space="preserve">
<style type="text/css">
	.st0{fill:#FFFFFF;}
</style>
<g>
	<g>
		<g>
			<path class="st0" d="M40.9,11.8c1.4,0,2.6,1.1,2.6,2.6v18.3c0,1.4-1.1,2.6-2.6,2.6H5.1c-1.4,0-2.6-1.1-2.6-2.6V14.4
				c0-1.4,1.1-2.6,2.6-2.6H40.9 M40.9,9.3H5.1C2.3,9.3,0,11.6,0,14.4v18.3c0,2.8,2.3,5.1,5.1,5.1h35.8c2.8,0,5.1-2.3,5.1-5.1V14.4
				C46,11.6,43.7,9.3,40.9,9.3L40.9,9.3z"/>
		</g>
	</g>
	<g>
		<rect x="1.3" y="22.2" class="st0" width="43.3" height="2.6"/>
	</g>
	<g>
		<rect x="1.3" y="15.8" class="st0" width="43.3" height="2.6"/>
	</g>
	<g>
		<rect x="1.3" y="28.6" class="st0" width="43.3" height="2.6"/>
	</g>
	<g>
		<rect x="7.3" y="9.2" class="st0" width="2.6" height="28.5"/>
	</g>
	<g>
		<rect x="14.4" y="9.3" class="st0" width="2.6" height="28.5"/>
	</g>
	<g>
		<rect x="21.6" y="9.3" class="st0" width="2.6" height="28.5"/>
	</g>
	<g>
		<rect x="28.8" y="9.3" class="st0" width="2.6" height="28.5"/>
	</g>
	<g>
		<rect x="36" y="9.3" class="st0" width="2.6" height="28.5"/>
	</g>
</g>
</svg>
