<?xml version="1.0" encoding="utf-8"?>
<!-- Generator: Adobe Illustrator 21.0.0, SVG Export Plug-In . SVG Version: 6.00 Build 0)  -->
<svg version="1.1" id="图层_1" xmlns="http://www.w3.org/2000/svg" xmlns:xlink="http://www.w3.org/1999/xlink" x="0px" y="0px"
	 viewBox="0 0 46 46" style="enable-background:new 0 0 46 46;" xml:space="preserve">
<style type="text/css">
	.st0{fill:#FFFFFF;}
</style>
<g>
	<g>
		<g>
			<path class="st0" d="M23,2.5c11.2,0,20.4,9.1,20.4,20.4v0.2c0,11.2-9.1,20.4-20.4,20.4c-11.2,0-20.4-9.1-20.4-20.4v-0.2
				C2.6,11.7,11.8,2.5,23,2.5 M23,0L23,0C10.3,0,0.1,10.2,0.1,22.9v0.2C0.1,35.7,10.3,46,23,46h0c12.7,0,22.9-10.3,22.9-22.9v-0.2
				C45.9,10.2,35.7,0,23,0L23,0z"/>
		</g>
	</g>
</g>
<g>
	<g>
		<path class="st0" d="M23.2,9c7.8,0,14.1,6.3,14.1,14.1S31,37.3,23.2,37.3S9.1,30.9,9.1,23.1S15.4,9,23.2,9 M23.2,6.5
			C14,6.5,6.5,13.9,6.5,23.1S14,39.8,23.2,39.8s16.7-7.5,16.7-16.7S32.4,6.5,23.2,6.5L23.2,6.5z"/>
	</g>
</g>
<g>
	<g>
		<path class="st0" d="M23.2,20.8c1.3,0,2.3,1.1,2.3,2.3c0,1.3-1.1,2.3-2.3,2.3c-1.3,0-2.3-1.1-2.3-2.3
			C20.9,21.8,21.9,20.8,23.2,20.8 M23.2,18.2c-2.7,0-4.9,2.2-4.9,4.9s2.2,4.9,4.9,4.9s4.9-2.2,4.9-4.9S25.9,18.2,23.2,18.2
			L23.2,18.2z"/>
	</g>
</g>
<g>
	<rect x="21.9" y="7.7" class="st0" width="2.5" height="11.8"/>
</g>
<g>
	<rect x="21.9" y="27.2" class="st0" width="2.5" height="11.8"/>
</g>
<g>
	<rect x="24.2" y="15.2" transform="matrix(0.7071 -0.7071 0.7071 0.7071 -2.838 26.0915)" class="st0" width="11.8" height="2.5"/>
</g>
<g>
	
		<rect x="10.4" y="28.9" transform="matrix(0.7071 -0.7071 0.7071 0.7071 -16.5855 20.3973)" class="st0" width="11.8" height="2.5"/>
</g>
<g>
	
		<rect x="15.1" y="10.6" transform="matrix(0.7071 -0.7071 0.7071 0.7071 -6.8645 16.3707)" class="st0" width="2.5" height="11.8"/>
</g>
<g>
	<rect x="28.8" y="24.3" transform="matrix(0.7071 -0.7071 0.7071 0.7071 -12.559 30.118)" class="st0" width="2.5" height="11.8"/>
</g>
<g>
	<rect x="27" y="22.1" class="st0" width="11.8" height="2.5"/>
</g>
<g>
	<rect x="7.6" y="22.1" class="st0" width="11.8" height="2.5"/>
</g>
</svg>
