<?xml version="1.0" encoding="utf-8"?>
<!-- Generator: Adobe Illustrator 21.0.0, SVG Export Plug-In . SVG Version: 6.00 Build 0)  -->
<svg version="1.1" id="图层_1" xmlns="http://www.w3.org/2000/svg" xmlns:xlink="http://www.w3.org/1999/xlink" x="0px" y="0px"
	 viewBox="0 0 46 46" style="enable-background:new 0 0 46 46;" xml:space="preserve">
<style type="text/css">
	.st0{fill:#FFFFFF;}
</style>
<g>
	<g>
		<g>
			<path class="st0" d="M40.8,32.2c1.4,0,2.5,1.1,2.5,2.5v6.2c0,1.4-1.1,2.5-2.5,2.5H5.2c-1.4,0-2.5-1.1-2.5-2.5v-6.2
				c0-1.4,1.1-2.5,2.5-2.5H40.8 M40.8,29.6H5.2c-2.8,0-5.1,2.3-5.1,5.1v6.2c0,2.8,2.3,5.1,5.1,5.1h35.6c2.8,0,5.1-2.3,5.1-5.1v-6.2
				C45.9,31.9,43.6,29.6,40.8,29.6L40.8,29.6z"/>
		</g>
	</g>
</g>
<g>
	<g>
		<g>
			<path class="st0" d="M37.6,2.5c1.4,0,2.5,1.1,2.5,2.5v6.2c0,1.4-1.1,2.5-2.5,2.5H8.4c-1.4,0-2.5-1.1-2.5-2.5V5.1
				c0-1.4,1.1-2.5,2.5-2.5H37.6 M37.6,0H8.4C5.6,0,3.3,2.3,3.3,5.1v6.2c0,2.8,2.3,5.1,5.1,5.1h29.2c2.8,0,5.1-2.3,5.1-5.1V5.1
				C42.7,2.3,40.4,0,37.6,0L37.6,0z"/>
		</g>
	</g>
</g>
<path class="st0" d="M25,16.6v13H21v-13H25 M27.5,14h-9v18.1h9V14L27.5,14z"/>
</svg>
