<?xml version="1.0" encoding="utf-8"?>
<!-- Generator: Adobe Illustrator 21.0.0, SVG Export Plug-In . SVG Version: 6.00 Build 0)  -->
<svg version="1.1" id="图层_1" xmlns="http://www.w3.org/2000/svg" xmlns:xlink="http://www.w3.org/1999/xlink" x="0px" y="0px"
	 viewBox="0 0 46 46" style="enable-background:new 0 0 46 46;" xml:space="preserve">
<style type="text/css">
	.st0{fill:#FFFFFF;}
</style>
<g>
	<path class="st0" d="M40.8,2.5c1.4,0,2.5,1.1,2.5,2.5v27.6c0,1.4-1.1,2.5-2.5,2.5H30.5h-1.2l-0.8,0.9L23,42.8l-5.5-6.6l-0.8-0.9
		h-1.2H5.2c-1.4,0-2.5-1.1-2.5-2.5V5.1c0-1.4,1.1-2.5,2.5-2.5H40.8 M40.8,0H5.2C2.4,0,0.1,2.3,0.1,5.1v27.6c0,2.8,2.3,5.1,5.1,5.1
		h10.3l6.3,7.5c0.3,0.5,0.7,0.7,1.2,0.7s0.9-0.2,1.2-0.7l6.3-7.5h10.3c2.8,0,5.1-2.3,5.1-5.1V5.1C45.9,2.3,43.6,0,40.8,0L40.8,0z"/>
</g>
<circle class="st0" cx="23" cy="18.9" r="2.7"/>
<circle class="st0" cx="32.6" cy="18.9" r="2.7"/>
<circle class="st0" cx="13.4" cy="18.9" r="2.7"/>
</svg>
