<?xml version="1.0" encoding="utf-8"?>
<!-- Generator: Adobe Illustrator 21.0.0, SVG Export Plug-In . SVG Version: 6.00 Build 0)  -->
<svg version="1.1" id="图层_1" xmlns="http://www.w3.org/2000/svg" xmlns:xlink="http://www.w3.org/1999/xlink" x="0px" y="0px"
	 viewBox="0 0 46 46" style="enable-background:new 0 0 46 46;" xml:space="preserve">
<style type="text/css">
	.st0{fill:#FFFFFF;}
</style>
<g>
	<g>
		<path class="st0" d="M16.5,34.9c-6.1-2-10-6.7-10-11.9c0-5.2,3.9-9.9,10-11.9l0.8,2.4C12.3,15.2,9,18.9,9,23s3.3,7.8,8.3,9.5
			L16.5,34.9z"/>
	</g>
	<g>
		<path class="st0" d="M29.5,34.9l-0.8-2.4c5-1.7,8.3-5.4,8.3-9.5s-3.3-7.8-8.3-9.5l0.8-2.4c6.1,2,10,6.7,10,11.9
			C39.5,28.2,35.6,32.9,29.5,34.9z"/>
	</g>
</g>
<g>
	<g>
		<path class="st0" d="M14.7,39.7C5.8,37.1,0,30.5,0,23C0,15.5,5.8,8.9,14.7,6.3l0.7,2.4C7.6,11.1,2.6,16.7,2.6,23
			c0,6.3,5.1,11.9,12.9,14.3L14.7,39.7z"/>
	</g>
	<g>
		<path class="st0" d="M31.3,39.7l-0.7-2.4c7.8-2.4,12.9-8,12.9-14.3c0-6.3-5.1-11.9-12.9-14.3l0.7-2.4C40.2,8.9,46,15.5,46,23
			C46,30.5,40.2,37.1,31.3,39.7z"/>
	</g>
</g>
<g>
	<polygon class="st0" points="23.7,9.6 17.7,25.6 22.6,25.6 22.3,37.5 28,20.3 22.9,20.3 	"/>
</g>
</svg>
