<?xml version="1.0" encoding="utf-8"?>
<!-- Generator: Adobe Illustrator 21.0.0, SVG Export Plug-In . SVG Version: 6.00 Build 0)  -->
<svg version="1.1" id="图层_1" xmlns="http://www.w3.org/2000/svg" xmlns:xlink="http://www.w3.org/1999/xlink" x="0px" y="0px"
	 viewBox="0 0 46 46" style="enable-background:new 0 0 46 46;" xml:space="preserve">
<style type="text/css">
	.st0{fill:#FFFFFF;}
</style>
<g>
	<g>
		<g>
			<path class="st0" d="M40.9,2.5c1.4,0,2.6,1.1,2.6,2.5v35.8c0,1.4-1.1,2.5-2.6,2.5H5.1c-1.4,0-2.6-1.1-2.6-2.5V5.1
				c0-1.4,1.1-2.5,2.6-2.5H40.9 M40.9,0H5.1C2.3,0,0,2.3,0,5.1v35.8C0,43.7,2.3,46,5.1,46h35.8c2.8,0,5.1-2.3,5.1-5.1V5.1
				C46,2.3,43.7,0,40.9,0L40.9,0z"/>
		</g>
	</g>
	<g>
		<g>
			<path class="st0" d="M33.2,10.3c1.4,0,2.6,1.1,2.6,2.5v20.4c0,1.4-1.1,2.5-2.6,2.5H12.8c-1.4,0-2.6-1.1-2.6-2.5V12.8
				c0-1.4,1.1-2.5,2.6-2.5H33.2 M33.2,7.7H12.8c-2.8,0-5.1,2.3-5.1,5.1v20.4c0,2.8,2.3,5.1,5.1,5.1h20.3c2.8,0,5.1-2.3,5.1-5.1V12.8
				C38.3,10,36,7.7,33.2,7.7L33.2,7.7z"/>
		</g>
	</g>
	<g>
		<g>
			<path class="st0" d="M24.8,18.6c1.4,0,2.6,1.1,2.6,2.5v3.7c0,1.4-1.1,2.5-2.6,2.5h-3.6c-1.4,0-2.6-1.1-2.6-2.5v-3.7
				c0-1.4,1.1-2.5,2.6-2.5H24.8 M24.8,16.1h-3.6c-2.8,0-5.1,2.3-5.1,5.1v3.7c0,2.8,2.3,5.1,5.1,5.1h3.6c2.8,0,5.1-2.3,5.1-5.1v-3.7
				C29.9,18.3,27.7,16.1,24.8,16.1L24.8,16.1z"/>
		</g>
	</g>
</g>
</svg>
