<?xml version="1.0" encoding="utf-8"?>
<!-- Generator: Adobe Illustrator 21.0.0, SVG Export Plug-In . SVG Version: 6.00 Build 0)  -->
<svg version="1.1" id="图层_1" xmlns="http://www.w3.org/2000/svg" xmlns:xlink="http://www.w3.org/1999/xlink" x="0px" y="0px"
	 viewBox="0 0 46 46" style="enable-background:new 0 0 46 46;" xml:space="preserve">
<style type="text/css">
	.st0{fill:#FFFFFF;}
</style>
<g>
	<path class="st0" d="M36.1,21.6h-2.5c0-1.4-1.1-2.5-2.5-2.5c-1.4,0-2.5,1.1-2.5,2.5h-2.5c0-2.8,2.3-5,5-5S36.1,18.8,36.1,21.6z"/>
</g>
<g>
	<path class="st0" d="M19.9,21.6h-2.5c0-1.4-1.1-2.5-2.5-2.5s-2.5,1.1-2.5,2.5H9.9c0-2.8,2.3-5,5-5S19.9,18.8,19.9,21.6z"/>
</g>
<g>
	<g>
		<g>
			<path class="st0" d="M23,2.5c11.2,0,20.4,9.1,20.4,20.4v0.2c0,11.2-9.1,20.4-20.4,20.4c-11.2,0-20.4-9.1-20.4-20.4v-0.2
				C2.6,11.7,11.8,2.5,23,2.5 M23,0L23,0C10.4,0,0.1,10.3,0.1,22.9v0.2C0.1,35.8,10.4,46,23,46h0c12.6,0,22.9-10.3,22.9-22.9v-0.2
				C45.9,10.3,35.6,0,23,0L23,0z"/>
		</g>
	</g>
</g>
<g>
	<path class="st0" d="M23,36.5c-2.8,0-5.3-1.3-7.1-3.5l2-1.6c1.2,1.6,3.1,2.5,5,2.5s3.8-0.9,5-2.5l2,1.6
		C28.4,35.2,25.8,36.5,23,36.5z"/>
</g>
</svg>
