<?xml version="1.0" encoding="utf-8"?>
<!-- Generator: Adobe Illustrator 21.0.0, SVG Export Plug-In . SVG Version: 6.00 Build 0)  -->
<svg version="1.1" id="图层_1" xmlns="http://www.w3.org/2000/svg" xmlns:xlink="http://www.w3.org/1999/xlink" x="0px" y="0px"
	 viewBox="0 0 46 46" style="enable-background:new 0 0 46 46;" xml:space="preserve">
<style type="text/css">
	.st0{fill:#FFFFFF;}
</style>
<g>
	<g>
		<g>
			<path class="st0" d="M37.1,16.6c1.4,0,2.6,1.1,2.6,2.6v17.4c0,1.4-1.1,2.6-2.6,2.6H8.9c-1.4,0-2.6-1.1-2.6-2.6V19.1
				c0-1.4,1.1-2.6,2.6-2.6H37.1 M37.1,14H8.9c-2.8,0-5.1,2.3-5.1,5.1v17.4c0,2.8,2.3,5.1,5.1,5.1h28.1c2.8,0,5.1-2.3,5.1-5.1V19.1
				C42.2,16.3,39.9,14,37.1,14L37.1,14z"/>
		</g>
	</g>
	<g>
		<g>
			<path class="st0" d="M32.5,22.1c0.6,0,1,0.5,1,1v9.5c0,0.6-0.5,1-1,1H13.5c-0.6,0-1-0.5-1-1v-9.5c0-0.6,0.5-1,1-1H32.5
				 M32.5,19.5H13.5c-2,0-3.6,1.6-3.6,3.6v9.5c0,2,1.6,3.6,3.6,3.6h19.1c2,0,3.6-1.6,3.6-3.6v-9.5C36.1,21.1,34.5,19.5,32.5,19.5
				L32.5,19.5z"/>
		</g>
	</g>
</g>
<polygon class="st0" points="2.6,4.4 0,4.4 0,27.7 2.6,27.7 2.6,4.4 "/>
<polygon class="st0" points="46,4.4 43.4,4.4 43.4,27.7 46,27.7 46,4.4 "/>
<circle class="st0" cx="16.9" cy="27.4" r="2.3"/>
<circle class="st0" cx="29.6" cy="27.4" r="2.3"/>
</svg>
