<?xml version="1.0" encoding="utf-8"?>
<!-- Generator: Adobe Illustrator 21.0.0, SVG Export Plug-In . SVG Version: 6.00 Build 0)  -->
<svg version="1.1" id="图层_1" xmlns="http://www.w3.org/2000/svg" xmlns:xlink="http://www.w3.org/1999/xlink" x="0px" y="0px"
	 viewBox="0 0 46 46" style="enable-background:new 0 0 46 46;" xml:space="preserve">
<style type="text/css">
	.st0{fill:#FFFFFF;}
</style>
<g>
	<path class="st0" d="M22.9,2.5c11.2,0,20.3,9.2,20.3,20.5s-9.1,20.5-20.3,20.5c-3.6,0-7.1-1-10.2-2.8l-0.9-0.5l-1,0.3l-6.9,1.9
		L6,35.9l0.4-1.1l-0.6-1c-2-3.2-3.1-7-3.1-10.8C2.7,11.7,11.8,2.5,22.9,2.5 M22.9,0C10.3,0,0.1,10.3,0.1,23c0,4.5,1.3,8.6,3.4,12.1
		L0,46l11.5-3.1c3.4,2,7.3,3.1,11.5,3.1c12.6,0,22.8-10.3,22.8-23S35.6,0,22.9,0L22.9,0z"/>
</g>
<g>
	<path class="st0" d="M19.7,16.8c0.3,0.6,0.3,1.2,0.2,2c-0.2,0.8-0.5,1.5-1,1.9c-0.3,0.3-0.7,0.5-1.2,0.8c0.6,0.2,1,0.6,1.3,1.2
		c0.2,0.5,0.3,1.2,0.1,1.9c-0.2,0.8-0.5,1.5-1,2.1c-0.3,0.4-0.7,0.8-1.2,1c-0.5,0.3-1,0.5-1.6,0.7c-0.6,0.1-1.2,0.2-1.9,0.2h-6
		l2.8-13.2h6.4C18.2,15.4,19.2,15.9,19.7,16.8z M11.2,22.8l-0.7,3.5h3.2c0.6,0,1-0.1,1.4-0.2c0.7-0.3,1.1-0.8,1.2-1.6
		c0.1-0.7,0-1.2-0.6-1.4c-0.3-0.1-0.7-0.2-1.3-0.2H11.2z M12.3,17.7l-0.6,2.9h3.2c0.6,0,1.1-0.1,1.5-0.3c0.4-0.2,0.7-0.6,0.8-1.2
		c0.1-0.6,0-1-0.5-1.2c-0.4-0.1-0.9-0.2-1.5-0.2H12.3z"/>
	<path class="st0" d="M19.6,30.4l0.3,0c0.2,0,0.5,0,0.7,0c0.2,0,0.4-0.1,0.6-0.2c0.2-0.1,0.4-0.3,0.6-0.6c0.2-0.3,0.3-0.5,0.3-0.6
		l-1.4-10.2h2.8l0.6,7.2l3.5-7.2h2.7L25,28.4c-1,1.8-1.8,3-2.3,3.4c-0.5,0.4-1.3,0.7-2.4,0.7c-0.2,0-0.4,0-0.5,0c-0.1,0-0.3,0-0.6,0
		L19.6,30.4z"/>
	<path class="st0" d="M38.4,20.4c0.3,0.6,0.4,1.3,0.3,2c0,0.4-0.1,1.1-0.3,1.9h-6.7c-0.2,1,0,1.7,0.5,2.1c0.3,0.2,0.7,0.4,1.2,0.4
		c0.5,0,1-0.1,1.4-0.4c0.2-0.2,0.4-0.4,0.6-0.7H38c-0.2,0.6-0.6,1.2-1.3,1.8c-1,0.9-2.3,1.4-3.8,1.4c-1.2,0-2.3-0.4-3-1.2
		s-1-2.1-0.6-3.9c0.4-1.7,1.1-3,2.1-3.9c1-0.9,2.3-1.4,3.6-1.4c0.8,0,1.5,0.2,2.1,0.5C37.7,19.3,38.2,19.8,38.4,20.4z M32.2,22.7h4
		c0.1-0.7,0-1.2-0.3-1.5c-0.3-0.3-0.7-0.5-1.3-0.5c-0.6,0-1.1,0.2-1.5,0.6C32.7,21.6,32.4,22.1,32.2,22.7z"/>
</g>
</svg>
