<?xml version="1.0" encoding="utf-8"?>
<!-- Generator: Adobe Illustrator 21.0.0, SVG Export Plug-In . SVG Version: 6.00 Build 0)  -->
<svg version="1.1" id="图层_1" xmlns="http://www.w3.org/2000/svg" xmlns:xlink="http://www.w3.org/1999/xlink" x="0px" y="0px"
	 viewBox="0 0 46 46" style="enable-background:new 0 0 46 46;" xml:space="preserve">
<style type="text/css">
	.st0{fill:#FFFFFF;}
</style>
<g>
	<path class="st0" d="M23.1,2.5c11.2,0,20.3,9.2,20.3,20.5s-9.1,20.5-20.3,20.5c-3.6,0-7.1-1-10.2-2.8l-0.9-0.5l-1,0.3L4,42.3
		l2.1-6.4l0.4-1.1l-0.6-1c-2-3.2-3.1-7-3.1-10.8C2.8,11.7,11.9,2.5,23.1,2.5 M23.1,0C10.4,0,0.2,10.3,0.2,23c0,4.5,1.3,8.6,3.4,12.1
		L0.1,46l11.4-3.1c3.4,2,7.3,3.1,11.5,3.1c12.6,0,22.8-10.3,22.8-23S35.7,0,23.1,0L23.1,0z"/>
</g>
<g>
	<path class="st0" d="M11.4,31.1l3.5-16.7h3.5L17,20.8h6.5l1.4-6.4h3.5l-3.5,16.7h-3.5l1.6-7.4h-6.5l-1.6,7.4H11.4z"/>
	<path class="st0" d="M30.5,18.8h3.3l-2.6,12.3h-3.3L30.5,18.8z M34.1,17.3h-3.3l0.6-3h3.3L34.1,17.3z"/>
</g>
</svg>
