<?xml version="1.0" encoding="utf-8"?>
<!-- Generator: Adobe Illustrator 21.0.0, SVG Export Plug-In . SVG Version: 6.00 Build 0)  -->
<svg version="1.1" id="图层_1" xmlns="http://www.w3.org/2000/svg" xmlns:xlink="http://www.w3.org/1999/xlink" x="0px" y="0px"
	 viewBox="0 0 46 46" style="enable-background:new 0 0 46 46;" xml:space="preserve">
<style type="text/css">
	.st0{fill:#FFFFFF;}
</style>
<g>
	<g>
		<g>
			<path class="st0" d="M23,2.6c2.2,0,4,1.5,4.6,3.6l0,0.1c2.8,11,2.8,22.7,0,33.7c-0.5,2.1-2.4,3.6-4.6,3.6c-2.2,0-4.1-1.5-4.6-3.7
				l-0.3-1.3c-2.3-10.1-2.3-20.8,0-30.9l0.3-1.3C18.9,4.1,20.8,2.6,23,2.6 M23,0c-3.4,0-6.3,2.3-7.1,5.6L15.6,7
				c-2.4,10.6-2.4,21.5,0,32.1l0.3,1.3c0.8,3.3,3.7,5.6,7.1,5.6h0c3.3,0,6.2-2.3,7-5.5v0C32.9,29,33,17,30.1,5.6l0-0.1
				C29.2,2.3,26.3,0,23,0L23,0z"/>
		</g>
	</g>
	<g>
		<g>
			<path class="st0" d="M23,16.3c5.2,0,10.4,0.6,15.4,1.8l1.3,0.3c2.2,0.5,3.7,2.4,3.7,4.6c0,2.2-1.5,4-3.6,4.6l-0.1,0
				c-5.5,1.4-11.1,2.1-16.8,2.1c-5.7,0-11.4-0.7-16.9-2.1C4,27,2.6,25.1,2.6,23c0-2.2,1.5-4.1,3.7-4.6l1.3-0.3
				C12.6,16.9,17.8,16.3,23,16.3L23,16.3 M23,13.8c-5.4,0-10.8,0.6-16.1,1.8l-1.3,0.3C2.4,16.7,0,19.6,0,23v0c0,3.3,2.3,6.2,5.5,7h0
				c5.7,1.4,11.6,2.2,17.5,2.2c5.9,0,11.7-0.7,17.4-2.2l0.1,0c3.2-0.8,5.5-3.7,5.5-7v0c0-3.4-2.3-6.3-5.6-7.1L39,15.6
				C33.7,14.4,28.4,13.8,23,13.8L23,13.8z"/>
		</g>
	</g>
	<g>
		<g>
			<path class="st0" d="M23.1,21.7c0.9,0,1.6,0.7,1.6,1.6s-0.7,1.6-1.6,1.6s-1.6-0.7-1.6-1.6S22.2,21.7,23.1,21.7 M23.1,19.2
				c-2.3,0-4.1,1.9-4.1,4.1s1.9,4.1,4.1,4.1s4.1-1.9,4.1-4.1S25.4,19.2,23.1,19.2L23.1,19.2z"/>
		</g>
	</g>
</g>
</svg>
