<?xml version="1.0" encoding="utf-8"?>
<!-- Generator: Adobe Illustrator 21.0.0, SVG Export Plug-In . SVG Version: 6.00 Build 0)  -->
<svg version="1.1" id="图层_1" xmlns="http://www.w3.org/2000/svg" xmlns:xlink="http://www.w3.org/1999/xlink" x="0px" y="0px"
	 viewBox="0 0 46 46" style="enable-background:new 0 0 46 46;" xml:space="preserve">
<style type="text/css">
	.st0{fill:#FFFFFF;}
</style>
<g>
	<g>
		<path class="st0" d="M22.9,46C10.3,46,0,35.7,0,23.1v-0.2C0,10.3,10.3,0,22.9,0v2.6c-11.2,0-20.3,9.1-20.3,20.3v0.2
			c0,11.2,9.1,20.3,20.3,20.3c11.2,0,20.3-9.1,20.3-20.3v-0.2h2.6v0.2C45.8,35.7,35.5,46,22.9,46z"/>
	</g>
</g>
<g>
	<path class="st0" d="M22.9,36.5c-2.8,0-5.4-1.3-7.1-3.5l2-1.6C19.1,33,21,34,22.9,34c2,0,3.8-0.9,5.1-2.5l2,1.6
		C28.3,35.2,25.7,36.5,22.9,36.5z"/>
</g>
<g>
	<path class="st0" d="M14.8,22.9c-2.8,0-5.1-2.3-5.1-5.1h2.6c0,1.4,1.1,2.5,2.5,2.5s2.5-1.1,2.5-2.5h2.6
		C19.9,20.6,17.6,22.9,14.8,22.9z"/>
</g>
<g>
	<path class="st0" d="M31.1,22.9c-2.8,0-5.1-2.3-5.1-5.1h2.6c0,1.4,1.1,2.5,2.5,2.5c1.4,0,2.5-1.1,2.5-2.5h2.6
		C36.1,20.6,33.9,22.9,31.1,22.9z"/>
</g>
<g>
	<polygon class="st0" points="45.9,12.8 31.3,12.8 31.2,10.5 40.9,2.6 31.1,2.6 31.1,0 45.3,0 45.3,2.3 35.6,10.2 45.9,10.2 	"/>
</g>
</svg>
