<?xml version="1.0" encoding="utf-8"?>
<!-- Generator: Adobe Illustrator 21.0.0, SVG Export Plug-In . SVG Version: 6.00 Build 0)  -->
<svg version="1.1" id="图层_1" xmlns="http://www.w3.org/2000/svg" xmlns:xlink="http://www.w3.org/1999/xlink" x="0px" y="0px"
	 viewBox="0 0 46 46" style="enable-background:new 0 0 46 46;" xml:space="preserve">
<style type="text/css">
	.st0{fill:#FFFFFF;}
</style>
<g>
	<g>
		<path class="st0" d="M5.7,2.5v40.9H2.6V2.5H5.7 M8.3,0H0.1v46h8.2V0L8.3,0z"/>
	</g>
	<g>
		<path class="st0" d="M18.3,4.9c2.7,0,5.2,1.4,7.7,2.9c2.6,1.5,5.2,3,8.2,3c3.2,0,6.7-1.2,9.2-2.3v21.7c-2,1.2-5.7,3.1-9,3.1
			c-0.1,0-0.2,0-0.3,0c-2.4-0.1-4.2-0.8-6.4-1.6c-2.5-0.9-5.3-2-9.3-2l-0.2,0c-3.9,0-7.4,1.1-10,2.1V9.3C9.8,7.9,13.8,4.9,18.3,4.9
			 M18.3,2.4c-7,0-12.5,5.8-12.5,5.8v27.5c0,0,5.9-3.6,12.5-3.6c0,0,0.1,0,0.1,0c6.7,0.1,9.7,3.3,15.6,3.6c0.1,0,0.3,0,0.4,0
			c5.8,0,11.5-4.3,11.5-4.3V4.3c0,0-6.4,3.9-11.8,3.9C29.2,8.2,24.6,2.4,18.3,2.4L18.3,2.4z"/>
	</g>
</g>
</svg>
