<?xml version="1.0" encoding="utf-8"?>
<!-- Generator: Adobe Illustrator 21.0.0, SVG Export Plug-In . SVG Version: 6.00 Build 0)  -->
<svg version="1.1" id="图层_1" xmlns="http://www.w3.org/2000/svg" xmlns:xlink="http://www.w3.org/1999/xlink" x="0px" y="0px"
	 viewBox="0 0 46 46" style="enable-background:new 0 0 46 46;" xml:space="preserve">
<style type="text/css">
	.st0{fill:#FFFFFF;}
</style>
<g>
	<g>
		<g>
			<path class="st0" d="M22.9,9.1c9.5,0,17.2,7.7,17.2,17.2s-7.7,17.2-17.2,17.2S5.7,35.7,5.7,26.3S13.4,9.1,22.9,9.1 M22.9,6.5
				C12,6.5,3.2,15.4,3.2,26.3S12,46,22.9,46s19.7-8.8,19.7-19.7S33.8,6.5,22.9,6.5L22.9,6.5z"/>
		</g>
	</g>
	<g>
		<g>
			<path class="st0" d="M22.9,14.8c6.3,0,11.4,5.1,11.4,11.4s-5.1,11.4-11.4,11.4c-6.3,0-11.4-5.1-11.4-11.4S16.6,14.8,22.9,14.8
				 M22.9,12.3c-7.7,0-14,6.3-14,14s6.3,14,14,14s14-6.3,14-14S30.6,12.3,22.9,12.3L22.9,12.3z"/>
		</g>
	</g>
	<g>
		<rect x="21.6" y="1.1" class="st0" width="2.5" height="5.4"/>
	</g>
	<g>
		<polygon class="st0" points="27.5,32.3 21.6,26.8 21.6,20.9 24.2,20.9 24.2,25.7 29.3,30.4 		"/>
	</g>
	<g>
		<polygon class="st0" points="31,0 15.3,0 15.3,2.5 31,2.5 31,0 		"/>
	</g>
</g>
</svg>
