<?xml version="1.0" encoding="utf-8"?>
<!-- Generator: Adobe Illustrator 21.0.0, SVG Export Plug-In . SVG Version: 6.00 Build 0)  -->
<svg version="1.1" id="图层_1" xmlns="http://www.w3.org/2000/svg" xmlns:xlink="http://www.w3.org/1999/xlink" x="0px" y="0px"
	 viewBox="0 0 46 46" style="enable-background:new 0 0 46 46;" xml:space="preserve">
<style type="text/css">
	.st0{fill:#FFFFFF;}
</style>
<g>
	<g>
		<g>
			<path class="st0" d="M23,2.5c11.2,0,20.3,9.1,20.3,20.3v0.2c0,11.2-9.1,20.3-20.3,20.3c-11.2,0-20.3-9.1-20.3-20.3v-0.2
				C2.7,11.7,11.8,2.5,23,2.5 M23,0L23,0C10.4,0,0.1,10.3,0.1,22.9v0.2C0.1,35.7,10.4,46,23,46h0c12.6,0,22.9-10.3,22.9-22.9v-0.2
				C45.9,10.3,35.6,0,23,0L23,0z"/>
		</g>
	</g>
</g>
<g>
	<path class="st0" d="M23,36.5c-2.8,0-5.3-1.3-7-3.5l2-1.6c1.2,1.6,3.1,2.5,5,2.5s3.8-0.9,5-2.5l2,1.6C28.4,35.2,25.8,36.5,23,36.5z
		"/>
</g>
<path class="st0" d="M3.6,17.3c0,5.2,4.2,9.5,9.5,9.5s9.5-4.2,9.5-9.5H3.6z M7,21.3L9.8,19l0.8,1l-2.8,2.4L7,21.3z M10.6,22.3
	l-0.8-1l2.8-2.4l0.8,1L10.6,22.3z"/>
<path class="st0" d="M23.6,17.3c0,5.2,4.2,9.5,9.5,9.5s9.5-4.2,9.5-9.5H23.6z M26.8,21.3l2.8-2.4l0.8,1l-2.8,2.4L26.8,21.3z
	 M30.4,22.3l-0.8-1l2.8-2.4l0.8,1L30.4,22.3z"/>
</svg>
