<?xml version="1.0" encoding="utf-8"?>
<!-- Generator: Adobe Illustrator 21.0.0, SVG Export Plug-In . SVG Version: 6.00 Build 0)  -->
<svg version="1.1" id="图层_1" xmlns="http://www.w3.org/2000/svg" xmlns:xlink="http://www.w3.org/1999/xlink" x="0px" y="0px"
	 viewBox="0 0 46 46" style="enable-background:new 0 0 46 46;" xml:space="preserve">
<style type="text/css">
	.st0{fill:#FFFFFF;}
</style>
<g>
	<path class="st0" d="M23,12.9c2,0,4,0.6,5.8,1.6l11.5,7.1c2,1.2,3.2,3.4,3.2,5.7c0,3.7-3,6.8-6.8,6.8H9.3c-3.7,0-6.8-3-6.8-6.8
		c0-2.4,1.2-4.5,3.2-5.7l11.5-7.1C19,13.4,21,12.9,23,12.9 M23,10.3c-2.5,0-4.9,0.7-7.1,2L4.4,19.5C1.7,21.2,0,24.2,0,27.4l0,0
		c0,5.2,4.2,9.3,9.3,9.3h27.4c5.2,0,9.3-4.2,9.3-9.3l0,0c0-3.2-1.7-6.2-4.4-7.9l-11.5-7.1C27.9,11,25.5,10.3,23,10.3L23,10.3z"/>
</g>
<g>
	<path class="st0" d="M38.2,22.7l-8.6-4.9c-2.1-1.2-4.4-1.8-6.7-1.8v2.6c1.9,0,3.8,0.5,5.4,1.4l8.6,4.9c1.6,1.1,1.6,2.2,1.6,2.6
		c0,1.5-1.1,2.8-2.5,2.8l-25.8,0.1c-1.4,0-2.5-1.2-2.5-2.8c0-1.2,0.8-2.1,1.6-2.6l8.2-4.8c1.7-1,3.6-1.5,5.5-1.5v-2.6l0,0
		c-2.4,0-4.7,0.6-6.8,1.9l-8.3,4.9C6.1,23.8,5,25.5,5,27.5l0,0c0,3,2.3,5.3,5.1,5.3l0,0l25.8-0.1c2.8,0,5.1-2.4,5.1-5.3
		C41,25.4,39.9,23.8,38.2,22.7z"/>
	<path class="st0" d="M22.9,16L22.9,16L22.9,16z"/>
</g>
<path class="st0" d="M10.5,28.2l-0.1-0.1c-0.3-0.3-0.3-0.9,0-1.2l1.6-1.6c0.3-0.3,0.9-0.3,1.2,0l0.1,0.1c0.3,0.3,0.3,0.9,0,1.2
	l-1.6,1.6C11.3,28.5,10.8,28.5,10.5,28.2z"/>
<path class="st0" d="M13.8,28.2l-0.1-0.1c-0.3-0.3-0.3-0.9,0-1.2l1.6-1.6c0.3-0.3,0.9-0.3,1.2,0l0.1,0.1c0.3,0.3,0.3,0.9,0,1.2
	L15,28.2C14.7,28.5,14.1,28.5,13.8,28.2z"/>
<path class="st0" d="M17.2,28.2L17,28.1c-0.3-0.3-0.3-0.9,0-1.2l1.6-1.6c0.3-0.3,0.9-0.3,1.2,0l0.1,0.1c0.3,0.3,0.3,0.9,0,1.2
	l-1.6,1.6C18,28.5,17.5,28.5,17.2,28.2z"/>
</svg>
