<?xml version="1.0" encoding="utf-8"?>
<!-- Generator: Adobe Illustrator 21.0.0, SVG Export Plug-In . SVG Version: 6.00 Build 0)  -->
<svg version="1.1" id="图层_1" xmlns="http://www.w3.org/2000/svg" xmlns:xlink="http://www.w3.org/1999/xlink" x="0px" y="0px"
	 viewBox="0 0 46 46" style="enable-background:new 0 0 46 46;" xml:space="preserve">
<style type="text/css">
	.st0{fill:#FFFFFF;}
</style>
<g>
	<g>
		<g>
			<path class="st0" d="M23,2.5c11.2,0,20.3,9.1,20.3,20.3v0.2c0,11.2-9.1,20.3-20.3,20.3c-11.2,0-20.3-9.1-20.3-20.3v-0.2
				C2.7,11.7,11.8,2.5,23,2.5 M23,0L23,0C10.4,0,0.1,10.3,0.1,22.9v0.2C0.1,35.7,10.4,46,23,46h0c12.6,0,22.9-10.3,22.9-22.9v-0.2
				C45.9,10.3,35.6,0,23,0L23,0z"/>
		</g>
	</g>
</g>
<g>
	<path class="st0" d="M18,36l-2-1.6c1.7-2.2,4.3-3.5,7.1-3.5c2.8,0,5.3,1.3,7,3.5l-2,1.6c-1.2-1.6-3.1-2.5-5-2.5
		C21.1,33.5,19.2,34.4,18,36z"/>
</g>
<g>
	
		<rect x="9.2" y="18.9" transform="matrix(0.7071 -0.7071 0.7071 0.7071 -10.0351 16.0657)" class="st0" width="10.4" height="2.5"/>
</g>
<g>
	
		<rect x="13.1" y="14.9" transform="matrix(0.7071 -0.7071 0.7071 0.7071 -10.0352 16.0662)" class="st0" width="2.5" height="10.4"/>
</g>
<g>
	<rect x="27" y="18.9" transform="matrix(0.7071 -0.7071 0.7071 0.7071 -4.8197 28.6567)" class="st0" width="10.4" height="2.5"/>
</g>
<g>
	
		<rect x="30.9" y="14.9" transform="matrix(0.7071 -0.7071 0.7071 0.7071 -4.8195 28.6575)" class="st0" width="2.5" height="10.4"/>
</g>
</svg>
