<?xml version="1.0" encoding="utf-8"?>
<!-- Generator: Adobe Illustrator 21.0.0, SVG Export Plug-In . SVG Version: 6.00 Build 0)  -->
<svg version="1.1" id="图层_1" xmlns="http://www.w3.org/2000/svg" xmlns:xlink="http://www.w3.org/1999/xlink" x="0px" y="0px"
	 viewBox="0 0 480 400" style="enable-background:new 0 0 480 400;" xml:space="preserve">
<style type="text/css">
	.st0{fill:none;stroke:#FFFFFF;stroke-width:18.563;stroke-miterlimit:10;}
	.st1{fill:#FFFFFF;}
</style>
<path class="st0" d="M360.6,374.8H111.9c-27.9,0-50.4-22.6-50.4-50.4V75.7c0-27.9,22.6-50.4,50.4-50.4h248.7
	c27.9,0,50.4,22.6,50.4,50.4v248.7C411,352.2,388.4,374.8,360.6,374.8z"/>
<g>
	<g>
		<polygon class="st1" points="324.6,120 324.6,69.5 210.8,69.5 172.7,120 		"/>
	</g>
	<g>
		<polygon class="st1" points="131,153.7 173.1,187.4 173.1,120 		"/>
	</g>
	<g>
		<polygon class="st1" points="341.4,254.7 282.5,187.4 173.1,187.4 206.8,229.5 299.4,229.5 299.4,280 156.3,280 156.3,330.5 
			274.1,330.5 		"/>
	</g>
</g>
</svg>
