<?xml version="1.0" encoding="utf-8"?>
<!-- Generator: Adobe Illustrator 22.0.0, SVG Export Plug-In . SVG Version: 6.00 Build 0)  -->
<svg version="1.1" id="图层_1" xmlns="http://www.w3.org/2000/svg" xmlns:xlink="http://www.w3.org/1999/xlink" x="0px" y="0px"
	 viewBox="0 0 26 26" style="enable-background:new 0 0 26 26;" xml:space="preserve">
<style type="text/css">
	.st0{fill:#ACBAC7;}
</style>
<g>
	<g>
		<g>
			<path class="st0" d="M11,23.4l-8.5-8.5c-0.2-0.2-0.7-0.1-0.7,0.3v8.5c0,0.2,0.2,0.4,0.4,0.4h8.5C11.1,24,11.2,23.6,11,23.4z"/>
			<path class="st0" d="M10.9,15.3l0.5,0.6c0.3,0.3,0.3,0.8,0,1l-5.8,5.4c-0.3,0.3-0.8,0.3-1,0L4,21.7c-0.3-0.3-0.3-0.8,0-1l5.8-5.4
				C10.2,14.9,10.6,15,10.9,15.3z"/>
		</g>
		<g>
			<path class="st0" d="M14.8,23.4l8.5-8.5c0.2-0.2,0.7-0.1,0.7,0.3v8.5c0,0.2-0.2,0.4-0.4,0.4h-8.5C14.8,24,14.6,23.6,14.8,23.4z"
				/>
			<path class="st0" d="M14.9,15.3l-0.5,0.6c-0.3,0.3-0.3,0.8,0,1l5.8,5.4c0.3,0.3,0.8,0.3,1,0l0.5-0.6c0.3-0.3,0.3-0.8,0-1L16,15.2
				C15.7,14.9,15.2,15,14.9,15.3z"/>
		</g>
	</g>
	<g>
		<g>
			<path class="st0" d="M11,2.6l-8.5,8.5c-0.2,0.2-0.7,0.1-0.7-0.3V2.3C1.9,2.1,2.1,2,2.3,2h8.5C11.1,2,11.2,2.4,11,2.6z"/>
			<path class="st0" d="M10.9,10.7l0.5-0.6c0.3-0.3,0.3-0.8,0-1L5.6,3.7c-0.3-0.3-0.8-0.3-1,0L4,4.3c-0.3,0.3-0.3,0.8,0,1l5.8,5.4
				C10.2,11.1,10.6,11,10.9,10.7z"/>
		</g>
		<g>
			<path class="st0" d="M14.8,2.6l8.5,8.5c0.2,0.2,0.7,0.1,0.7-0.3V2.3C24,2.1,23.8,2,23.6,2h-8.5C14.8,2,14.6,2.4,14.8,2.6z"/>
			<path class="st0" d="M14.9,10.7l-0.5-0.6c-0.3-0.3-0.3-0.8,0-1l5.8-5.4c0.3-0.3,0.8-0.3,1,0l0.5,0.6c0.3,0.3,0.3,0.8,0,1L16,10.8
				C15.7,11.1,15.2,11,14.9,10.7z"/>
		</g>
	</g>
</g>
</svg>
