<?xml version="1.0" encoding="utf-8"?>
<!-- Generator: Adobe Illustrator 21.0.0, SVG Export Plug-In . SVG Version: 6.00 Build 0)  -->
<svg version="1.1" id="图层_1" xmlns="http://www.w3.org/2000/svg" xmlns:xlink="http://www.w3.org/1999/xlink" x="0px" y="0px"
	 viewBox="0 0 20 20" style="enable-background:new 0 0 20 20;" xml:space="preserve">
<style type="text/css">
	.st0{fill:#FFFFFF;}
</style>
<title>earth.svg [转换]</title>
<g>
	<path class="st0" d="M10,0C4.5,0,0,4.5,0,10c0,5.5,4.5,10,10,10s10-4.5,10-10C20,4.5,15.5,0,10,0z M10,18c-4.4,0-8-3.6-8-8
		s3.6-8,8-8s8,3.6,8,8S14.4,18,10,18z"/>
</g>
<g>
	<path class="st0" d="M10,13.9c-0.6,0-1-0.4-1-1v-0.9c0-1,0.6-1.8,1.4-2c0.9-0.3,1.7-1.4,1.4-2.8c-0.2-0.8-0.7-1.5-1.4-1.6
		c-1-0.2-1.7,0.4-2,1C8.2,7,7.6,7.2,7.1,6.9C6.6,6.7,6.4,6.1,6.7,5.6c0.9-1.7,2.6-2.5,4.3-2c1.4,0.4,2.5,1.6,2.8,3.2
		C14.2,9,13,11.2,11,11.8c0,0,0,0,0,0.1v0.9C11,13.4,10.6,13.9,10,13.9z"/>
</g>
<g>
	<circle class="st0" cx="10" cy="15.8" r="1.1"/>
</g>
</svg>
