<?xml version="1.0" encoding="utf-8"?>
<!-- Generator: Adobe Illustrator 22.0.0, SVG Export Plug-In . SVG Version: 6.00 Build 0)  -->
<svg version="1.1" id="图层_1" xmlns="http://www.w3.org/2000/svg" xmlns:xlink="http://www.w3.org/1999/xlink" x="0px" y="0px"
	 viewBox="0 0 26 26" style="enable-background:new 0 0 26 26;" xml:space="preserve">
<style type="text/css">
	.st0{fill:#4A9FF0;}
	.st1{fill:#FFFFFF;}
</style>
<g>
	
		<image style="overflow:visible;opacity:0.14;" width="60" height="60" xlink:href="3FA3D4E9B0E190BD.png"  transform="matrix(1 0 0 1 -17 -17)">
	</image>
	<g>
		<g>
			<path class="st0" d="M1.3,2.3v21.5c0,0.5,0.4,0.9,0.9,0.9h21.5c0.5,0,0.9-0.4,0.9-0.9V5.4c0-0.2-0.1-0.4-0.2-0.6L22,1.7
				c-0.2-0.2-0.4-0.4-0.7-0.4h-19C1.8,1.3,1.3,1.8,1.3,2.3z"/>
			<g>
				<path class="st1" d="M17.5,10.1H4.6c-0.2,0-0.4-0.2-0.4-0.4V4.6c0-0.2,0.2-0.4,0.4-0.4h12.9c0.2,0,0.4,0.2,0.4,0.4v5.1
					C17.9,9.9,17.7,10.1,17.5,10.1z"/>
				<circle class="st1" cx="14" cy="17.9" r="3.9"/>
			</g>
		</g>
	</g>
</g>
</svg>
