<?xml version="1.0" encoding="utf-8"?>
<!-- Generator: Adobe Illustrator 21.0.0, SVG Export Plug-In . SVG Version: 6.00 Build 0)  -->
<svg version="1.1" id="图层_1" xmlns="http://www.w3.org/2000/svg" xmlns:xlink="http://www.w3.org/1999/xlink" x="0px" y="0px"
	 viewBox="0 0 82 30" style="enable-background:new 0 0 82 30;" xml:space="preserve">
<style type="text/css">
	.st0{fill:#459BD0;}
	.st1{fill:#51DDD4;}
	.st2{fill:#FFFFFF;}
	.st3{opacity:0.5;}
	.st4{fill:none;stroke:#FFFFFF;stroke-width:2;stroke-miterlimit:10;}
</style>
<path class="st0" d="M67,30H15C6.7,30,0,23.3,0,15v0C0,6.7,6.7,0,15,0h52c8.3,0,15,6.7,15,15v0C82,23.3,75.3,30,67,30z"/>
<path class="st1" d="M26.5,30H15C6.7,30,0,23.3,0,15v0C0,6.7,6.7,0,15,0l11.5,0c8.3,0,15,6.7,15,15v0C41.5,23.3,34.8,30,26.5,30z"/>
<path class="st2" d="M27.8,8l-8.9-0.1C18.2,6.2,16.5,5,14.6,5C12.1,5,10,7.1,10,9.6c0,1.6,0.8,3,2.1,3.8c0.2,0.9,1,1.6,2,1.6l1.5,0
	l0.1,0.4c0.1,0.3,0.5,0.6,0.9,0.6h3.7c0.4,0,0.8-0.3,0.9-0.6l0.1-0.3l6.6,0c1.1,0,2.1-0.9,2.1-2.1v-2.9C29.9,9,29,8,27.8,8z
	 M16.2,9.6c0,0.9-0.7,1.6-1.6,1.6c-0.9,0-1.6-0.7-1.6-1.6C13,8.7,13.7,8,14.6,8C15.5,8,16.2,8.7,16.2,9.6z"/>
<g>
	<path class="st2" d="M27.8,19.1v3c0,0,0,0.1-0.1,0.1l-6.4-0.1h-1.4L19.6,23h-2.3L17,22.1h-1.4h-1.5C14,22.1,14,22,14,22v-3h1
		c0.4,1,1.3,1.6,2.4,1.6h2.3c1,0,2-0.6,2.4-1.6L27.8,19.1z M27.7,17.1L21.5,17c-0.6,0-1.1,0.4-1.3,0.9l-0.1,0.2
		c-0.1,0.2-0.3,0.4-0.5,0.4h-2.3c-0.2,0-0.5-0.2-0.5-0.4l-0.1-0.2C16.5,17.4,16,17,15.4,17h-3.3C12,17,12,17,12,17.1V22
		c0,1.1,0.9,2.1,2.1,2.1h1.5l0.1,0.2c0.1,0.4,0.5,0.7,1,0.7h3.6c0.5,0,0.9-0.3,1.1-0.8l0.1-0.2l6.4,0.1c1.1,0,2.1-0.9,2.1-2.1v-2.9
		C29.8,18,28.9,17.1,27.7,17.1L27.7,17.1z"/>
</g>
<g class="st3">
	<polyline class="st4" points="57.2,20.8 51.4,15 57.2,9.2 	"/>
	<polyline class="st4" points="66.2,9.2 72,15 66.2,20.8 	"/>
	<line class="st4" x1="63" y1="8" x2="60" y2="22"/>
</g>
</svg>
