<?xml version="1.0" encoding="utf-8"?>
<!-- Generator: Adobe Illustrator 23.0.4, SVG Export Plug-In . SVG Version: 6.00 Build 0)  -->
<svg version="1.1" id="图层_1" xmlns="http://www.w3.org/2000/svg" xmlns:xlink="http://www.w3.org/1999/xlink" x="0px" y="0px"
	 viewBox="0 0 14 14" style="enable-background:new 0 0 14 14;" xml:space="preserve">
<style type="text/css">
	.st0{fill:#FFFFFF;}
</style>
<g>
	<path class="st0" d="M9.23,5.82L7.91,8.19C7.64,8.63,7.04,8.71,6.68,8.34C6.32,7.98,6.39,7.38,6.83,7.12l2.22-1.48
		C8.52,5.12,7.79,4.82,7,4.82c-1.67,0-3.02,1.35-3.02,3.02S5.33,10.85,7,10.85s3.02-1.35,3.02-3.02C10.02,7.06,9.72,6.35,9.23,5.82z
		"/>
	<path class="st0" d="M7,2.83c-2.76,0-5,2.24-5,5s2.24,5,5,5s5-2.24,5-5S9.76,2.83,7,2.83z M7,11.48c-2.01,0-3.65-1.63-3.65-3.65
		c0-2.01,1.63-3.65,3.65-3.65s3.65,1.64,3.65,3.65S9.01,11.48,7,11.48z"/>
</g>
<g>
	<rect x="5.33" y="1.17" class="st0" width="3.33" height="0.83"/>
</g>
<g>
	<rect x="6.17" y="1.58" class="st0" width="1.67" height="1.67"/>
</g>
<g>
	<rect x="9.92" y="2.83" transform="matrix(0.7071 -0.7071 0.7071 0.7071 0.5558 8.6753)" class="st0" width="1.67" height="1.67"/>
</g>
</svg>
