<?xml version="1.0" encoding="utf-8"?>
<!-- Generator: Adobe Illustrator 23.0.4, SVG Export Plug-In . SVG Version: 6.00 Build 0)  -->
<svg version="1.1" id="图层_1" xmlns="http://www.w3.org/2000/svg" xmlns:xlink="http://www.w3.org/1999/xlink" x="0px" y="0px"
	 viewBox="0 0 14 14" style="enable-background:new 0 0 14 14;" xml:space="preserve">
<style type="text/css">
	.st0{fill:#FFFFFF;}
</style>
<path class="st0" d="M7,1C3.68,1,1,3.68,1,7s2.68,6,6,6s6-2.68,6-6S10.32,1,7,1z M9.43,3.37c0.33-0.33,0.87-0.33,1.21,0
	s0.33,0.87,0,1.21c-0.33,0.33-0.87,0.33-1.21,0C9.09,4.24,9.09,3.7,9.43,3.37z M2.71,7.86C2.24,7.86,1.86,7.47,1.86,7
	s0.39-0.86,0.86-0.86S3.57,6.53,3.57,7S3.19,7.86,2.71,7.86z M4.57,10.63c-0.33,0.33-0.87,0.33-1.21,0c-0.33-0.33-0.33-0.87,0-1.21
	c0.33-0.33,0.87-0.33,1.21,0C4.91,9.76,4.91,10.3,4.57,10.63z M4.57,4.57c-0.33,0.33-0.87,0.33-1.21,0c-0.33-0.33-0.33-0.87,0-1.21
	s0.87-0.33,1.21,0C4.91,3.7,4.91,4.24,4.57,4.57z M7,12.14c-0.47,0-0.86-0.39-0.86-0.86S6.53,10.43,7,10.43s0.86,0.39,0.86,0.86
	S7.47,12.14,7,12.14z M7,3.57c-0.47,0-0.86-0.39-0.86-0.86S6.53,1.86,7,1.86s0.86,0.39,0.86,0.86S7.47,3.57,7,3.57z M10.63,10.63
	c-0.33,0.33-0.87,0.33-1.21,0c-0.33-0.33-0.33-0.87,0-1.21c0.33-0.33,0.87-0.33,1.21,0C10.97,9.76,10.97,10.3,10.63,10.63z
	 M11.29,7.86c-0.47,0-0.86-0.39-0.86-0.86s0.39-0.86,0.86-0.86S12.14,6.53,12.14,7S11.76,7.86,11.29,7.86z"/>
</svg>
