<?xml version="1.0" encoding="utf-8"?>
<!-- Generator: Adobe Illustrator 22.0.0, SVG Export Plug-In . SVG Version: 6.00 Build 0)  -->
<svg version="1.1" id="图层_1" xmlns="http://www.w3.org/2000/svg" xmlns:xlink="http://www.w3.org/1999/xlink" x="0px" y="0px"
	 viewBox="0 0 26 26" style="enable-background:new 0 0 26 26;" xml:space="preserve">
<style type="text/css">
	.st0{fill:#FFFFFF;}
	.st1{fill:none;stroke:#ABB9C6;stroke-miterlimit:10;}
	.st2{opacity:0.99;fill:none;stroke:#ABB9C6;stroke-linecap:round;stroke-linejoin:round;stroke-miterlimit:10;}
	.st3{fill:#ABB9C6;}
	.st4{fill:none;stroke:#ABB9C6;stroke-linecap:round;stroke-linejoin:round;stroke-miterlimit:10;}
</style>
<g>
	<g>
		
			<image style="overflow:visible;opacity:0.14;" width="58" height="59" xlink:href="C024D3F790DA0598.png"  transform="matrix(1 0 0 1 -16 -17)">
		</image>
		<g>
			<circle class="st0" cx="13" cy="12.4" r="10.8"/>
		</g>
	</g>
	<g>
		<g>
			<circle class="st1" cx="12.7" cy="12" r="5.5"/>
			<line class="st2" x1="16.6" y1="16.2" x2="18.8" y2="18.4"/>
		</g>
		<g>
			<path class="st3" d="M15.3,12.6h-5c-0.3,0-0.5-0.2-0.5-0.5v-0.2c0-0.3,0.2-0.5,0.5-0.5h5c0.3,0,0.5,0.2,0.5,0.5V12
				C15.8,12.3,15.6,12.6,15.3,12.6z"/>
			<path class="st3" d="M12.2,14.5v-5c0-0.3,0.2-0.5,0.5-0.5h0.2c0.3,0,0.5,0.2,0.5,0.5v5c0,0.3-0.2,0.5-0.5,0.5h-0.2
				C12.4,15,12.2,14.8,12.2,14.5z"/>
		</g>
	</g>
</g>
<g>
	<g>
		
			<image style="overflow:visible;opacity:0.14;" width="59" height="59" xlink:href="C024D3F790DA0599.png"  transform="matrix(1 0 0 1 -17 -17)">
		</image>
		<g>
			<circle class="st0" cx="12.9" cy="12.4" r="10.9"/>
		</g>
	</g>
	<g>
		<g>
			<circle class="st1" cx="12.6" cy="12" r="5.6"/>
			<line class="st4" x1="16.5" y1="16.2" x2="18.7" y2="18.4"/>
		</g>
		<path class="st3" d="M15,12.6h-4.9c-0.3,0-0.6-0.3-0.6-0.6v0c0-0.3,0.3-0.6,0.6-0.6H15c0.3,0,0.6,0.3,0.6,0.6v0
			C15.6,12.3,15.4,12.6,15,12.6z"/>
	</g>
</g>
</svg>
