<?xml version="1.0" encoding="utf-8"?>
<!-- Generator: Adobe Illustrator 22.0.0, SVG Export Plug-In . SVG Version: 6.00 Build 0)  -->
<svg version="1.1" id="图层_1" xmlns="http://www.w3.org/2000/svg" xmlns:xlink="http://www.w3.org/1999/xlink" x="0px" y="0px"
	 viewBox="0 0 26 26" style="enable-background:new 0 0 26 26;" xml:space="preserve">
<style type="text/css">
	.st0{fill:#FFFFFF;}
	.st1{fill:#ABB9C6;}
	.st2{fill:#FFFFFF;stroke:#ABB9C6;stroke-miterlimit:10;}
</style>
<g>
	<g>
		
			<image style="overflow:visible;opacity:0.14;" width="59" height="59" xlink:href="6AE2DCE8EC35BF7B.png"  transform="matrix(1 0 0 1 -17 -17.0428)">
		</image>
		<g>
			<circle class="st0" cx="12.9" cy="12.4" r="10.9"/>
		</g>
	</g>
	<g>
		<g>
			<path class="st1" d="M20.3,12.9H5.5c-0.3,0-0.5-0.2-0.5-0.5v0c0-0.3,0.2-0.5,0.5-0.5h14.8c0.3,0,0.5,0.2,0.5,0.5v0
				C20.7,12.7,20.5,12.9,20.3,12.9z"/>
			<path class="st1" d="M12.4,19.8V5c0-0.3,0.2-0.5,0.5-0.5h0c0.3,0,0.5,0.2,0.5,0.5v14.8c0,0.3-0.2,0.5-0.5,0.5h0
				C12.6,20.3,12.4,20.1,12.4,19.8z"/>
		</g>
		<g>
			<g>
				<g>
					<circle class="st2" cx="12.9" cy="12.4" r="5.6"/>
				</g>
			</g>
			<circle class="st1" cx="12.9" cy="12.4" r="2"/>
		</g>
	</g>
</g>
</svg>
