<?xml version="1.0" encoding="utf-8"?>
<!-- Generator: Adobe Illustrator 22.0.0, SVG Export Plug-In . SVG Version: 6.00 Build 0)  -->
<svg version="1.1" id="图层_1" xmlns="http://www.w3.org/2000/svg" xmlns:xlink="http://www.w3.org/1999/xlink" x="0px" y="0px"
	 viewBox="0 0 24 7" style="enable-background:new 0 0 24 7;" xml:space="preserve">
<style type="text/css">
	.st0{fill:#ABB9C6;}
	.st1{fill:#FFFFFF;}
</style>
<g>
	<path class="st0" d="M21.7,7H2.3C1.6,7,1,6.5,1,5.8l0,0c0-0.7,0.6-1.2,1.2-1.2h19.5c0.7,0,1.2,0.6,1.2,1.2l0,0
		C23,6.5,22.4,7,21.7,7z"/>
	<g>
		<path class="st0" d="M16.5,4.9h-9V1.5C7.5,0.7,8.2,0,9,0h6c0.8,0,1.5,0.7,1.5,1.5V4.9L16.5,4.9z"/>
		<path class="st1" d="M14.9,4H9.3C9.2,4,9.1,3.9,9.1,3.8V2c0-0.3,0.4-0.6,0.8-0.6h4.6c0.3,0,0.6,0.2,0.6,0.5v1.9
			C15.1,3.9,15,4,14.9,4z"/>
	</g>
</g>
</svg>
