<?xml version="1.0" encoding="utf-8"?>
<!-- Generator: Adobe Illustrator 22.0.0, SVG Export Plug-In . SVG Version: 6.00 Build 0)  -->
<svg version="1.1" id="图层_1" xmlns="http://www.w3.org/2000/svg" xmlns:xlink="http://www.w3.org/1999/xlink" x="0px" y="0px"
	 viewBox="0 0 24 26" style="enable-background:new 0 0 24 26;" xml:space="preserve">
<style type="text/css">
	.st0{fill:#ABB9C6;}
	.st1{fill:#FFFFFF;}
</style>
<g>
	<path class="st0" d="M20.3,26H3.7c-1.9,0-3.6-1.6-3.6-3.6V0.4h23.8v22.1C23.9,24.4,22.3,26,20.3,26z"/>
	<g>
		<path class="st1" d="M8.3,19.9L8.3,19.9c-1,0-1.8-0.9-1.8-1.8V8.4c0-1,0.9-1.8,1.8-1.8l0,0c1,0,1.8,0.9,1.8,1.8v9.7
			C10.2,19,9.3,19.9,8.3,19.9z"/>
		<path class="st1" d="M15.7,19.9L15.7,19.9c-1,0-1.8-0.9-1.8-1.8V8.4c0-1,0.9-1.8,1.8-1.8l0,0c1,0,1.8,0.9,1.8,1.8v9.7
			C17.5,19,16.6,19.9,15.7,19.9z"/>
	</g>
</g>
</svg>
