<?xml version="1.0" encoding="utf-8"?>
<!-- Generator: Adobe Illustrator 22.0.0, SVG Export Plug-In . SVG Version: 6.00 Build 0)  -->
<svg version="1.1" id="图层_1" xmlns="http://www.w3.org/2000/svg" xmlns:xlink="http://www.w3.org/1999/xlink" x="0px" y="0px"
	 viewBox="0 0 17.9 15.4" style="enable-background:new 0 0 17.9 15.4;" xml:space="preserve">
<style type="text/css">
	.st0{fill:#FFFFFF;}
</style>
<title>G0图标</title>
<path class="st0" d="M11.1,6.1v3c0,0.5-0.4,0.8-0.8,0.8H7.7c-0.5,0-0.8-0.4-0.8-0.8v-3c0-0.5,0.4-0.8,0.8-0.8h2.6
	C10.7,5.3,11.1,5.7,11.1,6.1z"/>
<path class="st0" d="M13,13.8c0,0.3,0.3,0.5,0.6,0.5h3c0.3,0,0.5-0.2,0.5-0.5V1.4c0-0.3-0.2-0.6-0.5-0.6l0,0h-3
	c-0.3,0-0.6,0.2-0.6,0.5v0v0.3H5V1.4c0-0.3-0.2-0.6-0.6-0.6l0,0h-3c-0.3,0-0.5,0.2-0.5,0.5v12.3c0,0.3,0.3,0.5,0.5,0.5h3
	c0.3,0,0.5-0.2,0.6-0.5v-0.4h8L13,13.8z M2,13.2V2h1.9v11.2H2z M5,2.9h8v9.4H5V2.9z M14.1,13.2V2h2v11.2H14.1z"/>
</svg>
