<?xml version="1.0" encoding="utf-8"?>
<!-- Generator: Adobe Illustrator 21.0.0, SVG Export Plug-In . SVG Version: 6.00 Build 0)  -->
<svg version="1.1" id="图层_1" xmlns="http://www.w3.org/2000/svg" xmlns:xlink="http://www.w3.org/1999/xlink" x="0px" y="0px"
	 viewBox="0 0 46 46" style="enable-background:new 0 0 46 46;" xml:space="preserve">
<style type="text/css">
	.st0{fill:#FFFFFF;}
</style>
<g>
	<g>
		<path class="st0" d="M11.5,12.3v21.3H5c-1.4,0-2.5-1.1-2.5-2.6V14.9c0-1.4,1.1-2.6,2.5-2.6H11.5 M14,9.8H5c-2.8,0-5,2.3-5,5.1
			v16.2c0,2.8,2.3,5.1,5,5.1H14V9.8L14,9.8z"/>
	</g>
	<g>
		<path class="st0" d="M28.6,2.7c0.3,0,0.7,0.2,0.7,0.7v39.2c0,0.5-0.4,0.7-0.7,0.7c-0.1,0-0.1,0-0.2,0l-14.2-8.6V11.3l14.2-8.6
			C28.4,2.7,28.5,2.7,28.6,2.7 M28.6,0c-0.5,0-1,0.1-1.4,0.3L11.5,9.8v26.4l15.7,9.5c0.5,0.2,1,0.3,1.4,0.3c1.8,0,3.4-1.4,3.4-3.4
			V3.4C31.9,1.4,30.3,0,28.6,0L28.6,0z"/>
	</g>
	<g>
		<polygon class="st0" points="39.6,9.9 38.1,7.9 44.5,2.9 46,5 		"/>
	</g>
	<g>
		<polygon class="st0" points="44.5,42.6 38.1,37.6 39.6,35.6 46,40.6 		"/>
	</g>
	<g>
		<rect x="37.7" y="21.3" class="st0" width="8.3" height="2.6"/>
	</g>
</g>
</svg>
