<?xml version="1.0" encoding="utf-8"?>
<!-- Generator: Adobe Illustrator 21.0.0, SVG Export Plug-In . SVG Version: 6.00 Build 0)  -->
<svg version="1.1" id="图层_1" xmlns="http://www.w3.org/2000/svg" xmlns:xlink="http://www.w3.org/1999/xlink" x="0px" y="0px"
	 viewBox="0 0 46 46" style="enable-background:new 0 0 46 46;" xml:space="preserve">
<style type="text/css">
	.st0{fill:#FFFFFF;}
</style>
<g>
	<g>
		<path class="st0" d="M13.9,28c-0.7,0-1.3-0.6-1.3-1.3V5.1c0-2.8,2.3-5.1,5.1-5.1c2.8,0,5.1,2.3,5.1,5.1v13.7
			c0,0.7-0.6,1.3-1.3,1.3s-1.3-0.6-1.3-1.3V5.1c0-1.4-1.2-2.6-2.6-2.6s-2.6,1.2-2.6,2.6v21.6C15.2,27.4,14.6,28,13.9,28z"/>
	</g>
	<g>
		<path class="st0" d="M29.7,46H18.7c-1.7,0-3.3-0.8-4.2-2.2L5.7,31c-1.6-2.3-1-5.5,1.3-7.1c2.3-1.6,5.5-1,7.1,1.3l1.8,2.6
			c0.4,0.6,0.2,1.4-0.3,1.8c-0.6,0.4-1.4,0.2-1.8-0.3L12,26.7c-0.8-1.2-2.4-1.5-3.6-0.7c-0.6,0.4-0.9,1-1.1,1.6s0,1.4,0.4,1.9
			l8.8,12.8c0.5,0.7,1.3,1.1,2.1,1.1h11.1c3.1,0,6-1.6,7.6-4.3c0.9-1.4,1.3-3.1,1.3-4.7V19.1c0-1-0.8-1.8-1.8-1.8
			c-1,0-1.8,0.8-1.8,1.8v6.5c0,0.7-0.6,1.3-1.3,1.3c-0.7,0-1.3-0.6-1.3-1.3v-6.5c0-2.4,1.9-4.3,4.3-4.3s4.3,1.9,4.3,4.3v15.4
			c0,2.1-0.6,4.2-1.7,6.1C37.4,44,33.7,46,29.7,46z"/>
	</g>
	<g>
		<path class="st0" d="M21.6,23.9c-0.7,0-1.3-0.6-1.3-1.3v-6.7c0-2.4,1.9-4.3,4.3-4.3s4.3,1.9,4.3,4.3c0,0.7-0.6,1.3-1.3,1.3
			s-1.3-0.6-1.3-1.3c0-1-0.8-1.8-1.8-1.8c-1,0-1.8,0.8-1.8,1.8v6.7C22.8,23.3,22.3,23.9,21.6,23.9z"/>
	</g>
	<g>
		<path class="st0" d="M27.7,24.8c-0.7,0-1.3-0.6-1.3-1.3v-7c0-2.4,1.9-4.3,4.3-4.3c2.4,0,4.5,2,4.5,4.3v3.8c0,0.7-0.6,1.3-1.3,1.3
			c-0.7,0-1.3-0.6-1.3-1.3v-3.8c0-0.9-0.9-1.8-1.9-1.8c-1,0-1.8,0.8-1.8,1.8v7C28.9,24.2,28.4,24.8,27.7,24.8z"/>
	</g>
</g>
</svg>
