<?xml version="1.0" encoding="utf-8"?>
<!-- Generator: Adobe Illustrator 21.0.0, SVG Export Plug-In . SVG Version: 6.00 Build 0)  -->
<svg version="1.1" id="图层_1" xmlns="http://www.w3.org/2000/svg" xmlns:xlink="http://www.w3.org/1999/xlink" x="0px" y="0px"
	 viewBox="0 0 46 46" style="enable-background:new 0 0 46 46;" xml:space="preserve">
<style type="text/css">
	.st0{fill:#FFFFFF;}
</style>
<g>
	<g>
		<g>
			<path class="st0" d="M40.9,9.6c1.4,0,2.6,1.1,2.6,2.6v23.1c0,1.4-1.1,2.6-2.6,2.6H5.2c-1.4,0-2.6-1.1-2.6-2.6V12.1
				c0-1.4,1.1-2.6,2.6-2.6H40.9 M40.9,7H5.2c-2.8,0-5.1,2.3-5.1,5.1v23.1c0,2.8,2.3,5.1,5.1,5.1h35.7c2.8,0,5.1-2.3,5.1-5.1V12.1
				C46,9.3,43.7,7,40.9,7L40.9,7z"/>
		</g>
	</g>
	<g>
		<g>
			<g>
				<path class="st0" d="M13.5,17.7c3.3,0,5.9,2.7,5.9,5.9s-2.7,5.9-5.9,5.9s-5.9-2.7-5.9-5.9S10.3,17.7,13.5,17.7 M13.5,15.1
					c-4.7,0-8.5,3.8-8.5,8.5c0,4.7,3.8,8.5,8.5,8.5s8.5-3.8,8.5-8.5C22,18.9,18.2,15.1,13.5,15.1L13.5,15.1z"/>
			</g>
		</g>
		<g>
			<rect x="9.4" y="20.7" class="st0" width="8.3" height="1.9"/>
		</g>
		<g>
			<rect x="9.4" y="24.7" class="st0" width="8.3" height="1.9"/>
		</g>
		<g>
			<rect x="14.6" y="19.5" class="st0" width="1.9" height="8.3"/>
		</g>
		<g>
			<rect x="10.6" y="19.5" class="st0" width="1.9" height="8.3"/>
		</g>
	</g>
	<g>
		<g>
			<g>
				<path class="st0" d="M32.6,17.7c3.3,0,5.9,2.7,5.9,5.9s-2.7,5.9-5.9,5.9s-5.9-2.7-5.9-5.9S29.3,17.7,32.6,17.7 M32.6,15.1
					c-4.7,0-8.5,3.8-8.5,8.5c0,4.7,3.8,8.5,8.5,8.5c4.7,0,8.5-3.8,8.5-8.5C41,18.9,37.2,15.1,32.6,15.1L32.6,15.1z"/>
			</g>
		</g>
		<g>
			<rect x="28.5" y="20.7" class="st0" width="8.3" height="1.9"/>
		</g>
		<g>
			<rect x="28.5" y="24.7" class="st0" width="8.3" height="1.9"/>
		</g>
		<g>
			<rect x="33.7" y="19.5" class="st0" width="1.9" height="8.3"/>
		</g>
		<g>
			<rect x="29.7" y="19.5" class="st0" width="1.9" height="8.3"/>
		</g>
	</g>
</g>
</svg>
