<?xml version="1.0" encoding="utf-8"?>
<!-- Generator: Adobe Illustrator 21.0.0, SVG Export Plug-In . SVG Version: 6.00 Build 0)  -->
<svg version="1.1" id="图层_1" xmlns="http://www.w3.org/2000/svg" xmlns:xlink="http://www.w3.org/1999/xlink" x="0px" y="0px"
	 viewBox="0 0 46 46" style="enable-background:new 0 0 46 46;" xml:space="preserve">
<style type="text/css">
	.st0{fill:#FFFFFF;}
</style>
<g>
	<g>
		<path class="st0" d="M46,36.9h-2.7V5.6c0-1-0.8-1.8-1.8-1.9L18,7.1c-1,0-1.9,0.8-1.9,1.9v27.9h-2.7V9c0-2.5,2-4.6,4.5-4.6L41.4,1
			C43.9,1,46,3,46,5.6V36.9z"/>
	</g>
	<g>
		<path class="st0" d="M8.1,31.6c3,0,5.4,2.4,5.4,5.4s-2.4,5.4-5.4,5.4s-5.4-2.4-5.4-5.4S5.1,31.6,8.1,31.6 M8.1,28.8
			c-4.5,0-8.1,3.6-8.1,8.1S3.6,45,8.1,45c4.5,0,8.1-3.6,8.1-8.1S12.6,28.8,8.1,28.8L8.1,28.8z"/>
	</g>
	<g>
		<path class="st0" d="M37.8,31.6c3,0,5.4,2.4,5.4,5.4s-2.4,5.4-5.4,5.4s-5.4-2.4-5.4-5.4S34.8,31.6,37.8,31.6 M37.8,28.8
			c-4.5,0-8.1,3.6-8.1,8.1s3.6,8.1,8.1,8.1c4.5,0,8.1-3.6,8.1-8.1S42.3,28.8,37.8,28.8L37.8,28.8z"/>
	</g>
	<g>
		<rect x="14.7" y="13.6" transform="matrix(0.9923 -0.124 0.124 0.9923 -1.6237 3.772)" class="st0" width="29.6" height="2.7"/>
	</g>
</g>
</svg>
