<?xml version="1.0" encoding="utf-8"?>
<!-- Generator: Adobe Illustrator 21.0.0, SVG Export Plug-In . SVG Version: 6.00 Build 0)  -->
<svg version="1.1" id="图层_1" xmlns="http://www.w3.org/2000/svg" xmlns:xlink="http://www.w3.org/1999/xlink" x="0px" y="0px"
	 viewBox="0 0 46 46" style="enable-background:new 0 0 46 46;" xml:space="preserve">
<style type="text/css">
	.st0{fill:#FFFFFF;}
</style>
<g>
	<g>
		<g>
			<path class="st0" d="M13.3,45.9c-3.6,0-6.9-1.4-9.4-3.9S0,36.1,0,32.6s1.4-6.9,3.9-9.4c3.3-3.3,8-4.6,12.5-3.5L33.9,2.1
				c1.3-1.3,3.1-2,4.9-2c1.9,0,3.6,0.7,4.9,2c2.7,2.7,2.7,7.2,0,9.9L26.2,29.5C27.3,34,26,38.7,22.7,42
				C20.2,44.5,16.9,45.9,13.3,45.9z M13.3,21.8c-2.8,0-5.5,1.1-7.6,3.1c-2,2-3.1,4.7-3.1,7.6c0,2.9,1.1,5.6,3.1,7.6
				c2,2,4.7,3.1,7.6,3.1s5.6-1.1,7.6-3.1c2.8-2.8,3.8-6.9,2.7-10.7l-0.2-0.7L42,10.2c1.7-1.7,1.7-4.5,0-6.3c-0.8-0.8-2-1.3-3.1-1.3
				c-1.2,0-2.3,0.5-3.1,1.3L17.1,22.5l-0.7-0.2C15.4,22,14.3,21.8,13.3,21.8z"/>
		</g>
		<g>
			<path class="st0" d="M11.8,38.2c-1.8,0-3.6-0.7-4.9-2c-2.7-2.7-2.7-7.1,0-9.8s7.1-2.7,9.8,0s2.7,7.1,0,9.8
				C15.4,37.5,13.6,38.2,11.8,38.2z M11.8,26.9c-1.1,0-2.2,0.4-3.1,1.3c-1.7,1.7-1.7,4.5,0,6.2c1.7,1.7,4.5,1.7,6.2,0
				c1.7-1.7,1.7-4.5,0-6.2C14,27.3,12.9,26.9,11.8,26.9z"/>
		</g>
		<g>
			<g>
				
					<rect x="35.2" y="9.2" transform="matrix(0.7071 -0.7071 0.7071 0.7071 2.8382 29.0058)" class="st0" width="2.6" height="3.8"/>
			</g>
			<g>
				
					<rect x="29.9" y="14.5" transform="matrix(0.7071 -0.7071 0.7071 0.7071 -2.4423 26.8185)" class="st0" width="2.6" height="3.8"/>
			</g>
			<g>
				
					<rect x="24.6" y="19.8" transform="matrix(0.7071 -0.7071 0.7071 0.7071 -7.7227 24.6313)" class="st0" width="2.6" height="3.8"/>
			</g>
		</g>
	</g>
	<g>
		<path class="st0" d="M39,46c-2.1,0-3.8-1.7-3.8-3.8c0-1.6,1.9-4.9,2.7-6.2l1.1-1.8l1.1,1.8c0.8,1.3,2.7,4.7,2.7,6.2
			C42.8,44.3,41.1,46,39,46z M39,39.2c-0.7,1.4-1.3,2.6-1.3,3c0,0.7,0.6,1.3,1.3,1.3c0.7,0,1.3-0.6,1.3-1.3
			C40.2,41.8,39.7,40.6,39,39.2z"/>
	</g>
	<g>
		<path class="st0" d="M32.5,37.5c-2.1,0-3.8-1.7-3.8-3.8c0-1.6,1.9-4.9,2.7-6.2l1.1-1.8l1.1,1.8c0.8,1.3,2.7,4.7,2.7,6.2
			C36.3,35.8,34.6,37.5,32.5,37.5z M32.5,30.7c-0.7,1.4-1.3,2.6-1.3,3c0,0.7,0.6,1.3,1.3,1.3c0.7,0,1.3-0.6,1.3-1.3
			C33.7,33.3,33.2,32.1,32.5,30.7z"/>
	</g>
	<g>
		<path class="st0" d="M42.2,32.4c-2.1,0-3.8-1.7-3.8-3.8c0-1.6,1.9-4.9,2.7-6.2l1.1-1.8l1.1,1.8c0.8,1.3,2.7,4.7,2.7,6.2
			C46,30.7,44.3,32.4,42.2,32.4z M42.2,25.6c-0.7,1.4-1.3,2.6-1.3,3c0,0.7,0.6,1.3,1.3,1.3c0.7,0,1.3-0.6,1.3-1.3
			C43.5,28.1,42.9,26.9,42.2,25.6z"/>
	</g>
</g>
</svg>
