<?xml version="1.0" encoding="utf-8"?>
<!-- Generator: Adobe Illustrator 21.0.0, SVG Export Plug-In . SVG Version: 6.00 Build 0)  -->
<svg version="1.1" id="图层_1" xmlns="http://www.w3.org/2000/svg" xmlns:xlink="http://www.w3.org/1999/xlink" x="0px" y="0px"
	 viewBox="0 0 46 46" style="enable-background:new 0 0 46 46;" xml:space="preserve">
<style type="text/css">
	.st0{fill:#FFFFFF;}
</style>
<g>
	<g>
		<g>
			<path class="st0" d="M16.8,2.6c1.4,0,2.4,1.1,2.4,2.4v11.7c0,1.4-1.1,2.4-2.4,2.4H5.1c-1.4,0-2.4-1.1-2.4-2.4V5.1
				c0-1.4,1.1-2.4,2.4-2.4H16.8 M16.8,0H5.1C2.3,0,0,2.3,0,5.1v11.7c0,2.8,2.3,5.1,5.1,5.1h11.7c2.8,0,5.1-2.3,5.1-5.1V5.1
				C21.9,2.3,19.7,0,16.8,0L16.8,0z"/>
		</g>
	</g>
	<g>
		<g>
			<path class="st0" d="M11.1,6.9c2.2,0,4,1.8,4,4V11c0,2.2-1.8,4-4,4h-0.2c-2.2,0-4-1.8-4-4v-0.2c0-2.2,1.8-4,4-4H11.1 M11.1,4.2
				h-0.2c-3.7,0-6.6,3-6.6,6.6V11c0,3.7,3,6.6,6.6,6.6h0.2c3.7,0,6.6-3,6.6-6.6v-0.2C17.7,7.2,14.7,4.2,11.1,4.2L11.1,4.2z"/>
		</g>
	</g>
	<g>
		<g>
			<path class="st0" d="M40.9,2.6c1.4,0,2.4,1.1,2.4,2.4v11.7c0,1.4-1.1,2.4-2.4,2.4H29.2c-1.4,0-2.4-1.1-2.4-2.4V5.1
				c0-1.4,1.1-2.4,2.4-2.4H40.9 M40.9,0H29.2c-2.8,0-5.1,2.3-5.1,5.1v11.7c0,2.8,2.3,5.1,5.1,5.1h11.7c2.8,0,5.1-2.3,5.1-5.1V5.1
				C46,2.3,43.7,0,40.9,0L40.9,0z"/>
		</g>
	</g>
	<g>
		<g>
			<path class="st0" d="M35.1,6.9c2.2,0,4,1.8,4,4V11c0,2.2-1.8,4-4,4H35c-2.2,0-4-1.8-4-4v-0.2c0-2.2,1.8-4,4-4H35.1 M35.1,4.2H35
				c-3.7,0-6.6,3-6.6,6.6V11c0,3.7,3,6.6,6.6,6.6h0.2c3.7,0,6.6-3,6.6-6.6v-0.2C41.8,7.2,38.8,4.2,35.1,4.2L35.1,4.2z"/>
		</g>
	</g>
	<g>
		<g>
			<path class="st0" d="M16.8,26.8c1.4,0,2.4,1.1,2.4,2.4v11.7c0,1.4-1.1,2.4-2.4,2.4H5.1c-1.4,0-2.4-1.1-2.4-2.4V29.2
				c0-1.4,1.1-2.4,2.4-2.4H16.8 M16.8,24.1H5.1c-2.8,0-5.1,2.3-5.1,5.1v11.7C0,43.7,2.3,46,5.1,46h11.7c2.8,0,5.1-2.3,5.1-5.1V29.2
				C21.9,26.4,19.7,24.1,16.8,24.1L16.8,24.1z"/>
		</g>
	</g>
	<g>
		<g>
			<path class="st0" d="M11.1,31c2.2,0,4,1.8,4,4v0.2c0,2.2-1.8,4-4,4h-0.2c-2.2,0-4-1.8-4-4V35c0-2.2,1.8-4,4-4H11.1 M11.1,28.3
				h-0.2c-3.7,0-6.6,3-6.6,6.6v0.2c0,3.7,3,6.6,6.6,6.6h0.2c3.7,0,6.6-3,6.6-6.6V35C17.7,31.3,14.7,28.3,11.1,28.3L11.1,28.3z"/>
		</g>
	</g>
	<g>
		<g>
			<path class="st0" d="M40.9,26.8c1.4,0,2.4,1.1,2.4,2.4v11.7c0,1.4-1.1,2.4-2.4,2.4H29.2c-1.4,0-2.4-1.1-2.4-2.4V29.2
				c0-1.4,1.1-2.4,2.4-2.4H40.9 M40.9,24.1H29.2c-2.8,0-5.1,2.3-5.1,5.1v11.7c0,2.8,2.3,5.1,5.1,5.1h11.7c2.8,0,5.1-2.3,5.1-5.1
				V29.2C46,26.4,43.7,24.1,40.9,24.1L40.9,24.1z"/>
		</g>
	</g>
	<g>
		<g>
			<path class="st0" d="M35.1,31c2.2,0,4,1.8,4,4v0.2c0,2.2-1.8,4-4,4H35c-2.2,0-4-1.8-4-4V35c0-2.2,1.8-4,4-4H35.1 M35.1,28.3H35
				c-3.7,0-6.6,3-6.6,6.6v0.2c0,3.7,3,6.6,6.6,6.6h0.2c3.7,0,6.6-3,6.6-6.6V35C41.8,31.3,38.8,28.3,35.1,28.3L35.1,28.3z"/>
		</g>
	</g>
</g>
</svg>
