<?xml version="1.0" encoding="utf-8"?>
<!-- Generator: Adobe Illustrator 21.0.0, SVG Export Plug-In . SVG Version: 6.00 Build 0)  -->
<svg version="1.1" id="图层_1" xmlns="http://www.w3.org/2000/svg" xmlns:xlink="http://www.w3.org/1999/xlink" x="0px" y="0px"
	 viewBox="0 0 46 46" style="enable-background:new 0 0 46 46;" xml:space="preserve">
<style type="text/css">
	.st0{fill:#FFFFFF;}
</style>
<g>
	<g>
		<g>
			<path class="st0" d="M40.9,2.6c1.4,0,2.6,1.1,2.6,2.5v35.8c0,1.4-1.1,2.5-2.6,2.5H5.1c-1.4,0-2.6-1.1-2.6-2.5V5.1
				c0-1.4,1.1-2.5,2.6-2.5H40.9 M40.9,0H5.1C2.3,0,0,2.3,0,5.1v35.8C0,43.7,2.3,46,5.1,46h35.8c2.8,0,5.1-2.3,5.1-5.1V5.1
				C46,2.3,43.7,0,40.9,0L40.9,0z"/>
		</g>
	</g>
	<g>
		<path class="st0" d="M11,8.2c1.1,0,2,0.9,2,2s-0.9,2-2,2h-0.2c-1.1,0-2-0.9-2-2s0.9-2,2-2H11 M11,5.7h-0.2c-2.5,0-4.5,2-4.5,4.5
			c0,2.5,2,4.5,4.5,4.5H11c2.5,0,4.5-2,4.5-4.5C15.5,7.7,13.5,5.7,11,5.7L11,5.7z"/>
	</g>
	<g>
		<path class="st0" d="M23.3,8.2c1.1,0,2,0.9,2,2s-0.9,2-2,2H23c-1.1,0-2-0.9-2-2s0.9-2,2-2H23.3 M23.3,5.7H23c-2.5,0-4.5,2-4.5,4.5
			c0,2.5,2,4.5,4.5,4.5h0.2c2.5,0,4.5-2,4.5-4.5C27.8,7.7,25.8,5.7,23.3,5.7L23.3,5.7z"/>
	</g>
	<g>
		<path class="st0" d="M35.6,8.2c1.1,0,2,0.9,2,2s-0.9,2-2,2h-0.2c-1.1,0-2-0.9-2-2s0.9-2,2-2H35.6 M35.6,5.7h-0.2
			c-2.5,0-4.5,2-4.5,4.5c0,2.5,2,4.5,4.5,4.5h0.2c2.5,0,4.5-2,4.5-4.5C40.1,7.7,38.1,5.7,35.6,5.7L35.6,5.7z"/>
	</g>
	<g>
		<path class="st0" d="M11,21.1c1.1,0,2,0.9,2,2s-0.9,2-2,2h-0.2c-1.1,0-2-0.9-2-2s0.9-2,2-2H11 M11,18.5h-0.2c-2.5,0-4.5,2-4.5,4.5
			c0,2.5,2,4.5,4.5,4.5H11c2.5,0,4.5-2,4.5-4.5C15.5,20.5,13.5,18.5,11,18.5L11,18.5z"/>
	</g>
	<g>
		<path class="st0" d="M23.3,21.1c1.1,0,2,0.9,2,2s-0.9,2-2,2H23c-1.1,0-2-0.9-2-2s0.9-2,2-2H23.3 M23.3,18.5H23
			c-2.5,0-4.5,2-4.5,4.5c0,2.5,2,4.5,4.5,4.5h0.2c2.5,0,4.5-2,4.5-4.5C27.8,20.5,25.8,18.5,23.3,18.5L23.3,18.5z"/>
	</g>
	<g>
		<path class="st0" d="M35.6,21.1c1.1,0,2,0.9,2,2s-0.9,2-2,2h-0.2c-1.1,0-2-0.9-2-2s0.9-2,2-2H35.6 M35.6,18.5h-0.2
			c-2.5,0-4.5,2-4.5,4.5c0,2.5,2,4.5,4.5,4.5h0.2c2.5,0,4.5-2,4.5-4.5C40.1,20.5,38.1,18.5,35.6,18.5L35.6,18.5z"/>
	</g>
	<g>
		<path class="st0" d="M11,33.9c1.1,0,2,0.9,2,2c0,1.1-0.9,2-2,2h-0.2c-1.1,0-2-0.9-2-2c0-1.1,0.9-2,2-2H11 M11,31.3h-0.2
			c-2.5,0-4.5,2-4.5,4.5c0,2.5,2,4.5,4.5,4.5H11c2.5,0,4.5-2,4.5-4.5C15.5,33.3,13.5,31.3,11,31.3L11,31.3z"/>
	</g>
	<g>
		<path class="st0" d="M23.3,33.9c1.1,0,2,0.9,2,2c0,1.1-0.9,2-2,2H23c-1.1,0-2-0.9-2-2c0-1.1,0.9-2,2-2H23.3 M23.3,31.3H23
			c-2.5,0-4.5,2-4.5,4.5c0,2.5,2,4.5,4.5,4.5h0.2c2.5,0,4.5-2,4.5-4.5C27.8,33.3,25.8,31.3,23.3,31.3L23.3,31.3z"/>
	</g>
	<g>
		<path class="st0" d="M35.6,33.9c1.1,0,2,0.9,2,2c0,1.1-0.9,2-2,2h-0.2c-1.1,0-2-0.9-2-2c0-1.1,0.9-2,2-2H35.6 M35.6,31.3h-0.2
			c-2.5,0-4.5,2-4.5,4.5c0,2.5,2,4.5,4.5,4.5h0.2c2.5,0,4.5-2,4.5-4.5C40.1,33.3,38.1,31.3,35.6,31.3L35.6,31.3z"/>
	</g>
</g>
</svg>
