<?xml version="1.0" encoding="utf-8"?>
<!-- Generator: Adobe Illustrator 21.0.0, SVG Export Plug-In . SVG Version: 6.00 Build 0)  -->
<svg version="1.1" id="图层_1" xmlns="http://www.w3.org/2000/svg" xmlns:xlink="http://www.w3.org/1999/xlink" x="0px" y="0px"
	 viewBox="0 0 46 46" style="enable-background:new 0 0 46 46;" xml:space="preserve">
<style type="text/css">
	.st0{fill:#FFFFFF;}
</style>
<g>
	<g>
		<g>
			<path class="st0" d="M40.2,2.6c0.9,0,1.7,0.3,2.3,0.9c1.2,1.2,1.2,3.3,0,4.5L8.1,42.5c-0.6,0.6-1.4,0.9-2.3,0.9
				c-0.9,0-1.7-0.3-2.3-0.9c-1.2-1.2-1.2-3.3,0-4.5L37.9,3.6C38.5,3,39.3,2.6,40.2,2.6 M40.2,0.1c-1.5,0-2.9,0.6-4.1,1.7L1.8,36.1
				c-2.2,2.2-2.2,5.9,0,8.1c1.1,1.1,2.6,1.7,4.1,1.7s2.9-0.6,4.1-1.7L44.2,9.9c2.2-2.2,2.2-5.9,0-8.1C43.1,0.6,41.7,0.1,40.2,0.1
				L40.2,0.1z"/>
		</g>
	</g>
	<g>
		<path class="st0" d="M4.1,36.2C1.4,32.3,0,27.7,0,23C0,10.3,10.3,0,23,0c4.6,0,9.1,1.4,12.9,4l-1.4,2.1C31.1,3.8,27.1,2.6,23,2.6
			C11.7,2.6,2.6,11.7,2.6,23c0,4.2,1.3,8.3,3.7,11.7L4.1,36.2z"/>
	</g>
	<g>
		<path class="st0" d="M23,46c-4.4,0-8.7-1.3-12.4-3.6l1.4-2.1c3.3,2.1,7.1,3.2,11,3.2c11.3,0,20.4-9.2,20.4-20.4
			c0-3.8-1.1-7.6-3.1-10.8l2.2-1.4C44.8,14.5,46,18.7,46,23C46,35.7,35.7,46,23,46z"/>
	</g>
</g>
</svg>
