<?xml version="1.0" encoding="utf-8"?>
<!-- Generator: Adobe Illustrator 21.0.0, SVG Export Plug-In . SVG Version: 6.00 Build 0)  -->
<svg version="1.1" id="图层_1" xmlns="http://www.w3.org/2000/svg" xmlns:xlink="http://www.w3.org/1999/xlink" x="0px" y="0px"
	 viewBox="0 0 46 46" style="enable-background:new 0 0 46 46;" xml:space="preserve">
<style type="text/css">
	.st0{fill:#FFFFFF;}
</style>
<g>
	<g>
		<path class="st0" d="M23,22c4.2,0,7.6,3.4,7.6,7.6s-3.4,7.6-7.6,7.6s-7.6-3.4-7.6-7.6S18.8,22,23,22 M23,19.5
			c-5.6,0-10.1,4.5-10.1,10.1c0,5.6,4.5,10.1,10.1,10.1s10.1-4.5,10.1-10.1C33.1,24,28.5,19.5,23,19.5L23,19.5z"/>
	</g>
	<g>
		<g>
			<rect x="21.7" y="11" class="st0" width="2.6" height="18.6"/>
		</g>
		<g>
			<path class="st0" d="M22.9,10.5L22.9,10.5L22.9,10.5L22.9,10.5 M22.9,3.1c-0.2,0-0.5,0.1-0.6,0.4l-2.7,8.8
				c-0.1,0.4,0.2,0.7,0.6,0.7h5.4c0.4,0,0.7-0.4,0.6-0.7l-2.7-8.8C23.4,3.3,23.1,3.1,22.9,3.1L22.9,3.1z"/>
		</g>
	</g>
	<g>
		<g>
			
				<rect x="7.1" y="32.5" transform="matrix(0.8661 -0.4999 0.4999 0.8661 -14.8172 12.3363)" class="st0" width="17" height="2.6"/>
		</g>
		<g>
			<path class="st0" d="M6.4,39.2L6.4,39.2L6.4,39.2L6.4,39.2 M6.8,35.3c-0.2,0-0.3,0.1-0.4,0.2l-6.2,6.7c-0.4,0.4-0.1,1,0.4,1
				c0,0,0.1,0,0.1,0l8.9-2.1c0.4-0.1,0.6-0.5,0.4-0.8l-2.7-4.7C7.2,35.4,7,35.3,6.8,35.3L6.8,35.3z"/>
		</g>
	</g>
	<g>
		<g>
			<rect x="29.4" y="25.1" transform="matrix(0.5 -0.866 0.866 0.5 -14.1375 43.5818)" class="st0" width="2.6" height="17.8"/>
		</g>
		<g>
			<path class="st0" d="M39.6,39.1L39.6,39.1L39.6,39.1L39.6,39.1 M39.2,35.2c-0.2,0-0.4,0.1-0.5,0.3L36,40.1
				c-0.2,0.3,0,0.8,0.4,0.8l8.9,2.1c0,0,0.1,0,0.1,0c0.5,0,0.8-0.6,0.4-1l-6.2-6.7C39.5,35.2,39.3,35.2,39.2,35.2L39.2,35.2z"/>
		</g>
	</g>
</g>
</svg>
