<?xml version="1.0" encoding="utf-8"?>
<!-- Generator: Adobe Illustrator 21.0.0, SVG Export Plug-In . SVG Version: 6.00 Build 0)  -->
<svg version="1.1" id="图层_1" xmlns="http://www.w3.org/2000/svg" xmlns:xlink="http://www.w3.org/1999/xlink" x="0px" y="0px"
	 viewBox="0 0 46 46" style="enable-background:new 0 0 46 46;" xml:space="preserve">
<style type="text/css">
	.st0{fill:#FFFFFF;}
</style>
<g>
	<g>
		<rect x="17.9" y="22.5" class="st0" width="10.5" height="2.6"/>
	</g>
	<g>
		<rect x="21.9" y="18.5" class="st0" width="2.6" height="10.5"/>
	</g>
	<g>
		<g>
			<path class="st0" d="M40.9,2.5c1.4,0,2.6,1.1,2.6,2.5v35.8c0,1.4-1.1,2.5-2.6,2.5H5.1c-1.4,0-2.6-1.1-2.6-2.5V5.1
				c0-1.4,1.1-2.5,2.6-2.5H40.9 M40.9,0H5.1C2.3,0,0,2.3,0,5.1v35.8C0,43.7,2.3,46,5.1,46h35.8c2.8,0,5.1-2.3,5.1-5.1V5.1
				C46,2.3,43.7,0,40.9,0L40.9,0z"/>
		</g>
	</g>
	<g>
		<g>
			<path class="st0" d="M31.1,12.3c1.4,0,2.6,1.1,2.6,2.5v16.2c0,1.4-1.1,2.5-2.6,2.5H14.9c-1.4,0-2.6-1.1-2.6-2.5V14.9
				c0-1.4,1.1-2.5,2.6-2.5H31.1 M31.1,9.8H14.9c-2.8,0-5.1,2.3-5.1,5.1v16.2c0,2.8,2.3,5.1,5.1,5.1h16.2c2.8,0,5.1-2.3,5.1-5.1V14.9
				C36.2,12.1,33.9,9.8,31.1,9.8L31.1,9.8z"/>
		</g>
	</g>
	<g>
		<rect x="0.1" y="38.4" transform="matrix(0.7056 -0.7086 0.7086 0.7056 -25.918 16.907)" class="st0" width="14.6" height="2.6"/>
	</g>
	<g>
		
			<rect x="37.9" y="32.4" transform="matrix(0.7087 -0.7055 0.7055 0.7087 -16.5569 39.1969)" class="st0" width="2.6" height="14.6"/>
	</g>
	<g>
		<polygon class="st0" points="11.4,13.1 1.1,2.8 2.9,1 13.2,11.3 		"/>
	</g>
	<g>
		<rect x="31.9" y="6.6" transform="matrix(0.7056 -0.7086 0.7086 0.7056 5.9702 30.0783)" class="st0" width="14.6" height="2.6"/>
	</g>
</g>
</svg>
