<?xml version="1.0" encoding="utf-8"?>
<!-- Generator: Adobe Illustrator 21.0.0, SVG Export Plug-In . SVG Version: 6.00 Build 0)  -->
<svg version="1.1" id="图层_1" xmlns="http://www.w3.org/2000/svg" xmlns:xlink="http://www.w3.org/1999/xlink" x="0px" y="0px"
	 viewBox="0 0 46 46" style="enable-background:new 0 0 46 46;" xml:space="preserve">
<style type="text/css">
	.st0{fill:#FFFFFF;}
</style>
<g>
	<g>
		<path class="st0" d="M21.6,34.5c-7.1,0-12.9-5.8-12.9-12.9c0-7.1,5.8-12.9,12.9-12.9s12.9,5.8,12.9,12.9
			C34.6,28.7,28.8,34.5,21.6,34.5z M21.6,11.2c-5.7,0-10.4,4.7-10.4,10.4S15.9,32,21.6,32S32,27.3,32,21.6S27.4,11.2,21.6,11.2z"/>
	</g>
	<g>
		<path class="st0" d="M21.6,40.4v-2.6c9,0,16.3-7.3,16.3-16.3h2.6C40.5,32,32,40.4,21.6,40.4z"/>
	</g>
	<g>
		<path class="st0" d="M21.6,46v-2.6c12,0,21.8-9.8,21.8-21.9H46C46,35,35.1,46,21.6,46z"/>
	</g>
	<g>
		<rect x="20.4" class="st0" width="2.6" height="5.7"/>
	</g>
	<g>
		<polygon class="st0" points="33.8,11.3 32,9.5 36,5.5 37.8,7.3 		"/>
	</g>
	<g>
		<polygon class="st0" points="7.2,38 5.4,36.1 9.4,32.1 11.3,33.9 		"/>
	</g>
	<g>
		<rect y="20.4" class="st0" width="5.7" height="2.6"/>
	</g>
	<g>
		<polygon class="st0" points="9.4,11.3 5.4,7.3 7.2,5.5 11.3,9.5 		"/>
	</g>
</g>
</svg>
