<?xml version="1.0" encoding="utf-8"?>
<!-- Generator: Adobe Illustrator 21.0.0, SVG Export Plug-In . SVG Version: 6.00 Build 0)  -->
<svg version="1.1" id="图层_1" xmlns="http://www.w3.org/2000/svg" xmlns:xlink="http://www.w3.org/1999/xlink" x="0px" y="0px"
	 viewBox="0 0 46 46" style="enable-background:new 0 0 46 46;" xml:space="preserve">
<style type="text/css">
	.st0{fill:#FFFFFF;}
</style>
<g>
	<g>
		<g>
			<path class="st0" d="M40.8,8.9c1.4,0,2.6,1.1,2.6,2.6v23.1c0,1.4-1.1,2.6-2.6,2.6H5.1c-1.4,0-2.6-1.1-2.6-2.6V11.4
				c0-1.4,1.1-2.6,2.6-2.6H40.8 M40.8,6.3H5.1C2.3,6.3,0,8.6,0,11.4v23.1c0,2.8,2.3,5.1,5.1,5.1h35.7c2.8,0,5.1-2.3,5.1-5.1V11.4
				C45.9,8.6,43.6,6.3,40.8,6.3L40.8,6.3z"/>
		</g>
	</g>
	<g>
		<g>
			<path class="st0" d="M18.3,18.1v9.8H8.5v-9.8H18.3 M18.3,15.5H8.5c-1.4,0-2.6,1.1-2.6,2.6v9.8c0,1.4,1.1,2.6,2.6,2.6h9.8
				c1.4,0,2.6-1.1,2.6-2.6v-9.8C20.8,16.7,19.7,15.5,18.3,15.5L18.3,15.5z"/>
		</g>
	</g>
	<g>
		<g>
			<path class="st0" d="M13.4,18.1c2.7,0,4.9,2.2,4.9,4.9s-2.2,4.9-4.9,4.9S8.5,25.7,8.5,23S10.7,18.1,13.4,18.1 M13.4,15.5
				c-4.1,0-7.5,3.3-7.5,7.5c0,4.1,3.3,7.5,7.5,7.5s7.5-3.3,7.5-7.5C20.8,18.9,17.5,15.5,13.4,15.5L13.4,15.5z"/>
		</g>
	</g>
	<g>
		<g>
			<path class="st0" d="M37.4,18.1v9.8h-9.8v-9.8H37.4 M37.4,15.5h-9.8c-1.4,0-2.6,1.1-2.6,2.6v9.8c0,1.4,1.1,2.6,2.6,2.6h9.8
				c1.4,0,2.6-1.1,2.6-2.6v-9.8C40,16.7,38.9,15.5,37.4,15.5L37.4,15.5z"/>
		</g>
	</g>
	<g>
		<g>
			<path class="st0" d="M32.5,18.1c2.7,0,4.9,2.2,4.9,4.9s-2.2,4.9-4.9,4.9s-4.9-2.2-4.9-4.9S29.8,18.1,32.5,18.1 M32.5,15.5
				c-4.1,0-7.5,3.3-7.5,7.5c0,4.1,3.3,7.5,7.5,7.5S40,27.1,40,23C40,18.9,36.7,15.5,32.5,15.5L32.5,15.5z"/>
		</g>
	</g>
</g>
</svg>
