<?xml version="1.0" encoding="utf-8"?>
<!-- Generator: Adobe Illustrator 21.0.0, SVG Export Plug-In . SVG Version: 6.00 Build 0)  -->
<svg version="1.1" id="图层_1" xmlns="http://www.w3.org/2000/svg" xmlns:xlink="http://www.w3.org/1999/xlink" x="0px" y="0px"
	 viewBox="0 0 46 46" style="enable-background:new 0 0 46 46;" xml:space="preserve">
<style type="text/css">
	.st0{fill:#FFFFFF;}
</style>
<g>
	<g>
		<path class="st0" d="M6.3,2.6c2,0,3.7,1.7,3.7,3.7v33.5c0,2-1.7,3.7-3.7,3.7c-2,0-3.7-1.7-3.7-3.7V6.2C2.6,4.2,4.2,2.6,6.3,2.6
			 M6.3,0C2.8,0,0,2.8,0,6.2v33.5C0,43.2,2.8,46,6.3,46c3.4,0,6.2-2.8,6.2-6.2V6.2C12.5,2.8,9.7,0,6.3,0L6.3,0z"/>
	</g>
	<g>
		<path class="st0" d="M39.7,2.6c2,0,3.7,1.7,3.7,3.7v33.5c0,2-1.7,3.7-3.7,3.7c-2,0-3.7-1.7-3.7-3.7V6.2C36,4.2,37.7,2.6,39.7,2.6
			 M39.7,0c-3.4,0-6.2,2.8-6.2,6.2v33.5c0,3.4,2.8,6.2,6.2,6.2c3.4,0,6.2-2.8,6.2-6.2V6.2C46,2.8,43.2,0,39.7,0L39.7,0z"/>
	</g>
	<g>
		<g>
			<path class="st0" d="M33.5,9.4v27.2H12.5V9.4H33.5 M36,6.9H10v32.3h26V6.9L36,6.9z"/>
		</g>
	</g>
	<g>
		<g>
			<path class="st0" d="M26.3,19.6v6.8h-6.8v-6.8H26.3 M28.9,17.1H17V29h11.9V17.1L28.9,17.1z"/>
		</g>
	</g>
</g>
</svg>
