<?xml version="1.0" encoding="utf-8"?>
<!-- Generator: Adobe Illustrator 21.0.0, SVG Export Plug-In . SVG Version: 6.00 Build 0)  -->
<svg version="1.1" id="图层_1" xmlns="http://www.w3.org/2000/svg" xmlns:xlink="http://www.w3.org/1999/xlink" x="0px" y="0px"
	 viewBox="0 0 46 46" style="enable-background:new 0 0 46 46;" xml:space="preserve">
<style type="text/css">
	.st0{fill:#FFFFFF;}
</style>
<g>
	<g>
		<path class="st0" d="M13.4,46c-3.4,0-6.8-1.3-9.4-3.9C1.4,39.6,0,36.2,0,32.6s1.4-6.9,3.9-9.4c3.3-3.3,8-4.6,12.5-3.6L34,2.1
			c2.7-2.7,7.2-2.7,9.9,0C45.3,3.4,46,5.1,46,7c0,1.9-0.7,3.6-2.1,5L26.4,29.6c1.1,4.5-0.3,9.2-3.6,12.5C20.2,44.7,16.8,46,13.4,46z
			 M13.4,21.9c-2.8,0-5.6,1.1-7.6,3.2c-2,2-3.2,4.7-3.2,7.6c0,2.9,1.1,5.6,3.2,7.6c4.2,4.2,11,4.2,15.2,0c2.8-2.8,3.8-6.9,2.7-10.7
			l-0.2-0.7l18.7-18.7c0.8-0.8,1.3-2,1.3-3.1c0-1.2-0.5-2.3-1.3-3.1c-1.7-1.7-4.6-1.7-6.3,0L17.2,22.5l-0.7-0.2
			C15.4,22,14.4,21.9,13.4,21.9z"/>
	</g>
	<g>
		<path class="st0" d="M11.9,38.3c-1.9,0-3.6-0.7-4.9-2c-2.7-2.7-2.7-7.1,0-9.8c1.3-1.3,3.1-2,4.9-2c1.9,0,3.6,0.7,4.9,2
			c1.3,1.3,2,3.1,2,4.9c0,1.9-0.7,3.6-2,4.9l0,0l0,0C15.5,37.6,13.7,38.3,11.9,38.3z M11.9,26.9c-1.2,0-2.3,0.5-3.1,1.3
			c-1.7,1.7-1.7,4.5,0,6.2c0.8,0.8,1.9,1.3,3.1,1.3s2.3-0.5,3.1-1.3l0,0c1.7-1.7,1.7-4.5,0-6.2C14.1,27.4,13,26.9,11.9,26.9z"/>
	</g>
	<g>
		<g>
			<rect x="41.5" y="16.1" transform="matrix(0.707 -0.7072 0.7072 0.707 -0.203 35.5421)" class="st0" width="2.6" height="3.8"/>
		</g>
		<g>
			<rect x="36.2" y="21.4" transform="matrix(0.707 -0.7072 0.7072 0.707 -5.5058 33.346)" class="st0" width="2.6" height="3.8"/>
		</g>
		<g>
			
				<rect x="30.9" y="26.7" transform="matrix(0.707 -0.7072 0.7072 0.707 -10.8086 31.1498)" class="st0" width="2.6" height="3.8"/>
		</g>
	</g>
	<g>
		<g>
			
				<rect x="22.3" y="15.6" transform="matrix(0.7032 -0.711 0.711 0.7032 -2.8632 26.9558)" class="st0" width="17.1" height="2.6"/>
		</g>
	</g>
</g>
</svg>
