<?xml version="1.0" encoding="utf-8"?>
<!-- Generator: Adobe Illustrator 21.0.0, SVG Export Plug-In . SVG Version: 6.00 Build 0)  -->
<svg version="1.1" id="图层_1" xmlns="http://www.w3.org/2000/svg" xmlns:xlink="http://www.w3.org/1999/xlink" x="0px" y="0px"
	 viewBox="0 0 46 46" style="enable-background:new 0 0 46 46;" xml:space="preserve">
<style type="text/css">
	.st0{fill:#FFFFFF;}
</style>
<g>
	<g>
		<path class="st0" d="M23,20.6c11.3,0,20.4,9.2,20.4,20.4c0,1.2-0.9,2.1-2.1,2.1H4.7c-1.2,0-2.1-0.9-2.1-2.1
			C2.6,29.8,11.7,20.6,23,20.6 M23,18.1c-12.7,0-23,10.3-23,23v0c0,2.6,2.1,4.7,4.7,4.7h36.7c2.6,0,4.7-2.1,4.7-4.7v0
			C46,28.4,35.7,18.1,23,18.1L23,18.1z"/>
	</g>
	<g>
		<polygon class="st0" points="11.4,32.7 7.3,32.7 7.3,39.5 11.4,39.5 11.4,32.7 		"/>
	</g>
	<g>
		<polygon class="st0" points="18.1,30.1 14.1,30.1 14.1,36.9 18.1,36.9 18.1,30.1 		"/>
	</g>
	<g>
		<polygon class="st0" points="24.9,27.6 20.8,27.6 20.8,34.4 24.9,34.4 24.9,27.6 		"/>
	</g>
	<g>
		<polygon class="st0" points="31.6,30.1 27.6,30.1 27.6,36.9 31.6,36.9 31.6,30.1 		"/>
	</g>
	<g>
		<polygon class="st0" points="38.4,32.7 34.3,32.7 34.3,39.5 38.4,39.5 38.4,32.7 		"/>
	</g>
	<g>
		<path class="st0" d="M34.5,15.4c-6.3-6.3-16.7-6.3-23,0l-1.8-1.8c7.3-7.3,19.3-7.3,26.6,0L34.5,15.4z"/>
	</g>
	<g>
		<path class="st0" d="M38.4,8.9c-8.5-8.5-22.4-8.5-30.9,0L5.8,7.1c9.5-9.5,25-9.5,34.5,0L38.4,8.9z"/>
	</g>
</g>
</svg>
