<?xml version="1.0" encoding="utf-8"?>
<!-- Generator: Adobe Illustrator 21.0.0, SVG Export Plug-In . SVG Version: 6.00 Build 0)  -->
<svg version="1.1" id="图层_1" xmlns="http://www.w3.org/2000/svg" xmlns:xlink="http://www.w3.org/1999/xlink" x="0px" y="0px"
	 viewBox="0 0 46 46" style="enable-background:new 0 0 46 46;" xml:space="preserve">
<style type="text/css">
	.st0{fill:#FFFFFF;}
</style>
<g>
	<g>
		<g>
			<path class="st0" d="M32.7,8.1c1,0,1.7,0.8,1.7,1.7v25c0,1-0.8,1.7-1.7,1.7H10.9c-4.6,0-8.3-3.7-8.3-8.3V16.4
				c0-4.6,3.7-8.3,8.3-8.3H32.7 M32.7,5.4H10.9C4.9,5.4,0,10.3,0,16.4v11.9c0,6,4.9,10.9,10.9,10.9h21.8c2.4,0,4.4-2,4.4-4.4v-25
				C37.1,7.4,35.1,5.4,32.7,5.4L32.7,5.4z"/>
		</g>
	</g>
	<g>
		<path class="st0" d="M34.8,45.9H10.7c-0.7,0-1.3-0.6-1.3-1.3s0.6-1.3,1.3-1.3h24.2c0.7,0,1.3,0.6,1.3,1.3S35.5,45.9,34.8,45.9z"/>
	</g>
	<g>
		<path class="st0" d="M31,16.9H17.4c-0.7,0-1.3-0.6-1.3-1.3c0-0.7,0.6-1.3,1.3-1.3H31c0.7,0,1.3,0.6,1.3,1.3
			C32.3,16.3,31.7,16.9,31,16.9z"/>
	</g>
	<g>
		<path class="st0" d="M31,24H17.4c-0.7,0-1.3-0.6-1.3-1.3c0-0.7,0.6-1.3,1.3-1.3H31c0.7,0,1.3,0.6,1.3,1.3C32.3,23.4,31.7,24,31,24
			z"/>
	</g>
	<g>
		<path class="st0" d="M31,31.1H17.4c-0.7,0-1.3-0.6-1.3-1.3c0-0.7,0.6-1.3,1.3-1.3H31c0.7,0,1.3,0.6,1.3,1.3
			C32.3,30.5,31.7,31.1,31,31.1z"/>
	</g>
	<g>
		<path class="st0" d="M12.2,38.6c-0.7,0-1.3-0.6-1.3-1.3V7.3C11,6.6,11.5,6,12.2,6s1.3,0.6,1.3,1.3v30.1
			C13.5,38.1,12.9,38.6,12.2,38.6z"/>
	</g>
	<g>
		<path class="st0" d="M38.5,31h-2.3v-2.6h2.3c0.2,0,0.4-0.2,0.4-0.5v-11c0-0.3-0.2-0.5-0.4-0.5h-2.3v-2.6h2.3c1.7,0,3,1.4,3,3.1v11
			C41.5,29.5,40.1,31,38.5,31z"/>
	</g>
	<g>
		<path class="st0" d="M31.6,7.3h-2.6V3c0-0.2-0.2-0.4-0.5-0.4h-7.8c-0.3,0-0.5,0.2-0.5,0.4v4.2h-2.6V3c0-1.7,1.4-3,3.1-3h7.8
			c1.7,0,3.1,1.3,3.1,3V7.3z"/>
	</g>
	<g>
		<path class="st0" d="M42.5,26.2h-2.9v-2.6h2.9c0.5,0,0.8-0.4,0.8-0.8s-0.4-0.8-0.8-0.8h-2.9v-2.6h2.9c1.9,0,3.5,1.6,3.5,3.5
			S44.4,26.2,42.5,26.2z"/>
	</g>
	<g>
		<path class="st0" d="M14.5,45c-0.7,0-1.3-0.6-1.3-1.3V38c0-0.7,0.6-1.3,1.3-1.3s1.3,0.6,1.3,1.3v5.7C15.7,44.4,15.2,45,14.5,45z"
			/>
	</g>
	<g>
		<path class="st0" d="M30.4,45c-0.7,0-1.3-0.6-1.3-1.3V38c0-0.7,0.6-1.3,1.3-1.3c0.7,0,1.3,0.6,1.3,1.3v5.7
			C31.6,44.4,31.1,45,30.4,45z"/>
	</g>
</g>
</svg>
