<?xml version="1.0" encoding="utf-8"?>
<!-- Generator: Adobe Illustrator 21.0.0, SVG Export Plug-In . SVG Version: 6.00 Build 0)  -->
<svg version="1.1" id="图层_1" xmlns="http://www.w3.org/2000/svg" xmlns:xlink="http://www.w3.org/1999/xlink" x="0px" y="0px"
	 viewBox="0 0 46 46" style="enable-background:new 0 0 46 46;" xml:space="preserve">
<style type="text/css">
	.st0{fill:#FFFFFF;}
</style>
<g>
	<g>
		<g>
			<path class="st0" d="M17.7,2.5c1.5,0,2.8,1.2,2.8,2.8v23.1h-5.6V5.3C14.9,3.8,16.2,2.5,17.7,2.5 M17.7,0L17.7,0
				c-3,0-5.3,2.4-5.3,5.3V31h10.7V5.3C23.1,2.4,20.7,0,17.7,0L17.7,0z"/>
		</g>
	</g>
	<g>
		<path class="st0" d="M42.2,46H3.8C1.7,46,0,44.3,0,42.2V18.9c0-2.1,1.7-3.8,3.8-3.8h9.7v2.5H3.8c-0.7,0-1.3,0.6-1.3,1.3v23.3
			c0,0.7,0.6,1.3,1.3,1.3h38.3c0.7,0,1.3-0.6,1.3-1.3V18.9c0-0.7-0.6-1.3-1.3-1.3h-21v-2.5h21c2.1,0,3.8,1.7,3.8,3.8v23.3
			C46,44.3,44.3,46,42.2,46z"/>
	</g>
	<g>
		<polygon class="st0" points="39.3,31 6.7,31 6.7,22.1 13.4,22.1 13.4,24.6 9.2,24.6 9.2,28.5 36.8,28.5 36.8,24.6 21.4,24.6 
			21.4,22.1 39.3,22.1 		"/>
	</g>
</g>
</svg>
