<?xml version="1.0" encoding="utf-8"?>
<!-- Generator: Adobe Illustrator 21.0.0, SVG Export Plug-In . SVG Version: 6.00 Build 0)  -->
<svg version="1.1" id="图层_1" xmlns="http://www.w3.org/2000/svg" xmlns:xlink="http://www.w3.org/1999/xlink" x="0px" y="0px"
	 viewBox="0 0 46 46" style="enable-background:new 0 0 46 46;" xml:space="preserve">
<style type="text/css">
	.st0{fill:#FFFFFF;}
</style>
<g>
	<g>
		<g>
			<path class="st0" d="M40.9,2.5c1.4,0,2.6,1.1,2.6,2.5v35.8c0,1.4-1.1,2.5-2.6,2.5H5.1c-1.4,0-2.6-1.1-2.6-2.5V5.1
				c0-1.4,1.1-2.5,2.6-2.5H40.9 M40.9,0H5.1C2.3,0,0,2.3,0,5.1v35.8C0,43.7,2.3,46,5.1,46h35.8c2.8,0,5.1-2.3,5.1-5.1V5.1
				C46,2.3,43.7,0,40.9,0L40.9,0z"/>
		</g>
	</g>
	<g>
		<rect x="1.2" y="10.7" class="st0" width="43.3" height="2.5"/>
	</g>
	<g>
		<rect x="1.2" y="21.4" class="st0" width="43.3" height="2.5"/>
	</g>
	<g>
		<rect x="1.2" y="32.1" class="st0" width="43.3" height="2.5"/>
	</g>
	<g>
		<rect x="32.4" y="1.1" class="st0" width="2.6" height="43.1"/>
	</g>
	<g>
		<rect x="21.6" y="1.1" class="st0" width="2.6" height="43.1"/>
	</g>
	<g>
		<rect x="10.8" y="1.1" class="st0" width="2.6" height="43.1"/>
	</g>
</g>
</svg>
