<?xml version="1.0" encoding="utf-8"?>
<!-- Generator: Adobe Illustrator 21.0.0, SVG Export Plug-In . SVG Version: 6.00 Build 0)  -->
<svg version="1.1" id="图层_1" xmlns="http://www.w3.org/2000/svg" xmlns:xlink="http://www.w3.org/1999/xlink" x="0px" y="0px"
	 viewBox="0 0 30 18" style="enable-background:new 0 0 30 18;" xml:space="preserve">
<style type="text/css">
	.st0{fill:#ABB9C6;}
</style>
<g>
	<path class="st0" d="M15.8,18H9c-5,0-9-4-9-9c0-5,4-9,9-9h1v2H9C5.1,2,2,5.1,2,9c0,3.9,3.1,7,7,7h3.2l-2.1-3.5l1.7-1L15.8,18z"/>
</g>
<g>
	<path class="st0" d="M21,18h-1v-2h1c3.9,0,7-3.1,7-7c0-3.9-3.1-7-7-7h-3.2l2.1,3.5l-1.7,1L14.2,0H21c5,0,9,4,9,9C30,14,26,18,21,18
		z"/>
</g>
</svg>
