<?xml version="1.0" encoding="utf-8"?>
<!-- Generator: Adobe Illustrator 21.0.0, SVG Export Plug-In . SVG Version: 6.00 Build 0)  -->
<svg version="1.1" id="图层_1" xmlns="http://www.w3.org/2000/svg" xmlns:xlink="http://www.w3.org/1999/xlink" x="0px" y="0px"
	 viewBox="0 0 40 26" style="enable-background:new 0 0 40 26;" xml:space="preserve">
<style type="text/css">
	.st0{fill:#51DDD4;}
	.st1{fill:#FFFFFF;}
</style>
<path class="st0" d="M13.8,26h-1.7c-0.7,0-1.4-0.4-1.7-1L8,20h10l-2.5,5C15.2,25.6,14.6,26,13.8,26z"/>
<path class="st0" d="M32.3,0H17.1c-0.5,0-0.9,0.3-1.2,0.7l-1,2c-0.2,0.4-0.7,0.7-1.2,0.7h-1.6c-0.5,0-0.9-0.3-1.2-0.7l-1-2
	C9.8,0.3,9.4,0,8.9,0H7.7C3.4,0,0,3.4,0,7.7v6.7C0,18.6,3.4,22,7.7,22h24.7c4.2,0,7.7-3.4,7.7-7.7V7.7C40,3.4,36.6,0,32.3,0z"/>
<g>
	<rect x="21" y="10" class="st1" width="12" height="2"/>
</g>
<g>
	<rect x="26" y="5" class="st1" width="2" height="12"/>
</g>
</svg>
